<svg version="1.1"
                    xmlns="http://www.w3.org/2000/svg"
                    width="350px"
                    height="350px"
                    viewBox="0 0 350 350">
                <defs>
                    <linearGradient id="flavoursGrad" x1="0%" y1="0%" x2="35%" y2="100%"
                            gradientTransform="translate(20, 20); ">
                        <stop offset="35%" style="stop-color: #f63a99;" />
                        <stop offset="35%" style="stop-color: #30dcf6;" />
                        
                        <stop offset="60%" style="stop-color: #30dcf6;" />
                        <stop offset="60%" style="stop-color: #f2d200;" />

                        <stop offset="85%" style="stop-color: #f2d200;" />
                        <stop offset="85%" style="stop-color: #70ca5c;" />
                    </linearGradient>
                </defs>
				
				<g transform="translate(80, 0)">
					<!-- Kem -->
					<path d="M 0 80
							A 70 80 0 0 1 70 0
							L 120 0
							A 70 80 0 0 0 190 80
							L 190 250
							A 10 10 0 0 1 180 260
							L 10 260
							A 10 10 0 0 1 0 250
							Z"
							fill="url(#flavoursGrad)" />

					<!-- Bóng của kem -->
					<path d="M 20 80
							A 10 10 0 0 1 40 80
							L 40 230
							A 10 10 0 0 1 20 230
							Z"
							fill="rgba(255, 255, 255, 0.5)" />

					<!-- Que cầm -->
					<path d="M 65 260
							L 125 260
							L 125 315
							A 30 30 0 0 1 65 315
							Z"
							fill="#E09C5F" />
					
					<!-- Bóng của que cầm -->
					<rect x="65" y="260"
							width="60" height="25"
							fill="#8D613B"/>
				</g>
            </svg>