<svg xmlns="http://www.w3.org/2000/svg" xmlns:xlink="http://www.w3.org/1999/xlink" viewBox="0 0 700 348" width="700" height="348"><path d="M 27.500,197.000 C 31.018,197.249 31.000,197.000 34.500,197.000" stroke-width="5.460" stroke="black" fill="none" stroke-linecap="round"></path><path d="M 34.500,197.000 C 38.157,197.045 38.018,196.749 41.500,196.000" stroke-width="4.266" stroke="black" fill="none" stroke-linecap="round"></path><path d="M 41.500,196.000 C 45.846,193.551 46.157,194.545 50.500,192.000" stroke-width="3.747" stroke="black" fill="none" stroke-linecap="round"></path><path d="M 50.500,192.000 C 56.558,190.698 56.346,190.051 62.500,189.000" stroke-width="3.389" stroke="black" fill="none" stroke-linecap="round"></path><path d="M 62.500,189.000 C 66.974,187.415 67.058,187.698 71.500,186.000" stroke-width="3.487" stroke="black" fill="none" stroke-linecap="round"></path><path d="M 71.500,186.000 C 74.983,184.938 74.974,184.915 78.500,184.000" stroke-width="3.744" stroke="black" fill="none" stroke-linecap="round"></path><path d="M 78.500,184.000 C 82.571,183.228 82.483,182.938 86.500,182.000" stroke-width="3.774" stroke="black" fill="none" stroke-linecap="round"></path><path d="M 86.500,182.000 C 90.592,180.710 90.571,180.728 94.500,179.000" stroke-width="3.699" stroke="black" fill="none" stroke-linecap="round"></path><path d="M 94.500,179.000 C 98.430,176.850 98.592,177.210 102.500,175.000" stroke-width="3.690" stroke="black" fill="none" stroke-linecap="round"></path><path d="M 102.500,175.000 C 109.642,172.292 109.430,171.850 116.500,169.000" stroke-width="3.084" stroke="black" fill="none" stroke-linecap="round"></path><path d="M 116.500,169.000 C 121.951,165.907 122.142,166.292 127.500,163.000" stroke-width="3.133" stroke="black" fill="none" stroke-linecap="round"></path><path d="M 127.500,163.000 C 132.370,160.198 132.451,160.407 137.500,158.000" stroke-width="3.311" stroke="black" fill="none" stroke-linecap="round"></path><path d="M 137.500,158.000 C 143.180,156.394 142.870,155.698 148.500,154.000" stroke-width="3.325" stroke="black" fill="none" stroke-linecap="round"></path><path d="M 148.500,154.000 C 153.000,151.500 153.180,151.894 157.500,149.000" stroke-width="3.393" stroke="black" fill="none" stroke-linecap="round"></path><path d="M 157.500,149.000 C 162.184,146.774 162.000,146.500 166.500,144.000" stroke-width="3.469" stroke="black" fill="none" stroke-linecap="round"></path><path d="M 166.500,144.000 C 168.913,141.881 169.184,142.274 171.500,140.000" stroke-width="3.836" stroke="black" fill="none" stroke-linecap="round"></path><path d="M 171.500,140.000 C 174.392,137.813 174.413,137.881 177.500,136.000" stroke-width="3.915" stroke="black" fill="none" stroke-linecap="round"></path><path d="M 177.500,136.000 C 180.728,134.848 180.392,134.313 183.500,133.000" stroke-width="3.997" stroke="black" fill="none" stroke-linecap="round"></path><path d="M 183.500,133.000 C 186.752,130.748 186.728,130.848 189.500,128.000" stroke-width="4.368" stroke="black" fill="none" stroke-linecap="round"></path><path d="M 189.500,128.000 C 191.668,125.617 191.752,125.748 193.500,123.000" stroke-width="4.116" stroke="black" fill="none" stroke-linecap="round"></path><path d="M 193.500,123.000 C 195.054,120.531 195.168,120.617 196.500,118.000" stroke-width="4.167" stroke="black" fill="none" stroke-linecap="round"></path><path d="M 196.500,118.000 C 199.614,113.715 199.054,113.531 201.500,109.000" stroke-width="4.271" stroke="black" fill="none" stroke-linecap="round"></path><path d="M 201.500,109.000 C 202.268,106.022 202.614,106.215 202.500,103.000" stroke-width="4.580" stroke="black" fill="none" stroke-linecap="round"></path><path d="M 202.500,103.000 C 202.500,99.500 202.768,99.522 202.500,96.000" stroke-width="4.605" stroke="black" fill="none" stroke-linecap="round"></path><path d="M 202.500,96.000 C 202.921,92.948 202.500,93.000 202.500,90.000" stroke-width="4.233" stroke="black" fill="none" stroke-linecap="round"></path><path d="M 202.500,90.000 C 202.550,85.222 201.921,85.948 200.500,82.000" stroke-width="4.615" stroke="black" fill="none" stroke-linecap="round"></path><path d="M 200.500,82.000 C 198.211,79.739 199.050,79.722 195.500,79.000" stroke-width="5.048" stroke="black" fill="none" stroke-linecap="round"></path><path d="M 195.500,79.000 C 192.399,78.473 192.711,78.239 189.500,79.000" stroke-width="4.750" stroke="black" fill="none" stroke-linecap="round"></path><path d="M 189.500,79.000 C 186.862,79.728 186.899,79.473 184.500,81.000" stroke-width="4.405" stroke="black" fill="none" stroke-linecap="round"></path><path d="M 184.500,81.000 C 180.564,83.609 180.362,83.228 176.500,86.000" stroke-width="3.760" stroke="black" fill="none" stroke-linecap="round"></path><path d="M 176.500,86.000 C 171.912,88.353 172.064,88.609 167.500,91.000" stroke-width="3.577" stroke="black" fill="none" stroke-linecap="round"></path><path d="M 167.500,91.000 C 162.088,94.647 161.912,94.353 156.500,98.000" stroke-width="3.292" stroke="black" fill="none" stroke-linecap="round"></path><path d="M 156.500,98.000 C 151.550,99.903 152.088,100.647 147.500,103.000" stroke-width="3.382" stroke="black" fill="none" stroke-linecap="round"></path><path d="M 147.500,103.000 C 143.267,106.789 143.050,106.403 139.500,111.000" stroke-width="3.379" stroke="black" fill="none" stroke-linecap="round"></path><path d="M 139.500,111.000 C 135.018,116.514 134.767,116.289 130.500,122.000" stroke-width="3.152" stroke="black" fill="none" stroke-linecap="round"></path><path d="M 130.500,122.000 C 128.124,125.113 128.018,125.014 125.500,128.000" stroke-width="3.613" stroke="black" fill="none" stroke-linecap="round"></path><path d="M 125.500,128.000 C 122.728,130.277 123.124,130.613 120.500,133.000" stroke-width="3.810" stroke="black" fill="none" stroke-linecap="round"></path><path d="M 120.500,133.000 C 118.552,136.036 118.228,135.777 116.500,139.000" stroke-width="3.907" stroke="black" fill="none" stroke-linecap="round"></path><path d="M 116.500,139.000 C 113.747,142.348 114.052,142.536 111.500,146.000" stroke-width="3.785" stroke="black" fill="none" stroke-linecap="round"></path><path d="M 111.500,146.000 C 110.000,149.000 109.747,148.848 108.500,152.000" stroke-width="3.908" stroke="black" fill="none" stroke-linecap="round"></path><path d="M 108.500,152.000 C 106.361,157.231 106.000,157.000 103.500,162.000" stroke-width="4.109" stroke="black" fill="none" stroke-linecap="round"></path><path d="M 103.500,162.000 C 101.332,164.383 101.861,164.731 99.500,167.000" stroke-width="4.093" stroke="black" fill="none" stroke-linecap="round"></path><path d="M 99.500,167.000 C 97.800,169.401 97.832,169.383 96.500,172.000" stroke-width="4.159" stroke="black" fill="none" stroke-linecap="round"></path><path d="M 96.500,172.000 C 95.700,174.599 95.300,174.401 94.500,177.000" stroke-width="4.194" stroke="black" fill="none" stroke-linecap="round"></path><path d="M 94.500,177.000 C 93.157,179.606 93.200,179.599 91.500,182.000" stroke-width="4.190" stroke="black" fill="none" stroke-linecap="round"></path><path d="M 91.500,182.000 C 88.382,185.917 88.657,186.106 85.500,190.000" stroke-width="3.714" stroke="black" fill="none" stroke-linecap="round"></path><path d="M 85.500,190.000 C 82.438,194.460 82.382,194.417 79.500,199.000" stroke-width="4.065" stroke="black" fill="none" stroke-linecap="round"></path><path d="M 79.500,199.000 C 77.282,203.207 76.938,202.960 74.500,207.000" stroke-width="4.277" stroke="black" fill="none" stroke-linecap="round"></path><path d="M 74.500,207.000 C 71.451,210.459 71.782,210.707 68.500,214.000" stroke-width="4.380" stroke="black" fill="none" stroke-linecap="round"></path><path d="M 68.500,214.000 C 66.500,216.500 66.451,216.459 64.500,219.000" stroke-width="4.606" stroke="black" fill="none" stroke-linecap="round"></path><path d="M 64.500,219.000 C 60.500,224.443 62.500,221.500 60.500,224.000" stroke-width="4.866" stroke="black" fill="none" stroke-linecap="round"></path><path d="M 60.500,224.000 C 62.167,220.266 60.500,223.443 64.500,217.000" stroke-width="5.309" stroke="black" fill="none" stroke-linecap="round"></path><path d="M 64.500,217.000 C 67.401,213.409 67.167,213.266 70.500,210.000" stroke-width="4.332" stroke="black" fill="none" stroke-linecap="round"></path><path d="M 70.500,210.000 C 72.500,208.000 72.401,207.909 74.500,206.000" stroke-width="4.253" stroke="black" fill="none" stroke-linecap="round"></path><path d="M 74.500,206.000 C 77.000,203.500 77.000,203.500 79.500,201.000" stroke-width="4.101" stroke="black" fill="none" stroke-linecap="round"></path><path d="M 79.500,201.000 C 82.739,197.182 83.000,197.500 86.500,194.000" stroke-width="4.235" stroke="black" fill="none" stroke-linecap="round"></path><path d="M 86.500,194.000 C 89.500,192.000 89.239,191.682 92.500,190.000" stroke-width="4.495" stroke="black" fill="none" stroke-linecap="round"></path><path d="M 92.500,190.000 C 95.351,187.717 95.500,188.000 98.500,186.000" stroke-width="4.782" stroke="black" fill="none" stroke-linecap="round"></path><path d="M 98.500,186.000 C 101.015,185.036 100.851,184.717 103.500,184.000" stroke-width="4.833" stroke="black" fill="none" stroke-linecap="round"></path><path d="M 103.500,184.000 C 106.949,182.366 107.015,182.536 110.500,181.000" stroke-width="4.646" stroke="black" fill="none" stroke-linecap="round"></path><path d="M 110.500,181.000 C 113.455,179.830 113.449,179.866 116.500,179.000" stroke-width="4.698" stroke="black" fill="none" stroke-linecap="round"></path><path d="M 116.500,179.000 C 119.045,178.670 118.955,178.330 121.500,178.000" stroke-width="4.832" stroke="black" fill="none" stroke-linecap="round"></path><path d="M 121.500,178.000 C 124.861,175.472 124.545,177.170 127.500,176.000" stroke-width="4.753" stroke="black" fill="none" stroke-linecap="round"></path><path d="M 127.500,176.000 C 130.606,177.542 129.861,176.472 131.500,180.000" stroke-width="5.212" stroke="black" fill="none" stroke-linecap="round"></path><path d="M 131.500,180.000 C 131.500,183.500 132.606,183.042 131.500,187.000" stroke-width="4.798" stroke="black" fill="none" stroke-linecap="round"></path><path d="M 131.500,187.000 C 132.027,190.101 131.500,190.000 131.500,193.000" stroke-width="4.771" stroke="black" fill="none" stroke-linecap="round"></path><path d="M 131.500,193.000 C 130.783,195.649 131.027,195.601 129.500,198.000" stroke-width="4.363" stroke="black" fill="none" stroke-linecap="round"></path><path d="M 129.500,198.000 C 127.500,201.000 127.783,201.149 125.500,204.000" stroke-width="4.520" stroke="black" fill="none" stroke-linecap="round"></path><path d="M 125.500,204.000 C 123.772,207.223 123.500,207.000 121.500,210.000" stroke-width="4.569" stroke="black" fill="none" stroke-linecap="round"></path><path d="M 121.500,210.000 C 118.862,212.376 119.272,212.723 116.500,215.000" stroke-width="4.596" stroke="black" fill="none" stroke-linecap="round"></path><path d="M 116.500,215.000 C 112.500,219.735 114.362,217.376 112.500,220.000" stroke-width="4.897" stroke="black" fill="none" stroke-linecap="round"></path><path d="M 112.500,220.000 C 114.232,217.649 112.500,220.235 116.500,216.000" stroke-width="5.283" stroke="black" fill="none" stroke-linecap="round"></path><path d="M 116.500,216.000 C 120.198,214.286 119.732,213.649 123.500,212.000" stroke-width="4.764" stroke="black" fill="none" stroke-linecap="round"></path><path d="M 123.500,212.000 C 126.407,209.379 126.698,209.786 129.500,207.000" stroke-width="3.965" stroke="black" fill="none" stroke-linecap="round"></path><path d="M 129.500,207.000 C 132.887,204.323 132.907,204.379 136.500,202.000" stroke-width="3.745" stroke="black" fill="none" stroke-linecap="round"></path><path d="M 136.500,202.000 C 140.156,200.229 139.887,199.823 143.500,198.000" stroke-width="4.272" stroke="black" fill="none" stroke-linecap="round"></path><path d="M 143.500,198.000 C 146.000,196.000 146.156,196.229 148.500,194.000" stroke-width="4.570" stroke="black" fill="none" stroke-linecap="round"></path><path d="M 148.500,194.000 C 151.000,192.000 151.000,192.000 153.500,190.000" stroke-width="4.651" stroke="black" fill="none" stroke-linecap="round"></path><path d="M 153.500,190.000 C 156.111,188.124 156.000,188.000 158.500,186.000" stroke-width="4.693" stroke="black" fill="none" stroke-linecap="round"></path><path d="M 158.500,186.000 C 160.500,184.000 160.611,184.124 162.500,182.000" stroke-width="5.028" stroke="black" fill="none" stroke-linecap="round"></path><path d="M 162.500,182.000 C 167.298,176.937 164.500,180.000 166.500,178.000" stroke-width="5.190" stroke="black" fill="none" stroke-linecap="round"></path><path d="M 166.500,178.000 C 161.639,184.127 164.298,180.937 156.500,190.000" stroke-width="5.314" stroke="black" fill="none" stroke-linecap="round"></path><path d="M 156.500,190.000 C 154.376,191.889 154.639,192.127 152.500,194.000" stroke-width="4.447" stroke="black" fill="none" stroke-linecap="round"></path><path d="M 152.500,194.000 C 150.130,196.284 150.376,196.389 148.500,199.000" stroke-width="4.644" stroke="black" fill="none" stroke-linecap="round"></path><path d="M 148.500,199.000 C 145.609,202.219 147.130,201.284 146.500,204.000" stroke-width="5.024" stroke="black" fill="none" stroke-linecap="round"></path><path d="M 146.500,204.000 C 149.466,207.357 147.609,206.219 152.500,207.000" stroke-width="5.326" stroke="black" fill="none" stroke-linecap="round"></path><path d="M 152.500,207.000 C 158.198,204.872 157.966,206.357 163.500,202.000" stroke-width="4.444" stroke="black" fill="none" stroke-linecap="round"></path><path d="M 163.500,202.000 C 170.160,198.227 170.198,198.372 176.500,194.000" stroke-width="3.219" stroke="black" fill="none" stroke-linecap="round"></path><path d="M 176.500,194.000 C 178.717,191.392 179.160,192.227 181.500,190.000" stroke-width="3.780" stroke="black" fill="none" stroke-linecap="round"></path><path d="M 181.500,190.000 C 184.328,190.185 183.717,188.892 186.500,189.000" stroke-width="4.216" stroke="black" fill="none" stroke-linecap="round"></path><path d="M 186.500,189.000 C 189.500,186.500 189.828,187.185 192.500,184.000" stroke-width="4.477" stroke="black" fill="none" stroke-linecap="round"></path><path d="M 192.500,184.000 C 196.987,179.000 195.500,181.500 198.500,179.000" stroke-width="4.742" stroke="black" fill="none" stroke-linecap="round"></path><path d="M 198.500,179.000 C 198.608,181.783 199.487,179.000 197.500,184.000" stroke-width="5.262" stroke="black" fill="none" stroke-linecap="round"></path><path d="M 197.500,184.000 C 195.332,186.383 196.108,186.783 193.500,189.000" stroke-width="4.880" stroke="black" fill="none" stroke-linecap="round"></path><path d="M 193.500,189.000 C 192.277,191.716 191.832,191.383 190.500,194.000" stroke-width="4.853" stroke="black" fill="none" stroke-linecap="round"></path><path d="M 190.500,194.000 C 188.223,195.784 188.777,196.216 186.500,198.000" stroke-width="4.845" stroke="black" fill="none" stroke-linecap="round"></path><path d="M 186.500,198.000 C 182.032,202.347 184.723,200.284 183.500,203.000" stroke-width="4.985" stroke="black" fill="none" stroke-linecap="round"></path><path d="M 183.500,203.000 C 189.810,203.497 186.532,204.347 195.500,202.000" stroke-width="5.236" stroke="black" fill="none" stroke-linecap="round"></path><path d="M 195.500,202.000 C 199.069,200.111 199.310,200.997 202.500,198.000" stroke-width="4.154" stroke="black" fill="none" stroke-linecap="round"></path><path d="M 202.500,198.000 C 205.339,195.702 205.569,196.111 208.500,194.000" stroke-width="3.956" stroke="black" fill="none" stroke-linecap="round"></path><path d="M 208.500,194.000 C 212.161,192.798 211.839,192.202 215.500,191.000" stroke-width="3.906" stroke="black" fill="none" stroke-linecap="round"></path><path d="M 215.500,191.000 C 218.500,189.000 218.661,189.298 221.500,187.000" stroke-width="3.936" stroke="black" fill="none" stroke-linecap="round"></path><path d="M 221.500,187.000 C 224.459,184.935 224.500,185.000 227.500,183.000" stroke-width="4.389" stroke="black" fill="none" stroke-linecap="round"></path><path d="M 227.500,183.000 C 230.117,181.668 229.959,181.435 232.500,180.000" stroke-width="4.824" stroke="black" fill="none" stroke-linecap="round"></path><path d="M 232.500,180.000 C 237.500,175.191 235.117,178.168 237.500,176.000" stroke-width="4.936" stroke="black" fill="none" stroke-linecap="round"></path><path d="M 237.500,176.000 C 235.313,180.249 237.500,177.191 232.500,184.000" stroke-width="5.227" stroke="black" fill="none" stroke-linecap="round"></path><path d="M 232.500,184.000 C 230.258,185.802 230.813,186.249 228.500,188.000" stroke-width="4.479" stroke="black" fill="none" stroke-linecap="round"></path><path d="M 228.500,188.000 C 226.661,191.118 226.258,190.802 224.500,194.000" stroke-width="4.095" stroke="black" fill="none" stroke-linecap="round"></path><path d="M 224.500,194.000 C 220.570,199.058 220.661,199.118 216.500,204.000" stroke-width="3.494" stroke="black" fill="none" stroke-linecap="round"></path><path d="M 216.500,204.000 C 213.657,207.646 213.570,207.558 210.500,211.000" stroke-width="3.600" stroke="black" fill="none" stroke-linecap="round"></path><path d="M 210.500,211.000 C 205.760,216.294 205.657,216.146 200.500,221.000" stroke-width="3.273" stroke="black" fill="none" stroke-linecap="round"></path><path d="M 200.500,221.000 C 195.899,224.377 196.260,224.794 191.500,228.000" stroke-width="3.338" stroke="black" fill="none" stroke-linecap="round"></path><path d="M 191.500,228.000 C 187.383,231.375 187.399,231.377 183.500,235.000" stroke-width="3.423" stroke="black" fill="none" stroke-linecap="round"></path><path d="M 183.500,235.000 C 180.133,238.646 179.883,238.375 176.500,242.000" stroke-width="3.514" stroke="black" fill="none" stroke-linecap="round"></path><path d="M 176.500,242.000 C 173.500,244.500 173.633,244.646 170.500,247.000" stroke-width="3.746" stroke="black" fill="none" stroke-linecap="round"></path><path d="M 170.500,247.000 C 167.698,249.786 167.500,249.500 164.500,252.000" stroke-width="3.821" stroke="black" fill="none" stroke-linecap="round"></path><path d="M 164.500,252.000 C 160.848,253.768 161.198,254.286 157.500,256.000" stroke-width="3.817" stroke="black" fill="none" stroke-linecap="round"></path><path d="M 157.500,256.000 C 153.690,259.307 153.348,258.768 149.500,262.000" stroke-width="3.620" stroke="black" fill="none" stroke-linecap="round"></path><path d="M 149.500,262.000 C 146.314,263.209 146.690,263.807 143.500,265.000" stroke-width="3.942" stroke="black" fill="none" stroke-linecap="round"></path><path d="M 143.500,265.000 C 141.216,267.370 140.814,266.709 138.500,269.000" stroke-width="4.042" stroke="black" fill="none" stroke-linecap="round"></path><path d="M 138.500,269.000 C 135.425,271.962 136.216,270.370 133.500,271.000" stroke-width="4.239" stroke="black" fill="none" stroke-linecap="round"></path><path d="M 133.500,271.000 C 129.722,267.910 130.425,269.462 128.500,264.000" stroke-width="4.917" stroke="black" fill="none" stroke-linecap="round"></path><path d="M 128.500,264.000 C 128.500,259.500 127.222,259.910 128.500,255.000" stroke-width="3.979" stroke="black" fill="none" stroke-linecap="round"></path><path d="M 128.500,255.000 C 128.232,251.478 128.500,251.500 128.500,248.000" stroke-width="3.932" stroke="black" fill="none" stroke-linecap="round"></path><path d="M 128.500,248.000 C 128.479,244.808 128.732,244.978 129.500,242.000" stroke-width="4.077" stroke="black" fill="none" stroke-linecap="round"></path><path d="M 129.500,242.000 C 130.935,239.459 130.479,239.308 132.500,237.000" stroke-width="4.109" stroke="black" fill="none" stroke-linecap="round"></path><path d="M 132.500,237.000 C 134.116,233.648 134.435,233.959 136.500,231.000" stroke-width="3.944" stroke="black" fill="none" stroke-linecap="round"></path><path d="M 136.500,231.000 C 138.919,228.892 138.616,228.648 141.500,227.000" stroke-width="4.042" stroke="black" fill="none" stroke-linecap="round"></path><path d="M 141.500,227.000 C 146.266,223.079 146.419,223.392 151.500,220.000" stroke-width="4.110" stroke="black" fill="none" stroke-linecap="round"></path><path d="M 151.500,220.000 C 154.883,218.181 154.766,218.079 158.500,217.000" stroke-width="3.950" stroke="black" fill="none" stroke-linecap="round"></path><path d="M 158.500,217.000 C 179.532,210.601 179.383,210.181 200.500,204.000" stroke-width="3.250" stroke="black" fill="none" stroke-linecap="round"></path><path d="M 200.500,204.000 C 206.446,201.816 206.532,202.101 212.500,200.000" stroke-width="3.233" stroke="black" fill="none" stroke-linecap="round"></path><path d="M 212.500,200.000 C 216.517,199.062 216.446,198.816 220.500,198.000" stroke-width="3.554" stroke="black" fill="none" stroke-linecap="round"></path><path d="M 220.500,198.000 C 223.983,196.938 224.017,197.062 227.500,196.000" stroke-width="3.858" stroke="black" fill="none" stroke-linecap="round"></path><path d="M 227.500,196.000 C 231.571,195.228 231.483,194.938 235.500,194.000" stroke-width="3.809" stroke="black" fill="none" stroke-linecap="round"></path><path d="M 235.500,194.000 C 239.478,192.437 239.571,192.728 243.500,191.000" stroke-width="4.339" stroke="black" fill="none" stroke-linecap="round"></path><path d="M 243.500,191.000 C 246.529,190.080 246.478,189.937 249.500,189.000" stroke-width="4.614" stroke="black" fill="none" stroke-linecap="round"></path><path d="M 249.500,189.000 C 252.099,188.200 252.029,188.080 254.500,187.000" stroke-width="4.767" stroke="black" fill="none" stroke-linecap="round"></path><path d="M 254.500,187.000 C 257.216,185.777 257.099,185.700 259.500,184.000" stroke-width="4.791" stroke="black" fill="none" stroke-linecap="round"></path><path d="M 259.500,184.000 C 263.746,180.246 261.716,182.277 263.500,180.000" stroke-width="4.813" stroke="black" fill="none" stroke-linecap="round"></path><path d="M 263.500,180.000 C 260.123,180.769 263.246,179.746 258.500,183.000" stroke-width="5.286" stroke="black" fill="none" stroke-linecap="round"></path><path d="M 258.500,183.000 C 257.283,187.137 256.123,186.269 255.500,191.000" stroke-width="4.686" stroke="black" fill="none" stroke-linecap="round"></path><path d="M 255.500,191.000 C 251.451,195.161 254.283,193.637 252.500,196.000" stroke-width="4.736" stroke="black" fill="none" stroke-linecap="round"></path><path d="M 252.500,196.000 C 256.616,195.971 253.951,197.161 260.500,195.000" stroke-width="5.145" stroke="black" fill="none" stroke-linecap="round"></path><path d="M 260.500,195.000 C 264.534,193.586 264.616,193.971 268.500,192.000" stroke-width="4.285" stroke="black" fill="none" stroke-linecap="round"></path><path d="M 268.500,192.000 C 274.586,189.688 274.534,189.586 280.500,187.000" stroke-width="3.453" stroke="black" fill="none" stroke-linecap="round"></path><path d="M 280.500,187.000 C 285.571,184.629 285.586,184.688 290.500,182.000" stroke-width="3.289" stroke="black" fill="none" stroke-linecap="round"></path><path d="M 290.500,182.000 C 292.942,180.395 293.071,180.629 295.500,179.000" stroke-width="3.907" stroke="black" fill="none" stroke-linecap="round"></path><path d="M 295.500,179.000 C 299.664,175.213 298.442,177.395 301.500,176.000" stroke-width="4.414" stroke="black" fill="none" stroke-linecap="round"></path><path d="M 301.500,176.000 C 302.745,179.058 303.164,176.713 302.500,182.000" stroke-width="5.094" stroke="black" fill="none" stroke-linecap="round"></path><path d="M 302.500,182.000 C 298.527,187.868 302.245,185.058 300.500,188.000" stroke-width="4.843" stroke="black" fill="none" stroke-linecap="round"></path><path d="M 300.500,188.000 C 309.212,186.078 306.027,188.368 317.500,183.000" stroke-width="5.012" stroke="black" fill="none" stroke-linecap="round"></path><path d="M 317.500,183.000 C 326.388,178.712 326.712,179.578 335.500,175.000" stroke-width="3.322" stroke="black" fill="none" stroke-linecap="round"></path><path d="M 335.500,175.000 C 340.035,173.595 339.888,173.212 344.500,172.000" stroke-width="3.466" stroke="black" fill="none" stroke-linecap="round"></path><path d="M 344.500,172.000 C 348.625,168.600 347.035,171.095 349.500,170.000" stroke-width="4.334" stroke="black" fill="none" stroke-linecap="round"></path><path d="M 349.500,170.000 C 349.500,175.000 351.125,172.600 349.500,180.000" stroke-width="4.959" stroke="black" fill="none" stroke-linecap="round"></path><path d="M 349.500,180.000 C 347.648,185.259 349.500,183.000 349.500,186.000" stroke-width="4.818" stroke="black" fill="none" stroke-linecap="round"></path></svg>