<?xml version="1.0" encoding="UTF-8"?>
<svg inkscape:version="0.92.3 (2405546, 2018-03-11)" sodipodi:docname="Antu_application-x-executable.svg" version="1.1" viewBox="0 0 32 32" xmlns="http://www.w3.org/2000/svg" xmlns:cc="http://creativecommons.org/ns#" xmlns:dc="http://purl.org/dc/elements/1.1/" xmlns:inkscape="http://www.inkscape.org/namespaces/inkscape" xmlns:rdf="http://www.w3.org/1999/02/22-rdf-syntax-ns#" xmlns:sodipodi="http://sodipodi.sourceforge.net/DTD/sodipodi-0.dtd"><metadata><rdf:RDF><cc:Work rdf:about=""><dc:format>image/svg+xml</dc:format><dc:type rdf:resource="http://purl.org/dc/dcmitype/StillImage"/><dc:title/></cc:Work></rdf:RDF></metadata><sodipodi:namedview bordercolor="#666666" borderopacity="1" gridtolerance="10" guidetolerance="10" inkscape:current-layer="svg19" inkscape:cx="16" inkscape:cy="16" inkscape:pageopacity="0" inkscape:pageshadow="2" inkscape:window-height="996" inkscape:window-maximized="1" inkscape:window-width="1920" inkscape:window-x="-8" inkscape:window-y="-8" inkscape:zoom="25.90625" objecttolerance="10" pagecolor="#ffffff" showgrid="false"/><defs><linearGradient id="_a" x1="452.11" x2="451.76" y1="556.82" y2="528.82" gradientUnits="userSpaceOnUse"><stop stop-color="#25292d" offset="0"/><stop stop-color="#525962" offset="1"/></linearGradient></defs><g transform="translate(-435.76-526.83)"><rect x="440.55" y="528.02" width="22.411" height="29.671" rx="1" fill="url(#_a)" fill-rule="evenodd" stroke="#111315" stroke-linecap="round" stroke-width=".3"/><g transform="matrix(.08921 0 0 .08488 445.58 539.1)" fill="#fff"><path d="m133.52 78.1c-.488-.489-1.113-.733-1.873-.733h-78.22c-.76 0-1.385.244-1.874.733-.488.489-.732 1.113-.732 1.874v5.215c0 .76.244 1.385.732 1.873.489.488 1.114.733 1.874.733h78.22c.76 0 1.385-.245 1.873-.733.488-.488.732-1.113.732-1.873v-5.215c.0001-.761-.243-1.385-.732-1.874"/><path d="m8.38 1.022c-.543-.543-1.168-.815-1.874-.815-.706 0-1.33.272-1.873.815l-4.074 4.074c-.543.543-.814 1.167-.814 1.874 0 .707.271 1.331.814 1.874l32.02 32.02-32.02 32.02c-.543.543-.814 1.168-.814 1.873 0 .707.271 1.331.814 1.874l4.074 4.073c.543.544 1.167.814 1.873.814.706 0 1.331-.271 1.874-.814l37.967-37.966c.543-.543.814-1.169.814-1.875 0-.706-.271-1.331-.814-1.874l-37.967-37.966"/></g></g></svg>
