<?xml version="1.0" encoding="utf-8"?>
<!-- Generator: Adobe Illustrator 22.1.0, SVG Export Plug-In . SVG Version: 6.00 Build 0)  -->
<svg version="1.1" id="Layer_1" xmlns="http://www.w3.org/2000/svg" xmlns:xlink="http://www.w3.org/1999/xlink" x="0px" y="0px"
	 viewBox="0 0 272 57.9" style="enable-background:new 0 0 272 57.9;" xml:space="preserve">
<style type="text/css">
	.st0{fill:none;}
	.st1{fill:#EA0029;}
</style>
<path class="st0" d="M1974.1-1384c0-31.7-0.1-63.4,0.1-95c0.1-15.7,0.7-31.3,1.2-47c0.4-11.3-4.7-17.5-15.4-17.4
	c-22.4,0.2-44.8,0.7-67.3,0.9c-10.7,0.1-21.5-0.4-32.2-0.4c-34.6,0.1-69.1,0.3-103.7,0.4c-10,0-20.1-0.2-30.1,0.3
	s-14.2,5.5-14.1,16.3c0.1,7,0.8,13.9,0.9,20.9c0.1,20.9,0.1,41.8-0.1,62.7c-0.1,18.7-0.6,37.4-0.8,56.1c-0.1,13.5,0,26.9,0,40.4
	c0,9.4-0.5,18.9-0.2,28.3c0.5,15.4,3.8,30.1,10.1,44c7.1,15.9,19.2,26,34.2,32.6c4.9,2.2,9.6,5.1,14.6,7.1s10.1,4.2,15.3,4.7
	c15.1,1.5,30.2,2.4,45.4,3.2c9.8,0.5,19.6,0.2,29.4,0.4c11.4,0.2,16.4,6.9,14.7,19.1c-0.5,3.4-1,7-0.7,10.4c0.8,9.7-1.5,18.8-3.4,28
	c-3.4,16-17.5,27.4-32.7,27.5c-15.2,0-30.3,0.2-45.5,0.2c-11,0-22-0.5-32.9-0.3c-24,0.4-47.5-3.9-70.7-9.6
	c-6.3-1.5-12.3-4.7-18.3-7.5c-7.7-3.6-15.1-7.9-22.8-11.4c-23.8-11-41-29.4-52.6-53.7c-10.6-22-16.6-45.3-15.7-70.5
	c0.7-19.9,0.6-39.9,0.7-59.9c0.1-17.2-0.3-34.4-0.2-51.6c0.2-23.7,0.6-47.4,1-71.1c0.3-15.2,0.7-30.4,1-45.6c0-1.2,0.1-2.5,0.1-3.7
	c-0.5-12.2-4-15.7-15.5-16.2c-10.3-0.5-20.5-1.4-30.8-1.9c-7.5-0.3-13.2-3.8-18.6-9.2c-9.5-9.6-15-20.8-14.4-35.1
	c0.2-6-0.4-12-0.2-17.9c0.1-4,0.7-7.9,1.2-11.8c1-7,5.2-10.5,11.4-11.1c4.8-0.5,9.7-0.4,14.6-0.3c3,0,6.1,0.5,9.1,0.5
	c9.3,0,18.7,0,28-0.1c1.8,0,3.5-0.2,5.2-0.6c7-1.8,10.9-6.3,11.2-13.9c0.4-12.5,0.5-24.9,0-37.4c-0.6-14.4,0.1-28.1,6.3-41.5
	c5.5-11.9,14.7-18,25.8-19.2c16.7-1.8,33.5-3.4,50.3-1.5c2.5,0.3,5.2,0.5,7.7,0.2c11-1.2,20,3.8,28.7,10c2,1.5,3.8,3.8,4.8,6.2
	c5.4,12.6,9.2,25.5,7.2,39.8c-1,7.3-1,14.9-1.3,22.4c-0.2,7-0.2,14-0.3,20.9c-0.1,6.8,1.9,10.3,8,12.2c4.2,1.3,8.7,2.4,13.1,2.2
	c45.6-1.6,91.1,0.4,136.7-0.3c22.2-0.3,44.4-0.5,66.6-0.7c4.9,0,9.8,0.6,14.7,0.5c4.6-0.1,9.4-0.4,13.9-1.5
	c5.5-1.4,8.9-5.5,9.2-11.7c0.3-5.5,0.6-11,0.2-16.4c-1.4-19-0.4-37.9,2.1-56.7c0.5-3.8,2-7.9,4.3-10.7
	c11.2-13.4,24.3-22.2,42.4-19.3c6.6,1.1,13.6,0.6,20.3-0.3c11.3-1.5,22.4-0.6,33.4,1.8c14.1,3,26.5,17.4,28.3,32.4
	c2.2,18.4,1.3,36.8,0.5,55.3c-0.2,4.2-0.3,8.5,0.4,12.6c1.4,7.9,5.1,11.1,12.6,11.2c9.8,0.1,19.6-0.1,29.4-0.2
	c17.5-0.2,35-0.4,52.5-0.5c16.1-0.1,32.2-0.1,48.3-0.2c0.7,0,1.4,0,2.1,0c11.6,0.6,15.3,4.9,15.2,17.5c0,7.5,0.3,15,0.5,22.5
	c0.3,9.4-2.7,17.9-6,26.4c-1.2,3.1-19.9,21-22.8,21.5c-5.3,0.9-10.6,1.2-15.9,1.4c-6.3,0.2-12.6-0.2-18.9-0.1
	c-9.6,0.1-19.1,0.6-28.7,0.6c-18.7,0-37.4-0.2-56.1-0.2c-9.7,0-13.4,4.2-13.6,14.7c-0.3,22.9-0.5,45.9-0.8,68.8
	c-0.4,34.2-1.2,68.3-1.2,102.5c0,18.2-0.1,36.5,2.3,54.5c3.9,29.1,18.5,50.5,44.8,61.8c15.6,6.7,31.9,9.4,48.4,11.1
	c12.3,1.3,24.7,1.7,37,2.2c4.6,0.2,9.3-0.6,14-0.7c11.7-0.3,17.2,4.6,18.8,17.1c0.5,3.7,0.4,7.5,0.3,11.2
	c-0.2,6.5-0.6,12.9-0.8,19.4c-0.2,5.6-1.5,10.8-4.6,15.4c-2.6,3.9-4.9,7.9-7.8,11.5c-9.6,12.2-22.5,15.5-36.6,13.9
	c-7.7-0.9-15.3-1.3-23,0.2c-3.9,0.8-7.9,0.6-11.9,0.5c-8.9-0.2-17.7-1.2-26.6-0.9c-14.3,0.6-28.4-1.3-42.5-3.7
	c-23.5-4-45.4-13.2-67.9-20.9c-2-0.7-3.9-1.7-5.6-3c-10.6-8.1-21.2-16.2-31.6-24.6c-2.4-1.9-4.1-4.7-6.1-7.1c-1.8-2.3-3.7-4.5-5.3-7
	c-3.2-4.9-6.2-9.8-9.2-14.8c-1.1-1.9-1.4-4.3-2.6-6.1c-9.4-13.3-10.1-29.8-14.5-44.9c-0.7-2.3-0.6-4.9-0.6-7.4c0-34.7,0-69.3,0-104
	C1973.6-1384,1973.9-1384,1974.1-1384z"/>
<path class="st0" d="M2610-1353c-24.3,0-48.6-0.1-72.9,0c-29.7,0.2-59.3,0.6-89,0.8c-0.9,0-1.9,0-2.8,0
	c-10.6,0.7-17.3,6.3-15.6,19.9c2.2,17.5,6.3,34.7,10,51.9c1.3,6.2,4.8,11.3,9.3,15.5c5.1,4.7,10.3,9.5,15.4,14.2
	c10.4,9.7,22.7,14,36.4,15.8c25.8,3.4,51.8,2.8,77.7,2.8c33.4,0,66.8,0.3,100.3,0.2c33.9,0,67.8-0.3,101.6-0.6
	c13.8-0.1,27.5-0.3,41.3-0.4c2.3,0,4.7,0.1,7,0.4c6.3,1,10.9,4.9,11,11.5c0.3,13.9,1.4,28.3-1.2,41.7c-3.1,15.3-11.9,27.5-28,30.9
	c-10.1,2.2-20,3.7-30.5,2.9c-11.3-0.9-22.8,0.7-34.3,1.1c-14.2,0.5-28.5,1.3-42.7,1.2c-27.8-0.2-55.6-1-83.4-1.5
	c-5.1-0.1-10.2,0.7-15.4,1.1c-3.3,0.2-6.5,0.7-9.8,0.7c-17.8,0.1-35.5-0.1-53.3,0c-13.5,0.1-27.1,1.2-40.6,0.9
	c-17.3-0.4-34.5-1.6-51.8-2.7c-3-0.2-5.9-1.2-8.8-2.2c-6.7-2.1-13.3-4.4-20-6.5c-10.3-3.3-20.6-6.4-30.8-9.6c-0.7-0.2-1.4-0.5-2-0.9
	c-11.8-7.5-23.6-15.1-35.4-22.7c-0.8-0.5-1.6-1.2-2.1-2c-4.9-8-10.8-15-18.6-19.9c-1.1-0.7-1.9-2.2-2.6-3.5
	c-3.8-6.5-7.6-13.1-11.3-19.7c-1.2-2.1-2.2-4.4-3-6.7c-14.1-40.1-21.3-81.5-20.5-124.4c0.5-28.2,1.4-56.3,2.6-84.5
	c0.4-9.9,1.2-20,3.2-29.7c2.9-13.8,6.2-27.7,11-40.8c4-10.8,9.9-20.8,15.8-30.6c8.8-14.6,20.1-26.9,33.1-37.3
	c4.6-3.7,10.1-6.3,14.8-9.9c18.5-13.9,39.4-21.4,61.3-26.3c9.6-2.2,18.9-5.5,28.3-8.4c11.5-3.5,23.3-4.9,35.3-5.3
	c21.2-0.7,42.5-2.1,63.7-2.2c32.9-0.1,65.9,0.6,98.8,1.2c32.1,0.5,62.8,8.3,93.2,18.8c14.4,5,28.3,10,39.7,21.1
	c2.5,2.4,6,3.9,9.2,5.4c6.2,2.9,11.1,7.2,15.2,12.9c2.4,3.4,5.3,6.3,7.6,9.7c3.8,5.6,7.5,11.4,11.1,17.2
	c6.6,10.7,11.5,22.2,13.5,34.9c0.2,1,0.5,2,0.9,2.8c8.3,16.1,8.6,33.8,7.9,51.7c-0.3,6.6-0.2,13.3-0.1,19.9
	c0.3,12.8-1.9,25.1-7,36.7c-2.8,6.3-5.6,12.6-8.7,18.8c-1.2,2.4-2.8,4.7-4.7,6.4c-16.7,15-35.7,24.4-57.7,26.1
	c-4.9,0.4-9.8,0.6-14.7,0.6c-52.3,0-104.7,0-157,0C2610-1353.1,2610-1353.1,2610-1353z M2654-1438.3c0,0.1,0,0.3,0,0.4
	c12.6,0,25.2-0.2,37.8,0c20.6,0.3,34.3-16,30-37.5c-5.5-27.6-20.5-47.8-45.1-58.6c-18.4-8.1-37.5-14.4-57.4-15.6
	c-21.6-1.3-43.4-0.5-65.1-0.9c-15.8-0.3-31.1,2.8-46.1,7.8c-2.2,0.7-4.5,1.4-6.8,1.8c-22.3,3.6-38.2,18.7-54.1,33.9
	c-1,1-1.8,2.3-2.5,3.6c-6.7,14.4-12.2,29.1-12.3,45.5c0,7.9-1,15.9-1.4,23.8c-0.2,4-0.4,8-0.1,12c0.8,8.9,5.3,11.3,12.4,6.7
	c7-4.5,13.7-9.5,20.7-13.9c3.4-2.1,7.1-4.1,10.9-4.7c12.5-1.8,25-3.7,37.5-4.2c15.4-0.7,30.8-0.1,46.2-0.1
	C2590.5-1438.3,2622.2-1438.3,2654-1438.3z"/>
<path class="st0" d="M1262.8-1138.1c-30.4,0-52.4,0-74.4,0c-30.1,0-60.3,0.1-90.4,0.1c-11,0-21.8-2.1-32.5-5.1
	c-12.6-3.6-25.3-6.8-38-10.1c-10.8-2.8-20.3-8.3-29.6-14.7c-13.1-9-24.5-19.9-35.5-31.4c-1.7-1.7-3.5-3.4-4.7-5.5
	c-5.7-10.3-11.4-20.6-16.6-31.1c-3.1-6.4-5.5-13.2-7.9-19.9c-5.2-14.1-6.2-29.1-8.4-43.9c-3.4-22.5-3.9-45.1-3.2-67.8
	c0.7-21.7,1.1-43.3,2.2-65c0.7-13.4,1.7-26.9,4.1-40.1c2.7-14.6,5.6-29.6,11.3-43.1c5-12,10.4-24.6,20.1-33.8
	c0.3-0.3,0.7-0.7,0.9-1.1c7.9-13.4,20.2-21.9,31.4-31.6c10.2-8.7,22.5-13,34.3-18.5c5.1-2.4,10.1-5.3,15.3-7.4
	c5.6-2.3,11.4-4.1,17.3-5.7c8.6-2.4,17.4-3.9,25.8-6.6c11-3.4,22.2-5.5,33.7-6.7c45.9-4.7,91.9-3.4,138-2.5
	c15.6,0.3,31.3,1.2,46.9,2.6c8.3,0.7,16.5,2.9,24.7,4.8c13.9,3.2,27.7,6.7,41.6,10.1c3.6,0.9,7.5,1.5,10.7,3.3
	c10.8,6,21.5,12,31.8,18.8c5.7,3.7,10.4,9.1,15.6,13.7c3.6,3.2,7.1,6.5,10.9,9.3c6.4,4.9,11.8,10.5,15.2,18.2c1.3,2.9,3,5.7,4.8,8.3
	c5,7.4,8.2,15.6,10.6,24.3c2.5,8.8,5.3,17.6,7.6,26.4c1.2,4.8,2.4,9.8,2.4,14.7c0.1,19.9-0.1,39.9-0.5,59.8
	c-0.1,6.3-1.8,12.2-5.2,17.6c-1.5,2.5-3.1,5.1-3.9,7.9c-2.5,8.2-7.3,14.4-13.5,19.6c-6.4,5.4-13,10.7-19.7,15.5
	c-2.6,1.9-5.9,3.2-9,3.7c-17.3,2.8-34.7,4.6-52.3,4.6c-77.4-0.2-154.7-0.1-232.1,0c-16.4,0-32.7,0.2-49.1,0.4
	c-7.2,0.1-14.4,0.3-21.6,0.1c-8.4-0.2-13.8,4.7-14.4,13.7c-1.5,25,3.1,48.6,15,70.4c0.4,0.6,0.7,1.3,1.1,1.9
	c11.1,12.8,23,23.8,39.8,27.6c26.5,6.1,53.2,6.9,80.1,5.6c7-0.3,14-0.1,21,0c33,0.1,65.9,0.3,98.9,0.4c39.5,0.1,79,0.1,118.5,0.2
	c4,0,7.9-0.5,11.9-0.4c9.6,0.1,13.7,5.6,14,13.2c0.2,4.5,0.4,8.9,0.6,13.4c0.1,5.2-0.2,10.5,0.3,15.7c0.5,5.9-0.4,11.4-2.9,16.7
	c-0.7,1.6-1.6,3.1-2.2,4.7c-6.9,16.7-19.7,23.3-35.9,23.5c-36.2,0.2-72.4-0.1-108.7,0.2C1290.8-1139.4,1272.6-1138.4,1262.8-1138.1z
	 M1228-1432.1c0,0.1,0,0.2,0,0.3c3.3-0.2,6.5-0.5,9.8-0.5c27.1-0.1,54.2-0.2,81.3-0.4c3.7,0,7.5-0.6,11-1.5
	c4.8-1.3,8.3-4.5,10.2-9.5c3.3-8.7,4.6-17.6,2.7-27.1c-1.9-8.9-5.9-16.7-9.7-24.7c-7.4-15.8-20.7-24.4-34.5-31.4
	c-9.7-4.9-20.7-6.9-31.1-10.1c-0.8-0.3-2.2-0.5-3-0.6c-16-1.5-32.1-2.8-48.1-4.5c-22.5-2.4-44.8,0.8-67,3.6
	c-11.1,1.4-21.8,5.2-32.8,7.5c-7.3,1.5-13.7,4.6-19.3,9.8c-1.9,1.8-4,3.5-6.1,5c-21.1,15.7-31.6,37.4-32.1,64.6
	c-0.2,10,0,19.9-2.1,29.7c-0.4,1.9-0.4,4-0.2,6c0.6,8.2,5.2,10.9,12,7.2c1.2-0.7,2.4-1.5,3.6-2.3c6.1-4.2,11.9-8.8,18.3-12.5
	c4.8-2.8,10.2-5.4,15.5-6.2c11.1-1.5,22.3-2.3,33.5-2.4C1169.1-1432.3,1198.6-1432.1,1228-1432.1z"/>
<path class="st0" d="M424.9-1136.5c-6.8,0.3-13.5,1.2-20.3,0.9c-14-0.7-27.9-2-41.9-3.1c-2.1-0.2-4.2-0.6-6.3-0.7
	c-6.3-0.3-11.8-2.7-16.6-7.1c-4.8-4.4-9.8-8.5-14.5-12.9c-8.9-8.5-13.7-20-18.8-31.2c-2.5-5.6-5.3-11-8.1-16.5
	c-0.8-1.5-1.9-2.9-2.6-4.4c-7.5-16.3-14.9-32.7-22.4-49c-4.9-10.5-9.9-20.9-14.8-31.4c-6.1-13.2-12-26.4-18.2-39.5
	c-12-25.3-23.9-50.7-36.5-75.8c-3.8-7.5-7.8-14.7-10.2-22.8c-0.9-3.1-2.4-6-3.8-8.8c-9.2-19-18.6-38-27.6-57.1
	c-11-23.3-21.7-46.8-32.6-70.1c-7.1-15.1-14.3-30.2-21.9-45.1c-6.8-13.2-0.4-18.6,10.7-18.5c22.2,0.3,44.4,0.4,66.6,1.2
	c17.2,0.6,33.1,5.9,46.2,18.6c2.3,2.2,4.6,4.2,7,6.2c5.5,4.5,9.3,10.1,12.7,16.6c13.4,25.8,23.9,52.9,35.2,79.7
	c9,21.3,18.4,42.5,27.7,63.7c6.7,15.3,13.7,30.6,20.4,45.9c1.2,2.7,1.9,5.6,2.8,8.4s1.6,5.8,2.9,8.4c16.8,32.6,29.4,67.2,44.8,100.5
	c3,6.5,6.4,12.8,9.6,19.1c0.6,1.1,1.2,2.2,1.9,3.2c4.3,6,8.9,6.3,13.2,0.5c3.3-4.4,6.3-9.3,8.8-14.4c5-10.4,9.4-21.2,14.2-31.7
	c13.3-29.1,26.7-58.2,40.1-87.2c5.8-12.5,12-24.8,17.6-37.4c3.2-7.2,5.7-14.7,8.6-22.1c0.9-2.3,1.7-4.7,2.7-6.9
	c5.6-12,11.3-24,17.1-36c5.6-11.7,11.4-23.4,16.9-35.2c5.7-12.3,11.3-24.6,16.7-37c7.6-17.7,16.9-33.8,31.8-45.7
	c8.4-6.8,18-10.4,28-13.1c11.4-3.1,22.9-4,34.7-2.6c7.4,0.9,14.9-0.1,22.4-0.2c3.7-0.1,7.5-0.1,11.2-0.1c6.3-0.1,12.5,0.1,18.8-0.2
	c8.5-0.5,12.2,4,9.9,12.9c-0.8,3.1-1.9,6.2-3.7,8.8c-7.4,11.1-12.4,23.4-17.3,35.8c-1,2.5-2,5.1-3.5,7.3c-12.3,17.8-19,38.8-29,57.9
	c-0.6,1.1-0.8,2.4-1.5,3.4c-8.2,10.7-12.4,23.9-18.5,35.9c-5.1,10.1-9.7,20.4-14.7,30.5c-4.6,9.2-9.5,18.3-14.2,27.4
	c-2,3.9-3.8,8-5.8,11.9c-2.6,5.3-4.9,10.7-8.1,15.6c-5.7,8.9-10.8,18.1-14.1,28.3c-0.6,1.9-1,4-2.1,5.5c-5.7,8.3-9.6,17.6-13.9,26.7
	c-5.6,12-11.9,23.7-17.8,35.5c-6.2,12.5-11.5,25.5-18.7,37.5c-9.1,15.3-16.5,31.7-24.7,47.6c-5.3,10.3-9.8,21.2-16.4,30.5
	c-9.3,13.3-21.4,23.8-36.6,28.8c-7.5,2.5-15.6,2.6-23.5,3.8C425-1135.9,424.9-1136.2,424.9-1136.5z"/>
<path class="st0" d="M3062.5-1519c0,18.2,0.1,36.4,0,54.6c-0.1,32.9-0.4,65.8-0.5,98.7c-0.1,10.7-0.4,21.4,0,32.1
	c0.7,19.3,3.2,38.3,12.8,55.2c2.3,4,5.3,7.6,8.3,11c2.9,3.3,6.1,6.1,9.3,9c8.4,7.7,18.7,11,29.1,13.8c2.9,0.8,6,0.9,8.9,1.8
	c21.8,6.8,44.2,7.5,66.6,7.2c4.4-0.1,8.8-0.8,13.3-1c2.3-0.1,4.7-0.2,7,0.2c8.1,1.5,11.7,4.9,12.3,13.7c0.6,8.9,0.1,17.9,0.1,26.9
	c0,0.5-0.2,1-0.2,1.5c0.5,17.5-8.4,29.3-20.6,39.4c-5.6,4.6-11.7,7.1-18.7,7.1c-33.9-0.4-67.7-0.6-101.6-1.5
	c-14.2-0.4-28.4-2.4-41.9-7.9c-1.5-0.6-3.1-1.2-4.7-1.5c-14.8-2.1-28-9.2-41.3-15.8c-2.3-1.2-4.9-2.2-6.7-4
	c-7.2-7.2-15.7-12.4-23.6-18.6c-4.6-3.6-8.4-8.6-12.4-13.1c-3.2-3.6-6-7.6-9.1-11.4c-7.3-9.2-10.8-20.4-13.8-31.6
	c-5.9-22.5-8.6-45.4-6.2-68.8c0.3-2.8,0-5.7,0.2-8.6c0.5-11.1,1.1-22.2,1.2-33.3c0.3-25.6,0.2-51.3,0.2-76.9c0-11-0.2-21.9-0.2-32.9
	c0-16.4,1.2-33,0-49.3c-1.6-21.5-0.9-42.9-1-64.3c-0.1-37.4,0.1-74.8,0.5-112.2c0.1-7.9,0.5-16,2.2-23.7
	c3.4-15.5,13.6-24.9,27.6-28.6c8.3-2.2,17.1-2.4,25.7-3c11.2-0.7,22.4-0.9,33.6-1.4c24.7-1.2,40.6,15.7,44.6,41.8
	c0.6,3.7,0.4,7.5,0.4,11.2c-0.2,47.6-0.4,95.3-0.5,142.9c0,13.7,0,27.4,0,41.1C3062.9-1519,3062.7-1519,3062.5-1519z"/>
<path class="st0" d="M858.6-1562c-0.4,13.9-0.9,27.9-1.2,41.8c-0.2,10,0.1,19.9-0.1,29.9c-0.3,21.9-0.8,43.9-1.2,65.8
	c0,1.5-0.3,3-0.3,4.5c-0.4,30.2-0.9,60.3-1.1,90.5c-0.1,10.9,1.1,21.9,1,32.8c-0.3,32.4-0.9,64.8-1.7,97.2c-0.2,9.7-1.1,19.4-2.3,29
	c-1,8-4.7,14.5-11.6,18.6c-2,1.2-4,2.6-5.7,4.3c-9.7,9.7-21.6,10.6-34,9.9c-12.1-0.6-24.3-1-36.4-0.7c-14.9,0.3-25.6-8.3-35.5-18.3
	c-4.9-4.9-4.8-12.5-5.1-19c-0.8-17.7-1.3-35.4-1.2-53c0.4-51.6,1.3-103.3,1.9-154.9c0.3-29.2,0.2-58.4,0.5-87.5
	c0.3-27.2,0.8-54.4,1.4-81.5c0.2-11.7,0.3-23.4,1.4-35.1c1.2-12.4,7.1-22.6,16.2-30.4c11.2-9.7,24.2-11.9,38.3-10.5
	c10.2,1,20.5,1.2,30.7,0.7c9.2-0.5,17.7,0.6,25.1,6.9c2,1.7,4.3,3.1,6.6,4.2c6.6,3.2,10.2,8.8,11.3,16c1.1,6.9,1.6,13.8,2,20.8
	c0.3,6,0.1,12,0.1,17.9C857.9-1562,858.2-1562,858.6-1562z"/>
<path class="st0" d="M1063.4-728.1c-0.3,14.5-0.7,29.5-1.1,44.4c0,1.5,0,3-0.1,4.5c-0.5,13.1-10.5,18.8-20.9,11.7
	c-2.1-1.4-4-4.4-4.6-7c-0.9-3.8-0.8-7.9-0.8-11.8c0.1-18.7,0.2-37.4,0.4-56c0-2.7,0.2-5.5,0.1-8.2c-0.1-8.4-0.3-16.9-0.4-25.3
	c0-4.2-0.4-8.5,0.3-12.6c1.2-6.7,1.6-13.2,1-20c-0.5-5.4,0.5-10.8,0.7-16.3c0.1-4.2,0.7-8.5-0.1-12.5c-1.1-5.5-5-7-10.3-4.9
	c-4.8,1.8-9.5,4.3-14.5,5.2c-5.7,1.1-11.6,0.8-17.4,1.1c-11.4,0.6-15.5,4.7-15.7,17c-0.2,9.7,0.3,19.4,0.4,29.1
	c0.1,3.2,0.1,6.5,0.1,9.7c-0.4,24.7-0.7,49.3-1.2,74c-0.2,9.5-0.6,18.9-1.2,28.4c-0.4,7.4-3.7,10.8-10.6,11.1
	c-2.8,0.1-5.6-0.1-8.3-0.8c-4.2-1.1-6.9-4.1-7.8-8.7c-0.5-2.9-1-5.9-1-8.9c0.2-23.7,0.7-47.4,0.9-71.1c0.1-7-0.7-13.9-0.5-20.9
	c0.2-9.9,0.9-19.9,1.4-29.8c0.3-5,0.9-9.9,1-14.9c0.2-10-4.9-15.6-14.5-15.8c-4.2-0.1-8.4,0.5-12.6,0.3c-4.4-0.2-8.8-0.7-13.2-1.6
	c-8.1-1.6-12.3-5.8-12-11.2c0.4-5.6,5.7-9.4,14-9.5c9.8-0.1,19.6,0,29.4,0.1c17.5,0.2,35,0.6,52.6,0.7c4.7,0,9.3-0.3,14-0.6
	c5.3-0.4,10.2,0.7,14.7,3.8c5,3.4,10,3.3,15.2,0.4c3.1-1.7,6.4-3.1,9.8-3.9c8.7-1.8,14.5,3.6,14.5,13c-0.1,7-0.3,14-0.3,20.9
	c0,8.6,3.8,13.1,11.9,13.2c12.4,0.2,24.7,0.1,37.1,0c10.1-0.1,20.1,0.5,29.7,4c15.2,5.6,22.1,18.2,24.6,34.2
	c0.5,3.2,0.4,6.5,0.4,9.7c-0.3,15-0.8,29.9-1,44.9c-0.1,7,0.6,13.9,0.5,20.9c-0.1,7.2-0.2,14.4-1,21.6c-0.9,8.6-4.4,11.7-11.8,11.6
	c-8.5,0-13.1-3.9-14.2-12.1c-0.2-1.5-0.5-3-0.4-4.5c1-24.9-1.6-49.9,1.5-74.7c1.3-10.2-2.2-18.6-7.9-26.2c-3.2-4.2-7.3-6.8-12.4-7.7
	c-15.8-2.7-31.6-3.1-47.5-1.1c-7.4,0.9-10.7,5.4-10.8,13.9C1063.4-760.9,1063.4-744.7,1063.4-728.1z"/>
<path class="st0" d="M2828.9-666.1c-10.7-0.6-21.4-1-32.1-1.8c-5.2-0.4-9.1-3.5-12.5-7.4c-8.1-9.2-11.8-19.2-10.1-32.5
	c1.7-13.4,0.6-27.3,0.7-41c0-1.7-0.3-3.5-0.3-5.2c-0.1-21.2-0.3-42.3-0.2-63.5c0-4.7,1-9.4,1.1-14.1c0.1-4.4-0.3-8.9-0.8-13.3
	c-1-9.3,2.3-15.4,10.4-18.7c6.9-2.7,13.1,0.1,16.1,7.3c2.3,5.3,1.3,10.7,0.8,16.2c-0.4,4.6-0.4,9.5,0.3,14c1.2,7.1,5,10.3,11.7,10.4
	c13.1,0.1,26.1,0.2,39.2-0.1c6.1-0.1,12.1,0.5,17.9,2.6c4.8,1.8,9.8,3.4,14.7,4.9c6.7,2.1,11.5,6.5,14.3,13.3
	c4,9.8,8.2,19.6,11.5,29.6c1.5,4.5,1.8,9.8,1.3,14.7c-1.4,14.6-3.1,29.2-5.5,43.6c-1.7,10.7-6.7,19.6-15.6,25.5
	c-8.6,5.7-17.6,10.5-27.4,13c-4,1-8.3,1.6-12.4,1.7c-7.7,0.3-15.4,0.1-23.1,0.1C2828.9-666.7,2828.9-666.4,2828.9-666.1z
	 M2802-727.8c-0.2,0-0.3,0-0.5,0c0,3.2,0,6.5,0,9.7c-0.1,3.5-0.4,7-0.3,10.5c0.2,9.2,5,15.5,13.5,15.8c15.8,0.6,31.7,1,47.3-2.9
	c11-2.7,18.7-10.1,20.6-21.9c1.8-11.4,1.9-23.2,2-34.9c0.1-8.5-2.4-16.6-5.5-24.5c-3.9-9.8-10.6-15.8-20.6-16.6
	c-13.9-1.1-27.9-1.7-41.8-2.4c-11.4-0.5-15.6,4-15.5,16.4c0.1,7,0.6,13.9,0.7,20.9C2802-747.6,2802-737.7,2802-727.8z"/>
<path class="st0" d="M860.5-1715.6c-0.8,5.4-1.3,10.9-2.4,16.2c-1.3,6.5-4.4,12-9.7,15.9c-2.3,1.7-4.5,3.7-6.2,6
	c-4.1,5.3-9.3,8.3-15.7,8.6c-8.8,0.4-17.7,0.7-26.5,1c-7,0.2-14,0.1-21,0.6c-7.6,0.5-14.6,3.6-20.7,8.4c-5.3,4.1-10.3,8.6-15.3,13
	c-1.1,0.9-2,2.1-3,3.1c-2.3,2.1-4.7,4.6-8,3.4c-3.7-1.3-4.4-5-4.6-8.5c-0.4-4.9-0.7-10-0.2-14.9c0.9-7.9,1-15.8,0.6-23.8
	c-0.5-11.7,0.1-23.4,0.6-35.1c0.7-13.6,6.9-24.3,16.7-32.4c3.8-3.1,8.6-5.1,13.2-6.4c14.3-4.1,28.9-5.3,43.7-3.3
	c5.1,0.7,10.3,0.3,15.4,0.3c7.2,0,13.9,1.4,19.8,6.1c2.6,2.1,5.2,4.3,8,6c10.4,6.5,14.1,16.7,14.7,28.8c0.1,2.2,0,4.5,0,6.7
	C860.1-1715.7,860.3-1715.7,860.5-1715.6z"/>
<path class="st0" d="M2993-760.7c8.2,0,16.4,0,24.5,0c2.3,0,4.7-0.1,7-0.6c11.4-2.2,16-14.1,9.4-24.4c-3-4.8-7.2-7.9-12.7-8.4
	c-6.5-0.6-13-1-19.6-1c-13.1,0.1-26.1,0.7-39.2,0.7c-4.4,0-8.8-0.7-13.2-1.5c-2-0.4-4.1-1.4-5.8-2.6c-5.1-3.6-5.7-10.8-0.7-14.5
	c3.5-2.5,8.2-4.7,12.2-4.4c11.2,0.6,22.3,1.2,33.3-1.5c1.3-0.3,2.8-0.2,4.2,0c11.4,2,22.7,1.6,34.2,0.5c5.2-0.5,10.2,1.1,14.7,4.2
	c3.1,2.2,6.3,4.4,9.5,6.3c9.3,5.4,13.9,14.1,14.4,24.9c0.4,8.9-0.3,17.9-0.5,26.9c-0.1,5.2-0.4,10.4-0.3,15.7
	c0.3,13.2,1,26.4,1.1,39.6c0.1,4.7-0.7,9.4-1.5,14.1c-1.3,7.9-5.6,13-13.1,14.7c-11.9,2.7-23.6,5.6-36,2.7c-8.4-2-17.2-1.8-25.6,1.7
	c-1.3,0.5-2.8,1-4.1,0.9c-10.4-1-21-1.1-30.7-6.2c-4.8-2.5-9.4-5.6-14.1-8.3c-4.4-2.5-7.1-6.3-8.6-11.3c-4.1-13.9-4.2-28-0.6-42
	c3.8-14.7,16.6-24.8,32.7-25.9c9.5-0.6,19.1-0.1,28.7-0.1C2993-760.6,2993-760.6,2993-760.7z M3010.3-692.4c0,0.3,0,0.7,0,1
	c4,0,7.9,0.2,11.9,0c9.3-0.6,13.8-4.9,14.5-14.7c0.5-6.4,0.3-13-0.2-19.4c-0.8-9.9-5.1-13.9-14.5-14.4c-6.3-0.3-12.6-0.7-18.9-0.8
	c-8.1-0.1-16.3-0.1-24.4,0.4c-7.2,0.4-12.8,4.6-17.2,10.3c-10.4,13.5-4.9,32.7,10.7,37.9c6.6,2.2,13.3,2.1,20.1,1.3
	C2998.2-691.3,3004.3-691.8,3010.3-692.4z"/>
<path class="st0" d="M2606-793.8c-12.1-0.4-24.2-0.6-36.3-1.3c-6.7-0.4-10.7-4.3-10.7-9.4c0-5.5,5.1-10.6,11.5-10.8
	c3.9-0.1,7.9,0.9,11.8,0.9c9.6-0.1,19.1-1,28.7-0.6c16.5,0.6,33.1-0.9,49.4,3.3c7.7,2,13,6.6,15.4,14.7c2.3,7.8,4.8,15.6,6.2,23.6
	c0.9,5.2-0.1,10.8-0.2,16.2c-0.1,4.4-0.3,8.8-0.3,13.3c0,1.7,0.4,3.5,0.5,5.2c0.3,14.2,0.4,28.4,0.9,42.5c0.6,20-14.6,31.4-29.1,31
	c-10.7-0.3-21.4-1-32.2-1.1c-8.9-0.1-17.8,0-26.6,0.8c-11.4,1.1-21.8-1.7-31.6-7.3c-3.3-1.9-6.5-5.2-8.3-8.7
	c-6.6-13-9.2-27.1-7.4-41.8c1.1-9.1,4.5-17.4,10.4-24.1c2.6-3,5.9-5.8,9.4-7.4c11.1-5,22.7-7,34.9-4.7c4.8,0.9,9.8,1,14.6,0.2
	c7.7-1.3,15.3-1.4,23-0.4c10.6,1.5,15.4-3.6,14.7-14.9c-0.8-12-7.5-18.8-19.1-19.4c-4.9-0.2-9.8-0.1-14.7-0.2c-4.9,0-9.8,0-14.7,0
	C2606.1-794.1,2606-794,2606-793.8z M2618.9-689.4c0-0.1,0-0.3,0.1-0.4c6.5,0,13.1-0.1,19.6,0c8.8,0.2,14.5-3.5,15.6-11.5
	c1-7.8,1.4-15.9,1.2-23.8c-0.2-7.3-4.5-11.2-11.3-11.6c-1.9-0.1-3.7,0.1-5.6,0.2c-5.1,0.3-10.2,0.8-15.3,0.7
	c-9.6-0.2-19.1-0.9-28.6-1.2c-7.5-0.2-14.2,2.2-17.2,10.1c-2,5.4-3.1,11.5-3.5,17.3c-0.5,6.8,3,11.9,8.8,14.9c2.7,1.4,5.7,2.7,8.6,3
	C2600.3-690.7,2609.6-690.1,2618.9-689.4z"/>
<path class="st0" d="M1267.7-728.7c-8.2,0-16.2,0.2-24.1-0.1c-4.4-0.1-8.8-0.9-13.2-1.6c-10.8-1.6-16.2,5.5-13.2,16.8
	c4,15,14,21.7,27.7,23.3c4.4,0.5,8.9,0.6,13.3,0.6c14.7,0,29.4-0.2,44.1-0.1c4.2,0,8.4,0.3,12.5,1.2c5.8,1.2,9,5.4,9,10.7
	c0.1,6.1-3.3,11.7-8.7,12.9c-4,0.9-8.3,0.6-12.5,0.6c-1.9,0-3.7-0.5-5.6-0.5c-18.4,0.3-36.9,0.8-55.3,1c-8.9,0.1-17.2-2.5-24.7-7.3
	c-5.8-3.7-11.2-8-16.7-12.3c-3.8-2.9-5.5-7.2-6.6-12c-5.5-23.8-6.1-47.8-1.8-71.9c0.7-4.2,1.7-8.3,2.8-12.3c1.4-5.1,4-9.4,8-12.9
	c3.1-2.6,5.8-5.8,8.4-8.9c3.2-3.9,7-6.5,11.8-7.4c8.9-1.8,17.8-3.9,26.8-5.4c3.9-0.7,7.9-0.8,11.8-0.4c9.1,0.8,18.1,1.8,27.1,3.3
	c14.6,2.4,26.3,10,34,23.7c2,3.6,3.2,7.7,4.3,11.7c1.1,4.1,1.5,8.3,2.2,12.5c1.9,12.2-2.1,21.7-12.3,27.5c-4,2.3-8.6,4.2-13.1,4.7
	C1291.7-729.9,1279.5-729.5,1267.7-728.7z M1258-753.3c0,0.2,0,0.3,0,0.5c9.1,0,18.2,0.1,27.2-0.1c3.2-0.1,6.6-0.3,9.6-1.3
	c5.4-1.9,8.1-6.9,5.9-12.3c-6.8-16.7-11.6-23.5-28.9-24.4c-6.3-0.3-12.6,0-18.9-0.2c-15.6-0.6-26.8,6.4-33.9,21.3
	c-4.6,9.7-1.4,16.2,8.9,16.5C1238-753.1,1248-753.3,1258-753.3z"/>
<path class="st0" d="M1502.9-742.3c-0.5,9.7-0.4,16.7-1.2,23.6c-1.4,11.6-6.6,21.8-12.2,31.6c-1.7,3-4.8,5.5-7.8,7.2
	c-15.1,8.7-31,15.5-48.2,17c-16.4,1.4-32.7,0.3-48-7.2c-2.1-1-4.2-2.1-6.4-3.1c-21-10.3-17.3-8.7-28.5-27.9
	c-5.3-9-6.9-19.7-6.3-30.2c0.8-13.4,1.7-27,4.7-39.9c4.5-19.2,16.4-32,34.7-37.2c7.7-2.2,15.3-4.6,23.1-5.9
	c7.1-1.1,14.4-0.8,21.5-0.9c2.1,0,4.2,0.8,6.3,0.6c12.6-1.3,23.9,3.7,35.2,8.1c19.4,7.7,28.6,23.9,31.8,44.6
	C1502.8-754.5,1502.7-747,1502.9-742.3z M1429.5-686.7c4-0.6,10.7-1.4,17.4-2.6c7.2-1.3,12.9-5.3,17.3-11.7
	c5.6-8.2,8.9-17.2,10.2-27.4c1.8-15.3,1.8-30-5.5-44.2c-4.7-9.1-10.7-15.3-20.1-16.5c-12.7-1.6-25.5-2.4-38.3-2.9
	c-4.1-0.2-8.3,1.3-12.3,2.6c-11.9,3.6-19.1,12.1-21.9,24.8c-1.2,5.8-1,11.9-1.9,17.7c-1.9,12.4-0.3,24.2,3.3,36
	c3,9.6,8.7,15.9,17.5,18.7C1405.4-689,1415.9-686.7,1429.5-686.7z"/>
<path class="st0" d="M1822.6-666.4c-9.3-0.9-18.6-2.3-27.9-2.5c-6.9-0.2-13.9,1-20.9,1.7c-9.6,1-18.9,1.1-28.2-3.2
	c-13.3-6.3-23.2-23-21.4-38.5c1.3-10.6,3.6-20.8,8.2-30.7s11.6-14.9,21.2-16c11.3-1.3,22.6-2.5,34.2-0.9c10.3,1.5,21,0.3,31.5,0.1
	c1.8,0,3.7-0.7,5.4-1.3c5.3-2,7.8-5.8,7.8-11.8c0-10.4-7.7-19.4-18.3-21.3c-1.6-0.3-3.3-0.6-4.9-0.3c-18.6,3-37.3-0.4-56,0.3
	c-2.8,0.1-5.6-0.1-8.3-0.7c-6.1-1.4-8.3-4.4-8.3-10.2c0-6.5,2.7-11.2,8.3-12.1c4.8-0.8,9.9-1,14.6-0.1c6.9,1.3,13.4,0.2,20.1-1.2
	c2.5-0.5,5.2-0.8,7.6-0.1c9,2.8,18.2,2.7,27.1,1.6c12.9-1.5,23.3,3.9,32.9,11.7c6,4.9,8.4,12.4,9.5,20.3c0.4,3.2,0.4,6.5,0.4,9.7
	c0.1,25.9,0.2,51.8,0.3,77.7c0,5.8-0.3,11.5-3.4,16.6c-4,6.6-9.8,9.9-16.9,10.6c-4.9,0.5-9.8,0.1-14.7,0.1
	C1822.6-666.7,1822.6-666.5,1822.6-666.4z M1794-687.8c0,0.3,0,0.6,0,0.9c7.2,0,14.4,0.2,21.7,0c10.7-0.4,15.6-6.3,15.5-17.8
	c-0.1-5.6,0.4-11.2,0.6-16.8c0.3-6.9-3-12-9.4-13.6c-2.5-0.6-5.1-0.8-7.6-0.8c-14.2,0-28.4,0.2-42.7,0.3c-12,0.1-18.8,5.7-19.9,18.2
	c-1.5,17.5,3.4,30.7,23.6,29.8C1781.9-688,1787.9-687.8,1794-687.8z"/>
<path class="st0" d="M2023.2-718c0-12.7-0.7-25.4,0.2-38.1c0.9-12.2,1.1-24.4,0-36.5c-0.3-3-0.5-6,0-8.9c2.1-12.9,1.1-25.8,0.4-38.8
	c-0.2-2.7-0.3-5.5,0-8.2c0.9-7.5,5.7-12.2,12.6-12.5c7.4-0.4,11.9,3.1,13.4,11.2c0.6,3.3,0.2,6.9,0.1,10.3
	c-0.1,4.2-0.9,8.5-0.6,12.6c0.4,6.7,3.9,10.4,10,11.5c2.1,0.4,4.2,0.5,6.3,0.5c13.5,0.2,27.1,0.6,40.6,0.3
	c15.4-0.3,28.2,5.3,39.2,16.7c4.4,4.6,6.7,10,7.7,16.3c2.9,17.8,3,35.6,1.8,53.6c-0.9,14.1-0.3,28.4-0.5,42.6c0,3.2-0.3,6.5-1.1,9.6
	c-1.6,6.4-6.2,9.5-12.7,9.2c-6.7-0.3-11.3-4.3-12.4-10.9c-0.4-2.4-0.4-5-0.3-7.5c0.3-14.5,0.7-28.9,1-43.4
	c0.2-9.9,0.6-19.9,0.5-29.8c-0.3-21.3-16.8-34.2-29.1-36.1c-8.4-1.3-16.6-1.7-24.8,1.7c-3.5,1.4-7.8,1.1-11.7,0.8
	c-9.7-0.9-14.6,3.4-14.7,13.9c-0.1,13.9,0.1,27.9,0,41.8c0,7-0.7,13.9-0.7,20.9c0,8.7,0.4,17.4,0.5,26.1c0,3.2-0.3,6.4-0.4,9.6
	c-0.1,7.6-7.9,12.8-14.3,12.3c-6.1-0.5-10.8-6.2-10.9-14.2c-0.2-11,0.1-21.9,0.1-32.9c0-1.2,0-2.5,0-3.7
	C2023.3-718,2023.3-718,2023.2-718z"/>
<path class="st0" d="M3121.2-742.2c0.7,21.9,1.3,38.4,1.8,54.8c0.3,10.7-4.2,17.1-13.3,18.7c-6.6,1.2-12.9-2.5-14.8-9.4
	c-0.9-3.3-1.3-6.9-1-10.3c1.4-17.2,1.2-34.3-0.2-51.5c-0.6-7.7-0.3-15.4-0.1-23.2c0.2-10.4,0.9-20.9,0.9-31.3
	c0-6.2,1.9-11.2,6.1-15.3c5.6-5.6,12.1-9.1,20-9.6c11.9-0.8,23.7-1.6,35.7-0.4c7.6,0.7,15.4-0.4,23.1-0.5c2.5,0,5.1,0.6,7.6,0.7
	c19.1,0.8,30.3,13.5,39.2,29.7c2.9,5.3,3.9,11.2,3.7,17.3c-0.3,11.9-1.3,23.9-1.3,35.8c0,12.7,0.9,25.3,1.3,38
	c0.2,4.7,0.5,9.4,0.3,14.1c-0.1,2.4-1.1,4.8-2.2,7c-3.3,6.7-9.2,9.5-16.5,8.2c-5.8-1.1-9.6-5.7-10.3-13.3
	c-0.6-6.2-0.9-12.4-0.9-18.6c0.1-20.9,0.4-41.9,0.6-62.8c0-2.2,0.1-4.5-0.1-6.7c-1.3-14.3-10.1-23.8-23.7-24.3
	c-13.5-0.5-27.1-0.3-40.6,0.1c-9.1,0.3-13.5,5.1-14,15C3121.7-765.6,3121.5-751.1,3121.2-742.2z"/>
<path class="st0" d="M2466.9-665.2c-15.3-1.3-30.7-2.6-46-3.9c-5.4-0.5-9.6-3.2-13.3-7.4c-4.3-4.9-9.2-9.3-13.2-14.4
	c-2.7-3.3-5.2-7.2-6.3-11.4c-2.2-7.8-3.4-15.9-2-24.3c0.8-4.8,0.4-9.9,0.4-14.9c0.2-17.7,0.4-35.3,0.5-53c0-1,0.2-2,0.2-3
	c1.4-17.1,12-18.2,22.8-15.3c3.5,0.9,5.4,3.6,5.4,7.7c-0.3,18.2-0.9,36.3-0.8,54.5c0,13.2,0.7,26.3,1.5,39.5
	c0.6,8.8,5.4,14.4,13,17.8c7,3.1,14,5.1,21.7,5c10-0.1,20.1,0.9,29.9-1.9c2.5-0.7,4.9-1.6,7.2-2.9c4-2.3,6.3-5.9,6.3-10.9
	c0-7.5-0.2-14.9-0.3-22.4c0-4.7,0-9.5-0.1-14.2c-0.1-6.5-0.3-12.9-0.4-19.4c-0.1-4.5-0.5-9,0.1-13.4c1.1-8.4,1.6-16.8,0.9-25.3
	c-0.6-6.5,0.9-11.9,7.1-14.7c5.8-2.7,15.1-1.3,19.1,3.2c3.9,4.4,4.6,10.2,3.8,15.4c-1.7,11.6-2.2,23-1.1,34.8
	c1,10.3-0.7,20.9-0.8,31.3c-0.1,7.5,0.4,14.9,1,22.4c0.7,9.1-0.4,17.8-3.5,26.4c-1.9,5.3-5.1,9-10.3,10.1c-5.9,1.3-11.9,2.6-17.9,3
	c-8.1,0.5-16.3,0.1-24.5,0.1C2467-666.1,2466.9-665.7,2466.9-665.2z"/>
<path class="st0" d="M2332.7-814.5c7,0,14-0.1,21,0.1c2.5,0.1,5.2,0.4,7.6,1.2c4.8,1.6,6.8,4.7,6.7,9.2c-0.1,4.1-2.6,8.2-6.6,9.7
	c-1.9,0.7-4.1,1.1-6.2,1.1c-10.5-0.1-20.9-0.7-31.4-0.4c-7.4,0.1-15,0.5-22.3,2.1c-14.1,3-23.5,12.5-27.3,27
	c-4.9,18.9-4.7,37.9,2.7,56.4c2.5,6.3,6.8,10.5,12.5,13.5c11.8,6.2,24,6.6,36.9,5.7c11.3-0.8,22.8,0.3,34.2,0.7
	c1.6,0.1,3.2,0.9,4.7,1.6c5,2.3,7.3,6,6.8,10.9c-0.5,5-4.1,9.1-9.3,9.5c-6.5,0.6-13.1,0.8-19.6,0.8c-9.3,0-18.6,0-28-0.5
	c-9.3-0.4-18.6-1.2-27.9-2.2c-7.2-0.7-13.4-4.4-19.2-8.6c-3.7-2.6-7-5.8-10.5-8.7c-4.7-3.8-7.4-8.9-8.5-15c-0.5-2.9-1.1-5.9-2.1-8.7
	c-6.5-20-6.1-40.1-0.1-60.1c0.8-2.6,1.8-5.2,2.2-7.9c1.8-15.2,12-23.1,23.1-29.8c7-4.2,14.5-6.1,22.8-6.2c12.6,0,25.1-1.3,37.7-2
	C2332.7-815,2332.7-814.7,2332.7-814.5z"/>
<path class="st0" d="M1668.5-688.4c13.2,0,22.1-0.3,31,0.1c9,0.4,14.3,9.7,10.3,17.3c-2.6,5-6.9,6.4-11.9,5.9
	c-5.6-0.5-11.1-1.3-16.7-1.5c-4.2-0.1-8.4,0.5-12.5,0.9c-13.8,1.4-27.5,1.7-40.8-3.6c-6.3-2.5-12.8-4.6-19.1-7.3
	c-4.9-2.1-8.3-6.2-11.1-11c-7-11.8-12.6-24.1-11.9-38.4c0.7-14.7,1.7-29.3,3.3-43.9c1.1-9.6,6.2-17.7,11.3-25.4
	c1.9-2.8,5.4-5,8.6-6.1c12.4-4.4,24.9-8.4,37.4-12.3c2.6-0.8,5.6-0.8,8.3-0.5c13.3,1.4,26.5,1.4,39.8-0.2c8.2-1,12.6,2.2,14.5,9.4
	c1.6,5.9-0.2,10.8-5.7,12.5c-5.3,1.6-11,2.4-16.5,2.4c-10.7,0-21.4-0.9-32.2-1c-3.9,0-7.9,0.6-11.8,1.5c-16.6,4-26.3,15.3-28.4,33.4
	c-1.9,15.7-1.6,31.2,2.8,46.6c3.5,12.1,10.5,19.1,22.6,19.7C1650.9-689.3,1661.9-688.8,1668.5-688.4z"/>
<path class="st0" d="M1960-814.8c7.7,0,15.4,0,23.1,0c3.3,0,6.6,0,9.8,0.6c5.6,1.1,9.9,6.3,9.7,11.2c-0.3,6.2-5.6,12.5-11.6,11.6
	c-14.8-2.3-29.3,1.3-44,1.2c-5.7,0-11.6,1.1-17.2,2.6c-12.3,3.3-18.8,12.9-21,25.4c-2.7,15-2.4,30.2-1.1,45.4
	c1,11.8,11.8,23.9,23.7,26.6c7,1.6,14.3,2.7,21.5,2.9c10.7,0.3,21.5-0.8,32.2-0.7c4.3,0,8.9,0.9,12.8,2.6c4.8,2.1,7.2,7.2,6.3,11.3
	c-0.8,4.3-4.7,7.9-9.6,8.5c-2.8,0.3-5.6,0-8.4-0.1c-3.3-0.2-6.6-1.2-9.7-0.7c-14.2,2.6-28.4-0.1-42.6-0.3
	c-11.9-0.2-23.5-4.3-33.8-10.9c-9.5-6.1-14-16.5-17.2-27.4c-1.5-5.2-2.5-10.7-2.7-16.1c-0.3-12.4-0.3-24.9,0.1-37.4
	c0.4-11.4,4.7-21.7,9.7-31.7c2.2-4.4,6.1-6.6,10-9c4.9-2.9,9.8-5.8,14.3-9.3c5.4-4.2,11.4-5.6,17.8-5.7c9.3-0.1,18.7,0,28,0
	C1960-814.4,1960-814.6,1960-814.8z"/>
<path class="st0" d="M2443.3-879.1c9.6,2.3,20.2,4,30.4,7.4c9.9,3.2,13,9.8,12.2,20.7c-0.3,4.4-2.2,7.4-5.8,9.4
	c-7,4-13.8,8.2-20.8,12.3c-1.4,0.8-2.9,1.6-4.5,2.1c-3.6,1-7.1,0.9-9.6-2.4c-2.5-3.3-1-6.6,0.6-9.7c1.2-2.4,2.8-4.6,4.1-7
	c3.8-7.3,1.2-12.8-6.6-13.7c-2.5-0.3-5.1-0.1-7.7-0.2c-6-0.1-8.1-1.3-8.8-5.2c-0.9-4.9,1.8-10.1,6.6-11.7
	C2436.1-878.1,2439.2-878.3,2443.3-879.1z"/>
<path class="st0" d="M1811.3-866.4c3.5,1.2,6.3,1.8,8.6,3.2c3.7,2.2,5,6.4,4,10.8c-1.4,6.1-4.8,10.6-9.9,13.8c-7,4.4-14,8.8-21,13.2
	c-6.6,4.1-9.1,3.9-13-0.5c-4.2-4.7-4.7-9.9-1.2-15.6c1.5-2.4,3.5-4.9,5.8-6.2c6.4-3.7,12.1-8.2,17.3-13.6
	C1804.4-863.8,1808.3-864.8,1811.3-866.4z"/>
<path class="st0" d="M2995.2-624.5c-10.5,0.1-17.9-11.4-12.5-22.6c2.6-5.5,7.1-8.1,12.5-8c5.9,0.1,11.5,1.9,16.2,6.1
	c5.3,4.7,6,11.6,1.3,17C3008.5-627.4,3003.4-624.6,2995.2-624.5z"/>
<path class="st1" d="M162.3,32.2c0,1.8,0,3.5,0,5.3c0,2.7,0.4,5.6,1.9,7.9c2.8,4.3,8.1,5.3,12.9,5.9c3.1,0.4,9.4,1.3,10.7-2.6
	c0.3-0.9,0.3-1.9,0.2-2.9c0-0.4-0.1-0.9-0.5-1.2c-0.3-0.2-0.7-0.3-1.1-0.3c-3.7-0.1-8.7,0.1-11.3-3.1c-1.7-2.2-1.5-5.4-1.7-8
	c-0.2-3.2-0.2-6.5-0.2-9.7c0-0.8,0-1.5,0.2-2.3c1.1-3.3,8-1.6,10.6-1.7c0.4,0,0.7,0,1.1-0.1c1.1-0.3,2-1.3,2.3-2.5
	c0.4-1.3,0.8-4.3-1.1-4.3c-3.7-0.2-7.5,0-11.2,0.1c-0.3,0-0.5,0-0.8-0.1c-0.6-0.3-0.6-1.2-0.5-1.8c0.1-1.4,0.2-2.9,0-4.3
	c-0.2-1.2-1.2-2.3-2.4-2.5c-1-0.2-1.9-0.3-2.9-0.1c-0.6,0.1-1.2,0.1-1.7,0c-1.6-0.2-2.7,0.5-3.7,1.5c-0.2,0.2-0.3,0.5-0.4,0.8
	c-0.2,1.5-0.3,3-0.2,4.4c0,0.4,0,0.9,0,1.3c0,0.5-0.3,0.8-0.8,0.9c-0.4,0.1-0.8,0.1-1.2,0.1s-0.8,0-1.3,0c-1.9,0-3.8,0-5.7,0.1
	c-3.9,0.1-7.9-0.1-11.8,0c-0.6,0-1.3,0-1.6-0.5c-0.2-0.3-0.2-0.7-0.2-1.1c0-1.2,0.2-2.4,0.2-3.6s-0.4-2.5-1.4-3.2
	c-0.7-0.5-1.6-0.5-2.4-0.6c-1.7-0.1-4.4-0.4-6,0.6c-1.4,0.8-1.6,2.9-1.5,4.3c0,0.8,0,1.6,0,2.4c0,0.6-0.2,1.2-0.7,1.5
	c-0.3,0.1-0.6,0.1-0.9,0.1c-1.3,0-3.2-0.5-4.4,0c-1.6,0.7-1.3,2.9-0.7,4.2c0.6,1.4,1.6,2.1,3,2.4c1.3,0.3,3.5-0.2,3.5,1.8
	c0,4.8-0.2,9.7-0.1,14.5c0,4,0,8.1,3.1,11.1c2.1,2,5,3.2,7.9,3.7c3.7,0.7,7.5,0.4,11.2,0.4c1.6,0,2.6-1.1,2.9-2.5
	c0.2-0.8,0.2-1.7,0.3-2.6c0-0.5,0-1-0.4-1.3c-0.3-0.2-0.6-0.2-1-0.2c-3.7-0.1-8.9,0.3-11.4-3c-1.4-1.9-1.4-4.2-1.3-6.4
	c0-1.1,0-2.1,0-3.2c0-2.2,0-4.5,0-6.8c0-1.3-0.4-2.7-0.1-4c0.6-2.1,2.9-1.4,4.7-1.4c5.6,0,11.1,0,16.7,0c0.3,0,0.6,0,0.9,0.2
	c0.4,0.3,0.5,0.9,0.4,1.4C162.5,24.9,162.4,28.5,162.3,32.2z"/>
<path class="st1" d="M28.7,51.7c2.1-0.1,3.9-0.9,5.2-2.6c2.1-2.7,3.5-6.1,5.2-9.1c1.6-2.9,3.2-5.8,4.8-8.7c0.8-1.5,1.6-2.9,2.4-4.4
	c0.8-1.5,1.7-3,2.5-4.5c0.7-1.3,1.4-2.6,2.1-4c0.5-0.8,0.9-1.7,1.4-2.5c0.3-0.6,1.2-1.7,0.9-2.4c-0.2-0.6-1-0.5-1.5-0.5
	c-1.2,0.1-2.3,0.2-3.5,0.2c-2.3,0-4.7,0.2-6.4,1.8c-1.2,1.1-1.9,2.6-2.6,4.1c-1.8,3.8-3.8,7.5-5.7,11.3c-1.4,2.9-2.9,5.7-4.3,8.6
	c-0.4,0.7-0.7,1.4-1.1,2.1c-0.3,0.5-0.7,1.5-1.4,1.2c-0.9-0.4-1.4-1.5-1.8-2.4c-1.1-2.2-2.1-4.5-3.2-6.7c-1.7-3.6-3.4-7.2-5.2-10.7
	c-0.8-1.5-1.2-3.1-2-4.5c-1.4-2.6-3.4-4.6-6.6-4.7C6.1,13,4.2,13,2.3,13c-1,0-1.5,0.4-0.9,1.4c0.7,1.2,1.3,2.3,1.9,3.5
	c0.9,1.8,1.9,3.7,2.8,5.5c0.8,1.5,1.6,3,2.4,4.5c0.1,0.2,0.2,0.5,0.3,0.7c0.2,0.6,0.6,1.2,0.9,1.8c1.1,2,2.1,3.9,3.2,5.9
	c0.5,1,1,2.1,1.6,3.1c0.4,0.8,0.9,1.6,1.3,2.5c0.7,1.4,1.4,2.8,2.2,4.2c0.7,1.3,1.3,2.7,2.3,3.8c1.2,1.4,3.2,1.7,4.9,1.8
	C26.2,51.7,27.5,51.8,28.7,51.7z"/>
<path class="st1" d="M256.4,21.6c0-4.4,0.1-8.8,0.1-13.3c0-1.5,0-3.1-1-4.1c-1.6-1.8-5.9-1.3-8-0.8c-3,0.7-2.7,4.4-2.7,6.9
	c0.2,8.8,0.2,17.6,0,26.4c0,2-0.1,4.1,0.6,6c1.4,3.9,5.4,6.3,9.4,7.3c3.5,0.8,7.1,0.8,10.7,0.8c1.5,0,3.2-0.1,4.3-1.2
	c1.1-1.1,1-2.9,1-4.4c-0.1-1.8-2.1-1.3-3.4-1.3c-3.2,0.2-7.8-0.3-9.8-3.1c-1.2-1.7-1.3-4-1.3-6.1C256.4,30.3,256.4,25.9,256.4,21.6z
	"/>
<path class="st1" d="M66.1,18.2c0-0.5,0-1,0-1.6s0-1.2-0.3-1.8c-0.4-0.9-1.5-1.4-2.5-1.6c-1.5-0.3-3-0.4-4.5-0.3
	c-0.9,0.1-1.8,0.3-2.6,0.8c-1.5,1.2-1.6,3.4-1.6,5.1c0,4.4-0.1,8.9-0.1,13.3c-0.1,5.4-0.2,10.8-0.1,16.1c0,0.4,0,0.8,0.2,1.2
	c0.1,0.3,0.4,0.5,0.6,0.7c1.3,1.1,3.1,1.3,4.8,1.2c1.8,0,3.4-0.2,4.8-1.4c0.9-0.8,0.9-2.4,0.9-3.5C66,39.8,65.9,33,66,26.2
	C66.1,23.5,66.1,20.9,66.1,18.2z"/>
<path class="st1" d="M66.3,6.2c0-0.1,0-0.1,0-0.2c0-0.6-0.1-1.2-0.4-1.7c-0.6-1-1.7-1.5-2.8-1.7c-2-0.4-5.2-0.6-6.9,0.8
	c-1,0.8-1.3,2.1-1.3,3.4c-0.1,1.5,0,3,0,4.6c0,0.4,0.1,0.9,0.4,0.9c0.2,0,0.4-0.1,0.6-0.3c0.6-0.5,1.2-1.1,1.9-1.4
	c1.1-0.6,2.1-0.5,3.3-0.5C62.9,10,65,9.9,65.9,8C66.2,7.4,66.3,6.8,66.3,6.2z"/>
<g id="XMLID_1_">
	<g>
		<path class="st1" d="M238.5,22.7c0.9,3.6,1,7.9-2.2,10.4c-2,1.6-4.4,1.5-6.8,1.5c-4,0-8.1,0-12.1,0c-2.9,0-5.8,0-8.9-0.1
			c-1.5,0-5.9-0.8-6.7,0.9c-0.3,0.7-0.3,1.4-0.2,2.1c0.2,1.4,0.6,2.7,1.5,3.7c1.2,1.4,3.1,2,4.9,2.4c4.5,0.9,9.1,0.4,13.6,0.4
			c4.7-0.1,9.3,0,14,0c0.4,0,0.8,0,1.1,0.3s0.4,0.7,0.4,1.1c0.1,1.6,0,4-1.6,4.9c0,1.3-21,0.7-22.6,0.7c-4.2,0.1-8.5,0.3-12.6-0.9
			c-5.7-1.6-9.1-6.3-10-12.1c-0.9-5.9-0.9-14.2,2.9-19.1c1.7-2.2,4.2-3.7,6.8-4.7c2.6-0.9,5.4-1.3,8.2-1.6
			c5.4-0.5,10.8-0.4,16.2,0.2c2.4,0.3,4.8,0.7,7,1.6c2.2,0.9,4.2,2.3,5.5,4.3C237.7,19.9,238.1,21.3,238.5,22.7z M222.6,28.1
			c1.9,0.1,5,0,4.4-2.9c-0.5-2.2-1.8-3.8-3.9-4.6c-4.8-2-11-2.1-15.9-0.4c-1.6,0.6-3.1,1.5-4,2.9c-1.2,1.8-1.4,4-1.2,6.2
			c0,0.3,0.1,0.6,0.4,0.7c0.2,0.1,0.4,0,0.5-0.1c3.5-2.1,6.2-1.9,10.1-1.9c2.7,0,5.5,0,8.2,0C221.6,28,222.1,28,222.6,28.1z"/>
	</g>
	<g>
	</g>
</g>
<g id="XMLID_2_">
	<g>
		<path class="st1" d="M114,16.2c4.7,2.8,6.1,7.9,5.8,13.1c-0.1,1.9-1.4,3.9-3.1,4.9c-1,0.6-2.2,0.8-3.4,0.9c-0.6,0-1.3,0-1.9,0
			c-6.9,0-13.7,0-20.6,0c-1.1,0-2.2,0-3.3,0c-1,0-2.1-0.1-3.1,0.1c-0.5,0.1-0.8,0.3-0.9,0.8c-0.3,1.4,0.2,3.4,0.8,4.7
			c0.8,1.6,2.2,2.9,4,3.3c2.8,0.6,5.7,0.5,8.6,0.5c2.8,0.1,5.8,0,8.6,0c1.9,0,3.8,0,5.7,0c1.8,0,3.7-0.1,5.6,0c0.4,0,0.8,0.2,1,0.5
			c0.1,0.2,0.1,0.5,0.1,0.7c0.1,0.6,0.1,1.2,0.1,1.8c0.1,2.1-1.3,3.8-3.5,3.8c-3.1,0-6.3,0-9.4,0c-1.6,0-3.2,0.1-4,0.1
			c-2.7,0-4.6,0-6.5,0.1c-5.8,0-12,0.6-17.1-2.7c-1.9-1.3-3.4-3.2-4.4-5.3c-1.5-3.4-1.5-7-1.5-10.7c0-3.1,0-6.7,1.1-9.7
			c1-2.4,2.5-4.6,4.7-6.1c2.1-1.4,4.4-2.2,6.7-2.9c6.1-1.8,12.9-1.3,19.2-0.9c2.2,0.1,4.3,0.6,6.5,1.1
			C111.3,14.7,112.6,15.4,114,16.2z M108.2,26.8c0.5-2.3-1.3-4.5-3.2-5.6c-1.9-1.1-4.3-1.3-6.5-1.4c-2.9-0.2-6-0.2-8.8,0.5
			c-1.7,0.4-3.2,1.1-4.4,2.4c-1,1.1-1.6,2.4-1.7,3.9c0,0.5,0,1,0,1.5c0,0.4-0.2,0.9-0.2,1.3c0,0.3,0,0.5,0.2,0.7
			c0.3,0.4,0.8,0.1,1.1-0.1c1.1-0.7,2.1-1.3,3.5-1.5c1.6-0.2,3.2-0.1,4.8-0.1c1.7,0,3.4,0,5.1,0c1.8,0,3.6,0,5.6-0.2
			c1.1,0,3,0.4,3.9-0.4C107.9,27.6,108.1,27.2,108.2,26.8z"/>
	</g>
	<g>
	</g>
</g>
</svg>
