<?xml version="1.0" ?><svg viewBox="2757 1079 120 120" xmlns="http://www.w3.org/2000/svg"><defs><style>
      .cls-1 {
        fill: #f60;
      }

      .cls-2 {
        fill: #fff;
      }
    </style></defs><g data-name="Group 67" id="Group_67" transform="translate(2689 1051)"><circle class="cls-1" cx="60" cy="60" data-name="Ellipse 55" id="Ellipse_55" r="60" transform="translate(68 28)"/><g data-name="Group 66" id="Group_66" transform="translate(-103 -193)"><rect class="cls-2" data-name="Rectangle 23" height="76" id="Rectangle_23" rx="24" transform="translate(198 243)" width="62"/><path class="cls-2" d="M.1.1,45-5.8a6.059,6.059,0,0,0,.6,3.5,4.472,4.472,0,0,0,3,1.9H55c2.154,0,3.9,2.246,3.9,4.4V23A23.9,23.9,0,0,1,35,46.9H8.6Z" data-name="Path 163" id="Path_163" transform="translate(215 272)"/><rect class="cls-1" data-name="Rectangle 24" height="9" id="Rectangle_24" rx="4.5" transform="translate(218 263)" width="23"/><rect class="cls-1" data-name="Rectangle 25" height="9" id="Rectangle_25" rx="4.5" transform="translate(218 290)" width="36.5"/></g></g></svg>