<?xml version="1.0" encoding="UTF-8" standalone="no"?>
<svg xmlns:dc="http://purl.org/dc/elements/1.1/" xmlns:cc="http://creativecommons.org/ns#" xmlns:rdf="http://www.w3.org/1999/02/22-rdf-syntax-ns#" xmlns:svg="http://www.w3.org/2000/svg" xmlns="http://www.w3.org/2000/svg" xmlns:xlink="http://www.w3.org/1999/xlink" version="1.0" height="1024" width="1024">
	<title>Blogger</title>
	<g transform="translate(-384.13806,460.16134)">
		<g transform="matrix(4.3574468,0,0,4.3574468,-1289.7231,-1893.0587)">
			<path transform="scale(-1,1)" style="fill:#f57d00;fill-opacity:1;fill-rule:evenodd;stroke:none" d="m -619.13806,328.83875 235,0 0,235 -235,0 z" />
      			<path style="fill:#ffffff;fill-opacity:1;stroke:none" d="m 506.93892,373.36775 -33.75,0.53125 -0.34375,0 c -14.82047,-0.0362 -27.75927,5.90915 -34.65625,15.5625 -5.41117,7.57373 -7.10519,15.78472 -7.375,23.3125 l -0.0313,0 -0.9375,58.0625 -0.0625,0 c -0.0107,0.16938 0.01,0.33081 0,0.5 -0.002,0.12746 -0.0306,0.24738 -0.0313,0.375 l 0.0313,0 c -0.69813,13.52368 2.11565,26.4012 10.96875,35.46875 9.00353,9.22162 21.76381,12.26369 34.9375,12.125 0.0632,-6.7e-4 0.12423,8.1e-4 0.1875,0 l 52.28125,0 0.0625,0 0.0625,0 c 12.31523,-0.10417 24.37007,-4.12322 32.8125,-12.8125 8.44243,-8.68928 12.3599,-20.92791 12.5,-34.03125 l 0,-0.21875 0,-0.21875 c -0.12956,-6.80368 0.0378,-11.94182 -0.3125,-17.15625 -0.35032,-5.21443 -1.31626,-12.38535 -7.28125,-18.09375 -5.96499,-5.7084 -12.8073,-6.516 -18.6875,-6.875 -0.66269,-0.0405 -1.32055,-0.0682 -2,-0.0937 1.37835,-5.89877 1.43681,-11.7399 1,-17.09375 -0.0459,-0.56222 -0.038,-1.16798 -0.0937,-1.71875 l -0.0625,0 c -0.69906,-18.99019 -16.68157,-37.02016 -38.5625,-37.625 l -0.34375,0 -0.3125,0 z m -31.1875,30 29.3125,0.46875 a 12.50165,12.50165 0 0 1 -0.40625,25 l -29.28125,-0.46875 a 12.501406,12.501406 0 0 1 0.375,-25 z m -3.5,57.28125 58.5625,0 a 12.50125,12.50125 0 1 1 0,25 l -58.5625,0 a 12.50125,12.50125 0 1 1 0,-25 z" />
		</g>
	</g>
</svg>
