<?xml version="1.0" standalone="no"?><!DOCTYPE svg PUBLIC "-//W3C//DTD SVG 1.1//EN" "http://www.w3.org/Graphics/SVG/1.1/DTD/svg11.dtd"><svg xmlns:xlink="http://www.w3.org/1999/xlink" version="1.1" class="highcharts-root" style="font-family:arial;font-size:8px;color:#333;font-weight:normal;font-style:normal;fill:#333;" xmlns="http://www.w3.org/2000/svg" width="600" height="400" viewBox="0 0 600 400"><desc>Created with Highstock 5.0.9</desc><defs><clipPath id="highcharts-tnhxuh8-7"><rect x="0" y="0" width="521" height="261" fill="none"></rect></clipPath><clipPath id="highcharts-tnhxuh8-8"><rect x="0" y="0" width="521" height="261" fill="none"></rect></clipPath></defs><rect fill="#ffffff" class="highcharts-background" x="0" y="0" width="600" height="400" rx="0" ry="0"></rect><rect fill="none" class="highcharts-plot-background" x="69" y="45" width="521" height="261"></rect><g class="highcharts-grid highcharts-xaxis-grid "><path fill="none" class="highcharts-grid-line" d="M 94.5 45 L 94.5 306" opacity="1"></path><path fill="none" class="highcharts-grid-line" d="M 120.5 45 L 120.5 306" opacity="1"></path><path fill="none" class="highcharts-grid-line" d="M 146.5 45 L 146.5 306" opacity="1"></path><path fill="none" class="highcharts-grid-line" d="M 172.5 45 L 172.5 306" opacity="1"></path><path fill="none" class="highcharts-grid-line" d="M 198.5 45 L 198.5 306" opacity="1"></path><path fill="none" class="highcharts-grid-line" d="M 224.5 45 L 224.5 306" opacity="1"></path><path fill="none" class="highcharts-grid-line" d="M 250.5 45 L 250.5 306" opacity="1"></path><path fill="none" class="highcharts-grid-line" d="M 276.5 45 L 276.5 306" opacity="1"></path><path fill="none" class="highcharts-grid-line" d="M 302.5 45 L 302.5 306" opacity="1"></path><path fill="none" class="highcharts-grid-line" d="M 329.5 45 L 329.5 306" opacity="1"></path><path fill="none" class="highcharts-grid-line" d="M 355.5 45 L 355.5 306" opacity="1"></path><path fill="none" class="highcharts-grid-line" d="M 381.5 45 L 381.5 306" opacity="1"></path><path fill="none" class="highcharts-grid-line" d="M 407.5 45 L 407.5 306" opacity="1"></path><path fill="none" class="highcharts-grid-line" d="M 433.5 45 L 433.5 306" opacity="1"></path><path fill="none" class="highcharts-grid-line" d="M 459.5 45 L 459.5 306" opacity="1"></path><path fill="none" class="highcharts-grid-line" d="M 485.5 45 L 485.5 306" opacity="1"></path><path fill="none" class="highcharts-grid-line" d="M 511.5 45 L 511.5 306" opacity="1"></path><path fill="none" class="highcharts-grid-line" d="M 537.5 45 L 537.5 306" opacity="1"></path><path fill="none" class="highcharts-grid-line" d="M 563.5 45 L 563.5 306" opacity="1"></path><path fill="none" class="highcharts-grid-line" d="M 589.5 45 L 589.5 306" opacity="1"></path><path fill="none" class="highcharts-grid-line" d="M 68.5 45 L 68.5 306" opacity="1"></path></g><g class="highcharts-grid highcharts-yaxis-grid "><path fill="none" stroke="#e6e6e6" stroke-width="1" class="highcharts-grid-line" d="M 69 306.5 L 590 306.5" opacity="1"></path><path fill="none" stroke="#e6e6e6" stroke-width="1" class="highcharts-grid-line" d="M 69 254.5 L 590 254.5" opacity="1"></path><path fill="none" stroke="#e6e6e6" stroke-width="1" class="highcharts-grid-line" d="M 69 202.5 L 590 202.5" opacity="1"></path><path fill="none" stroke="#e6e6e6" stroke-width="1" class="highcharts-grid-line" d="M 69 149.5 L 590 149.5" opacity="1"></path><path fill="none" stroke="#e6e6e6" stroke-width="1" class="highcharts-grid-line" d="M 69 97.5 L 590 97.5" opacity="1"></path><path fill="none" stroke="#e6e6e6" stroke-width="1" class="highcharts-grid-line" d="M 69 44.5 L 590 44.5" opacity="1"></path></g><rect fill="none" class="highcharts-plot-border" x="69" y="45" width="521" height="261"></rect><g class="highcharts-axis highcharts-xaxis "><path fill="none" class="highcharts-tick" stroke="#ccd6eb" stroke-width="1" d="M 94.5 306 L 94.5 316" opacity="1"></path><path fill="none" class="highcharts-tick" stroke="#ccd6eb" stroke-width="1" d="M 120.5 306 L 120.5 316" opacity="1"></path><path fill="none" class="highcharts-tick" stroke="#ccd6eb" stroke-width="1" d="M 146.5 306 L 146.5 316" opacity="1"></path><path fill="none" class="highcharts-tick" stroke="#ccd6eb" stroke-width="1" d="M 172.5 306 L 172.5 316" opacity="1"></path><path fill="none" class="highcharts-tick" stroke="#ccd6eb" stroke-width="1" d="M 198.5 306 L 198.5 316" opacity="1"></path><path fill="none" class="highcharts-tick" stroke="#ccd6eb" stroke-width="1" d="M 224.5 306 L 224.5 316" opacity="1"></path><path fill="none" class="highcharts-tick" stroke="#ccd6eb" stroke-width="1" d="M 250.5 306 L 250.5 316" opacity="1"></path><path fill="none" class="highcharts-tick" stroke="#ccd6eb" stroke-width="1" d="M 276.5 306 L 276.5 316" opacity="1"></path><path fill="none" class="highcharts-tick" stroke="#ccd6eb" stroke-width="1" d="M 302.5 306 L 302.5 316" opacity="1"></path><path fill="none" class="highcharts-tick" stroke="#ccd6eb" stroke-width="1" d="M 329.5 306 L 329.5 316" opacity="1"></path><path fill="none" class="highcharts-tick" stroke="#ccd6eb" stroke-width="1" d="M 355.5 306 L 355.5 316" opacity="1"></path><path fill="none" class="highcharts-tick" stroke="#ccd6eb" stroke-width="1" d="M 381.5 306 L 381.5 316" opacity="1"></path><path fill="none" class="highcharts-tick" stroke="#ccd6eb" stroke-width="1" d="M 407.5 306 L 407.5 316" opacity="1"></path><path fill="none" class="highcharts-tick" stroke="#ccd6eb" stroke-width="1" d="M 433.5 306 L 433.5 316" opacity="1"></path><path fill="none" class="highcharts-tick" stroke="#ccd6eb" stroke-width="1" d="M 459.5 306 L 459.5 316" opacity="1"></path><path fill="none" class="highcharts-tick" stroke="#ccd6eb" stroke-width="1" d="M 485.5 306 L 485.5 316" opacity="1"></path><path fill="none" class="highcharts-tick" stroke="#ccd6eb" stroke-width="1" d="M 511.5 306 L 511.5 316" opacity="1"></path><path fill="none" class="highcharts-tick" stroke="#ccd6eb" stroke-width="1" d="M 537.5 306 L 537.5 316" opacity="1"></path><path fill="none" class="highcharts-tick" stroke="#ccd6eb" stroke-width="1" d="M 563.5 306 L 563.5 316" opacity="1"></path><path fill="none" class="highcharts-tick" stroke="#ccd6eb" stroke-width="1" d="M 590.5 306 L 590.5 316" opacity="1"></path><path fill="none" class="highcharts-tick" stroke="#ccd6eb" stroke-width="1" d="M 68.5 306 L 68.5 316" opacity="1"></path><path fill="none" class="highcharts-axis-line" stroke="#ccd6eb" stroke-width="1" d="M 69 306.5 L 590 306.5"></path></g><g class="highcharts-axis highcharts-yaxis "><text x="25.75" text-anchor="middle" transform="translate(0,0) rotate(270 25.75 175.5)" class="highcharts-axis-title" style="color:#666666;font-family:arial;font-size:14px;font-weight:normal;font-style:normal;fill:#666666;" y="175.5">Người</text><path fill="none" class="highcharts-axis-line" d="M 69 45 L 69 306"></path></g><g class="highcharts-series-group"><g class="highcharts-series highcharts-series-0 highcharts-line-series highcharts-color-0 " transform="translate(69,45) scale(1 1)" clip-path="url(#highcharts-tnhxuh8-8)"><path fill="none" d="M 13.025 260.99478 L 39.075 256.59432 L 65.125 254.15136 L 91.175 250.4817 L 117.225 246.37878 L 143.275 237.09762 L 169.325 229.36158 L 195.375 220.20048 L 221.425 209.73438 L 247.475 198.63144 L 273.525 185.03334 L 299.575 170.23986000000002 L 325.625 153.34794 L 351.675 132.84378 L 377.725 113.39928 L 403.775 96.66918000000001 L 429.825 78.93162000000001 L 455.875 64.97856000000002 L 481.925 49.31334000000001 L 507.975 36.02844000000002" class="highcharts-graph" stroke="#7cb5ec" stroke-width="2" stroke-linejoin="round" stroke-linecap="round"></path></g><g class="highcharts-markers highcharts-series-0 highcharts-line-series highcharts-color-0 " transform="translate(69,45) scale(1 1)" clip-path="none"><path fill="#7cb5ec" d="M 17 261 A 4 4 0 1 1 16.99999800000017 260.99600000066664 Z" class="highcharts-point highcharts-color-0"></path><path fill="#7cb5ec" d="M 43 257 A 4 4 0 1 1 42.99999800000017 256.99600000066664 Z" class="highcharts-point highcharts-color-0"></path><path fill="#7cb5ec" d="M 69 254 A 4 4 0 1 1 68.99999800000016 253.99600000066667 Z" class="highcharts-point highcharts-color-0"></path><path fill="#7cb5ec" d="M 95 250 A 4 4 0 1 1 94.99999800000016 249.99600000066667 Z" class="highcharts-point highcharts-color-0"></path><path fill="#7cb5ec" d="M 121 246 A 4 4 0 1 1 120.99999800000016 245.99600000066667 Z" class="highcharts-point highcharts-color-0"></path><path fill="#7cb5ec" d="M 147 237 A 4 4 0 1 1 146.99999800000018 236.99600000066667 Z" class="highcharts-point highcharts-color-0"></path><path fill="#7cb5ec" d="M 173 229 A 4 4 0 1 1 172.99999800000018 228.99600000066667 Z" class="highcharts-point highcharts-color-0"></path><path fill="#7cb5ec" d="M 199 220 A 4 4 0 1 1 198.99999800000018 219.99600000066667 Z" class="highcharts-point highcharts-color-0"></path><path fill="#7cb5ec" d="M 225 210 A 4 4 0 1 1 224.99999800000018 209.99600000066667 Z" class="highcharts-point highcharts-color-0"></path><path fill="#7cb5ec" d="M 251 199 A 4 4 0 1 1 250.99999800000018 198.99600000066667 Z" class="highcharts-point highcharts-color-0"></path><path fill="#7cb5ec" d="M 277 185 A 4 4 0 1 1 276.9999980000002 184.99600000066667 Z" class="highcharts-point highcharts-color-0"></path><path fill="#7cb5ec" d="M 303 170 A 4 4 0 1 1 302.9999980000002 169.99600000066667 Z" class="highcharts-point highcharts-color-0"></path><path fill="#7cb5ec" d="M 329 153 A 4 4 0 1 1 328.9999980000002 152.99600000066667 Z" class="highcharts-point highcharts-color-0"></path><path fill="#7cb5ec" d="M 355 133 A 4 4 0 1 1 354.9999980000002 132.99600000066667 Z" class="highcharts-point highcharts-color-0"></path><path fill="#7cb5ec" d="M 381 113 A 4 4 0 1 1 380.9999980000002 112.99600000066667 Z" class="highcharts-point highcharts-color-0"></path><path fill="#7cb5ec" d="M 407 97 A 4 4 0 1 1 406.9999980000002 96.99600000066667 Z" class="highcharts-point highcharts-color-0"></path><path fill="#7cb5ec" d="M 433 79 A 4 4 0 1 1 432.9999980000002 78.99600000066667 Z" class="highcharts-point highcharts-color-0"></path><path fill="#7cb5ec" d="M 459 65 A 4 4 0 1 1 458.9999980000002 64.99600000066667 Z" class="highcharts-point highcharts-color-0"></path><path fill="#7cb5ec" d="M 485 49 A 4 4 0 1 1 484.9999980000002 48.99600000066666 Z" class="highcharts-point highcharts-color-0"></path><path fill="#7cb5ec" d="M 511 36 A 4 4 0 1 1 510.9999980000002 35.99600000066666 Z" class="highcharts-point highcharts-color-0"></path></g><g class="highcharts-series highcharts-series-1 highcharts-line-series highcharts-color-1 " transform="translate(69,45) scale(1 1)" clip-path="url(#highcharts-tnhxuh8-8)"><path fill="none" d="M 13.025 261 L 39.075 260.8695 L 65.125 260.77032 L 91.175 260.70768 L 117.225 260.5824 L 143.275 260.44668 L 169.325 260.31096 L 195.375 260.1126 L 221.425 259.88814 L 247.475 259.64802 L 273.525 259.4079 L 299.575 259.11036 L 325.625 258.77106 L 351.675 258.43176 L 377.725 258.04548 L 403.775 257.66964 L 429.825 257.2416 L 455.875 256.75614 L 481.925 256.2498 L 507.975 255.68604" class="highcharts-graph" stroke="#d50000" stroke-width="2" stroke-linejoin="round" stroke-linecap="round"></path></g><g class="highcharts-markers highcharts-series-1 highcharts-line-series highcharts-color-1 " transform="translate(69,45) scale(1 1)" clip-path="none"><path fill="#d50000" d="M 13 257 L 17 261 13 265 9 261 Z" class="highcharts-point highcharts-color-1"></path><path fill="#d50000" d="M 39 257 L 43 261 39 265 35 261 Z" class="highcharts-point highcharts-color-1"></path><path fill="#d50000" d="M 65 257 L 69 261 65 265 61 261 Z" class="highcharts-point highcharts-color-1"></path><path fill="#d50000" d="M 91 257 L 95 261 91 265 87 261 Z" class="highcharts-point highcharts-color-1"></path><path fill="#d50000" d="M 117 257 L 121 261 117 265 113 261 Z" class="highcharts-point highcharts-color-1"></path><path fill="#d50000" d="M 143 256 L 147 260 143 264 139 260 Z" class="highcharts-point highcharts-color-1"></path><path fill="#d50000" d="M 169 256 L 173 260 169 264 165 260 Z" class="highcharts-point highcharts-color-1"></path><path fill="#d50000" d="M 195 256 L 199 260 195 264 191 260 Z" class="highcharts-point highcharts-color-1"></path><path fill="#d50000" d="M 221 256 L 225 260 221 264 217 260 Z" class="highcharts-point highcharts-color-1"></path><path fill="#d50000" d="M 247 256 L 251 260 247 264 243 260 Z" class="highcharts-point highcharts-color-1"></path><path fill="#d50000" d="M 273 255 L 277 259 273 263 269 259 Z" class="highcharts-point highcharts-color-1"></path><path fill="#d50000" d="M 299 255 L 303 259 299 263 295 259 Z" class="highcharts-point highcharts-color-1"></path><path fill="#d50000" d="M 325 255 L 329 259 325 263 321 259 Z" class="highcharts-point highcharts-color-1"></path><path fill="#d50000" d="M 351 254 L 355 258 351 262 347 258 Z" class="highcharts-point highcharts-color-1"></path><path fill="#d50000" d="M 377 254 L 381 258 377 262 373 258 Z" class="highcharts-point highcharts-color-1"></path><path fill="#d50000" d="M 403 254 L 407 258 403 262 399 258 Z" class="highcharts-point highcharts-color-1"></path><path fill="#d50000" d="M 429 253 L 433 257 429 261 425 257 Z" class="highcharts-point highcharts-color-1"></path><path fill="#d50000" d="M 455 253 L 459 257 455 261 451 257 Z" class="highcharts-point highcharts-color-1"></path><path fill="#d50000" d="M 481 252 L 485 256 481 260 477 256 Z" class="highcharts-point highcharts-color-1"></path><path fill="#d50000" d="M 507 252 L 511 256 507 260 503 256 Z" class="highcharts-point highcharts-color-1"></path></g><g class="highcharts-series highcharts-series-2 highcharts-line-series highcharts-color-2 " transform="translate(69,45) scale(1 1)" clip-path="url(#highcharts-tnhxuh8-8)"><path fill="none" d="M 325.625 257.56524 L 351.675 255.57642 L 377.725 254.87694 L 403.775 252.84114 L 429.825 250.12674 L 455.875 246.9843 L 481.925 243.65915999999999 L 507.975 239.89554" class="highcharts-graph" stroke="#90ed7d" stroke-width="2" stroke-linejoin="round" stroke-linecap="round"></path></g><g class="highcharts-markers highcharts-series-2 highcharts-line-series highcharts-color-2 " transform="translate(69,45) scale(1 1)" clip-path="none"><path fill="#90ed7d" d="M 321 254 L 329 254 329 262 321 262 Z" class="highcharts-point highcharts-color-2"></path><path fill="#90ed7d" d="M 347 252 L 355 252 355 260 347 260 Z" class="highcharts-point highcharts-color-2"></path><path fill="#90ed7d" d="M 373 251 L 381 251 381 259 373 259 Z" class="highcharts-point highcharts-color-2"></path><path fill="#90ed7d" d="M 399 249 L 407 249 407 257 399 257 Z" class="highcharts-point highcharts-color-2"></path><path fill="#90ed7d" d="M 425 246 L 433 246 433 254 425 254 Z" class="highcharts-point highcharts-color-2"></path><path fill="#90ed7d" d="M 451 243 L 459 243 459 251 451 251 Z" class="highcharts-point highcharts-color-2"></path><path fill="#90ed7d" d="M 477 240 L 485 240 485 248 477 248 Z" class="highcharts-point highcharts-color-2"></path><path fill="#90ed7d" d="M 503 236 L 511 236 511 244 503 244 Z" class="highcharts-point highcharts-color-2"></path></g></g><text x="300" text-anchor="middle" class="highcharts-title" style="color:#333333;font-size:18px;font-family:arial;fill:#333333;" y="24"><tspan>Dịch virus corona</tspan></text><g class="highcharts-data-labels highcharts-series-0 highcharts-line-series highcharts-color-0 " transform="translate(69,45) scale(1 1)" opacity="1"><g class="highcharts-label highcharts-data-label highcharts-data-label-color-0 " transform="translate(6,241)"><text x="5" style="font-size:9px;font-weight:bold;color:#000000;text-outline:1px 1px contrast;fill:#000000;" y="15"><tspan x="5" y="15" class="highcharts-text-outline" fill="#FFFFFF" stroke="#FFFFFF" stroke-width="2px" stroke-linejoin="round" style="">1</tspan><tspan x="5" y="15">1</tspan></text></g><g class="highcharts-label highcharts-data-label highcharts-data-label-color-0 " transform="translate(26,237)"><text x="5" style="font-size:9px;font-weight:bold;color:#000000;text-outline:1px 1px contrast;fill:#000000;" y="15"><tspan x="5" y="15" class="highcharts-text-outline" fill="#FFFFFF" stroke="#FFFFFF" stroke-width="2px" stroke-linejoin="round" style="">844</tspan><tspan x="5" y="15">844</tspan></text></g><g class="highcharts-label highcharts-data-label highcharts-data-label-color-0 " transform="translate(49,234)"><text x="5" style="font-size:9px;font-weight:bold;color:#000000;text-outline:1px 1px contrast;fill:#000000;" y="15"><tspan x="5" y="15" class="highcharts-text-outline" fill="#FFFFFF" stroke="#FFFFFF" stroke-width="2px" stroke-linejoin="round" style="">1 312</tspan><tspan x="5" y="15">1 312</tspan></text></g><g class="highcharts-label highcharts-data-label highcharts-data-label-color-0 " transform="translate(75,230)"><text x="5" style="font-size:9px;font-weight:bold;color:#000000;text-outline:1px 1px contrast;fill:#000000;" y="15"><tspan x="5" y="15" class="highcharts-text-outline" fill="#FFFFFF" stroke="#FFFFFF" stroke-width="2px" stroke-linejoin="round">2 015</tspan><tspan x="5" y="15">2 015</tspan></text></g><g class="highcharts-label highcharts-data-label highcharts-data-label-color-0 " transform="translate(101,226)"><text x="5" style="font-size:9px;font-weight:bold;color:#000000;text-outline:1px 1px contrast;fill:#000000;" y="15"><tspan x="5" y="15" class="highcharts-text-outline" fill="#FFFFFF" stroke="#FFFFFF" stroke-width="2px" stroke-linejoin="round">2 801</tspan><tspan x="5" y="15">2 801</tspan></text></g><g class="highcharts-label highcharts-data-label highcharts-data-label-color-0 " transform="translate(127,217)"><text x="5" style="font-size:9px;font-weight:bold;color:#000000;text-outline:1px 1px contrast;fill:#000000;" y="15"><tspan x="5" y="15" class="highcharts-text-outline" fill="#FFFFFF" stroke="#FFFFFF" stroke-width="2px" stroke-linejoin="round">4 579</tspan><tspan x="5" y="15">4 579</tspan></text></g><g class="highcharts-label highcharts-data-label highcharts-data-label-color-0 " transform="translate(153,209)"><text x="5" style="font-size:9px;font-weight:bold;color:#000000;text-outline:1px 1px contrast;fill:#000000;" y="15"><tspan x="5" y="15" class="highcharts-text-outline" fill="#FFFFFF" stroke="#FFFFFF" stroke-width="2px" stroke-linejoin="round">6 061</tspan><tspan x="5" y="15">6 061</tspan></text></g><g class="highcharts-label highcharts-data-label highcharts-data-label-color-0 " transform="translate(179,200)"><text x="5" style="font-size:9px;font-weight:bold;color:#000000;text-outline:1px 1px contrast;fill:#000000;" y="15"><tspan x="5" y="15" class="highcharts-text-outline" fill="#FFFFFF" stroke="#FFFFFF" stroke-width="2px" stroke-linejoin="round">7 816</tspan><tspan x="5" y="15">7 816</tspan></text></g><g class="highcharts-label highcharts-data-label highcharts-data-label-color-0 " transform="translate(205,190)"><text x="5" style="font-size:9px;font-weight:bold;color:#000000;text-outline:1px 1px contrast;fill:#000000;" y="15"><tspan x="5" y="15" class="highcharts-text-outline" fill="#FFFFFF" stroke="#FFFFFF" stroke-width="2px" stroke-linejoin="round">9 821</tspan><tspan x="5" y="15">9 821</tspan></text></g><g class="highcharts-label highcharts-data-label highcharts-data-label-color-0 " transform="translate(229,179)"><text x="5" style="font-size:9px;font-weight:bold;color:#000000;text-outline:1px 1px contrast;fill:#000000;" y="15"><tspan x="5" y="15" class="highcharts-text-outline" fill="#FFFFFF" stroke="#FFFFFF" stroke-width="2px" stroke-linejoin="round" style="">11 948</tspan><tspan x="5" y="15">11 948</tspan></text></g><g class="highcharts-label highcharts-data-label highcharts-data-label-color-0 " transform="translate(255,165)"><text x="5" style="font-size:9px;font-weight:bold;color:#000000;text-outline:1px 1px contrast;fill:#000000;" y="15"><tspan x="5" y="15" class="highcharts-text-outline" fill="#FFFFFF" stroke="#FFFFFF" stroke-width="2px" stroke-linejoin="round">14 553</tspan><tspan x="5" y="15">14 553</tspan></text></g><g class="highcharts-label highcharts-data-label highcharts-data-label-color-0 " transform="translate(281,150)"><text x="5" style="font-size:9px;font-weight:bold;color:#000000;text-outline:1px 1px contrast;fill:#000000;" y="15"><tspan x="5" y="15" class="highcharts-text-outline" fill="#FFFFFF" stroke="#FFFFFF" stroke-width="2px" stroke-linejoin="round">17 387</tspan><tspan x="5" y="15">17 387</tspan></text></g><g class="highcharts-label highcharts-data-label highcharts-data-label-color-0 " transform="translate(307,133)"><text x="5" style="font-size:9px;font-weight:bold;color:#000000;text-outline:1px 1px contrast;fill:#000000;" y="15"><tspan x="5" y="15" class="highcharts-text-outline" fill="#FFFFFF" stroke="#FFFFFF" stroke-width="2px" stroke-linejoin="round">20 623</tspan><tspan x="5" y="15">20 623</tspan></text></g><g class="highcharts-label highcharts-data-label highcharts-data-label-color-0 " transform="translate(333,113)"><text x="5" style="font-size:9px;font-weight:bold;color:#000000;text-outline:1px 1px contrast;fill:#000000;" y="15"><tspan x="5" y="15" class="highcharts-text-outline" fill="#FFFFFF" stroke="#FFFFFF" stroke-width="2px" stroke-linejoin="round">24 551</tspan><tspan x="5" y="15">24 551</tspan></text></g><g class="highcharts-label highcharts-data-label highcharts-data-label-color-0 " transform="translate(359,93)"><text x="5" style="font-size:9px;font-weight:bold;color:#000000;text-outline:1px 1px contrast;fill:#000000;" y="15"><tspan x="5" y="15" class="highcharts-text-outline" fill="#FFFFFF" stroke="#FFFFFF" stroke-width="2px" stroke-linejoin="round">28 276</tspan><tspan x="5" y="15">28 276</tspan></text></g><g class="highcharts-label highcharts-data-label highcharts-data-label-color-0 " transform="translate(385,77)"><text x="5" style="font-size:9px;font-weight:bold;color:#000000;text-outline:1px 1px contrast;fill:#000000;" y="15"><tspan x="5" y="15" class="highcharts-text-outline" fill="#FFFFFF" stroke="#FFFFFF" stroke-width="2px" stroke-linejoin="round">31 481</tspan><tspan x="5" y="15">31 481</tspan></text></g><g class="highcharts-label highcharts-data-label highcharts-data-label-color-0 " transform="translate(411,59)"><text x="5" style="font-size:9px;font-weight:bold;color:#000000;text-outline:1px 1px contrast;fill:#000000;" y="15"><tspan x="5" y="15" class="highcharts-text-outline" fill="#FFFFFF" stroke="#FFFFFF" stroke-width="2px" stroke-linejoin="round">34 879</tspan><tspan x="5" y="15">34 879</tspan></text></g><g class="highcharts-label highcharts-data-label highcharts-data-label-color-0 " transform="translate(437,45)"><text x="5" style="font-size:9px;font-weight:bold;color:#000000;text-outline:1px 1px contrast;fill:#000000;" y="15"><tspan x="5" y="15" class="highcharts-text-outline" fill="#FFFFFF" stroke="#FFFFFF" stroke-width="2px" stroke-linejoin="round">37 552</tspan><tspan x="5" y="15">37 552</tspan></text></g><g class="highcharts-label highcharts-data-label highcharts-data-label-color-0 " transform="translate(463,29)"><text x="5" style="font-size:9px;font-weight:bold;color:#000000;text-outline:1px 1px contrast;fill:#000000;" y="15"><tspan x="5" y="15" class="highcharts-text-outline" fill="#FFFFFF" stroke="#FFFFFF" stroke-width="2px" stroke-linejoin="round">40 553</tspan><tspan x="5" y="15">40 553</tspan></text></g><g class="highcharts-label highcharts-data-label highcharts-data-label-color-0 " transform="translate(489,16)"><text x="5" style="font-size:9px;font-weight:bold;color:#000000;text-outline:1px 1px contrast;fill:#000000;" y="15"><tspan x="5" y="15" class="highcharts-text-outline" fill="#FFFFFF" stroke="#FFFFFF" stroke-width="2px" stroke-linejoin="round">43 098</tspan><tspan x="5" y="15">43 098</tspan></text></g></g><g class="highcharts-data-labels highcharts-series-1 highcharts-line-series highcharts-color-1 " transform="translate(69,45) scale(1 1)" opacity="1"><g class="highcharts-label highcharts-data-label highcharts-data-label-color-1 " transform="translate(6,241)" opacity="0" visibility="hidden"><text x="5" style="font-size:9px;font-weight:bold;color:#000000;text-outline:1px 1px contrast;fill:#000000;" y="15"><tspan x="5" y="15" class="highcharts-text-outline" fill="#FFFFFF" stroke="#FFFFFF" stroke-width="2px" stroke-linejoin="round">0</tspan><tspan x="5" y="15">0</tspan></text></g><g class="highcharts-label highcharts-data-label highcharts-data-label-color-1 " transform="translate(29,241)" opacity="0" visibility="hidden"><text x="5" style="font-size:9px;font-weight:bold;color:#000000;text-outline:1px 1px contrast;fill:#000000;" y="15"><tspan x="5" y="15" class="highcharts-text-outline" fill="#FFFFFF" stroke="#FFFFFF" stroke-width="2px" stroke-linejoin="round" style="">25</tspan><tspan x="5" y="15">25</tspan></text></g><g class="highcharts-label highcharts-data-label highcharts-data-label-color-1 " transform="translate(55,241)" opacity="0" visibility="hidden"><text x="5" style="font-size:9px;font-weight:bold;color:#000000;text-outline:1px 1px contrast;fill:#000000;" y="15"><tspan x="5" y="15" class="highcharts-text-outline" fill="#FFFFFF" stroke="#FFFFFF" stroke-width="2px" stroke-linejoin="round">44</tspan><tspan x="5" y="15">44</tspan></text></g><g class="highcharts-label highcharts-data-label highcharts-data-label-color-1 " transform="translate(81,241)"><text x="5" style="font-size:9px;font-weight:bold;color:#000000;text-outline:1px 1px contrast;fill:#000000;" y="15"><tspan x="5" y="15" class="highcharts-text-outline" fill="#FFFFFF" stroke="#FFFFFF" stroke-width="2px" stroke-linejoin="round">56</tspan><tspan x="5" y="15">56</tspan></text></g><g class="highcharts-label highcharts-data-label highcharts-data-label-color-1 " transform="translate(107,241)"><text x="5" style="font-size:9px;font-weight:bold;color:#000000;text-outline:1px 1px contrast;fill:#000000;" y="15"><tspan x="5" y="15" class="highcharts-text-outline" fill="#FFFFFF" stroke="#FFFFFF" stroke-width="2px" stroke-linejoin="round">80</tspan><tspan x="5" y="15">80</tspan></text></g><g class="highcharts-label highcharts-data-label highcharts-data-label-color-1 " transform="translate(130,240)"><text x="5" style="font-size:9px;font-weight:bold;color:#000000;text-outline:1px 1px contrast;fill:#000000;" y="15"><tspan x="5" y="15" class="highcharts-text-outline" fill="#FFFFFF" stroke="#FFFFFF" stroke-width="2px" stroke-linejoin="round">106</tspan><tspan x="5" y="15">106</tspan></text></g><g class="highcharts-label highcharts-data-label highcharts-data-label-color-1 " transform="translate(156,240)"><text x="5" style="font-size:9px;font-weight:bold;color:#000000;text-outline:1px 1px contrast;fill:#000000;" y="15"><tspan x="5" y="15" class="highcharts-text-outline" fill="#FFFFFF" stroke="#FFFFFF" stroke-width="2px" stroke-linejoin="round">132</tspan><tspan x="5" y="15">132</tspan></text></g><g class="highcharts-label highcharts-data-label highcharts-data-label-color-1 " transform="translate(182,240)"><text x="5" style="font-size:9px;font-weight:bold;color:#000000;text-outline:1px 1px contrast;fill:#000000;" y="15"><tspan x="5" y="15" class="highcharts-text-outline" fill="#FFFFFF" stroke="#FFFFFF" stroke-width="2px" stroke-linejoin="round">170</tspan><tspan x="5" y="15">170</tspan></text></g><g class="highcharts-label highcharts-data-label highcharts-data-label-color-1 " transform="translate(208,240)"><text x="5" style="font-size:9px;font-weight:bold;color:#000000;text-outline:1px 1px contrast;fill:#000000;" y="15"><tspan x="5" y="15" class="highcharts-text-outline" fill="#FFFFFF" stroke="#FFFFFF" stroke-width="2px" stroke-linejoin="round">213</tspan><tspan x="5" y="15">213</tspan></text></g><g class="highcharts-label highcharts-data-label highcharts-data-label-color-1 " transform="translate(234,240)"><text x="5" style="font-size:9px;font-weight:bold;color:#000000;text-outline:1px 1px contrast;fill:#000000;" y="15"><tspan x="5" y="15" class="highcharts-text-outline" fill="#FFFFFF" stroke="#FFFFFF" stroke-width="2px" stroke-linejoin="round">259</tspan><tspan x="5" y="15">259</tspan></text></g><g class="highcharts-label highcharts-data-label highcharts-data-label-color-1 " transform="translate(261,239)"><text x="5" style="font-size:9px;font-weight:bold;color:#000000;text-outline:1px 1px contrast;fill:#000000;" y="15"><tspan x="5" y="15" class="highcharts-text-outline" fill="#FFFFFF" stroke="#FFFFFF" stroke-width="2px" stroke-linejoin="round">305</tspan><tspan x="5" y="15">305</tspan></text></g><g class="highcharts-label highcharts-data-label highcharts-data-label-color-1 " transform="translate(287,239)"><text x="5" style="font-size:9px;font-weight:bold;color:#000000;text-outline:1px 1px contrast;fill:#000000;" y="15"><tspan x="5" y="15" class="highcharts-text-outline" fill="#FFFFFF" stroke="#FFFFFF" stroke-width="2px" stroke-linejoin="round">362</tspan><tspan x="5" y="15">362</tspan></text></g><g class="highcharts-label highcharts-data-label highcharts-data-label-color-1 " transform="translate(313,239)"><text x="5" style="font-size:9px;font-weight:bold;color:#000000;text-outline:1px 1px contrast;fill:#000000;" y="15"><tspan x="5" y="15" class="highcharts-text-outline" fill="#FFFFFF" stroke="#FFFFFF" stroke-width="2px" stroke-linejoin="round">427</tspan><tspan x="5" y="15">427</tspan></text></g><g class="highcharts-label highcharts-data-label highcharts-data-label-color-1 " transform="translate(339,238)"><text x="5" style="font-size:9px;font-weight:bold;color:#000000;text-outline:1px 1px contrast;fill:#000000;" y="15"><tspan x="5" y="15" class="highcharts-text-outline" fill="#FFFFFF" stroke="#FFFFFF" stroke-width="2px" stroke-linejoin="round">492</tspan><tspan x="5" y="15">492</tspan></text></g><g class="highcharts-label highcharts-data-label highcharts-data-label-color-1 " transform="translate(365,238)"><text x="5" style="font-size:9px;font-weight:bold;color:#000000;text-outline:1px 1px contrast;fill:#000000;" y="15"><tspan x="5" y="15" class="highcharts-text-outline" fill="#FFFFFF" stroke="#FFFFFF" stroke-width="2px" stroke-linejoin="round">566</tspan><tspan x="5" y="15">566</tspan></text></g><g class="highcharts-label highcharts-data-label highcharts-data-label-color-1 " transform="translate(391,238)"><text x="5" style="font-size:9px;font-weight:bold;color:#000000;text-outline:1px 1px contrast;fill:#000000;" y="15"><tspan x="5" y="15" class="highcharts-text-outline" fill="#FFFFFF" stroke="#FFFFFF" stroke-width="2px" stroke-linejoin="round">638</tspan><tspan x="5" y="15">638</tspan></text></g><g class="highcharts-label highcharts-data-label highcharts-data-label-color-1 " transform="translate(417,237)"><text x="5" style="font-size:9px;font-weight:bold;color:#000000;text-outline:1px 1px contrast;fill:#000000;" y="15"><tspan x="5" y="15" class="highcharts-text-outline" fill="#FFFFFF" stroke="#FFFFFF" stroke-width="2px" stroke-linejoin="round">720</tspan><tspan x="5" y="15">720</tspan></text></g><g class="highcharts-label highcharts-data-label highcharts-data-label-color-1 " transform="translate(443,237)"><text x="5" style="font-size:9px;font-weight:bold;color:#000000;text-outline:1px 1px contrast;fill:#000000;" y="15"><tspan x="5" y="15" class="highcharts-text-outline" fill="#FFFFFF" stroke="#FFFFFF" stroke-width="2px" stroke-linejoin="round">813</tspan><tspan x="5" y="15">813</tspan></text></g><g class="highcharts-label highcharts-data-label highcharts-data-label-color-1 " transform="translate(469,236)"><text x="5" style="font-size:9px;font-weight:bold;color:#000000;text-outline:1px 1px contrast;fill:#000000;" y="15"><tspan x="5" y="15" class="highcharts-text-outline" fill="#FFFFFF" stroke="#FFFFFF" stroke-width="2px" stroke-linejoin="round">910</tspan><tspan x="5" y="15">910</tspan></text></g><g class="highcharts-label highcharts-data-label highcharts-data-label-color-1 " transform="translate(492,236)"><text x="5" style="font-size:9px;font-weight:bold;color:#000000;text-outline:1px 1px contrast;fill:#000000;" y="15"><tspan x="5" y="15" class="highcharts-text-outline" fill="#FFFFFF" stroke="#FFFFFF" stroke-width="2px" stroke-linejoin="round">1 018</tspan><tspan x="5" y="15">1 018</tspan></text></g></g><g class="highcharts-data-labels highcharts-series-2 highcharts-line-series highcharts-color-2 " transform="translate(69,45) scale(1 1)" opacity="1"><g class="highcharts-label highcharts-data-label highcharts-data-label-color-2 " transform="translate(313,238)" opacity="0" visibility="hidden"><text x="5" style="font-size:9px;font-weight:bold;color:#000000;text-outline:1px 1px contrast;fill:#000000;" y="15"><tspan x="5" y="15" class="highcharts-text-outline" fill="#FFFFFF" stroke="#FFFFFF" stroke-width="2px" stroke-linejoin="round">658</tspan><tspan x="5" y="15">658</tspan></text></g><g class="highcharts-label highcharts-data-label highcharts-data-label-color-2 " transform="translate(335,236)" opacity="0" visibility="hidden"><text x="5" style="font-size:9px;font-weight:bold;color:#000000;text-outline:1px 1px contrast;fill:#000000;" y="15"><tspan x="5" y="15" class="highcharts-text-outline" fill="#FFFFFF" stroke="#FFFFFF" stroke-width="2px" stroke-linejoin="round">1 039</tspan><tspan x="5" y="15">1 039</tspan></text></g><g class="highcharts-label highcharts-data-label highcharts-data-label-color-2 " transform="translate(361,235)" opacity="0" visibility="hidden"><text x="5" style="font-size:9px;font-weight:bold;color:#000000;text-outline:1px 1px contrast;fill:#000000;" y="15"><tspan x="5" y="15" class="highcharts-text-outline" fill="#FFFFFF" stroke="#FFFFFF" stroke-width="2px" stroke-linejoin="round">1 173</tspan><tspan x="5" y="15">1 173</tspan></text></g><g class="highcharts-label highcharts-data-label highcharts-data-label-color-2 " transform="translate(388,233)" opacity="0" visibility="hidden"><text x="5" style="font-size:9px;font-weight:bold;color:#000000;text-outline:1px 1px contrast;fill:#000000;" y="15"><tspan x="5" y="15" class="highcharts-text-outline" fill="#FFFFFF" stroke="#FFFFFF" stroke-width="2px" stroke-linejoin="round">1 563</tspan><tspan x="5" y="15">1 563</tspan></text></g><g class="highcharts-label highcharts-data-label highcharts-data-label-color-2 " transform="translate(414,230)" opacity="0" visibility="hidden"><text x="5" style="font-size:9px;font-weight:bold;color:#000000;text-outline:1px 1px contrast;fill:#000000;" y="15"><tspan x="5" y="15" class="highcharts-text-outline" fill="#FFFFFF" stroke="#FFFFFF" stroke-width="2px" stroke-linejoin="round">2 083</tspan><tspan x="5" y="15">2 083</tspan></text></g><g class="highcharts-label highcharts-data-label highcharts-data-label-color-2 " transform="translate(440,227)" opacity="0" visibility="hidden"><text x="5" style="font-size:9px;font-weight:bold;color:#000000;text-outline:1px 1px contrast;fill:#000000;" y="15"><tspan x="5" y="15" class="highcharts-text-outline" fill="#FFFFFF" stroke="#FFFFFF" stroke-width="2px" stroke-linejoin="round">2 685</tspan><tspan x="5" y="15">2 685</tspan></text></g><g class="highcharts-label highcharts-data-label highcharts-data-label-color-2 " transform="translate(466,224)"><text x="5" style="font-size:9px;font-weight:bold;color:#000000;text-outline:1px 1px contrast;fill:#000000;" y="15"><tspan x="5" y="15" class="highcharts-text-outline" fill="#FFFFFF" stroke="#FFFFFF" stroke-width="2px" stroke-linejoin="round">3 322</tspan><tspan x="5" y="15">3 322</tspan></text></g><g class="highcharts-label highcharts-data-label highcharts-data-label-color-2 " transform="translate(492,220)"><text x="5" style="font-size:9px;font-weight:bold;color:#000000;text-outline:1px 1px contrast;fill:#000000;" y="15"><tspan x="5" y="15" class="highcharts-text-outline" fill="#FFFFFF" stroke="#FFFFFF" stroke-width="2px" stroke-linejoin="round">4 043</tspan><tspan x="5" y="15">4 043</tspan></text></g></g><g class="highcharts-legend" transform="translate(195,359)"><rect fill="none" class="highcharts-legend-box" rx="0" ry="0" x="0" y="0" width="210" height="26" visibility="visible"></rect><g><g><g class="highcharts-legend-item highcharts-line-series highcharts-color-0 highcharts-series-0" transform="translate(8,3)"><path fill="none" d="M 0 11 L 16 11" class="highcharts-graph" stroke="#7cb5ec" stroke-width="2"></path><path fill="#7cb5ec" d="M 12 11 A 4 4 0 1 1 11.999998000000167 10.996000000666664 Z" class="highcharts-point"></path><text x="21" style="color:#333333;font-size:12px;font-weight:bold;cursor:pointer;fill:#333333;" text-anchor="start" y="15">Nhiễm</text></g><g class="highcharts-legend-item highcharts-line-series highcharts-color-1 highcharts-series-1" transform="translate(86.015625,3)"><path fill="none" d="M 0 11 L 16 11" class="highcharts-graph" stroke="#d50000" stroke-width="2"></path><path fill="#d50000" d="M 8 7 L 12 11 8 15 4 11 Z" class="highcharts-point"></path><text x="21" y="15" style="color:#333333;font-size:12px;font-weight:bold;cursor:pointer;fill:#333333;" text-anchor="start">Chết</text></g><g class="highcharts-legend-item highcharts-line-series highcharts-color-2 highcharts-series-2" transform="translate(154.6875,3)"><path fill="none" d="M 0 11 L 16 11" class="highcharts-graph" stroke="#90ed7d" stroke-width="2"></path><path fill="#90ed7d" d="M 4 7 L 12 7 12 15 4 15 Z" class="highcharts-point"></path><text x="21" y="15" style="color:#333333;font-size:12px;font-weight:bold;cursor:pointer;fill:#333333;" text-anchor="start">Khỏi</text></g></g></g></g><g class="highcharts-axis-labels highcharts-xaxis-labels "><text x="84.61772486435066" style="color:#666666;cursor:default;font-size:11px;fill:#666666;" text-anchor="end" transform="translate(0,0) rotate(-45 84.61772486435066 322)" y="322" opacity="1"><tspan>Dec 8</tspan></text><text x="110.66772486435066" style="color:#666666;cursor:default;font-size:11px;fill:#666666;" text-anchor="end" transform="translate(0,0) rotate(-45 110.66772486435066 322)" y="322" opacity="1"><tspan>Jan 24</tspan></text><text x="136.71772486435069" style="color:#666666;cursor:default;font-size:11px;fill:#666666;" text-anchor="end" transform="translate(0,0) rotate(-45 136.71772486435069 322)" y="322" opacity="1"><tspan>Jan 25</tspan></text><text x="162.76772486435067" style="color:#666666;cursor:default;font-size:11px;fill:#666666;" text-anchor="end" transform="translate(0,0) rotate(-45 162.76772486435067 322)" y="322" opacity="1"><tspan>Jan 26</tspan></text><text x="188.81772486435068" style="color:#666666;cursor:default;font-size:11px;fill:#666666;" text-anchor="end" transform="translate(0,0) rotate(-45 188.81772486435068 322)" y="322" opacity="1"><tspan>Jan 27</tspan></text><text x="214.8677248643507" style="color:#666666;cursor:default;font-size:11px;fill:#666666;" text-anchor="end" transform="translate(0,0) rotate(-45 214.8677248643507 322)" y="322" opacity="1"><tspan>Jan 28</tspan></text><text x="240.9177248643507" style="color:#666666;cursor:default;font-size:11px;fill:#666666;" text-anchor="end" transform="translate(0,0) rotate(-45 240.9177248643507 322)" y="322" opacity="1"><tspan>Jan 29</tspan></text><text x="266.96772486435066" style="color:#666666;cursor:default;font-size:11px;fill:#666666;" text-anchor="end" transform="translate(0,0) rotate(-45 266.96772486435066 322)" y="322" opacity="1"><tspan>Jan 30</tspan></text><text x="293.0177248643507" style="color:#666666;cursor:default;font-size:11px;fill:#666666;" text-anchor="end" transform="translate(0,0) rotate(-45 293.0177248643507 322)" y="322" opacity="1"><tspan>Jan 31</tspan></text><text x="319.0677248643507" style="color:#666666;cursor:default;font-size:11px;fill:#666666;" text-anchor="end" transform="translate(0,0) rotate(-45 319.0677248643507 322)" y="322" opacity="1"><tspan>Feb 1</tspan></text><text x="345.1177248643507" style="color:#666666;cursor:default;font-size:11px;fill:#666666;" text-anchor="end" transform="translate(0,0) rotate(-45 345.1177248643507 322)" y="322" opacity="1"><tspan>Feb 2</tspan></text><text x="371.16772486435065" style="color:#666666;cursor:default;font-size:11px;fill:#666666;" text-anchor="end" transform="translate(0,0) rotate(-45 371.16772486435065 322)" y="322" opacity="1"><tspan>Feb 3</tspan></text><text x="397.21772486435066" style="color:#666666;cursor:default;font-size:11px;fill:#666666;" text-anchor="end" transform="translate(0,0) rotate(-45 397.21772486435066 322)" y="322" opacity="1"><tspan>Feb 4</tspan></text><text x="423.26772486435067" style="color:#666666;cursor:default;font-size:11px;fill:#666666;" text-anchor="end" transform="translate(0,0) rotate(-45 423.26772486435067 322)" y="322" opacity="1"><tspan>Feb 5</tspan></text><text x="449.3177248643507" style="color:#666666;cursor:default;font-size:11px;fill:#666666;" text-anchor="end" transform="translate(0,0) rotate(-45 449.3177248643507 322)" y="322" opacity="1"><tspan>Feb 6</tspan></text><text x="475.3677248643507" style="color:#666666;cursor:default;font-size:11px;fill:#666666;" text-anchor="end" transform="translate(0,0) rotate(-45 475.3677248643507 322)" y="322" opacity="1"><tspan>Feb 7</tspan></text><text x="501.4177248643507" style="color:#666666;cursor:default;font-size:11px;fill:#666666;" text-anchor="end" transform="translate(0,0) rotate(-45 501.4177248643507 322)" y="322" opacity="1"><tspan>Feb 8</tspan></text><text x="527.4677248643507" style="color:#666666;cursor:default;font-size:11px;fill:#666666;" text-anchor="end" transform="translate(0,0) rotate(-45 527.4677248643507 322)" y="322" opacity="1"><tspan>Feb 9</tspan></text><text x="553.5177248643507" style="color:#666666;cursor:default;font-size:11px;fill:#666666;" text-anchor="end" transform="translate(0,0) rotate(-45 553.5177248643507 322)" y="322" opacity="1"><tspan>Feb 10</tspan></text><text x="579.5677248643507" style="color:#666666;cursor:default;font-size:11px;fill:#666666;" text-anchor="end" transform="translate(0,0) rotate(-45 579.5677248643507 322)" y="322" opacity="1"><tspan>Feb 11</tspan></text></g><g class="highcharts-axis-labels highcharts-yaxis-labels "><text x="54" style="color:#666666;cursor:default;font-size:11px;fill:#666666;" text-anchor="end" transform="translate(0,0)" y="311" opacity="1"><tspan>0</tspan></text><text x="54" style="color:#666666;cursor:default;font-size:11px;fill:#666666;" text-anchor="end" transform="translate(0,0)" y="259" opacity="1"><tspan>10k</tspan></text><text x="54" style="color:#666666;cursor:default;font-size:11px;fill:#666666;" text-anchor="end" transform="translate(0,0)" y="207" opacity="1"><tspan>20k</tspan></text><text x="54" style="color:#666666;cursor:default;font-size:11px;fill:#666666;" text-anchor="end" transform="translate(0,0)" y="154" opacity="1"><tspan>30k</tspan></text><text x="54" style="color:#666666;cursor:default;font-size:11px;fill:#666666;" text-anchor="end" transform="translate(0,0)" y="102" opacity="1"><tspan>40k</tspan></text><text x="54" style="color:#666666;cursor:default;font-size:11px;fill:#666666;" text-anchor="end" transform="translate(0,0)" y="50" opacity="1"><tspan>50k</tspan></text></g></svg>