<?xml version="1.0" encoding="UTF-8" standalone="no"?>
<svg height="373.45099" viewBox="0 0 262 373.451" width="262" xmlns="http://www.w3.org/2000/svg">
   <g transform="scale(.70829967)">
      <path d="m360 213.26v-184.26c0-14-10.17-29-29-29h-302c-14 0-29 10.17-29 29v224.75a29.33 29.33 0 0 0  .19 3.25c-2.9 71.76 32.67 123.29 63.3 154.07a180.64 180.64 0 0 0 21.37 20.08c0 .61 0 1.22 0 1.84 0 52 43 94.26 95.9 94.26 47 0 86.25-33.43 94.37-77.38 34.57-24.45 79.46-69.81 92.19-145.35 5.78-34.39 1.2-65.37-7.32-91.26z" fill="#fff"/>
      <path d="m341.33 83.43h1.89a3 3 0 0 0 1.84-.4 1.38 1.38 0 0 0  .25-1.83 1.4 1.4 0 0 0-.66-.5 4.8 4.8 0 0 0-1.55-.17h-1.77zm-1.55 5.41v-9.61h3.31a8 8 0 0 1 2.45.27 2.42 2.42 0 0 1  1.21.93 2.52 2.52 0 0 1  .44 1.41 2.56 2.56 0 0 1-.75 1.83 3 3 0 0 1-2 .88 2.45 2.45 0 0 1  .81.51 10.83 10.83 0 0 1  1.42 1.9l1.18 1.88h-1.85l-.85-1.51a7.8 7.8 0 0 0-1.62-2.24 2 2 0 0 0-1.24-.33h-.92v4.08zm3.92-12.39a7.64 7.64 0 0 0-3.66 1 7 7 0 0 0-2.79 2.76 7.42 7.42 0 0 0  0 7.44 7 7 0 0 0  2.75 2.72 7.49 7.49 0 0 0  7.41 0 7 7 0 0 0  2.76-2.76 7.48 7.48 0 0 0  0-7.44 7 7 0 0 0-2.79-2.76 7.64 7.64 0 0 0-3.66-1m0-1.48a9.18 9.18 0 0 1 4.4 1.15 8.17 8.17 0 0 1  3.33 3.31 9 9 0 0 1  0 8.92 8.28 8.28 0 0 1-3.3 3.31 9 9 0 0 1-8.89 0 8.37 8.37 0 0 1-3.26-3.27 8.89 8.89 0 0 1  0-8.92 8.19 8.19 0 0 1  3.34-3.31 9.14 9.14 0 0 1  4.36-1.12" fill="#005daa"/>
      <path d="m336.34 274.7a54.46 54.46 0 0 0  .69-5.83q-.34 2.95-.69 5.83z" fill="#005daa"/>
      <path d="m93.6 393.62a181.87 181.87 0 0 1-52-53.38c-27.47-43.72-29.35-85.05-29.35-85.05-4.25 81.19 43.27 134.91 74.11 160.99a92.5 92.5 0 0 1 7.24-22.56z" fill="#005daa"/>
      <path d="m218.51 373.92c6 12.72 6.19 15.79 6.19 15.79 0 0 5.89-.51 18.27 5.57 9.86 4.85 11.77 7.74 11.77 7.74 0 0 3-1.54 3.09-6.19.25-12.88-.3-15.17-.92-16.72-.62-1.55-15.49-17.34-23.23-20.11-7.74-2.77-25.39-1.24-25.39-1.24 0 0 4.87 3.79 10.22 15.16z" fill="#005daa"/>
      <path d="m263.72 439.56c0 0-1.19 5.26-9.29 14.24-6.41 7.11-10.53 8.05-10.53 8.05 0 0 .85 4-2.17 16.42-2.64 10.85-5.88 15.79-5.88 15.79a38.57 38.57 0 0 0 18-7.43c8.36-6.51 16.1-26.32 16.72-29.42.62-3.1-6.85-17.65-6.85-17.65z" fill="#005daa"/>
      <path d="m186.31 504.59c-10.57-5.13-13-10.22-13-10.22 0 0-4.37 5.23-17.34 7.74a32.41 32.41 0 0 1-14.24-.62c0 0 4.64 13 9.6 17.34 4.96 4.34 33.13 6.5 37.46 4.95 4.33-1.55 20.44-13.93 20.44-13.93 0 0-8.71 1.63-22.92-5.26z" fill="#005daa"/>
      <path d="m108 429.16c-6.45-12.39-6.81-16.85-6.81-16.85 0 0-12.08 18-12.69 22.3-.61 4.3-1.25 22.29 6.5 31.89a45.59 45.59 0 0 0 18.89 13.31c0 0-1.64-4.44-.22-19.61 1.31-14.05 5.17-16.61 5.17-16.61 0 0-3.62-.53-10.84-14.43z" fill="#005daa"/>
      <path d="m155 376.08c0 0 2.14-5.17 12.08-13.31 7.83-6.43 13.31-7.74 13.31-7.74l-18.88-9.91c0 0-7.95.06-19.82 4.64-14 5.42-18 11.15-19.2 12.39-1.2 1.24 0 18.58 0 18.58a45.47 45.47 0 0 1 16.41-4c13.45-1 16.1-.65 16.1-.65z" fill="#005daa"/>
      <path d="m216 427.48c-.49-8.75-2.29-14.29-3.79-17.5l8.57-14.12-13.49 9.76a172.05 172.05 0 0 0-17.3-2.29c-8.66-.83-14.63-1.14-18.43-1.24l-14.56-19.27 7.31 22.18c-1.45 2.35-3.74 6.29-6.8 12.32a148.15 148.15 0 0 0-7.66 17l-25.13 8.68 26-2.61a45.32 45.32 0 0 0 10.8 13.5c6.28 5.5 10.68 8 13.45 9.12l-.38 19.39 6.66-18.71a51.62 51.62 0 0 0 17.43-6.39 119.27 119.27 0 0 0  12.9-8.23l21.42 8.58-17.79-14.6c.7-2.99 1.26-7.85.79-15.57z" fill="#005daa"/>
      <path d="m117.05 79.61h-79.23a25.5 25.5 0 0 1-25.5 25.27h-.32v98.25c13.54-56.6 53.21-102.56 105.05-123.52z" fill="#005daa"/>
      <path d="m348 183v-78.13h-.13a25.5 25.5 0 0 1-25.5-25.27h-82.24c45.38 18.67 84.99 56.96 107.87 103.4z" fill="#005daa"/>
      <path d="m276.64 434.16c31.1-24.08 67.69-65.53 78.83-131.65 15.71-93.18-51-161.2-51-161.2 0 0 42.63 45.6 32.24 128.69q-.63 5.09-1.37 9.8c.43-1.92.76-3.65 1-5.12-7.47 61.49-17.36 95.71-43 135.11-6.43 9.87-12 17.86-16.68 24.32" fill="#ef3e42"/>
      <path d="m285.87 348a163.73 163.73 0 0 1-38.53 17.25 93.25 93.25 0 0 1  29.31 67.75c0 .38 0 .77 0 1.15 4.71-6.46 10.25-14.45 16.68-24.32 25.66-39.4 35.55-73.62 43-135.11-2.25 13.8-11.68 49.16-50.46 73.28z" fill="#005daa"/>
      <path d="m196 131c-.49-5.2.48-7.67.48-7.67 0 0-3.62 0-5 .86a8.09 8.09 0 0 0-3.59 4.4 14.1 14.1 0 0 1  3.59-3.22 6.78 6.78 0 0 1  3.75-.59 17.25 17.25 0 0 0-.16 5.9c1.61 10.93-7.88 12.27-7.88 12.27 0 0 9.93.05 8.81-11.95z" fill="#ef3e42"/>
      <path d="m162.05 137.25c2.92 0 6.58-4.59 7.22-5.56q.47-.09.93-.21c0 0-11.13-.32-12.63-.32-.61 0-.11 1.7.3 1.66h.55c.31.86 1.65 4.4 3.63 4.43zm1.5-5a45.16 45.16 0 0 0 4.59-.35c-.81.88-3.61 4.4-6 4.32a1.57 1.57 0 0 1-1.1-.61 4.12 4.12 0 0 0  1.4-1.18 5.51 5.51 0 0 0  1-2.17zm-.55 0a4.45 4.45 0 0 1-.87 1.54 3.33 3.33 0 0 1-1.6 1 13.26 13.26 0 0 1-.94-2.22c.97-.08 2.09-.22 3.41-.3z" fill="#ef3e42"/>
      <path d="m193.52 129.18c0 0-7.72 2.09-5.57 6.06 1.54 2.84 4.29.53 4.29.53 0 0-2.09 1.08-3-.8-1.4-3.16 4.28-5.79 4.28-5.79z" fill="#ef3e42"/>
      <path d="m304.93 142a159.14 159.14 0 0 0-124.61-59.87c-87.83 0-159.06 70.87-159.06 158.21 0 59.29 32.8 111 81.33 138a96.84 96.84 0 0 1 144.53-13.34c18.21-9.54 45-30.66 65.31-76.68 33.68-76.23.46-134.19-7.5-146.32zm-171.83 2c0 0 1.61 8.12 6.65 10.37 5.04 2.25 10.5-1.52 13.08-3.29 5.15-3.54 7.08-3.44 7.08-3.44a13.27 13.27 0 0 1-2.15-.85c-.75-.43-2.46-1.67-4.07-1.67-1.61 0-7.51 2.42-8.85 2.95-1.34.53-3.75-.93-4.56-2.95a12.33 12.33 0 0 1-.53-4.82c0 0-1.88-1.47-1.48-3 .4-1.53 5.77-2.95 6.84-3.62 1.07-.67 5.36-2.28 5.63-3.08.27-.8.53-5.9 1.61-7.24 1.08-1.34 5.89-.8 7.9-1.07 2.01-.27 2-2.53 3.31-3.1-.19-.57-.57-1.65-1.07-3h16.61l.43-1.08h-17.44c-.8-2.15-1.81-4.75-2.82-7.08-1.88-4.32-4.1-7.93-3.72-8.33.38-.4 5.13.4 6.28 2a7.12 7.12 0 0 1 1.28 3.84c0 .39 3.46-1.59 5.64.79 2.18 2.38-.9 5.69-.9 5.69h9.15c0 0-2.84-1.44-2.56-4.23.38-3.84 5.12-3.31 5.12-3.31 0 0-3.72-9 5.13-8.86 6.41.13 4 8.6 4 8.6 0 0 3.21.39 3.33 3.3a4.46 4.46 0 0 1-2.56 4.1l6.41-.13c0 0-2.18-3-.39-5.29 1.79-2.29 5.13-2 5.13-2 0 0-.51-3.44 1-4.9a5.91 5.91 0 0 1 4.23-1.45c.26.13-2.95 6.48-4.1 11.11a39.83 39.83 0 0 0-.89 9.41 32.24 32.24 0 0 0  4.1 4.46c2.36 2.1 4.29 2.69 6.49 5.15 2.2 2.46 1.93 7.19 1.93 7.19 0 0-.65.37-3.54-.43a16.57 16.57 0 0 1-5.31-2.79 8.17 8.17 0 0 0  4.88 3.91 13.11 13.11 0 0 0  7 .22c0 0-3.65 5.68-6.49 6.75a14.9 14.9 0 0 1-5.36 1c0 0 3.11 1 5.15.37a10.05 10.05 0 0 0 3.32-1.66c0 0 2.57 2.84 2.68 3.49.11.65-1.28 2.57-.91 5 .37 2.43 3.48 5.79 3.48 5.79 0 0-1.66 1.08-6.8 1.13a13.29 13.29 0 0 1-8.1-2.36 6 6 0 0 0  3.27 2.84 14 14 0 0 0  4.88.81 64.41 64.41 0 0 1  .8 10 26 26 0 0 1-1.34 8.79 56.23 56.23 0 0 0-3.8-6.54 23.52 23.52 0 0 0-5.15-4.72c0 0 2.68 2.93 4 4.77a42.57 42.57 0 0 1 3.11 5.36 22.75 22.75 0 0 0-4.13 4.51c-1.28 2.14-1.61 6.79-1.61 6.79 0 0-3.64-2.66-4.5-6-.46-1.77-1.5-4.77-1.5-4.77 0 0 .38 2.52.43 4.24a29.37 29.37 0 0 1-2 8.68 40.54 40.54 0 0 1-2.55 5.58c0 0 .07.63-.16-1-.54-3-2-3.34-2.71-7.1-.67-2.65-.09-8.91-.09-8.91a9.52 9.52 0 0 0-1.59 5.41c.27 4.82-1.62 6-3.88 7.35-2.26 1.35-6.86 3.86-6.86 3.86a12.24 12.24 0 0 0 2.41-4.5c.55-1.95.22-8.21.22-8.21 0 0-.23 6.76-2 9.87-2.28 4.7-8.9 7.81-8.9 7.81a10.42 10.42 0 0 0 1.85-5.56c.14-2.32-.94-5.79-.62-10.13a10.77 10.77 0 0 1 2.36-6.44 6.33 6.33 0 0 0-1.93 1.93 15.49 15.49 0 0 0-1.87 7c-.06 2.85-3.92 4.24-6.49 4.51a37.75 37.75 0 0 1-7.24-.49 21.16 21.16 0 0 0  4-4.34 53.68 53.68 0 0 0  3.64-7.48 65.4 65.4 0 0 1-4.66 7c-3.16 4.23-5.47 5.57-10.4 5.84-4.93.27-6.79-1.8-6.79-1.8a15.45 15.45 0 0 0 10.24-8.09c1.57-2.92 1.88-7.59 1.88-7.59 0 0-5.84-.19-8.33-1.55a15.53 15.53 0 0 1-5.26-4.83c0 0 1.88-.08 4-.4 2.12-.32 4.72-.38 9.65-.59 4.93-.21 8.47-1.56 9.06-2.2.59-.64.11-2.68.11-2.68a8 8 0 0 0  .91-.54l1.13-.75a11.54 11.54 0 0 1  .27 1.18c.1.65.16 1.61.16 1.61a7.93 7.93 0 0 0 4-2 28.13 28.13 0 0 0  2.3-2.95 4.88 4.88 0 0 0  1 .91c.54.32 2.31 1.29 2.31 1.29a10.39 10.39 0 0 0 1.66-2.74 14 14 0 0 0  .7-3.05 5.82 5.82 0 0 0  2.41.05 7.45 7.45 0 0 0  2.73-.91 13.24 13.24 0 0 1-2-1.93 5.44 5.44 0 0 1-.81-1.34c0 0 .81-.11 2.36-.38a10.23 10.23 0 0 0 3.27-1.39 14 14 0 0 1-3.54-2.25c-.85-1-.16-2.58-1.23-4.72-1.07-2.14-4.23-3.7-4.23-3.7a40.27 40.27 0 0 1 3.1 4.18c.86 1.5.54 3.59.86 4.34.32.75 2.58 2.15 2.58 2.15a6.76 6.76 0 0 1-2 .48l-3.16.32c0 0 .86 1.34 1.23 1.88.37.54 1.5 2 1.5 2a9.64 9.64 0 0 1-1.71.06l-2.52-.16a7.69 7.69 0 0 1 0 2.68 9.19 9.19 0 0 1-1.4 2.89 6.48 6.48 0 0 1-1.66-.91c-.64-.54-1.87-1.77-1.87-1.77a18.87 18.87 0 0 1-2.2 3.59 7.54 7.54 0 0 1-2.79 1.88 6 6 0 0 0-.05-2 8.54 8.54 0 0 0-.65-1.93 13.4 13.4 0 0 1-2.57 2.57 24.87 24.87 0 0 1-8.47 2.84c-4.08.65-5.15-1.39-5.26-2.25-.11-.86.65-.75 1.4-1 .75-.25.75-2.25 1.07-2.46.32-.21 4.29-.22 6.43-.65 2.14-.43 4.61-3.32 4.61-3.32 0 0-7.07-1.61-10.93.21-3.86 1.82-10.19 7.19-15.66 3.86-5.47-3.33-3.1-14.49-3.1-14.49zm12.17 4.88c-.12-.6 1.82-1 2.52-1 .7 0 .32 3.81.32 3.81 0 0-2.52-1.17-2.84-2.78zm4.23 7.72a4 4 0 0 0  .92 1.55 1.46 1.46 0 0 1  .16 1.83c-.38.53-1.08.75-1.5.26-.42-.49-.43-1.41.42-3.61zm-42.46-32c1.07.54 1.93 1.82 1.61 2.15-.32.33-1.07.1-1.82.42-.75.32-.64.86-1.18.86-.54 0 0-1.39-.32-2.14a7.68 7.68 0 0 0-1.29-1.72 7.45 7.45 0 0 1  2.96.45zm-11.58 3.54c2.47-1.07 1.18 2 1.07 3.43-.07 1-4.82.64-4.82.64 0 0 2.29-3.4 3.75-4.05zm-6.33 14.69c.37-1.17 2.46-.53 2.69 1.72.1 1.07-1.08 1.82-.86 3.64.22 1.82.43 2.9.43 2.9 0 0-3.54-4.09-2.26-8.24zm-2.89 15.23c.32-2.68 2.68-5.26 2.68-5.26a8.24 8.24 0 0 0  .75 3.43 3.54 3.54 0 0 0  1.93 1.61 7.62 7.62 0 0 1-1.18.75 16.67 16.67 0 0 0-2.42 1.74c-.69.53-2.08.43-1.76-2.25zm-3.75 40.1c0 0-.22-3.11 1.6-4.83 1.82-1.72 3.76-1.82 3.44-.64a9.91 9.91 0 0 0-.11 3.33c.11.64-1.39.21-2.47.32-1.08.11-2.46 1.84-2.46 1.84zm2 10.72a12.23 12.23 0 0 1  .54-4.5c.75-2.15 1.61-2.9 1.93-2.79.32.11.11 2.15.64 3.75.53 1.6 1.4 2.26 1.5 2.79.1.53-.75 0-2.14 0a4.78 4.78 0 0 0-2.44.77zm6.76 11.26a10.13 10.13 0 0 0  .21 2.36c0 0-2.36-1.18-2.78-3.22-.28-1.32.1-3.64.53-3.53.43.11.54 1.07 1.29 1.6.75.53 2.36.11 2.57.33.21.22-1.68.87-1.79 2.48zm12.33 3.65a9 9 0 0 0-2.14 2.57 8.65 8.65 0 0 1-.75-3.11c0-1.5 1-3.11 1.6-2.25a7.19 7.19 0 0 0 2.58 1.61c.46.23-.29.66-1.26 1.2zm18.71 74.84c.27.75.11.81-1 .81a6.61 6.61 0 0 0-2.79 1.34c0 0 .11-2.68 1.07-3.7.96-1.02 2.53-1.56 2.47-.7a5.57 5.57 0 0 0  .28 2.27zm.7 11.21a7.63 7.63 0 0 0-.16 2.25c0 0-4.18-4.61-.27-6.81.59-.33 1.55 1.77 1.72 2.57.17.8-.99.99-1.28 2.01zm9.44 8.84c0 0-4.45-3-2.52-6.7.22-.42 2.94 1.24 3 2 .06.76-1 1-1 2.25a7.65 7.65 0 0 0  .55 2.47zm10.13-4.55c.21-.43 1.34.64 3.59.53 1 0 .48 1.13.48 2.9a23.32 23.32 0 0 0  .38 3.75c0 0-5.58-4.85-4.42-7.16zm42.35-41.45a70.17 70.17 0 0 1-9.43.86c-5.58 0-11.15-1.87-13.62-.86-2.47 1.01-.75 3.11 1.66 6.71 2.41 3.6 1.56 6 1.34 10-.22 4 3.22 7.4 3.22 7.4 0 0-4.18.48-6.33-3-.85-1.39-2.09-3.38-2.09-3.38a24.06 24.06 0 0 0 1.13 3.32c.64 1.45.32 3 .21 4.56-.11 1.56 1.24 4.18 1.24 4.18a11.62 11.62 0 0 0-2.1-1.5 9.71 9.71 0 0 1-3.91-3.16 10.16 10.16 0 0 1-1.07-4 13.2 13.2 0 0 0-.11 3.22c.22 1.07.75 2.35 0 3.32-.75.97-.1 5.2-.1 5.2 0 0-3.49-2.52-3.76-4.08a19.15 19.15 0 0 0-1.18-4.07 11.8 11.8 0 0 1-.42-3.75 8.12 8.12 0 0 0-.43 3.21 14.15 14.15 0 0 0  .85 2.85 60.75 60.75 0 0 0  .76 7.56c.75 5.25-2.9 6.59-4.78 6.7a5.15 5.15 0 0 1-4.88-2.2c-1.28-1.82 1-6.33 1-6.33a4.9 4.9 0 0 0-1.12 1.18 17.23 17.23 0 0 1-2.36 4.61c-1.5 1.88-4.29 3.38-5.15 2.2-1-1.43-2.52-1.29-3.38-2.63-.86-1.34-.32-4.61-.32-4.61 0 0-.6.56-1.39 1.18a3.89 3.89 0 0 1-3.11.59c-.65-.16 0-1.34-1.4-2.79-.61-.63-1.66-.85-.64-2.94 1.02-2.09 6.7-1.56 6.7-1.56a9.06 9.06 0 0 0-4-.43c-1.92.23-3.21-.53-3.16-3.05.08-3.66 4.39-4.51 6.49-4.4 2.1.11 7.13 3.81 7.13 3.81a15.82 15.82 0 0 0-2.74-2.47c-1.27-.81-2-1.18-1.66-1.45.34-.27 4 .32 6.06.11a7 7 0 0 0 5.63-5.31c.8-3.27-.11-10.51-.06-11.58.05-1.07 2.2-1.5 2.2-1.5 0 0-3.19.39-4.55.75-2.42.64-2.2 3.32-2.2 3.32a3.68 3.68 0 0 1-.7-2.14c.27-2.47 2-1.72 4.13-3.43a20.79 20.79 0 0 0 4-5.36c0 0-2.52 3.75-5 5.14-2.48 1.39-4.5 1.29-5.31-.69-.81-1.98 1.45-4.61 1.45-4.61a3.67 3.67 0 0 0 1.23 2.36c1.56 1.12 0-1.61.81-4.24 1.5-5 6.15-9.29 10.83-11.58 6.32-3.11 11.77-3 15.76-4.29a56.79 56.79 0 0 1 8-1.75 65.13 65.13 0 0 0  10.37 1.44 15.81 15.81 0 0 1-1.19 3.16 14.6 14.6 0 0 0-3.08-2.21 20 20 0 0 1  2.55 3.29c-1 1.91-1.79 3.52-1.47 5.51 0 .13.06.26.09.39a10.88 10.88 0 0 1-.95-.61 7.9 7.9 0 0 1-2.89-4 7.49 7.49 0 0 0  2.14 4.69 8.65 8.65 0 0 0  2.31 1.55 7.74 7.74 0 0 0  3.8 3.18c-.6 2.96-1.45 5.79-1.02 8.43zm.77-23.12c1.08 2.52 2.55 4.79 1.61 9.34-.33 1.61-.68 2.93-1 4.45a5.55 5.55 0 0 1-3.43-3.59c-1.23-3.63 1.81-5.17 2.85-10.18zm8.51 66.66c.27.48-.38.7-1.39.59-1.01-.11-2.79 1.29-2.79 1.29a9.17 9.17 0 0 1 1.07-3.86c.91-1.24 2.38-2.11 2.31-1.51a5.2 5.2 0 0 0  .83 3.51zm-1.13 7.88a16.47 16.47 0 0 0-2 2.9c0 0-.92-2.74-.32-4.19.6-1.45 2-2.39 2.14-1.77a5.46 5.46 0 0 0 1.12 2.2c.27.34-.37.56-.91.88zm7 8.31a4 4 0 0 0-.06 2.79 4.93 4.93 0 0 1-2.52-1.5c-1.32-1.36-1.82-2.47-1.66-3.06.16-.59 1.35-.59 2.73-.32 2 .4 2.08.79 1.59 2.11zm9.25.21c-.85.76-1.82 3.71-1.82 3.71 0 0-.38-2.36-.48-4.19-.1-1.83.48-4 .75-3.7a6.42 6.42 0 0 0 3.27 2.36c.45.2-.78 1.09-1.64 1.84zm56.14-145.93c-3.33 1.17-8.43 1.27-9.3 1.28a9.45 9.45 0 0 1 4.47 1c1.61 1.07 4.08-.65 4.08-.65a4.49 4.49 0 0 1-2.15 3.22c-1.82.86-5.25-1.28-5.25-1.28a9.74 9.74 0 0 0 5.15 2.89 6.37 6.37 0 0 0  5.25-1.61 5.46 5.46 0 0 1-2 3.33c-1.61 1-4 1.07-6.54-.11a13.12 13.12 0 0 1-3.54-2.15 2.9 2.9 0 0 0  .86 1.72 7 7 0 0 0  1.18.86 4.82 4.82 0 0 0-3.54 4.07 2.33 2.33 0 0 0  1.5 2.36c0 0 .44-1.25 1.29-1.5 2.2-.64 2.79.32 4.72.22 1.93-.1 2.46-2.47 2.46-2.47 0 0 .43 4.39-.53 6.54-.96 2.15-4.29 3.11-6.76 4.61a4.16 4.16 0 0 0-2 4.07 4.67 4.67 0 0 1  1.5-2.57c1.08-.64 3-1.71 3-1.71a16.83 16.83 0 0 0-.11 4c .22 2 1.72 6.44 2.47 13.94a12 12 0 0 1-5.15 11.15c0 0 2.36 12.44-8.26 20.27-10.62 7.83-29.38 1.93-30.77 1.18-1.39-.75-1.72 1.07-3.43 4.4-1.71 3.33-1.93 5-.54 6.32 1.39 1.32 13.2 7.93 14.49 10.78a12.52 12.52 0 0 1  .75 6.22c0 0 3.39 1.92 4.34 3.76 1.55 3-.43 4.23 1.93 8.79 0 .11-3.27.53-4.23-1.18-1.35-2.39-5.58-4.93-5.58-4.93a21.6 21.6 0 0 1 4.39 5.79c1.77 3.91 1.08 4.72 2.36 8.15a25.7 25.7 0 0 1-6.86-3.11 15.89 15.89 0 0 1-4.5-5.36 6.87 6.87 0 0 0  1.39 4.07 10.89 10.89 0 0 0  3 2.89c0 0-.75 2.95-.16 4.29.59 1.34 1.67 1.18 2.2 4a3.65 3.65 0 0 0 2.36 3.06c0 0-3.11.91-7.08-2.84-1.66-1.58-3.64-4-3.64-4a14.76 14.76 0 0 0 2.25 3.86c1.29 1.39 1.82 1.93 1.82 1.93l-5.14 4.61-1.83-2.68c0 0 3.54 9.86-2 11.79-4.08 1.42-6.22-3.11-6.22-3.11a8 8 0 0 0-3.65.33c-2 .64-1.63 3.91-3 3.21a8.8 8.8 0 0 0-4.83-.75 7.91 7.91 0 0 1-.43-1.82 4.27 4.27 0 0 1  1.51-3.43 3.44 3.44 0 0 1-3.25-2.39c-1.58-4 3.75-5 3.75-5a4.89 4.89 0 0 1-2.14-.32c-1.61-.65-2-3.33-.65-5.36 1.61-2.36 8.4-2.41 10.94-.43 2.9 2.25 3.33 1.17 3.43-.22.54-7.72 1.82-9.43 2.15-12.43a5.23 5.23 0 0 0-3.43-5.8 12.6 12.6 0 0 1-5.26-4c0 0-.32-1 1.39-2.58a5.77 5.77 0 0 1 2.79-1.39c0 0-4.18.11-5.79 2.68-1.25 2 0 5.68 0 5.68 0 0-2.14-1.82-3.43-.32-1.29 1.5-1.07 5-1.07 5a9.31 9.31 0 0 0-2.68-1.93c-1.61-.75-3.43.75-3.43.75a11.7 11.7 0 0 0  .85-3 21 21 0 0 0-2-9.65c-1.61-2.79-1.29-3.75.21-3.65a23.73 23.73 0 0 1 5.06 1.74c-1.28-.59-7.88-3.75-8.37-9.7-.35-4.29 1.43-9 2.39-12.76.96-3.76-.58-7.16-1.76-9.52a13.14 13.14 0 0 1-1.29-4.71l-.55 3.54a49.68 49.68 0 0 1-10.17-2c-12.54-3.86-11.69-8.37-20.69-13.84-4.06-2.46-1.76-6.21-1-7.18a24.87 24.87 0 0 1 3.86-3.54c0 0-3.32 1.82-4.82 2.68-1.65.94-.54 3.11-2.15 4.08-1.61.97-1.39 3.54-1.39 3.54 0 0-.65-5.58.32-7.83a9.43 9.43 0 0 1 3.75-3.75 8.46 8.46 0 0 0-5.72 5.92c-1 3.32-4.61 5.58-6.11 7.3-1.5 1.72-.11 6-.11 6 0 0-3-1.49-3.32-6-.33-4.94 3.1-6.33 3.53-10.51.28-2.7-1.38-8.68-1.18-11.48.11-1.5 1.36-2.36 3.86-3.32a36.72 36.72 0 0 1 6.76-1.61c0 0-5.36-.32-9.22 1.5a7.38 7.38 0 0 0-4.18 5.68 20.1 20.1 0 0 1-1.72-5.57c-.11-2.15 1.72-3.86 2.47-4.83.75-.97.43-1.61.75-2.68.32-1.07 8.9-3.54 8.9-3.54 0 0-7.62.43-16.19 6.22a59 59 0 0 0-8.69 7.08 6.84 6.84 0 0 1-.21-2.68c.21-1.23.64-3.43.64-3.43 0 0-3 6-1.72 7.56a6.44 6.44 0 0 1 1.18 6.38 7.7 7.7 0 0 0-1.39-2.79c-1.82-2.25-3.24-1.74-4.83-1.5a5 5 0 0 1-3.86-1.4 31.7 31.7 0 0 1-2.68 7.51c-1.61 2.68-5.4.91-7-.43-1.6-1.34-2.24-3.57-.37-6.59a4.49 4.49 0 0 0  .7-2.15 6.68 6.68 0 0 0-2.26 0c-1.28.22-1.93 1.34-3.11 3.17-1.18 1.83-5.14 3.21-7 1.71-1.86-1.5-1.61-5.15-.43-6.65a5.46 5.46 0 0 1 3.07-1.32c-1.44.13-5.68 0-5.32-6.5.15-2.72 2.39-3.29 5.19-3.25-2.19-.18-6.15-1.07-4.65-5.33 1.5-4.26 8-3.75 10.61-2.47 3.76 1.82 6.22 6.43 6.22 6.43 0 0 .22-1.6 1.61-1.82a18.44 18.44 0 0 0 4.29-.75c1.29-.54 3.22-3.11 5.69-4.29 2.47-1.18 6.64-1 8.79-1.93a83.34 83.34 0 0 0 9.11-4.72c3.33-2 11.58-5 11.58-5 0 0-2.14.43-4 1a93.61 93.61 0 0 0-8.91 3.54c-3.1 1.39-7.82 4-7.82 4a32.8 32.8 0 0 1-.54-5c-.1-2.69.22-6.54.22-6.54 0 0-.54 4.82-2.36 6.43a10.14 10.14 0 0 0-1.72 3.32 5.84 5.84 0 0 0-.21-2c-.33-1.28-.75-.85-.54-2.14.21-1.29.75-6.22.75-6.22 0 0-.86 4.5-1.82 6.22a27.43 27.43 0 0 1-2.9 3.86 11.68 11.68 0 0 0-1.93-3.64 4.55 4.55 0 0 0-2.62-1.53 9.15 9.15 0 0 0  0-2.68 10.85 10.85 0 0 0-1.4-4 19.5 19.5 0 0 1  .64 4.18c0 3.44-1 4.19-1.28 6.44-.28 2.25-3 4.82-3 4.82 0 0 0-2.35-.11-4.61-.11-2.26-1.18-3.64-1.93-5-.75-1.36.21-3.43.21-3.43a2.64 2.64 0 0 0-2.57-.1c-1.61.64-1.93 3.1-1.93 3.1 0 0-2.2-7-1.66-9.91.54-2.91 6.7-8.21 6.27-7.89-.43.32-6.75 5.8-8.79 6.65-3.86 1.61-7.48.84-8.8-2-2-4.46 3.86-6.22 4.62-6.55.76-.33 2.14 1.29 4.61 1.18a3.53 3.53 0 0 0 3.21-1.93 6.32 6.32 0 0 1-2.52 1.08 3.83 3.83 0 0 1-2-.33 3.29 3.29 0 0 1-.38-1.82c.08-1.15 1.45-1.5 1.77-3.32.32-1.82.11-5.9.75-8.26a7.11 7.11 0 0 1 2.47-3.64 15.82 15.82 0 0 1-1.72.75c-1.82.69-2.21 1.76-3.86 2.14-.69.16-2-.16-2.09-1.13-.09-.97-1.12-1.87-2.3-2.62-1.18-.75 1.82-5.47 4.82-5.9a15.86 15.86 0 0 1 5 0 2.67 2.67 0 0 0-1-1.29 3.28 3.28 0 0 1-1.67-3.43c.11-2.25 1.51-3 3-2.89 2.84.21 2.85 3 3.8 4.5 1.88 2.95 3.11 3.43 3.11 3.43a2.23 2.23 0 0 0-.16-1.29c-.48-1.34-1.39-1.11-1.77-3.21-.32-1.83.7-2.54 2.42-2.95 1.72-.41 2.94.8 4.13 2 1.71 1.72.78 4.37-.22 6.87-1.07 2.68-.64 5.89.32 10.18.96 4.29 5.9 8.69 8.37 10.51 2.47 1.82 4.71 2.25 9.86 7.4 2.15 2 4.86 2.56 8.42 3.4 1.17 1.93 3.1 4.54 5.63 5.82a18.86 18.86 0 0 0 7.83 1.82 16.59 16.59 0 0 1-4.19 9.44c-4.66 4.72-9.22 4.72-9.22 4.72 0 0 4.67 5.73 15.93 2.36.87-.27 3.48.85 7.23.75a13.87 13.87 0 0 0 7.67-2.74c0 0 .16 1 .28 2.67.36 5.07-3.55 11.11-3.55 11.11 0 0 10.11-6.6 12.44-7.93 7.51-4.29 10.29-5.58 10.51-7.62a10.33 10.33 0 0 0 1.93 4.19c1.43 2.1 1.39 6 1.39 6a76.4 76.4 0 0 0 4-7.18 27.25 27.25 0 0 0  1.93-7.19 22.81 22.81 0 0 0  2.14 2.79c.51.53 1.08 1.09 1.64 1.62a27.22 27.22 0 0 1-5.5 8.46c-6 6.54-7.5 11.8-6.11 18.6 1.11 5.42 5.25 7.67 10.51 11.64 5.26 3.97 11.58 9.54 13.19 13.72 1.61 4.18.43 10.94.43 10.94a15.05 15.05 0 0 0 1.07-3.75 33.8 33.8 0 0 0  .21-3.43 50.81 50.81 0 0 0  5.47 6.43c4.19 4.4 18.23 5.36 25-.54a13.38 13.38 0 0 0 4.29-13.61c0 0-1-2.26-4.61-6-3.61-3.74-8.37-4.18-12.34-3.86-3.97.32-3.1 4.93-4.07 8.47-.97 3.54-3.43 3.11-5.58 5-2.15 1.89.86 6.54.86 6.54a11.23 11.23 0 0 1-5.36-5c-1.3-2.41-1.88-5.53.38-7.67a2.76 2.76 0 0 1 2.62-.32c0 0 0-.75-1.39-1.18a1.61 1.61 0 0 0-1.93 1.07c0 0-1.82 1.61-3.54 1a7.4 7.4 0 0 1-3-2.9 7.17 7.17 0 0 0  3 .16c1.77-.37 1.07-1.5 2.47-2.63a13.3 13.3 0 0 1 4.39-1.82 5.83 5.83 0 0 0-4 .38c-2.36 1-4.51 2.25-7.3.48-1.86-1.18-5.36.43-10.4-4.93-5.04-5.36-4.61-16.09.54-22.31 5.15-6.22 8.47-6.86 8.47-6.86l.54 2.57c0 0 .75-3.75 2.46-4.93 1.71-1.18 5.15-.11 5.15-.11a6.43 6.43 0 0 0-2.79-2.57 3.46 3.46 0 0 1-.32-5.79 22.87 22.87 0 0 0  3.75-4.5 12 12 0 0 1  1.83 3.32c.53 1.72.1 4.08.75 5.25a5.29 5.29 0 0 0 2.57 1.83c0 0 1-1.29 1-4.4 0-3.11-2.36-4.93-3.86-7.83-1.5-2.9 1-6.22 1-6.22 0 0 1 3.54 3.43 4.19a4.14 4.14 0 0 1 3 2.78 17.73 17.73 0 0 0-1.93-5.36c-1.79-3.27-6.38-5.73-4.29-14.2 1.73-7 12.33-9.28 12.33-9.28 0 0-2.14 1.07-2.14 4.4 0 3.33 6.43 6.22 7 18.87.57 12.65-9.65 22.41-13.08 24.12a12.8 12.8 0 0 1-7.61.76 3.53 3.53 0 0 0  2.78 2c2 .22 7.19.33 7.19.33 0 0-2.15 2.89-3.33 4.82-1.18 1.93-3.11 2.25-3.86.75-.75-1.5-3.21-3-3.21-3a21.35 21.35 0 0 1 2.14 4.18c.64 1.93-.64 4.4-1.29 6.43a2.27 2.27 0 0 0 1.51 2.79c0 0-4.72 3.33-7.4.54-2.68-2.79.1-5.9-.32-9.22-.42-3.32-4.08-4.08-4.08-4.08a7.3 7.3 0 0 1 2.25 2.15 7.12 7.12 0 0 1  .54 2.68c0 0-2.15-2.25-4.08-2.36-1.93-.11-4.07 2.36-4 7.29.07 4.93 2.14 8.58 6.86 9.22 4.72.64 8-.43 11.69-1.61a16 16 0 0 1 6.86-.64c0 0 .43-2.57-.32-3.75-.75-1.18-3.76-1.83-3.76-1.83a6.78 6.78 0 0 1 4.08-2.79c2.68-.53 6.11 1.83 6.11 1.83a13.46 13.46 0 0 0-1.82-1.83 3.13 3.13 0 0 1-1.18-3 7.08 7.08 0 0 0-.43-2.78 10.38 10.38 0 0 1  3.65 2.57c1.82 1.93 1.71 3.75 2.46 6.43.75 2.68 5.36 6.33 9 9.12a64.54 64.54 0 0 1 5.9 5c0 0 .1-1.72.1-2.58v-3a5.23 5.23 0 0 0 2.15-1.18 6.18 6.18 0 0 0  1.28-2.14 17.68 17.68 0 0 1-3.85 1.71c-2.15.64-6.87-2.57-9.33-7-2.46-4.43-.43-9.54-.43-9.54a9 9 0 0 0 3.43 3.65c2.25 1.17 3.54.53 3.54.53 0 0-5.15-4.93-5.36-14.26-.21-9.33 6.7-17.64 11.09-20.64 4.39-3 9.07-1.34 11.85-2 2.78-.66 1.93-8.57 1.93-8.57 0 0 6.33 2.89 6.22 10-.11 7.11-6.18 11.14-9.82 12.43z" fill="#ef3e42"/>
      <path d="m38 25.15q0-8.1 10.08-10.15a62.09 62.09 0 0 1 10.22-.59h38.12v11.32h-32.52c-3.82 0-6 .89-6.47 2.65a1.29 1.29 0 0 0-.13.74v5.88h39.12v11.5h-39.12v20.91h-19.3z" fill="#005daa"/>
      <path d="m181.41 55.63v-29.16q0-6.91 4.55-9.5 4.55-2.59 16.5-2.58h11.68l6.27 6.48 5.9-6.48h19.95v14.66h-41c-2.5.2-4 1-4.49 2.36v18.29c0 2 .58 3.29 1.74 4a9 9 0 0 0 4 .59h39.81v13.12h-46.72a27.3 27.3 0 0 1-6.73-.88q-11.46-2.65-11.46-10.9z" fill="#005daa"/>
      <path d="m165.1 15a62.17 62.17 0 0 0-10.22-.59h-32.72a62.17 62.17 0 0 0-10.22.59q-10.09 2-10.09 10.15v42.26h19.31v-20.91h34.72v20.91h19.31v-42.26q0-8.1-10.09-10.15zm-9.22 20h-34.72v-5.88a1.41 1.41 0 0 1  .12-.74c.5-1.76 2.66-2.65 6.49-2.65h21.5c3.83 0 6 .89 6.48 2.65a1.29 1.29 0 0 1  .13.74z" fill="#005daa"/>
      <path d="m316.4 40.86c6-1 5.87-7.9 5.87-7.9v-7.81q0-8.1-10.08-10.17a62.17 62.17 0 0 0-10.19-.59h-29.67l-20.33.06v53h19.31v-20.95h26.69a4.54 4.54 0 0 1 5 4.74v16.17h19.3v-19.73c0 0 .19-6.82-5.9-6.82zm-13.95-5.86h-31.63v-9.32l6.6.05h18.43c3.82 0 6 .89 6.48 2.65a1.41 1.41 0 0 1  .12.74z" fill="#005daa"/>
   </g>
</svg>
