<?xml version="1.0" encoding="utf-8"?>
<!-- Generator: Adobe Illustrator 13.0.0, SVG Export Plug-In . SVG Version: 6.00 Build 14948)  -->
<!DOCTYPE svg PUBLIC "-//W3C//DTD SVG 1.0//EN" "http://www.w3.org/TR/2001/REC-SVG-20010904/DTD/svg10.dtd">
<svg version="1.0" id="Calque_1" xmlns="http://www.w3.org/2000/svg" xmlns:xlink="http://www.w3.org/1999/xlink" x="0px" y="0px"
	 width="280.63px" height="280.629px" viewBox="0 0 280.63 280.629" enable-background="new 0 0 280.63 280.629"
	 xml:space="preserve">
<g>
	<path fill-rule="evenodd" clip-rule="evenodd" fill="#FFFFFF" d="M140.316,1.15C63.457,1.15,1.149,63.457,1.149,140.316
		c0,76.857,62.308,139.165,139.167,139.165c76.858,0,139.165-62.307,139.165-139.165C279.481,63.457,217.174,1.15,140.316,1.15
		L140.316,1.15z"/>
	<path fill-rule="evenodd" clip-rule="evenodd" fill="#E32219" d="M140.316,0c-37.482,0-72.717,14.596-99.219,41.098
		C14.595,67.6,0,102.835,0,140.314c0,37.481,14.595,72.716,41.098,99.217c26.501,26.502,61.737,41.098,99.219,41.098
		c37.479,0,72.715-14.596,99.217-41.098c26.503-26.5,41.096-61.736,41.096-99.217c0-37.479-14.593-72.715-41.096-99.217
		C213.029,14.596,177.795,0,140.316,0L140.316,0z M278.648,140.314c0,36.949-14.389,71.689-40.516,97.815
		c-26.127,26.13-60.867,40.519-97.815,40.519c-36.952,0-71.689-14.389-97.818-40.519c-26.126-26.125-40.516-60.866-40.516-97.815
		c0-36.951,14.39-71.688,40.516-97.815c26.129-26.128,60.867-40.518,97.818-40.518c36.948,0,71.688,14.389,97.815,40.518
		C264.259,68.626,278.648,103.364,278.648,140.314L278.648,140.314z"/>
	<path fill-rule="evenodd" clip-rule="evenodd" fill="#E32219" d="M140.316,274.674c74.204,0,134.359-60.154,134.359-134.36
		c0-74.205-60.155-134.36-134.359-134.36C66.111,5.955,5.956,66.11,5.956,140.314C5.956,214.521,66.111,274.674,140.316,274.674
		L140.316,274.674z"/>
	<path fill-rule="evenodd" clip-rule="evenodd" fill="#FFFFFF" d="M79.198,240.854c1.285,0,2.326-1.043,2.326-2.328
		s-1.042-2.326-2.326-2.326s-2.326,1.042-2.326,2.326S77.913,240.854,79.198,240.854L79.198,240.854z"/>
	<path fill-rule="evenodd" clip-rule="evenodd" fill="#FFFFFF" d="M204.958,238.646c1.286,0,2.326-1.04,2.326-2.326
		c0-1.282-1.04-2.326-2.326-2.326c-1.283,0-2.326,1.044-2.326,2.326C202.631,237.606,203.674,238.646,204.958,238.646
		L204.958,238.646z"/>
	<path fill-rule="evenodd" clip-rule="evenodd" fill="#FFFFFF" d="M44.493,77.621c1.285,0,2.327-1.042,2.327-2.326
		c0-1.283-1.042-2.326-2.327-2.326c-1.286,0-2.327,1.043-2.327,2.326C42.166,76.579,43.207,77.621,44.493,77.621L44.493,77.621z"/>
	<path fill-rule="evenodd" clip-rule="evenodd" fill="#FFFFFF" d="M140.316,236.127c52.829,0,95.809-42.983,95.809-95.813
		s-42.98-95.811-95.809-95.811c-52.831,0-95.812,42.981-95.812,95.811S87.485,236.127,140.316,236.127L140.316,236.127z
		 M47.052,140.314c0-51.426,41.837-93.265,93.265-93.265c51.424,0,93.263,41.839,93.263,93.265s-41.839,93.264-93.263,93.264
		C88.889,233.578,47.052,191.741,47.052,140.314L47.052,140.314z"/>
	<path fill-rule="evenodd" clip-rule="evenodd" fill="#FFFFFF" d="M101.795,118.305c-5.371-7.491-6.606-16.961-6.606-16.961h-30.85
		l-2.261,5.936c1.836,0.237,7.49,4.711,7.49,9.601c0,4.945,0,36.442,0,37.61c0,2.102-2.792,6.325-9.187,9.045l2.543,6.407
		c0,0,28.694,0,30.955,0c2.262,0,20.794-1.964,20.354-24.923C114.066,136.414,107.771,126.64,101.795,118.305L101.795,118.305z
		 M100.806,143.323c-1.674,12.864-11.591,11.874-11.591,11.874h-7.019c0,0,0-37.214,0-39.762
		C82.195,116.75,102.644,129.189,100.806,143.323L100.806,143.323z"/>
	<path fill-rule="evenodd" clip-rule="evenodd" fill="#FFFFFF" d="M161.865,141.486c-1.412-2.687-8.099-10.216-8.099-10.216
		c3.404-4.595,7.329-9.936,5.896-18.776c-0.962-5.933-4.863-11.858-13.061-15.25c-12.919-5.344-27.138-1.976-35.195,6.079
		c0,0,6.361,4.666,6.361,12.579c0,7.916,0,32.312,0,35.351c0,4.466-3.941,15.155-11.308,18.69h18.873c0,0-4.86-4.607-3.788-10.931
		c1.015-5.985,5.315-10.743,9.791-10.888V129.47l15.266,16.115c0,0,3.814,4.289,1.862,9.753c-1.481,4.138-5.208,5.559-7.798,5.089
		c-3.272-0.595-5.721-2.282-5.861-5.25c-0.144-2.968-1.73-3.35-2.719-3.633c-0.991-0.281-3.059,0.401-4.142,1.39
		c-1.421,1.298-3.958,4.806-3.251,9.045c0.707,4.244,4.805,12.299,16.114,12.299c8.621,0,16.677-2.827,21.483-11.167
		C167.953,153.281,163.278,144.171,161.865,141.486L161.865,141.486z M148.375,115.68c-0.283,6.502-4.318,9.268-4.318,9.268
		s-9.91-9.406-10.882-10.318c-0.976-0.914-3.883-4.679-0.143-8.339c3.644-3.565,7.863-1.078,9.842,0.051
		C143.937,106.948,148.563,111.385,148.375,115.68L148.375,115.68z"/>
	<path fill-rule="evenodd" clip-rule="evenodd" fill="#FFFFFF" d="M188.715,101.344h-13.852l-2.968,5.795
		c0,0,3.609,2.118,3.675,6.643c0.142,9.751-8.199,23.181-10.603,26.432c0,0,7.635,12.674,0.425,23.181c0,0,4.099,6.548,12.582,6.548
		c8.479,0,39.442,0,39.442,0l2.543-6.434c-3.751-1.446-9.195-5.814-9.195-9.133c0-6.785,0-34.865,0-36.841
		c0-3.814,3.271-8.815,7.496-10.282l-2.257-5.936l-18.524,0.026v53.994c0,0-15.836,3.71-18.337-10.46
		c-0.847-4.806,0.042-11.271,5.191-22.898c4.863-10.983,4.381-12.135,4.381-14.462C188.715,105.812,188.715,101.344,188.715,101.344
		L188.715,101.344z"/>
	<path fill-rule="evenodd" clip-rule="evenodd" fill="#FFFFFF" d="M57.172,232.481l-1.066-1.069
		c-4.901-4.907-5.982-11.67-1.65-15.993c4.284-4.277,9.359-2.369,14.058,2.336l1.702,1.705L57.172,232.481L57.172,232.481z
		 M77.617,222.737l-8.157-8.171c-8.966-8.981-16.028-6.429-19.301-3.163c-4.427,4.421-4.829,13.355,3.301,21.498l6.976,6.986
		l0.89-0.886c-1.221-1.608-0.498-2.328,0.537-3.362l11.501-11.484c1.035-1.031,1.757-1.753,3.363-0.53L77.617,222.737
		L77.617,222.737z"/>
	<path fill-rule="evenodd" clip-rule="evenodd" fill="#FFFFFF" d="M41.251,197.716l-8.842,0.488l5.357-7.14L41.251,197.716
		L41.251,197.716z M26.627,196.765l2.746,5.24l22.565-1.185c1.053-0.045,2.593-0.253,3.354,1.053l1.114-0.586l-3.712-7.083
		l-1.116,0.584c0.511,1.852-0.103,2.221-1.64,2.288l-5.549,0.327l-4.641-8.854l3.332-4.556c0.913-1.263,1.569-1.837,2.779-0.12
		l1.112-0.583l-4.431-8.458l-1.116,0.584c0.468,1.184-0.042,1.819-0.637,2.591L26.627,196.765L26.627,196.765z"/>
	<path fill-rule="evenodd" clip-rule="evenodd" fill="#FFFFFF" d="M21.457,169.62l15.293-2.757c1.438-0.261,2.442-0.441,2.39-2.256
		l1.239-0.224l1.36,7.551l-1.237,0.223c-0.586-1.718-1.591-1.54-3.029-1.279l-15.996,2.884c-1.438,0.259-2.442,0.439-2.392,2.256
		l-1.237,0.223l-1.478-8.19l8.375-14.487l-6.692,1.207c-1.439,0.258-2.443,0.439-2.393,2.254l-1.238,0.223l-1.36-7.548l1.237-0.224
		c0.587,1.718,1.591,1.538,3.03,1.279l15.995-2.883c1.439-0.261,2.442-0.442,2.391-2.257l1.239-0.224l1.361,7.55l-1.238,0.223
		c-0.585-1.717-1.59-1.537-3.027-1.277l-3.146,0.568L21.457,169.62L21.457,169.62z"/>
	<path fill-rule="evenodd" clip-rule="evenodd" fill="#FFFFFF" d="M28.544,134.335l1.157-1.141c0.413,0.582,0.975,1.056,1.65,1.134
		c2.635,0.302,4.146-3.633,4.434-6.145c0.33-2.88-0.393-7.027-3.264-7.355c-6.386-0.731-3.98,18.025-13.103,16.98
		c-5.169-0.593-6.254-6.958-5.656-12.188c0.54-4.702,2.42-8.881,5.93-11.436l2.85,5.008l-0.935,1.289
		c-0.311-0.283-0.566-0.437-0.972-0.482c-2.399-0.274-3.508,3.749-3.766,5.977c-0.263,2.31-0.266,5.925,2.2,6.207
		c5.133,0.587,3.613-18.397,13.374-17.278c5.607,0.642,7.139,7.592,6.471,13.43c-0.737,6.445-3.038,9.508-7.709,12.341
		L28.544,134.335L28.544,134.335z"/>
	<path fill-rule="evenodd" clip-rule="evenodd" fill="#FFFFFF" d="M48.331,87.548c0.835-0.218,1.655-0.574,2.232-1.482l1.155,0.498
		l-3.855,8.958l-1.157-0.498c0.65-1.853-0.023-1.831-0.906-1.591l-12.218,3.36l1.466,4.852l4.904,2.111
		c1.343,0.577,2.28,0.98,3.24-0.561l1.155,0.497l-3.612,8.396l-1.156-0.498c0.459-1.755-0.479-2.159-1.819-2.738l-14.931-6.425
		c-1.343-0.577-2.28-0.981-3.24,0.561l-1.154-0.497l3.611-8.396l1.155,0.498c-0.458,1.758,0.478,2.159,1.822,2.738l6.122,2.634
		l-3.5-10.967c-0.544-1.657-1.225-1.282-2.073,0.086l-1.156-0.498l4.21-9.782l1.156,0.498c-0.759,1.85-0.211,3.33,0.256,4.995
		l2.126,7.623L48.331,87.548L48.331,87.548z"/>
	<path fill-rule="evenodd" clip-rule="evenodd" fill="#FFFFFF" d="M65.583,65.61l-5.924-6.56l3.967-3.583
		c2.695-2.433,6.021-3.744,8.3-1.22c2.074,2.297,0.441,5.237-1.982,7.427L65.583,65.61L65.583,65.61z M62.094,72.703l11.265-10.172
		c3.815-3.447,6.059-8.268,2.892-11.774c-2.326-2.575-6.246-2.29-9.472-0.016l-0.045-0.05c1.648-2.496,2.099-5.468,0.322-7.437
		c-2.484-2.751-6.699-1.695-9.515,0.85L45.822,54.687l0.841,0.932c1.515-0.999,2.201-0.243,3.179,0.844l10.894,12.062
		c0.98,1.084,1.663,1.841,0.514,3.245L62.094,72.703L62.094,72.703z M57.7,56.88l-4.468-4.947l4.271-3.855
		c1.847-1.668,4.135-2.543,5.753-0.751c1.801,1.995,0.53,4.056-1.558,5.944L57.7,56.88L57.7,56.88z"/>
	<path fill-rule="evenodd" clip-rule="evenodd" fill="#FFFFFF" d="M96.999,44.395c-5.948,2.688-10.557-0.081-12.616-4.635
		c-2.114-4.679-1.21-10.014,4.924-12.785c5.727-2.587,10.404,0.038,12.45,4.562C103.844,36.154,103.209,41.588,96.999,44.395
		L96.999,44.395z M98.25,47.263c8.365-3.782,11.997-11.205,8.89-18.085c-3.011-6.661-11.311-8.583-19.157-5.036
		c-7.956,3.595-12.048,11.188-8.996,17.943C82.081,48.933,90.032,50.975,98.25,47.263L98.25,47.263z"/>
	<path fill-rule="evenodd" clip-rule="evenodd" fill="#FFFFFF" d="M115.643,38.884c1.742-0.519,1.602-1.528,1.398-2.975
		l-2.259-16.096c-0.205-1.449-0.347-2.459-2.162-2.479l-0.174-1.245l9.048-1.273l0.175,1.247c-1.737,0.52-1.596,1.531-1.394,2.978
		l2.413,17.171l7.755-1.088c2.182-0.306,4.033-0.91,3.975-3.098l2.022-0.284l0.754,5.388l-21.376,3.001L115.643,38.884
		L115.643,38.884z"/>
	<path fill-rule="evenodd" clip-rule="evenodd" fill="#FFFFFF" d="M154.949,29.333l1.047,1.244
		c-0.611,0.366-1.126,0.889-1.255,1.556c-0.508,2.604,3.299,4.418,5.78,4.898c2.845,0.552,7.037,0.154,7.589-2.682
		c1.222-6.311-17.665-5.369-15.914-14.382c0.992-5.106,7.424-5.694,12.59-4.69c4.646,0.901,8.667,3.101,10.942,6.8l-5.215,2.452
		l-1.211-1.033c0.306-0.287,0.476-0.532,0.555-0.932c0.457-2.37-3.464-3.79-5.666-4.217c-2.284-0.444-5.887-0.728-6.36,1.709
		c-0.984,5.073,18.06,5.032,16.188,14.676c-1.078,5.542-8.125,6.527-13.894,5.41c-6.368-1.238-9.243-3.769-11.706-8.646
		L154.949,29.333L154.949,29.333z"/>
	<path fill-rule="evenodd" clip-rule="evenodd" fill="#FFFFFF" d="M192.243,27.658l3.754,1.885c2.918,1.465,4.891,4.17,3.548,6.844
		c-1.875,3.738-8.518,2.418-12.554,1.723L192.243,27.658L192.243,27.658z M189.565,41.533c5.814,1.245,12.746,2.443,15.445-2.934
		c1.724-3.434,0.287-7.658-6.06-10.844l-11.959-6.006l-0.564,1.124c1.482,1.049,1.025,1.958,0.368,3.268l-7.293,14.521
		c-0.658,1.308-1.113,2.221-2.84,1.657l-0.565,1.125l8.167,4.103l0.564-1.126c-1.482-1.047-1.025-1.96-0.368-3.267l1.238-2.461
		L189.565,41.533L189.565,41.533z"/>
	<path fill-rule="evenodd" clip-rule="evenodd" fill="#FFFFFF" d="M207.757,57.688c-0.898,1.157-1.522,1.963-0.268,3.277
		l-0.771,0.996l-7.226-5.599l0.772-0.995c1.585,0.883,2.209,0.078,3.104-1.077l9.955-12.848c0.895-1.156,1.522-1.964,0.271-3.277
		l0.769-0.995l7.225,5.599l-0.772,0.995c-1.583-0.886-2.21-0.079-3.107,1.077L207.757,57.688L207.757,57.688z"/>
	<path fill-rule="evenodd" clip-rule="evenodd" fill="#FFFFFF" d="M211.034,63.571c1.399,1.157,2.159,0.478,3.249-0.497
		l12.127-10.822c1.088-0.973,1.849-1.652,0.858-3.173l0.938-0.839l6.086,6.82l-0.938,0.838c-1.4-1.159-2.161-0.478-3.253,0.495
		l-12.938,11.546l5.221,5.846c1.465,1.642,2.996,2.848,4.781,1.581l1.359,1.523l-4.058,3.623l-14.375-16.103L211.034,63.571
		L211.034,63.571z"/>
	<polygon fill-rule="evenodd" clip-rule="evenodd" fill="#FFFFFF" points="242.211,82.267 239.329,84.07 234.287,76.011 
		237.169,74.209 242.211,82.267 	"/>
	<path fill-rule="evenodd" clip-rule="evenodd" fill="#FFFFFF" d="M258.225,105.256c1.383-0.476,2.347-0.809,2.019-2.594l1.189-0.41
		l2.978,8.64l-1.188,0.412c-0.842-1.611-1.808-1.276-3.189-0.801l-15.365,5.3c-1.384,0.476-2.347,0.809-2.019,2.596l-1.189,0.41
		l-4.178-12.111c-3.139-9.104,1.831-13.884,5.752-15.234c5.238-1.809,11.896,1.333,12.829,1.012c0.58-0.199,0.498-1.165,0.28-1.693
		l1.189-0.41l2.889,8.37l-1.191,0.41c-2.728-3.419-10.009-3.885-13.515-2.676c-4.69,1.617-6.42,5.883-4.49,11.477l0.996,2.892
		L258.225,105.256L258.225,105.256z"/>
	<path fill-rule="evenodd" clip-rule="evenodd" fill="#FFFFFF" d="M262.113,128.199l-15.529,0.561
		c-1.462,0.054-2.481,0.091-2.688,1.894l-1.255,0.045l-0.28-7.664l1.257-0.047c0.337,1.784,1.358,1.748,2.82,1.695l16.241-0.589
		c1.462-0.053,2.48-0.089,2.688-1.894l1.257-0.045l0.3,8.317l-10.343,13.154l6.795-0.245c1.462-0.053,2.481-0.091,2.689-1.894
		l1.257-0.047l0.278,7.667l-1.257,0.045c-0.335-1.784-1.356-1.748-2.818-1.693l-16.244,0.587c-1.46,0.054-2.477,0.091-2.685,1.894
		l-1.257,0.045l-0.278-7.666l1.255-0.045c0.337,1.784,1.358,1.748,2.82,1.695l3.193-0.117L262.113,128.199L262.113,128.199z"/>
	<path fill-rule="evenodd" clip-rule="evenodd" fill="#FFFFFF" d="M244.741,162.097c-1.44-0.261-2.445-0.442-3.028,1.277
		l-1.241-0.226l1.622-8.994l1.239,0.224c-0.051,1.815,0.954,1.995,2.392,2.254l15.995,2.887c1.438,0.259,2.442,0.441,3.031-1.277
		l1.236,0.224l-1.623,8.996l-1.238-0.226c0.051-1.815-0.954-1.995-2.392-2.254L244.741,162.097L244.741,162.097z"/>
	<path fill-rule="evenodd" clip-rule="evenodd" fill="#FFFFFF" d="M236.736,182.506c2.624-5.979,7.901-7.005,12.476-5
		c4.702,2.064,7.601,6.631,4.898,12.797c-2.525,5.754-7.761,6.933-12.306,4.939C237.165,193.208,234,188.745,236.736,182.506
		L236.736,182.506z M233.887,181.211c-3.687,8.408-1.418,16.354,5.495,19.386c6.697,2.938,14.15-1.191,17.607-9.073
		c3.508-7.998,1.466-16.378-5.322-19.355C244.785,169.148,237.508,172.953,233.887,181.211L233.887,181.211z"/>
	<path fill-rule="evenodd" clip-rule="evenodd" fill="#FFFFFF" d="M236.455,216.064l-11.58-10.362c-1.09-0.974-1.85-1.655-3.25-0.5
		l-0.936-0.838l5.114-5.717l0.938,0.839c-0.995,1.521-0.234,2.2,0.854,3.174l12.114,10.84c1.09,0.973,1.85,1.655,3.249,0.5
		l0.938,0.836l-5.55,6.205l-16.576,2.304l5.07,4.537c1.088,0.974,1.849,1.654,3.248,0.498l0.94,0.839l-5.118,5.716l-0.938-0.841
		c0.995-1.519,0.234-2.196-0.854-3.174l-12.111-10.837c-1.09-0.976-1.85-1.654-3.25-0.498l-0.939-0.842l5.117-5.716l0.939,0.841
		c-0.996,1.521-0.236,2.197,0.855,3.174l2.379,2.131L236.455,216.064L236.455,216.064z"/>
	<path fill-rule="evenodd" clip-rule="evenodd" fill="#FFFFFF" d="M106.075,237.696l-7.764,19.692
		c-0.747,1.891-0.274,2.531,2.142,3.636l-0.476,1.207l-12.187-4.805l0.477-1.208c3.578,1.26,4.11,0.604,4.972-1.586l6.129-15.542
		c-1.785,0.05-3.624-0.22-5.425-0.708l0.721-1.827c2.739,0.401,5.49,0.655,7.769-0.293L106.075,237.696L106.075,237.696z"/>
	<path fill-rule="evenodd" clip-rule="evenodd" fill="#FFFFFF" d="M118.984,259.295c0.375-2.818,2.174-4.846,5.849-4.356
		c3.381,0.447,5.049,2.938,4.691,5.616c-0.362,2.714-2.59,4.792-6.056,4.329C120.087,264.435,118.628,261.974,118.984,259.295
		L118.984,259.295z M119.91,252.655c-3.795,0.416-6.494,2.502-6.933,5.805c-0.732,5.499,4.163,8.628,10.134,9.423
		c6.014,0.797,11.745-1.414,12.459-6.776c0.41-3.092-1.838-6.013-5.348-7.08l0.009-0.072l-0.004,0.035
		c3.069-0.406,5.112-2.01,5.461-4.655c0.594-4.453-4.711-6.753-9.179-7.345c-4.383-0.584-10.184,0.557-10.746,4.767
		c-0.304,2.295,1.464,4.976,4.154,5.829L119.91,252.655L119.91,252.655z M126.07,244.978c2.715,0.359,4.526,1.734,4.215,4.1
		c-0.294,2.228-2.633,3.19-5.099,2.864c-2.671-0.356-4.417-1.932-4.116-4.194C121.374,245.484,123.522,244.636,126.07,244.978
		L126.07,244.978z"/>
	<path fill-rule="evenodd" clip-rule="evenodd" fill="#FFFFFF" d="M150.316,260.763c-0.353-2.82,0.87-5.238,4.545-5.704
		c3.387-0.425,5.632,1.554,5.968,4.236c0.346,2.716-1.285,5.291-4.752,5.73C152.692,265.452,150.654,263.446,150.316,260.763
		L150.316,260.763z M149.519,254.105c-3.561,1.37-5.64,4.074-5.224,7.381c0.693,5.502,6.224,7.282,12.201,6.527
		c6.018-0.759,10.997-4.358,10.321-9.721c-0.391-3.098-3.305-5.348-6.973-5.49l-0.01-0.067l0.003,0.035
		c2.867-1.178,4.43-3.248,4.097-5.895c-0.563-4.459-6.275-5.329-10.746-4.765c-4.39,0.555-9.71,3.135-9.177,7.349
		c0.287,2.298,2.682,4.437,5.502,4.576L149.519,254.105L149.519,254.105z M153.524,245.111c2.716-0.341,4.822,0.524,5.118,2.892
		c0.283,2.228-1.734,3.757-4.2,4.069c-2.675,0.337-4.762-0.744-5.048-3.009S150.975,245.43,153.524,245.111L153.524,245.111z"/>
	<path fill-rule="evenodd" clip-rule="evenodd" fill="#FFFFFF" d="M180.084,238.415c3.122-1.274,5.842,0.042,6.866,2.54
		c0.98,2.407-0.327,5.331-3.212,6.508c-2.962,1.21-5.527-0.166-6.497-2.54C176.219,242.423,176.926,239.707,180.084,238.415
		L180.084,238.415z M189.375,246.448c1.953,4.775,0.973,9.388-4.604,11.666c-1.638,0.669-3.952,1.349-5.033-0.067l-1.95,0.797
		l1.528,3.737c2.24-0.422,4.516-0.974,6.7-1.868c8.852-3.617,11.06-11.457,8.124-18.639c-2.429-5.944-7.869-9.675-15.703-6.473
		c-5.461,2.232-8.697,7.006-6.769,11.717c1.724,4.222,6.744,5.813,11.81,3.74c2.42-0.986,5.076-3.174,5.461-5.454l0.079-0.032
		L189.375,246.448L189.375,246.448z"/>
	<path fill-rule="evenodd" clip-rule="evenodd" fill="#FFFFFF" d="M146.923,19.409c-0.237-3.812-4.198-7.633-11.072-7.207
		l-5.723,0.354l-0.413,0.026l0.025,0.415l0.044,0.728l0.021,0.363l0.362,0.026c0.807,0.059,0.821,0.287,0.873,1.135l0.587,9.42
		c0.049,0.848,0.066,1.075-0.728,1.233l-0.356,0.072l0.023,0.362l0.045,0.731l0.025,0.412l0.416-0.023l6.692-0.416
		C144.832,26.602,147.133,22.811,146.923,19.409L146.923,19.409z M135.688,24.633l-0.612-9.85l0.46-0.028
		c3.954-0.245,6.962,1.874,7.159,5.035c0.183,2.914-1.847,4.526-6.026,4.784L135.688,24.633L135.688,24.633z"/>
	<path fill-rule="evenodd" clip-rule="evenodd" fill="#FFFFFF" d="M139.651,53.813c0,0-6.862,0.186-8.958,2.43
		c0,0,9.54,14.855-1.794,15.262c-2.248,0.082-4.998-0.375-6.103-2.499c-1.517-2.909-0.596-7.38,2.644-7.797
		c0,0-5.416-6.863-14.79-2.566c-5.383,2.47-5.683,10.021-5.084,12.116c0,0-11.63-2.805-16.564,6.62
		c-1.42,2.71-2.365,8.925,0.224,12.899c0,0,3.417-3.691,10.54-4.97c3.755-0.674,15.104,2.508,18.626,2.167
		c4.038-0.394,12.734-0.563,17.071-10.283c0.771-1.727,1.343-3.724,1.86-2.32c0.884,2.392,1.534,2.911,1.898,2.965
		c0.13,0.06,0.276,0.095,0.431,0.095c0.153,0,0.298-0.035,0.429-0.095c0.363-0.054,1.013-0.573,1.896-2.965
		c0.519-1.403,1.09,0.593,1.862,2.32c4.337,9.721,13.031,9.889,17.068,10.283c3.524,0.341,14.873-2.84,18.627-2.167
		c7.122,1.279,10.54,4.97,10.54,4.97c2.591-3.974,1.646-10.189,0.226-12.899c-4.935-9.425-16.566-6.62-16.566-6.62
		c0.599-2.095,0.3-9.646-5.083-12.116c-9.376-4.296-14.791,2.566-14.791,2.566c3.239,0.417,4.16,4.888,2.646,7.797
		c-1.106,2.124-3.855,2.581-6.103,2.499c-11.334-0.407-1.794-15.262-1.794-15.262C146.512,53.999,139.651,53.813,139.651,53.813
		L139.651,53.813z"/>
	<path fill-rule="evenodd" clip-rule="evenodd" fill="#E32219" d="M188.923,82.148c-0.678-4.307-3.571-7.645-10.342-8.745
		c-2.074-0.338-5.247-0.139-8.042,0.277c0.4-1.128,0.665-2.489,0.665-4.157c0-2.886-0.936-5.672-2.722-7.317
		c-3.034-2.795-7.437-1.976-7.625-1.961l-2.845,0.882c0,0,0.649,0.262,1.494,2.161c0.888,1.98,0.986,4.704-1.194,7.562
		c-3.042,3.987-7.274,3.729-9.939,3.274c-2.667-0.458-4.156-2.36-4.156-2.36c-0.004-0.004,1.251,3.305,1.997,4.818
		c0.853,1.737,5.603,11.565,23.429,6.894c9.807-2.572,16.153,0.612,16.216,0.642c0,0,2.402,1.277,2.979,1.856
		C188.84,85.972,189.423,85.307,188.923,82.148L188.923,82.148z"/>
	<path fill-rule="evenodd" clip-rule="evenodd" fill="#E32219" d="M90.376,82.148c0.68-4.307,3.573-7.645,10.342-8.745
		c2.076-0.338,5.249-0.139,8.043,0.277c-0.398-1.128-0.666-2.489-0.666-4.157c0-2.886,0.936-5.672,2.72-7.317
		c3.036-2.795,7.441-1.976,7.627-1.961l2.843,0.882c0,0-0.647,0.262-1.496,2.161c-0.883,1.98-0.981,4.704,1.197,7.562
		c3.042,3.987,7.272,3.729,9.938,3.274c2.667-0.458,4.155-2.36,4.155-2.36c0.004-0.004-1.25,3.305-1.994,4.818
		c-0.855,1.737-5.606,11.565-23.429,6.894c-9.809-2.572-16.154,0.612-16.214,0.642c0,0-2.407,1.277-2.984,1.856
		C90.459,85.972,89.876,85.307,90.376,82.148L90.376,82.148z"/>
	<path fill-rule="evenodd" clip-rule="evenodd" fill="#E32219" d="M139.489,73.008c-0.382,0-0.686-0.274-0.763-0.633
		c0,0-1.57-6.514-2.315-8.921c-0.749-2.411-1.997-5.32-1.997-5.32c1.124-0.872,3.138-1.288,5.076-1.279h0.319
		c1.938-0.009,3.953,0.407,5.076,1.279c0,0-1.248,2.909-1.997,5.32c-0.746,2.407-2.316,8.921-2.316,8.921
		c-0.078,0.359-0.38,0.633-0.76,0.633H139.489L139.489,73.008z"/>
	<path fill-rule="evenodd" clip-rule="evenodd" fill="#FFFFFF" d="M140.462,227.172c0,0-4.292,0.015-6.895-1.204
		c-6.962-3.268-4.055-10.039-4.055-10.039c-3.657,2.66-9.439,0.141-11.22-6.357c-2.167-7.922,1.705-12.841,1.705-12.841
		c-2.867-1.409-7.997,0.899-8.736,5.807c-0.888,5.897,1.279,10.11,1.279,10.11s-2.026,1.386-6.678-0.5
		c-6.488-2.624-5.577-10.569-5.577-10.569s-5.296,2.354-10.232-1.655c-8.829-7.166-8.288-14.542-8.288-14.542
		s10.938,4.364,16.338,3.708c3.948-0.48,8.809-1.939,12.795-2.577c9.89-1.578,18.834,7.57,18.834,7.57
		c-2.842-10.941,8.666-11.546,10.73-11.492c2.058,0.054,13.566,0.551,10.724,11.492c0,0,8.946-9.148,18.833-7.57
		c3.989,0.637,8.848,2.096,12.798,2.577c5.399,0.656,16.337-3.708,16.337-3.708s0.541,7.375-8.288,14.542
		c-4.937,4.009-10.233,1.655-10.233,1.655s0.908,7.945-5.575,10.569c-4.654,1.885-6.68,0.5-6.68,0.5s2.169-4.213,1.28-10.11
		c-0.743-4.907-5.871-7.216-8.738-5.807c0,0,3.872,4.919,1.705,12.841c-1.778,6.498-7.563,9.018-11.218,6.357
		c0,0,2.905,6.771-4.059,10.039C144.748,227.187,140.462,227.172,140.462,227.172L140.462,227.172z"/>
	<path fill-rule="evenodd" clip-rule="evenodd" fill="#E32219" d="M107.657,189.505c10.365-3.546,18.863,4.737,18.863,4.737
		s-3.325-0.749-5.318,0.998c0,0-5.383-2.662-9.888,2.326c-4.147,4.591-1.281,13.627-1.281,13.627c0,0.001-9.939-0.333-7.178-12.51
		c-1.549,0.333-4.198,1.313-6.465,1.346c-7.167,0.103-12.36-11.634-12.36-11.634S94.207,194.109,107.657,189.505L107.657,189.505z"
		/>
	<path fill-rule="evenodd" clip-rule="evenodd" fill="#E32219" d="M157.188,196.592c-1.994-0.713-4.534-0.439-5.698-0.023
		c-1.264,0.451-5.206,3.998-5.206,3.998s1.384,1.736,1.384,4.063c0,2.575-1.327,3.99-1.327,3.99s4.739,4.396,5.511,4.815
		c2.404,1.299,4.67,1.326,6.268-0.401c4.091-4.414,3.243-10.582,1.793-13.833C159.345,197.93,158.4,197.026,157.188,196.592
		L157.188,196.592z"/>
	<path fill-rule="evenodd" clip-rule="evenodd" fill="#E32219" d="M173.261,189.505c-10.364-3.546-18.861,4.737-18.861,4.737
		s3.322-0.749,5.316,0.998c0,0,5.383-2.662,9.891,2.326c4.147,4.591,1.277,13.627,1.277,13.627c0,0.001,9.94-0.333,7.182-12.51
		c1.547,0.333,4.197,1.313,6.463,1.346c7.166,0.103,12.362-11.634,12.362-11.634S186.713,194.109,173.261,189.505L173.261,189.505z"
		/>
	<path fill-rule="evenodd" clip-rule="evenodd" fill="#E32219" d="M123.73,196.592c1.992-0.713,4.534-0.439,5.699-0.023
		c1.264,0.451,5.206,3.998,5.206,3.998s-1.386,1.736-1.386,4.063c0,2.575,1.329,3.99,1.329,3.99s-4.738,4.396-5.511,4.815
		c-2.405,1.299-4.672,1.326-6.269-0.401c-4.092-4.414-3.243-10.582-1.795-13.833C121.573,197.93,122.518,197.026,123.73,196.592
		L123.73,196.592z"/>
	<path fill-rule="evenodd" clip-rule="evenodd" fill="#E32219" d="M148.416,187.926c-2.146-2.404-5.086-3.136-7.854-3.082
		c-0.035,0-0.067,0.001-0.101,0c-0.036,0.001-0.072,0-0.104,0c-2.771-0.054-5.71,0.678-7.857,3.082
		c-1.565,1.756-1.443,5.568-0.416,7.478c1.086,2.014,3.656,3.708,3.656,3.708s1.473-1.425,4.721-1.458
		c3.246,0.032,4.714,1.458,4.714,1.458s2.571-1.693,3.656-3.708C149.863,193.494,149.983,189.683,148.416,187.926L148.416,187.926z"
		/>
	<path fill-rule="evenodd" clip-rule="evenodd" fill="#E32219" d="M149.165,215.597c-0.602-1.203-3.989-5.566-3.989-5.566
		s-1.95,1.211-4.714,1.242c-2.77-0.031-4.721-1.242-4.721-1.242s-3.386,4.364-3.987,5.566c-0.309,0.615-0.709,3.031,0.003,5.024
		c0.436,1.213,1.337,2.153,2.61,2.723c1.488,0.664,3.674,1.282,5.991,1.33v0.009c0.032-0.001,0.065-0.004,0.104-0.004
		c0.033,0,0.065,0.003,0.101,0.004v-0.009c2.315-0.048,4.503-0.667,5.989-1.33c1.274-0.57,2.177-1.51,2.609-2.723
		C149.876,218.628,149.472,216.212,149.165,215.597L149.165,215.597z"/>
</g>
</svg>
