<?xml version="1.0" encoding="UTF-8"?>
<svg width="101px" height="91px" viewBox="0 0 101 91" version="1.1" xmlns="http://www.w3.org/2000/svg" xmlns:xlink="http://www.w3.org/1999/xlink">
    <!-- Generator: Sketch 49.1 (51147) - http://www.bohemiancoding.com/sketch -->
    <title>logo KSI</title>
    <desc>Created with Sketch.</desc>
    <defs></defs>
    <g id="FORSÍÐA---MENU" stroke="none" stroke-width="1" fill="none" fill-rule="evenodd">
        <g id="FORSIDA-KSI" transform="translate(-143.000000, -20.000000)">
            <g id="haus" transform="translate(0.000000, 2.000000)">
                <g id="logo-KSI" transform="translate(144.000000, 19.000000)">
                    <path d="M85.8485925,89 L0,88.9875795 L17.702676,6.06845376 C23.3479743,3.22434222 29.5969534,1.13770589 35.8958755,0.380058176 C40.3090151,-0.141600907 52.6433491,-1.06088704 53.8126425,5.03772856 C59.7094017,4.86366969 65.8700203,3.85761289 71.8044986,3.07512426 C73.8916245,2.36715837 76.1298015,1.98229679 78.4556407,1.98229679 C89.7713833,1.98229679 99,11.0989103 99,22.2648987 C99,23.829876 98.8114043,25.3700123 98.459359,26.8853078 L85.8485925,89 Z" id="Fill-1" fill="#FEFEFE"></path>
                    <path d="M45.7256267,29.9169525 C45.8384401,29.4423953 46.1768802,28.4220975 46.3022284,27.5441667 C46.3649025,27.164521 46.4150418,26.9391064 46.3774373,26.7492835 C46.402507,26.3221821 45.4122563,25.2188367 44.4846797,24.9103745 C44.0334262,24.7680074 41.3259053,24.2104027 37.8537604,24.1036274 C29.7437326,23.8544849 20.8440111,25.9425363 14,30 L16.3064067,20.8529109 C24.7548747,16.3564818 36.7506964,13.3904996 46.3899721,15.9412443 C47.8440111,16.3208901 48.4707521,16.9852701 48.6587744,17.6733779 C48.6963788,18.0055679 47.7688022,20.3902176 48.1448468,20.3664898 C49.4986072,20.2834423 51.2910864,20.4495373 52.5445682,20.3783537 C54.1615599,20.330898 55.6908078,20.1054834 57.2827298,20.0105719 C57.2202298,21.0427337 57.2451253,22.1104873 57.3581128,23.3206081 C57.5837396,25.6933938 58.1225627,27.0340178 59,29.1813889 C59,29.1813889 54.7258008,29.7271296 53.1337047,29.8694968 C52.0306407,29.9644082 45.7256267,29.9169525 45.7256267,29.9169525" id="Fill-5" fill="#E13C40"></path>
                    <path d="M58.1999484,18.4730196 C56.5438596,18.65685 54.9636223,18.828425 53.4339525,18.828425 C51.8157895,18.828425 50.2734778,18.8039143 49.123065,18.8039143 C49.249484,18.2401679 49.4517544,16.8675679 49.5781734,16.0219482 C49.6664911,15.6175214 49.123065,14.4532625 47.0497936,13.9753036 C37.2649639,11.7080625 25.495356,13.9017714 17,19 L19.376677,8.16626427 C19.376677,8.16626427 27.0376677,4.31808212 35.874355,3.27637676 C42.3849329,2.51654462 47.6313209,3.54599462 48.3898349,3.71756962 C52.4858101,4.63672141 50.9561404,7.93341248 51.6008772,7.93341248 C56.4680083,7.8721357 61.1960784,7.47996427 66,6.64659998 C62.0557276,9.52660892 59.2239422,13.681175 58.1999484,18.4730196" id="Fill-7" fill="#02529C"></path>
                    <path d="M29.3376729,38.8020329 C38.2038242,38.3137083 40.8397071,39.0274136 41.5585842,39.2778365 C43.3368592,39.8788515 43.6269325,41.9698828 42.8449959,42.4957709 C41.9621644,43.0842647 36.0724166,43.4724202 36.0724166,43.4724202 C36.0724166,43.4724202 34.4707079,43.8230123 36.0724166,44.1736044 C37.5606184,44.4989803 38.4056143,44.7996617 42.3531326,44.7996617 C46.3006509,44.7996617 55.2550854,44.6367129 60.9682669,43.8605758 C63.2888527,43.5475471 69.5947925,42.9590533 73,41.8071079 C67.7786819,40.7428105 62.8096013,36.4355364 60.5520749,32.8419677 C60.123271,32.8920522 55.2172498,33.4680249 53.628153,33.6057575 C53.1995242,33.643321 51.2068473,33.7434901 50.5760781,33.7560113 C48.7095199,33.8436593 47.0573637,33.7184478 45.5313263,33.7059267 C45.1529699,33.6934056 45.8087876,31.4020359 45.8087876,31.0138804 C45.6196094,30.4003443 45.039463,29.6240332 44.1061839,29.1482297 C43.7530513,28.9604125 41.9873881,28.3468764 39.3010578,28.1214958 C30.6366965,27.4328328 20.8120423,29.7116813 13.3710334,33.9438285 L11,45 C11,45 20.4715216,39.2778365 29.3376729,38.8020329" id="Fill-9" fill="#02529C"></path>
                    <polygon id="Fill-11" fill="#02529C" points="84.0991841 87 92 47 80.9011643 47 73 87"></polygon>
                    <polygon id="Fill-13" fill="#02529C" points="18.7775563 64.5645184 18.6622045 64.5645184 22.3534606 47 11.3822273 47 3 87 13.9455995 87 18.4186841 65.7321267 18.5340359 65.7321267 27.1085161 87 40.7072059 87 30.6587867 64.6147381 48 47 35.0037026 47"></polygon>
                    <path d="M74.4848795,58.6870525 C77.0480225,48.9666242 69.61112,46 61.7956033,46 C53.8787252,46 45.5074751,48.625778 43.1842322,58.1820952 C42.3130161,62.5373521 43.4746375,66.2235405 46.9468755,68.0036903 C54.3964044,71.8539899 62.3888649,70.6924127 61.3030014,76.1584003 C60.7600696,78.8348494 57.4014685,80.1856102 54.9898414,80.1856102 C51.2145717,80.1856102 49.017592,78.1154606 49.8132255,74.3156568 L39.3458309,74.3156568 C37.3129934,85.2604312 44.5352484,88 53.3231672,88 C62.0858332,88 70.7602905,83.9729654 72.439591,75.4895072 C74.6111427,64.5950531 65.5201923,63.9259847 59.5226903,62.1966812 C56.8964157,61.413822 53.7273848,60.4670271 54.3206464,57.5132021 C54.7246887,55.4931975 57.1491175,53.8268384 59.5605692,53.8268384 C61.3410557,53.8268384 62.6161387,54.2688514 63.3484653,55.1018556 C64.1186708,55.9476591 64.3587462,57.1216849 63.9925829,58.6870525 L74.4848795,58.6870525 Z" id="Fill-15" fill="#02529C"></path>
                    <path d="M92.8312796,45 L95,34 C92.12891,38.3307087 87.5696682,41.2013498 82.5298578,42.2902137 L82,45 L92.8312796,45 Z" id="Fill-17" fill="#02529C"></path>
                    <path d="M82.4209827,5 L81,8.88157895 L84.4926959,13 L89.8313413,12.0921053 L91,8.84210526 C88.5429762,6.90789474 85.5949535,5.56578947 82.4209827,5" id="Fill-19" fill="#02529C"></path>
                    <path d="M95.928017,20.9336942 C95.8042588,19.5696888 95.5319908,18.2543978 95.1235888,17 L91.6831113,17.5965832 L90,22.2002706 L93.2548402,26 L95.7174562,25.5859269 C95.9898961,24.0879567 96.0765268,22.5290934 95.928017,20.9336942" id="Fill-21" fill="#02529C"></path>
                    <path d="M83.6790411,30.8962132 L82,35.654979 L84.7406163,39 C87.5433049,37.9775596 90.0371748,36.2608696 92,34.0014025 L88.6791269,30 L83.6790411,30.8962132 Z" id="Fill-23" fill="#02529C"></path>
                    <path d="M63.763022,27.8838174 L63,29.7883817 C64.3732856,32.2406639 66.3427724,34.3568465 68.7281553,36 L71.1137309,35.626556 L73,30.8215768 L69.3938974,27 L63.763022,27.8838174 Z" id="Fill-25" fill="#02529C"></path>
                    <path d="M62,15.0262069 L63.7946429,17 L69.1785714,16.1558621 L71,11.3517241 L67.9330357,8 C65.3616071,9.83724138 63.312686,12.257931 62,15.0262069" id="Fill-27" fill="#02529C"></path>
                    <polygon id="Fill-29" fill="#02529C" points="79.7581047 17 74.6957606 17.8503937 73 22.3149606 76.2793017 26 81.3042394 25.1968504 83 20.6259843"></polygon>
                    <path d="M42.7459973,42.1069767 C43.0538503,41.9534884 43.0940051,41.4930233 42.7995369,41.0883721 C42.1704459,40.2232558 39.8147008,40.1813953 39.1186852,40.1255814 C38.3958998,40.0697674 37.5258803,40.0139535 36.4818569,40 L36,43 C37.8471183,42.7069767 41.6216644,42.6651163 42.7459973,42.1069767" id="Fill-31" fill="#02529C"></path>
                </g>
            </g>
        </g>
    </g>
</svg>