<?xml version="1.0" encoding="utf-8"?>
<!-- Generator: Adobe Illustrator 22.1.0, SVG Export Plug-In . SVG Version: 6.00 Build 0)  -->
<svg version="1.1"
	 id="Livello_1" xmlns:cc="http://creativecommons.org/ns#" xmlns:dc="http://purl.org/dc/elements/1.1/" xmlns:rdf="http://www.w3.org/1999/02/22-rdf-syntax-ns#"
	 xmlns="http://www.w3.org/2000/svg" xmlns:xlink="http://www.w3.org/1999/xlink" x="0px" y="0px" viewBox="0 0 8799.7 14769.4"
	 style="enable-background:new 0 0 8799.7 14769.4;" xml:space="preserve">
<style type="text/css">
	.st0{fill:#C8B67F;}
	.st1{fill:#0064AA;}
	.st2{fill:#009C3D;}
	.st3{fill:#FFFFFF;}
	.st4{fill:#E30521;}
</style>
<g>
	<polygon class="st0" points="3237.7,48.2 3019.3,465.9 2976.6,472.1 2762.1,503.8 2499.6,543.2 2481.3,545.9 2500,563.5 
		2763.5,818 2872.8,923.9 2783.8,1459.5 2980.7,1354.3 3242.5,1214.3 3261.4,1204.6 3262.1,1204.6 3457.7,1306.4 3720.8,1443 
		3744.6,1455.4 3720.1,1318.1 3650.5,920.5 3718.4,853.2 3932.2,642.5 4037.1,539 3931.6,524.2 3717,493.8 3499.8,463.8 
		3453.6,371.8 3257,10.7 3256.3,9.6 	"/>
	<polygon class="st0" points="5444.3,38.6 5225.9,456.3 5183.2,462.5 4968.3,494.2 4706.2,533.5 4687.9,536.3 4706.2,553.9 
		4970,808.4 5079.4,913.9 4990,1449.9 5187,1344.7 5449.1,1204.7 5468,1195 5468.7,1195 5664.3,1296.8 5927.4,1433.3 5951.2,1445.8 
		5927.1,1308.5 5857.1,910.8 5925,843.6 6138.8,632.9 6243.7,529.4 6138.2,514.6 5923.6,484.2 5706.4,454.2 5660.1,362.1 5463.6,1 
		5462.9,0 	"/>
	<polygon class="st0" points="1175.4,518.5 957.4,968.2 914.7,974.4 700.1,1006.5 437.7,1045.5 419.4,1048.2 438,1065.8 
		701.5,1320.7 810.9,1426.2 721.9,1961.8 918.8,1857 1180.6,1717 1199.5,1707 1200.2,1707.3 1395.8,1808.7 1658.9,1945.3 
		1682.7,1957.7 1658.2,1820.8 1588.6,1422.8 1656.5,1355.5 1870.3,1144.8 1975.2,1041.7 1869.6,1026.5 1655.1,996.5 1437.5,966.5 
		1391.6,874.1 1195.1,481.3 1194.4,479.9 	"/>
	<polygon class="st0" points="7510.2,490.9 7291.9,940.6 7249.5,946.8 7034.6,978.9 6772.5,1017.9 6754.2,1020.6 6772.5,1038.2 
		7036.4,1293.1 7145.7,1398.6 7056.4,1934.2 7253.3,1829.4 7515.4,1689.3 7534.4,1679.3 7535.1,1679.7 7730.6,1781.1 7993.7,1917.7 
		8017.5,1930.1 7993.1,1792.8 7923,1395.2 7991,1327.9 8205.2,1117.2 8310,1013.7 8204.5,998.9 7989.6,968.9 7772.3,938.5 
		7726.5,846.4 7529.5,453.6 7528.8,452.2 	"/>
	<g>
		<path class="st1" d="M4423.1,14466.3c3640.6-1450.2,4100.6-3403.6,4093.1-4946.3c9.3-414.9-40.7-4474.1-118-6438.6
			c-1755.1-64.1-3211.9-500.1-4028.6-905.7c-880.5,450.4-2370,921.5-4020.6,947c-60.4,1965.5-75.2,6018.5-62.4,6429.3
			C292.8,11097.5,769.7,13046.4,4423.1,14466.3"/>
		<path class="st0" d="M8675.1,2938.6l-5.5-132.1l-132.1-3.4c-1814.8-46.2-3309.8-501.1-4103.7-911.5l-65.5-33.8l-65.2,34.5
			c-858.4,454.2-2374.9,941.9-4055.8,949.1l-171.4,0.3l-4.8,136.2c-63.8,1909.3-80,6161-66.6,6579.3
			c9.3,2434.2,1356.8,4035.5,4368.6,5192.5l51.4,19.7l51-20.4c3001.5-1181.9,4334.8-2794.9,4323.1-5226.3
			C8808.2,9100.6,8755.1,4848.5,8675.1,2938.6 M348.9,3122.7c1650.6-25.5,3140.5-496.3,4021-947
			c816.3,405.6,2273.1,841.5,4028.2,905.7c77.3,1964.5,127.3,6023.7,118,6438.9c7.6,1542.3-452.5,3495.7-4093.1,4946
			C769.7,13046.4,292.7,11097.4,286.5,9552C273.7,9141.3,288.6,5088.2,348.9,3122.7"/>
		<g>
			<path class="st2" d="M2758.7,6367.2c-0.3-62.8,3.1-124.5,9.3-185.5c-587.3,75.9-1171.6,191.8-1750.6,347.6
				c-6.2,1027.8-7.2,2003.4-2.1,3030.8c5.2,969.5,236.6,1707.9,719.8,2332.8c355.2,457.7,860.5,877,1524.4,1254.3L3235,7550.2
				C2942.5,7247,2760.8,6829.4,2758.7,6367.2"/>
			<path class="st3" d="M4395.4,8045.5c-453.2,2.1-863.6-187.6-1160.5-495.2l24.5,5597.1c343.8,195.5,729.4,379.7,1160.2,551.8
				c429-175.5,812.9-362.8,1155-561.1l-24.5-5596.4C5256.2,7851,4847.9,8043.4,4395.4,8045.5"/>
			<path class="st4" d="M6017.1,6353c2.1,462.8-176.6,882.6-467,1188.5l24.5,5596.4c660.5-382.8,1162.6-806.7,1513.7-1267.8
				c477.7-629.1,702.5-1369.9,699.1-2339.3c-3.5-1027.8-13.1-2003.8-27.9-3031.5c-580.4-150.7-1165.7-261.1-1753-332.1
				C6013,6228.2,6016.8,6290.2,6017.1,6353"/>
		</g>
		<g>
			<path class="st0" d="M5857,5629.9c634.6,63.1,1266.7,169.3,1893.1,318.7c-1.4-97.3-3.1-194.5-4.8-291.8
				c-683.6-159.3-1373.7-268-2066.5-326.9C5747.6,5423,5807.6,5523.4,5857,5629.9"/>
			<path class="st0" d="M2911.5,5645.4c48.3-107.2,107.2-208.3,175.2-302.1c-691.8,66.2-1380.9,182.4-2062.7,348.7
				c-0.7,97.6-1.4,194.5-2.1,291.8C1646.4,5828.2,2277.6,5715.1,2911.5,5645.4"/>
			<g>
				<path class="st0" d="M4040,7658.5c116.6,42.1,243.8,63.1,377.6,62.4c228.3-1,457.7-66.9,645.3-185.6
					c236.2-149.3,380.4-335.9,468-498.7c-177.6,223.8-448,395.6-763.9,397c-188,0.7-372.1-58.6-547-176.6
					c-366.3-246.3-602.5-637.7-646.7-1062.6c-155.9,193.8-216.9,469.7-160.4,744.9C3482.7,7277.8,3711.3,7539.9,4040,7658.5"/>
				<path class="st0" d="M3724.7,5723.9c211.1-114.2,432.5-172.4,658.4-173.5c189-0.7,374.9,39.3,543.9,117.3
					c-112.1-331.8-445.9-570.1-815.7-568.7c-224.2,1-439,89.7-621.1,255.6c-256.2,235.6-417.7,627-411.1,997.4
					c4.8,280.7,81.4,500.1,168,660.1c-64.8-190-81.4-398.7-43.1-594.6C3245.7,6207.4,3369.5,5916.7,3724.7,5723.9"/>
				<path class="st0" d="M5043.4,5134.9c-201.1-116.9-423.5-178.3-643.6-177.3c-3.4,0-6.9,0-10.3,0
					c218.3,36.6,425.9,142.8,576.3,299.4c193.8,201.8,289,472.5,275.2,783.2c-20.4,457.3-226.9,869.5-557.7,1122.6
					c270,53.1,575.3-68.3,771.8-305.9c190.4-229.7,262.5-531.5,203.8-849.8C5592.7,5655.3,5351.3,5312.9,5043.4,5134.9"/>
				<polygon class="st0" points="3820.1,6531.2 3819.4,6336 3995.3,6334.9 3995,6244.6 3818.7,6245.3 3818.4,6143.2 4035.7,6142.1 
					4035.3,6051.8 3722.5,6053.2 3724.6,6531.5 				"/>
				<polygon class="st0" points="4214.3,6051.1 4118.8,6051.4 4120.9,6529.8 4216.4,6529.4 				"/>
				<path class="st0" d="M4555.6,6046.9l-157.6,0.7c-55.5,0.3-94.2,39-93.8,94.8l1.4,294.9c0.3,55.9,39,94.2,94.5,94.2l157.6-0.7
					c55.9-0.3,94.2-39,94.2-94.8l-0.7-153.1l-155.9,0.7l0.3,86.6l60-0.3l0.3,47.9c0,15.2-7.2,22.8-22.8,22.8l-109.3,0.3
					c-15.2,0-22.8-7.3-22.8-22.4l-1-257.6c0-15.5,7.2-22.8,22.4-22.8l109.7-0.7c15.2,0,22.4,7.2,22.8,22.8v43.8l95.9-0.7l-0.3-62.1
					C4650,6085.2,4611.4,6046.6,4555.6,6046.9"/>
				<path class="st0" d="M4985,6045.1l-151.4,0.7c-55.9,0.3-94.1,39-94.1,94.8l1.4,294.9c0.3,55.9,39,94.2,94.8,93.8l151.4-0.3
					c55.9-0.3,94.2-39,94.2-94.8l-0.3-61l-95.9,0.3l0.3,42.4c0,15.2-7.2,22.8-22.4,22.8l-103.8,0.3c-15.2,0-22.8-7.3-22.8-22.4
					l-1-258c0-15.2,7.2-22.4,22.4-22.4l103.8-0.7c15.2,0,22.4,7.2,22.8,22.8v40l95.9-0.7l-0.3-58.3
					C5079.5,6083.3,5040.5,6044.7,4985,6045.1"/>
			</g>
			<g>
				<path class="st0" d="M1034.3,3741.3l-7.3,1.7l6.2,1419.5l11.7-2.8c85.2-20.7,170.7-41,256.6-60.4l7.2-1.7l-6.2-1419.5l-11.4,2.4
					C1205.3,3700.3,1119.8,3720.3,1034.3,3741.3"/>
				<path class="st0" d="M1780.6,3579.2l-7.6,1.4l1,261.4l11-2.1c106.2-20,216.6-39.7,327.6-57.9l4.8,1147.8
					c92.8-16.6,185.9-31.7,278.7-46.2l-4.8-1144.7c111.7-16.2,223.5-31,332.1-44.1l8.3-1l-1-261.1l-10.7,1
					C2406.2,3471.6,2090.3,3520.6,1780.6,3579.2"/>
				<path class="st0" d="M3503.6,4758l-1.4-283.8c130.4-9.3,262.8-16.6,393.2-22.1l1.4,283.5c93.8-3.8,187.6-6.6,281.1-8.3
					l-4.8-1126.7c-0.7-156.9-112.8-264.2-269.7-258.3c-138.6,5.9-279.7,13.5-419.4,23.4c-157.3,11-266.6,129-265.9,286.6l4.8,1128.8
					C3316.3,4772.1,3409.7,4764.5,3503.6,4758 M3498.7,3682.3c0-36.6,16.2-54.1,53.1-56.6c94.1-6.2,191.1-11.4,287.6-15.9h4.8
					c33.5-0.3,47.6,14.5,47.6,49.7l2.4,527.7c-130.7,5.5-263.1,13.1-393.2,22.1L3498.7,3682.3z"/>
				<path class="st0" d="M4982.8,3340.1c-87.6-3.1-175.2-5.5-262.8-7.2h-9.7l6.2,1394.7c270.7,5.5,541.8,19.7,812.5,42.1l-1-245.2
					l-8.6-0.7c-173.1-12.8-349-22.4-522.5-29l-5.2-1154.3L4982.8,3340.1z"/>
				<path class="st0" d="M6036.9,3420.1l-10.4-1l6.2,1401.6c93.1,11.4,186.6,23.8,279.7,36.9l-6.2-1404.4l-7.9-1.4
					C6215.2,3441.2,6129.7,3430.5,6036.9,3420.1"/>
				<path class="st0" d="M7052.1,3571.6c-85.9-16.2-161.1,4.1-209,56.6c-37.6,40.4-57.2,96.9-56.9,164.2l5.2,1142.2
					c92.4,16.6,185.2,34.1,278,52.8l-1.4-304.2c130.4,24.5,260.4,50.7,386.6,77.9l1.4,309.7c92.1,21.4,184.2,43.8,275.9,66.9
					l-5.2-1159.5c-0.7-156.9-108.3-290-261.8-323.5C7327.3,3624.7,7188.3,3596.8,7052.1,3571.6 M7453.5,4495.9
					c-127.6-27.6-257.6-53.8-387-77.9l-2.1-529c-0.3-37.6,16.6-42.8,32.8-42.8c5.2,0,10.7,0.7,16.9,1.7
					c97.3,18.6,192.8,37.9,283.5,57.3c36.9,7.9,53.5,28.3,53.5,65.5L7453.5,4495.9z"/>
			</g>
		</g>
	</g>
</g>
</svg>
