<?xml version="1.0" encoding="utf-8"?>
<!-- Generator: Adobe Illustrator 15.0.0, SVG Export Plug-In . SVG Version: 6.00 Build 0)  -->
<!DOCTYPE svg PUBLIC "-//W3C//DTD SVG 1.1//EN" "http://www.w3.org/Graphics/SVG/1.1/DTD/svg11.dtd">
<svg version="1.1" id="Layer_1" xmlns="http://www.w3.org/2000/svg" xmlns:xlink="http://www.w3.org/1999/xlink" x="0px" y="0px"
	 width="336.553116164" height="297.129918569" viewBox="0 0 566.34 500" enable-background="new 0 0 566.34 500" xml:space="preserve">
<path fill="#FFF200" d="M437.88,246.708c1.604,10.719,2.448,21.776,2.448,33.086C440.327,401.08,341.408,500,220.206,500
	C98.919,500,0,401.08,0,279.794c0-53.005,18.906-101.705,50.388-139.771L103.73,0h462.61l-94.024,246.708H437.88z"/>
<path d="M420.915,232.698c3.545,15.192,5.486,30.891,5.486,47.096c0,113.605-92.674,206.195-206.195,206.195
	c-113.605,0-206.195-92.589-206.195-206.195c0-50.389,18.231-96.725,48.532-132.681l50.81-133.103h432.731l-83.389,218.688H420.915z
	"/>
<path fill="#39B54A" d="M220.206,449.95c93.687,0,170.156-76.47,170.156-170.156c0-93.687-76.469-170.156-170.156-170.156
	c-93.687,0-170.156,76.469-170.156,170.156C50.05,373.48,126.519,449.95,220.206,449.95z"/>
<path fill="#FFF200" d="M84.149,239.365h8.778v51.486c0,6.752-1.604,12.66-4.642,17.64c-3.123,4.979-8.947,7.512-17.472,7.512
	h-4.979v-9.622h6.162c3.967,0,6.921-1.266,9.031-3.713c2.11-2.532,3.123-5.993,3.123-10.382V239.365z"/>
<path fill="#FFF200" d="M97.991,316.002l0.169-50.894c0-2.533,0.338-4.896,0.844-7.174c0.506-2.279,1.35-4.642,2.447-6.921
	c2.026-4.136,4.558-7.343,7.681-9.537c6.583-4.642,16.037-4.305,22.621,0c3.375,2.278,6.161,5.57,8.102,9.875
	c1.013,2.193,1.688,4.642,2.194,7.343c0.507,2.701,0.76,5.57,0.76,8.777v48.531h-8.693v-34.857h-23.632v-9.791h23.548l0.084-3.039
	c0-6.246-1.013-11.141-3.123-14.686c-4.305-7.427-16.374-8.355-20.847-0.422c-2.11,3.714-3.123,7.68-3.123,11.901v50.894H97.991z"/>
<path fill="#FFF200" d="M143.906,316.002l7.343-68.028c0.253-3.207,1.097-5.655,2.7-7.428c1.436-1.772,3.208-2.701,5.149-2.701
	c1.52,0,3.039,0.76,4.642,2.194c1.351,1.52,2.363,3.545,2.954,6.162l13.758,52.751l13.167-51.654
	c1.604-6.078,4.304-9.201,8.018-9.201c2.025,0,3.713,0.76,5.064,2.279c1.435,1.519,2.195,3.545,2.448,5.993l7.85,69.631h-9.284
	l-6.415-62.795l-15.023,57.14c-0.422,2.026-1.266,3.545-2.363,4.642c-1.182,1.097-2.448,1.688-3.798,1.688
	c-2.701,0-4.558-2.025-5.655-6.076l-15.023-57.647l-6.162,63.048H143.906z"/>
<path fill="#FFF200" d="M217.674,316.002l0.253-50.894c0-2.533,0.252-4.896,0.759-7.174c0.59-2.279,1.435-4.642,2.532-6.921
	c1.941-4.136,4.558-7.343,7.68-9.537c6.5-4.642,15.953-4.305,22.536,0c3.46,2.278,6.161,5.57,8.103,9.875
	c1.012,2.193,1.772,4.642,2.279,7.343c0.506,2.701,0.759,5.57,0.759,8.777v48.531h-8.693v-34.857h-23.717v-9.791h23.633l0.084-3.039
	c0-6.246-1.097-11.141-3.123-14.686c-4.389-7.427-16.458-8.355-20.932-0.422c-2.109,3.714-3.122,7.68-3.122,11.901v50.894H217.674z"
	/>
<rect x="269.581" y="239.365" fill="#FFF200" width="9.031" height="76.637"/>
<path fill="#FFF200" d="M285.871,269.074c0.591-2.616,1.351-5.148,2.448-7.512c1.857-4.558,4.474-8.524,7.934-11.9
	c1.52-1.52,3.208-2.954,4.979-4.22c1.857-1.266,3.714-2.448,5.655-3.46c3.883-1.688,7.596-2.617,11.141-2.617h8.44v9.622h-7.005
	c-2.617,0-5.065,0.422-7.343,1.181c-2.363,0.76-4.473,1.942-6.499,3.376c-3.798,2.786-6.583,6.331-8.44,10.72
	c-4.473,10.888-3.207,22.873,2.786,33.001c3.544,6.077,10.044,9.115,19.328,9.115h7.175v9.622h-8.778
	c-6.161,0-11.731-1.772-16.796-5.148c-5.064-3.461-8.947-8.103-11.563-14.011C285.365,288.403,284.014,278.275,285.871,269.074z"/>
<path fill="#FFF200" d="M329.676,316.002l0.168-50.894c0-2.533,0.338-4.896,0.844-7.174c0.506-2.279,1.351-4.642,2.448-6.921
	c2.025-4.136,4.558-7.343,7.681-9.537c3.123-2.279,6.667-3.376,10.55-3.376h0.422c4.305,0,8.187,1.182,11.648,3.376
	c3.376,2.278,6.161,5.57,8.103,9.875c1.013,2.193,1.688,4.642,2.194,7.343c0.506,2.701,0.76,5.57,0.76,8.777v48.531h-8.693v-34.857
	h-23.633v-9.791h23.548l0.084-3.039c0-6.246-1.013-11.141-3.123-14.686c-2.279-3.882-5.739-5.908-10.297-5.908h-0.253
	c-4.811,0-8.271,1.857-10.297,5.486c-2.11,3.714-3.123,7.68-3.123,11.901v50.894H329.676z"/>
<polygon fill="#39B54A" points="449.021,37.896 185.601,37.896 309.926,103.055 "/>
<path fill="#FFF200" d="M447.924,204.423l7.259-19.244l-122.637-64.314l177.077-82.968h-48.194l-151.671,71.067L174.291,37.896
	h-44.058l141.881,74.359c20.341,6.33,39.163,16.374,55.706,29.203L447.924,204.423z"/>
<path fill="#39B54A" d="M380.487,208.812h64.399L344.278,156.06C359.386,171.168,371.709,189.061,380.487,208.812z"/>
<path d="M124.749,351.045l12.582,14.458l-4.551,3.959l-8.133-9.345l-4.459,3.88l7.032,8.081l-4.398,3.827l-7.032-8.081l-8.399,7.308
	l-4.449-5.112L124.749,351.045z"/>
<path d="M138.615,366.706l16.249,12.877l-3.746,4.728l-10.937-8.667l-3.143,3.965l9.995,7.921l-3.621,4.569l-9.994-7.921
	l-3.419,4.315l11.222,8.894l-4.023,5.077l-16.534-13.104L138.615,366.706z"/>
<path d="M157.003,381.061l10.002,5.008c7.135,3.573,8.992,10.525,4.987,18.525c-4.24,8.472-10.857,10.863-17.927,7.323
	l-10.001-5.008L157.003,381.061z M153.023,404.152l2.867,1.435c4.648,2.192,7.47,1.114,10.062-4.063
	c2.356-4.706,1.217-8.129-2.921-10.201l-2.867-1.436L153.023,404.152z"/>
<path d="M180.421,392.286l20.057,5.247l-1.526,5.836l-13.5-3.532l-1.281,4.896l12.338,3.228l-1.475,5.64l-12.338-3.228l-1.393,5.327
	l13.854,3.624l-1.639,6.267l-20.41-5.34L180.421,392.286z"/>
<path d="M203.075,397.957l13.245,0.699c4.584,0.242,8.975,2.785,8.667,8.606c-0.165,3.113-1.667,5.993-4.458,7.021l-0.004,0.081
	c2.727,0.874,3.345,4.353,3.418,7.113c0.008,1.216-0.107,5.467,0.747,6.566l-6.695-0.353c-0.531-1.001-0.491-3.837-0.521-4.649
	c-0.028-2.92-0.306-5.935-3.472-6.102l-5.13-0.271l-0.556,10.511l-6.768-0.357L203.075,397.957z M209.18,410.846l5.676,0.3
	c2.037,0.107,3.193-1.047,3.309-3.23c0.113-2.143-1.364-3.194-3.255-3.293l-5.385-0.284L209.18,410.846z"/>
<path d="M234.732,397.859l6.808-1.037l13.971,27.109l-6.988,1.064l-2.365-4.881l-8.969,1.366l-0.84,5.37l-6.88,1.048
	L234.732,397.859z M237.895,415.722l5.835-0.889l-4.37-9.572l-0.072,0.011L237.895,415.722z"/>
<path d="M270.247,395.259l-7.362,2.456l7.096,21.275l-6.429,2.145l-7.096-21.276l-7.362,2.456l-2.049-6.144l21.154-7.056
	L270.247,395.259z"/>
<path d="M270.048,387.75l6.061-3.032l12.931,25.851l-6.06,3.032L270.048,387.75z"/>
<path d="M288.903,375.972c6.662-4.779,14.315-2.048,19.2,4.761c4.885,6.81,5.019,14.935-1.643,19.714
	c-6.662,4.779-14.315,2.048-19.2-4.761S282.241,380.751,288.903,375.972z M302.684,395.184c3.553-2.549,2.414-7.013-0.088-10.5
	c-2.501-3.487-6.365-5.998-9.917-3.448c-3.553,2.549-2.414,7.013,0.088,10.5C295.268,395.222,299.132,397.732,302.684,395.184z"/>
<path d="M300.953,367.621l4.661-5.168l19.281,5.217l0.049-0.054l-13.23-11.928l4.27-4.735l21.469,19.355l-4.661,5.168l-19.432-5.352
	l-0.048,0.054l13.38,12.063l-4.271,4.735L300.953,367.621z"/>
<path d="M112.216,178.671l13.904-13.189l4.151,4.376l-8.988,8.525l4.068,4.288l7.771-7.372l4.012,4.229l-7.771,7.372l7.662,8.077
	l-4.917,4.664L112.216,178.671z"/>
<path d="M143.732,152.69c7.016-4.241,14.431-0.918,18.767,6.253c4.335,7.171,3.831,15.282-3.185,19.522
	c-7.016,4.241-14.431,0.918-18.766-6.253C136.212,165.041,136.717,156.931,143.732,152.69z M155.962,172.923
	c3.742-2.262,2.956-6.801,0.736-10.474s-5.874-6.478-9.615-4.216c-3.742,2.262-2.956,6.801-0.736,10.474
	C148.567,172.38,152.221,175.185,155.962,172.923z"/>
<path d="M176.117,138.089c7.825-2.446,14.235,2.549,16.735,10.548c2.5,7.999,0.076,15.755-7.749,18.201
	c-7.825,2.446-14.234-2.549-16.734-10.548S168.292,140.535,176.117,138.089z M183.171,160.655c4.173-1.304,4.493-5.9,3.212-9.996
	s-4.16-7.692-8.333-6.387s-4.493,5.9-3.212,9.996C176.117,158.364,178.997,161.96,183.171,160.655z"/>
<path d="M220.123,138.03l-7.736,0.612l1.769,22.358l-6.755,0.534l-1.769-22.358l-7.737,0.611l-0.511-6.457l22.229-1.758
	L220.123,138.03z"/>
<path d="M229.394,131.874l12.059,1.637c4.452,0.522,9.152,2.468,8.34,8.445c-0.348,2.567-2.004,4.468-4.178,5.316
	c2.624,1.255,3.962,4.133,3.521,7.383c-0.926,6.819-5.723,8.293-11.247,7.543l-12.384-1.682L229.394,131.874z M233.031,155.452
	l5.38,0.73c2.13,0.289,3.725-0.353,4.046-2.719c0.343-2.527-1.131-3.585-3.153-3.86l-5.38-0.73L233.031,155.452z M234.578,144.059
	l5.2,0.706c1.155,0.157,2.836-0.31,3.114-2.355c0.284-2.086-0.96-2.95-2.368-3.141l-5.199-0.706L234.578,144.059z"/>
<path d="M268.713,140.15l6.447,2.42l-1.054,30.479l-6.618-2.484l0.321-5.415l-8.494-3.189l-3.357,4.274l-6.516-2.446L268.713,140.15
	z M262.747,157.281l5.526,2.075l0.863-10.486l-0.068-0.025L262.747,157.281z"/>
<path d="M291.818,150.27l5.718,3.638l-12.038,18.924l10.237,6.512l-3.476,5.466l-15.956-10.149L291.818,150.27z"/>
<path d="M315.434,166.564l4.917,4.664l-15.436,16.271l8.803,8.35l-4.458,4.699l-13.719-13.014L315.434,166.564z"/>
</svg>
