<?xml version="1.0" encoding="UTF-8" standalone="no"?>
<!-- Created with Inkscape (http://www.inkscape.org/) -->

<svg
   xmlns:dc="http://purl.org/dc/elements/1.1/"
   xmlns:cc="http://creativecommons.org/ns#"
   xmlns:rdf="http://www.w3.org/1999/02/22-rdf-syntax-ns#"
   xmlns:svg="http://www.w3.org/2000/svg"
   xmlns="http://www.w3.org/2000/svg"
   xmlns:sodipodi="http://sodipodi.sourceforge.net/DTD/sodipodi-0.dtd"
   xmlns:inkscape="http://www.inkscape.org/namespaces/inkscape"
   width="88.237251"
   height="116.61069"
   viewBox="0 0 23.346106 30.853247"
   version="1.1"
   id="svg8"
   sodipodi:docname="japan.svg"
   inkscape:version="0.92.3 (2405546, 2018-03-11)">
  <defs
     id="defs2" />
  <sodipodi:namedview
     id="base"
     pagecolor="#00ffff"
     bordercolor="#666666"
     borderopacity="1.0"
     inkscape:pageopacity="0"
     inkscape:pageshadow="2"
     inkscape:zoom="1.4"
     inkscape:cx="98.306522"
     inkscape:cy="5.8763994"
     inkscape:document-units="mm"
     inkscape:current-layer="layer1"
     showgrid="false"
     fit-margin-left="0.1"
     fit-margin-top="0.1"
     fit-margin-right="0.1"
     fit-margin-bottom="0.1"
     units="px"
     inkscape:window-width="1920"
     inkscape:window-height="1017"
     inkscape:window-x="-8"
     inkscape:window-y="-8"
     inkscape:window-maximized="1" />
  <metadata
     id="metadata5">
    <rdf:RDF>
      <cc:Work
         rdf:about="">
        <dc:format>image/svg+xml</dc:format>
        <dc:type
           rdf:resource="http://purl.org/dc/dcmitype/StillImage" />
        <dc:title></dc:title>
      </cc:Work>
    </rdf:RDF>
  </metadata>
  <g
     inkscape:label="Layer 1"
     inkscape:groupmode="layer"
     id="layer1"
     transform="translate(-106.46008,-96.622865)">
    <g
       id="Layer1000"
       transform="matrix(0.26458333,0,0,0.26458333,37.170635,7.27453)">
      <g
         id="Layer1001">
        <path
           inkscape:connector-curvature="0"
           id="path4353"
           style="fill:#ffffff;fill-rule:evenodd"
           d="m 306.0014,442.2489 c 1.6878,-1.1684 3.7885,-2.5375 6.236,-3.9668 3.0971,-1.8085 6.8448,-3.772 11.1954,-5.6593 2.8471,-1.2348 5.2177,-2.4069 7.1929,-3.5462 1.9097,-1.1018 3.4415,-2.1724 4.674,-3.2408 1.0106,-0.8759 1.8029,-1.7595 2.4384,-2.6731 0.637,-0.9156 1.1101,-1.8439 1.4825,-2.8134 1.715,-4.4583 1.5013,-11.9506 1.4755,-12.6986 l -0.0304,-51.8057 h -69.3286 l -0.0303,51.8057 c -0.0258,0.748 -0.2396,8.2403 1.4754,12.6986 0.3728,0.9692 0.8459,1.8981 1.4825,2.8134 0.6356,0.9136 1.4281,1.7975 2.4384,2.6731 1.2325,1.0684 2.764,2.139 4.6743,3.2408 1.9749,1.1393 4.3452,2.3111 7.1926,3.5462 4.3509,1.8873 8.0983,3.8508 11.1955,5.6593 2.4474,1.429 4.5485,2.7987 6.2359,3.9668 z m -5.2322,-78.5097 c -0.7704,0 -1.3946,0.6242 -1.3946,1.3946 0,0.7705 0.6242,1.3947 1.3946,1.3947 0.7705,0 1.3947,-0.6242 1.3947,-1.3947 0,-0.7704 -0.6242,-1.3946 -1.3947,-1.3946 z m 2.2567,0.4745 c 0.0232,0.0468 0.0587,1.2365 0.0587,1.2365 l 3.24,-1.3125 c 0,0 0.0997,-0.1581 0.0351,-0.2401 -0.0646,-0.0819 -0.1641,-0.0467 -0.1641,-0.0467 z m -2.2567,0.2636 c -0.3625,0 -0.6565,0.294 -0.6565,0.6565 0,0.3626 0.294,0.6565 0.6565,0.6565 0.3626,0 0.6565,-0.2939 0.6565,-0.6565 0,-0.3625 -0.2939,-0.6565 -0.6565,-0.6565 z" />
        <path
           inkscape:connector-curvature="0"
           id="path4355"
           style="fill:#ffffff;fill-rule:evenodd"
           d="m 326.9446,440.9453 c -11.4723,4.9768 -18.1953,10.7325 -18.3211,10.8402 -0.8192,0.7963 -1.9619,1.6611 -2.8588,2.4197 l -2.5753,-2.5753 c -0.7415,-0.612 -3.6141,-2.9024 -8.2868,-5.663 -2.7343,-1.6152 -6.0482,-3.3735 -9.8472,-5.0216 -3.2429,-1.4066 -5.9587,-2.7581 -8.2423,-4.0893 -2.3488,-1.3697 -4.284,-2.7374 -5.8986,-4.1371 -1.7181,-1.4896 -3.0745,-3.0113 -4.1726,-4.6009 -1.0951,-1.5855 -1.9282,-3.2378 -2.6034,-4.9941 -0.8583,-2.232 -1.3805,-4.8107 -1.6942,-7.2593 -0.4848,-3.7837 -0.4791,-7.2893 -0.4539,-8.6346 v -69.4355 h 88.0192 V 407.23 c 0.0252,1.3453 0.0309,4.8509 -0.4539,8.6346 -0.3137,2.4486 -0.8359,5.0273 -1.6942,7.2593 -0.6749,1.7563 -1.5083,3.4084 -2.6031,4.9941 -1.0981,1.5896 -2.4545,3.1113 -4.1729,4.6009 -1.6146,1.3997 -3.5498,2.7674 -5.8986,4.1371 -2.2833,1.3312 -4.9994,2.6827 -8.2423,4.0893 z M 306,451.2532 c 0,0 7.5331,-6.4922 20.2833,-12.0234 12.7502,-5.5313 17.312,-10.2175 19.656,-16.3112 2.344,-6.0936 1.9534,-15.612 1.9534,-15.612 v -67.6713 h -83.7854 v 67.6713 c 0,0 -0.3906,9.5184 1.9534,15.612 2.344,6.0937 6.9058,10.7799 19.656,16.3112 12.7488,5.5306 20.2816,12.022 20.2833,12.0234 z" />
        <path
           inkscape:connector-curvature="0"
           id="path4357"
           style="fill:#ffffff;fill-rule:evenodd"
           d="m 294.1719,350.1791 h -2.1665 l 0.8866,-2.1246 0.0119,-0.028 0.8558,-2.0503 0.0309,-0.0743 0.7566,-1.8122 h -3e-4 l 0.2954,-0.7078 3e-4,-3e-4 0.0419,-0.1003 c 0.0709,-0.1358 0.2461,-0.3606 0.6265,-0.3606 h 2.3887 l -0.3362,0.8053 0.152,0.3637 h -3e-4 l 0.7565,1.8122 0.0309,0.0743 0.8558,2.0503 0.0119,0.028 0.8867,2.1246 h -2.1665 l -0.428,-1.0259 h -3.0626 z m 26.2417,-7.2584 h 0.756 1.1988 l 2.8176,3.8965 v -2.1498 -1.5032 c 0.003,-0.1324 0.1111,-0.2401 0.2432,-0.2435 h 0.756 1.1988 v 5.5117 1.5032 c -0.003,0.1324 -0.1111,0.2401 -0.2432,0.2435 h -0.756 -1.1988 l -2.8176,-3.8965 v 2.1498 1.5032 c -0.003,0.1324 -0.1111,0.2401 -0.2432,0.2435 h -0.756 -1.1988 v -5.5117 -1.5032 c 0.003,-0.1324 0.1111,-0.2401 0.2432,-0.2435 z m -17.7537,0 h 0.1174 1.8309 1.5675 0.0582 v 6e-4 c 1.5003,0.0309 2.707,1.2566 2.707,2.7646 0,1.508 -1.2067,2.7337 -2.707,2.7646 h -0.0105 l -0.0477,6e-4 -0.0476,-6e-4 h -1.5199 v 1.7286 h -2.198 v -7.0084 c 0,-0.1378 0.1123,-0.25 0.2497,-0.25 z m 1.9483,1.6401 v 2.2502 h 0.9176 0.0195 0.0193 0.004 c 0.6105,-0.0128 1.1015,-0.5114 1.1015,-1.1251 0,-0.6137 -0.491,-1.1123 -1.1015,-1.1251 v 0 h -0.0236 z m 7.4701,5.6183 h -2.1665 l 0.8867,-2.1246 0.0119,-0.028 0.8558,-2.0503 0.0309,-0.0743 0.7565,-1.8122 h -2e-4 l 0.2953,-0.7078 3e-4,-3e-4 0.042,-0.1003 c 0.0708,-0.1358 0.246,-0.3606 0.6264,-0.3606 h 2.3888 l -0.3362,0.8053 0.1519,0.3637 h -3e-4 l 0.7566,1.8122 0.0309,0.0743 0.8558,2.0503 0.0119,0.028 0.8867,2.1246 h -2.1666 l -0.428,-1.0259 h -3.0625 z m 1.9593,-4.6942 -0.174,0.417 -0.0309,0.0743 v 0 l -0.6959,1.667 h 1.8017 l -0.6959,-1.667 v 0 l -0.0309,-0.0743 z m -24.4406,3.7298 c -0.5354,0.5724 -1.6304,0.9644 -2.8947,0.9644 -0.8819,0 -1.6812,-0.1908 -2.266,-0.5003 l 0.6786,-1.6623 v 0 c 0.4535,0.2158 1.0131,0.4037 1.5874,0.4037 1.3493,0 1.2648,-1.0293 1.2648,-1.0293 v -0.5907 -2.2073 h -1.5403 l 0.6979,-1.6722 h 0.8424 0.8408 0.8901 c 0.2568,0 0.4668,0.174 0.4668,0.3866 v 4.0836 c 0,1.4928 -0.5678,1.8238 -0.5678,1.8238 z m 6.5342,-3.7298 -0.1741,0.417 -0.0309,0.0743 v 0 l -0.6959,1.667 h 1.8017 l -0.6959,-1.667 v 0 l -0.0309,-0.0743 z" />
        <path
           inkscape:connector-curvature="0"
           id="path4359"
           style="fill:#ffffff;fill-rule:evenodd"
           d="m 300.7692,363.7392 c -0.7704,0 -1.3946,0.6242 -1.3946,1.3946 0,0.7705 0.6242,1.3947 1.3946,1.3947 0.7705,0 1.3947,-0.6242 1.3947,-1.3947 0,-0.7704 -0.6242,-1.3946 -1.3947,-1.3946 z m 2.2567,0.4745 c 0.0232,0.0468 0.0587,1.2365 0.0587,1.2365 l 3.24,-1.3125 c 0,0 0.0997,-0.1581 0.0351,-0.2401 -0.0646,-0.0819 -0.1641,-0.0467 -0.1641,-0.0467 z m -2.2567,0.2636 c -0.3625,0 -0.6565,0.294 -0.6565,0.6565 0,0.3626 0.294,0.6565 0.6565,0.6565 0.3626,0 0.6565,-0.2939 0.6565,-0.6565 0,-0.3625 -0.2939,-0.6565 -0.6565,-0.6565 z" />
      </g>
      <g
         id="Layer1002">
        <path
           inkscape:connector-curvature="0"
           id="path4362"
           style="fill:#e30016;fill-rule:evenodd"
           d="m 284.763,397.8595 a 7.383,7.383 0 0 1 7.383,7.383 7.383,7.383 0 1 1 -7.383,-7.383 z" />
        <path
           inkscape:connector-curvature="0"
           id="path4364"
           style="fill:#e30016;fill-rule:evenodd"
           d="m 295.4659,357.971 v 4.6692 c 1.2146,-0.6732 2.5214,-1.402 2.9752,-1.6719 0.9261,-0.5508 1.6178,-0.1703 1.6178,-0.1703 0,0 1.8343,1.2361 2.0744,1.3183 0.2401,0.0823 0.6281,-0.2103 0.7319,-0.5978 0.1037,-0.3875 0.5037,-0.1757 0.5037,-0.1757 0,0 0.9201,0.7208 1.1251,0.9258 0.2049,0.2049 0.4674,0.2145 0.4674,0.2145 0,0 6.0123,0 6.211,0 0.1987,0 0.411,0.1775 0.411,0.1775 0,0 1.0548,0.5624 1.5588,0.9726 0.504,0.4101 -0.2214,0.703 -0.2214,0.703 l -9.7841,4.7919 c -1.8635,0.8405 -0.6916,2.4344 -0.6916,2.4344 l 4.6258,4.9422 6.3383,-10.0372 1.9193,-3.0393 c 0.1987,-0.284 0.5395,-0.7112 1.0435,-1.1483 v -4.3089 z m 8.8393,56.3207 h -0.7263 -2.3561 c -0.4575,0 -0.8317,0.3744 -0.8317,0.8314 v 14.7716 h 3.9141 v -5.4734 h 3.6039 l 1.1226,-3.2462 h -4.7265 v -3.2888 h 2.9917 0.5127 2.4846 l 1.2433,-3.5946 h -1.7958 -1.2019 z m -8.8393,-19.6929 v 0.3555 h 0.18 z m 0,4.9743 v 9.8025 c 0.4243,0.1233 0.8118,0.1029 0.8118,0.1029 h 1.8791 c 0.5142,-0.9811 1.294,-2.4537 1.7799,-3.2956 0.775,-1.3425 0.1638,-2.414 0.1638,-2.414 0,0 -1.5358,-3.0452 -3.3499,-6.6319 v 3e-4 l -1.2294,2.495 z m 0,12.1442 v 2.5744 h 0.1794 c 0.4575,0 0.8317,0.3742 0.8317,0.8314 v 8.778 c 0,3.2091 -1.0111,3.9209 -1.0111,3.9209 v 5.6991 l 0.1324,0.0674 c 1.9153,0.9769 3.662,1.9395 5.2356,2.8582 1.1982,0.6996 2.3672,1.4204 3.4778,2.1311 0.5794,0.3708 1.1432,0.7418 1.6863,1.1061 0.6259,-0.4207 1.2708,-0.8445 1.9242,-1.26 1.0119,-0.6438 2.0968,-1.3091 3.2411,-1.9772 1.5381,-0.898 3.2718,-1.8521 5.2087,-2.8403 v -5.9168 h -1.6223 l -0.7625,2.2051 h -3.8588 l 1.5794,-4.5672 0.021,-0.0601 1.5242,-4.4076 0.0553,-0.1595 1.3473,-3.8957 h -3e-4 l 0.5261,-1.5214 3e-4,-8e-4 0.0746,-0.2154 c 0.1264,-0.2917 0.4385,-0.7753 1.1157,-0.7753 v -2.5744 h -2.78 v -0.3751 h -5.5193 c 0,0 -0.8206,0.0581 -1.2892,0.7263 -0.4686,0.6681 0.3402,-2.59 1.887,-2.59 h 2.581 l -5.2918,-10.2096 h -2.4139 l 2.1095,1.4531 -2.3675,1.1953 2.9064,1.5939 -3.6562,2.2731 -1.7793,3.6942 h 2.5977 c 1.5469,0 2.3556,3.2581 1.887,2.59 -0.4685,-0.6682 -1.2892,-0.7263 -1.2892,-0.7263 h -5.5193 v 0.3751 z m 20.9061,-2.295 v -7.7269 l -2.1949,-2.4265 h -2.3108 l 2.1095,1.4531 -2.3675,1.1953 2.9064,1.5939 -2.876,1.7881 2.1373,4.1792 h 1.9732 c 0,0 0.2789,0.0147 0.6228,-0.0562 z" />
      </g>
      <g
         id="Layer1003">
        <path
           inkscape:connector-curvature="0"
           id="path4367"
           style="fill:#0f0d04;fill-rule:evenodd"
           d="m 306,444.8401 c 3.5495,-2.5489 9.8459,-6.6198 18.2701,-10.2742 5.8547,-2.5395 9.7637,-4.8285 12.4152,-7.1274 2.319,-2.0106 3.6315,-4.0473 4.5105,-6.3335 1.963,-5.1032 1.6152,-13.5751 1.6143,-13.5992 l -0.0198,-0.1992 V 353.719 h -73.5806 v 53.5876 l -0.0198,0.1992 c -9e-4,0.0241 -0.3487,8.496 1.6143,13.5992 0.8793,2.2859 2.1915,4.3229 4.5105,6.3335 2.6515,2.2989 6.5605,4.5879 12.4152,7.1274 8.4242,3.6544 14.7206,7.7253 18.2701,10.2742 z m -11.8281,-94.661 h -2.1665 l 0.8866,-2.1246 0.0119,-0.028 0.8558,-2.0503 0.0309,-0.0743 0.7566,-1.8122 h -3e-4 l 0.2954,-0.7078 3e-4,-3e-4 0.0419,-0.1003 c 0.0709,-0.1358 0.2461,-0.3606 0.6265,-0.3606 h 2.3887 l -0.3362,0.8053 0.152,0.3637 h -3e-4 l 0.7565,1.8122 0.0309,0.0743 0.8558,2.0503 0.0119,0.028 0.8867,2.1246 h -2.1665 l -0.428,-1.0259 h -3.0626 z m 26.2417,-7.2584 h 0.756 1.1988 l 2.8176,3.8965 v -2.1498 -1.5032 c 0.003,-0.1324 0.1111,-0.2401 0.2432,-0.2435 h 0.756 1.1988 v 5.5117 1.5032 c -0.003,0.1324 -0.1111,0.2401 -0.2432,0.2435 h -0.756 -1.1988 l -2.8176,-3.8965 v 2.1498 1.5032 c -0.003,0.1324 -0.1111,0.2401 -0.2432,0.2435 h -0.756 -1.1988 v -5.5117 -1.5032 c 0.003,-0.1324 0.1111,-0.2401 0.2432,-0.2435 z m -17.7537,0 h 0.1174 1.8309 1.5675 0.0582 v 6e-4 c 1.5003,0.0309 2.707,1.2566 2.707,2.7646 0,1.508 -1.2067,2.7337 -2.707,2.7646 h -0.0105 l -0.0477,6e-4 -0.0476,-6e-4 h -1.5199 v 1.7286 h -2.198 v -7.0084 c 0,-0.1378 0.1123,-0.25 0.2497,-0.25 z m 1.9483,1.6401 v 2.2502 h 0.9176 0.0195 0.0193 0.004 c 0.6105,-0.0128 1.1015,-0.5114 1.1015,-1.1251 0,-0.6137 -0.491,-1.1123 -1.1015,-1.1251 v 0 h -0.0236 z m 7.4701,5.6183 h -2.1665 l 0.8867,-2.1246 0.0119,-0.028 0.8558,-2.0503 0.0309,-0.0743 0.7565,-1.8122 h -2e-4 l 0.2953,-0.7078 3e-4,-3e-4 0.042,-0.1003 c 0.0708,-0.1358 0.246,-0.3606 0.6264,-0.3606 h 2.3888 l -0.3362,0.8053 0.1519,0.3637 h -3e-4 l 0.7566,1.8122 0.0309,0.0743 0.8558,2.0503 0.0119,0.028 0.8867,2.1246 h -2.1666 l -0.428,-1.0259 h -3.0625 z m 1.9593,-4.6942 -0.174,0.417 -0.0309,0.0743 v 0 l -0.6959,1.667 h 1.8017 l -0.6959,-1.667 v 0 l -0.0309,-0.0743 z m -24.4406,3.7298 c -0.5354,0.5724 -1.6304,0.9644 -2.8947,0.9644 -0.8819,0 -1.6812,-0.1908 -2.266,-0.5003 l 0.6786,-1.6623 v 0 c 0.4535,0.2158 1.0131,0.4037 1.5874,0.4037 1.3493,0 1.2648,-1.0293 1.2648,-1.0293 v -0.5907 -2.2073 h -1.5403 l 0.6979,-1.6722 h 0.8424 0.8408 0.8901 c 0.2568,0 0.4668,0.174 0.4668,0.3866 v 4.0836 c 0,1.4928 -0.5678,1.8238 -0.5678,1.8238 z m 6.5342,-3.7298 -0.1741,0.417 -0.0309,0.0743 v 0 l -0.6959,1.667 h 1.8017 l -0.6959,-1.667 v 0 l -0.0309,-0.0743 z M 306,451.2532 c 0,0 7.5331,-6.4922 20.2833,-12.0234 12.7502,-5.5313 17.312,-10.2175 19.656,-16.3112 2.344,-6.0936 1.9534,-15.612 1.9534,-15.612 v -67.6713 h -83.7854 v 67.6713 c 0,0 -0.3906,9.5184 1.9534,15.612 2.344,6.0937 6.9058,10.7799 19.656,16.3112 12.7488,5.5306 20.2816,12.022 20.2833,12.0234 z" />
        <path
           inkscape:connector-curvature="0"
           id="path4369"
           style="fill:#0f0d04;fill-rule:evenodd"
           d="m 339.6317,360.58 h -15.0075 -3.458 c -3.4911,0 -5.2617,2.0242 -5.8377,2.8482 l -1.9193,3.0393 -6.3383,10.0372 -4.6258,-4.9422 c 0,0 -1.1719,-1.5939 0.6916,-2.4344 l 9.7841,-4.7919 c 0,0 0.7254,-0.2929 0.2214,-0.703 -0.504,-0.4102 -1.5588,-0.9726 -1.5588,-0.9726 0,0 -0.2123,-0.1775 -0.411,-0.1775 -0.1987,0 -6.211,0 -6.211,0 0,0 -0.2625,-0.01 -0.4674,-0.2145 -0.205,-0.205 -1.1251,-0.9258 -1.1251,-0.9258 0,0 -0.4,-0.2118 -0.5037,0.1757 -0.1038,0.3875 -0.4918,0.6801 -0.7319,0.5978 -0.2401,-0.0822 -2.0744,-1.3183 -2.0744,-1.3183 0,0 -0.6917,-0.3805 -1.6178,0.1703 -0.926,0.5508 -5.4031,3.0121 -5.4031,3.0121 0,0 -0.9031,0.527 -0.9031,1.9568 0,1.4298 0,13.337 0,13.337 l -1.3133,4.5005 c 0,0 -0.4232,1.0392 0.1406,2.0158 0.2778,0.481 2.5002,4.8526 4.6837,9.1638 h -10.0213 l -1.3479,-1.0783 h -0.4805 v 1.3595 h -2.3374 l -1.3451,2.7142 c 1.3425,-0.8575 2.9379,-1.355 4.6491,-1.355 4.3798,0 7.9988,3.2564 8.5689,7.4801 l 6e-4,3e-4 1.1579,-2.3502 v -3e-4 l 3e-4,-6e-4 c 0.007,-0.0249 0.2367,-0.8252 -0.072,-1.1339 -0.3135,-0.3135 -3.2519,-3.5393 -3.2519,-3.5393 h 1.9511 l 2.4035,2.5815 1.2294,-2.495 v -3e-4 c 1.8141,3.5867 3.3499,6.6319 3.3499,6.6319 0,0 0.6112,1.0715 -0.1638,2.414 -0.4859,0.8419 -1.2657,2.3145 -1.7799,3.2956 h -1.8791 c 0,0 -1.2458,0.066 -1.7172,-0.7504 v 1.3128 h -2.3148 c 0,0 -1.6407,0 -1.5565,2.5789 0,0 0.8552,-0.9025 1.6991,-0.9025 0.8439,0 6.0466,0 6.0466,0 v -0.3751 h 5.5193 c 0,0 0.8207,0.0581 1.2892,0.7263 0.4686,0.6681 -0.3401,-2.59 -1.887,-2.59 h -2.5977 l 1.7793,-3.6942 3.6562,-2.2731 -2.9064,-1.5939 2.3675,-1.1953 -2.1095,-1.4531 h 2.4139 l 5.2918,10.2096 h -2.581 c -1.5468,0 -2.3556,3.2581 -1.887,2.59 0.4686,-0.6682 1.2892,-0.7263 1.2892,-0.7263 h 5.5193 v 0.3751 c 0,0 5.2027,0 6.0466,0 0.8439,0 1.6991,0.9025 1.6991,0.9025 0.0842,-2.5789 -1.5565,-2.5789 -1.5565,-2.5789 h -2.3148 v -1.3128 c -0.4714,0.8164 -1.7172,0.7504 -1.7172,0.7504 h -1.9732 l -2.1373,-4.1792 2.876,-1.7881 -2.9064,-1.5939 2.3675,-1.1953 -2.1095,-1.4531 h 2.3108 l 6.5222,7.2102 h 2.6986 l -9.2154,-10.1874 h 2.086 l 9.2154,10.1874 h 2.7927 l -11.8443,-13.0935 h 2.0861 l 11.8442,13.0935 h 3.54 L 319.938,391.0416 h 6.9363 l -4.5266,-4.5266 h -6.5044 l -1.4627,-1.6169 h 7.1533 l 3.3687,-4.5266 h -12.7764 l 1.0211,-1.6169 h 12.9586 l 3.3687,-4.5267 h -13.4689 l 1.0211,-1.6168 h 13.6511 l 3.3687,-4.5264 h -14.1617 l 1.0214,-1.6172 h 14.3438 z m -38.8625,3.1592 c -0.7704,0 -1.3946,0.6242 -1.3946,1.3946 0,0.7705 0.6242,1.3947 1.3946,1.3947 0.7705,0 1.3947,-0.6242 1.3947,-1.3947 0,-0.7704 -0.6242,-1.3946 -1.3947,-1.3946 z m 2.2567,0.4745 c 0.0232,0.0468 0.0587,1.2365 0.0587,1.2365 l 3.24,-1.3125 c 0,0 0.0997,-0.1581 0.0351,-0.2401 -0.0646,-0.0819 -0.1641,-0.0467 -0.1641,-0.0467 z m -2.2567,0.2636 c -0.3625,0 -0.6565,0.294 -0.6565,0.6565 0,0.3626 0.294,0.6565 0.6565,0.6565 0.3626,0 0.6565,-0.2939 0.6565,-0.6565 0,-0.3625 -0.2939,-0.6565 -0.6565,-0.6565 z" />
        <path
           inkscape:connector-curvature="0"
           id="path4371"
           style="fill:#0f0d04;fill-rule:evenodd"
           d="m 295.4656,427.822 c -0.9533,1.23 -2.9038,2.0727 -5.1554,2.0727 -1.5706,0 -2.9945,-0.4102 -4.0359,-1.0757 l 1.2084,-3.5728 v -3e-4 c 0.8081,0.4637 1.8048,0.868 2.8275,0.868 2.4032,0 2.2527,-2.2128 2.2527,-2.2128 v -1.2699 -4.7449 h -2.7433 l 1.243,-3.5946 h 1.5003 1.4973 1.5851 c 0.4575,0 0.8317,0.3742 0.8317,0.8314 v 8.778 c 0,3.2091 -1.0111,3.9209 -1.0111,3.9209 z m 18.5216,2.0727 h -3.8588 l 1.5794,-4.5672 0.021,-0.0601 1.5242,-4.4076 0.0553,-0.1595 1.3473,-3.8957 h -3e-4 l 0.5261,-1.5214 3e-4,-8e-4 0.0746,-0.2154 c 0.1264,-0.2917 0.4385,-0.7753 1.1157,-0.7753 h 4.2548 l -0.599,1.7314 0.2704,0.7815 h -2e-4 l 1.3473,3.8957 0.0552,0.1595 1.5242,4.4076 0.021,0.0601 1.5795,4.5672 h -3.8588 l -0.7626,-2.2051 h -5.4541 z m 3.4897,-10.0908 -0.3101,0.8964 -0.055,0.1595 h -3e-4 l -1.2393,3.5836 h 3.2091 l -1.2393,-3.5836 h -3e-4 l -0.055,-0.1595 z m -13.1717,-5.5122 h -0.7263 -2.3561 c -0.4575,0 -0.8317,0.3744 -0.8317,0.8314 v 14.7716 h 3.9141 v -5.4734 h 3.6039 l 1.1226,-3.2462 h -4.7265 v -3.2888 h 2.9917 0.5127 2.4846 l 1.2433,-3.5946 h -1.7958 -1.2019 z" />
      </g>
      <path
         inkscape:connector-curvature="0"
         id="path4374"
         style="fill:#b09438;fill-rule:evenodd"
         d="m 306.0014,442.2489 c 1.6878,-1.1684 3.7885,-2.5375 6.236,-3.9668 3.0971,-1.8085 6.8448,-3.772 11.1954,-5.6593 2.8471,-1.2348 5.2177,-2.4069 7.1929,-3.5462 1.9097,-1.1018 3.4415,-2.1724 4.674,-3.2408 1.0106,-0.8759 1.8029,-1.7595 2.4384,-2.6731 0.637,-0.9156 1.1101,-1.8439 1.4825,-2.8134 1.715,-4.4583 1.5013,-11.9506 1.4755,-12.6986 l -0.0304,-51.8057 h -69.3286 l -0.0303,51.8057 c -0.0258,0.748 -0.2396,8.2403 1.4754,12.6986 0.3728,0.9692 0.8459,1.8981 1.4825,2.8134 0.6356,0.9136 1.4281,1.7975 2.4384,2.6731 1.2325,1.0684 2.764,2.139 4.6743,3.2408 1.9749,1.1393 4.3452,2.3111 7.1926,3.5462 4.3509,1.8873 8.0983,3.8508 11.1955,5.6593 2.4474,1.429 4.5485,2.7987 6.2359,3.9668 z m 36.8099,-34.7144 3e-4,0.5711 c 2e-4,0.005 0.017,0.4119 0.0226,1.0973 -0.007,2.74 -0.2162,8.2049 -1.6384,11.9021 -0.879,2.2862 -2.1915,4.3229 -4.5105,6.3335 -2.6515,2.2989 -6.5605,4.5879 -12.4152,7.1274 -8.4242,3.6544 -14.7206,7.7253 -18.2701,10.2742 -3.5495,-2.5489 -9.8459,-6.6198 -18.2701,-10.2742 -5.8547,-2.5395 -9.7637,-4.8285 -12.4152,-7.1274 -2.319,-2.0106 -3.6312,-4.0476 -4.5105,-6.3335 -1.4222,-3.6972 -1.6313,-9.1621 -1.6384,-11.9021 0.006,-0.6854 0.0224,-1.0919 0.0226,-1.0973 l 3e-4,-0.5711 0.001,-0.0287 0.0198,-0.1992 V 353.719 H 306 342.7903 v 53.5876 l 0.0198,0.1992 z" />
    </g>
  </g>
</svg>
