<?xml version="1.0" encoding="utf-8"?>
<!-- Generator: Adobe Illustrator 11.0, SVG Export Plug-In  -->
<!DOCTYPE svg PUBLIC "-//W3C//DTD SVG 1.0//EN"    "http://www.w3.org/TR/2001/REC-SVG-20010904/DTD/svg10.dtd" [
	<!ENTITY ns_flows "http://ns.adobe.com/Flows/1.0/">
	<!ENTITY ns_svg "http://www.w3.org/2000/svg">
	<!ENTITY ns_xlink "http://www.w3.org/1999/xlink">
]>
<svg  xmlns="&ns_svg;" xmlns:xlink="&ns_xlink;" xmlns:a="http://ns.adobe.com/AdobeSVGViewerExtensions/3.0/"
	 width="294.07139851" height="340.053471731" viewBox="-0.876 -0.94 550 636" xml:space="preserve">
	<defs>
	</defs>
	<g>
		<path d="M548.915,426.07l-40.322-29.867c21.103-38.235,33.126-82.182,33.126-128.942C541.719,119.659,422.061,0,274.458,0
			C126.856,0,7.198,119.659,7.198,267.261c0,46.76,12.022,90.708,33.124,128.943L0,426.071
			c28.412,48.912,69.522,89.566,118.784,117.437L92.29,585.862c53.714,30.831,115.917,48.478,182.168,48.478
			c66.251,0,128.456-17.647,182.17-48.479l-26.493-42.355C479.396,515.636,520.504,474.981,548.915,426.07z"/>
		<path fill="#FFF200" d="M185.438,609.06l-5.365-1.723l7.389-22.992l-0.077-0.024l-12.524,21.341l-5.632-1.81l2.37-24.605
			l-0.077-0.024l-7.389,22.992l-5.365-1.726l8.842-27.512l8.393,2.696l-1.989,23.29l0.077,0.024l11.875-20.112l8.315,2.673
			L185.438,609.06z"/>
		<path fill="#FFF200" d="M210.543,591.32l0.079,0.016l1.177,11.92l-7.211-1.5L210.543,591.32z M201.995,606.313l10.442,2.175
			l0.598,6.209l6.423,1.338l-4.078-30.367l-6.815-1.42l-15.979,26.19l6.225,1.296L201.995,606.313z"/>
		<path fill="#FFF200" d="M233.977,612.362l14.295,1.462l-0.532,5.205l-20.3-2.074l2.938-28.75l6.006,0.614L233.977,612.362z"/>
		<path fill="#FFF200" d="M268.79,597.205l0.081,0.002l3.297,11.516l-7.363-0.183L268.79,597.205z M263.072,613.489l10.663,0.265
			l1.703,6l6.559,0.163l-9.464-29.142l-6.961-0.173l-11.016,28.635l6.357,0.157L263.072,613.489z"/>
		<path fill="#FFF200" d="M304.082,618.752l-6.026,0.365l-0.661-10.889l-11.055-17.354l7.111-0.431l6.747,12.172l4.943-12.882
			l6.831-0.415l-8.548,18.624L304.082,618.752z"/>
		<path fill="#FFF200" d="M370.739,583.138l0.078-0.022l6.6,9.997l-7.08,2.033L370.739,583.138z M370.168,600.388l10.251-2.944
			l3.424,5.213l6.305-1.811l-17.765-24.965l-6.693,1.922l-1.925,30.621l6.113-1.756L370.168,600.388z"/>
		<path fill="#FFF200" d="M355.915,610.493l-5.887,1.341l-6.422-28.178l5.886-1.341L355.915,610.493z"/>
		<path fill="#FFF200" d="M323.504,607.47c0.253,1.59,1.453,4.517,6.68,3.822c2.834-0.377,5.896-1.476,5.492-4.508
			c-0.297-2.233-2.532-2.546-5.658-2.86l-3.168-0.31c-4.772-0.462-9.379-0.905-10.217-7.209c-0.425-3.191,0.543-9.046,9.839-10.282
			c8.779-1.167,11.896,4.265,12.403,7.771l-5.745,0.764c-0.329-1.256-1.212-4.224-6.438-3.529c-2.274,0.303-4.877,1.501-4.531,4.095
			c0.297,2.234,2.196,2.469,3.431,2.589l7.21,0.787c4.038,0.438,7.841,1.557,8.525,6.704c1.146,8.618-7.531,10.543-10.044,10.877
			c-10.455,1.39-13.051-4.396-13.524-7.947L323.504,607.47z"/>
		<path fill="#FFF200" d="M41.321,439.391l6.771-5.125l2.891,3.819c2.26,2.985,2.276,4.941,0.029,6.642
			c-1.026,0.777-3.594,2.72-6.315-0.874L41.321,439.391z M37.341,442.404l4.178,5.519c4.689,6.194,10.826,3.367,12.913,1.788
			c4.524-3.426,5.341-8.284,1.964-12.744l-7.968-10.528l-23.043,17.442l3.644,4.814L37.341,442.404z"/>
		<path fill="#FFF200" d="M75.609,466.862L65.124,455.67l-4.435,4.155l9.631,10.281l-3.73,3.495l-9.632-10.282l-5.463,5.119
			l10.953,11.691l-3.731,3.494l-14.998-16.009l21.091-19.758l14.53,15.51L75.609,466.862z"/>
		<path fill="#FFF200" d="M80.306,481.717l5.168-5.746l5.596,5.034c2.633,2.368,1.635,4.502,0.612,5.639
			c-1.911,2.124-3.775,1.91-6.109-0.189L80.306,481.717z M65.086,489.79l4.399,3.955l7.563-8.408l4.638,4.172
			c3.322,2.987,2.479,4.287-0.159,7.22c-1.991,2.214-2.808,3.483-3.424,4.771l4.967,4.468l0.512-0.568
			c-0.635-1.221,0.065-1.999,2.892-5.142c3.606-4.01,3.241-5.528,2.175-7.896c2.771,1.193,5.798,0.235,7.924-2.129
			c1.669-1.855,4.417-7.017-1.298-12.158l-10.863-9.771L65.086,489.79z"/>
		<path fill="#FFF200" d="M100.856,507.792c-0.913,1.325-2.061,4.274,2.205,7.374c2.311,1.681,5.286,2.997,7.084,0.521
			c1.325-1.824-0.077-3.589-2.126-5.975l-2.081-2.408c-3.138-3.623-6.17-7.12-2.43-12.265c1.893-2.604,6.629-6.178,14.216-0.663
			c7.163,5.206,5.676,11.29,3.626,14.179l-4.688-3.407c0.626-1.136,2.035-3.896-2.23-6.995c-1.855-1.349-4.566-2.274-6.105-0.158
			c-1.325,1.823-0.111,3.303,0.7,4.24l4.681,5.541c2.622,3.1,4.605,6.532,1.553,10.732c-5.111,7.032-12.724,2.445-14.774,0.954
			c-8.531-6.199-6.423-12.181-4.316-15.078L100.856,507.792z"/>
		<path fill="#FFF200" d="M137.265,514.915l0.071,0.04l-2.469,11.721l-6.424-3.604L137.265,514.915z M124.598,526.637l9.302,5.22
			l-1.299,6.101l5.722,3.21l5.256-30.187l-6.072-3.406l-23.124,20.163l5.546,3.111L124.598,526.637z"/>
		<path fill="#FFF200" d="M157.351,549.691l-5.511-2.469l9.721-21.71l-7.971-3.57l2.09-4.665l21.453,9.606l-2.089,4.666
			l-7.972-3.569L157.351,549.691z"/>
		<path fill="#FFF200" d="M197.666,553.17c-2.3,7.253-7.659,8.974-14.604,6.771c-2.531-0.804-6.097-2.61-7.688-6.113
			c-0.961-2.162-0.831-4.569-0.032-7.357l5.793-18.263l5.87,1.862l-5.671,17.879c-1.216,3.836,0.474,6.23,3.159,7.083
			c3.952,1.253,6.172-0.154,7.23-3.491l5.757-18.148l5.87,1.861L197.666,553.17z"/>
		<path fill="#FFF200" d="M256.634,543.582l5.605,0.58l-2.977,28.746l-6.005-0.621l-9.608-21.715l-0.08-0.008l-2.124,20.498
			l-5.605-0.58l2.978-28.746l6.326,0.655l9.337,21.2l0.08,0.008L256.634,543.582z"/>
		<path fill="#FFF200" d="M218.92,544.935l0.079,0.017l1.241,11.914l-7.218-1.462L218.92,544.935z M210.452,559.974l10.454,2.118
			l0.632,6.206l6.429,1.303l-4.242-30.345l-6.825-1.383l-15.836,26.277l6.233,1.264L210.452,559.974z"/>
		<path fill="#FFF200" d="M408.255,532.648c0.784,1.406,2.921,3.739,7.588,1.286c2.529-1.329,5.024-3.416,3.602-6.123
			c-1.049-1.995-3.253-1.518-6.299-0.736l-3.079,0.802c-4.64,1.211-9.117,2.381-12.075-3.248c-1.499-2.85-2.608-8.679,5.693-13.043
			c7.838-4.12,12.637-0.094,14.321,3.021l-5.13,2.697c-0.743-1.064-2.595-3.549-7.262-1.094c-2.03,1.066-4.059,3.088-2.842,5.404
			c1.05,1.995,2.912,1.561,4.113,1.248l7.039-1.745c3.941-0.981,7.897-1.242,10.313,3.354c4.047,7.696-3.437,12.493-5.681,13.674
			c-9.334,4.907-13.766,0.37-15.434-2.801L408.255,532.648z"/>
		<path fill="#FFF200" d="M288.528,560.238l7.68-0.343c2.171-0.097,4.386,0.77,4.5,3.304c0.131,2.936-1.5,4.297-4.436,4.428
			l-7.399,0.332L288.528,560.238z M283.307,573.203l12.224-0.546c5.91-0.265,7.433-1.341,9.01-3.023
			c1.462-1.555,2.329-3.769,2.229-6.062c-0.129-2.855-1.18-5.628-4.778-6.797c1.181-0.656,3.461-1.928,3.275-6.069
			c-0.133-2.975-2.141-7.317-9.217-7.001l-14.032,0.628L283.307,573.203z M288.029,549.06l6.915-0.309
			c2.733-0.122,4.455,0.526,4.563,2.898c0.102,2.291-1.747,3.301-4.12,3.407l-7.076,0.317L288.029,549.06z"/>
		<path fill="#FFF200" d="M320.348,555.308c-1.436-7.962,2.723-10.758,5.93-11.336c3.209-0.579,8.082,0.586,9.52,8.547
			c1.437,7.962-2.723,10.757-5.93,11.336C326.658,564.435,321.785,563.269,320.348,555.308z M314.407,556.38
			c2.41,13.348,12.604,13.185,16.367,12.505c3.764-0.679,13.372-4.09,10.963-17.438c-2.41-13.348-12.604-13.185-16.367-12.505
			C321.608,539.619,311.998,543.031,314.407,556.38z"/>
		<path fill="#FFF200" d="M354.478,557.031l13.935-3.506l1.278,5.073l-19.791,4.981l-7.053-28.026l5.854-1.473L354.478,557.031z"/>
		<path fill="#FFF200" d="M380.631,530.207l0.076-0.027l7.282,9.512l-6.919,2.524L380.631,530.207z M381.268,547.456l10.021-3.655
			l3.779,4.963l6.164-2.249l-19.471-23.66l-6.542,2.386l0.225,30.682l5.974-2.179L381.268,547.456z"/>
		<path fill="#FFF200" d="M441.512,495.292l-12.889,8.312l3.294,5.107l11.839-7.635l2.771,4.295l-11.839,7.635l4.057,6.292
			l13.463-8.682l2.771,4.296l-18.435,11.889l-15.662-24.287l17.86-11.518L441.512,495.292z"/>
		<path fill="#FFF200" d="M456.987,493.091l-5.327-6.614l3.729-3.005c2.916-2.347,4.87-2.424,6.638-0.229
			c0.809,1.003,2.827,3.511-0.683,6.339L456.987,493.091z M460.118,496.978l5.392-4.343c6.05-4.873,3.038-10.922,1.396-12.96
			c-3.56-4.419-8.439-5.089-12.797-1.578l-10.281,8.281l18.129,22.505l4.702-3.788L460.118,496.978z"/>
		<path fill="#FFF200" d="M476.301,466.184l0.057-0.058L487,471.624l-5.183,5.234L476.301,466.184z M484.232,481.513l7.504-7.578
			l5.536,2.875l4.616-4.661l-27.701-13.099l-4.898,4.948l13.285,27.656l4.475-4.52L484.232,481.513z"/>
		<path fill="#FFF200" d="M510.977,461.056l-3.882,4.625l-22.133-18.584l3.881-4.625l9.003,7.558l-1.909-16.003l5.02-5.981
			l1.48,16.642l21.093,1.419l-4.995,5.949l-15.455-1.31l0.406,4.021L510.977,461.056z"/>
		<path fill="#FFF200" d="M208.159,354.09c-0.471,0.822-11.585,0.361-12.088,1.218c0,0,3.87,0.885,6.541,1.609
			c2.188,0.594,3.069,1.402,2.885,1.71c-2.385,3.968-5.093,8.215-8.083,12.518c0,0-5.367-0.945-8.639-0.118
			c0,0,5.649,4.308,5.247,4.85c-1.179,1.592-2.395,3.181-3.644,4.754c-0.73,0.92-6.884-7.01-12.62-6.406
			c0,0,3.284,2.161,5.636,4.528c2.538,2.557,4.154,5.34,4.027,5.489c-4.535,5.375-9.477,10.463-14.742,14.786
			c0,0-2.166-11.118-4.882-12.023c-0.566-0.188,1.222,14.862,1.222,14.862c-3.379,2.469-6.88,4.597-10.479,6.27
			c0,0-4.025-7.246-13.283-8.856c0,0,37.029-35.419,51.52-57.154c0,0,11.672-1.61,20.527-5.636
			C217.303,336.489,213.997,343.904,208.159,354.09z"/>
		<path fill="#FFF200" d="M126.875,284.836c1.797,2.202,6.845-2.403,10.733-3.354c6.038-1.476,10.465,0.135,10.6-6.977
			c0.103-5.5-0.67-8.989-11.405-9.257c-8.38-0.21-11.27-0.94-11.27,4.561C125.533,273.046,124.307,281.687,126.875,284.836z"/>
		<path fill="#FFF200" d="M142.707,259.881c6.171,1.611,9.391,8.855,11.001,4.159c0.894-2.605-3.236-6.619-3.623-11.135
			c-0.539-6.305,0.403-12.88-1.476-12.88c-5.77,0-14.73,12.03-16.771,17.039C130.363,260.686,136.674,258.308,142.707,259.881z"/>
		<path fill="#FFF200" d="M160.147,258.539c3.221,0,13.686-9.257,13.686-11.94c0-6.392-4.964-15.026-7.781-14.758
			c-5.029,0.479-11.27,4.293-11.673,8.318C153.743,246.519,154.647,258.539,160.147,258.539z"/>
		<path fill="#FFF200" d="M176.651,235.597c1.476,3.22,1.476,8.854,3.22,8.854c6.969,0,16.637-6.842,16.502-10.465
			c-0.129-3.488-4.591-12.891-11.538-12.343c-5.099,0.403-9.124,2.147-12.746,6.708
			C171.454,229.152,175.228,232.495,176.651,235.597z"/>
		<path fill="#FFF200" d="M200.867,209.429c8.788-0.129,13.675-0.974,13.484-8.044c-0.135-4.964-9.345-18.112-15.161-18.112
			c-6.621,0-8.853,4.383-8.853,13.35C190.337,203.695,195.052,209.515,200.867,209.429z"/>
		<path fill="#FFF200" d="M197.58,224.461c2.218,5.271,3.101,11.407,6.038,8.72c4.696-4.293,9.329-10.511,11.209-13.35
			c4.489-6.775-3.301-4.896-10.269-4.896c-6.969,0-12.075-2.198-12.075,1.208C192.482,217.604,195.916,220.503,197.58,224.461z"/>
		<path fill="#FFF200" d="M420.162,386.4c4.88,3.301,21.305,13.668,31.663,12.074c3.488-0.536,1.341-6.709,4.562-6.976
			c3.308-0.276,0.537,13.684-6.172,17.709c-1.397,0.839,0.04,3.916,0.27,5.367c1.827,11.612,7.659,15.902,14.254,16.597
			c0.786,0.083-1.377-11.293,1.31-11.23c2.681,0.063,3.023,11.234,4,11.1c2.666-0.37,5.317-1.146,7.757-2.1
			c0.338-0.133,0.248-3.545-0.756-6.854c-1.005-3.309-2.927-6.516-2.095-6.859c5.229-2.16,6.085,12.3,6.677,12.001
			c3.376-1.702,5.734-3.791,6.956-4.604c3.22-2.147,3.757-10.197,0.805-12.88c-2.668-2.425-8.04-3.777-10.733-6.441
			c-4.473-4.422-6.216-10.192-5.367-11.538c3.221-5.097,3.597,5.55,8.05,9.661c3.49,3.22,12.966,3.063,12.753,1.356
			c-2.279-18.218-21.069-37.582-51.392-22.286c-1.93,0.973-1.838-0.521,0.945-2.463c2.291-1.598,7.085-3.348,8.178-5.587
			c0.934-1.914-2.359-3.405-3.2-5.921c-0.389-1.156-6.627,0.353-6.93-0.955c-0.157-0.687,5.705-1.823,5.736-2.416
			c0.063-1.208-0.469-3.106-0.685-4.463c-0.523-3.285-8.618-0.169-8.479-2.588c0.142-2.441,7.655-0.026,7.268-3.212
			c-0.356-2.936-2.019-5.648-3.638-7.816c-1.29-1.725-4.562-1.878-7.246-2.683c-1.697-0.509-0.577-1.801,0.806-2.146
			c2.146-0.536,2.952-1.855,2.952-3.221c0-4.025-0.562-5.087-2.952-6.439c-3.883-2.196-12.999,9.525-16.368,10.733
			c0,0,2.146-8.586-1.074-8.586c-8.869,0-15.563,14.517-15.563,30.589C402.452,375.398,411.038,380.228,420.162,386.4z"/>
		<path fill="#FFF200" d="M448.482,406.5c0.026-0.017,0.048-0.035,0.077-0.054c1.431-0.857,2.612-2.402,3.551-4.127
			c-0.114-0.219-0.263-0.42-0.443-0.604c-2.719,0.309-5.689,0-8.736-0.74c-0.265,0.221-0.43,0.487-0.43,0.82
			c0,2.122,1.831,3.934,4.729,4.629C447.647,406.525,448.067,406.53,448.482,406.5z"/>
		<path fill="#FFF200" d="M403.542,286.411c-0.394-0.262-1.562-0.35-2.415-0.416c-0.73-0.056-1.499-0.12-2.245-0.276
			c-1.082,0.634-1.814,1.646-1.976,2.809c0.068,0.136,0.135,0.255,0.195,0.333c0.681,0.701,3.146,2.285,7.354,3.24
			c1.08-0.73,1.788-1.843,1.788-3.106c0-0.063-0.02-0.122-0.022-0.185C405.396,287.915,404.5,287.049,403.542,286.411z"/>
		<path fill="#FFF200" d="M434.604,288.895c0-1.965-1.466-3.558-3.272-3.558c-1.544,0-2.83,1.166-3.175,2.729
			c0.893,0.987,1.57,2.434,2.057,4.159c0.35,0.14,0.723,0.227,1.118,0.227C433.139,292.452,434.604,290.859,434.604,288.895z"/>
		<path fill="#FFF200" d="M432.329,304.334c0.726-0.353,1.541-0.601,2.393-0.764c0.341-0.53,0.556-1.226,0.556-1.997
			c0-1.651-0.956-2.99-2.135-2.99c-0.883,0-1.643,0.752-1.966,1.824c-0.002,0.692-0.02,1.384-0.057,2.075
			C431.312,303.32,431.752,304.001,432.329,304.334z"/>
		<path fill="#FFF200" d="M439.482,293.288c-2.193,0-3.271,1.558-3.465,3.875c1.069,0.968,1.762,2.459,1.816,4.191
			c0.946,0.674,2.123,1.058,3.259,1.058c2.436,0,3.756-2.617,3.756-5.366C444.849,292.483,441.918,293.288,439.482,293.288z"/>
		<path fill="#FFF200" d="M386.435,319.045c-0.022,0.132-0.04,0.258-0.063,0.389c-0.535,3.029-1.163,5.623-1.718,7.912
			c-0.678,2.801-1.242,5.178-1.51,7.637c0.048,6.868,0.297,11.756,1.465,11.756c1.361,0,1.743-4.233,1.743-12.932
			c0-8.697,2.438-15.295,1.074-15.295C387.148,318.512,386.805,318.695,386.435,319.045z"/>
		<path fill="#FFF200" d="M432.237,307.511c-2.139,2.39-2.597,8.866-2.281,12.343c0.067,0.738-3.689-0.302-4.763,0.235
			c-2.736,1.368-4.458,4.852-4.494,3.252c-0.038-1.729-0.209-3.813-1.342-5.567c-2.82-4.367-5.937-5.937-5.937-5.937
			c13.282,6.24,11.422,3.432,12.462,1.423c0.674-1.297,1.263-2.683,1.658-4.138c2.355-8.684,0.49-19.113-2.013-19.858
			c-1.24-0.368,0.067,5.87-12.913,6.172c-9.475,0.22-15.5-2.864-17.407-4.83c-1.808-1.864-4.328-13.786,0.503-14.591
			c0.971-0.162,2.114,1.334,2.313,3.119c0.121,1.073-1.092,2.137-0.101,3.321c1.227,1.465,5.057,0.491,7.044,1.812
			c3.563,2.368,6.037,6.843,7.446,7.346c7.036,2.512,9.979-1.545,9.659-4.528c-0.192-1.819-2.764-2.757-2.917-3.12
			c-1.408-3.321,1.857-3.679,0.201-8.15c-1.007-2.718-3.724-4.428-5.535-5.534c-1.815-1.109-0.974-3.069-0.1-3.019
			c1.698,0.096,7.785,3.06,10.465,7.748c1.213,2.122-1.543,6.306,0,7.748c2.176,2.034,6.439-1.107,8.854,0.201
			c8.932,4.838,10.379-3.717,7.38-6.171c-1.536-1.256-7.246,0.269-7.246,0.269c-5.786-7.567-13.243-15.808-18.85-21.869
			c-2.482-2.684-22.876-3.22-39.043-13.182c0,0,0.604,6.037-1.007,13.182c0,0-22.539,12.075-31.394,29.516
			c-2.26,4.451-3.945,8.624-3.521,12.142c0.714,5.943,4.786,10.229,2.918,12.377c-0.76,0.873-1.942,0.556-2.013,0.503
			c-1.026-0.778-2.793-3.797-4.327-6.944c-2.724-5.586-2.513-10.524,6.34-24.049c4.649-7.104,13.64-17.386,27.973-24.552
			c1.813-0.906,1.813-15.899,1.813-15.899c6.134-1.812,18.04,7.437,25.559,9.056c10.91,2.35,14.892,4.226,11.136-4.494
			c-1.898-4.404-17.185-15.952-32.604-13.417c-14.108,2.319-23.076,11.404-26.564,22.272c-0.765,2.38-2.566,0.625-2.415-0.537
			c5.099-39.713,56.35-19.588,39.502-29.874c-2.429-1.482-4.933-2.975-7.569-4.338c-2.977-1.539-5.836-3.642-9.156-4.648
			c-2.919-0.886-16,6.158-19.286,6.671c-1.218,0.19,16.063-8.362,12.614-9.294c-2.131-0.576-4.279-1.151-6.53-1.403
			c-2.977-0.334-17.088,7.87-21.917,7.467c-9.229-0.769,9.461-6.073,10.465-7.648c1.915-3.005-4.81-3.729-6.439-4.025
			c-12.02-2.171-29.469,9.778-35.421,12.88c-3.982,2.076-6.038-0.403,8.587-10.868c0.997-0.714-18.246,0-26.833,4.293
			c0,0-4.553,5.154-7.514,9.124c-20.947,28.089-40.25,78.353-40.25,78.353c1.844-11.064,4.699-18.695,7.647-24.903
			c0,0-3.354-3.003-0.893-7.666c3.99-7.564,9.346-9.29,9.346-9.29c13.622-34.182,17.709-42.397,8.587-37.567
			c-4.244,2.247-7.797,6.522-11.807,9.66c-12.343,9.66-28.98,71.914-28.98,71.914c7.635-40.215,9.345-63.279,9.282-65.886
			c-0.664,0.99-12.515-1.208-19.478,8.999c-4.331,6.345-4.241,22.487-6.978,25.223c-1.609,1.61,0.461-17.862-3.22-18.783
			c-4.293-1.074-13.813,4.84-16.1,7.513c-7.109,8.309-10.868,17.576-17.709,31.663c-1.827,3.761,9.123-26.296,2.281-19.856
			c-10.834,10.197-16.1,22.137-17.309,22.137c-2.41,0-2.332-5.634-4.427-5.634c-9.625,0-15.294,3.622-19.319,8.05
			c0,0,7.646,9.257,12.88,16.1c0,0-11.271,10.867-12.478,29.786c-1.105,17.313-6.842,26.564-9.659,29.784
			c0,0,0.799,0.677,2.23,2.097c6.563,5.441,11.882,12.014,15.108,18.283c1.285,1.802,2.613,3.711,3.994,5.781
			c2.415,3.623,9.911-4.646,15.326-11.319c1.373-1.69-10.524-14.782-8.887-16.452c0,0,14.893,9.257,18.702,6.228
			c1.037-0.824,2.032-1.712,2.99-2.648c1.233-1.205-5.994-13.238-5.994-13.238c1.46-1.735,11.919,5.438,13.684,4.024
			c2.013-1.61,5.232-6.037,6.972-9.563c0,0-9.318-7.464-8.388-8.704c0.915-1.221,13.065,2.446,13.895,1.362
			c0.239-0.313,6.439-6.843,5.232-9.659c-4.488-10.471-28.175-18.918-28.175-18.918c4.317-0.769,20.125,4.83,31.797,15.697
			c0,0,1.555-7.758,0.403-10.063c-5.232-10.464-13.685-16.502-13.685-16.502c9.66,2.816,17.71,8.452,22.942,16.502
			c0,0-7.245,8.05-8.05,14.893c0,0,6.069-2.193,15.963-4.275c2.711-0.569,5.313-4.299,8.589-4.178
			c10.868,0.403,29.785,0.807,46.69,2.013c1.295,0.093-18.008-4.025-17.979-17.576c0.067-31.327,22.004-67.552,35.286-77.816
			l2.214,2.818c-18.918,14.892-39.901,65.224-32.2,81.909c1.208,2.615,15.295,8.05,21.333,11.671
			c3.02,1.813,25.156,1.813,25.156,1.813c-0.826,5.574-0.831,10.204-0.198,14.086c-9.614-4.879-20.482-7.647-32.002-7.647
			c-39.124,0-70.839,31.718-70.839,70.841c0,33.092,22.693,60.881,53.366,68.663c-0.278,2.911-2.09,7.093-4.269,11.301
			c-1.983,3.829-3.08,7.14-4.5,9.391h8.533c1.421-2.251,2.517-5.562,4.5-9.391c1.811-3.498,3.376-6.983,4.02-9.737
			c1.919,0.249,3.858,0.436,5.822,0.528c-0.705,2.661-2.187,5.931-3.884,9.209c-1.983,3.829-3.079,7.14-4.5,9.391h8.533
			c1.422-2.251,2.517-5.562,4.501-9.391c1.722-3.327,3.23-6.648,3.926-9.335c2.059-0.149,4.095-0.375,6.101-0.697
			c-0.589,2.795-2.19,6.402-4.07,10.032c-1.983,3.829-3.079,7.14-4.501,9.391h8.533c1.422-2.251,2.518-5.562,4.501-9.391
			c2.365-4.566,4.321-9.124,4.326-12.033c29.331-8.665,50.743-35.791,50.743-67.931c0-17.23-6.157-33.02-16.385-45.301
			c0.885-3.296,2.824-10.976,2.196-12.86c-0.065-0.194,4.126-0.503,4.227,0.503c0.436,4.355-2.857,14.673-2.421,14.735
			c1.709,0.25,3.428,0.462,5.137,0.66c1.364,0.159,2.714,0.326,4.027,0.479c0,0,1.286-13.831,2.011-13.761
			c0.258,0.025,3.623,0.806,3.623,0.806c0.523,4.337-1.107,13.382-1.107,13.382c3.881,0.24,7.073-0.029,8.755-1.71
			c4.203-4.202,4.226-23.646-4.831-31.898c-4.051-3.691-7.697-8.447-12.577-10.464c-7.229-2.989-16.301-2.616-16.301-2.616
			c1.307-2.314,10.866-1.912,13.885-0.805c0,0,0.057-4.61,0.589-5.012c-0.948-1.473-3.908-6.058-6.927-8.775
			c-1.406-1.265-4.273-2.631-4.429-2.683c-0.805-0.268-2.548-1.414-4.83,0.402c-5.08,4.046-12.261,14.081-11.94,13.282
			c5.232-13.014,13.663-16.913,13.551-17.307c-0.546-1.908,1.008-3.694-0.805-4.696c-5.098-2.817-24.843,0.109-23.076-0.805
			c3.891-2.012,23.524-1.374,23.524-2.012c0-0.194,0.894-2.281,0.222-2.952c-4.294-4.295-15.428-8.185-15.428-8.185
			c5.232-0.805,18.755,6.256,18.755,6.256c1.37-1.721,2.437-3.473,1.639-4.646c-4.294-6.306-15.765-5.597-13.954-6.172
			c8.452-2.683,16.87,4.369,17.309,4.697c5.365,4.025-2.568,3.581-3.488,10.331c-0.389,2.841-0.51,6.817,0.267,8.721
			c0.903,2.209,3.312,4.138,4.831,6.038c3.891,4.864,6.337,8.285,5.466,8.885c1.401,1.453,1.681,5.82,2.314,6.078
			c6.959,2.836,14.29,7.5,20.663,10.931c15.697,8.452,1.207,27.37,21.735,31.798c5.814,1.253,15.987,3.744,20.623,2.448
			c-0.314-1.545-0.498-3.196-0.498-4.998c0-4.852,0.602-9.746,1.741-14.253c-2.721-0.643-13.203,0.496-17.842-0.707
			c-2.605-0.675-1.61-9.259-1.61-10.464c0-6.038,2.016-10.749,3.421-18.716c1.227-6.958,1.702-13.708,5.031-17.106
			c2.03-2.074,5.022-2.026,8.077-1.097c1.469,0.446,2.791-3.431,4.903-3.13c5.235,0.748,6.648,9.434,6.742,9.961
			c0.065,0.372-0.964,1.859-2.917,1.208c-1.867-0.622-1.729-6.97-4.528-7.145c-4.831-0.301,1.021,11.271-3.725,11.17
			c-4.729-0.101,1.51-12.377-6.439-8.755c-0.372,0.171-4.024,9.963-3.421,11.875c1.575,4.989,6.943,19.723,6.943,19.723
			c10.541-4.75,20.728-7.044,23.747-6.238c3.271,0.871,3.476,4.532,3.476,4.532c4.775-4.634,7.722-5.848,10.209-9.665
			c2.675-4.104,8.441-8.764,9.123-13.652C442.972,305.096,434.519,304.961,432.237,307.511z M160.147,338.502
			c-5.104-1.146-5.031-1.206-5.031-1.206c1.51-1.57,7.449-0.301,8.684,0.227c2.634,1.128,6.41,4.603,6.41,4.603
			C170.162,342.082,162.24,338.973,160.147,338.502z M171.821,327.031c4.82,2.574,6.439,6.642,6.439,6.642
			c-2.463-2.557-6.329-4.947-11.672-6.642c-6.035-1.914-16.301-2.213-16.301-2.213c1.981-1.736,10.093-1.682,14.088-0.604
			C166.373,324.754,170.388,326.267,171.821,327.031z M318.448,351.878c1.897-0.022,4.353-0.786,4.61,0.511
			c0.535,2.672-0.002,5.823-0.61,8.399c-1.482-1.501-3.034-2.931-4.643-4.295C318.011,354.013,318.224,351.88,318.448,351.878z
			 M333.223,410.55c0,33.734-27.445,61.181-61.18,61.181c-33.734,0-61.18-27.446-61.18-61.181c0-33.735,27.446-61.181,61.18-61.181
			C305.777,349.369,333.223,376.814,333.223,410.55z M296.596,264.845c-3.725-0.503-13.384,0.201-13.384,0.201
			c5.435-3.119,14.994-2.616,17.71-1.508c3.504,1.426,5.031,4.624,5.031,4.624C303.337,266.351,298.773,265.139,296.596,264.845z
			 M323.697,266.336c-0.905-5.132-2.763-10.395-11.471-16.201c-3.02-2.013-19.321-1.106-19.321-1.106
			c5.209-3.913,14.517-5.874,20.729-3.019c3.437,1.578,7.761,5.625,9.356,9.961C324.854,261.03,323.697,266.336,323.697,266.336z
			 M325.776,230.129c-3.019-2.013-19.32-1.106-19.32-1.106c5.21-3.913,14.517-5.874,20.729-3.019
			c3.437,1.579,7.761,5.625,9.356,9.961c1.864,5.059,0.706,10.365,0.706,10.365C336.343,241.198,334.485,235.936,325.776,230.129z
			 M355.834,289.007c-2.904,16.46,3.358,26.019,3.358,26.019c-4.735-4.475-8.922-15.505-7.837-22.255
			c0.543-3.377,0.786-9.337,2.193-11.625c3.22-5.232,15.497-13.885,15.497-13.885C365.266,271.748,358.142,275.925,355.834,289.007z
			 M367.033,298.252c0-3.42,0-10.464,0.603-13.081c1.439-6.232,9.46-12.075,9.46-12.075c-3.019,5.031-6.038,7.447-6.24,20.729
			c-0.253,16.713,7.446,25.156,7.446,25.156C372.918,315.313,367.033,305.089,367.033,298.252z M386.554,293.02
			c-1.812-1.208-3.12-4.229-3.12-7.647c0-1.711,0-4.327,0.303-5.635c0.719-3.117,4.729-6.943,4.729-6.943
			c-1.509,2.516-2.917,5.735-3.119,10.363C385.118,288.386,386.554,293.02,386.554,293.02z M384.943,262.123
			c-6.235,1.625-11.471,3.327-11.471,3.327c1.811-2.214,6.627-3.983,10.465-5.434c9.056-3.422,11.673,0,11.673,0
			C392.099,259.768,389.171,261.022,384.943,262.123z"/>
		<path fill="#FFF200" d="M314.056,437.447c0,0.992,0.058,1.972,0.158,2.938l-1.69,0.578c-4.047-10.266-17.983-16.125-32.998-13.285
			c-7.138,1.351-13.333,4.445-17.877,8.503l-0.834-0.822c6.421-5.83,10.558-14.854,10.558-25.008c0-2.114-0.188-4.177-0.529-6.176
			h2.454c0.209,0.697,0.411,1.394,0.669,2.089c5.809,15.645,22.083,24.448,36.347,19.663c13.9-4.664,20.73-20.509,15.694-35.794
			c-0.909-2.397-1.967-4.724-3.177-6.958c-7.242-11.947-21.152-18.065-33.555-13.904c-0.202,0.067-0.387,0.16-0.585,0.233
			l-0.896-1.466c4.634-2.63,8.224-5.659,10.444-8.876c-7.865-4.025-16.762-6.312-26.188-6.312c-18.211,0-34.467,8.49-45.051,21.708
			c4.036,1.227,8.608,2.098,13.572,2.527v1.654c-13.746,1.824-24.425,15.271-24.425,31.61c0,13.369,7.155,24.797,17.284,29.515
			c-1.998-0.47-4.07-0.742-6.208-0.742c-1.707,0-3.37,0.177-4.991,0.48c7.135,12.188,18.602,21.537,32.283,25.913
			c-0.085-1.815-0.347-3.58-0.756-5.29l1.798-0.345c1.579,3.029,4.077,5.6,7.202,7.609c3.027,0.491,6.128,0.759,9.292,0.759
			c16.13,0,30.728-6.662,41.209-17.368c0.473-2.12,0.572-4.29,0.224-6.457l1.367-0.467c0.314,1.314,0.739,2.586,1.233,3.82
			c8.119-9.59,13.164-21.852,13.616-35.266C320.46,416.942,314.056,426.428,314.056,437.447z M244.158,377.321
			c4.25,0.182,8.726,0.063,13.332-0.402c10.369-1.045,19.755-3.664,27.12-7.217l0.788,1.292c-10.021,5.43-15.2,17.309-12.981,29.595
			h-2.38c-3.538-12.666-13.76-21.854-25.879-22.055V377.321z M253.917,455.233c0.081,0.427,0.213,0.834,0.326,1.249l-1.55,0.297
			c-2.588-6.752-7.715-12.211-14.212-15.186c1.709,0.382,3.471,0.597,5.278,0.597c5.209,0,10.066-1.695,14.223-4.587l1.157,1.139
			C254.9,443.604,252.821,449.438,253.917,455.233z"/>
		<path fill="#FFF200" d="M361.396,79.495c-5.031,0-31.798-22.54-32.2-28.175c-0.258-3.618,24.689-2.817,31.998-2.817
			c3.824,0,27.371,16.905,28.577,28.98C390.094,80.711,368.704,79.495,361.396,79.495z"/>
		<path fill="#FFF200" d="M328.389,509.564c-3.486-4.562-6.17-7.246-10.731-11.001c-11.837-9.748-16.369-13.954-15.096-14.845
			c1.493-1.044,4.862-1.094,6.776-0.988c9.66,0.537,24.149,9.394,30.322,19.053L328.389,509.564z"/>
		<path fill="#FFF200" d="M390.174,107.303c-11.727,0.518-25.746-10.95-28.325-23.941c1.261,0.008,2.872,0.042,4.731,0.085
			c16.022,0.364,22.603,0.052,25.405-2.372c10.172,6.444,19.778,13.7,28.736,21.672C414.818,104.49,397.916,106.962,390.174,107.303
			z"/>
		<path fill="#FFF200" d="M393.613,77.538c-0.001-0.147,0.018-0.292,0.002-0.44c-0.857-8.573-10.685-18.917-19.514-25.586
			c3.304-1.573,7.396-2.454,12.45-2.404c14.931,0.145,28.979,15.295,32.803,32.602c0.913,4.137,3.307,13.426,3.615,17.872
			C413.819,91.465,404.004,84.087,393.613,77.538z"/>
		<path fill="#FFF200" d="M346.1,451.604c12.543-13.543,18.374-31.663,30.859-31.663c0.034,0,0.067,0.001,0.103,0.001
			c-3.283,5.338-5.615,11.245-6.601,17.362c-0.426,2.636-1.23,6.436-2.081,10.461c-2.313,10.933-3.447,16.861-3.157,20.157
			c-15.61,7.09-32.191,12.396-49.479,15.688c0.014-0.116,0.018-0.223,0.035-0.344C316.725,477.023,334.955,463.639,346.1,451.604z"
			/>
		<path fill="#FFF200" d="M366.639,471.526c0.004,0.008,0.011,0.017,0.014,0.023c2.173,2.288,8.857,4.563,33.937,5.028
			c-5.109,10.521-16.394,17.208-35.438,17.208c-15.06,0-28.359-3.593-36.389-9.081C341.879,481.428,354.546,477.005,366.639,471.526
			z"/>
		<path fill="#FFF200" d="M409.049,400.658c-0.576,5.782-2.891,31.601,0.661,40.305c-12.542,9.789-26.166,18.249-40.662,25.171
			c0.302-6.008,4.065-21.018,5.227-28.214C377.019,420.91,392.23,403.933,409.049,400.658z"/>
		<path fill="#FFF200" d="M412.152,443.956c2.99,1.737,8.974,1.779,23.573,1.103c2.915-0.135,5.69-0.263,7.922-0.306
			c-3.551,15.593-16.937,28.05-33.148,28.05c-9.678,0-33.28-0.254-39.72-3.213C385.529,462.539,399.393,453.925,412.152,443.956z"/>
		<path fill="#FFF200" d="M457.337,327.953c-1.747-4.277-2.753-9.301-2.753-14.673c0-9.91,3.429-18.615,8.606-23.663
			c5.344,10.724,12.685,19.753,17.962,24.82c0.321,0.308,0.634,0.6,0.937,0.879c0.123,0.109,0.247,0.227,0.366,0.333
			c0.411,0.367,0.812,0.714,1.187,1.021c0.429,0.354,0.842,0.676,1.245,0.975c0.238,0.176,0.464,0.324,0.693,0.48
			c0.154,0.108,0.316,0.228,0.469,0.326c0.301,0.195,0.593,0.365,0.881,0.527c0.068,0.04,0.141,0.088,0.209,0.124
			c0.321,0.175,0.635,0.325,0.94,0.46c0.028,0.014,0.058,0.029,0.086,0.041c0.074,0.031,0.143,0.049,0.216,0.078
			c-4.206,17.158-10.42,33.532-18.391,48.857C465.794,346.457,460.315,335.25,457.337,327.953z"/>
		<path fill="#FFF200" d="M480.497,360.743c0,0-1.512,0.548-2.975,1.258c6.238-13.316,11.202-27.34,14.737-41.917
			c4.373-1.124,18.764-11.652,29.206-28.243c1.448,3.126,2.001,7.945,2.001,15.401C523.467,326.205,508.513,349.038,480.497,360.743
			z"/>
		<path fill="#FFF200" d="M460.141,263.504c0-6.259,1.246-11.857,3.411-16.749c9.679,11.153,22.837,20.425,31.134,21.769
			c-0.093,16.254-1.952,32.096-5.399,47.342C481.492,311.945,460.141,286.527,460.141,263.504z"/>
		<path fill="#FFF200" d="M498.556,268.04c6.426-3.897,18.202-24.209,23.011-39.001c5.173,4.607,7.637,12.591,7.536,25.878
			c-0.245,32.002-26.949,55.77-35.781,60.581C496.69,300.2,498.499,284.323,498.556,268.04z"/>
		<path fill="#FFF200" d="M455.051,221.51c0-3.224,0.334-6.819,0.975-10.53c3.962,2.301,8.416,4.408,13.376,6.455
			c11.735,4.841,17.58,6.496,21.006,6.481c2.642,13.181,4.094,26.785,4.26,40.692C482.393,262.05,455.051,238.059,455.051,221.51z"
			/>
		<path fill="#FFF200" d="M494.135,222.838c9.39-6.005,12.132-22.692,12.843-38.126c9.019,8.159,14.483,21.109,12.733,35.589
			c-1.807,14.943-15.783,37.118-21.196,43.034C498.275,249.499,496.785,235.961,494.135,222.838z"/>
		<path fill="#FFF200" d="M470.874,213.862c-21.331-8.799-32.053-17.876-31.66-39.712c4.042,1.826,8.434,3.407,13.152,4.671
			l0.661,0.177c13.981,3.75,21.087,5.085,25.074,4.413c4.846,11.726,8.704,23.956,11.479,36.591
			C484.741,219.567,474.684,215.433,470.874,213.862z"/>
		<path fill="#FFF200" d="M493.255,218.716c-2.833-12.772-6.756-25.138-11.671-36.996c2.927-2.928,5.833-10.539,5.833-41.649
			c0-1.515-0.129-3.103-0.359-4.732c9.486,9.694,16.285,25.321,16.285,38.408C503.343,187.897,502.474,211.046,493.255,218.716z"/>
		<path fill="#FFF200" d="M458.54,139.596c1.66-2.571,2.238-8.387,2.124-29.031l-0.014-3.299c0-2.131-0.206-4.281-0.589-6.416
			c13.886,7.812,23.492,26.509,23.492,39.22c0,9.383-0.171,30.691-3.735,37.515C473.947,164.189,466.805,151.477,458.54,139.596z"/>
		<path fill="#FFF200" d="M453.366,175.089c-22.541-6.038-37.03-19.321-37.688-32.703c-0.016-0.314-0.018-0.642-0.024-0.964
			c2.776,0.783,5.55,1.238,8.234,1.304l5.294,0.159c15.103,0.49,22.435,0.43,26.255-0.986c8.209,11.815,15.291,24.469,21.093,37.806
			C471.391,179.973,459.595,176.756,453.366,175.089z"/>
		<path fill="#FFF200" d="M453.088,138.58c-5.593,1.298-20.001,0.509-29.105,0.284c-14.629-0.362-31.51-13.078-34.819-27.725
			c0.393,0.004,0.793,0.042,1.18,0.024c0.282-0.013,25.34-1.934,33.434-5.647C434.606,115.523,444.434,126.6,453.088,138.58z"/>
		<path fill="#FFF200" d="M426.543,102.816c0.805-2.476,0.128-6.823-2.643-18.601l-0.773-3.34c-0.6-2.715-1.436-5.341-2.443-7.87
			c1.021-0.094,2.055-0.151,3.099-0.151c19.333,0,33.005,17.752,33.005,34.413c0,6.403,0.301,22.83-0.926,28.563
			C447.183,123.883,437.356,112.825,426.543,102.816z"/>
		<path fill="#FFF200" d="M508.683,346.979c-8.254,8.113-19.368,15.171-33.494,19.855c-1.001,2.009-2.039,3.996-3.098,5.971
			c2.765,0.705,5.16,1.698,7.181,2.776c5.917,3.153,10.787,8.216,14.013,14.264c8.719-8.195,15.029-20.55,15.425-39.133
			C508.739,349.306,508.728,348.077,508.683,346.979z"/>
		<path fill="#FFF200" d="M448.732,352.504c0.117,0.97-0.05,1.901-0.468,2.707c0.82,0.649,1.441,1.593,1.662,2.976
			c0.055,0.351,0.145,0.784,0.238,1.243c0.27,1.302,0.548,2.649,0.481,3.896c-0.01,0.19-0.055,0.352-0.088,0.521
			c0.482,0.392,0.874,0.924,1.118,1.658c0.145,0.428,0.714,1.06,1.216,1.617c1.001,1.109,2.733,3.046,2.234,5.519
			c4.266-0.888,8.108-1.047,11.538-0.746c-3.647-20.479-8.399-31.801-11.637-39.45l-1.17-2.796
			c-3.725,2.101-7.048,6.491-9.44,13.436c0.018,0.023,0.04,0.041,0.059,0.065C446.075,345.287,448.256,348.584,448.732,352.504z"/>
		<path fill="#FFF200" d="M464.401,434.374c-6.522-0.687-14.784-4.593-17.099-19.298c-0.026-0.171-0.158-0.629-0.255-0.964
			c-0.235-0.825-0.585-2.045-0.631-3.313c-9.254,11.066-19.548,21.233-30.74,30.34c5.819,1.188,21.865-0.269,29.438-0.269
			c7.123,0,13.986-2.281,20.004-6.425C464.752,434.411,464.401,434.374,464.401,434.374z"/>
		<path fill="#FFF200" d="M418.358,389.067l-0.909-0.611c-2.488,4.056-4.072,8.045-4.445,11.495
			c-1.099,10.181-2.229,31.553-0.172,38.521c10.303-8.344,19.846-17.588,28.495-27.628c-1.101-3.455-1.94-7.245-2.59-11.118
			C430.515,396.871,422.46,391.843,418.358,389.067z"/>
		<path fill="#FFF200" d="M187.518,79.495c5.031,0,31.798-22.54,32.2-28.175c0.26-3.618-24.689-2.817-31.998-2.817
			c-3.824,0-27.37,16.905-28.578,28.98C158.819,80.711,180.208,79.495,187.518,79.495z"/>
		<path fill="#FFF200" d="M220.522,509.564c3.488-4.562,6.172-7.246,10.733-11.001c11.835-9.748,16.368-13.954,15.096-14.845
			c-1.494-1.044-4.863-1.094-6.777-0.988c-9.66,0.537-24.15,9.394-30.321,19.053L220.522,509.564z"/>
		<path fill="#FFF200" d="M158.739,107.303c11.726,0.518,25.746-10.95,28.325-23.941c-1.26,0.008-2.872,0.042-4.731,0.085
			c-16.021,0.364-22.603,0.052-25.406-2.372c-10.171,6.444-19.778,13.7-28.735,21.672
			C134.094,104.49,150.997,106.962,158.739,107.303z"/>
		<path fill="#FFF200" d="M155.299,77.538c0.001-0.147-0.017-0.292-0.002-0.44c0.857-8.573,10.685-18.917,19.514-25.586
			c-3.304-1.573-7.396-2.454-12.449-2.404c-14.932,0.145-28.98,15.295-32.804,32.602c-0.914,4.137-3.306,13.426-3.615,17.872
			C135.094,91.465,144.909,84.087,155.299,77.538z"/>
		<path fill="#FFF200" d="M202.813,451.604c-12.543-13.543-18.375-31.663-30.859-31.663c-0.035,0-0.068,0.001-0.103,0.001
			c3.284,5.338,5.615,11.245,6.601,17.362c0.426,2.636,1.23,6.436,2.081,10.461c2.313,10.933,3.447,16.861,3.157,20.157
			c15.61,7.09,32.192,12.396,49.479,15.688c-0.013-0.116-0.017-0.223-0.035-0.344C232.189,477.023,213.958,463.639,202.813,451.604z
			"/>
		<path fill="#FFF200" d="M182.274,471.526c-0.004,0.008-0.01,0.017-0.014,0.023c-2.174,2.288-8.857,4.563-33.936,5.028
			c5.11,10.521,16.393,17.208,35.437,17.208c15.062,0,28.361-3.593,36.389-9.081C207.034,481.428,194.367,477.005,182.274,471.526z"
			/>
		<path fill="#FFF200" d="M139.865,400.658c0.575,5.782,2.89,31.601-0.663,40.305c12.542,9.789,26.166,18.249,40.661,25.171
			c-0.301-6.008-4.065-21.018-5.226-28.214C171.895,420.91,156.682,403.933,139.865,400.658z"/>
		<path fill="#FFF200" d="M136.76,443.956c-2.99,1.737-8.973,1.779-23.573,1.103c-2.917-0.135-5.69-0.263-7.921-0.306
			c3.549,15.593,16.936,28.05,33.147,28.05c9.678,0,33.28-0.254,39.721-3.213C163.384,462.539,149.521,453.925,136.76,443.956z"/>
		<path fill="#FFF200" d="M135.908,399.951c-1.008-9.354-10.879-22.662-23.715-30.557c0.014,0.834,0.032,1.652,0.032,2.516
			c0,9.546-0.648,26.417-4.638,38.935c8.649,10.04,18.192,19.284,28.495,27.628C138.136,431.504,137.006,410.132,135.908,399.951z"
			/>
		<path fill="#FFF200" d="M101.436,409.546c-10.03-0.249-24.928-2.038-37.957-9.274c4.256,24.46,21.366,40.6,40.32,40.6
			c7.573,0,23.618,1.457,29.438,0.269C121.619,431.687,110.957,421.104,101.436,409.546z"/>
		<path fill="#FFF200" d="M95.056,329.648l-1.171,2.796c-3.349,7.913-8.323,19.723-12.012,41.568
			c6.564,11.797,14.168,22.938,22.709,33.281c2.444-8.832,3.778-20.99,3.778-35.384C108.359,347.23,102.508,333.854,95.056,329.648z
			"/>
		<path fill="#FFF200" d="M91.577,327.953c1.747-4.277,2.752-9.301,2.752-14.673c0-9.91-3.429-18.615-8.608-23.663
			c-5.342,10.724-12.684,19.753-17.961,24.82c-0.321,0.308-0.633,0.6-0.938,0.879c-0.121,0.109-0.246,0.227-0.365,0.333
			c-0.412,0.367-0.811,0.714-1.186,1.021c-0.429,0.354-0.843,0.676-1.246,0.975c-0.238,0.176-0.463,0.324-0.693,0.48
			c-0.156,0.108-0.316,0.228-0.469,0.326c-0.302,0.195-0.592,0.365-0.88,0.527c-0.069,0.04-0.141,0.088-0.208,0.124
			c-0.323,0.175-0.636,0.325-0.942,0.46c-0.028,0.014-0.058,0.029-0.085,0.041c-0.074,0.031-0.143,0.049-0.216,0.078
			c4.206,17.158,10.42,33.532,18.39,48.857C83.119,346.457,88.597,335.25,91.577,327.953z"/>
		<path fill="#FFF200" d="M73.725,366.834c-14.126-4.685-25.24-11.742-33.495-19.855c-0.046,1.099-0.056,2.327-0.026,3.733
			c0.971,45.643,37.621,53.722,58.019,54.848C88.798,393.574,80.581,380.6,73.725,366.834z"/>
		<path fill="#FFF200" d="M68.416,360.743c0,0,1.513,0.548,2.974,1.258c-6.238-13.316-11.202-27.34-14.737-41.917
			c-4.373-1.124-18.764-11.652-29.206-28.243c-1.45,3.126-2.002,7.945-2.002,15.401C25.445,326.205,40.399,349.038,68.416,360.743z"
			/>
		<path fill="#FFF200" d="M88.771,263.504c0-6.259-1.247-11.857-3.412-16.749c-9.678,11.153-22.835,20.425-31.131,21.769
			c0.092,16.254,1.951,32.096,5.398,47.342C67.421,311.945,88.771,286.527,88.771,263.504z"/>
		<path fill="#FFF200" d="M50.357,268.04c-6.426-3.897-18.202-24.209-23.011-39.001c-5.173,4.607-7.637,12.591-7.536,25.878
			c0.244,32.002,26.949,55.77,35.781,60.581C52.223,300.2,50.414,284.323,50.357,268.04z"/>
		<path fill="#FFF200" d="M93.862,221.51c0-3.224-0.334-6.819-0.975-10.53c-3.962,2.301-8.416,4.408-13.375,6.455
			c-11.737,4.841-17.58,6.496-21.006,6.481c-2.642,13.181-4.095,26.785-4.26,40.692C66.521,262.05,93.862,238.059,93.862,221.51z"/>
		<path fill="#FFF200" d="M54.778,222.838c-9.39-6.005-12.131-22.692-12.842-38.126c-9.019,8.159-14.484,21.109-12.734,35.589
			c1.807,14.943,15.782,37.118,21.196,43.034C50.637,249.499,52.127,235.961,54.778,222.838z"/>
		<path fill="#FFF200" d="M78.039,213.862c21.331-8.799,32.053-17.876,31.661-39.712c-4.042,1.826-8.434,3.407-13.152,4.671
			l-0.662,0.177c-13.982,3.75-21.087,5.085-25.074,4.413c-4.846,11.726-8.705,23.956-11.478,36.591
			C64.172,219.567,74.23,215.433,78.039,213.862z"/>
		<path fill="#FFF200" d="M55.659,218.716c2.832-12.772,6.754-25.138,11.668-36.996c-2.926-2.928-5.832-10.539-5.832-41.649
			c0-1.515,0.129-3.103,0.359-4.732c-9.487,9.694-16.286,25.321-16.286,38.408C45.57,187.897,46.439,211.046,55.659,218.716z"/>
		<path fill="#FFF200" d="M90.373,139.596c-1.66-2.571-2.238-8.387-2.124-29.031l0.012-3.299c0-2.131,0.207-4.281,0.59-6.416
			c-13.885,7.812-23.491,26.509-23.491,39.22c0,9.383,0.169,30.691,3.733,37.515C74.966,164.189,82.108,151.477,90.373,139.596z"/>
		<path fill="#FFF200" d="M95.547,175.089c22.541-6.038,37.03-19.321,37.687-32.703c0.015-0.314,0.017-0.642,0.023-0.964
			c-2.775,0.783-5.549,1.238-8.232,1.304l-5.295,0.159c-15.104,0.49-22.435,0.43-26.255-0.986
			c-8.209,11.815-15.292,24.469-21.093,37.806C77.521,179.973,89.318,176.756,95.547,175.089z"/>
		<path fill="#FFF200" d="M95.825,138.58c5.594,1.298,20,0.509,29.105,0.284c14.629-0.362,31.509-13.078,34.82-27.725
			c-0.393,0.004-0.793,0.042-1.18,0.024c-0.282-0.013-25.339-1.934-33.433-5.647C114.306,115.523,104.478,126.6,95.825,138.58z"/>
		<path fill="#FFF200" d="M122.37,102.816c-0.804-2.476-0.128-6.823,2.643-18.601l0.773-3.34c0.6-2.715,1.437-5.341,2.444-7.87
			c-1.022-0.094-2.054-0.151-3.099-0.151c-19.334,0-33.005,17.752-33.005,34.413c0,6.403-0.301,22.83,0.924,28.563
			C101.729,123.883,111.556,112.825,122.37,102.816z"/>
		<path fill="#FFF200" d="M171.216,161.658c7.044,0.147,12.679-3.878,13.082-10.719c0.52-8.841-4.831-8.454-4.831-8.454
			c10.466-10.866,11.079-26.162,4.831-26.162c-8.331,0-27.37,21.002-27.37,30.59C156.928,155.768,162.888,161.484,171.216,161.658z"
			/>
		<path fill="#FFF200" d="M377.818,161.658c-7.043,0.147-12.678-3.878-13.081-10.719c-0.519-8.841,4.832-8.454,4.832-8.454
			c-10.466-10.866-11.079-26.162-4.832-26.162c8.331,0,27.371,21.002,27.371,30.59C392.108,155.768,386.148,161.484,377.818,161.658
			z"/>
		<path fill="#FFF200" d="M334.833,92.979c-5.479-2.738-10.338-9.034-16.365-11.956c-9.204-4.464-24.426-2.41-32.883-5.873
			c0.925-0.832,1.896-1.607,2.961-2.296c6.841-4.427,14.339-2.501,19.319-6.44c7.396-5.848,7.226-14.068,11.27-18.112
			c3.22-3.22,12.075-8.05,12.075-8.05c-8.452-4.025-20.125-0.402-27.772,12.88c-4.191,7.282-14.892,2.013-22.942,6.038
			c-2.561,1.279-4.386,3.165-6.037,5.231c-1.652-2.066-3.478-3.952-6.038-5.231c-8.05-4.025-18.75,1.244-22.942-6.038
			c-7.648-13.282-19.32-16.905-27.773-12.88c0,0,8.855,4.83,12.075,8.05c4.044,4.044,3.876,12.265,11.27,18.112
			c4.982,3.938,12.478,2.013,19.321,6.44c1.064,0.689,2.035,1.464,2.96,2.296c-8.458,3.462-23.68,1.408-32.884,5.873
			c-6.028,2.922-10.887,9.218-16.364,11.956c-5.635,2.817-27.773,0.805-39.848,14.49c0,0,35.823,7.647,45.08,13.685
			c0,0,3.294-5.823,9.661-10.868c3.698-2.931,8.672-3.925,12.074-6.439c3.64-2.69,6.292-6.696,10.868-8.855
			c4.576-2.16,15.596-3.633,19.723-6.439c1.014-0.689,1.945-1.4,2.817-2.123c0.872,0.722,1.804,1.433,2.816,2.123
			c4.128,2.807,15.147,4.28,19.724,6.439c4.575,2.16,7.228,6.166,10.867,8.855c3.401,2.514,8.376,3.508,12.075,6.439
			c6.366,5.044,9.659,10.868,9.659,10.868c9.259-6.038,45.08-13.685,45.08-13.685C362.604,93.784,340.468,95.796,334.833,92.979z
			 M250.809,63.87c-2.762-0.464-4.941-0.831-6.263-1.876c-3.073-2.429-4.398-5.512-5.722-8.787c0.605,0.852,1.201,1.747,1.771,2.736
			c4.021,6.984,11.397,7.045,16.783,7.089c3.224,0.026,6.269,0.052,8.522,1.178c1.97,0.985,3.402,2.693,5.012,4.824
			c-0.828,1.033-1.711,2.035-2.714,2.959c-1.424-1.386-2.974-2.708-4.767-3.869C258.985,65.246,254.451,64.483,250.809,63.87z
			 M276.919,76.019c-2.427,2.697-4.938,5.486-8.448,7.873c-1.533,1.042-6.157,2.217-9.532,3.074c-3.584,0.91-6.969,1.77-9.426,2.93
			c-3.695,1.743-6.26,4.25-8.523,6.46c-1.141,1.115-2.219,2.168-3.29,2.959c-1.083,0.8-2.71,1.508-4.434,2.257
			c-2.462,1.071-5.251,2.286-7.792,4.298c-3.463,2.745-6.124,5.696-7.972,8.047c-7.949-3.443-20.541-6.854-29.951-9.16
			c6.162-2.743,13.134-3.69,18.767-4.447c4.526-0.607,7.796-1.047,10.284-2.291c3.271-1.635,6.112-4.08,8.86-6.444
			c2.564-2.207,4.986-4.292,7.442-5.483c3.977-1.927,10.093-2.402,16.008-2.863c6.97-0.541,13.554-1.052,18.6-3.828
			c4.66-2.563,7.354-6.177,9.73-9.365c1.952-2.619,3.494-4.688,5.772-5.827c2.253-1.126,5.299-1.152,8.521-1.178
			c5.387-0.044,12.763-0.104,16.783-7.089c0.57-0.989,1.166-1.884,1.772-2.736c-1.325,3.275-2.65,6.358-5.723,8.787
			c-1.321,1.045-3.503,1.413-6.263,1.876c-3.644,0.613-8.177,1.375-12.623,4.253C281.994,70.381,279.413,73.248,276.919,76.019z
			 M331.412,113.917c-1.849-2.351-4.509-5.302-7.973-8.047c-2.539-2.012-5.33-3.227-7.791-4.298
			c-1.725-0.749-3.352-1.458-4.433-2.257c-1.072-0.791-2.15-1.844-3.291-2.959c-2.262-2.21-4.827-4.717-8.521-6.46
			c-2.457-1.16-5.842-2.021-9.427-2.93c-3.376-0.857-7.999-2.031-9.532-3.074c-0.651-0.443-1.258-0.904-1.847-1.371
			c0.997-1.048,1.931-2.089,2.843-3.101c5.041,2.757,11.608,3.269,18.563,3.809c5.914,0.46,12.03,0.936,16.007,2.863
			c2.456,1.191,4.879,3.276,7.442,5.483c2.749,2.364,5.591,4.809,8.86,6.444c2.487,1.244,5.757,1.684,10.283,2.291
			c5.633,0.757,12.604,1.705,18.768,4.447C351.953,107.063,339.361,110.473,331.412,113.917z"/>
		<path fill="#FFF200" d="M252.247,138.059h-6.279v-30.031h21.391v5.323h-15.112v6.751h13.227v5.323h-13.227V138.059z"/>
		<path fill="#FFF200" d="M295.083,114.802h0.084l3.722,11.885h-7.654L295.083,114.802z M289.561,131.87h11.085l1.925,6.189h6.818
			l-10.583-30.036h-7.237l-10.707,30.036h6.608L289.561,131.87z"/>
		<path fill="#FFF200" d="M274.458,149.087c-17.816,0-35.327-2.896-52.068-8.578l-20.148,40.296
			c23.111,8.647,47.4,13.04,72.216,13.04c24.814,0,49.104-4.392,72.216-13.04l-20.149-40.296
			C309.783,146.191,292.273,149.087,274.458,149.087z"/>
		<path d="M337.051,177.714c-20.178,6.644-41.237,10.012-62.593,10.012c-21.357,0-42.416-3.368-62.594-10.012l-1.061-0.349l0.5-1
			l13.855-27.71l0.362-0.726l0.778,0.232c15.597,4.673,31.8,7.042,48.16,7.042c16.358,0,32.562-2.37,48.158-7.042l0.779-0.232
			l0.362,0.726l13.855,27.71l0.499,1L337.051,177.714z"/>
		<path fill="#FFF200" d="M238.606,175.447l1.895-8.319c0.093-0.412,0.539-2.189,0.839-3.504l-0.039-0.009l-6.658,10.929
			l-1.883-0.428l-1.274-12.715l-0.04-0.009c-0.294,1.295-0.663,3.089-0.756,3.501l-1.895,8.32l-1.844-0.42l3.207-14.089l2.728,0.621
			l1.311,12.826l0.04,0.009l6.714-11l2.708,0.617l-3.208,14.089L238.606,175.447z"/>
		<path fill="#FFF200" d="M247.36,170.7l3.015-6.059l0.041,0.004l1.403,6.56L247.36,170.7z M252.324,173.004l0.945,4.339
			l2.119,0.242l-3.57-14.948l-2.2-0.25l-7.027,13.745l1.999,0.227l1.974-4.009L252.324,173.004z"/>
		<path fill="#FFF200" d="M259.288,176.374l7.315,0.389l-0.092,1.728l-9.265-0.493l0.767-14.429l1.95,0.104L259.288,176.374z"/>
		<path fill="#FFF200" d="M271.878,172.565l2.355-6.345h0.041l2.093,6.373L271.878,172.565z M277.061,174.329l1.402,4.216
			l2.133,0.013l-5.14-14.482l-2.214-0.015l-5.526,14.414l2.013,0.014l1.536-4.197L277.061,174.329z"/>
		<path fill="#FFF200" d="M313.35,168.455l0.895-6.708l0.039-0.008l3.449,5.752L313.35,168.455z M318.791,169.031l2.301,3.801
			l2.082-0.458l-8.212-12.989l-2.163,0.475l-2.204,15.279l1.966-0.431l0.57-4.433L318.791,169.031z"/>
		<path fill="#FFF200" d="M286.865,178.267l-1.949,0.108l-0.323-5.806l-5.927-8.316l2.27-0.127l4.526,6.701l3.753-7.163l2.29-0.128
			l-4.964,8.923L286.865,178.267z"/>
		<path fill="#FFF200" d="M301.2,166.51c-0.38-2.204-2.305-2.669-3.922-2.464c-1.219,0.154-3.232,0.753-2.956,2.93
			c0.155,1.217,1.063,1.508,1.928,1.601l4.211,0.42c1.913,0.204,3.452,1.144,3.74,3.42c0.43,3.394-2.605,4.731-5.061,5.042
			c-2.655,0.337-3.795-0.33-4.507-0.829c-1.358-0.943-1.749-2.11-1.918-3.448l1.816-0.23c0.329,2.596,2.542,3.085,4.378,2.853
			c1.398-0.177,3.707-0.834,3.446-2.891c-0.188-1.498-0.948-1.888-3.376-2.148l-3.02-0.308c-0.967-0.1-3.166-0.491-3.482-2.986
			c-0.283-2.236,0.896-4.617,4.37-5.057c5.011-0.635,5.889,2.296,6.169,3.863L301.2,166.51z"/>
		<path fill="#FFF200" d="M308.636,175.478l-1.922,0.346l-2.563-14.22l1.922-0.346L308.636,175.478z"/>
	</g>
</svg>
