<?xml version="1.0" encoding="utf-8"?>
<!-- Generator: Adobe Illustrator 15.0.0, SVG Export Plug-In . SVG Version: 6.00 Build 0)  -->
<!DOCTYPE svg PUBLIC "-//W3C//DTD SVG 1.1//EN" "http://www.w3.org/Graphics/SVG/1.1/DTD/svg11.dtd">
<svg version="1.1" id="Layer_1" xmlns="http://www.w3.org/2000/svg" xmlns:xlink="http://www.w3.org/1999/xlink" x="0px" y="0px"
	 width="280.293982989" height="356.768272132" viewBox="0 0 500 636.418" enable-background="new 0 0 500 636.418" xml:space="preserve">
<path d="M133.366,559.47l-25.057,3.395c-4.042,0.566-5.011,0.808-3.395,5.011c8.325,21.742,22.793,39.363,39.929,55.125
	c-24.976-7.76-43.889-18.429-64.743-34.675c-18.752-14.71-36.211-31.038-50.679-50.032c-8.082-10.507-7.598-14.953,2.344-23.763
	c5.496-5.011,9.699-6.143,4.85-14.064c-7.436-12.286-13.903-25.219-19.237-38.717C6.143,433.46,0,402.665,0,370.495
	c0-44.859,11.963-86.97,32.816-123.424c12.528-21.904,29.259-40.737,47.607-57.873c2.91-2.667,1.375-4.446-0.323-7.113
	l-11.396-12.852c-4.203-4.769-4.365-11.558,0.727-15.761c24.895-20.854,53.508-37.423,84.626-48.739
	c1.778-0.646,3.557-1.212,5.334-1.859c0.162-3.879,0.728-7.921,0.889-9.699c0.647-7.436,2.587-14.469,3.476-21.823
	c0.404-3.395,2.021-11.559-2.586-13.256c-2.183-0.727-7.679-0.242-14.872-1.94c-7.274-1.778-9.619-3.637-11.963-2.667
	c-2.425,1.051-2.182,3.152-4.042,4.203c-1.859,1.051-4.526,1.859-8.648-3.152c-4.123-5.011-9.053-11.316-5.174-17.62
	c3.961-6.385,9.458-8.406,11.882-8.164c2.425,0.242,10.67-2.91,17.621-4.931c6.871-2.021,9.861-3.718,13.175-4.688
	c3.233-0.889,7.517-3.476,9.619-3.718c2.183-0.242,4.526,1.132,4.85,2.91c0.566,3.799,1.374,8.002,4.122,10.912
	c1.455,1.536,3.071,1.94,4.769,3.072c2.182,1.374,3.96,3.718,6.062,5.334c4.284,3.556,8.245,7.517,12.124,11.559
	c0.566-0.323,1.212-0.566,1.779-0.809h0.081h0.081c1.051-0.162,1.697-0.485,1.94-0.97c0.081-0.161,0.081-0.323,0.081-0.566
	c0-0.97-0.809-2.263-1.132-2.829c-3.071-5.496-17.296-13.175-17.377-13.256c-6.79-2.668-8.002-6.709-8.002-9.214
	c0-1.293,0.323-2.183,0.323-2.263c1.617-4.607,7.113-6.547,12.69-7.355c-0.243-2.182,0.323-4.203,1.697-5.901
	c3.88-4.849,12.771-5.739,13.175-5.819c26.673-1.94,61.833,9.376,62.156,9.538c14.468,4.85,46.557,25.057,46.799,25.299
	c21.581,12.528,40.252,40.414,40.414,40.656c7.113,9.457,9.295,22.955,9.942,30.795c0.162,2.586,0.404,4.688,0.566,6.466
	c16.408,7.355,32.25,16.408,47.204,26.997c5.334,3.798,5.738,10.588,1.939,15.68l-10.346,13.66
	c-1.293,2.425-2.505,4.122-0.889,6.063l-0.161,0.242c13.094,10.831,24.329,20.935,36.049,33.948
	c10.346,11.559,19.722,23.925,27.481,37.504C488.038,283.525,500,325.635,500,370.495c0,32.17-6.144,62.965-17.378,91.254
	c-3.314,8.487-7.113,16.813-11.316,24.814c-4.122,8.083,0.162,8.891,5.981,13.417c10.508,8.083,11.396,12.447,4.122,23.521
	c-13.094,20.045-29.259,37.666-46.879,53.75c-19.561,17.702-37.666,29.664-61.915,39.282c15.842-16.893,29.017-35.645,35.645-57.873
	c1.293-4.365,0.323-4.526-3.718-4.769l-34.837-2.102c-6.466,17.944-16.812,34.109-29.987,47.285
	c-23.036,23.036-54.801,37.342-89.719,37.342s-66.683-14.306-89.719-37.342C148.966,587.76,139.751,574.342,133.366,559.47z"/>
<path fill="#FFFFFF" d="M175.719,161.394c-10.831,3.879-21.257,8.567-31.199,13.983c-2.263,1.212-2.344,3.799-1.051,5.739
	c2.263,3.152,4.526,6.224,6.87,9.214c6.628,8.406,6.467,12.528-3.718,19.075c-9.053,5.819-17.54,12.367-25.46,19.641
	c5.9-0.728,12.124,0.646,16.974,3.961c6.143,4.364,9.214,12.528,8.891,19.883c-0.243,6.466-3.233,12.286-8.001,17.62
	c-12.205,13.58-21.985,29.341-28.694,46.638c-6.385,16.489-9.861,34.433-9.861,53.346c0,13.983,1.94,27.724,5.577,40.657
	c3.638,13.255,9.053,25.703,16.004,36.776c6.627,10.588,7.76,26.512-2.102,35.726c-5.739,5.334-14.63,7.92-22.147,5.334
	c2.829,3.718,5.9,7.193,9.053,10.588c2.505,2.748,5.334,5.335,7.678,8.325c4.85,6.144-0.484,10.993-4.688,15.439
	c-4.203,4.445-6.466,6.627-0.97,11.315c6.628,5.658,13.579,10.992,21.016,15.923c-4.446-12.932-6.871-26.834-6.871-41.222
	c0-34.999,14.307-66.764,37.261-89.719c1.212-1.212,2.506-2.425,3.799-3.637c-6.627-12.448-10.588-26.431-11.235-41.223
	c0.081-0.242,0.323-0.323,0.484-0.404c0.647-0.242,1.698,0.081,3.961,2.829c0.97,1.132,1.859,2.263,2.748,2.182
	c1.374-0.161,1.778-2.91,1.778-3.96c0-1.778,0.081-3.557,0-5.334c0-1.293,0-2.91-0.646-4.042c-0.566-1.131-1.374-0.889-2.344-0.324
	c-1.212,0.728-2.263,2.183-3.313,3.314c-0.809,0.646-1.456,0.889-1.94,0.889c-0.324-0.08-0.647-0.242-0.889-0.565
	c0.646-53.023,44.132-96.185,97.316-96.185s96.67,43.162,97.235,96.185c-0.162,0.323-0.485,0.485-0.808,0.565
	c-0.485,0-1.132-0.242-1.94-0.889c-1.051-1.131-2.102-2.586-3.314-3.314c-0.97-0.565-1.778-0.808-2.344,0.324
	c-0.647,1.132-0.647,2.748-0.647,4.042c-0.081,1.778,0,3.556,0,5.334c0,1.051,0.404,3.799,1.778,3.96
	c0.889,0.081,1.778-1.05,2.749-2.182c2.263-2.748,3.313-3.071,3.96-2.829c0.162,0.081,0.404,0.162,0.485,0.404
	c-0.647,14.792-4.607,28.775-11.235,41.223c1.293,1.212,2.587,2.425,3.799,3.637c22.955,22.955,37.261,54.72,37.261,89.719
	c0,14.629-2.505,28.694-7.113,41.869c11.882-7.032,22.228-15.6,32.008-25.461c5.173-5.011,2.667-7.032-1.859-11.235
	c-4.527-4.122-10.104-8.567-5.739-15.034c2.101-3.071,4.688-5.9,7.032-8.81c0.485-0.646,0.97-1.212,1.455-1.859
	c-7.597,2.829-16.812,0.323-22.712-5.173c-9.86-9.214-8.729-25.138-2.102-35.726c6.952-11.073,12.367-23.521,16.004-36.776
	c3.637-12.933,5.577-26.673,5.577-40.657c0-18.913-3.475-36.857-9.86-53.346c-6.709-17.297-16.489-33.058-28.694-46.638
	c-4.769-5.334-7.76-11.154-8.002-17.62c-0.324-7.355,2.748-15.519,8.891-19.883c4.85-3.396,11.154-4.688,17.135-3.961
	c-11.558-10.427-24.814-19.884-38.474-27.239c-5.173-2.829-8.001-5.254-8.81-7.921c-2.829,1.293-5.658,1.94-5.739,2.021
	c-4.041,3.395-11.073,2.829-11.316,2.829c-2.021,0-7.84,3.314-9.942,4.607c-5.415,3.233-11.396-0.243-11.639-0.404H293v-0.081
	c-0.728-0.646-5.9-0.728-10.265-0.404c-7.193,0.162-11.639-6.87-12.205-7.84c-0.404-0.323-0.808-0.485-1.293-0.404
	c-1.697,0.162-3.637,2.263-4.284,3.071c-0.485,0.404-0.647,0.889-0.647,1.455c0.162,1.536,2.102,3.314,2.829,3.88h0.081l0.081,0.162
	c3.556,5.658,11.963,4.042,12.043,3.96h0.081h0.081c6.871,0.485,8.406,12.125,8.487,12.609c0.081,1.212,0.404,2.101,0.97,2.506
	c0.728,0.565,1.617,0.323,1.778,0.323c7.113-0.646,26.673,9.781,27.481,10.185c6.79,3.314,10.265,5.9,10.588,7.598
	c0,0.081,0,0.162,0,0.243c0,0.081,0,0.162-0.081,0.243c0,0.081,0,0.081,0,0.081c0,0.728-0.323,1.131-0.566,1.293
	c-1.132,0.728-3.314-0.242-3.96-0.565l-25.865-12.286c-3.96-1.536-6.951-1.698-8.648-0.566c-1.697,1.131-1.697,3.071-1.697,3.152
	c0.324,7.76-0.404,7.921-1.051,8.083c-0.242,0.081-0.485,0.081-0.728-0.081c-0.242,0.081-0.485,0.242-0.727,0.404
	c-0.081,0.485-0.404,3.799-0.404,3.799c-0.081,0.889-0.485,1.293-0.889,1.536c-0.971,0.646-2.345,0.162-2.506,0.081h-0.161
	l-2.021-1.859l-0.081-0.081c-0.081-0.242-1.051-0.081-1.698,0.243l-0.081,0.081h-0.081c-1.536,0.485-5.577,8.811-8.567,16.65
	l-0.162,0.485h-5.334l-0.162-0.242c-0.485-0.405-0.647-0.97-0.647-1.698c0-4.688,7.437-14.468,10.023-17.782l0.081-0.081
	l0.081-0.081c0.485-0.323,1.051-0.808,1.051-1.374l0,0c0-0.728-0.97-1.455-1.374-1.698c-1.698-0.565-2.505-0.484-2.749-0.242
	c-0.323,0.324-0.081,1.131,0,1.375l-0.081-0.082c0.242,0.243,0.242,0.566,0.242,0.809c0,1.778-2.748,3.88-3.798,4.607
	c-5.739,6.062-6.224,9.214-6.224,10.104c0,0.162,0,0.323,0,0.323l0.081,0.081l0.243,5.334h-5.739l-0.162-0.081
	c-1.131-0.809-1.616-2.102-1.616-3.637c0-3.88,2.748-9.053,3.152-9.78c0.242-0.646,0.404-1.212,0.404-1.778
	c0-0.323-0.081-0.727-0.242-0.97c-0.323-0.646-0.889-0.808-0.97-0.808h-6.79c-0.485,0-0.808,0.162-1.051,0.485
	c-0.889,1.212-0.404,4.042-0.162,5.011l2.991,12.205h-10.75l2.667-11.882c1.05-2.909,0.728-4.284,0.242-4.931
	c-0.485-0.727-1.374-0.727-1.374-0.727h-6.385c-1.778,0.081-2.991,0.485-3.314,1.131c-0.243,0.566,0.323,1.455,0.404,1.536
	l5.253,9.861v5.173h-4.445l-12.609-21.177v-0.081c-0.323-1.051-1.858-0.889-2.263-0.809c-0.323,0.243-9.376,8.002-9.376,8.002
	h-0.081c-1.131,0.646-2.102,0.889-2.91,0.566c-0.809-0.405-0.97-1.132-1.051-1.212v-0.162l0.97-3.96l8.164-4.365l0,0
	c1.778-0.485,1.778-2.021,1.778-2.182v-0.081v-0.081c0.081-0.243,0-0.485-0.162-0.728c-1.051-1.051-5.253-0.97-7.598-0.646
	c-7.113,1.455-8.648-1.375-8.81-1.617c-1.051-1.859-4.284-1.698-4.365-1.698c-0.97,0-1.697,0.243-2.021,0.809
	c-0.243,0.324-0.323,0.728-0.323,1.213c0,1.212,0.647,2.667,0.97,3.313l5.739,9.457c1.051,1.617,1.535,3.071,1.535,4.364
	c0,0.485-0.081,0.889-0.242,1.375c-0.485,1.455-1.698,1.939-2.021,2.021l-15.277,8.164l-0.242-0.082
	c-1.051-0.323-1.698-0.808-1.94-1.455c-0.324-1.051,0.404-2.021,0.646-2.425l0.162-0.243l12.124-7.274l0.162-0.081
	c0.646-0.162,0.889-0.484,0.97-0.728c0.404-1.051-0.485-2.99-0.808-3.556l-4.931-8.891c-2.102-3.718-5.092-2.344-5.334-2.182
	c-18.671,13.66-20.288,12.367-21.016,11.801c-0.484-0.404-0.484-1.051-0.242-1.617v0.162c0.404-2.182,10.185-8.487,18.59-13.417
	l0.404-0.242c0.485-0.242,0.889-0.485,1.455-0.566c1.293-0.243,2.183-0.646,2.506-1.212c0.081-0.162,0.161-0.323,0.161-0.404
	c0-0.243-0.081-0.405-0.081-0.405l0.162,0.243c-0.566-0.566-0.889-3.071-0.889-7.518c-1.051-8.487,23.521-24.733,24.652-25.46
	c0.97-0.485,1.536-1.132,1.859-2.102c0.808-2.425-1.132-5.819-1.132-5.738c-2.587-3.314-4.365-18.348-4.446-18.995v-0.081v-0.081
	c0-0.404-0.081-0.728-0.323-0.97c-1.293-1.293-5.334-1.212-6.951-1.051c-5.496-0.323-10.912-4.284-14.791-8.083
	C180.65,159.697,178.225,160.505,175.719,161.394z"/>
<path fill="#FFFFFF" d="M185.904,399.755c2.749-1.536,5.497-3.071,8.325-4.446c1.213-3.96-2.344-5.738-2.586-5.738c0,0,0,0-0.081,0
	l0,0l0,0h0.081h-0.081l0,0c-8.325,0.242-9.214-18.752-9.214-18.833l0,0c-0.242-24.248,16.65-16.004,17.378-15.6
	c4.688,1.617,3.152-3.88,2.91-4.445l-8.325-16.247h0.081c-3.476-6.143,25.461-16.813,26.673-17.216
	c8.325-4.365,8.972-1.051,9.053-0.323l4.203,8.567l0,0c1.616,3.88,3.96,2.183,4.122,1.94l9.699-21.985v-5.334
	c-37.989,0.97-68.623,32.17-68.623,70.401C179.518,380.922,181.862,390.864,185.904,399.755z"/>
<path fill="#FFFFFF" d="M305.771,395.309c2.829,1.375,5.577,2.91,8.325,4.446c4.042-8.891,6.385-18.833,6.385-29.26
	c0-38.231-30.634-69.431-68.623-70.401v5.334l9.699,21.985c0.162,0.243,2.506,1.94,4.122-1.94l0,0l4.204-8.567
	c0.08-0.728,0.727-4.042,9.052,0.323c1.213,0.404,30.149,11.073,26.673,17.216h0.082l-8.326,16.247
	c-0.243,0.565-1.778,6.062,2.91,4.445c0.728-0.404,17.621-8.648,17.378,15.6l0,0c0,0.081-0.889,19.075-9.214,18.833l0,0h-0.081
	h0.081l0,0l0,0c-0.081,0-0.081,0-0.081,0C308.115,389.571,304.558,391.349,305.771,395.309z"/>
<path fill="#BC9D67" d="M433.641,443.968c8.81-22.874,13.336-47.77,13.255-73.553l0,0l0,0l0,0c0-34.028-8.729-65.955-24.086-94.002
	c-9.538-17.459-21.662-33.382-35.888-47.123c-3.475-3.395-7.032-6.628-10.75-9.699h0.082c-10.427-8.972-21.338-16.085-33.22-22.551
	c-5.092-2.667-6.547-4.285-5.658-6.952c1.131-1.859,2.424-3.395,3.96-3.96c3.314-1.293,7.355,0.646,11.154,2.991l12.367,7.678
	c4.769,2.991,8.972,6.628,14.711,2.667c3.556-2.344,10.022-10.426,13.013-14.306l3.638-4.85c2.021-2.667,2.91-1.697,4.85,0
	c12.932,10.669,24.167,20.53,35.726,33.625c9.78,11.074,18.429,22.793,25.865,35.726c20.369,35.645,32.008,76.867,32.008,120.756
	c0,31.523-5.981,61.671-16.974,89.395c-3.313,8.407-7.113,16.489-11.235,24.572c-0.324,0.485-0.566,0.889-0.809,1.374l0,0
	c-7.355,14.064-16.004,27.32-25.865,39.605c-6.709,8.326-10.669,9.457-18.752,1.698l-16.166-15.277
	c-2.586-2.424-7.517-6.062-5.658-9.699c1.374-2.829,4.203-5.658,6.224-8.164C417.556,478.804,426.77,461.991,433.641,443.968z"/>
<path fill="#BC9D67" d="M107.501,210.214c5.98,3.476,9.941-0.485,14.468-3.798l11.72-8.649c3.557-2.667,7.518-4.849,10.912-3.88
	c1.536,0.485,2.91,1.859,4.203,3.637c1.131,2.586-0.243,4.365-5.092,7.436c-27.643,17.863-50.679,42.516-66.521,71.533
	c-15.357,27.967-24.006,59.974-24.006,94.002l0,0l0,0l0,0c-0.162,25.703,4.445,50.679,13.175,73.553
	c8.487,22.066,20.854,42.111,36.615,59.166c2.182,2.344,5.254,4.931,6.871,7.598c2.021,3.557-2.587,7.517-5.011,10.104
	L89.88,537.404c-7.517,8.244-11.477,7.517-18.833-0.323c-20.772-22.309-37.423-48.496-48.739-77.271
	c-10.993-27.643-16.974-57.792-16.974-89.314c0-43.97,11.639-85.111,32.089-120.756c12.125-21.419,28.048-39.687,46.233-56.741
	c2.344-2.182,3.557-2.99,5.739-0.565l3.96,4.526C96.67,200.676,103.783,208.112,107.501,210.214z"/>
<path fill="#BC9D67" d="M37.504,524.391l22.955,24.167c9.295,9.942,19.156,4.931,27.563-2.749c4.364-3.96,8.971-8.325,12.124-11.8
	c8.083,7.598,16.57,14.468,26.188,20.772l-25.138,2.587c-2.909,0.404-5.173,3.96-4.203,6.951
	c6.305,18.671,17.055,34.674,30.715,48.092c-15.761-8.002-30.553-17.458-44.293-28.209c-18.59-14.549-35.807-30.795-50.113-49.547
	c-2.102-2.829-6.547-8.568-2.425-11.639C32.654,521.723,35.483,522.29,37.504,524.391z"/>
<path fill="#BC9D67" d="M472.357,510.246l-21.096,25.865c-8.567,10.588-18.833,6.304-27.805-0.728
	c-4.607-3.637-9.457-7.597-12.852-10.831c-7.598,8.164-15.519,15.6-24.652,22.632l25.218,0.728c2.991,0.162,5.496,3.556,4.688,6.547
	c-4.849,19.156-14.387,35.888-26.996,50.275c15.115-9.134,29.179-19.722,42.111-31.442c17.458-15.922,33.462-33.3,46.314-53.104
	c1.859-2.91,5.9-8.972,1.455-11.801C476.884,507.256,474.135,508.064,472.357,510.246z"/>
<polygon points="97.559,513.398 79.373,529.806 70.805,520.269 73.715,517.601 79.292,523.744 83.576,519.865 78.403,514.045 
	81.313,511.459 86.486,517.278 94.488,510.003 "/>
<polygon points="86.889,501.194 67.329,515.985 59.732,505.963 62.965,503.456 67.815,509.923 72.341,506.528 67.895,500.547 
	70.967,498.203 75.493,504.184 80.909,500.062 75.897,493.514 79.211,491.009 "/>
<path d="M71.695,486.564l-1.051-1.778c-0.566-0.809-1.051-1.455-1.375-1.698c-0.323-0.242-0.727-0.404-1.131-0.404
	c-0.809-0.081-1.697,0.162-2.749,0.565c-1.051,0.485-2.586,1.294-4.607,2.587c-2.021,1.293-3.475,2.344-4.284,3.071
	s-1.293,1.455-1.455,2.183c-0.162,0.404-0.081,0.808,0,1.212c0.162,0.405,0.404,0.97,0.889,1.778l1.051,1.617L71.695,486.564
	L71.695,486.564z M77.11,488.423l-20.772,13.013l-3.88-6.224c-0.808-1.293-1.375-2.344-1.617-3.233s-0.242-1.778-0.081-2.587
	c0.242-1.131,0.808-2.182,1.697-3.233c0.889-0.97,2.505-2.183,4.769-3.556c2.991-1.859,5.173-3.072,6.467-3.638
	c1.374-0.565,2.667-0.808,3.799-0.889c1.131,0,2.182,0.243,2.99,0.889c0.889,0.647,2.021,2.021,3.314,4.122L77.11,488.423z"/>
<polygon points="67.168,472.014 45.102,482.765 39.606,471.449 43.243,469.671 46.799,476.864 51.891,474.359 48.577,467.65 
	52.053,465.952 55.367,472.661 61.429,469.751 57.792,462.315 61.51,460.537 "/>
<path d="M45.183,458.516l-0.97-2.425c-0.485-1.293-1.051-2.021-1.698-2.344c-0.728-0.242-1.697-0.162-2.991,0.324
	c-1.131,0.484-1.778,1.051-2.021,1.697c-0.323,0.728-0.162,1.778,0.404,3.152l0.808,2.102L45.183,458.516L45.183,458.516z
	 M59.974,457.546L37.1,466.357l-2.991-7.598c-0.889-2.344-1.051-4.203-0.485-5.577c0.566-1.374,1.859-2.425,4.042-3.233
	c1.455-0.647,2.748-0.809,3.799-0.566c1.051,0.243,1.859,0.809,2.425,1.859c-0.243-2.263,1.051-3.96,3.96-5.173
	c0.081-0.081,0.162-0.081,0.243-0.081l2.99-1.293c0.889-0.404,1.536-0.728,1.94-1.132c0.485-0.404,0.809-0.808,1.051-1.374
	l1.94,5.092c-0.323,0.242-0.727,0.485-1.293,0.728c-0.485,0.323-1.212,0.646-2.102,0.97l-2.425,1.051l-0.566,0.162
	c-1.374,0.566-2.182,1.212-2.424,1.94c-0.324,0.728-0.081,2.021,0.565,3.718l0.566,1.455l10.022-3.88L59.974,457.546z"/>
<path d="M42.435,438.067l-1.051-3.799l-9.376,4.769L42.435,438.067L42.435,438.067z M53.67,441.624l-25.056,1.455l-1.698-5.9
	l22.066-12.125l1.293,4.769l-5.578,2.829l1.456,5.092l6.224-0.566L53.67,441.624z"/>
<path d="M37.908,415.031l-0.808-4.365c0.081,0,0.242-0.081,0.484-0.162c0.162,0,0.324-0.081,0.405-0.081
	c2.829-0.566,5.011-0.323,6.546,0.566c1.617,0.889,2.668,2.586,3.072,5.011c0.242,1.131,0.323,2.102,0.162,2.99
	c-0.162,0.889-0.485,1.697-0.97,2.425c-0.646,0.97-1.697,1.778-3.071,2.424c-1.455,0.566-3.96,1.212-7.598,1.94
	c-2.425,0.485-4.445,0.809-5.981,0.889c-1.455,0.081-2.586,0-3.395-0.323c-1.213-0.404-2.182-1.051-2.91-1.94
	c-0.647-0.889-1.132-2.021-1.455-3.557c-0.485-2.424-0.162-4.284,0.889-5.658c1.05-1.374,2.99-2.344,5.819-2.91l0.809,4.365
	l-0.566,0.162c-1.293,0.243-2.263,0.646-2.749,1.131c-0.565,0.566-0.808,1.293-0.646,2.183c0.242,1.051,0.808,1.697,1.778,1.939
	c0.97,0.162,3.475-0.081,7.436-0.889c4.364-0.808,6.951-1.536,7.84-2.102c0.808-0.566,1.131-1.374,0.969-2.425
	c-0.162-1.051-0.727-1.617-1.535-1.94c-0.809-0.243-2.183-0.162-4.203,0.243L37.908,415.031z"/>
<rect x="20.083" y="402.439" transform="matrix(0.9899 -0.1414 0.1414 0.9899 -56.9198 8.6476)" width="24.576" height="4.573"/>
<path d="M31.119,393.45c3.96-0.243,6.547-0.647,7.517-1.213c1.051-0.565,1.455-1.455,1.375-2.748
	c-0.081-1.212-0.647-2.021-1.698-2.425c-1.051-0.404-3.637-0.404-7.679-0.162c-4.042,0.324-6.627,0.728-7.598,1.212
	c-1.051,0.566-1.455,1.455-1.374,2.748c0.081,1.212,0.647,2.021,1.698,2.425C24.491,393.693,26.997,393.774,31.119,393.45
	L31.119,393.45z M31.442,398.138c-2.586,0.162-4.688,0.243-6.305,0.081c-1.536-0.162-2.748-0.485-3.556-0.889
	c-1.131-0.646-2.021-1.455-2.587-2.425c-0.485-0.889-0.808-2.182-0.97-3.799c-0.081-1.617,0.081-2.91,0.485-3.961
	c0.404-0.97,1.131-1.94,2.182-2.748c0.727-0.566,1.94-0.97,3.476-1.375c1.536-0.323,3.557-0.565,6.143-0.727
	c2.587-0.243,4.607-0.243,6.224-0.081c1.536,0.081,2.749,0.404,3.557,0.889c1.212,0.647,2.021,1.375,2.586,2.345
	c0.566,0.97,0.889,2.263,0.97,3.88c0.162,1.616,0,2.909-0.404,3.879c-0.404,1.051-1.131,1.94-2.182,2.749
	c-0.809,0.566-1.94,1.051-3.476,1.374C36.05,397.654,34.029,397.976,31.442,398.138z"/>
<polygon points="42.031,377.527 17.54,377.123 17.621,372.435 34.837,366.292 17.701,366.131 17.782,361.846 42.354,362.251 
	42.273,366.939 24.976,373.082 42.112,373.243 "/>
<polygon points="42.839,349.884 18.672,346.004 19.722,339.215 35.969,338.406 20.773,332.587 21.823,325.797 46.072,329.596 
	45.425,333.961 23.925,330.405 44.698,338.326 44.294,341.155 22.066,342.205 43.566,345.519 "/>
<polygon points="47.204,325.797 23.521,319.412 26.754,307.288 30.715,308.339 28.614,316.179 34.11,317.634 36.05,310.359 
	39.767,311.41 37.828,318.523 44.375,320.301 46.476,312.38 50.517,313.511 "/>
<polygon points="50.517,311.572 40.819,301.711 27.563,302.923 29.341,298.073 37.666,297.669 31.604,291.93 33.301,287.081 
	42.596,296.78 56.418,295.325 54.639,300.175 45.748,300.741 52.215,306.965 "/>
<polygon points="57.388,293.305 34.756,283.767 36.534,279.564 59.166,289.101 "/>
<path d="M57.307,272.613l2.021-3.96c0.081,0,0.242,0.08,0.404,0.162c0.243,0.081,0.323,0.162,0.485,0.242
	c2.506,1.293,4.122,2.748,4.769,4.445c0.728,1.698,0.485,3.638-0.647,5.82c-0.485,1.051-1.131,1.859-1.778,2.505
	c-0.646,0.566-1.375,0.97-2.182,1.213c-1.132,0.404-2.506,0.404-3.96,0c-1.456-0.324-3.88-1.375-7.113-3.071
	c-2.263-1.132-4.041-2.102-5.253-2.991c-1.213-0.889-2.102-1.617-2.587-2.345c-0.646-1.131-1.051-2.182-1.051-3.313
	c0-1.132,0.323-2.344,1.051-3.638c1.132-2.263,2.505-3.556,4.203-3.96c1.617-0.404,3.799,0,6.304,1.293l-2.021,3.961l-0.485-0.323
	c-1.212-0.566-2.182-0.809-2.991-0.728c-0.728,0.081-1.293,0.484-1.697,1.293c-0.565,0.97-0.485,1.859,0.162,2.586
	c0.646,0.809,2.748,2.102,6.385,3.961c3.96,2.021,6.385,3.071,7.436,3.153c1.051,0.081,1.778-0.405,2.263-1.375
	c0.485-0.889,0.485-1.697,0-2.425c-0.485-0.646-1.617-1.455-3.395-2.425L57.307,272.613z"/>
<path d="M62.803,260.084l2.021-3.313l-9.78-3.799L62.803,260.084L62.803,260.084z M67.653,270.835L49.79,253.214l3.233-5.254
	l23.764,8.325l-2.586,4.122l-5.9-2.182l-2.829,4.446l4.607,4.284L67.653,270.835z"/>
<polygon points="78.08,254.103 58.519,239.393 61.348,235.594 78.888,240.847 65.066,230.582 67.734,227.188 87.294,241.898 
	84.465,245.616 66.926,240.444 80.666,250.708 "/>
<path d="M85.758,228.481l2.587-2.91l-8.972-5.416L85.758,228.481L85.758,228.481z M88.668,239.958l-14.549-20.53l4.123-4.607
	l21.904,12.286l-3.233,3.637l-5.416-3.233l-3.556,3.96l3.799,5.011L88.668,239.958z"/>
<path d="M395.733,217.892l1.455,1.455c0.728,0.728,1.212,1.212,1.617,1.455c0.404,0.162,0.808,0.242,1.293,0.162
	c0.727-0.162,1.536-0.566,2.506-1.212c0.889-0.647,2.263-1.778,3.96-3.476c1.778-1.616,2.91-2.91,3.557-3.798
	c0.646-0.97,0.969-1.778,0.969-2.506c0.082-0.404-0.08-0.809-0.242-1.132c-0.242-0.404-0.646-0.889-1.293-1.536l-1.374-1.455
	L395.733,217.892L395.733,217.892z M390.074,217.165l17.62-16.974l5.092,5.254c1.051,1.051,1.778,2.021,2.182,2.829
	c0.485,0.809,0.647,1.617,0.647,2.425c0,1.212-0.323,2.425-0.97,3.556c-0.728,1.131-2.021,2.667-3.961,4.526
	c-2.505,2.425-4.364,4.042-5.577,4.85s-2.345,1.375-3.476,1.697c-1.131,0.243-2.182,0.162-3.152-0.242
	c-0.97-0.485-2.344-1.617-4.041-3.395L390.074,217.165z"/>
<polygon points="403.573,230.663 422.325,214.902 430.489,224.52 427.336,227.188 422.163,221.045 417.798,224.682 422.648,230.421 
	419.657,232.926 414.807,227.107 409.635,231.471 414.969,237.776 411.817,240.444 "/>
<polygon points="418.849,249.739 439.218,235.998 446.411,246.667 443.097,248.849 438.409,242.06 433.641,245.293 438.005,251.759 
	434.772,253.942 430.407,247.475 421.436,253.537 "/>
<path d="M448.917,250.951l2.263,4.042l-14.468,8.002c-1.617,0.889-2.667,1.697-2.991,2.425c-0.404,0.728-0.324,1.617,0.243,2.667
	c0.566,1.05,1.293,1.535,2.101,1.617c0.809,0.081,2.021-0.324,3.718-1.294l14.388-8.002l2.182,3.961l-14.792,8.244
	c-1.455,0.809-2.505,1.293-3.313,1.455c-0.727,0.243-1.455,0.243-2.183,0.162c-1.051-0.162-2.021-0.566-2.91-1.374
	c-0.889-0.728-1.698-1.697-2.425-2.99c-1.375-2.506-1.778-4.527-1.293-6.063c0.485-1.617,2.02-3.152,4.688-4.607L448.917,250.951z"
	/>
<polygon points="438.409,283.12 457.161,274.714 454.979,269.946 458.697,268.329 464.84,282.07 461.122,283.767 459.021,278.918 
	440.268,287.243 "/>
<path d="M448.19,297.346l0.646,1.778c0.324,1.131,0.889,1.859,1.617,2.101c0.647,0.243,1.698,0.162,3.072-0.323
	c1.374-0.485,2.263-1.051,2.667-1.698c0.323-0.727,0.323-1.697-0.162-3.071l-0.485-1.293L448.19,297.346L448.19,297.346z
	 M458.697,293.79l0.485,1.455c0.323,1.051,0.889,1.697,1.455,1.94c0.647,0.243,1.536,0.162,2.829-0.243
	c1.131-0.404,1.858-0.889,2.102-1.455c0.242-0.566,0.242-1.375-0.162-2.587l-0.485-1.293L458.697,293.79L458.697,293.79z
	 M443.421,294.275l23.198-7.921l2.424,6.951c0.647,1.939,0.728,3.556,0.081,4.849c-0.565,1.293-1.778,2.264-3.718,2.91
	c-1.536,0.566-2.829,0.728-3.799,0.566c-1.051-0.243-1.778-0.728-2.263-1.617c0.242,1.131,0,2.182-0.728,3.071
	c-0.728,0.889-1.859,1.617-3.395,2.182c-2.506,0.809-4.446,0.97-5.981,0.324c-1.456-0.647-2.587-2.021-3.395-4.204L443.421,294.275z
	"/>
<path d="M462.173,312.38c-3.88,0.97-6.305,1.859-7.194,2.506c-0.889,0.727-1.212,1.697-0.889,2.99
	c0.323,1.132,1.051,1.778,2.102,2.021c1.131,0.162,3.637-0.243,7.598-1.213c3.96-0.889,6.385-1.697,7.274-2.425
	s1.213-1.697,0.889-2.91c-0.323-1.212-0.97-1.94-2.102-2.102C468.72,311.006,466.133,311.41,462.173,312.38L462.173,312.38z
	 M461.041,307.854c2.587-0.647,4.607-0.97,6.143-1.131c1.617-0.162,2.829-0.081,3.718,0.242c1.293,0.404,2.263,1.051,2.91,1.94
	c0.728,0.808,1.293,2.021,1.698,3.556c0.323,1.617,0.404,2.91,0.242,3.96c-0.242,1.051-0.808,2.021-1.697,2.991
	c-0.727,0.728-1.778,1.375-3.152,1.94c-1.455,0.647-3.476,1.212-5.981,1.859c-2.505,0.646-4.526,1.051-6.062,1.132
	c-1.616,0.162-2.829,0.081-3.718-0.242c-1.293-0.405-2.264-1.051-2.991-1.859c-0.647-0.889-1.212-2.021-1.617-3.637
	c-0.404-1.455-0.485-2.748-0.242-3.879c0.242-1.051,0.808-2.102,1.697-2.991c0.646-0.728,1.697-1.375,3.152-2.021
	C456.595,309.147,458.535,308.5,461.041,307.854z"/>
<polygon points="453.928,329.515 478.095,325.717 478.823,330.243 458.778,333.395 460.072,341.559 455.949,342.205 "/>
<path d="M467.184,357.805l0.162,3.879l10.184-2.344L467.184,357.805L467.184,357.805z M457.08,351.582l24.733,4.688l0.243,6.062
	l-24.329,6.466l-0.162-4.93l6.062-1.455l-0.162-5.254l-6.224-0.889L457.08,351.582z"/>
<path d="M466.537,371.142l-0.162,4.607l-1.617-0.081c-1.455-0.081-2.505,0.081-3.071,0.485c-0.565,0.323-0.809,0.97-0.889,1.859
	c0,0.97,0.162,1.697,0.646,2.263c0.485,0.485,1.212,0.808,2.183,0.808c0.728,0,1.374-0.081,1.859-0.485
	c0.566-0.323,1.293-1.051,2.102-2.182l1.778-2.263c1.455-1.94,2.667-3.233,3.556-3.718c0.97-0.485,2.102-0.728,3.476-0.728
	c2.102,0.081,3.637,0.728,4.769,2.021c1.131,1.294,1.697,2.991,1.617,5.092c-0.082,2.263-0.809,3.961-2.021,5.173
	c-1.293,1.132-3.152,1.698-5.416,1.617c-0.242,0-0.485,0-0.565,0c-0.162,0-0.243-0.081-0.324-0.081l0.162-4.284h0.646
	c1.293,0.081,2.263-0.162,2.829-0.566c0.566-0.404,0.889-1.132,0.97-2.102c0-0.728-0.162-1.293-0.565-1.778
	c-0.485-0.404-1.051-0.646-1.778-0.646c-1.051-0.081-2.264,0.808-3.557,2.667v0.081l-1.778,2.425
	c-1.294,1.778-2.425,2.91-3.557,3.556c-1.051,0.566-2.425,0.889-4.042,0.809c-2.183-0.081-3.88-0.809-5.092-2.102
	c-1.131-1.293-1.698-3.152-1.617-5.496c0.081-2.506,0.808-4.284,2.102-5.497c1.293-1.131,3.313-1.697,5.9-1.536
	c0.242,0,0.728,0,1.375,0.081H466.537z"/>
<path d="M468.639,394.824c-3.96-0.485-6.547-0.566-7.598-0.161c-1.131,0.323-1.778,1.131-1.858,2.344
	c-0.162,1.293,0.242,2.182,1.212,2.748c0.889,0.566,3.395,1.132,7.436,1.616c4.041,0.485,6.627,0.566,7.759,0.243
	c1.051-0.323,1.697-1.132,1.859-2.344c0.162-1.293-0.243-2.183-1.293-2.748C475.186,395.875,472.68,395.39,468.639,394.824
	L468.639,394.824z M469.204,390.217c2.587,0.323,4.688,0.728,6.143,1.132c1.536,0.404,2.667,0.969,3.395,1.536
	c0.97,0.889,1.697,1.778,2.021,2.829c0.404,1.051,0.485,2.344,0.243,3.96c-0.162,1.616-0.566,2.909-1.212,3.798
	c-0.566,0.889-1.455,1.698-2.667,2.263c-0.809,0.404-2.021,0.647-3.637,0.647c-1.536,0.081-3.637-0.081-6.224-0.404
	c-2.506-0.243-4.607-0.646-6.063-1.051c-1.536-0.485-2.667-0.97-3.395-1.617c-1.051-0.808-1.697-1.778-2.102-2.829
	c-0.323-0.97-0.404-2.344-0.162-3.96c0.162-1.536,0.566-2.829,1.132-3.718c0.646-0.97,1.536-1.697,2.667-2.263
	c0.889-0.404,2.101-0.646,3.637-0.728C464.597,389.813,466.618,389.894,469.204,390.217z"/>
<path d="M461.284,419.477l-0.889,4.364c-0.162-0.081-0.323-0.081-0.485-0.081c-0.243-0.081-0.404-0.081-0.485-0.162
	c-2.748-0.565-4.688-1.536-5.82-2.991c-1.051-1.455-1.374-3.395-0.889-5.82c0.243-1.131,0.647-2.102,1.132-2.829
	c0.404-0.808,1.051-1.375,1.778-1.859c1.051-0.647,2.263-0.97,3.799-0.97c1.536,0,4.122,0.323,7.678,1.132
	c2.506,0.484,4.446,1.051,5.901,1.535c1.375,0.485,2.424,1.051,3.071,1.617c0.889,0.889,1.536,1.859,1.859,2.91
	c0.242,1.051,0.242,2.344-0.081,3.799c-0.485,2.425-1.536,4.042-2.991,4.93c-1.535,0.809-3.637,0.889-6.466,0.324l0.889-4.284
	l0.566,0.081c1.374,0.323,2.344,0.243,3.071,0c0.728-0.324,1.212-0.889,1.374-1.697c0.243-1.132-0.081-1.94-0.889-2.505
	c-0.808-0.566-3.152-1.294-7.194-2.102c-4.284-0.97-6.951-1.293-8.001-1.132c-0.97,0.162-1.617,0.809-1.859,1.859
	c-0.162,1.051,0,1.778,0.646,2.344c0.647,0.566,2.021,1.051,3.961,1.455L461.284,419.477z"/>
<polygon points="451.019,425.619 455.221,426.832 454.09,430.792 449.887,429.58 "/>
<path d="M444.068,431.924l1.616,0.566c-0.162,0.646-0.081,1.212,0.323,1.778c0.323,0.566,0.889,0.97,1.697,1.213l0.243,0.081
	l0.646-2.102l4.203,1.293l-1.212,3.96l-4.284-1.375c-1.212-0.404-2.183-1.131-2.749-2.102
	C443.987,434.268,443.825,433.217,444.068,431.924z"/>
<path d="M450.533,457.385l-1.536,3.557l10.185,2.424L450.533,457.385L450.533,457.385z M444.229,447.443l20.207,15.034l-2.506,5.577
	l-24.652-4.93l1.94-4.446l6.143,1.375l2.102-4.769l-5.092-3.638L444.229,447.443z"/>
<polygon points="435.742,465.548 439.621,467.65 437.682,471.287 433.802,469.186 "/>
<path d="M434.53,485.917l-2.264,3.799c-0.081,0-0.242-0.081-0.404-0.162c-0.243-0.162-0.323-0.242-0.485-0.242
	c-2.425-1.455-3.879-3.072-4.445-4.85c-0.565-1.697-0.243-3.637,1.051-5.739c0.566-0.97,1.212-1.778,1.94-2.344
	c0.646-0.566,1.455-0.97,2.344-1.132c1.131-0.242,2.425-0.162,3.88,0.324c1.455,0.485,3.718,1.616,6.951,3.556
	c2.102,1.293,3.799,2.425,5.011,3.395c1.132,0.889,1.94,1.697,2.344,2.505c0.647,1.132,0.889,2.263,0.809,3.314
	c-0.081,1.132-0.485,2.344-1.293,3.638c-1.213,2.101-2.749,3.313-4.446,3.637c-1.697,0.324-3.718-0.323-6.224-1.778l2.263-3.799
	l0.566,0.323c1.131,0.728,2.101,1.05,2.829,0.97c0.808,0,1.374-0.404,1.859-1.131c0.565-0.97,0.565-1.859,0-2.667
	c-0.566-0.809-2.587-2.264-6.062-4.365c-3.799-2.263-6.224-3.476-7.275-3.637c-0.97-0.161-1.778,0.243-2.344,1.132
	c-0.484,0.889-0.565,1.697-0.161,2.424c0.484,0.728,1.536,1.617,3.233,2.667L434.53,485.917z"/>
<polygon points="422.729,488.261 426.366,490.767 424.022,494.161 420.385,491.656 "/>
<path fill="#009D57" d="M116.069,233.815c-13.498,13.256-25.138,28.452-34.271,45.183c-14.873,27.239-23.359,58.357-23.359,91.497
	l0,0c-0.081,25.138,4.365,49.386,12.851,71.613c5.092,13.336,11.721,25.946,19.641,37.504c1.294,1.697,2.667,3.071,4.122,4.122
	c6.79,5.011,16.732,2.829,22.552-2.667c8.567-7.921,7.193-22.147,1.455-31.361c-7.032-11.316-12.609-24.006-16.408-37.585
	c-3.718-13.256-5.658-27.32-5.658-41.626c0-19.318,3.557-37.747,10.104-54.639c6.79-17.621,16.813-33.786,29.341-47.688
	c4.284-4.769,6.951-9.942,7.113-15.681c0.162-6.143-2.344-13.013-7.436-16.57C130.537,231.957,122.535,231.31,116.069,233.815z"/>
<path fill="#EF3E33" d="M415.05,470.721c6.143-10.508,11.235-21.581,15.115-32.897l0.081,0.081
	c7.518-21.096,11.397-43.89,11.316-67.411l0,0c0-33.139-8.487-64.258-23.358-91.497c-9.053-16.651-20.45-31.847-33.948-45.021
	c-6.547-2.667-14.71-2.102-20.369,1.939c-5.092,3.557-7.598,10.427-7.436,16.57c0.162,5.739,2.829,10.912,7.113,15.681
	c12.528,13.902,22.551,30.068,29.341,47.688c6.547,16.893,10.104,35.321,10.104,54.639c0,14.307-1.94,28.371-5.658,41.626
	c-3.799,13.579-9.376,26.269-16.408,37.585c-5.738,9.214-7.113,23.439,1.456,31.361c5.819,5.497,15.761,7.679,22.551,2.667
	c2.263-1.617,4.284-4.042,6.385-7.274C412.625,474.601,413.838,472.661,415.05,470.721z"/>
<path fill="#FFFFFF" d="M206.838,495.859l-41.788-11.962c-3.799,1.94-11.558,9.134-24.086,34.594
	c2.91,23.844,14.549,45.748,17.135,50.437c4.769,3.395,16.166,9.053,39.929,10.346c3.396-4.931,19.479-28.289,25.138-35.16
	C214.597,532.959,208.131,502.567,206.838,495.859z"/>
<path fill="#FFFFFF" d="M343.599,569.331c-6.224,2.829-27.239,11.881-39.606,9.699c-1.536-2.829-4.042-6.871-6.951-11.235
	c-5.82-8.972-13.256-19.479-16.569-24.167c2.505-5.9,10.265-25.46,12.528-48.416c7.598-2.991,32.25-12.609,41.061-14.226
	c4.688,3.313,16.246,12.852,26.188,33.705C358.228,523.502,349.66,559.389,343.599,569.331z"/>
<path fill="#FFFFFF" d="M301.73,579.839c-2.102,5.092-12.044,28.775-21.581,35.241c-26.997,4.446-50.437,1.536-57.226,0.485
	c-11.316-7.355-21.096-32.332-22.389-35.726c4.445-6.385,19.641-28.371,24.491-34.271c4.688,0.809,27.562,4.527,53.912-0.081
	c3.476,4.931,10.508,15.034,16.166,23.602C297.85,573.291,300.194,577.091,301.73,579.839z"/>
<path fill="#FFFFFF" d="M332.282,436.612c-10.992-6.709-35.726-24.491-43.404-29.987c-8.567,1.859-32.088,7.437-39.444,14.469
	c1.213,15.6,1.94,35.241,2.183,42.838c24.733,12.933,36.696,25.138,40.252,29.179c6.951-2.748,30.391-11.882,40.818-14.145
	C338.183,472.904,333.899,445.664,332.282,436.612z"/>
<path fill="#FFFFFF" d="M351.277,436.855c-4.042-5.496-8.406-10.75-13.256-15.519c-15.68-15.68-35.483-27.239-57.63-32.816
	c1.132,2.505,5.738,12.69,10.346,16.489c0.323,0.242,0.647,0.565,1.051,0.809c0.162,0.081,0.243,0.081,0.323,0.161c0,0,0,0-0.081,0
	c9.942,7.194,35.322,25.299,43.728,29.906C345.215,440.491,349.579,438.39,351.277,436.855z"/>
<path fill="#FFFFFF" d="M349.176,584.689c15.923-20.935,25.461-47.042,25.461-75.332c0-2.263-0.081-4.527-0.243-6.79
	c-2.91,0.647-9.375,9.458-11.962,13.094c-2.182,9.457-10.669,44.293-17.297,55.206C344.003,583.072,346.832,584.931,349.176,584.689
	z"/>
<path fill="#FFFFFF" d="M209.667,627.284c12.69,4.365,26.269,6.709,40.333,6.709c14.71,0,28.855-2.587,41.949-7.274
	c0.889-4.527-7.678-7.679-12.609-9.134c-24.976,3.961-46.88,1.697-55.205,0.565C218.477,619.363,208.131,622.273,209.667,627.284z"
	/>
<path fill="#FFFFFF" d="M125.445,509.115c-0.162,27.724,9.214,54.801,26.269,76.706c2.021-1.131,5.496-4.85,3.88-16.489
	c-3.233-6.062-13.902-26.835-16.893-49.628C136.437,516.308,130.375,508.145,125.445,509.115z"/>
<path fill="#FFFFFF" d="M212.092,390.621c-19.076,6.143-36.211,16.812-50.113,30.714c-6.709,6.708-12.69,14.226-17.782,22.309
	c2.102,0,8.729,0,13.74-1.94c6.709-5.092,40.737-30.876,47.446-35.969C208.374,401.937,215.002,392.965,212.092,390.621z"/>
<path fill="#FFFFFF" d="M249.272,464.336c-0.242-7.518-0.97-28.209-2.263-44.051c-2.91-3.476-12.125-10.184-40.252-12.69
	c-6.467,5.011-36.615,27.805-45.83,34.836c-0.404,7.76-1.212,32.089,4.445,39.04l41.95,12.125
	C216.78,481.309,242.564,467.731,249.272,464.336z"/>
<path fill="#BC9D67" d="M361.947,172.871c5.981,3.395,11.72,7.032,17.378,10.912c4.203,2.99,6.224,1.858,9.052-1.778l22.39-29.583
	c2.021-2.667,2.182-6.062-0.728-8.083c-13.74-9.78-28.289-18.186-43.323-25.137c1.293,7.193,1.536-0.404,0.242,30.472
	c-0.242,5.173,0.97,10.588-0.323,15.681C365.988,167.86,364.21,170.365,361.947,172.871z"/>
<path fill="#BC9D67" d="M155.917,109.745c-30.553,11.074-58.6,27.32-83.091,47.85c-2.748,2.263-2.344,5.658-0.162,8.083
	l24.652,27.724c3.152,3.476,5.173,4.365,9.214,1.132c19.964-16.328,42.757-29.341,67.411-38.151
	c1.778-0.646,3.475-1.212,5.253-1.778c-1.131-1.455-1.859-2.424-1.94-2.586l-1.536-3.314l-5.254-10.993
	c-1.859-3.718-3.799-9.941-3.88-10.265c-2.586-5.9-5.658-15.842-5.658-15.842c-0.647-0.647-1.051-1.778-1.293-3.233
	C158.342,108.856,157.129,109.26,155.917,109.745z"/>
<path d="M186.551,238.665l1.374,2.182c2.345,3.476,4.042,7.517-1.455,10.184l-7.679,4.123l-1.131-2.102l7.679-4.203h0.081
	c3.718-1.859,1.94-4.445,0.565-6.627l-1.455-2.183L186.551,238.665z"/>
<path d="M168.445,304.863c0,0,1.778,1.536,3.718-0.242l0.565-6.143l6.547-0.889c0,0,1.94-2.829-1.778-4.365l-5.739,0.97
	c0,0-2.263,3.071-2.909,3.718L168.445,304.863z"/>
<path d="M148.561,366.211c0.485,0.97,0.081,2.182-0.889,2.667l-2.667,1.293c-0.97,0.404-2.182,0.081-2.586-0.97
	c-0.485-0.97-0.081-2.102,0.889-2.587l2.586-1.293C146.864,364.837,148.076,365.241,148.561,366.211z"/>
<path d="M142.742,376.638c-0.485,0.97-0.081,2.182,0.889,2.667l2.667,1.293c0.97,0.485,2.182,0.081,2.667-0.889
	c0.485-0.97,0.081-2.182-0.889-2.667l-2.667-1.293C144.439,375.264,143.227,375.668,142.742,376.638z"/>
<path d="M145.652,439.037l-0.728-7.921c0,0-0.243-2.424,2.344-2.021l4.849,0.728L145.652,439.037z"/>
<path d="M106.288,343.499l4.607,0.97c4.607,0.97,7.355,2.344,6.385,7.84l-1.132,6.709l-2.424-0.405l1.212-6.789
	c0.646-3.88-1.536-4.365-4.445-4.931l-4.688-0.97L106.288,343.499z"/>
<path d="M108.309,338.002l6.305,1.293c6.224,1.213,9.618,3.072,8.406,9.942l-1.697,9.376l-2.425-0.484l1.698-9.376
	c0.969-5.335-1.94-6.143-6.467-7.113l-6.304-1.293L108.309,338.002z"/>
<path d="M113.563,318.038l4.284,1.697c4.365,1.859,6.871,3.637,4.931,8.891l-2.344,6.385l-2.344-0.808l2.425-6.467
	c1.293-3.718-0.727-4.526-3.475-5.658l-4.446-1.859L113.563,318.038z"/>
<path d="M116.554,313.027l5.9,2.425c5.981,2.344,8.891,4.607,6.467,11.154l-3.314,8.891l-2.344-0.809l3.395-8.972
	c1.94-5.092-0.808-6.385-5.092-8.083l-5.981-2.344L116.554,313.027z"/>
<path d="M125.283,294.275l3.88,2.505c3.96,2.586,6.062,4.85,3.233,9.619l-3.475,5.9l-2.102-1.212l3.556-5.981
	c1.94-3.395,0.081-4.607-2.425-6.224l-3.96-2.586L125.283,294.275z"/>
<path d="M129.082,289.829l5.496,3.476c5.335,3.395,7.841,6.224,4.284,12.286l-4.93,8.083l-2.102-1.213l4.931-8.164
	c2.829-4.688,0.404-6.466-3.556-8.972l-5.416-3.395L129.082,289.829z"/>
<path d="M141.125,273.017l3.395,3.152c3.395,3.233,5.092,5.819,1.374,10.104l-4.445,5.092l-1.859-1.617l4.526-5.173
	c2.587-2.991,0.97-4.526-1.212-6.547l-3.475-3.234L141.125,273.017z"/>
<path d="M145.652,269.299l4.769,4.365c3.152,2.991,5.092,5.416,4.526,8.406c1.132,0.889,4.123,3.637,4.769,4.284
	c0.889,0.889,0.646,0.728,1.616,1.051c0,0,11.316,1.697,9.7,4.041c0.162,0.081-4.446,9.457-7.355,5.012
	c-0.162,0-3.961-7.356-3.234-8.892l-5.577-5.334c-0.242,1.293-1.051,2.667-2.505,4.284l-6.224,7.193l-1.859-1.617l6.305-7.194
	c3.637-4.122,1.535-6.304-1.859-9.457l-4.688-4.365L145.652,269.299z"/>
<path d="M106.127,396.36l4.607-0.727c4.688-0.728,7.678-0.485,8.81,5.011l1.293,6.708l-2.425,0.485l-1.293-6.79
	c-0.728-3.799-2.991-3.476-5.9-3.072l-4.688,0.728L106.127,396.36z"/>
<path d="M106.046,390.46l6.305-1.051c6.305-1.051,10.104-0.485,11.397,6.305l1.778,9.375l-2.424,0.485l-1.778-9.376
	c-0.97-5.415-3.961-5.092-8.568-4.364l-6.304,1.051L106.046,390.46z"/>
<path d="M113.159,421.901l4.364-1.535c4.527-1.536,7.518-1.859,9.619,3.395l2.505,6.304l-2.263,0.889l-2.586-6.385
	c-1.374-3.637-3.557-2.91-6.386-1.94l-4.445,1.536L113.159,421.901z"/>
<path d="M112.027,416.163l6.062-2.182c5.981-2.183,9.781-2.345,12.286,4.203l3.395,8.81l-2.263,0.889l-3.395-8.891
	c-1.94-5.092-4.85-4.284-9.214-2.667l-6.062,2.102L112.027,416.163z"/>
<path d="M124.718,445.746l4.042-2.263c4.122-2.344,7.031-3.153,10.022,1.616l3.557,5.739l-2.021,1.293l-3.638-5.82
	c-2.102-3.314-4.041-2.263-6.627-0.809l-4.122,2.425L124.718,445.746z"/>
<path d="M122.535,440.33l5.577-3.233c5.496-3.233,9.214-4.042,12.852,1.859l4.93,8.164l-2.021,1.212l-5.011-8.083
	c-2.829-4.688-5.577-3.395-9.538-1.051l-5.577,3.233L122.535,440.33z"/>
<path d="M142.014,409.454c0.647-0.242,2.345,2.587,3.799,6.385c1.455,3.799,2.102,7.113,1.455,7.274
	c-0.566,0.243-2.021-2.102-3.395-5.415c-0.565,0.323-1.293,0.646-2.102,0.889c-0.565,0.162-1.051,0.242-1.536,0.242
	c-0.162,0.97-1.051,1.698-2.021,1.617c-1.131-0.081-1.94-0.97-1.859-2.102c0.081-1.051,0.97-1.859,2.102-1.778
	c0.323,0,0.647,0.081,0.889,0.243c0.485-0.243,1.051-0.485,1.697-0.646c0.809-0.242,1.536-0.324,2.102-0.324
	C141.933,412.445,141.448,409.696,142.014,409.454z"/>
<path d="M156.159,419.234c0,0-4.042,2.748-6.062-1.051c0,0-0.404-0.566-0.889-1.374c-0.081,0.485-0.323,0.889-0.646,1.131
	c-0.808,0.324-1.859-0.404-2.506-1.697c-0.565-1.293-0.485-2.586,0.324-2.91c0.323-0.242,0.809-0.081,1.293,0.162
	c-0.808-2.263-0.97-5.011,1.293-6.871c0,0,4.041-2.263,4.284-0.889c0.081,0.324,0.324,1.132-0.727,1.778c0,0-3.961,1.859-1.698,5.9
	c0,0,1.536,4.446,3.638,3.638C154.462,417.052,160.039,416.001,156.159,419.234z"/>
<path d="M133.528,403.311l-3.557-7.759c0,0-3.718-2.425,0.89-9.781c0,0,2.101-0.808,2.344,0.728l-0.405,3.718
	c0,0,0.809,2.425,3.718,0.404c0,0,2.021-1.212,1.617,3.313c0,0,0.081,3.314,1.293,3.88c0,0,2.182,3.314-1.859,3.637
	c0,0-2.586-0.808-2.344,4.122c1.212,0.324,1.616,1.859,1.212,2.91c-0.485,1.051-1.778,1.617-2.91,1.131
	c-1.132-0.485-1.617-1.778-1.132-2.909c0.081-0.243,0.243-0.485,0.485-0.647c0.242-0.324,0.646-0.485,1.051-0.566
	C133.689,405.089,133.528,404.443,133.528,403.311z"/>
<path d="M144.439,311.087l2.667-8.083c0,0-1.051-4.364,7.275-6.546c0,0,2.182,0.808,1.293,2.101l-2.829,2.506
	c0,0-1.051,2.263,2.505,2.748c0,0,2.263,0.485-1.132,3.556c0,0-2.263,2.425-1.697,3.718c0,0-0.647,3.88-3.799,1.455
	c0,0-1.374-2.424-4.526,1.375c0.646,1.051-0.082,2.505-1.132,2.91c-1.051,0.484-2.344,0-2.829-1.132
	c-0.566-1.051,0-2.344,1.051-2.829c0.323-0.162,0.566-0.243,0.889-0.243c0.404,0,0.727,0.081,1.132,0.324
	C143.388,312.461,143.712,311.895,144.439,311.087z"/>
<path d="M143.954,320.866c0.647,0.162,0.243,3.476-0.97,7.356c-1.131,3.88-2.667,6.871-3.314,6.627
	c-0.646-0.162-0.323-2.991,0.647-6.466c-0.647,0-1.375-0.162-2.182-0.485c-0.566-0.242-0.97-0.485-1.375-0.727
	c-0.727,0.646-1.859,0.646-2.586,0c-0.808-0.728-0.889-2.021-0.162-2.829c0.727-0.809,1.939-0.889,2.748-0.162
	c0.243,0.242,0.485,0.565,0.566,0.809c0.485,0.081,1.131,0.242,1.778,0.565c0.727,0.242,1.293,0.646,1.778,1.051
	C142.014,323.13,143.388,320.705,143.954,320.866z"/>
<path d="M149.046,337.275c0,0-4.849-0.324-4.122-4.607c0,0,0-0.647,0.162-1.617c-0.404,0.404-0.808,0.566-1.212,0.485
	c-0.809-0.242-1.212-1.455-0.889-2.829c0.324-1.374,1.213-2.344,2.021-2.183c0.405,0.081,0.728,0.485,0.889,1.051
	c0.809-2.344,2.425-4.607,5.254-4.688c0,0,4.607,0.727,3.96,1.939c-0.162,0.323-0.404,1.132-1.697,0.97c0,0-4.284-0.97-4.931,3.557
	c0,0-1.536,4.526,0.565,5.173C149.046,334.527,154.138,337.194,149.046,337.275z"/>
<path d="M131.345,354.734l-0.162-8.568c0,0-2.424-3.798,4.688-8.648c0,0,2.344,0.081,1.859,1.616l-1.778,3.234
	c0,0-0.242,2.505,3.233,1.858c0,0,2.344-0.323,0.081,3.718c0,0-1.212,3.071-0.242,4.042c0,0,0.646,3.88-3.234,2.667
	c0,0-2.102-1.859-3.718,2.748c0.889,0.809,0.646,2.425-0.081,3.152c-0.889,0.809-2.264,0.809-3.152-0.081
	c-0.808-0.889-0.808-2.263,0.081-3.072c0.242-0.242,0.484-0.404,0.727-0.484c0.404-0.162,0.808-0.162,1.213-0.162
	C130.861,356.35,130.941,355.704,131.345,354.734z"/>
<path d="M208.616,262.752c0.323,0.646-2.425,2.506-6.143,4.203c-3.638,1.698-6.871,2.505-7.194,1.94
	c-0.243-0.647,2.102-2.264,5.334-3.799c-0.404-0.485-0.809-1.212-1.131-2.021c-0.162-0.566-0.243-1.051-0.324-1.535
	c-0.97-0.082-1.697-0.889-1.697-1.94s0.808-1.94,1.94-1.94c1.051,0,1.939,0.889,1.939,1.94c0,0.323-0.081,0.646-0.242,0.97
	c0.324,0.404,0.566,1.051,0.808,1.616c0.243,0.809,0.404,1.455,0.404,2.102C205.626,262.833,208.374,262.186,208.616,262.752z"/>
<path d="M199.806,277.543c0,0-2.99-3.96,0.647-6.224c2.829-2.425,8.325-5.173,11.478-1.859c0,0,2.505,3.961,1.131,4.284
	c-0.323,0.082-1.051,0.405-1.859-0.646c0,0-2.021-3.88-5.901-1.294c0,0-4.364,1.779-3.475,3.88
	C201.827,275.684,203.201,281.18,199.806,277.543z"/>
<path d="M217.023,245.131c0,0.082,10.346,12.933,10.346,16.166h-2.425c0-2.344-9.78-14.629-9.861-14.629L217.023,245.131z"/>
<path d="M211.526,249.981c0,0,7.598,9.295,7.355,12.528l-2.425-0.162c0.162-2.263-6.789-10.831-6.87-10.831L211.526,249.981z"/>
<path d="M174.669,276.412l5.819-6.305c0,0,0.89-4.365,9.376-2.91c0,0,1.617,1.617,0.243,2.424l-3.556,1.051
	c0,0-1.94,1.698,1.051,3.638c0,0,1.94,1.374-2.506,2.667c0,0-2.99,1.374-2.99,2.748c0,0-2.264,3.314-4.123-0.323
	c0,0-0.243-2.748-4.688-0.566c0.162,1.213-1.131,2.183-2.182,2.183c-1.212,0-2.183-0.97-2.183-2.183c0-1.212,0.97-2.182,2.183-2.182
	c0.323,0,0.565,0,0.889,0.162c0.323,0.162,0.646,0.404,0.889,0.728C173.133,277.22,173.698,276.816,174.669,276.412z"/>
<path d="M157.453,248.769c0,0.081,2.344,11.801,13.255,16.489l-0.969,2.182c-12.125-5.173-14.711-18.105-14.711-18.187
	L157.453,248.769z"/>
<path d="M147.268,255.235c0,0.081,12.286,13.983,15.519,16.813l-1.617,1.778c-3.314-2.91-15.681-16.893-15.761-16.974
	L147.268,255.235z"/>
<path d="M121.241,374.213c1.859-0.081,4.688-0.162,5.416-0.162c1.213,0,2.344-0.08,3.233-0.565c0,0,7.84-6.224,8.325-3.475
	c0,0,3.152,8.244-1.778,7.113c0,0-6.305-1.456-6.951-2.91l-8.245,0.243l0.081,7.597h-2.505v-9.537c0-5.496-2.991-5.739-7.679-5.82
	l-6.385-0.162v-2.425l6.466,0.162c6.386,0.081,10.022,1.293,10.022,8.245V374.213L121.241,374.213z M103.783,369.929v2.425
	l4.688,0.081c2.991,0.081,5.254,0.162,5.334,4.123l0.081,6.87h2.424l-0.081-6.79c-0.081-5.658-3.071-6.466-7.759-6.627
	L103.783,369.929z"/>
<path d="M331.555,304.863c0,0-1.778,1.536-3.718-0.242l-0.565-6.143l-6.547-0.889c0,0-1.94-2.829,1.778-4.365l5.739,0.97
	c0,0,2.263,3.071,2.909,3.718L331.555,304.863z"/>
<path d="M351.439,366.211c-0.485,0.97-0.081,2.182,0.889,2.667l2.667,1.293c0.97,0.404,2.182,0.081,2.586-0.97
	c0.485-0.97,0.081-2.102-0.889-2.587l-2.586-1.293C353.136,364.837,351.924,365.241,351.439,366.211z"/>
<path d="M357.259,376.638c0.484,0.97,0.081,2.182-0.889,2.667l-2.667,1.293c-0.971,0.485-2.183,0.081-2.667-0.889
	c-0.485-0.97-0.081-2.182,0.889-2.667l2.667-1.293C355.561,375.264,356.773,375.668,357.259,376.638z"/>
<path d="M354.348,439.037l0.728-7.921c0,0,0.243-2.424-2.344-2.021l-4.849,0.728L354.348,439.037z"/>
<path d="M393.711,343.499l-4.607,0.97c-4.607,0.97-7.355,2.344-6.385,7.84l1.132,6.709l2.424-0.405l-1.212-6.789
	c-0.647-3.88,1.536-4.365,4.446-4.931l4.688-0.97L393.711,343.499z"/>
<path d="M391.691,338.002l-6.305,1.293c-6.224,1.213-9.618,3.072-8.406,9.942l1.698,9.376l2.424-0.484l-1.697-9.376
	c-0.97-5.335,1.939-6.143,6.466-7.113l6.305-1.293L391.691,338.002z"/>
<path d="M386.437,318.038l-4.284,1.697c-4.364,1.859-6.871,3.637-4.931,8.891l2.345,6.385l2.263-0.808l-2.344-6.467
	c-1.293-3.718,0.727-4.526,3.476-5.658l4.445-1.859L386.437,318.038z"/>
<path d="M383.447,313.027l-5.901,2.425c-5.981,2.344-8.891,4.607-6.466,11.154l3.313,8.891l2.344-0.809l-3.395-8.972
	c-1.94-5.092,0.808-6.385,5.092-8.083l5.981-2.344L383.447,313.027z"/>
<path d="M374.717,294.275l-3.88,2.505c-3.96,2.586-6.062,4.85-3.233,9.619l3.476,5.9l2.102-1.212l-3.557-5.981
	c-1.939-3.395-0.081-4.607,2.425-6.224l3.961-2.586L374.717,294.275z"/>
<path d="M370.918,289.829l-5.496,3.476c-5.334,3.395-7.84,6.224-4.284,12.286l4.93,8.083l2.102-1.213l-4.93-8.164
	c-2.83-4.688-0.405-6.466,3.556-8.972l5.416-3.395L370.918,289.829z"/>
<path d="M358.875,273.017l-3.395,3.152c-3.395,3.233-5.092,5.819-1.374,10.104l4.445,5.092l1.859-1.617l-4.526-5.173
	c-2.587-2.991-0.97-4.526,1.212-6.547l3.475-3.234L358.875,273.017z"/>
<path d="M354.348,269.299l-4.769,4.365c-3.152,2.991-5.092,5.416-4.526,8.406c-1.131,0.889-4.122,3.637-4.769,4.284
	c-0.889,0.889-0.646,0.728-1.616,1.051c0,0-11.316,1.697-9.7,4.041c-0.162,0.081,4.446,9.457,7.356,5.012
	c0.162,0,3.96-7.356,3.233-8.892l5.577-5.334c0.243,1.293,1.051,2.667,2.505,4.284l6.225,7.193l1.858-1.617l-6.305-7.194
	c-3.637-4.122-1.535-6.304,1.859-9.457l4.688-4.365L354.348,269.299z"/>
<path d="M393.873,396.36l-4.607-0.727c-4.688-0.728-7.678-0.485-8.81,5.011l-1.294,6.708l2.425,0.485l1.293-6.79
	c0.728-3.799,2.991-3.476,5.901-3.072l4.688,0.728L393.873,396.36z"/>
<path d="M393.954,390.46l-6.305-1.051c-6.305-1.051-10.104-0.485-11.396,6.305l-1.778,9.375l2.425,0.485l1.778-9.376
	c0.97-5.415,3.96-5.092,8.567-4.364l6.305,1.051L393.954,390.46z"/>
<path d="M386.842,421.901l-4.365-1.535c-4.527-1.536-7.517-1.859-9.619,3.395l-2.505,6.304l2.263,0.889l2.587-6.385
	c1.374-3.637,3.556-2.91,6.385-1.94l4.445,1.536L386.842,421.901z"/>
<path d="M387.973,416.163l-6.062-2.182c-5.981-2.183-9.78-2.345-12.286,4.203l-3.395,8.81l2.263,0.889l3.395-8.891
	c1.94-5.092,4.85-4.284,9.214-2.667l6.062,2.102L387.973,416.163z"/>
<path d="M375.282,445.746l-4.041-2.263c-4.123-2.344-7.032-3.153-10.023,1.616l-3.557,5.739l2.021,1.293l3.638-5.82
	c2.102-3.314,4.042-2.263,6.627-0.809l4.123,2.425L375.282,445.746z"/>
<path d="M377.466,440.33l-5.578-3.233c-5.496-3.233-9.214-4.042-12.851,1.859l-4.931,8.164l2.021,1.212l5.012-8.083
	c2.829-4.688,5.577-3.395,9.537-1.051l5.578,3.233L377.466,440.33z"/>
<path d="M357.986,409.454c-0.647-0.242-2.344,2.587-3.799,6.385c-1.455,3.799-2.101,7.113-1.455,7.274
	c0.566,0.243,2.021-2.102,3.395-5.415c0.566,0.323,1.293,0.646,2.102,0.889c0.565,0.162,1.051,0.242,1.536,0.242
	c0.162,0.97,1.051,1.698,2.021,1.617c1.132-0.081,1.94-0.97,1.859-2.102c-0.081-1.051-0.97-1.859-2.102-1.778
	c-0.323,0-0.647,0.081-0.889,0.243c-0.485-0.243-1.051-0.485-1.697-0.646c-0.808-0.242-1.536-0.324-2.102-0.324
	C358.067,412.445,358.552,409.696,357.986,409.454z"/>
<path d="M343.841,419.234c0,0,4.042,2.748,6.062-1.051c0,0,0.404-0.566,0.889-1.374c0.081,0.485,0.323,0.889,0.646,1.131
	c0.808,0.324,1.859-0.404,2.506-1.697c0.565-1.293,0.485-2.586-0.324-2.91c-0.323-0.242-0.808-0.081-1.293,0.162
	c0.809-2.263,0.97-5.011-1.293-6.871c0,0-4.042-2.263-4.284-0.889c-0.081,0.324-0.323,1.132,0.728,1.778c0,0,3.96,1.859,1.697,5.9
	c0,0-1.536,4.446-3.637,3.638C345.538,417.052,339.961,416.001,343.841,419.234z"/>
<path d="M366.473,403.311l3.556-7.759c0,0,3.718-2.425-0.889-9.781c0,0-2.102-0.808-2.344,0.728l0.404,3.718
	c0,0-0.809,2.425-3.718,0.404c0,0-2.021-1.212-1.617,3.313c0,0-0.081,3.314-1.293,3.88c0,0-2.182,3.314,1.859,3.637
	c0,0,2.587-0.808,2.344,4.122c-1.212,0.324-1.616,1.859-1.212,2.91c0.485,1.051,1.778,1.617,2.91,1.131
	c1.131-0.485,1.617-1.778,1.131-2.909c-0.081-0.243-0.242-0.485-0.485-0.647c-0.243-0.324-0.646-0.485-1.051-0.566
	C366.311,405.089,366.473,404.443,366.473,403.311z"/>
<path d="M355.561,311.087l-2.667-8.083c0,0,1.051-4.364-7.274-6.546c0,0-2.183,0.808-1.293,2.101l2.829,2.506
	c0,0,1.051,2.263-2.505,2.748c0,0-2.264,0.485,1.131,3.556c0,0,2.263,2.425,1.697,3.718c0,0,0.646,3.88,3.799,1.455
	c0,0,1.374-2.424,4.527,1.375c-0.647,1.051,0.081,2.505,1.05,2.91c1.132,0.484,2.425,0,2.91-1.132c0.566-1.051,0-2.344-1.051-2.829
	c-0.323-0.162-0.565-0.243-0.889-0.243c-0.404,0-0.728,0.081-1.132,0.324C356.612,312.461,356.288,311.895,355.561,311.087z"/>
<path d="M356.046,320.866c-0.647,0.162-0.242,3.476,0.97,7.356c1.132,3.88,2.667,6.871,3.314,6.627
	c0.647-0.162,0.323-2.991-0.647-6.466c0.647,0,1.375-0.162,2.183-0.485c0.566-0.242,0.97-0.485,1.375-0.727
	c0.728,0.646,1.859,0.646,2.586,0c0.809-0.728,0.889-2.021,0.162-2.829c-0.727-0.809-1.939-0.889-2.748-0.162
	c-0.243,0.242-0.485,0.565-0.566,0.809c-0.484,0.081-1.131,0.242-1.778,0.565c-0.727,0.242-1.374,0.646-1.778,1.051
	C357.986,323.13,356.612,320.705,356.046,320.866z"/>
<path d="M350.954,337.275c0,0,4.85-0.324,4.122-4.607c0,0,0-0.647-0.161-1.617c0.404,0.404,0.808,0.566,1.212,0.485
	c0.809-0.242,1.212-1.455,0.889-2.829s-1.212-2.344-2.021-2.183c-0.404,0.081-0.728,0.485-0.889,1.051
	c-0.809-2.344-2.425-4.607-5.254-4.688c0,0-4.607,0.727-3.96,1.939c0.162,0.323,0.404,1.132,1.698,0.97c0,0,4.284-0.97,4.93,3.557
	c0,0,1.536,4.526-0.565,5.173C350.954,334.527,345.862,337.194,350.954,337.275z"/>
<path d="M368.655,354.734l0.162-8.568c0,0,2.425-3.798-4.688-8.648c0,0-2.345,0.081-1.859,1.616l1.778,3.234
	c0,0,0.242,2.505-3.233,1.858c0,0-2.344-0.323-0.081,3.718c0,0,1.213,3.071,0.243,4.042c0,0-0.647,3.88,3.233,2.667
	c0,0,2.102-1.859,3.718,2.748c-0.889,0.809-0.646,2.425,0.081,3.152c0.889,0.809,2.264,0.809,3.152-0.081
	c0.809-0.889,0.728-2.263-0.08-3.072c-0.243-0.242-0.485-0.404-0.728-0.484c-0.405-0.162-0.809-0.162-1.212-0.162
	C369.14,356.35,369.059,355.704,368.655,354.734z"/>
<path d="M291.384,262.752c-0.324,0.646,2.425,2.506,6.143,4.203c3.637,1.698,6.87,2.505,7.193,1.94
	c0.243-0.647-2.101-2.264-5.334-3.799c0.404-0.485,0.809-1.212,1.132-2.021c0.162-0.566,0.242-1.051,0.323-1.535
	c0.97-0.082,1.697-0.889,1.697-1.94s-0.808-1.94-1.94-1.94c-1.051,0-1.939,0.889-1.939,1.94c0,0.323,0.081,0.646,0.242,0.97
	c-0.323,0.404-0.566,1.051-0.808,1.616c-0.242,0.809-0.404,1.455-0.404,2.102C294.374,262.833,291.627,262.186,291.384,262.752z"/>
<path d="M300.194,277.543c0,0,2.991-3.96-0.647-6.224c-2.829-2.425-8.325-5.173-11.478-1.859c0,0-2.505,3.961-1.131,4.284
	c0.324,0.082,1.051,0.405,1.859-0.646c0,0,2.021-3.88,5.901-1.294c0,0,4.364,1.779,3.475,3.88
	C298.173,275.684,296.8,281.18,300.194,277.543z"/>
<path d="M282.978,245.131c0,0.082-10.346,12.933-10.346,16.166h2.425c0-2.344,9.78-14.629,9.861-14.629L282.978,245.131z"/>
<path d="M288.474,249.981c0,0-7.598,9.295-7.356,12.528l2.425-0.162c-0.162-2.263,6.789-10.831,6.871-10.831L288.474,249.981z"/>
<path d="M325.332,276.412l-5.82-6.305c0,0-0.889-4.365-9.376-2.91c0,0-1.617,1.617-0.243,2.424l3.557,1.051
	c0,0,1.94,1.698-1.051,3.638c0,0-1.94,1.374,2.505,2.667c0,0,2.991,1.374,2.991,2.748c0,0,2.263,3.314,4.122-0.323
	c0,0,0.243-2.748,4.688-0.566c-0.162,1.213,1.132,2.183,2.183,2.183c1.212,0,2.182-0.97,2.182-2.183c0-1.212-0.97-2.182-2.182-2.182
	c-0.323,0-0.566,0-0.889,0.162c-0.323,0.162-0.646,0.404-0.889,0.728C326.867,277.22,326.302,276.816,325.332,276.412z"/>
<path d="M342.548,248.769c0,0.081-2.345,11.801-13.256,16.489l0.969,2.182c12.125-5.173,14.711-18.105,14.711-18.187
	L342.548,248.769z"/>
<path d="M352.732,255.235c0,0.081-12.285,13.983-15.519,16.813l1.617,1.778c3.313-2.91,15.68-16.893,15.761-16.974L352.732,255.235z
	"/>
<path d="M378.759,374.213c-1.859-0.081-4.688-0.162-5.415-0.162c-1.212,0-2.345-0.08-3.234-0.565c0,0-7.84-6.224-8.325-3.475
	c0,0-3.152,8.244,1.778,7.113c0,0,6.305-1.456,6.951-2.91l8.245,0.243l-0.081,7.597h2.505v-9.537c0-5.496,2.991-5.739,7.679-5.82
	l6.385-0.162v-2.425l-6.466,0.162c-6.385,0.081-10.023,1.293-10.023,8.245V374.213L378.759,374.213z M396.218,369.929v2.425
	l-4.688,0.081c-2.991,0.081-5.254,0.162-5.334,4.123l-0.081,6.87h-2.425l0.081-6.79c0.081-5.658,3.072-6.466,7.759-6.627
	L396.218,369.929z"/>
<path fill="#FFFFFF" d="M250,320.301c1.293,0,2.424-1.212,2.424-2.748s-1.131-2.829-2.424-2.829c-1.293,0-2.425,1.293-2.425,2.829
	S248.707,320.301,250,320.301z"/>
<path fill="#FFFFFF" d="M250,336.628c1.535,0,2.748-1.455,2.748-3.233c0-1.778-1.213-3.314-2.748-3.314
	c-1.536,0-2.749,1.536-2.749,3.314C247.252,335.173,248.464,336.628,250,336.628z"/>
<path fill="#FFFFFF" d="M231.895,330.324l-4.365-7.679c0,0-0.97-5.9-14.064,1.536c0,0-10.022,5.334-11.316,5.334
	c0,0-6.708,1.778-1.051,9.78l6.143,12.529c0,0,4.365,7.194-0.97,7.759c0,0-7.759-0.243-8.972-1.051c0,0-9.295-3.879-10.022,5.416
	c0,0-5.9,26.916,10.265,22.066c0,0,5.738-3.556,10.022-3.152c0.243,0.242,0.404,0.404,0.485,0.809c0,0,0,5.415,7.678,0.566
	c0,0,3.638-1.536,1.294-6.709c0,0-5.658-23.844,14.872-35.16c0,0,3.799-1.778,1.455-8.73
	C233.026,332.587,232.541,331.536,231.895,330.324z"/>
<path d="M187.601,344.711c0.646-2.102,3.395-3.072,6.143-2.183c2.667,0.889,4.445,3.314,3.799,5.335
	c-0.647,2.101-3.395,3.071-6.143,2.263C188.652,349.237,186.954,346.813,187.601,344.711z"/>
<path d="M224.135,328.222c1.131,0,2.102-0.889,2.102-2.021c0-1.131-0.97-2.021-2.102-2.021c-1.132,0-2.021,0.889-2.021,2.021
	C222.115,327.333,223.004,328.222,224.135,328.222z"/>
<path d="M204.656,336.951c1.131,0,2.102-0.889,2.102-2.021c0-1.132-0.97-2.102-2.102-2.102c-1.132,0-2.021,0.97-2.021,2.102
	C202.635,336.062,203.524,336.951,204.656,336.951z"/>
<path d="M195.603,366.292c1.131,0,2.021-0.97,2.021-2.102c0-1.132-0.889-2.021-2.021-2.021c-1.132,0-2.102,0.889-2.102,2.021
	C193.502,365.322,194.471,366.292,195.603,366.292z"/>
<path d="M206.838,368.151c0.97,0,1.778-0.808,1.778-1.778c0-0.97-0.808-1.698-1.778-1.698c-0.97,0-1.778,0.728-1.778,1.698
	C205.06,367.343,205.868,368.151,206.838,368.151z"/>
<path d="M209.587,373.486c0.889,0,1.616-0.728,1.616-1.617c0-0.889-0.728-1.616-1.616-1.616c-0.889,0-1.617,0.728-1.617,1.616
	C207.969,372.758,208.698,373.486,209.587,373.486z"/>
<path d="M207.889,378.901c0.889,0,1.698-0.808,1.698-1.778c0-0.889-0.809-1.698-1.698-1.698c-0.97,0-1.778,0.809-1.778,1.698
	C206.111,378.093,206.919,378.901,207.889,378.901z"/>
<path fill="#FFFFFF" d="M234.723,346.247c1.051,0.566,1.212,2.182,0.405,3.395c-0.809,1.293-2.264,1.778-3.233,1.131
	c-1.051-0.647-1.212-2.182-0.404-3.476C232.299,346.085,233.754,345.6,234.723,346.247z"/>
<path fill="#FFFFFF" d="M243.049,344.469c0.97,0.646,1.132,2.183,0.324,3.395c-0.808,1.293-2.263,1.778-3.233,1.131
	s-1.131-2.182-0.404-3.395C240.543,344.307,241.998,343.822,243.049,344.469z"/>
<path fill="#FFFFFF" d="M237.634,354.006c0,0-1.536,4.284,0.808,5.739c0,0,2.344,0.889,1.94,1.939c0,0,0,1.293,2.183,0.808
	c0,0,4.849-1.455,4.688,0.647c0,0,1.455,5.334-1.536,6.224c0,0-1.697-0.404-1.05,4.284c0,0,0.889,2.506-2.344,1.94
	c0,0-3.637-0.242-4.446,2.506c0,0-1.778,3.395-4.122-0.808c0,0-6.789-7.274,0.647-22.228
	C234.401,355.057,237.391,351.824,237.634,354.006z"/>
<path fill="#FFFFFF" d="M227.611,355.622c0,0,2.749,0.971-0.484,6.144c0,0-2.264,4.365-0.728,9.861c0,0,1.94,8.568-3.313,7.598
	c0,0-5.092,0-2.749-14.711C220.336,364.514,222.276,353.844,227.611,355.622z"/>
<path fill="#FFFFFF" d="M268.106,330.324l4.364-7.679c0,0,0.97-5.9,14.064,1.536c0,0,10.022,5.334,11.316,5.334
	c0,0,6.708,1.778,1.05,9.78l-6.143,12.529c0,0-4.365,7.194,0.97,7.759c0,0,7.759-0.243,8.972-1.051c0,0,9.295-3.879,10.022,5.416
	c0,0,5.9,26.916-10.265,22.066c0,0-5.739-3.556-10.022-3.152c-0.243,0.242-0.404,0.404-0.485,0.809c0,0,0,5.415-7.678,0.566
	c0,0-3.638-1.536-1.293-6.709c0,0,5.658-23.844-14.872-35.16c0,0-3.799-1.778-1.455-8.73
	C266.974,332.587,267.459,331.536,268.106,330.324z"/>
<path d="M312.399,344.711c-0.647-2.102-3.395-3.072-6.143-2.183c-2.667,0.889-4.445,3.314-3.799,5.335
	c0.646,2.101,3.395,3.071,6.143,2.263C311.348,349.237,313.046,346.813,312.399,344.711z"/>
<path d="M275.865,328.222c1.131,0,2.021-0.889,2.021-2.021c0-1.131-0.889-2.021-2.021-2.021c-1.132,0-2.102,0.889-2.102,2.021
	C273.763,327.333,274.733,328.222,275.865,328.222z"/>
<path d="M295.344,336.951c1.132,0,2.021-0.889,2.021-2.021c0-1.132-0.889-2.102-2.021-2.102c-1.131,0-2.101,0.97-2.101,2.102
	C293.243,336.062,294.213,336.951,295.344,336.951z"/>
<path d="M304.397,366.292c1.131,0,2.101-0.97,2.101-2.102c0-1.132-0.97-2.021-2.101-2.021c-1.132,0-2.021,0.889-2.021,2.021
	C302.376,365.322,303.265,366.292,304.397,366.292z"/>
<path d="M293.162,368.151c0.97,0,1.778-0.808,1.778-1.778c0-0.97-0.808-1.698-1.778-1.698c-0.97,0-1.778,0.728-1.778,1.698
	C291.384,367.343,292.192,368.151,293.162,368.151z"/>
<path d="M290.414,373.486c0.889,0,1.616-0.728,1.616-1.617c0-0.889-0.728-1.616-1.616-1.616c-0.889,0-1.617,0.728-1.617,1.616
	C288.797,372.758,289.525,373.486,290.414,373.486z"/>
<path d="M292.111,378.901c0.97,0,1.778-0.808,1.778-1.778c0-0.889-0.808-1.698-1.778-1.698c-0.889,0-1.697,0.809-1.697,1.698
	C290.414,378.093,291.222,378.901,292.111,378.901z"/>
<path fill="#FFFFFF" d="M265.277,346.247c-1.051,0.566-1.212,2.182-0.404,3.395c0.808,1.293,2.263,1.778,3.233,1.131
	c1.051-0.647,1.212-2.182,0.404-3.476C267.701,346.085,266.246,345.6,265.277,346.247z"/>
<path fill="#FFFFFF" d="M256.951,344.469c-0.97,0.646-1.132,2.183-0.323,3.395c0.808,1.293,2.263,1.778,3.233,1.131
	c0.97-0.647,1.132-2.182,0.404-3.395C259.457,344.307,258.002,343.822,256.951,344.469z"/>
<path fill="#FFFFFF" d="M262.366,354.006c0,0,1.536,4.284-0.808,5.739c0,0-2.344,0.889-1.94,1.939c0,0,0,1.293-2.182,0.808
	c0,0-4.85-1.455-4.688,0.647c0,0-1.455,5.334,1.536,6.224c0,0,1.697-0.404,1.051,4.284c0,0-0.889,2.506,2.344,1.94
	c0,0,3.637-0.242,4.445,2.506c0,0,1.778,3.395,4.122-0.808c0,0,6.79-7.274-0.646-22.228
	C265.6,355.057,262.609,351.824,262.366,354.006z"/>
<path fill="#FFFFFF" d="M272.389,355.622c0,0-2.749,0.971,0.485,6.144c0,0,2.263,4.365,0.728,9.861c0,0-1.94,8.568,3.313,7.598
	c0,0,5.012,0,2.749-14.711C279.664,364.514,277.724,353.844,272.389,355.622z"/>
<polygon points="343.114,372.92 343.114,372.92 343.114,372.92 "/>
<path fill="#FFFFFF" d="M164.161,353.683c-0.162,2.263-1.94,4.042-3.799,3.799c-1.859-0.162-3.152-2.182-2.909-4.445l0.727-7.274
	c0.242-2.263,1.94-3.961,3.799-3.799c1.859,0.243,3.233,2.263,2.991,4.527L164.161,353.683z"/>
<path fill="#FFFFFF" d="M164.727,340.427c-5.012,0-5.012-7.841,0-7.841C169.739,332.587,169.739,340.427,164.727,340.427z"/>
<path fill="#FFFFFF" d="M193.744,299.448c-3.313-3.718,2.587-8.891,5.901-5.092C202.958,298.154,196.977,303.246,193.744,299.448z"
	/>
<path fill="#FFFFFF" d="M168.768,331.294c-4.769,0-4.769-7.437,0-7.437C173.537,323.857,173.537,331.294,168.768,331.294z"/>
<path fill="#FFFFFF" d="M188.086,307.207c-4.769,0-4.769-7.436,0-7.436C192.855,299.771,192.855,307.207,188.086,307.207z"/>
<path fill="#FFFFFF" d="M172.406,322.322c-4.688-2.021-1.455-9.537,3.314-7.436C180.407,316.906,177.175,324.423,172.406,322.322z"
	/>
<path fill="#FFFFFF" d="M202.15,294.032c-3.637-3.637,2.586-9.941,6.224-6.224C212.092,291.446,205.787,297.669,202.15,294.032z"/>
<path fill="#FFFFFF" d="M215.972,290.556c-4.769,2.183-8.164-5.577-3.476-7.679C217.184,280.776,220.659,288.455,215.972,290.556z"
	/>
<path fill="#FFFFFF" d="M179.357,314.32c-4.688-2.102-1.455-9.618,3.314-7.597C187.359,308.743,184.126,316.341,179.357,314.32z"/>
<path fill="#FFFFFF" d="M176.851,384.155c0.324,2.506-1.455,4.769-3.96,5.092c-2.506,0.324-4.769-1.455-5.092-3.96l-0.97-7.921
	c-0.323-2.506,1.536-4.769,4.042-5.092c2.425-0.242,4.769,1.536,5.011,4.042L176.851,384.155z"/>
<path fill="#FFFFFF" d="M176.204,361.2c-0.485,2.505-2.91,4.122-5.334,3.637c-2.506-0.485-4.122-2.829-3.637-5.335l1.455-7.84
	c0.485-2.425,2.909-4.042,5.334-3.557c2.505,0.404,4.122,2.829,3.637,5.334L176.204,361.2z"/>
<path fill="#FFFFFF" d="M182.509,339.134c-1.212,2.264-3.96,3.072-6.224,1.859c-2.183-1.212-2.991-4.042-1.778-6.224l3.799-6.951
	c1.212-2.263,3.961-3.072,6.143-1.859c2.263,1.212,3.071,4.041,1.859,6.224L182.509,339.134z"/>
<path fill="#FFFFFF" d="M195.28,320.059c-1.859,1.778-4.688,1.697-6.467-0.162c-1.778-1.778-1.697-4.607,0.162-6.386l5.739-5.496
	c1.859-1.698,4.688-1.617,6.466,0.162c1.698,1.859,1.617,4.769-0.162,6.466L195.28,320.059z"/>
<path fill="#FFFFFF" d="M213.223,305.833c-2.263,1.131-5.011,0.161-6.062-2.102c-1.131-2.263-0.162-5.012,2.102-6.143l7.113-3.476
	c2.263-1.051,5.011-0.162,6.143,2.183c1.051,2.263,0.162,5.011-2.102,6.062L213.223,305.833z"/>
<path fill="#FFFFFF" d="M234.723,297.669c-2.505,0.404-4.85-1.374-5.173-3.879c-0.404-2.506,1.374-4.769,3.88-5.092l7.84-1.132
	c2.506-0.404,4.85,1.374,5.174,3.799c0.323,2.505-1.375,4.849-3.88,5.173L234.723,297.669z"/>
<path fill="#FFFFFF" d="M167.071,398.219c0.565,2.102-0.566,4.203-2.667,4.769c-2.021,0.565-4.203-0.566-4.769-2.667l-1.698-5.901
	c-0.566-2.102,0.647-4.203,2.749-4.769c2.021-0.646,4.203,0.566,4.769,2.667L167.071,398.219z"/>
<path fill="#FFFFFF" d="M179.842,396.603c0.889,1.616,0.324,3.637-1.212,4.607l-2.91,1.617c-1.536,0.889-3.637,0.323-4.526-1.294
	c-0.889-1.616-0.323-3.637,1.293-4.526l2.829-1.617C176.932,394.501,178.953,395.067,179.842,396.603z"/>
<path fill="#FFFFFF" d="M169.9,408.323c0,1.697-1.375,3.071-3.072,3.071h-0.485c-1.616,0-2.991-1.374-2.991-3.071
	c0-1.698,1.375-2.991,2.991-2.991h0.485C168.526,405.332,169.9,406.625,169.9,408.323z"/>
<path fill="#FFFFFF" d="M230.763,281.989c0.404,2.021-0.889,3.96-2.91,4.365l-3.637,0.728c-2.021,0.404-3.96-0.889-4.364-2.91
	c-0.405-2.021,0.889-3.96,2.909-4.365l3.557-0.727C228.338,278.675,230.359,279.969,230.763,281.989z"/>
<path fill="#FFFFFF" d="M335.839,353.683c0.162,2.263,1.94,4.042,3.799,3.799c1.859-0.162,3.152-2.182,2.91-4.445l-0.728-7.274
	c-0.243-2.263-1.94-3.961-3.799-3.799c-1.859,0.243-3.233,2.263-2.991,4.527L335.839,353.683z"/>
<path fill="#FFFFFF" d="M335.273,340.427c5.011,0,5.011-7.841,0-7.841C330.261,332.587,330.261,340.427,335.273,340.427z"/>
<path fill="#FFFFFF" d="M306.256,299.448c3.314-3.718-2.587-8.891-5.9-5.092C297.042,298.154,303.023,303.246,306.256,299.448z"/>
<path fill="#FFFFFF" d="M331.232,331.294c4.769,0,4.769-7.437,0-7.437C326.463,323.857,326.463,331.294,331.232,331.294z"/>
<path fill="#FFFFFF" d="M311.914,307.207c4.769,0,4.769-7.436,0-7.436C307.145,299.771,307.145,307.207,311.914,307.207z"/>
<path fill="#FFFFFF" d="M327.594,322.322c4.688-2.021,1.455-9.537-3.313-7.436C319.593,316.906,322.826,324.423,327.594,322.322z"/>
<path fill="#FFFFFF" d="M297.85,294.032c3.637-3.637-2.587-9.941-6.224-6.224C287.908,291.446,294.213,297.669,297.85,294.032z"/>
<path fill="#FFFFFF" d="M284.029,290.556c4.769,2.183,8.164-5.577,3.476-7.679S279.341,288.455,284.029,290.556z"/>
<path fill="#FFFFFF" d="M320.643,314.32c4.688-2.102,1.455-9.618-3.314-7.597C312.641,308.743,315.874,316.341,320.643,314.32z"/>
<path fill="#FFFFFF" d="M323.149,384.155c-0.323,2.506,1.456,4.769,3.961,5.092c2.506,0.324,4.769-1.455,5.092-3.96l0.97-7.921
	c0.324-2.506-1.536-4.769-4.042-5.092c-2.425-0.242-4.769,1.536-5.011,4.042L323.149,384.155z"/>
<path fill="#FFFFFF" d="M323.796,361.2c0.485,2.505,2.91,4.122,5.334,3.637c2.506-0.485,4.122-2.829,3.638-5.335l-1.455-7.84
	c-0.485-2.425-2.91-4.042-5.335-3.557c-2.505,0.404-4.122,2.829-3.637,5.334L323.796,361.2z"/>
<path fill="#FFFFFF" d="M317.491,339.134c1.212,2.264,3.961,3.072,6.224,1.859c2.182-1.212,2.99-4.042,1.778-6.224l-3.799-6.951
	c-1.212-2.263-3.96-3.072-6.143-1.859c-2.263,1.212-3.071,4.041-1.859,6.224L317.491,339.134z"/>
<path fill="#FFFFFF" d="M304.72,320.059c1.859,1.778,4.688,1.697,6.467-0.162c1.778-1.778,1.697-4.607-0.162-6.386l-5.739-5.496
	c-1.859-1.698-4.688-1.617-6.466,0.162c-1.698,1.859-1.617,4.769,0.162,6.466L304.72,320.059z"/>
<path fill="#FFFFFF" d="M286.777,305.833c2.263,1.131,5.011,0.161,6.062-2.102c1.132-2.263,0.162-5.012-2.102-6.143l-7.113-3.476
	c-2.263-1.051-5.011-0.162-6.143,2.183c-1.051,2.263-0.162,5.011,2.101,6.062L286.777,305.833z"/>
<path fill="#FFFFFF" d="M265.277,297.669c2.505,0.404,4.85-1.374,5.173-3.879c0.404-2.506-1.374-4.769-3.88-5.092l-7.84-1.132
	c-2.506-0.404-4.85,1.374-5.173,3.799c-0.324,2.505,1.374,4.849,3.879,5.173L265.277,297.669z"/>
<path fill="#FFFFFF" d="M332.929,398.219c-0.566,2.102,0.566,4.203,2.667,4.769c2.021,0.565,4.203-0.566,4.768-2.667l1.698-5.901
	c0.566-2.102-0.647-4.203-2.749-4.769c-2.021-0.646-4.203,0.566-4.768,2.667L332.929,398.219z"/>
<path fill="#FFFFFF" d="M320.158,396.603c-0.889,1.616-0.323,3.637,1.212,4.607l2.91,1.617c1.535,0.889,3.637,0.323,4.526-1.294
	c0.889-1.616,0.323-3.637-1.293-4.526l-2.829-1.617C323.069,394.501,321.047,395.067,320.158,396.603z"/>
<path fill="#FFFFFF" d="M330.1,408.323c0,1.697,1.375,3.071,3.072,3.071h0.485c1.616,0,2.99-1.374,2.99-3.071
	c0-1.698-1.374-2.991-2.99-2.991h-0.485C331.474,405.332,330.1,406.625,330.1,408.323z"/>
<path fill="#FFFFFF" d="M269.237,281.989c-0.404,2.021,0.889,3.96,2.91,4.365l3.637,0.728c2.021,0.404,3.96-0.889,4.365-2.91
	c0.404-2.021-0.889-3.96-2.91-4.365l-3.557-0.727C271.662,278.675,269.641,279.969,269.237,281.989z"/>
<path d="M309.489,236.968l-1.778,4.284c-1.778,4.365-2.263,7.436,2.829,9.78l6.143,2.91l1.051-2.263l-6.224-2.91
	c-3.556-1.617-2.748-3.718-1.617-6.466l1.859-4.365L309.489,236.968z"/>
<path d="M303.831,235.513l-2.506,5.9c-2.505,5.9-2.91,9.618,3.395,12.528l8.649,3.96l1.051-2.182l-8.729-3.961
	c-4.931-2.263-3.96-5.092-2.102-9.376l2.506-5.9L303.831,235.513z"/>
<path fill="#FFFFFF" d="M227.045,239.716c0.889,1.375,2.263,2.183,3.071,1.617c0.89-0.485,0.97-2.021,0.081-3.476
	c-0.809-1.455-2.182-2.182-2.991-1.697C226.318,236.725,226.237,238.261,227.045,239.716z"/>
<path fill="#FFFFFF" d="M209.99,31.908c1.778,3.072,3.88,5.981,5.738,8.972c1.778,2.99,6.063,8.244,4.365,11.882
	c-0.404,0.889-1.051,1.616-1.698,2.344c-0.728,0.808-1.697,1.859-2.586,2.425c-0.647,0.323-1.617,0.404-2.183,0.808
	c-2.344,1.778,0.889,5.173,2.183,6.87c1.131,1.536,2.424,2.91,3.556,4.446c0.404,0.566,0.808,1.132,1.293,1.698
	c1.455,0.161,2.425-1.132,2.91-2.667c-0.323-0.647-0.728-1.212-1.132-1.859c-0.565-1.051-1.212-2.102-1.94-3.152
	c-0.404-0.566-1.536-1.617-1.616-2.344c-0.162-1.051,0.808-1.455,1.94-1.131c1.939,0.566,2.344,3.314,3.314,5.254
	c0.081-2.829-0.081-5.739-0.405-8.568c-0.727-1.132-1.212-2.263-0.323-2.991c0.081,0,0.081,0,0.081,0c0-0.162,0-0.242-0.081-0.404
	c-0.404-4.688-1.374-8.568-3.314-12.609c-1.94-3.88-3.476-6.709-7.032-9.296c-0.97-0.646-1.859-1.374-2.829-2.021
	C209.505,29.968,209.344,30.695,209.99,31.908z"/>
<path fill="#FFFFFF" d="M215.648,50.579c-0.081,0.728-0.404,1.374-0.808,1.94c-1.697,2.263-5.092,3.718-8.002,2.829
	c-0.162-0.081-0.404-0.162-0.728-0.323c-0.485-0.727-1.131-1.374-1.778-2.021c0-0.242-0.081-0.485,0-0.727
	c0.081-1.213,1.536-1.293,2.587-1.536c1.778-0.566,5.173-1.617,4.526-4.203c-0.404-1.535-2.425-3.314-3.476-4.445
	c-3.799-4.203-8.486-7.679-13.417-10.508c0,0-13.66-5.981-8.002-13.417c0,0,0.728-1.536,6.385-1.697
	c1.293,2.021,3.718,4.526,7.921,6.87c0.323,0.242,0.647,0.404,0.97,0.646c-1.132,0.323-3.395,1.132-1.212,3.152
	c2.829,2.506,5.416,5.335,7.759,8.325c2.102,2.587,3.96,5.334,5.497,8.325C214.84,45.729,216.052,48.316,215.648,50.579z"/>
<path fill="#FFFFFF" d="M163.433,27.624c0,0,3.638-0.728,3.233-3.233c0,0,0.243-3.961-7.517-1.051c0,0-13.66,4.85-13.74,6.224
	c0,0-0.97,1.94,2.021,2.021L163.433,27.624z"/>
<path fill="#FFFFFF" d="M157.857,48.882c0,0-10.104-5.658-12.367-6.143c0,0-4.203-0.889-4.85-5.739c0,0-0.404-6.466-4.123-6.547
	c0,0-3.233,0.162-3.718,2.91c0,0-1.293,1.212-3.071,0.97c0,0-7.921-2.506-10.184,8.164c0,0-0.97,5.739,6.708,9.376
	c0,0,3.152,2.506,6.143-4.931c0,0,0.97-4.85,6.385-1.859c0,0,8.407,3.314,7.76,3.556c0,0-11.478-3.233-11.478,0.081
	c0,0-0.889,2.344,4.769,2.344c0,0,16.004,2.021,17.378,1.455C157.21,52.519,161.332,52.277,157.857,48.882z"/>
<path fill="#FFFFFF" d="M158.422,32.878c0,0-3.152,6.87-9.538,3.556c0,0-4.526-1.293-4.607,1.859c0,0-0.728,4.931,9.376,3.799
	c0,0,9.941-2.263,8.083-9.053C161.737,33.04,160.443,30.211,158.422,32.878z"/>
<path fill="#FFFFFF" d="M173.214,28.432c0,0,7.841,4.931,9.619,6.143c0,0,5.416,3.961,0.404,5.092c0,0-3.314,0.081-5.9-0.727
	c0,0-5.82-1.536-3.961,2.909c0,0,0.162,1.698,6.305,1.536c0,0,5.577-0.404,5.739,8.487c0,0-0.485,3.799-3.96,2.021
	c0,0-7.76-4.93-7.436-2.667c0,0-0.97,0.485,4.365,4.445c0,0,3.475,1.536,2.991,7.76c0,0-1.051,2.829-5.092,0.242
	c0,0-18.267-14.549-15.519-20.935c0,0,4.445-9.134,7.274-12.124C168.041,30.615,170.789,26.412,173.214,28.432z"/>
<path fill="#FFFFFF" d="M190.026,57.935c1.617,1.374,3.638,2.021,5.497,3.152c2.183,1.293,4.042,3.314,6.063,4.769
	c2.263,1.536,4.688,2.748,6.87,4.446c1.294,1.051,2.264,1.94,3.88,2.425c3.476,0.97,3.799-1.455,2.021-3.799
	c-1.455-1.94-3.718-3.072-5.416-4.85c-2.263-2.344-4.284-4.688-5.981-7.436c-2.102-3.233-10.831-15.6-15.6-12.124
	C184.611,46.538,187.844,56.156,190.026,57.935z"/>
<path fill="#FFFFFF" d="M236.583,210.214c-5.092,6.062,2.505,3.88,2.505,3.88c8.891-6.79,10.023-5.334,10.023-5.334
	c2.586,0.728-1.212,3.395-1.212,3.395c-5.82,2.263-2.991,4.769-2.991,4.769c5.092,5.82,7.84,0.162,7.84,0.162
	c4.769-6.385,15.519-3.718,15.519-3.718c4.931,3.88,5.82-0.323,5.82-0.323c1.05-2.667-7.437-5.82-7.437-5.82
	c-3.314-1.212-7.194-6.385-7.194-6.385c-4.122-2.263-10.185,0.728-10.185,0.728S237.552,209.082,236.583,210.214z"/>
<path fill="#FFFFFF" d="M234.077,225.409c0,0,2.829-4.931,5.011-5.496c0,0,4.203-1.778,3.152,2.505c0,0-3.152,6.628-5.819,6.143
	C236.421,228.562,233.269,229.047,234.077,225.409z"/>
<path fill="#FFFFFF" d="M226.318,218.539c0,0,5.011-2.02,4.284,2.102c0,0-2.505,5.092-4.607,5.254
	C225.994,225.895,220.74,226.056,226.318,218.539z"/>
<path fill="#FFFFFF" d="M206.596,227.996c0,0,0.727-3.476,6.708-3.637c0,0,7.032-0.646,7.032,2.425c0,0,1.374,3.717-6.547,4.041
	C213.789,230.824,205.464,231.875,206.596,227.996z"/>
<path fill="#FFFFFF" d="M201.907,219.832c-1.212,1.132-1.617,2.667-0.97,3.395c0.728,0.728,2.263,0.404,3.475-0.728
	c1.132-1.131,1.617-2.586,0.889-3.313C204.656,218.458,203.12,218.701,201.907,219.832z"/>
<path fill="#FFFFFF" d="M191.966,220.964c0,0,4.365-3.799,5.82-5.82c0,0,2.991-4.931-1.455-3.88c0,0-7.76,2.991-7.921,8.811
	C188.409,220.075,188.086,222.58,191.966,220.964z"/>
<path fill="#FFFFFF" d="M219.124,185.723c0,0,3.637-0.242,4.042,2.748c0,0,0.565,11.72,3.556,12.528c0,0,9.134,7.274,2.991,10.104
	c0,0-5.011,2.425-11.396,3.718c0,0-2.749,0.647-4.122,1.051c0,0-5.335,1.536-4.042-2.344c0,0-0.243-1.536,5.415-4.527
	c0,0,1.617-2.991-2.263-1.616c0,0-6.547,3.718-8.164,2.102c0,0-3.314-3.314,1.455-4.607c0,0,7.759-2.586,8.81-9.134
	C215.406,195.745,216.134,185.803,219.124,185.723z"/>
<path fill="#FFFFFF" d="M214.678,147.411l-5.577-4.445c0,0-5.9-2.425-4.284,1.778c0,0,6.547,17.135,6.385,22.389
	c0,0-1.051,9.214,1.375,8.649c0,0,2.99,2.505,3.879-8.245C216.456,167.537,218.396,151.856,214.678,147.411z"/>
<path fill="#FFFFFF" d="M193.744,150.402c0,0-4.931-2.991-4.931,0c0,0-1.778,8.486,4.365,11.8c0,0,5.497,2.829,10.266,1.617
	c0,0,2.99-0.162,1.051-4.445L193.744,150.402z"/>
<path fill="#FFFFFF" d="M174.507,133.832c0,0-1.455-4.365,3.718-2.182c0,0,8.729,3.233,6.951,17.135c0,0,0.242,6.547-2.182,2.829
	C182.994,151.614,176.528,145.552,174.507,133.832z"/>
<path fill="#FFFFFF" d="M181.7,119.282c0,0,0.243-3.476,3.233-0.889c0,0,16.084,16.731,17.863,32.978c0,0-0.646,2.829-3.88-0.404
	c0,0-9.78-6.547-10.426-7.194c0,0-1.374-1.051-1.536-2.991c0,0-1.536-6.143-3.476-6.951c0,0-1.131-0.646-1.535-3.071L181.7,119.282z
	"/>
<path fill="#FFFFFF" d="M193.016,101.016c0,0-3.88-1.293-1.778-3.314c0,0,2.829-3.152,7.84,0.889c0,0,13.903,7.194,14.792,40.252
	c0,0,0.646,6.225-1.698,3.638c0,0-13.256-9.942-13.256-11.72c0,0-0.728-1.455-1.131-2.587c0,0-1.293-2.182-3.071-3.475
	c0,0-2.344-2.668-0.162-4.123c0,0,2.586-4.769-3.071-12.852c0,0-5.658-5.416-0.89-5.012c0,0,2.425,0.566,5.254,3.719
	c0,0,3.476,3.152,2.91-0.081C198.756,106.35,196.896,102.552,193.016,101.016z"/>
<path fill="#FFFFFF" d="M179.276,102.067l2.424-0.243c0,0,3.233-0.646,4.769,2.83c0,0,6.305,10.184,4.526,13.579
	c0,0-1.374,1.375-5.334-2.909C185.661,115.323,172.729,105.946,179.276,102.067z"/>
<path fill="#FFFFFF" d="M165.616,105.542c0,0,4.849-1.051,5.658-1.536c0,0,2.586-1.939,4.122,1.778c0,0,3.718,8.649,3.475,10.831
	c0,0,1.051,12.205-1.535,11.073C177.336,127.689,168.445,124.698,165.616,105.542z"/>
<path fill="#FFFFFF" d="M162.14,87.598c-0.081,2.344-0.565,5.901,0,8.245c0.404,1.212,1.293,1.535,1.859,2.667
	c0.323,0.728,0.081,2.021,0.647,2.587c1.051,1.05,4.122,1.05,5.334,0.242c2.586-1.698,1.051-5.334,0.243-7.598
	c-0.97-2.91-0.647-6.547-1.778-9.214c-0.646-1.455-2.183-1.94-3.799-1.536C162.464,83.718,162.302,85.497,162.14,87.598z"/>
<path fill="#FFFFFF" d="M171.193,84.527c0.242-1.455,2.021-2.91,3.233-2.344c0.889,0.404,1.455,2.667,1.94,3.556
	c1.374,2.748,3.556,3.88,6.547,4.85c6.467,2.183,10.104,7.113,1.375,7.921c-2.263,0.242-5.092,0.808-7.437,0.323
	c-3.879-0.889-3.314-3.314-3.395-6.79c-0.081-2.182-0.404-2.667-1.374-4.607C171.759,86.628,171.031,85.416,171.193,84.527z"/>
<path fill="#FFFFFF" d="M182.186,81.456c0,0-7.679,0.161-4.203,3.88c0,0,9.134,3.718,9.619,4.607c0,0,1.051,1.94,5.819,1.052
	c0,0,9.619-3.072,11.962-3.234c0,0,1.94,0.162,1.778-2.829c0,0,1.536-3.475-6.951-3.314L182.186,81.456z"/>
<path fill="#FFFFFF" d="M198.917,69.978c5.981-0.404-1.94-4.607-3.96-5.415c-2.586-1.051-10.265-5.981-11.073-0.323
	C183.237,68.685,195.684,70.22,198.917,69.978z"/>
<path fill="#FFFFFF" d="M192.047,78.626c0.162,0,0.243,0,0.404,0c2.586,0.404,5.738,2.586,8.244,0.646
	c5.335-4.284-10.993-8.406-13.175-9.052c-4.284-1.131-10.993-3.233-12.124,2.587c-0.565,2.748,1.455,4.284,4.042,5.253
	c2.101,0.728,4.364,0.566,6.546,0.728C187.924,78.949,190.026,78.465,192.047,78.626z"/>
<path fill="#FFFFFF" d="M171.678,61.976c-5.819-4.284-5.012,6.628-5.658,9.861c-0.485,2.102-1.293,5.092-0.809,7.274
	c0.323,1.616,2.021,4.769,4.445,3.072c1.213-0.889,1.698-5.173,2.425-6.466c0.97-1.859,2.102-3.556,2.586-5.658
	c0.97-3.637-0.404-6.304-3.476-8.325L171.678,61.976z"/>
<path fill="#FFFFFF" d="M264.306,155.898c0,0,21.419,34.271,21.904,36.776c0,0,5.82,9.295-5.738,5.739
	c0,0-12.852-10.426-11.801-14.549C268.671,183.864,259.053,153.715,264.306,155.898z"/>
<path fill="#FFFFFF" d="M274.168,150.402c0,0,57.064,29.098,56.822,32.088c0,0,1.617,6.062-6.063,9.619
	c0,0-10.992,7.436-15.114-1.132c0,0-20.854-29.098-37.02-37.827C272.793,153.15,270.611,150.644,274.168,150.402z"/>
<path fill="#FFFFFF" d="M301.891,156.383c0,0,15.115,1.697,17.297,4.688c0,0,2.748,5.497,6.547,5.253c0,0,11.801-0.323,11.558,5.497
	c0,0,1.94,8.729-5.738,5.496l-31.846-18.671C299.709,158.646,297.769,156.706,301.891,156.383z"/>
<path fill="#FFFFFF" d="M291.222,143.531c0,0,2.991,1.94,3.799,0c0,0,1.131-3.556,3.557-1.374c0,0,8.487,10.669,5.496,11.235
	c0,0-4.365,2.505-11.801-2.749C292.273,150.644,285.403,145.471,291.222,143.531z"/>
<path fill="#FFFFFF" d="M278.532,105.057c0,0,9.375-1.293,11.558,3.637c0,0,22.47,35.079,23.036,41.384c0,0,2.182,6.87-4.688,1.374
	c0,0-20.288-27.158-26.834-37.584C281.604,113.867,273.925,105.623,278.532,105.057z"/>
<path fill="#FFFFFF" d="M295.829,99.238c0,0,20.934,21.823,33.948,60.621c0,0-0.809,6.143-8.648-3.476
	c0,0-24.006-48.416-34.029-55.367C287.1,101.016,281.442,93.176,295.829,99.238z"/>
<path fill="#FFFFFF" d="M311.51,98.429c0,0,38.797,34.028,41.384,75.413c0,0,1.778,6.062-4.769,1.293c0,0-8.729-3.071-12.609-13.094
	c0,0-4.365-23.116-33.14-60.621C302.376,101.42,296.233,94.954,311.51,98.429z"/>
<path fill="#FFFFFF" d="M327.594,94.469c0,0,27.966,44.456,31.846,56.661c0,0,5.254,9.618,0.485,17.054c0,0-4.85,9.133-5.739-6.143
	c0,0-5.173-27.885-36.129-62.318c0,0-5.658-5.254,1.697-6.547C319.754,93.176,324.604,90.993,327.594,94.469z"/>
<path fill="#FFFFFF" d="M347.721,116.292c0,0,15.68,14.387,15.195,19.642c0,0,0.485,20.449-4.365,6.951
	C358.552,142.884,337.213,106.674,347.721,116.292z"/>
<path fill="#FFFFFF" d="M339.8,88.811l11.397,5.254c0,0,6.951,0.404,7.84,12.609c0,0,8.244,30.068-4.365,13.094
	c0,0-16.165-13.983-17.863-18.752c0,0-11.801-13.094-5.658-13.094C331.151,87.921,336.324,86.628,339.8,88.811z"/>
<path fill="#FFFFFF" d="M313.692,51.711c0,0,14.792-5.173,24.814,7.032c0,0,15.68,19.156,16.569,28.29c0,0,2.667,7.921-5.173,3.071
	c0,0-18.348-5.253-21.824-13.094C328.079,77.01,311.106,52.196,313.692,51.711z"/>
<path fill="#FFFFFF" d="M261.639,22.209c0,0,10.023-5.011,22.713,0.727c0,0,20.45,7.759,34.675,20.045c0,0,4.204,5.011-2.344,4.203
	c0,0-27.724-1.536-46.557-15.357c0,0-5.335-4.93-9.133-5.416C260.993,26.412,256.466,24.472,261.639,22.209z"/>
<path fill="#FFFFFF" d="M266.57,41.688c0,0,10.507-3.476,17.459,1.374c0,0,10.022,3.88,14.387,4.365c0,0,7.84,0.404,10.508,6.062
	c0,0,10.427,16.974,2.182,12.609l-25.784-11.316c0,0-12.205-9.134-20.935-10.912C264.387,43.87,262.69,40.88,266.57,41.688z"/>
<path fill="#FFFFFF" d="M274.895,62.218c0,0,5.658-0.889,6.062-2.182c0,0,3.961-3.072,8.729-0.404c0,0,43.647,18.752,36.211,24.41
	c0,0-5.254,2.587-33.543-7.84c0,0-8.325-1.374-10.103-5.739c0,0-4.769-4.365-7.841-5.173
	C274.41,65.29,272.228,62.623,274.895,62.218z"/>
<path fill="#FFFFFF" d="M262.69,79.192l18.752-0.808c0,0,6.547-0.485,31.361,6.951c0,0,10.508,1.293,4.365,6.062
	c0,0-15.277,1.778-16.166,3.071c0,0-18.267,2.667-23.925-1.697l-14.872-9.619C262.205,83.153,255.658,79.192,262.69,79.192z"/>
<path fill="#FFFFFF" d="M204.818,4.346c0,0-10.508,0.808-9.7,8.244c0.324,0.97,1.375,3.152,13.013,9.053
	c0,0,18.106,5.496,21.096,35.16c0,0,1.94,11.477-1.617,14.549c0,0-6.87,3.556,1.374,8.729c0,0,29.018,20.369,45.991,22.551
	c0,0,4.365-0.242,1.939-3.88c0,0-12.366-14.225-41.949-24.087c0,0-2.425-2.748,1.131-2.505c0,0,19.965,6.305,40.01,3.314
	c0,0,5.738-1.374,1.616-4.688c0,0-10.993-6.871-36.696-12.61c0,0-4.122-3.314,1.94-2.748c0,0,18.025,5.739,33.947,2.99
	c0,0,7.113-1.051-0.242-5.496c0,0-13.74-8.729-34.271-11.235c0,0-3.557-2.748,0.565-2.99c0,0,22.389,0,24.895-1.132
	c0,0,3.557-0.243,1.375-2.748c0,0-9.053-9.861-31.523-13.175l-12.609-1.212c0,0-10.589-3.637-0.566-3.718
	c0,0,18.429,4.122,36.211,0.323c0,0,7.112-2.748,2.425-4.446C263.175,12.59,237.472,3.861,204.818,4.346z"/>
<path fill="#FFFFFF" d="M245.959,99.318c0,0,10.104,13.175,10.104,14.872c0,0,0.242,2.991,6.547,2.667
	c0,0,7.679,0.566,15.923,11.559c0,0,9.375,10.993,12.124,11.235c0,0,3.314,0.324,0.242-4.607c0,0-12.366-19.803-13.983-21.419
	c0,0-14.549-14.549-29.825-17.62C247.09,96.005,241.352,94.954,245.959,99.318z"/>
<path fill="#FFFFFF" d="M248.464,140.217c0,0,8.406,2.749,8.729,6.871c0,0,8.487,34.271,8.487,39.282c0,0-1.697,3.799-3.314,1.374
	c0,0-15.034-39.282-15.034-41.787C247.333,145.956,243.777,138.843,248.464,140.217z"/>
<path fill="#FFFFFF" d="M242.726,137.226c0,0,1.616,34.837,0.484,38.151c0,0-0.808,3.313-2.748-0.566l-2.749-4.122
	c0,0-2.748-25.784-1.051-27.481c0,0,1.616-1.617,2.183-4.365C238.846,138.843,240.219,134.478,242.726,137.226z"/>
<path fill="#FFFFFF" d="M249.272,162.202c0,0-2.182-4.93-2.505,0.809c0,0-3.233,26.107-0.242,29.34c0,0,2.748,8.568,12.528,3.072
	c0,0,4.688-0.566-1.374-12.125C257.679,183.298,250.323,169.558,249.272,162.202z"/>
<path fill="#FFFFFF" d="M232.703,196.958c0,0,2.506,2.667,3.88,2.991c0,0,3.556,1.94,1.212,4.122c0,0-2.667,2.102-5.658-2.182
	c0,0-5.981-5.82-3.314-7.517C228.823,194.372,230.521,193.321,232.703,196.958z"/>
<path fill="#FFFFFF" d="M219.285,159.777c0,0,2.102-2.101,3.395,0c0,0,3.152,10.912,3.879,12.367c0,0,4.365,11.64,2.587,12.852
	c0,0-1.698,2.829-6.143-2.506c0,0-4.042-3.718-4.607-4.203c0,0-1.212-0.162-0.162-3.718L219.285,159.777z"/>
<path fill="#FFFFFF" d="M223.731,148.219c0,0,19.803,30.715,17.863,46.072c0,0-0.566,4.365-3.88,2.991c0,0-4.364-1.375-4.364-9.861
	c0,0-6.305-27.724-10.669-32.412C222.68,155.009,215.002,141.833,223.731,148.219z"/>
<path fill="#FFFFFF" d="M216.376,123.486l0.808,8.487c0,0,0.243,2.748,2.991,4.688c0,0,10.427,15.681,11.559,18.914
	c0,0,0.566,3.556,2.424,1.697l-2.182-18.105c0,0-0.808-4.122-4.365-5.253C227.611,133.913,218.801,120.98,216.376,123.486z"/>
<path fill="#FFFFFF" d="M201.504,91.397c0,0,3.556,0,4.122-0.808c0,0,4.93-2.506,8.001,3.799c0,0,5.739,10.426,1.617,11.558
	c0,0-5.173,2.425-7.679-3.071c0,0-5.254-6.547-8.002-6.87C199.564,96.005,195.442,91.882,201.504,91.397z"/>
<path fill="#FFFFFF" d="M217.669,92.448c0,0,2.829,1.94,4.123,1.697c0,0,3.314-0.889,5.496,5.496c0,0,9.376,31.281,9.053,32.655
	c0,0,0.889,5.496-4.042,1.617c0,0-17.863-18.106-17.863-20.288c0,0-2.505-2.748,1.375-3.88c0,0,6.87-1.374,4.364-8.487
	C220.175,101.258,213.87,91.882,217.669,92.448z"/>
<path fill="#FFFFFF" d="M204.252,71.918c0,0,11.559,5.173,13.983,4.365c0,0,1.94-1.374,5.82,2.748c0,0,7.921,7.921,7.113,12.367
	c0,0-0.243,3.799,2.748,3.799c0,0,7.679,0.809,22.713,25.542c0,0,3.233,4.123,3.798,15.923c0,0,1.375,7.113-3.556,4.688
	c0,0-15.276-7.436-16.893-12.932c0,0-10.427-29.098-10.184-32.088c0,0-0.243-4.688-2.506-4.446c0,0-19.479-1.374-24.086-18.106
	C203.201,73.777,202.635,71.594,204.252,71.918z"/>
<path fill="#FFFFFF" d="M265.923,123.728c0,0,16.246,10.185,19.479,19.803c0,0,1.697,6.547-4.607,4.688
	c0,0-13.74-4.688-14.549-6.062c0,0-1.94-0.324-1.374-3.88C264.873,138.277,261.316,121.546,265.923,123.728z"/>
<path fill="#FFFFFF" d="M267.62,152.341c0,0,29.341,21.096,38.636,38.635c0,0,6.062,7.437-3.233,9.053
	c-1.374-0.243-10.507,4.122-12.69-5.496c0,0-16.731-31.766-21.662-37.019C268.671,157.514,262.124,152.584,267.62,152.341z"/>
<path fill="#FFFFFF" d="M279.098,233.654c0,0.97-1.374,1.778-3.152,1.778c-1.697,0-3.152-0.808-3.152-1.778
	c0-0.97,1.455-1.778,3.152-1.778C277.724,231.875,279.098,232.684,279.098,233.654z"/>
<path fill="#FFFFFF" d="M262.609,228.562c0,0,17.621-0.243,19.237-2.183c0,0,2.991-2.424-10.669-4.122c0,0-13.175-1.859-13.175,1.94
	C258.002,224.197,255.82,228.562,262.609,228.562z"/>
<path fill="#FFFFFF" d="M260.993,240.12c0,0,6.062-4.688,4.688-5.739c0,0-4.93-6.304-7.678-1.374
	C258.002,233.008,255.254,242.868,260.993,240.12z"/>
<path fill="#FFFFFF" d="M239.412,239.877c0,0,13.094,1.375,14.468-4.122l0.565-9.376c0,0-1.132-4.931-5.416-0.808
	c0,0-4.445,1.94-7.193,2.748C241.837,228.319,227.287,237.13,239.412,239.877z"/>
<path d="M489.427,605.48c2.384,1.293,4.249,3.135,5.594,5.535c1.335,2.4,2.006,4.897,2.006,7.493c0,2.58-0.659,5.057-1.976,7.42
	c-1.314,2.371-3.156,4.215-5.533,5.533c-2.378,1.323-4.852,1.985-7.434,1.985c-2.579,0-5.06-0.662-7.434-1.985
	c-2.375-1.317-4.225-3.162-5.544-5.533c-1.327-2.363-1.983-4.84-1.983-7.42c0-2.596,0.67-5.093,2.015-7.493
	c1.348-2.4,3.213-4.242,5.596-5.535c2.381-1.292,4.836-1.936,7.351-1.936C484.591,603.544,487.032,604.188,489.427,605.48z
	 M473.274,602.889c-2.87,1.544-5.105,3.752-6.71,6.628c-1.612,2.874-2.41,5.871-2.41,8.992c0,3.09,0.791,6.057,2.372,8.908
	c1.588,2.848,3.799,5.063,6.634,6.639c2.848,1.576,5.818,2.362,8.926,2.362c3.103,0,6.077-0.786,8.919-2.362
	c2.848-1.577,5.05-3.791,6.631-6.639c1.572-2.851,2.364-5.817,2.364-8.908c0-3.121-0.805-6.118-2.403-8.992
	c-1.594-2.875-3.832-5.083-6.699-6.628c-2.863-1.546-5.804-2.315-8.812-2.315C479.074,600.573,476.144,601.343,473.274,602.889z
	 M477.302,628.452v-8.218h1.843c1.097-0.007,1.936,0.215,2.51,0.66c0.815,0.609,1.905,2.109,3.272,4.503l1.73,3.054h3.795
	l-2.364-3.794c-1.129-1.797-2.086-3.079-2.865-3.839c-0.415-0.396-0.962-0.741-1.646-1.027c1.677-0.128,3.018-0.717,4.03-1.762
	c1.014-1.049,1.518-2.275,1.518-3.686c0-1-0.305-1.944-0.909-2.834c-0.6-0.888-1.415-1.509-2.428-1.869
	c-1.015-0.354-2.658-0.534-4.938-0.534h-6.645v19.345H477.302z M477.302,611.698h3.598c1.55,0,2.605,0.115,3.177,0.338
	c0.57,0.224,1.018,0.562,1.345,1.02c0.315,0.457,0.479,0.972,0.479,1.547c0,0.897-0.339,1.619-1.003,2.158
	c-0.67,0.548-1.918,0.815-3.752,0.815h-3.842V611.698z"/>
</svg>
