<?xml version="1.0" encoding="utf-8"?>
<!-- Generator: Adobe Illustrator 15.0.0, SVG Export Plug-In . SVG Version: 6.00 Build 0)  -->
<!DOCTYPE svg PUBLIC "-//W3C//DTD SVG 1.1//EN" "http://www.w3.org/Graphics/SVG/1.1/DTD/svg11.dtd">
<svg version="1.1" id="Layer_1" xmlns="http://www.w3.org/2000/svg" xmlns:xlink="http://www.w3.org/1999/xlink" x="0px" y="0px"
	 width="313.969034384" height="318.502747241" viewBox="0 0 500 507.22" enable-background="new 0 0 500 507.22" xml:space="preserve">
<path d="M454.976,187.356l1.255,0.642l1.838-14.728v-0.061c0.018-5.365-2.99-8.842-6.409-11.039
	c-3.417-2.219-7.342-3.38-9.509-4.373c-2.129-0.963-4.582-2.79-6.461-4.369c-1.884-1.578-3.198-2.894-3.201-2.895l-0.699-0.699
	l-0.698,0.698c-0.174,0.159-1.557,1.722-1.547,5.532c0,2.38,0.523,5.633,2.147,10.023
	C436.172,177.896,454.92,187.266,454.976,187.356z"/>
<path d="M465.217,200.988v1.23l1.203-0.266c2.425-0.604,4.444-3.032,6.431-5.604c1.943-2.578,3.729-5.402,4.885-6.744
	c1.387-1.652,1.895-4.107,1.911-6.472c-0.063-2.776-0.609-5.506-2.632-6.662c-0.893-0.406-2.95-2.581-4.551-4.563
	c-1.636-1.994-2.964-3.835-2.968-3.839l-0.773-1.07l-0.809,1.044c-3.258,4.215-4.148,9.222-4.148,13.729
	c0.005,5.79,1.483,11.045,1.452,12.582C465.217,197.67,465.217,200.988,465.217,200.988z"/>
<path d="M443,202.721c10.377,4.565,20.332,8.714,20.335,8.715l1.166,0.486l0.191-1.249c0.006-0.042,0.07-0.485,0.07-1.229
	c0.034-3.145-1.273-11.85-13.021-18.036c-5.061-2.833-9.968-3.854-13.933-3.855c-4.382,0.055-7.579,1.097-8.916,2.935l-0.329,0.491
	l0.278,0.522C428.915,191.64,432.395,198.057,443,202.721z"/>
<path d="M458.373,212.968c-5.058-2.833-9.965-3.854-13.929-3.855c-4.384,0.056-7.582,1.098-8.917,2.938l-0.327,0.49l0.277,0.521
	c0.072,0.141,3.553,6.556,14.158,11.22c10.38,4.565,20.332,8.713,20.335,8.714l1.166,0.486l0.19-1.248
	c0.007-0.042,0.072-0.483,0.072-1.226C471.432,227.868,470.126,219.157,458.373,212.968z"/>
<path d="M499.239,264.24c-0.46-2.102-0.924-3.654-1.56-4.551c-0.456-0.599-1.193-0.872-1.988-0.871
	c-1.992,0.039-4.64,1.495-7.981,5.788c-2.642,3.422-5.696,8.703-9.012,16.71c0.511-5.538,0.677-11.049,0.621-16.301l0.264-0.166
	c0.039-0.095,13.546-8.28,14.559-19.416l0.003-0.043v-0.036c-0.006-3.4-0.409-5.181-0.934-6.248
	c-0.283-0.615-0.689-0.989-1.051-1.189l-6.232-9.789l-0.861,0.705c-0.066,0.067-4.767,3.875-6.541,10.03
	c-0.272,0.954-0.531,2.058-0.765,3.258c-0.445-3.645-0.909-6.678-1.279-8.89c0.969-0.502,4.148-2.236,7.369-4.983
	c3.82-3.267,7.793-8.011,7.813-13.965c0-0.159-0.002-0.318-0.008-0.474c-0.413-11.585-6.94-15.661-7.117-15.741l-0.352-0.21
	l-0.396,0.1c-0.281,0.01-7.392,2.152-8.619,14.959c-0.536,5.357-0.691,9.727-0.691,12.977c0,0.971,0.015,1.827,0.037,2.595
	c-1.008,0.331-1.675,2.769-1.675,2.769c1.229,4.154,2.059,10.822,2.618,17.564c-1.405-5.381-4.471-8.682-6.833-11.557
	c-2.233-2.649-6.779-4.12-10.844-5.153c-4.057-1-7.611-1.418-7.636-1.421l-0.925-0.109l-0.163,0.917
	c-0.063,0.352-0.09,0.708-0.09,1.063c0.025,2.863,1.722,5.888,4.105,8.99c7.183,9.245,21.232,19.091,21.267,19.125l1.333,0.937
	l0.214-1.615c0.086-0.647,0.139-1.258,0.191-1.869c0.405,7.681,0.491,13.762,0.491,13.762c-0.075,1.145-0.177,2.257-0.273,3.377
	c-1.923-3.202-5.154-6.128-7.994-7.577c-3.114-1.53-7.988-4.248-11.788-4.29c-0.269,0-0.538,0.013-0.809,0.05l-0.649,0.086
	l-0.174,0.632c-0.019,0.072-0.234,0.889-0.234,2.291c-0.001,2.099,0.487,5.516,2.814,9.646c1.93,3.423,5.268,7.796,8.518,11.47
	c1.625,1.835,3.226,3.489,4.625,4.756c1.095,0.974,2.006,1.713,2.859,2.159c-0.655,3.054-1.39,5.998-2.199,8.833
	c0.055-0.478,0.096-0.941,0.099-1.366c0-0.25-0.011-0.491-0.034-0.722c-0.442-4.485-3.151-8.902-8.311-12.337
	c-5.09-3.392-10.524-5.472-10.562-5.489l-0.651-0.25l-0.453,0.53c-0.094,0.108-1.828,2.188-1.829,6c0,0.95,0.106,2.004,0.374,3.155
	c0.767,3.129,4.708,8.696,8.517,13.797c3.802,5.05,7.436,9.412,7.442,9.419l0.704,0.845c-1.495,3.613-3.106,7.025-4.813,10.246
	c0.029-0.363,0.052-0.727,0.052-1.094c0.001-4.112-1.854-8.454-5.826-12.401c-4.334-4.313-9.269-7.408-9.301-7.431l-0.59-0.371
	l-0.548,0.432c-0.137,0.095-3.208,2.62-3.205,8.197c0,0.163,0.002,0.334,0.009,0.513c0.146,3.209,2.935,9.433,5.683,15.175
	c2.424,5.015,4.823,9.476,5.362,10.471c-2.115,2.958-4.286,5.721-6.481,8.306c0.144-0.776,0.21-1.551,0.21-2.317
	c-0.104-10.068-10.939-18.605-10.971-18.701c-0.133-0.101-0.44-0.303-0.932-0.307c-0.721-0.003-1.479,0.479-2.083,1.444
	c-0.629,0.981-1.258,2.54-1.889,5.208c-0.4,1.708-0.536,4.009-0.538,6.617c0.002,9.115,1.768,21.917,1.769,21.938l0.111,0.813
	c-2.744,2.507-5.387,4.805-7.841,6.932c-2.044,1.772-4.329,3.575-6.785,5.388l4.255-3.939l0.077-0.138
	c1.13-2.035,1.609-4.138,1.607-6.18c-0.103-10.069-10.938-18.607-10.971-18.703c-0.133-0.101-0.44-0.302-0.931-0.306
	c-0.721-0.003-1.479,0.479-2.083,1.444c-0.627,0.981-1.255,2.54-1.887,5.208c-0.401,1.711-0.537,4.016-0.54,6.631
	c0.003,9.114,1.764,21.902,1.765,21.925l0.007,0.052c-2.445,1.584-4.988,3.159-7.602,4.715c0.42-1.37,0.614-2.773,0.611-4.164
	c-0.046-8.81-6.898-17.35-6.928-17.433c-0.118-0.148-0.526-0.545-1.224-0.547c-1.454,0.118-2.747,1.232-4.956,5.656
	c-1.696,3.525-2.907,10.446-3.778,16.625c-0.533,3.827-0.912,7.332-1.122,9.441c-2.129,1.086-4.258,2.141-6.375,3.165
	c0.152-0.332,0.306-0.67,0.464-1.029c0.717-1.642,0.992-3.323,0.992-4.921c-0.021-5.48-3.114-10.039-3.152-10.119l-0.439-0.657
	l-0.736,0.283c-0.09,0.041-5.631,2.163-9.963,7.781c-3.716,4.859-7.869,15.318-8.976,18.174c-2.959,1.131-5.741,2.112-8.297,2.928
	c4.056-4.269,5.128-9.202,5.09-12.941c-0.002-3.6-0.91-6.145-0.933-6.214l-0.267-0.747l-0.786,0.099
	c-0.313,0.049-3.753,0.583-12.542,8.108c-8.382,7.19-15.516,17.633-16.276,18.755c-2.837,0.707-5.686,1.402-8.495,2.075
	c3.153-3.055,5.85-7.57,5.853-13.966c0-0.296-0.007-0.595-0.018-0.893v-0.027l-0.003-0.028c-0.057-0.625-0.08-1.17-0.08-1.644
	c-0.001-1.427,0.214-2.207,0.375-2.581c0.079-0.18,0.142-0.269,0.167-0.3c0.003-0.003,0.003-0.004,0.003-0.004l-0.174-0.143
	l-0.782-1.554c-0.07,0.031-10.54,3.781-19.02,12.255l-0.033,0.032l-0.03,0.036c-7.892,9.551-11.221,14.127-11.234,14.146
	l-0.362,0.497c-3.767,0.835-6.648,1.464-8.188,1.806c-2.428,0.541-6.334,1.187-10.498,1.885c1.028-0.322,1.662-0.528,1.678-0.529
	l0.156-0.051l0.129-0.096c10.296-7.663,12.563-18.821,12.554-27.044c-0.001-6.518-1.396-11.282-1.413-11.34l-0.369-1.261
	l-1.108,0.704c-26.486,16.828-30.691,42.426-30.714,42.553l0,0.003c-0.082,0-0.151,0-0.219-0.001l0-0.002
	c-0.001,0-0.088,0-0.233,0.001c-0.145,0-0.231,0-0.232-0.001v0.002c-0.069,0-0.138,0-0.22,0.001l0-0.003
	c-0.023-0.127-4.228-25.725-30.714-42.553l-1.108-0.704l-0.369,1.261c-0.017,0.059-1.412,4.822-1.413,11.34
	c-0.009,8.224,2.258,19.382,12.554,27.044l0.129,0.096l0.155,0.051c0.016,0.001,0.65,0.207,1.678,0.529
	c-4.164-0.698-8.069-1.344-10.498-1.885c-1.54-0.342-4.422-0.971-8.188-1.806l-0.362-0.497c-0.013-0.018-3.342-4.594-11.234-14.146
	l-0.03-0.036l-0.033-0.032c-8.48-8.474-18.95-12.224-19.02-12.255l-0.782,1.554l-0.174,0.143c0,0,0,0,0.003,0.004
	c0.025,0.031,0.088,0.12,0.167,0.3c0.161,0.374,0.376,1.154,0.375,2.581c0,0.474-0.023,1.019-0.08,1.644l-0.003,0.028v0.027
	c-0.011,0.298-0.018,0.597-0.018,0.893c0.002,6.396,2.7,10.911,5.853,13.966c-2.809-0.673-5.658-1.369-8.495-2.075
	c-0.761-1.123-7.894-11.565-16.276-18.755c-8.789-7.525-12.229-8.059-12.542-8.108l-0.786-0.099l-0.267,0.747
	c-0.023,0.069-0.931,2.614-0.933,6.214c-0.038,3.739,1.034,8.673,5.09,12.941c-2.557-0.816-5.338-1.797-8.297-2.928
	c-1.107-2.856-5.26-13.315-8.976-18.174c-4.332-5.618-9.874-7.74-9.963-7.781l-0.736-0.283l-0.439,0.657
	c-0.038,0.081-3.131,4.639-3.152,10.119c0,1.598,0.274,3.279,0.992,4.921c0.157,0.359,0.312,0.697,0.464,1.029
	c-2.117-1.024-4.246-2.078-6.375-3.165c-0.21-2.109-0.588-5.614-1.122-9.441c-0.871-6.179-2.082-13.1-3.778-16.625
	c-2.208-4.424-3.502-5.538-4.956-5.656c-0.698,0.002-1.106,0.399-1.224,0.547c-0.03,0.083-6.882,8.623-6.928,17.433
	c-0.003,1.39,0.191,2.794,0.611,4.164c-2.614-1.556-5.157-3.131-7.602-4.715l0.007-0.052c0.001-0.023,1.762-12.811,1.765-21.925
	c-0.003-2.615-0.139-4.92-0.54-6.631c-0.631-2.668-1.259-4.227-1.887-5.208c-0.604-0.966-1.362-1.448-2.083-1.444
	c-0.491,0.003-0.798,0.205-0.931,0.306c-0.032,0.096-10.868,8.634-10.971,18.703c-0.002,2.042,0.477,4.145,1.607,6.18l0.077,0.138
	l4.255,3.939c-2.456-1.813-4.741-3.616-6.785-5.388c-2.454-2.127-5.097-4.425-7.841-6.932l0.111-0.813
	c0.001-0.021,1.767-12.823,1.769-21.938c-0.002-2.608-0.138-4.908-0.538-6.617c-0.631-2.667-1.259-4.227-1.889-5.208
	c-0.605-0.965-1.363-1.447-2.083-1.444c-0.492,0.003-0.798,0.206-0.932,0.307c-0.032,0.095-10.868,8.633-10.971,18.701
	c0,0.766,0.066,1.541,0.21,2.317c-2.195-2.585-4.366-5.349-6.481-8.306c0.539-0.995,2.938-5.456,5.362-10.471
	c2.748-5.742,5.537-11.965,5.683-15.175c0.007-0.179,0.009-0.35,0.009-0.513c0.003-5.577-3.067-8.102-3.205-8.197l-0.548-0.432
	l-0.59,0.371c-0.033,0.023-4.967,3.118-9.301,7.431c-3.972,3.947-5.828,8.29-5.826,12.401c0,0.367,0.022,0.731,0.052,1.094
	c-1.706-3.22-3.318-6.632-4.813-10.246l0.704-0.845c0.007-0.007,3.641-4.369,7.442-9.419c3.809-5.101,7.75-10.668,8.517-13.797
	c0.268-1.151,0.374-2.206,0.374-3.155c-0.001-3.813-1.734-5.892-1.829-6l-0.453-0.53l-0.652,0.25
	c-0.037,0.017-5.471,2.098-10.561,5.489c-5.16,3.435-7.869,7.852-8.311,12.337c-0.022,0.231-0.034,0.472-0.034,0.722
	c0.003,0.425,0.044,0.888,0.1,1.366c-0.81-2.835-1.545-5.779-2.2-8.833c0.854-0.445,1.764-1.185,2.86-2.159
	c1.399-1.267,3-2.921,4.625-4.756c3.25-3.673,6.588-8.046,8.518-11.47c2.327-4.13,2.815-7.547,2.814-9.646
	c0-1.402-0.216-2.219-0.235-2.291l-0.174-0.632l-0.648-0.086c-0.271-0.037-0.541-0.05-0.81-0.05c-3.8,0.042-8.674,2.76-11.788,4.29
	c-2.84,1.449-6.071,4.375-7.994,7.577c-0.096-1.12-0.198-2.232-0.274-3.377c0,0,0.087-6.081,0.491-13.762
	c0.052,0.611,0.105,1.221,0.191,1.869l0.214,1.615l1.333-0.937c0.035-0.034,14.084-9.88,21.267-19.125
	c2.384-3.102,4.081-6.127,4.106-8.99c0-0.355-0.027-0.71-0.09-1.063l-0.163-0.917l-0.925,0.109
	c-0.024,0.003-3.579,0.421-7.636,1.421c-4.064,1.033-8.611,2.504-10.844,5.153c-2.362,2.875-5.428,6.175-6.833,11.557
	c0.558-6.742,1.388-13.41,2.617-17.564c0,0-0.667-2.438-1.675-2.769c0.022-0.769,0.037-1.624,0.037-2.595
	c0-3.25-0.155-7.62-0.69-12.977c-1.227-12.807-8.338-14.949-8.619-14.959l-0.396-0.1l-0.351,0.21
	c-0.177,0.081-6.704,4.156-7.117,15.741c-0.006,0.156-0.008,0.315-0.008,0.474c0.02,5.955,3.993,10.698,7.813,13.965
	c3.22,2.747,6.4,4.48,7.369,4.983c-0.37,2.212-0.834,5.245-1.279,8.89c-0.235-1.2-0.493-2.304-0.765-3.258
	c-1.774-6.155-6.475-9.962-6.541-10.03l-0.861-0.705l-6.232,9.789c-0.362,0.2-0.768,0.574-1.051,1.189
	c-0.525,1.067-0.928,2.848-0.934,6.248v0.036l0.003,0.043c1.012,11.136,14.52,19.321,14.558,19.416l0.264,0.166
	c-0.057,5.252,0.109,10.763,0.62,16.301c-3.315-8.008-6.37-13.288-9.011-16.71c-3.342-4.292-5.989-5.749-7.982-5.788
	c-0.795-0.001-1.533,0.272-1.988,0.871c-0.636,0.897-1.099,2.45-1.56,4.551c-0.436,2.078-0.76,4.591-0.761,7.032
	c0.004,2.156,0.245,4.251,0.958,5.974l0.018,0.042l0.023,0.045c5.802,10.686,18.234,11.938,21.314,12.104
	c0.95,5.963,2.375,11.823,4.431,17.282c0.131,0.348,0.263,0.696,0.394,1.044c-9.63-16.007-23.269-18.991-23.406-19.01l-1.068-0.229
	l-0.12,1.087c-0.003,0.029-0.098,0.891-0.098,2.328c0.002,2.88,0.374,8.074,2.651,13.489c2.327,5.708,8.661,8.426,14.251,9.868
	c5.62,1.43,10.649,1.532,10.694,1.534l0.61,0.013c2.685,6.672,5.723,13.436,9.7,20.298c-4.253-3.737-9.44-8.054-13.803-11.692
	c-5.497-4.594-10.247-5.313-12.572-5.308c-0.933,0-1.479,0.114-1.538,0.125l-0.97,0.209l0.215,0.971
	c0.774,3.478,0.458,9.864,8.141,17.482c6.102,5.99,18.105,6.542,23.791,6.584c0.833,0,1.52-0.015,2.04-0.032
	c2.731,3.926,5.84,7.884,9.43,11.876c-2.171-1.424-4.649-3.043-7.456-5.009c-7.147-4.973-13.865-5.663-17.03-5.662
	c-1.188,0-1.881,0.097-1.921,0.103l-1.201,0.172l0.412,1.141c3.778,10.526,9.39,16.663,16.772,19.254
	c2.529,0.887,5.563,1.159,8.515,1.163c5.896-0.002,11.459-1.121,11.495-1.125l0.359-0.072c2.263,2.055,4.676,4.119,7.247,6.191
	c-0.65-0.315-1.313-0.629-2.003-0.939c-7.083-3.168-17.238-3.407-20.758-3.418c-0.781,0-1.231,0.015-1.241,0.015l-1.628,0.053
	l0.8,1.419c0.043,0.05,3.752,6.731,8.576,10.264c4.72,3.432,10.709,5.575,16.748,5.578c5.975-0.005,13.449-1.674,13.484-1.679
	l1.169-0.259c5.224,3.459,10.952,6.946,17.238,10.458c-2.853-0.566-6.72-1.17-12.224-2.185c-3.609-0.667-6.572-0.926-9.005-0.926
	c-8.322-0.029-10.526,3.15-10.684,3.471l-0.269,0.461l0.239,0.479c3.668,7.183,13.46,10.442,21.091,11.323
	c0.479,0.051,0.968,0.077,1.464,0.077c7.856-0.042,17.73-5.998,17.808-6.014l0.763-0.452l-0.367-0.807
	c-0.137-0.32-0.287-0.621-0.445-0.907c4.063,2.119,8.336,4.248,12.836,6.386c0.078,0.098,0.15,0.188,0.22,0.272
	c-0.805-0.033-1.611-0.05-2.416-0.051c-11.159,0.004-21.906,2.901-21.951,2.91l-1.217,0.326l0.607,1.105
	c0.074,0.18,4.975,8.795,19.884,9.633c0.71,0.04,1.401,0.061,2.073,0.061c12.015,0.001,18.021-6.168,19.25-7.608
	c5.147,1.642,11.51,3.482,18.598,5.387c-14.374,0.229-24.512,7.481-24.599,7.534l-1.3,0.928l1.413,0.749
	c6.05,3.198,14.01,4.88,20.477,4.887c1.316,0,2.571-0.07,3.739-0.215c7.266-0.997,15.418-9.805,15.516-9.836l0.102-0.106
	c7.141,1.754,14.594,3.482,21.987,5.081c-3.43,0.427-7.006,1.065-10.551,1.437c-8.256,0.9-19.403,7.582-19.469,7.6l-0.896,0.53
	l0.579,0.867c0.684,0.941,1.79,1.414,3.269,1.971c1.477,0.525,3.318,0.997,5.313,1.4c0.721,0.145,1.464,0.277,2.213,0.402
	c-1.588,0.74-2.886,1.569-3.821,2.52l-0.722,0.752l0.79,0.68c0.123,0.112,8.497,7.246,26.033,7.245c0.003,0,0.009,0,0.013,0
	c6.221,0,13.588-0.896,22.136-3.308l0.119-0.033l0.103-0.059c0.002-0.001,0.302-0.171,0.823-0.465
	c-14.591,9.696-32.914,22.361-39.743,29.177l-0.188,0.188l-7.53,28.449l1.698,0.904c0.015-0.017,6.184-7.063,14.985-16.644
	c8.803-9.579,20.226-21.675,30.682-31.717c7.036-6.756,13.816-12.144,18.831-15.837c3.239-2.385,5.723-4.052,7.084-4.939
	c1.362,0.887,3.846,2.554,7.084,4.939c5.015,3.694,11.795,9.082,18.831,15.837c10.456,10.042,21.878,22.138,30.682,31.717
	c8.802,9.581,14.97,16.627,14.985,16.644l1.698-0.904l-7.53-28.449l-0.188-0.188c-6.829-6.816-25.152-19.48-39.743-29.177
	c0.521,0.293,0.82,0.463,0.823,0.465l0.103,0.059l0.119,0.033c8.548,2.411,15.915,3.308,22.136,3.308c0.003,0,0.009,0,0.013,0
	c17.536,0,25.91-7.133,26.033-7.245l0.79-0.68l-0.721-0.752c-0.936-0.951-2.233-1.78-3.822-2.52
	c0.749-0.125,1.492-0.257,2.213-0.402c1.995-0.403,3.837-0.875,5.313-1.4c1.479-0.558,2.585-1.03,3.269-1.971l0.579-0.867
	l-0.896-0.53c-0.066-0.018-11.213-6.7-19.469-7.6c-3.545-0.372-7.121-1.009-10.551-1.437c7.393-1.599,14.846-3.327,21.987-5.081
	l0.102,0.106c0.097,0.031,8.25,8.84,15.516,9.836c1.167,0.145,2.423,0.215,3.739,0.215c6.467-0.006,14.427-1.688,20.477-4.887
	l1.413-0.749l-1.3-0.928c-0.087-0.053-10.226-7.306-24.599-7.534c7.087-1.904,13.45-3.745,18.598-5.387
	c1.229,1.44,7.235,7.609,19.25,7.608c0.672,0,1.363-0.021,2.073-0.061c14.909-0.838,19.81-9.453,19.884-9.633l0.607-1.105
	l-1.217-0.326c-0.045-0.009-10.792-2.905-21.951-2.91c-0.804,0.001-1.61,0.019-2.416,0.051c0.07-0.084,0.143-0.174,0.22-0.272
	c4.5-2.138,8.772-4.267,12.836-6.386c-0.159,0.286-0.308,0.587-0.445,0.907l-0.367,0.807l0.763,0.452
	c0.078,0.017,9.952,5.972,17.808,6.014c0.497,0,0.985-0.026,1.464-0.077c7.63-0.881,17.422-4.14,21.091-11.323l0.239-0.479
	l-0.269-0.461c-0.158-0.32-2.362-3.5-10.684-3.471c-2.433,0-5.396,0.26-9.005,0.926c-5.504,1.015-9.371,1.618-12.224,2.185
	c6.286-3.512,12.014-6.998,17.238-10.458l1.169,0.259c0.035,0.004,7.509,1.674,13.484,1.679c6.039-0.003,12.028-2.146,16.748-5.578
	c4.824-3.532,8.533-10.214,8.576-10.264l0.8-1.419l-1.628-0.053c-0.01,0-0.46-0.015-1.241-0.015
	c-3.52,0.011-13.676,0.25-20.758,3.418c-0.69,0.311-1.353,0.625-2.003,0.939c2.571-2.073,4.984-4.137,7.247-6.191l0.359,0.072
	c0.035,0.005,5.599,1.123,11.495,1.125c2.951-0.003,5.985-0.275,8.515-1.163c7.382-2.591,12.994-8.728,16.771-19.254l0.412-1.141
	l-1.201-0.172c-0.041-0.006-0.733-0.103-1.921-0.103c-3.166-0.001-9.883,0.689-17.03,5.662c-2.807,1.965-5.285,3.585-7.456,5.009
	c3.59-3.992,6.699-7.95,9.43-11.876c0.521,0.017,1.207,0.032,2.04,0.032c5.686-0.042,17.688-0.594,23.791-6.584
	c7.684-7.619,7.367-14.005,8.142-17.482l0.215-0.971l-0.971-0.209c-0.06-0.012-0.605-0.125-1.538-0.125
	c-2.325-0.005-7.075,0.714-12.572,5.308c-4.362,3.638-9.549,7.955-13.803,11.692c3.978-6.863,7.016-13.626,9.701-20.298l0.61-0.013
	c0.044-0.002,5.074-0.104,10.693-1.534c5.59-1.442,11.924-4.16,14.251-9.868c2.277-5.415,2.649-10.609,2.651-13.489
	c0-1.437-0.094-2.299-0.098-2.328l-0.12-1.087l-1.068,0.229c-0.137,0.019-13.776,3.002-23.406,19.01
	c0.131-0.349,0.263-0.697,0.394-1.044c2.056-5.459,3.481-11.318,4.431-17.282c3.081-0.166,15.512-1.417,21.315-12.104l0.022-0.045
	l0.018-0.042c0.713-1.723,0.954-3.817,0.958-5.974C499.999,268.83,499.675,266.318,499.239,264.24z M203.223,435.884
	c3.182-2.639,5.494-5.369,6.449-6.548c9.24,1.836,18.052,3.371,25.653,4.389C226.192,434.023,214.194,434.634,203.223,435.884z
	 M264.676,433.724c7.601-1.018,16.413-2.552,25.653-4.389c0.955,1.179,3.267,3.909,6.449,6.548
	C285.807,434.634,273.808,434.023,264.676,433.724z"/>
<path d="M45.025,187.356c0.056-0.09,18.804-9.459,23.283-21.269c1.625-4.39,2.147-7.643,2.147-10.023
	c0.01-3.81-1.373-5.373-1.547-5.532l-0.698-0.698l-0.699,0.699c-0.003,0.001-1.317,1.317-3.201,2.895
	c-1.879,1.579-4.332,3.406-6.46,4.369c-2.167,0.993-6.092,2.154-9.509,4.373c-3.419,2.197-6.427,5.673-6.409,11.039v0.061
	l1.838,14.728L45.025,187.356z"/>
<path d="M27.15,196.348c1.987,2.572,4.006,4.999,6.431,5.604l1.203,0.266v-1.23c0,0,0-3.317,0-6.635
	c-0.031-1.536,1.447-6.792,1.452-12.582c0-4.507-0.89-9.514-4.148-13.729l-0.809-1.044l-0.773,1.07
	c-0.004,0.003-1.332,1.845-2.968,3.839c-1.601,1.982-3.658,4.157-4.551,4.563c-2.022,1.155-2.569,3.886-2.632,6.662
	c0.015,2.365,0.523,4.82,1.91,6.472C23.42,190.947,25.207,193.771,27.15,196.348z"/>
<path d="M35.309,210.673l0.191,1.249l1.166-0.486c0.003-0.001,9.958-4.15,20.335-8.715c10.604-4.664,14.085-11.081,14.158-11.221
	l0.278-0.522l-0.329-0.491c-1.337-1.838-4.534-2.88-8.916-2.935c-3.965,0.001-8.872,1.022-13.933,3.855
	c-11.747,6.186-13.054,14.891-13.021,18.036C35.239,210.188,35.303,210.632,35.309,210.673z"/>
<path d="M55.557,209.113c-3.964,0.001-8.871,1.022-13.929,3.855c-11.753,6.189-13.059,14.9-13.025,18.041
	c0,0.743,0.065,1.184,0.072,1.226l0.191,1.248l1.166-0.486c0.003-0.001,9.955-4.148,20.335-8.714
	c10.605-4.665,14.086-11.079,14.158-11.22l0.277-0.521l-0.327-0.49C63.138,210.21,59.941,209.168,55.557,209.113z"/>
<path fill="#0DB14B" d="M431.52,156.064c0,2.089,0.461,5.116,2.024,9.337l0,0c2.864,7.897,14.016,15.423,19.403,18.559l0,0
	c0.655,0.386,1.222,0.708,1.678,0.961l0,0l1.468-11.769c-0.037-4.553-2.412-7.282-5.51-9.328l0,0c-3.112-2.03-6.857-3.151-9.25-4.23
	l0,0c-3.632-1.667-7.563-5.14-9.312-6.776l0,0C431.774,153.467,431.521,154.505,431.52,156.064L431.52,156.064z"/>
<path fill="#0DB14B" d="M465.742,181.771c-0.004,5.555,1.422,10.375,1.452,12.582l0,0c0,1.917,0,3.834,0,5.111l0,0
	c1.221-0.832,2.725-2.468,4.08-4.306l0,0c1.892-2.502,3.629-5.277,4.962-6.84l0,0c0.895-1.008,1.449-3.132,1.434-5.186l0,0
	c0.063-2.441-0.869-4.703-1.539-4.895l0,0c-1.595-0.838-3.477-3.017-5.193-5.078l0,0c-0.88-1.072-1.67-2.097-2.225-2.832l0,0
	C466.434,173.837,465.742,177.91,465.742,181.771L465.742,181.771z"/>
<path fill="#0DB14B" d="M431.195,191.5c0.444,0.616,1.149,1.495,2.171,2.518l0,0c2.047,2.045,5.362,4.665,10.428,6.896l0,0
	c8.106,3.565,15.946,6.874,18.98,8.147l0,0c-0.12-2.979-1.382-10.277-11.979-15.917l0,0c-4.782-2.679-9.359-3.615-12.988-3.615l0,0
	c-3.313-0.045-5.858,0.868-6.859,1.622l0,0C431.02,191.255,431.102,191.372,431.195,191.5L431.195,191.5z"/>
<path fill="#0DB14B" d="M437.831,213.062c0.445,0.615,1.149,1.495,2.173,2.518l0,0c2.045,2.045,5.361,4.665,10.428,6.895l0,0
	c8.107,3.566,15.947,6.874,18.98,8.147l0,0c-0.121-2.979-1.386-10.278-11.984-15.917l0,0c-4.778-2.678-9.356-3.616-12.983-3.614l0,0
	c-3.314-0.046-5.86,0.868-6.859,1.622l0,0C437.655,212.816,437.737,212.933,437.831,213.062L437.831,213.062z"/>
<path fill="#0DB14B" d="M454.638,240.338c2.281,2.942,5.365,6.021,8.457,8.799l0,0c4.431,3.983,8.861,7.345,11.023,8.936l0,0
	c0.092-1.019,0.135-1.98,0.135-2.887l0,0c-0.028-8.783-3.886-12.654-7.154-16.67l0,0c-1.501-1.912-5.87-3.55-9.787-4.486l0,0
	c-2.627-0.648-5.046-1.045-6.362-1.237l0,0C451.03,234.79,452.43,237.515,454.638,240.338L454.638,240.338z"/>
<path fill="#0DB14B" d="M456.626,266.458c0.001,1.799,0.408,4.847,2.56,8.678l0,0c2.704,4.824,8.77,12.143,12.747,15.729l0,0
	c0.718,0.663,1.396,1.196,1.922,1.553l0,0c0.222-0.875,0.537-2.167,0.853-3.641l0,0c0.582-2.713,1.157-6.051,1.153-8.363l0,0
	c0.002-0.861-0.086-1.576-0.227-1.989l0,0c-1.078-3.351-5.155-7.476-8.214-8.97l0,0c-3.027-1.539-7.84-4.025-10.74-4.079l0,0
	C456.651,265.657,456.626,266.02,456.626,266.458L456.626,266.458z"/>
<path fill="#0DB14B" d="M452.216,286.094c-0.351,0.795-0.711,1.994-0.712,3.593l0,0c0,0.8,0.09,1.702,0.323,2.711l0,0
	c0.475,2.263,4.412,8.099,8.17,13.053l0,0c2.523,3.353,4.975,6.402,6.321,8.053l0,0c0.344-0.896,0.794-2.114,1.245-3.461l0,0
	c0.931-2.763,1.84-6.12,1.828-8.087l0,0c0-0.192-0.008-0.372-0.023-0.529l0,0c-0.383-3.812-2.656-7.685-7.44-10.887l0,0
	c-2.431-1.621-4.985-2.949-6.924-3.868l0,0c-1.069-0.506-1.945-0.885-2.517-1.124l0,0
	C452.4,285.701,452.308,285.883,452.216,286.094L452.216,286.094z"/>
<path fill="#0DB14B" d="M445.588,309.322c-0.628,1.075-1.276,2.744-1.279,5.158l0,0c0,0.147,0.002,0.291,0.008,0.443l0,0
	c0.027,2.31,2.759,8.797,5.487,14.384l0,0c1.827,3.778,3.642,7.246,4.642,9.125l0,0c0.564-0.896,1.33-2.15,2.109-3.539l0,0
	c1.53-2.696,3.082-5.996,3.22-7.72l0,0c0.035-0.368,0.053-0.741,0.053-1.119l0,0c-0.002-3.509-1.563-7.332-5.244-11.001l0,0
	c-2.069-2.06-4.318-3.858-6.045-5.135l0,0c-0.952-0.704-1.739-1.246-2.254-1.591l0,0
	C446.083,308.568,445.837,308.898,445.588,309.322L445.588,309.322z"/>
<path fill="#0DB14B" d="M434.791,330.134c-0.431,0.661-1.029,2.047-1.625,4.591l0,0c-0.339,1.417-0.488,3.635-0.485,6.163l0,0
	c-0.002,6.811,1.023,15.895,1.505,19.779l0,0l9.67-8.955c0.911-1.695,1.284-3.392,1.285-5.085l0,0
	c0.052-6.432-5.708-12.959-8.644-15.73l0,0c-0.606-0.581-1.078-0.997-1.339-1.221l0,0
	C435.072,329.753,434.944,329.895,434.791,330.134L434.791,330.134z"/>
<path fill="#0DB14B" d="M411.573,349.208c-0.432,0.661-1.029,2.047-1.625,4.592l0,0c-0.339,1.421-0.49,3.644-0.486,6.177l0,0
	c-0.002,6.81,1.021,15.882,1.502,19.764l0,0l9.669-8.951c0.912-1.697,1.286-3.393,1.287-5.088l0,0
	c0.053-6.433-5.708-12.96-8.644-15.732l0,0c-0.605-0.58-1.075-0.995-1.337-1.219l0,0
	C411.852,348.828,411.725,348.969,411.573,349.208L411.573,349.208z"/>
<path fill="#0DB14B" d="M393.372,367.091c-0.568,0.612-1.397,1.816-2.437,3.956l0,0c-1.474,2.986-2.762,9.951-3.598,16.032l0,0
	c-0.54,3.875-0.92,7.42-1.125,9.494l0,0l11.406-6.604c1.95-2.248,2.667-4.793,2.673-7.463l0,0c0.023-5.83-3.644-12.1-5.498-14.806
	l0,0c-0.354-0.523-0.635-0.91-0.805-1.139l0,0C393.862,366.632,393.65,366.789,393.372,367.091L393.372,367.091z"/>
<path fill="#0DB14B" d="M374.894,385.186c-0.541,0.266-1.312,0.674-2.209,1.248l0,0c-1.793,1.145-4.087,2.941-6.07,5.521l0,0
	c-1.967,2.547-4.252,7.19-5.995,11.147l0,0c-0.967,2.192-1.777,4.177-2.307,5.515l0,0l13.67-3.24
	c0.036-0.036,0.078-0.08,0.126-0.132l0,0c0.208-0.226,0.531-0.606,0.949-1.195l0,0c0.833-1.179,2.048-3.194,3.478-6.46l0,0
	c0.592-1.356,0.826-2.754,0.826-4.128l0,0c0.01-3.533-1.591-6.893-2.392-8.309l0,0c0-0.001-0.001-0.002-0.002-0.003l0,0
	C374.944,385.161,374.919,385.173,374.894,385.186L374.894,385.186z"/>
<path fill="#0DB14B" d="M348.728,395.038c-1.838,0.992-4.791,2.921-9.105,6.619l0,0c-4.276,3.664-8.29,8.29-11.217,11.991l0,0
	c-1.456,1.838-2.641,3.443-3.466,4.594l0,0l11.319-1.714c12.506-4.344,14.572-12.176,14.631-17.618l0,0
	c0.001-1.632-0.208-3.036-0.416-4.025l0,0c-0.048-0.229-0.096-0.435-0.14-0.614l0,0
	C349.947,394.425,349.415,394.666,348.728,395.038L348.728,395.038z"/>
<path fill="#0DB14B" d="M291.438,425.811c1.263-0.071,2.986-0.186,4.852-0.365l0,0c3.733-0.348,8.086-1.004,10.104-1.936l0,0
	c4.265-1.96,11.053-6.809,11.049-16.489l0,0c0-0.26-0.005-0.525-0.014-0.794l0,0c-0.061-0.668-0.087-1.264-0.087-1.798l0,0
	c-0.003-0.722,0.045-1.333,0.126-1.851l0,0c-1.041,0.464-2.41,1.117-3.976,1.967l0,0c-3.56,1.932-8.135,4.883-12.178,8.923l0,0
	C296.2,419.658,293.029,423.725,291.438,425.811L291.438,425.811z"/>
<path fill="#0DB14B" d="M330.138,424.988c2.83,2.242,6.504,4.527,9.46,4.875l0,0c1.074,0.135,2.249,0.201,3.495,0.201l0,0
	c5.583,0.006,12.532-1.368,18.005-3.891l0,0c-0.102-0.06-0.208-0.123-0.32-0.188l0,0c-1.159-0.672-2.859-1.573-5.001-2.476l0,0
	c-4.283-1.803-10.328-3.603-17.347-3.603l0,0c-3.767,0-7.814,0.516-12.035,1.829l0,0
	C327.262,422.565,328.575,423.76,330.138,424.988L330.138,424.988z"/>
<path fill="#0DB14B" d="M359.99,412.117c0.688,0.663,1.748,1.559,3.203,2.458l0,0c2.913,1.795,7.395,3.611,13.739,3.613l0,0
	c0.634,0,1.288-0.019,1.96-0.057l0,0c10.707-0.624,15.704-5.349,17.482-7.526l0,0c-1.158-0.272-2.982-0.673-5.25-1.076l0,0
	c-4.01-0.713-9.386-1.423-14.796-1.423l0,0c-6.18-0.01-12.384,0.949-16.636,3.717l0,0
	C359.782,411.915,359.881,412.013,359.99,412.117L359.99,412.117z"/>
<path fill="#0DB14B" d="M393.695,402.871c3.337,1.447,7.592,2.866,11.032,2.856l0,0c0.429,0,0.846-0.022,1.248-0.065l0,0
	c7.06-0.75,15.97-3.937,19.231-9.656l0,0c-0.231-0.205-0.595-0.476-1.14-0.757l0,0c-1.277-0.658-3.571-1.38-7.498-1.38l0,0
	c-2.292,0-5.137,0.247-8.646,0.895l0,0c-7.89,1.45-12.481,2.083-15.194,2.877l0,0c-2.338,0.73-3.159,1.31-3.993,2.805l0,0
	C389.715,400.983,391.507,401.927,393.695,402.871L393.695,402.871z"/>
<path fill="#0DB14B" d="M418.593,383.693c2.559,0.409,5.819,0.818,8.638,0.816l0,0c5.564,0.003,11.195-2.002,15.585-5.2l0,0
	c2.137-1.549,4.174-3.972,5.641-6l0,0c0.596-0.821,1.098-1.573,1.486-2.177l0,0c-3.823,0.024-13.237,0.448-19.404,3.243l0,0
	c-6.858,3.082-11.696,6.46-14.485,8.876l0,0C416.758,383.383,417.625,383.538,418.593,383.693L418.593,383.693z"/>
<path fill="#0DB14B" d="M439.165,365.999c2.068,0.271,4.837,0.543,7.66,0.543l0,0c2.822,0.002,5.684-0.28,7.857-1.05l0,0
	c6.439-2.282,11.45-7.413,15.107-16.827l0,0c-0.121-0.002-0.25-0.004-0.388-0.004l0,0c-2.889,0.001-9.17,0.625-15.902,5.308l0,0
	c-8.421,5.819-13.912,8.871-16.298,11.742l0,0C437.739,365.798,438.405,365.899,439.165,365.999L439.165,365.999z"/>
<path fill="#0DB14B" d="M456.384,343.537c5.51,0.042,17.294-0.806,22.393-6.007l0,0c6.591-6.653,6.754-11.579,7.399-15.413l0,0
	c-0.05,0-0.102-0.001-0.154-0.001l0,0c-1.937,0.005-6.155,0.557-11.307,4.849l0,0c-6.511,5.42-14.961,12.473-19.118,16.567l0,0
	C455.843,343.536,456.105,343.537,456.384,343.537L456.384,343.537z"/>
<path fill="#0DB14B" d="M493.973,291.57c-1.716,0.676-4.113,1.81-6.792,3.63l0,0c-5.118,3.479-11.267,9.445-15.718,19.57l0,0
	c0.438-0.032,0.958-0.076,1.546-0.138l0,0c1.896-0.197,4.469-0.568,7.154-1.251l0,0c5.399-1.358,11.088-4.031,12.912-8.704l0,0
	c2.141-5.081,2.504-10.029,2.501-12.739l0,0c0-0.354-0.005-0.668-0.014-0.938l0,0C495.137,291.135,494.6,291.323,493.973,291.57
	L493.973,291.57z"/>
<path fill="#0DB14B" d="M489.272,265.813c-3.017,3.903-6.753,10.589-10.842,21.593l0,0c0.258-0.023,0.548-0.053,0.865-0.091l0,0
	c1.447-0.175,3.448-0.528,5.626-1.23l0,0c4.358-1.405,9.367-4.17,12.315-9.645l0,0c0.544-1.324,0.791-3.192,0.786-5.168l0,0
	c0.001-2.264-0.306-4.67-0.718-6.625l0,0c-0.386-1.931-0.982-3.521-1.206-3.771l0,0c-0.008,0.006,0-0.002-0.052-0.025l0,0
	c-0.06-0.025-0.177-0.057-0.356-0.057l0,0c-0.017-0.001-0.034-0.001-0.052-0.001l0,0
	C494.706,260.792,492.346,261.802,489.272,265.813L489.272,265.813z"/>
<path fill="#0DB14B" d="M483.972,232.812c-1.291,1.587-2.771,3.868-3.545,6.593l0,0c-0.957,3.324-1.79,8.758-1.788,14.104l0,0
	c-0.001,3.153,0.29,6.284,0.983,8.932l0,0c0.27-0.19,0.583-0.416,0.931-0.677l0,0c1.23-0.919,2.881-2.254,4.55-3.897l0,0
	c3.34-3.277,6.684-7.79,7.064-12.549l0,0c-0.001-2.404-0.232-3.867-0.482-4.695l0,0c-0.171-0.569-0.327-0.816-0.411-0.917l0,0
	h-0.319l-5.461-8.581C485.08,231.535,484.546,232.105,483.972,232.812L483.972,232.812z"/>
<path fill="#0DB14B" d="M483.448,200.235c-0.555,0.304-1.333,0.833-2.162,1.733l0,0c-1.652,1.797-3.539,5.088-4.148,11.144l0,0
	c-0.529,5.288-0.681,9.591-0.681,12.78l0,0c0,2.251,0.074,3.935,0.144,5.022l0,0c0.283-0.161,0.605-0.35,0.961-0.567l0,0
	c1.366-0.831,3.191-2.055,5.006-3.602l0,0c3.647-3.103,7.14-7.468,7.119-12.463l0,0c0-0.133-0.002-0.27-0.007-0.405l0,0
	c-0.345-9.031-4.527-12.864-5.799-13.857l0,0C483.761,200.074,483.615,200.144,483.448,200.235L483.448,200.235z"/>
<path fill="#0DB14B" d="M253.43,429.672c-0.392,1.294-0.648,2.315-0.807,3.013l0,0c2.098-0.112,6.499-1.189,10.325-2.277l0,0
	c3.599-1.015,6.776-2.028,7.504-2.263l0,0c9.511-7.156,11.622-17.487,11.63-25.363l0,0c0-3.118-0.336-5.829-0.672-7.753l0,0
	c-0.119-0.683-0.237-1.263-0.339-1.727l0,0C262.614,405.506,255.732,422.074,253.43,429.672L253.43,429.672z"/>
<path fill="#0DB14B" d="M299,450.391c13.541-0.003,21.295-4.369,23.83-6.085l0,0c-2.52-1.852-7.796-3.518-14.297-4.712l0,0
	c-7.381-1.389-16.385-2.319-25.096-2.939l0,0c-11.302-0.805-22.094-1.088-28.292-1.188l0,0c8.273,3.741,21.038,10.979,22.363,11.722
	l0,0C285.849,449.531,292.995,450.391,299,450.391L299,450.391z"/>
<path fill="#0DB14B" d="M277.285,457.433c16.793,16.132,35.985,37.445,43.018,45.355l0,0l-6.325-23.899
	c-11.279-11.133-54.438-38.706-58.938-41.558l0,0c-1.41-0.897-2.422-1.136-3.108-1.136l0,0c-0.384,0-0.691,0.075-0.935,0.178l0,0
	C254.47,438.633,265.506,446.125,277.285,457.433L277.285,457.433z"/>
<path fill="#0DB14B" d="M295.778,428.5c4.775-0.006,10.507,1.247,16.316,1.864c3.723,0.387,8.443,2.214,12.172,3.958
	c2.189,1.02,4.039,2.003,5.198,2.643c-0.36,0.182-0.805,0.374-1.311,0.543c-2.598,0.934-6.775,1.751-10.676,2.214
	c-2.496-0.786-5.391-1.458-8.58-2.07c-2.571-0.482-5.332-0.907-8.196-1.286c-1.382-0.942-2.67-1.976-3.814-3.002
	c-1.673-1.495-3.047-2.958-3.998-4.042c-0.134-0.153-0.25-0.29-0.367-0.426c0.556-0.112,1.114-0.227,1.672-0.341
	C294.711,428.521,295.236,428.5,295.778,428.5z"/>
<path fill="#0DB14B" d="M68.48,156.064c0,2.089-0.461,5.116-2.024,9.337l0,0c-2.864,7.897-14.016,15.423-19.403,18.559l0,0
	c-0.655,0.386-1.222,0.708-1.678,0.961l0,0l-1.468-11.769c0.037-4.553,2.412-7.282,5.51-9.328l0,0c3.112-2.03,6.857-3.151,9.25-4.23
	l0,0c3.632-1.667,7.563-5.14,9.312-6.776l0,0C68.226,153.467,68.479,154.505,68.48,156.064L68.48,156.064z"/>
<path fill="#0DB14B" d="M34.259,181.771c0.004,5.555-1.422,10.375-1.452,12.582l0,0c0,1.917,0,3.834,0,5.111l0,0
	c-1.221-0.832-2.725-2.468-4.08-4.306l0,0c-1.892-2.502-3.63-5.277-4.962-6.84l0,0c-0.895-1.008-1.449-3.132-1.434-5.186l0,0
	c-0.063-2.441,0.869-4.703,1.539-4.895l0,0c1.595-0.838,3.478-3.017,5.194-5.078l0,0c0.88-1.072,1.67-2.097,2.225-2.832l0,0
	C33.567,173.837,34.259,177.91,34.259,181.771L34.259,181.771z"/>
<path fill="#0DB14B" d="M68.805,191.5c-0.444,0.616-1.149,1.495-2.171,2.518l0,0c-2.047,2.045-5.362,4.665-10.428,6.896l0,0
	c-8.106,3.565-15.946,6.874-18.98,8.147l0,0c0.12-2.979,1.382-10.277,11.979-15.917l0,0c4.782-2.679,9.359-3.615,12.988-3.615l0,0
	c3.313-0.045,5.858,0.868,6.859,1.622l0,0C68.98,191.255,68.898,191.372,68.805,191.5L68.805,191.5z"/>
<path fill="#0DB14B" d="M62.17,213.062c-0.445,0.615-1.149,1.495-2.173,2.518l0,0c-2.045,2.045-5.361,4.665-10.428,6.895l0,0
	c-8.107,3.566-15.947,6.874-18.98,8.147l0,0c0.121-2.979,1.386-10.278,11.984-15.917l0,0c4.778-2.678,9.356-3.616,12.983-3.614l0,0
	c3.314-0.046,5.86,0.868,6.859,1.622l0,0C62.345,212.816,62.263,212.933,62.17,213.062L62.17,213.062z"/>
<path fill="#0DB14B" d="M45.363,240.338c-2.281,2.942-5.365,6.021-8.457,8.799l0,0c-4.431,3.983-8.861,7.345-11.023,8.936l0,0
	c-0.092-1.019-0.135-1.98-0.135-2.887l0,0c0.028-8.783,3.886-12.654,7.154-16.67l0,0c1.501-1.912,5.87-3.55,9.787-4.486l0,0
	c2.627-0.648,5.046-1.045,6.362-1.237l0,0C48.971,234.79,47.57,237.515,45.363,240.338L45.363,240.338z"/>
<path fill="#0DB14B" d="M43.374,266.458c-0.001,1.799-0.408,4.847-2.56,8.678l0,0c-2.704,4.824-8.77,12.143-12.747,15.729l0,0
	c-0.718,0.663-1.396,1.196-1.922,1.553l0,0c-0.223-0.875-0.537-2.167-0.853-3.641l0,0c-0.582-2.713-1.157-6.051-1.153-8.363l0,0
	c-0.002-0.861,0.086-1.576,0.227-1.989l0,0c1.078-3.351,5.156-7.476,8.214-8.97l0,0c3.027-1.539,7.84-4.025,10.74-4.079l0,0
	C43.349,265.657,43.374,266.02,43.374,266.458L43.374,266.458z"/>
<path fill="#0DB14B" d="M47.785,286.094c0.351,0.795,0.711,1.994,0.712,3.593l0,0c0,0.8-0.09,1.702-0.323,2.711l0,0
	c-0.475,2.263-4.412,8.099-8.17,13.053l0,0c-2.523,3.353-4.975,6.402-6.321,8.053l0,0c-0.344-0.896-0.794-2.114-1.245-3.461l0,0
	c-0.931-2.763-1.84-6.12-1.828-8.087l0,0c0-0.192,0.008-0.372,0.023-0.529l0,0c0.383-3.812,2.656-7.685,7.44-10.887l0,0
	c2.431-1.621,4.985-2.949,6.924-3.868l0,0c1.069-0.506,1.945-0.885,2.517-1.124l0,0C47.6,285.701,47.692,285.883,47.785,286.094
	L47.785,286.094z"/>
<path fill="#0DB14B" d="M54.412,309.322c0.628,1.075,1.276,2.744,1.279,5.158l0,0c0,0.147-0.002,0.291-0.008,0.443l0,0
	c-0.027,2.31-2.759,8.797-5.487,14.384l0,0c-1.827,3.778-3.642,7.246-4.642,9.125l0,0c-0.564-0.896-1.33-2.15-2.109-3.539l0,0
	c-1.53-2.696-3.082-5.996-3.22-7.72l0,0c-0.035-0.368-0.053-0.741-0.053-1.119l0,0c0.002-3.509,1.563-7.332,5.244-11.001l0,0
	c2.069-2.06,4.318-3.858,6.045-5.135l0,0c0.952-0.704,1.739-1.246,2.254-1.591l0,0C53.917,308.568,54.163,308.898,54.412,309.322
	L54.412,309.322z"/>
<path fill="#0DB14B" d="M65.21,330.134c0.431,0.661,1.029,2.047,1.625,4.591l0,0c0.339,1.417,0.488,3.635,0.485,6.163l0,0
	c0.002,6.811-1.023,15.895-1.505,19.779l0,0l-9.67-8.955c-0.911-1.695-1.284-3.392-1.285-5.085l0,0
	c-0.052-6.432,5.708-12.959,8.644-15.73l0,0c0.606-0.581,1.078-0.997,1.339-1.221l0,0C64.928,329.753,65.056,329.895,65.21,330.134
	L65.21,330.134z"/>
<path fill="#0DB14B" d="M88.428,349.208c0.432,0.661,1.029,2.047,1.625,4.592l0,0c0.339,1.421,0.49,3.644,0.486,6.177l0,0
	c0.002,6.81-1.021,15.882-1.502,19.764l0,0l-9.669-8.951c-0.912-1.697-1.286-3.393-1.287-5.088l0,0
	c-0.053-6.433,5.708-12.96,8.644-15.732l0,0c0.605-0.58,1.075-0.995,1.337-1.219l0,0C88.148,348.828,88.276,348.969,88.428,349.208
	L88.428,349.208z"/>
<path fill="#0DB14B" d="M106.629,367.091c0.568,0.612,1.397,1.816,2.437,3.956l0,0c1.474,2.986,2.762,9.951,3.598,16.032l0,0
	c0.54,3.875,0.92,7.42,1.125,9.494l0,0l-11.406-6.604c-1.95-2.248-2.667-4.793-2.673-7.463l0,0c-0.024-5.83,3.644-12.1,5.497-14.806
	l0,0c0.354-0.523,0.635-0.91,0.805-1.139l0,0C106.139,366.632,106.35,366.789,106.629,367.091L106.629,367.091z"/>
<path fill="#0DB14B" d="M125.107,385.186c0.541,0.266,1.312,0.674,2.208,1.248l0,0c1.794,1.145,4.087,2.941,6.07,5.521l0,0
	c1.967,2.547,4.252,7.19,5.995,11.147l0,0c0.967,2.192,1.777,4.177,2.307,5.515l0,0l-13.67-3.24
	c-0.036-0.036-0.078-0.08-0.127-0.132l0,0c-0.208-0.226-0.531-0.606-0.949-1.195l0,0c-0.833-1.179-2.048-3.194-3.478-6.46l0,0
	c-0.592-1.356-0.826-2.754-0.826-4.128l0,0c-0.01-3.533,1.591-6.893,2.392-8.309l0,0c0-0.001,0.001-0.002,0.002-0.003l0,0
	C125.057,385.161,125.082,385.173,125.107,385.186L125.107,385.186z"/>
<path fill="#0DB14B" d="M151.273,395.038c1.838,0.992,4.791,2.921,9.105,6.619l0,0c4.276,3.664,8.29,8.29,11.217,11.991l0,0
	c1.456,1.838,2.641,3.443,3.466,4.594l0,0l-11.319-1.714c-12.506-4.344-14.571-12.176-14.631-17.618l0,0
	c-0.001-1.632,0.208-3.036,0.416-4.025l0,0c0.048-0.229,0.095-0.435,0.14-0.614l0,0
	C150.054,394.425,150.585,394.666,151.273,395.038L151.273,395.038z"/>
<path fill="#0DB14B" d="M208.562,425.811c-1.263-0.071-2.986-0.186-4.852-0.365l0,0c-3.733-0.348-8.086-1.004-10.104-1.936l0,0
	c-4.265-1.96-11.053-6.809-11.049-16.489l0,0c0-0.26,0.005-0.525,0.014-0.794l0,0c0.061-0.668,0.087-1.264,0.087-1.798l0,0
	c0.003-0.722-0.045-1.333-0.126-1.851l0,0c1.041,0.464,2.41,1.117,3.976,1.967l0,0c3.56,1.932,8.135,4.883,12.178,8.923l0,0
	C203.801,419.658,206.971,423.725,208.562,425.811L208.562,425.811z"/>
<path fill="#0DB14B" d="M169.863,424.988c-2.83,2.242-6.504,4.527-9.46,4.875l0,0c-1.074,0.135-2.249,0.201-3.495,0.201l0,0
	c-5.583,0.006-12.532-1.368-18.005-3.891l0,0c0.102-0.06,0.208-0.123,0.32-0.188l0,0c1.159-0.672,2.859-1.573,5.001-2.476l0,0
	c4.283-1.803,10.328-3.603,17.347-3.603l0,0c3.767,0,7.814,0.516,12.035,1.829l0,0C172.739,422.565,171.425,423.76,169.863,424.988
	L169.863,424.988z"/>
<path fill="#0DB14B" d="M140.011,412.117c-0.688,0.663-1.748,1.559-3.203,2.458l0,0c-2.913,1.795-7.395,3.611-13.739,3.613l0,0
	c-0.634,0-1.288-0.019-1.96-0.057l0,0c-10.707-0.624-15.704-5.349-17.482-7.526l0,0c1.158-0.272,2.982-0.673,5.25-1.076l0,0
	c4.01-0.713,9.386-1.423,14.796-1.423l0,0c6.18-0.01,12.384,0.949,16.636,3.717l0,0
	C140.218,411.915,140.119,412.013,140.011,412.117L140.011,412.117z"/>
<path fill="#0DB14B" d="M106.305,402.871c-3.337,1.447-7.592,2.866-11.032,2.856l0,0c-0.429,0-0.846-0.022-1.248-0.065l0,0
	c-7.06-0.75-15.97-3.937-19.231-9.656l0,0c0.231-0.205,0.595-0.476,1.14-0.757l0,0c1.277-0.658,3.571-1.38,7.498-1.38l0,0
	c2.292,0,5.137,0.247,8.646,0.895l0,0c7.89,1.45,12.481,2.083,15.194,2.877l0,0c2.338,0.73,3.159,1.31,3.993,2.805l0,0
	C110.286,400.983,108.494,401.927,106.305,402.871L106.305,402.871z"/>
<path fill="#0DB14B" d="M81.407,383.693c-2.559,0.409-5.819,0.818-8.638,0.816l0,0c-5.564,0.003-11.195-2.002-15.585-5.2l0,0
	c-2.137-1.549-4.174-3.972-5.641-6l0,0c-0.596-0.821-1.098-1.573-1.486-2.177l0,0c3.823,0.024,13.237,0.448,19.404,3.243l0,0
	c6.858,3.082,11.696,6.46,14.485,8.876l0,0C83.243,383.383,82.375,383.538,81.407,383.693L81.407,383.693z"/>
<path fill="#0DB14B" d="M60.836,365.999c-2.068,0.271-4.837,0.543-7.66,0.543l0,0c-2.822,0.002-5.684-0.28-7.857-1.05l0,0
	c-6.439-2.282-11.45-7.413-15.107-16.827l0,0c0.121-0.002,0.25-0.004,0.388-0.004l0,0c2.889,0.001,9.17,0.625,15.902,5.308l0,0
	c8.421,5.819,13.912,8.871,16.298,11.742l0,0C62.261,365.798,61.596,365.899,60.836,365.999L60.836,365.999z"/>
<path fill="#0DB14B" d="M43.616,343.537c-5.51,0.042-17.295-0.806-22.393-6.007l0,0c-6.591-6.653-6.754-11.579-7.399-15.413l0,0
	c0.05,0,0.102-0.001,0.155-0.001l0,0c1.937,0.005,6.154,0.557,11.307,4.849l0,0c6.511,5.42,14.962,12.473,19.118,16.567l0,0
	C44.158,343.536,43.895,343.537,43.616,343.537L43.616,343.537z"/>
<path fill="#0DB14B" d="M6.027,291.57c1.716,0.676,4.113,1.81,6.791,3.63l0,0c5.118,3.479,11.267,9.445,15.719,19.57l0,0
	c-0.438-0.032-0.958-0.076-1.546-0.138l0,0c-1.896-0.197-4.469-0.568-7.154-1.251l0,0c-5.399-1.358-11.088-4.031-12.912-8.704l0,0
	c-2.141-5.081-2.504-10.029-2.501-12.739l0,0c0-0.354,0.005-0.668,0.014-0.938l0,0C4.864,291.135,5.4,291.323,6.027,291.57
	L6.027,291.57z"/>
<path fill="#0DB14B" d="M10.728,265.813c3.017,3.903,6.753,10.589,10.842,21.593l0,0c-0.258-0.023-0.548-0.053-0.865-0.091l0,0
	c-1.447-0.175-3.448-0.528-5.626-1.23l0,0c-4.358-1.405-9.367-4.17-12.315-9.645l0,0c-0.545-1.324-0.791-3.192-0.787-5.168l0,0
	c-0.001-2.264,0.306-4.67,0.718-6.625l0,0c0.386-1.931,0.982-3.521,1.206-3.771l0,0c0.008,0.006,0-0.002,0.052-0.025l0,0
	c0.06-0.025,0.177-0.057,0.356-0.057l0,0c0.016-0.001,0.034-0.001,0.052-0.001l0,0C5.295,260.792,7.654,261.802,10.728,265.813
	L10.728,265.813z"/>
<path fill="#0DB14B" d="M16.028,232.812c1.291,1.587,2.771,3.868,3.545,6.593l0,0c0.956,3.324,1.79,8.758,1.787,14.104l0,0
	c0.001,3.153-0.289,6.284-0.983,8.932l0,0c-0.269-0.19-0.582-0.416-0.93-0.677l0,0c-1.23-0.919-2.882-2.254-4.551-3.897l0,0
	c-3.34-3.277-6.684-7.79-7.064-12.549l0,0c0.001-2.404,0.233-3.867,0.483-4.695l0,0c0.171-0.569,0.327-0.816,0.411-0.917l0,0h0.318
	l5.461-8.581C14.92,231.535,15.454,232.105,16.028,232.812L16.028,232.812z"/>
<path fill="#0DB14B" d="M16.552,200.235c0.555,0.304,1.333,0.833,2.162,1.733l0,0c1.652,1.797,3.539,5.088,4.148,11.144l0,0
	c0.529,5.288,0.68,9.591,0.68,12.78l0,0c0,2.251-0.074,3.935-0.144,5.022l0,0c-0.283-0.161-0.605-0.35-0.961-0.567l0,0
	c-1.366-0.831-3.191-2.055-5.006-3.602l0,0c-3.647-3.103-7.14-7.468-7.12-12.463l0,0c0-0.133,0.002-0.27,0.007-0.405l0,0
	c0.345-9.031,4.528-12.864,5.799-13.857l0,0C16.239,200.074,16.385,200.144,16.552,200.235L16.552,200.235z"/>
<path fill="#0DB14B" d="M246.571,429.672c0.392,1.294,0.648,2.315,0.807,3.013l0,0c-2.098-0.112-6.499-1.189-10.325-2.277l0,0
	c-3.599-1.015-6.776-2.028-7.504-2.263l0,0c-9.511-7.156-11.622-17.487-11.63-25.363l0,0c0-3.118,0.336-5.829,0.672-7.753l0,0
	c0.119-0.683,0.237-1.263,0.339-1.727l0,0C237.386,405.506,244.269,422.074,246.571,429.672L246.571,429.672z"/>
<path fill="#0DB14B" d="M201,450.391c-13.541-0.003-21.295-4.369-23.83-6.085l0,0c2.52-1.852,7.796-3.518,14.297-4.712l0,0
	c7.381-1.389,16.385-2.319,25.096-2.939l0,0c11.302-0.805,22.094-1.088,28.292-1.188l0,0c-8.273,3.741-21.038,10.979-22.363,11.722
	l0,0C214.152,449.531,207.005,450.391,201,450.391L201,450.391z"/>
<path fill="#0DB14B" d="M222.715,457.433c-16.793,16.132-35.985,37.445-43.018,45.355l0,0l6.325-23.899
	c11.279-11.133,54.438-38.706,58.938-41.558l0,0c1.41-0.897,2.422-1.136,3.108-1.136l0,0c0.384,0,0.691,0.075,0.935,0.178l0,0
	C245.53,438.633,234.495,446.125,222.715,457.433L222.715,457.433z"/>
<path fill="#0DB14B" d="M204.222,428.5c-4.775-0.006-10.507,1.247-16.316,1.864c-3.723,0.387-8.443,2.214-12.172,3.958
	c-2.189,1.02-4.039,2.003-5.198,2.643c0.36,0.182,0.805,0.374,1.31,0.543c2.599,0.934,6.775,1.751,10.677,2.214
	c2.496-0.786,5.391-1.458,8.58-2.07c2.571-0.482,5.332-0.907,8.196-1.286c1.382-0.942,2.67-1.976,3.814-3.002
	c1.673-1.495,3.047-2.958,3.998-4.042c0.134-0.153,0.25-0.29,0.367-0.426c-0.556-0.112-1.114-0.227-1.672-0.341
	C205.289,428.521,204.765,428.5,204.222,428.5z"/>
<path fill="#E9C103" d="M79.991,197.192c1.149-2.112,2.892-4.971,5.002-8.831c6.4-11.662,15.715-31.782,15.692-55.177
	c0-3.214-0.173-6.491-0.551-9.82l-0.009-0.068c-0.781-7.246-1.639-16.257-3.917-24.658c-2.268-8.432-5.923-15.966-11.652-20.786
	l-3.574-3.03L112.689,0l5.255,1.276c0.002,0.001,0.526,0.129,1.599,0.371c7.498,1.702,40.406,8.617,74.196,8.603
	c19.294,0.021,38.843-2.299,53.778-8.65l2.483-1.05l2.481,1.05c14.935,6.351,34.485,8.671,53.779,8.65
	c19.299,0.002,38.336-2.243,52.486-4.498c7.077-1.126,12.936-2.252,17.009-3.093c2.037-0.421,3.627-0.77,4.701-1.012
	c1.073-0.242,1.597-0.371,1.599-0.371l5.256-1.275l31.707,74.823l-3.574,3.03c-5.729,4.82-9.386,12.354-11.652,20.786
	c-2.279,8.401-3.137,17.412-3.918,24.658c-0.384,3.374-0.557,6.663-0.557,9.887c-0.006,15.599,4.109,29.733,8.773,40.889
	c2.331,5.576,4.789,10.396,6.917,14.289c2.105,3.85,3.844,6.703,4.993,8.815c8.879,15.266,12.331,29.439,12.319,41.926
	c-0.021,28.862-18.032,47.669-23.416,53.751l-0.067,0.076l-0.061,0.063c-63.362,66.724-156.425,95.406-156.886,95.625l-1.889,0.587
	l-1.891-0.587c-0.461-0.22-93.524-28.902-156.886-95.625l-0.056-0.059l-0.073-0.081c-5.382-6.081-23.394-24.889-23.415-53.751
	C67.669,226.621,71.119,212.451,79.991,197.192z"/>
<path fill="#004A8F" d="M95.134,196.341c-1.8,3.213-3.275,5.675-3.977,6.987l-0.056,0.103l-0.046,0.079
	c-7.91,13.621-10.624,25.418-10.635,35.594c-0.021,23.215,14.525,38.988,20.087,45.167c54.161,57.277,133.758,86.304,148.859,91.362
	V196.341H95.134z"/>
<path fill="#FFFFFF" d="M249.367,71.452H96.248c6.394,6.905,9.988,15.511,12.258,23.861c2.638,9.777,3.504,19.498,4.282,26.575
	c0.437,3.842,0.636,7.612,0.636,11.296c-0.022,26.771-10.443,48.806-17.254,61.291c-0.115,0.21-0.226,0.407-0.338,0.612h153.536
	V71.452z"/>
<path fill="#ED1C24" d="M391.498,95.313c2.27-8.35,5.864-16.956,12.257-23.861H250.62v123.636h153.552
	c-0.113-0.205-0.223-0.401-0.338-0.611c-2.273-4.157-4.944-9.387-7.495-15.491c-5.098-12.207-9.755-27.956-9.76-45.801
	c0-3.676,0.197-7.44,0.634-11.274C387.994,114.804,388.861,105.087,391.498,95.313z"/>
<path fill="#FFFFFF" d="M250.62,375.63c0.421-0.143,0.875-0.296,1.396-0.476c2.58-0.889,6.358-2.24,11.093-4.065
	c9.47-3.649,22.769-9.202,37.963-16.761c30.383-15.102,68.318-38.271,98.424-70.06c5.563-6.179,20.106-21.951,20.086-45.165
	c-0.013-10.175-2.726-21.973-10.635-35.594l-0.049-0.085l-0.052-0.097c-0.703-1.311-2.178-3.773-3.979-6.987H250.62V375.63z"/>
<path d="M250.62,71.452h153.135c0,0,0,0,0.001-0.001l-23.992-56.617c-11.842,2.506-41.908,8.14-73.502,8.154
	c-19.331-0.02-39.268-2.071-56.261-8.653c-16.995,6.582-36.931,8.633-56.261,8.653c-31.592-0.015-61.658-5.649-73.5-8.154
	L96.248,71.452h153.119v123.636H95.831c-0.237,0.429-0.469,0.848-0.696,1.253h154.232v179.292c0.222,0.074,0.434,0.144,0.627,0.208
	c0.189-0.063,0.41-0.138,0.626-0.21v-179.29h154.248c-0.227-0.405-0.46-0.824-0.696-1.253H250.62V71.452z"/>
<path fill="#E9C103" d="M139.352,62.516c1.413-0.048,2.417-0.241,3.012-0.578c0.917-0.515,1.375-1.479,1.375-2.895V35.147
	c0-1.431-0.45-2.395-1.351-2.893c-0.546-0.306-1.558-0.506-3.036-0.603v-1.261h27.959v9.979h-1.262
	c-0.608-3.084-1.631-5.244-3.07-6.479c-1.438-1.236-4.091-1.855-7.961-1.855c-1.437,0-2.353,0.167-2.744,0.497
	c-0.393,0.33-0.588,0.947-0.588,1.85v11.469c2.656,0.048,4.452-0.505,5.387-1.658c0.935-1.155,1.644-2.994,2.124-5.523h1.26V55.17
	h-1.26c-0.335-2.653-1.012-4.584-2.028-5.8c-1.016-1.213-2.844-1.822-5.483-1.822v11.498c0,1.525,0.446,2.494,1.339,2.903
	c0.892,0.41,2.254,0.598,4.088,0.567v1.26h-17.762V62.516z"/>
<path fill="#E9C103" d="M169.521,63.776v-1.26c1.415-0.048,2.417-0.241,3.012-0.577c0.917-0.51,1.374-1.471,1.374-2.876V35.104
	c0-1.43-0.474-2.39-1.422-2.883c-0.546-0.301-1.533-0.491-2.963-0.571v-1.261h28.453v9.979h-1.262
	c-0.625-3.198-1.687-5.386-3.183-6.565c-1.501-1.178-4.229-1.769-8.189-1.769c-1.505,0-2.464,0.157-2.873,0.471
	c-0.408,0.313-0.611,0.935-0.611,1.869v11.421c2.813,0.033,4.715-0.47,5.715-1.504c0.996-1.035,1.76-2.928,2.288-5.677h1.262v16.502
	h-1.262c-0.353-2.796-1.073-4.765-2.157-5.907c-1.084-1.142-3.033-1.714-5.846-1.714v11.986c0,1.048,0.269,1.762,0.808,2.14
	c0.541,0.377,1.646,0.568,3.321,0.568c3.151,0,5.725-0.608,7.721-1.824c1.996-1.215,3.763-3.495,5.308-6.839h1.372l-2.03,10.252
	H169.521z"/>
<path fill="#E9C103" d="M202.354,62.516c1.652-0.112,2.759-0.454,3.323-1.021c0.563-0.57,0.845-1.728,0.845-3.476V36.146
	c0-1.849-0.286-3.016-0.858-3.503c-0.573-0.486-1.675-0.817-3.309-0.993v-1.261h15.915c4.218,0,7.429,0.683,9.624,2.046
	c2.2,1.365,3.297,3.708,3.297,7.03c0,1.621-0.43,3.141-1.287,4.561c-0.86,1.421-2.278,2.564-4.254,3.43
	c-1.492,0.609-2.985,0.969-4.479,1.079c-1.493,0.109-3.708,0.164-6.645,0.164v9.319c0,1.812,0.298,2.998,0.903,3.56
	c0.602,0.56,1.725,0.874,3.371,0.938v1.26h-16.446V62.516z M220.411,46.091c1.559-1.004,2.338-3.165,2.338-6.482
	c0-2.266-0.378-4.095-1.134-5.487c-0.752-1.391-2.205-2.089-4.339-2.089c-0.982,0-1.686,0.118-2.113,0.352
	c-0.424,0.236-0.636,0.694-0.636,1.372v13.354C217.466,47.063,219.427,46.722,220.411,46.091z"/>
<path fill="#E9C103" d="M229.047,62.516c1.192-0.081,2.149-0.623,2.875-1.627c0.461-0.631,1.131-2.022,2-4.177l10.965-27.036h1.401
	l11.037,25.944c1.237,2.929,2.165,4.818,2.776,5.669c0.612,0.849,1.48,1.257,2.607,1.226v1.26h-16.009v-1.26
	c1.619-0.067,2.68-0.205,3.186-0.415c0.509-0.21,0.764-0.746,0.764-1.604c0-0.389-0.129-0.979-0.386-1.774
	c-0.164-0.47-0.386-1.035-0.664-1.698l-1.279-3.006h-11.108c-0.718,1.975-1.181,3.26-1.387,3.86
	c-0.436,1.279-0.652,2.209-0.652,2.792c0,0.713,0.477,1.23,1.424,1.553c0.565,0.18,1.409,0.275,2.537,0.292v1.26h-10.087V62.516z
	 M247.598,52.045l-4.729-11.404h-0.411l-4.503,11.404H247.598z"/>
<path fill="#E9C103" d="M264.661,62.516c1.412-0.048,2.419-0.241,3.014-0.578c0.915-0.515,1.374-1.479,1.374-2.895V35.147
	c0-1.431-0.452-2.395-1.349-2.893c-0.546-0.306-1.561-0.506-3.039-0.603v-1.261h27.959v9.979h-1.262
	c-0.607-3.084-1.628-5.244-3.069-6.479c-1.439-1.236-4.092-1.855-7.961-1.855c-1.439,0-2.354,0.167-2.744,0.497
	c-0.394,0.33-0.588,0.947-0.588,1.85v11.469c2.657,0.048,4.451-0.505,5.389-1.658c0.932-1.155,1.642-2.994,2.123-5.523h1.262V55.17
	h-1.262c-0.336-2.653-1.011-4.584-2.03-5.8c-1.015-1.213-2.839-1.822-5.481-1.822v11.498c0,1.525,0.443,2.494,1.339,2.903
	c0.892,0.41,2.255,0.598,4.088,0.567v1.26h-17.762V62.516z"/>
<path fill="#E9C103" d="M311.496,30.389v1.261c-1.921,0.064-3.207,0.358-3.853,0.886c-0.648,0.525-0.973,1.729-0.973,3.61v16.56
	c0,2.513,0.299,4.456,0.894,5.825c1.08,2.547,3.143,3.819,6.201,3.819c3.797,0,6.359-1.408,7.692-4.223
	c0.741-1.544,1.111-3.707,1.111-6.492V36.53c0-1.772-0.326-2.992-0.98-3.66c-0.654-0.668-1.936-1.073-3.843-1.22v-1.261h10.911
	v1.261c-1.582,0.305-2.624,0.679-3.131,1.12c-0.507,0.442-0.762,1.458-0.762,3.046v15.799c0,4.196-1.017,7.439-3.042,9.721
	c-2.026,2.284-5.215,3.425-9.559,3.425c-5.682,0-9.572-1.698-11.663-5.096c-1.111-1.802-1.666-4.129-1.666-6.978V36.146
	c0-1.849-0.247-3.014-0.735-3.49c-0.494-0.479-1.602-0.813-3.323-1.005v-1.261H311.496z"/>
<path fill="#E9C103" d="M330.987,30.389h29.615l0.048,9.979h-1.424c-0.463-3.573-1.791-5.988-3.977-7.249
	c-1.229-0.695-3.066-1.075-5.509-1.139v26.028c0,1.82,0.32,3.027,0.956,3.621c0.636,0.597,1.966,0.895,3.978,0.895v1.253h-17.652
	v-1.253c1.94,0,3.228-0.302,3.866-0.906c0.639-0.604,0.959-1.806,0.959-3.61V31.979c-2.396,0.065-4.231,0.445-5.509,1.139
	c-2.346,1.294-3.673,3.708-3.975,7.249h-1.427L330.987,30.389z"/>
<polygon fill="#004A8F" points="172.598,95.698 181.923,124.4 212.103,124.4 187.69,142.138 197.013,170.842 172.598,153.102 
	148.184,170.842 157.509,142.138 133.095,124.4 163.273,124.4 "/>
<polygon fill="#ED1C24" points="327.407,220.588 336.73,249.289 366.908,249.289 342.493,267.029 351.822,295.729 327.407,277.991 
	302.988,295.729 312.315,267.029 287.897,249.289 318.08,249.289 "/>
<path d="M332.676,205.912c-1.711-82.704-73.619-85.091-81.81-85.091c-25.209,0-46.45,8.405-61.431,24.306
	c-14.871,15.783-23.103,38.419-22.02,60.567c1.694,31.042,16.095,49.899,27.875,60.252c14.067,12.36,32.354,19.718,50.174,20.184
	c23.695,0.787,44.708-7.251,60.736-23.247C325.929,243.198,332.911,217.491,332.676,205.912z"/>
<path fill="#FFFFFF" d="M197.436,249.936c-1.072-8.178,1.808-21.563,3.321-27.766c5.514-1.317,16.292-5.761,21.416-7.937
	c5.661,7.367,22.014,16.245,26.376,18.533c0.309,4.829,0.797,17.66-1.984,25.606c-4.533,2.613-13.3,7.361-20.917,9.698
	C206.952,261.416,199.866,253.6,197.436,249.936z"/>
<path fill="#FFFFFF" d="M236.748,137.182c8.751-1.048,20.507-0.791,25.927-0.59c4.844,6.213,12.263,18.094,15.223,22.905
	c-1.964,3.581-6.853,12.078-10.716,15.39c-11.055-2.091-27.703-0.625-32.319-0.153l-13.186-19.496
	C224.529,147.369,231.97,140.781,236.748,137.182z"/>
<path fill="#FFFFFF" d="M195.485,163.894c6.894-2.935,16.329-4.683,21.549-5.489l13.845,20.812
	c-8.417,14.19-9.673,25.447-9.713,30.651c-8.035,3.517-18.027,6.146-22.334,7.201c-6.87-4.915-11.646-13.034-14.329-18.636
	C185.533,178.886,192.613,167.676,195.485,163.894z"/>
<path fill="#FFFFFF" d="M273.742,266.693c-5.956-0.986-15.931-3.405-22.861-9.068c1.453-5.222,3.446-15.036,1.732-25.377
	c8.164-3.683,20.076-13.892,24.867-18.153c8.884,2.969,20.325,6.658,24.394,7.966c0.167,6.831,0.248,21.457-1.801,28.316
	C295.844,255.573,286.478,265.124,273.742,266.693z"/>
<path fill="#FFFFFF" d="M304.494,216.569c-13.17-1.776-21.758-6.271-24.846-8.125c-0.891-8.675-6.739-26.011-8.547-31.221
	c2.937-3.698,8.778-11.202,11.591-15.812c10.478-0.094,19.047,4.046,23.1,6.431c2.269,3.453,6.707,11.758,11.393,28.991
	C315.051,202.098,310.576,211.626,304.494,216.569z"/>
<path fill="#FFFFFF" d="M320.847,195.487c-1.175-6.986-4.305-21.167-11.498-31.771c0.736-3.159,1.711-6.602,2.444-9.072
	c8.465,11.186,14.622,26.743,15.565,48.365C325.62,200.895,323.252,198.094,320.847,195.487z"/>
<path fill="#FFFFFF" d="M270.977,128.746l-8.068,3.835c-10.118-1.766-20.962-1.247-26.456-0.79l-6.557-3.507
	c6.578-1.489,13.587-2.249,20.964-2.249C253.2,126.036,261.095,126.249,270.977,128.746z"/>
<path fill="#FFFFFF" d="M186.877,156.492l2.715,7.484c-5.809,12.396-9.634,26.671-10.903,31.766
	c-2.769,3.437-4.725,7.21-6.034,10.316c-0.014-0.219-0.032-0.433-0.044-0.653C171.941,191.695,175.526,172.616,186.877,156.492z"/>
<path fill="#FFFFFF" d="M189.318,252.08l4.047,0.152c11.232,13.799,22.901,18.53,27.526,19.947c0.773,1.358,1.67,2.985,2.34,4.362
	c-8.876-3.238-17.295-8.173-24.528-14.532C195.661,259.335,192.433,256.048,189.318,252.08z"/>
<path fill="#FFFFFF" d="M302.536,259.172c-7.159,7.146-15.203,12.527-24.056,16.166l0.159-4.314
	c4.614-0.551,14.546-3.782,25.686-20.042c1.807-0.343,3.815-0.526,5.526-0.187C307.636,253.694,305.202,256.509,302.536,259.172z"/>
</svg>
