<?xml version="1.0" encoding="UTF-8"?>
<svg width="177.09" height="168.43" version="1.1" viewBox="0 0 177.09 168.43" xmlns="http://www.w3.org/2000/svg">
 <defs>
  <clipPath id="a">
   <path d="M 0,928.346 H 1468.346 V 0 H 0 Z"/>
  </clipPath>
 </defs>
 <g transform="translate(-17.286 -60.84)">
  <g transform="matrix(.35278 0 0 -.35278 105.83 229.27)">
   <path d="m0 0 251 182.36-95.873 295.07h-310.25l-95.873-295.07z" fill="#fff"/>
  </g>
  <g transform="matrix(.35278 0 0 -.35278 -153.17 305.28)">
   <g clip-path="url(#a)">
    <g transform="translate(794.67 426.91)">
     <path d="m0 0v43.969h18.171v18.808h-18.171v23.332h19.083v18.805h-40.644v-104.91zm-63.705 86.412h5.561c2.817 0 4.676-1.284 5.247-3.727l-0.035-19.527-0.036-0.086c-0.925-2.222-2.718-3.348-5.33-3.348h-5.407zm31.608-86.412 0.03 16.326-7.965 29.52 0.564 0.391c3.238 2.252 5.626 4.86 6.911 7.546l0.05 39.107c-3.861 7.894-13.576 12.024-21.211 12.024h-31.543v-104.91h21.556v41.374h4.06l8.856-41.374zm-104.5 0v104.91h40.648v-18.805h-19.087v-23.332h18.17v-18.808h-18.17v-43.969z"/>
    </g>
    <g transform="translate(859.94 440.66)">
     <path d="m0 0-74.419-54.068 71.191-52.607 102.45 74.433-85.936 264.5h-55.693l-24.111-84.406h18.48z" fill="#ff2317"/>
    </g>
    <g transform="translate(773.44 377.81)">
     <path d="m0 0-39.266-28.527-39.265 28.527-42.136-73.716 81.401-59.139 81.401 59.139z" fill="#ffc400"/>
    </g>
    <g transform="translate(775.07 588.51)">
     <path d="m0 0-5.991 70.331 4.83 14.075h-73.095l-17.895-42.203h26.028l-17.376-42.203zm-163.43-254.52-102.45 74.434 85.936 264.5h55.693l24.112-84.406h-18.481l-48.037-147.85 74.419-54.068z" fill="#004f93"/>
    </g>
   </g>
  </g>
 </g>
</svg>
