<?xml version="1.0" encoding="UTF-8" standalone="no"?>
<!-- Created with Inkscape (http://www.inkscape.org/) -->

<svg
   xmlns:dc="http://purl.org/dc/elements/1.1/"
   xmlns:cc="http://creativecommons.org/ns#"
   xmlns:rdf="http://www.w3.org/1999/02/22-rdf-syntax-ns#"
   xmlns:svg="http://www.w3.org/2000/svg"
   xmlns="http://www.w3.org/2000/svg"
   xmlns:sodipodi="http://sodipodi.sourceforge.net/DTD/sodipodi-0.dtd"
   xmlns:inkscape="http://www.inkscape.org/namespaces/inkscape"
   width="123.60161"
   height="144.89581"
   viewBox="0 0 32.702925 38.337018"
   version="1.1"
   id="svg8"
   sodipodi:docname="russia team.svg"
   inkscape:version="0.92.3 (2405546, 2018-03-11)">
  <defs
     id="defs2" />
  <sodipodi:namedview
     id="base"
     pagecolor="#00ffff"
     bordercolor="#666666"
     borderopacity="1.0"
     inkscape:pageopacity="0"
     inkscape:pageshadow="2"
     inkscape:zoom="1.4"
     inkscape:cx="-134.57996"
     inkscape:cy="158.71347"
     inkscape:document-units="mm"
     inkscape:current-layer="layer1"
     showgrid="false"
     fit-margin-left="0.2"
     fit-margin-top="0.2"
     fit-margin-right="0.2"
     fit-margin-bottom="0.2"
     units="px"
     inkscape:window-width="1920"
     inkscape:window-height="1017"
     inkscape:window-x="-8"
     inkscape:window-y="-8"
     inkscape:window-maximized="1" />
  <metadata
     id="metadata5">
    <rdf:RDF>
      <cc:Work
         rdf:about="">
        <dc:format>image/svg+xml</dc:format>
        <dc:type
           rdf:resource="http://purl.org/dc/dcmitype/StillImage" />
        <dc:title></dc:title>
      </cc:Work>
    </rdf:RDF>
  </metadata>
  <g
     inkscape:label="Layer 1"
     inkscape:groupmode="layer"
     id="layer1"
     transform="translate(-62.611543,-89.090081)">
    <g
       id="g10"
       transform="matrix(0.22999105,0,0,-0.22999105,62.66446,127.37418)">
      <g
         id="g12"
         transform="scale(0.1)">
        <path
           d="m 647.637,443.52 -2.903,-3.731 c -17.91,-25.18 -42,-68.168 -57.722,-101.18 l -94.004,-0.929 c -19.973,26.851 -45.266,66.851 -50.086,100.582 12.168,36.539 40.855,84.648 67.254,102.968 17.695,4.79 62.031,4.692 97.258,1.7 7.086,-28.18 27.273,-71.059 40.203,-99.41 z m 62.773,-8.641 c 15.36,-0.02 30.281,-0.129 49.199,-0.391 19.844,-27.277 43.77,-71.636 58.829,-102.09 l -1.583,-3.007 c -1.843,-3.782 -3.73,-7.551 -5.671,-11.27 -14.309,-27.281 -31.653,-52.711 -54.946,-73.16 -15.437,-3.09 -30.41,-4.531 -45.828,-4.492 -15.383,-0.039 -30.476,1.402 -45.937,4.492 -23.282,20.449 -40.664,45.879 -54.942,73.16 -1.933,3.719 -3.828,7.488 -5.683,11.27 l -1.582,3.007 c 15.047,30.454 38.984,74.813 58.847,102.09 18.907,0.262 33.985,0.371 49.297,0.391 z m -304.59,-0.449 26.133,-0.41 c 6.231,-39.18 29.793,-79.411 52.051,-111.641 -10.164,-34.797 -8.184,-57.848 9.504,-90.09 -5.461,-0.828 -25.012,-2.969 -37.629,-1.391 -19.141,28.493 -33.594,60.102 -42.305,94.184 l -0.898,3.609 -1.004,4.239 -0.996,4.468 -0.617,3.133 -0.75,3.809 -0.493,2.73 -0.476,2.68 -0.371,2.121 -0.41,2.68 -0.286,1.988 -0.593,4.121 -0.496,4.219 -0.332,2.973 -0.579,5.57 -0.312,4.18 -0.43,6.289 -0.129,2.179 -0.254,6.86 -0.132,8.359 c 0,11.191 0.625,22.25 1.804,33.141 z M 965.281,230.961 c -12.586,-1.699 -32.515,0.5 -38.074,1.328 17.688,32.242 19.668,55.293 9.512,90.09 22.246,32.23 45.832,72.461 52.019,111.641 l 26.152,0.41 c 1.17,-10.891 1.9,-21.95 1.9,-33.141 0,-34.039 -5.57,-66.738 -15.77,-97.328 l -0.78,-2.281 -0.845,-2.399 -1.497,-4.121 -1.414,-3.769 -1.269,-3.27 -0.84,-2.101 -1.367,-3.34 -1.477,-3.379 -0.965,-2.27 -0.949,-2.07 C 983.621,261.68 976.785,248.949 969.07,236.762 Z M 773.066,443.52 c 12.95,28.351 33.133,71.23 40.196,99.41 35.273,2.992 79.59,3.09 97.265,-1.7 26.399,-18.32 55.098,-66.429 67.278,-102.968 -4.836,-33.731 -30.137,-73.731 -50.102,-100.582 l -94.012,0.929 c -15.73,33.012 -39.824,76 -57.722,101.18 l -2.903,3.731"
           style="fill:#1574c4;fill-opacity:1;fill-rule:nonzero;stroke:none"
           id="path14"
           inkscape:connector-curvature="0" />
        <path
           d="m 710.41,608.629 c 19.348,-6.68 64.199,-40.129 87.293,-58.32 -6.25,-29.258 -25.457,-70.02 -39.109,-99.547 h -9.895 c -14.011,0.238 -25.984,0.347 -38.289,0.386 -12.285,-0.039 -24.375,-0.148 -38.418,-0.386 h -9.902 c -13.633,29.527 -32.832,70.289 -39.063,99.547 23.059,18.191 68.047,51.64 87.383,58.32 z"
           style="fill:none;stroke:#1574c4;stroke-width:5;stroke-linecap:butt;stroke-linejoin:miter;stroke-miterlimit:4;stroke-dasharray:none;stroke-opacity:1"
           id="path16"
           inkscape:connector-curvature="0" />
        <path
           d="m 919.746,625 c 0.692,-11.539 -2.566,-49.359 -6.836,-67.949 -28.047,5.531 -78.738,3.91 -101.621,2.789 -26.152,21.512 -71.902,53.48 -92.988,60.512 v 79.98 c 17.179,0.527 68.496,-0.254 118.742,-21.758 C 867.605,664.668 895.52,647.68 919.746,625 Z"
           style="fill:none;stroke:#1574c4;stroke-width:5;stroke-linecap:butt;stroke-linejoin:miter;stroke-miterlimit:4;stroke-dasharray:none;stroke-opacity:1"
           id="path18"
           inkscape:connector-curvature="0" />
        <path
           d="m 500.957,625 c -0.691,-11.539 2.559,-49.359 6.824,-67.949 28.047,5.531 78.762,3.91 101.621,2.789 26.172,21.512 71.899,53.48 93.008,60.512 v 79.98 C 685.227,700.859 633.895,700.078 583.66,678.574 553.098,664.668 525.203,647.68 500.957,625 Z"
           style="fill:none;stroke:#1574c4;stroke-width:5;stroke-linecap:butt;stroke-linejoin:miter;stroke-miterlimit:4;stroke-dasharray:none;stroke-opacity:1"
           id="path20"
           inkscape:connector-curvature="0" />
        <path
           d="m 989.934,526.859 c 11.506,-25.668 19.576,-53.187 23.636,-81.98 l -26.363,-1.789 c -11.926,35.09 -32.352,83.75 -63.098,108.301 4.25,15.558 8.371,47.089 7.786,61.578 23.886,-24.981 43.574,-53.949 58.039,-86.11 z"
           style="fill:none;stroke:#1574c4;stroke-width:5;stroke-linecap:butt;stroke-linejoin:miter;stroke-miterlimit:4;stroke-dasharray:none;stroke-opacity:1"
           id="path22"
           inkscape:connector-curvature="0" />
        <path
           d="m 488.809,612.809 c -0.539,-14.547 3.554,-45.918 7.8,-61.418 C 465.859,526.84 445.41,478.18 433.484,443.09 l -26.375,1.789 c 9.239,64.691 38.684,122.871 81.7,167.93 z"
           style="fill:none;stroke:#1574c4;stroke-width:5;stroke-linecap:butt;stroke-linejoin:miter;stroke-miterlimit:4;stroke-dasharray:none;stroke-opacity:1"
           id="path24"
           inkscape:connector-curvature="0" />
        <path
           d="m 599.465,174.039 3.926,2.332 c 11.355,9.609 31.394,30.68 47.41,58.688 -21.153,18.793 -44.231,50.492 -62.449,88.773 -31.692,-1.863 -71.797,-2.031 -92.872,-2.031 -11.585,-37.129 -6.625,-60.961 12,-90.731 20.879,-29.718 60.645,-47.5 91.985,-57.031 z m -103.442,50.652 c 0,0 -21.199,-2.562 -33.32,-3.562 l 1.848,-2.59 1.887,-2.539 1.746,-2.309 1.789,-2.261 1.582,-2.02 c 43.113,-53.609 103.894,-92.379 173.511,-107.519 -19.937,21.23 -39.441,44.539 -47.976,58.578 -33.567,10.801 -79.246,32.972 -101.067,64.222 z m 321.301,-48.32 3.926,-2.332 c 31.34,9.531 71.105,27.313 91.992,57.031 18.606,29.77 23.555,53.602 11.961,90.731 -21.055,0 -61.16,0.168 -92.84,2.031 -18.215,-38.281 -41.3,-69.98 -62.422,-88.773 15.997,-28.008 35.997,-49.079 47.383,-58.688 z m 107.356,48.32 c -21.809,-31.25 -67.524,-53.421 -101.086,-64.222 -8.504,-14.039 -28.02,-37.348 -47.949,-58.578 69.628,15.14 130.371,53.91 173.515,107.519 l 1.57,2.02 1.79,2.261 1.757,2.309 1.883,2.539 1.848,2.59 c -12.11,1 -33.328,3.562 -33.328,3.562 z m -169.59,3.45 C 740.051,225.41 733.059,225 710.41,224.18 c -22.605,0.82 -29.726,1.23 -44.797,3.961 -17.008,-27.981 -34.285,-46.301 -54.07,-64.469 7.578,-15.332 35.977,-49.301 49.109,-64.7423 16.203,-2.6406 32.805,-4.0078 49.758,-4.0078 16.895,0 33.457,1.3476 49.629,3.9883 13.125,15.4298 41.563,49.4298 49.149,64.7618 -19.977,19.199 -38.641,39.238 -54.098,64.469"
           style="fill:#ee2722;fill-opacity:1;fill-rule:nonzero;stroke:none"
           id="path26"
           inkscape:connector-curvature="0" />
        <path
           d="m 1022.31,245.02 10.59,22.691 6.45,-3 -0.98,-2.07 c -0.57,-1.211 -0.82,-2.051 -0.78,-2.559 0.02,-0.473 0.21,-0.922 0.58,-1.332 0.37,-0.391 1.2,-0.898 2.48,-1.48 l 25.77,-12.02 c 1.4,-0.66 2.34,-0.988 2.81,-1.031 0.47,-0.02 0.88,0.101 1.23,0.39 0.49,0.352 0.96,1 1.41,1.911 l 1.13,2.48 6.44,-3 -10.56,-22.68 -6.47,2.989 0.88,1.832 c 0.61,1.308 0.92,2.211 0.92,2.699 -0.02,0.492 -0.18,0.922 -0.51,1.289 -0.31,0.391 -1.09,0.883 -2.32,1.441 l -25.86,12.071 c -1.45,0.668 -2.44,1.019 -2.97,1.019 -0.55,0.039 -1.06,-0.121 -1.51,-0.449 -0.33,-0.211 -0.78,-0.941 -1.32,-2.129 l -0.96,-2.07 -6.45,3.008"
           style="fill:#1574c4;fill-opacity:1;fill-rule:nonzero;stroke:none"
           id="path28"
           inkscape:connector-curvature="0" />
        <path
           d="m 1058.41,393.949 v 5.231 l 18.44,5.039 1.99,-6.86 c -4.4,-2.277 -7.52,-4.429 -9.36,-6.437 -2.52,-2.801 -3.79,-5.82 -3.79,-9.082 0,-2.391 0.67,-4.629 2,-6.699 1.32,-2.071 3.26,-3.731 5.84,-4.942 2.59,-1.219 5.6,-1.82 9.06,-1.82 5.27,0 9.82,1.41 13.61,4.18 3.83,2.793 5.72,6.441 5.72,10.961 0,2.89 -0.82,5.621 -2.48,8.281 -2.03,3.32 -4.76,6.168 -8.2,8.59 l 4.24,5.699 c 5.06,-3.711 8.57,-7.11 10.56,-10.149 3.07,-4.75 4.61,-10.019 4.61,-15.839 0,-4.852 -1.15,-9.223 -3.47,-13.153 -2.33,-3.898 -5.57,-7.027 -9.77,-9.347 -4.16,-2.332 -8.71,-3.5 -13.65,-3.5 -4.9,0 -9.36,1.128 -13.4,3.378 -4.04,2.29 -7.21,5.372 -9.45,9.282 -2.27,3.918 -3.4,8.297 -3.4,13.097 0,4.911 1.03,9.18 3.11,12.852 l -2.21,1.238"
           style="fill:#1574c4;fill-opacity:1;fill-rule:nonzero;stroke:none"
           id="path30"
           inkscape:connector-curvature="0" />
        <path
           d="m 1064.17,436.43 c 0.49,-3.891 2.32,-6.782 5.51,-8.719 3.98,-2.422 8.88,-3.281 14.65,-2.57 5.78,0.699 10.19,2.589 13.22,5.699 2.6,2.66 3.65,5.898 3.2,9.691 -0.49,3.828 -2.3,6.719 -5.45,8.649 -3.77,2.281 -8.53,3.07 -14.27,2.359 -4.05,-0.488 -7.37,-1.5 -9.99,-2.988 -2.61,-1.481 -4.47,-3.301 -5.6,-5.442 -1.11,-2.129 -1.54,-4.379 -1.27,-6.679 z m -8.09,-1.16 c -0.99,8.089 0.67,14.941 4.98,20.531 4.3,5.629 10.32,8.929 18.05,9.859 5.18,0.649 9.94,0.059 14.22,-1.73 4.32,-1.801 7.81,-4.59 10.49,-8.36 2.67,-3.75 4.35,-8.48 5.06,-14.179 0.91,-7.52 -0.39,-13.95 -3.95,-19.243 -4.28,-6.429 -10.6,-10.136 -18.96,-11.168 -7.78,-0.96 -14.46,0.801 -20.02,5.25 -5.57,4.489 -8.85,10.84 -9.87,19.04"
           style="fill:#1574c4;fill-opacity:1;fill-rule:nonzero;stroke:none"
           id="path32"
           inkscape:connector-curvature="0" />
        <path
           d="m 1046.83,519 c 0.93,-3.789 3.08,-6.441 6.48,-7.98 4.28,-1.918 9.24,-2.168 14.88,-0.77 5.65,1.41 9.79,3.832 12.43,7.27 2.24,2.968 2.89,6.289 1.97,10.019 -0.94,3.75 -3.09,6.391 -6.45,7.91 -4.02,1.821 -8.85,2.012 -14.45,0.602 -3.97,-0.969 -7.15,-2.379 -9.55,-4.192 -2.4,-1.777 -4.04,-3.808 -4.88,-6.078 -0.86,-2.261 -1,-4.531 -0.43,-6.781 z m 27.46,-21.789 1.74,-6.941 10.52,2.64 c 1.68,0.41 2.7,0.738 3.07,1 0.53,0.371 0.84,0.86 0.9,1.379 0.08,0.551 -0.1,1.582 -0.47,3.109 l -0.43,1.684 6.89,1.719 6.08,-24.321 -6.9,-1.718 -0.41,1.636 c -0.33,1.391 -0.7,2.332 -1.07,2.801 -0.39,0.5 -0.8,0.781 -1.29,0.871 -0.49,0.102 -1.45,-0.031 -2.89,-0.39 l -27.09,-6.75 c -1.7,-0.41 -2.75,-0.809 -3.2,-1.16 -0.49,-0.309 -0.78,-0.719 -0.9,-1.188 -0.14,-0.492 -0.06,-1.371 0.25,-2.602 l 0.57,-2.199 -6.9,-1.742 -6.07,24.332 6.89,1.719 0.57,-2.238 c 0.29,-1.231 0.64,-2.051 1.02,-2.442 0.35,-0.39 0.8,-0.629 1.32,-0.691 0.49,-0.098 1.51,0.062 3.07,0.453 l 8.67,2.168 -1.79,7.211 c -5.59,-0.469 -10.73,0.738 -15.4,3.629 -6.09,3.769 -10.13,9.672 -12.12,17.691 -1.98,7.918 -1.16,14.91 2.44,21 3.57,6.09 9.14,10.098 16.7,11.969 5.06,1.269 9.86,1.269 14.35,0 4.47,-1.25 8.28,-3.59 11.41,-7.008 3.1,-3.402 5.35,-7.891 6.74,-13.461 1.83,-7.359 1.31,-13.883 -1.57,-19.582 -3.06,-6.098 -7.96,-10.277 -14.7,-12.578"
           style="fill:#1574c4;fill-opacity:1;fill-rule:nonzero;stroke:none"
           id="path34"
           inkscape:connector-curvature="0" />
        <path
           d="m 388.738,562.77 -13.14,6.312 -1.899,-3.941 c -1.148,-2.43 -1.758,-4.321 -1.812,-5.692 -0.039,-1.359 0.293,-2.629 0.972,-3.808 0.727,-1.192 1.789,-2.121 3.215,-2.789 2.117,-1.012 4.18,-1.012 6.211,0.039 1.516,0.757 2.844,2.339 3.992,4.75 z m 15.715,13.378 -11.726,-24.468 c -1.489,-3.11 -3.032,-5.508 -4.653,-7.25 -1.597,-1.75 -3.406,-3.059 -5.386,-3.899 -1.997,-0.883 -4.067,-1.269 -6.211,-1.23 -2.153,0.039 -4.18,0.539 -6.157,1.48 -3.953,1.899 -6.55,5 -7.769,9.36 -1.211,4.308 -0.547,9.14 2.012,14.507 l 3.796,7.891 -8.671,4.16 c -1.083,0.531 -1.805,0.762 -2.176,0.762 -0.508,0 -0.957,-0.16 -1.352,-0.473 -0.398,-0.308 -0.84,-0.968 -1.305,-1.949 l -1.117,-2.34 -6.414,3.063 10.828,22.558 6.391,-3.05 -0.742,-1.559 c -0.664,-1.371 -0.996,-2.32 -1.008,-2.871 -0.012,-0.531 0.145,-1 0.461,-1.41 0.367,-0.41 1.199,-0.93 2.559,-1.578 l 25.464,-12.211 c 1.411,-0.68 2.383,-1.032 2.911,-1.071 0.546,-0.039 1.015,0.078 1.41,0.391 0.398,0.269 0.855,0.961 1.382,2.027 l 1.067,2.231 6.406,-3.071"
           style="fill:#1574c4;fill-opacity:1;fill-rule:nonzero;stroke:none"
           id="path36"
           inkscape:connector-curvature="0" />
        <path
           d="m 367.668,507.891 c 1.211,3.711 0.777,7.129 -1.289,10.218 -2.602,3.903 -6.652,6.75 -12.191,8.551 -5.528,1.82 -10.309,1.969 -14.383,0.449 -3.477,-1.328 -5.813,-3.808 -7,-7.437 -1.184,-3.652 -0.762,-7.031 1.265,-10.121 2.446,-3.672 6.41,-6.41 11.926,-8.199 3.867,-1.27 7.305,-1.782 10.305,-1.532 2.984,0.262 5.445,1.102 7.383,2.559 1.921,1.473 3.242,3.301 3.984,5.512 z m 7.793,-2.403 C 372.938,497.75 368.523,492.27 362.246,489 c -6.269,-3.262 -13.105,-3.668 -20.5,-1.27 -4.976,1.641 -9.019,4.18 -12.156,7.622 -3.137,3.457 -5.117,7.457 -5.957,12.027 -0.813,4.512 -0.332,9.512 1.445,14.961 2.363,7.23 6.277,12.48 11.746,15.769 6.594,4 13.891,4.68 21.906,2.071 7.43,-2.43 12.723,-6.86 15.887,-13.25 3.125,-6.442 3.418,-13.571 0.844,-21.442"
           style="fill:#1574c4;fill-opacity:1;fill-rule:nonzero;stroke:none"
           id="path38"
           inkscape:connector-curvature="0" />
        <path
           d="m 503.918,117.129 21.473,-12.93 -3.653,-6.0779 -1.992,1.1992 c -1.086,0.6406 -1.914,0.9887 -2.441,0.9887 -0.535,0.023 -1.016,-0.11 -1.438,-0.4301 -0.387,-0.3086 -1.012,-1.1484 -1.844,-2.5195 l -9.929,-16.5196 25.957,6.8907 0.359,0.5703 c 0.606,1.0195 0.945,1.7383 1.043,2.168 0.129,0.6015 0.063,1.1328 -0.23,1.5625 -0.278,0.4296 -1.118,1.0585 -2.485,1.8789 l -1.675,0.9882 3.667,6.1016 21.555,-12.9492 -3.664,-6.082 -1.797,1.082 c -1.211,0.7187 -2.09,1.1094 -2.613,1.1289 -0.512,0.0586 -0.981,-0.0781 -1.391,-0.3711 -0.371,-0.2695 -0.996,-1.1484 -1.875,-2.5977 L 526.609,57.3398 c -0.879,-1.4804 -1.367,-2.5 -1.433,-3.039 -0.039,-0.5508 0.066,-1.0391 0.359,-1.4688 0.317,-0.4336 1.211,-1.0703 2.688,-1.9531 l 1.257,-0.7578 -3.652,-6.1016 -21.551,12.9493 3.661,6.1015 1.417,-0.8594 c 1.329,-0.8007 2.286,-1.2109 2.872,-1.289 0.617,-0.0821 1.125,0.0195 1.523,0.3281 0.43,0.2695 1.094,1.1484 1.973,2.6406 l 10.207,16.9492 -25.981,-6.8906 -0.254,-0.4297 c -0.894,-1.4687 -1.375,-2.4297 -1.453,-2.8593 -0.105,-0.6602 0.012,-1.211 0.352,-1.6407 0.324,-0.4297 1.179,-1.0507 2.527,-1.8711 l 1.484,-0.8789 -3.667,-6.0898 -21.489,12.9297 3.656,6.0703 1.461,-0.8789 c 1.223,-0.7188 2.129,-1.1289 2.739,-1.211 0.613,-0.0781 1.113,0.0196 1.511,0.2891 0.418,0.2813 1.004,1.0625 1.789,2.332 l 14.364,23.9181 c 0.91,1.492 1.394,2.519 1.465,3.07 0.109,0.571 0.039,1.071 -0.223,1.52 -0.246,0.41 -0.918,0.961 -2.016,1.621 l -1.953,1.199 3.676,6.09"
           style="fill:#1574c4;fill-opacity:1;fill-rule:nonzero;stroke:none"
           id="path40"
           inkscape:connector-curvature="0" />
        <path
           d="m 540.32,107.422 c 1.211,-0.41 2.618,-0.621 4.211,-0.602 -0.437,0.309 -0.793,0.641 -1.054,1.012 -0.293,0.367 -0.508,0.777 -0.657,1.207 -0.41,1.231 -0.242,2.481 0.493,3.731 0.703,1.25 1.792,2.128 3.242,2.601 1.715,0.551 3.355,0.41 4.937,-0.41 1.543,-0.82 2.602,-2.07 3.156,-3.77 0.411,-1.269 0.457,-2.601 0.149,-4 -0.356,-1.39 -1.035,-2.601 -2.055,-3.652 -1.054,-1.059 -2.398,-1.84 -4.051,-2.367 -2.714,-0.863 -5.671,-0.82 -8.847,0.137 -3.098,0.961 -6.731,2.402 -10.098,4.429 -3.191,1.922 -6.125,4.422 -8.43,6.703 -2.339,2.36 -3.765,4.938 -4.273,7.758 -0.313,1.672 -0.234,3.262 0.191,4.66 0.442,1.411 1.211,2.582 2.27,3.539 1.082,0.942 2.281,1.524 3.582,1.762 1.785,0.289 3.391,-0.039 4.824,-1.039 1.453,-1 2.344,-2.383 2.664,-4.16 0.278,-1.481 0.024,-2.852 -0.761,-4.082 -0.77,-1.231 -1.786,-1.949 -3.067,-2.168 -0.445,-0.082 -0.906,-0.082 -1.375,0 -0.437,0.059 -0.906,0.199 -1.379,0.449 0.727,-1.41 1.567,-2.539 2.5,-3.441 0.957,-0.899 2.895,-2.887 6.367,-4.957 3.711,-2.223 6.204,-2.91 7.461,-3.34"
           style="fill:#1574c4;fill-opacity:1;fill-rule:nonzero;stroke:none"
           id="path42"
           inkscape:connector-curvature="0" />
        <path
           d="m 456.25,158.09 19.07,-16.27 -4.605,-5.41 -1.77,1.5 c -0.965,0.82 -1.718,1.289 -2.257,1.391 -0.504,0.109 -1.004,0.039 -1.461,-0.199 -0.461,-0.211 -1.204,-0.942 -2.231,-2.153 l -12.535,-14.679 26.734,2.519 0.45,0.5 c 0.761,0.922 1.21,1.57 1.386,1.981 0.215,0.562 0.239,1.109 0.039,1.562 -0.222,0.469 -0.925,1.227 -2.156,2.258 l -1.484,1.269 4.621,5.411 19.129,-16.34 -4.617,-5.391 -1.602,1.359 c -1.086,0.922 -1.875,1.454 -2.387,1.551 -0.508,0.153 -0.972,0.09 -1.426,-0.14 -0.425,-0.219 -1.187,-0.977 -2.285,-2.27 L 468.789,95.3711 c -1.113,-1.2891 -1.746,-2.2109 -1.926,-2.75 -0.117,-0.5313 -0.086,-1.0391 0.129,-1.5117 0.235,-0.4688 1.004,-1.2696 2.324,-2.3789 l 1.114,-0.9414 -4.617,-5.4102 -19.102,16.332 4.605,5.3911 1.262,-1.051 c 1.172,-1.02 2.039,-1.602 2.61,-1.762 0.593,-0.18 1.113,-0.16 1.558,0.082 0.488,0.188 1.274,0.949 2.395,2.258 l 12.839,15.062 -26.738,-2.519 -0.332,-0.391 c -1.109,-1.312 -1.758,-2.172 -1.914,-2.582 -0.215,-0.617 -0.183,-1.168 0.078,-1.66 0.266,-0.488 0.996,-1.25 2.192,-2.258 l 1.316,-1.121 -4.609,-5.41 -19.063,16.289 4.617,5.41 1.274,-1.109 c 1.07,-0.918 1.922,-1.481 2.5,-1.66 0.601,-0.18 1.109,-0.18 1.543,0.039 0.469,0.191 1.179,0.863 2.144,2.011 l 18.125,21.211 c 1.133,1.329 1.782,2.27 1.953,2.789 0.2,0.532 0.215,1.04 0.032,1.532 -0.176,0.468 -0.743,1.109 -1.719,1.949 l -1.738,1.488 4.609,5.391"
           style="fill:#1574c4;fill-opacity:1;fill-rule:nonzero;stroke:none"
           id="path44"
           inkscape:connector-curvature="0" />
        <path
           d="m 419.441,204.512 15.586,-19.614 -5.562,-4.41 -1.035,1.313 c -0.989,1.23 -1.672,1.949 -2.024,2.148 -0.578,0.27 -1.152,0.391 -1.711,0.289 -0.523,-0.117 -1.328,-0.609 -2.382,-1.449 L 411.621,174.301 433.203,171 c 0.969,-0.141 1.57,-0.199 1.836,-0.18 0.281,0.039 0.496,0.102 0.637,0.219 0.269,0.211 0.371,0.481 0.332,0.82 -0.039,0.332 -0.422,0.93 -1.137,1.832 l -1.277,1.598 5.554,4.441 14.473,-18.191 -5.562,-4.41 -0.493,0.601 c -0.671,0.84 -1.179,1.391 -1.543,1.641 -0.332,0.277 -0.835,0.527 -1.503,0.789 -0.653,0.211 -1.61,0.449 -2.848,0.68 l -16.145,3.012 -6.433,-24.032 c -0.547,-2.05 -0.766,-3.41 -0.649,-4.082 0.141,-0.898 0.676,-1.906 1.582,-3.058 l 0.625,-0.789 -5.562,-4.43 -16.137,20.289 5.567,4.441 0.648,-0.82 c 1.172,-1.492 1.949,-2.312 2.32,-2.5 0.395,-0.242 0.703,-0.262 0.91,-0.101 0.235,0.191 0.547,0.921 0.926,2.21 l 4.453,15.059 -10.078,1.949 -4.058,-3.218 c -0.996,-0.809 -1.621,-1.45 -1.86,-1.961 -0.215,-0.489 -0.293,-0.969 -0.183,-1.457 0.136,-0.493 0.632,-1.27 1.484,-2.352 l 1.309,-1.641 -5.555,-4.41 -15.59,19.59 5.567,4.41 1.171,-1.461 c 0.891,-1.129 1.582,-1.816 2.063,-2.066 0.5,-0.242 1.016,-0.281 1.555,-0.121 0.449,0.097 1.296,0.648 2.554,1.64 l 21.953,17.457 c 1.172,0.961 1.914,1.684 2.18,2.172 0.266,0.489 0.344,1.02 0.234,1.539 -0.097,0.551 -0.546,1.332 -1.335,2.332 l -1.309,1.641 5.562,4.43"
           style="fill:#1574c4;fill-opacity:1;fill-rule:nonzero;stroke:none"
           id="path46"
           inkscape:connector-curvature="0" />
        <path
           d="m 413.555,215.57 2.461,-4.629 -13.914,-13.109 -4.985,5.117 c 2.817,4.082 4.563,7.442 5.238,10.082 0.915,3.649 0.625,6.93 -0.91,9.801 -1.125,2.109 -2.754,3.77 -4.914,4.977 -2.129,1.211 -4.629,1.742 -7.468,1.601 -2.852,-0.129 -5.793,-1.012 -8.86,-2.648 -4.656,-2.481 -8.008,-5.821 -10.066,-10.063 -2.063,-4.258 -2.024,-8.379 0.105,-12.359 1.36,-2.539 3.371,-4.59 6.074,-6.16 3.34,-1.969 7.102,-3.219 11.274,-3.731 l -1.059,-7.027 c -6.211,0.898 -10.918,2.226 -14.097,4.027 -4.946,2.731 -8.774,6.672 -11.504,11.813 -2.27,4.258 -3.301,8.668 -3.117,13.218 0.234,4.54 1.64,8.829 4.23,12.86 2.598,4 6.07,7.16 10.418,9.492 4.324,2.297 8.809,3.398 13.418,3.297 4.656,-0.117 8.887,-1.367 12.726,-3.75 3.829,-2.399 6.875,-5.738 9.137,-9.981 2.285,-4.316 3.391,-8.597 3.305,-12.808 l 2.508,-0.02"
           style="fill:#1574c4;fill-opacity:1;fill-rule:nonzero;stroke:none"
           id="path48"
           inkscape:connector-curvature="0" />
        <path
           d="m 371.465,305.371 8.996,-23.402 -6.633,-2.539 -0.832,2.172 c -0.457,1.187 -0.906,1.949 -1.316,2.308 -0.403,0.328 -0.867,0.5 -1.399,0.52 -0.496,0 -1.504,-0.25 -2.976,-0.84 l -18.02,-6.91 24.707,-10.551 0.625,0.242 c 1.098,0.43 1.821,0.777 2.168,1.07 0.473,0.391 0.735,0.84 0.766,1.348 0.039,0.531 -0.215,1.52 -0.805,3.031 l -0.691,1.809 6.633,2.543 9.023,-23.473 -6.652,-2.539 -0.743,1.949 c -0.515,1.332 -0.964,2.172 -1.367,2.52 -0.371,0.351 -0.801,0.531 -1.316,0.551 -0.473,0 -1.496,-0.301 -3.086,-0.899 l -25.981,-9.98 c -1.597,-0.629 -2.617,-1.121 -3.015,-1.512 -0.363,-0.41 -0.559,-0.859 -0.598,-1.379 -0.015,-0.531 0.285,-1.59 0.902,-3.191 l 0.528,-1.379 -6.633,-2.559 -9.016,23.469 6.645,2.559 0.586,-1.539 c 0.562,-1.45 1.031,-2.379 1.465,-2.79 0.425,-0.449 0.906,-0.671 1.406,-0.691 0.523,-0.039 1.582,0.262 3.172,0.859 l 18.484,7.114 -24.707,10.547 -0.476,-0.18 c -1.614,-0.641 -2.571,-1.07 -2.903,-1.359 -0.484,-0.45 -0.738,-0.961 -0.73,-1.508 0,-0.551 0.285,-1.563 0.847,-3.032 l 0.618,-1.601 -6.629,-2.559 -8.989,23.399 6.645,2.562 0.594,-1.582 c 0.515,-1.328 0.984,-2.211 1.418,-2.66 0.425,-0.43 0.894,-0.66 1.375,-0.699 0.476,-0.039 1.433,0.211 2.832,0.742 l 26.054,10 c 1.629,0.629 2.625,1.129 3.039,1.527 0.426,0.371 0.68,0.821 0.758,1.301 0.063,0.512 -0.117,1.371 -0.586,2.539 l -0.816,2.133 6.629,2.539"
           style="fill:#1574c4;fill-opacity:1;fill-rule:nonzero;stroke:none"
           id="path50"
           inkscape:connector-curvature="0" />
        <path
           d="m 394.148,275.449 c 0.715,-1.078 1.68,-2.109 2.942,-3.07 -0.156,0.512 -0.215,1 -0.195,1.453 0,0.469 0.078,0.918 0.222,1.348 0.449,1.23 1.328,2.109 2.68,2.652 1.348,0.547 2.73,0.566 4.156,0.039 1.692,-0.621 2.91,-1.742 3.637,-3.359 0.723,-1.582 0.777,-3.223 0.164,-4.922 -0.449,-1.25 -1.223,-2.32 -2.332,-3.219 -1.137,-0.883 -2.426,-1.43 -3.891,-1.621 -1.465,-0.199 -3.008,0.02 -4.629,0.621 -2.683,0.981 -4.968,2.848 -6.882,5.57 -1.844,2.649 -3.829,6.028 -5.223,9.7 -1.352,3.48 -2.121,7.25 -2.524,10.449 -0.386,3.301 0.071,6.23 1.399,8.75 0.801,1.531 1.816,2.719 3.027,3.582 1.211,0.816 2.539,1.269 3.965,1.379 1.426,0.078 2.742,-0.211 3.899,-0.84 1.597,-0.84 2.644,-2.121 3.171,-3.762 0.528,-1.699 0.379,-3.34 -0.461,-4.929 -0.703,-1.34 -1.746,-2.282 -3.125,-2.77 -1.355,-0.469 -2.593,-0.41 -3.75,0.199 -0.41,0.211 -0.757,0.5 -1.074,0.84 -0.332,0.332 -0.586,0.723 -0.828,1.211 -0.273,-1.551 -0.32,-2.969 -0.137,-4.238 0.204,-1.313 0.52,-4.051 1.961,-7.832 1.567,-4.051 3.086,-6.121 3.828,-7.231"
           style="fill:#1574c4;fill-opacity:1;fill-rule:nonzero;stroke:none"
           id="path52"
           inkscape:connector-curvature="0" />
        <path
           d="m 360.613,368.32 4.223,-24.711 -7.004,-1.187 -0.398,2.289 c -0.215,1.25 -0.493,2.09 -0.825,2.5 -0.332,0.43 -0.757,0.68 -1.265,0.801 -0.5,0.109 -1.535,0.039 -3.11,-0.242 l -19.019,-3.239 22.168,-15.172 0.664,0.09 c 1.148,0.199 1.933,0.41 2.32,0.633 0.551,0.289 0.891,0.68 1.035,1.168 0.141,0.512 0.071,1.539 -0.191,3.121 l -0.332,1.918 6.988,1.191 4.25,-24.781 -7.004,-1.199 -0.359,2.07 c -0.227,1.41 -0.52,2.309 -0.84,2.719 -0.293,0.43 -0.684,0.699 -1.184,0.82 -0.464,0.102 -1.519,0 -3.191,-0.289 l -27.441,-4.691 c -1.692,-0.27 -2.774,-0.59 -3.235,-0.879 -0.445,-0.328 -0.742,-0.738 -0.879,-1.25 -0.117,-0.512 -0.027,-1.621 0.266,-3.301 l 0.242,-1.469 -6.988,-1.191 -4.238,24.793 6.992,1.207 0.281,-1.641 c 0.266,-1.527 0.566,-2.519 0.891,-3.027 0.332,-0.512 0.75,-0.84 1.25,-0.941 0.496,-0.129 1.59,-0.071 3.281,0.218 l 19.512,3.34 -22.153,15.192 -0.507,-0.09 c -1.7,-0.301 -2.735,-0.551 -3.125,-0.77 -0.567,-0.351 -0.895,-0.781 -1.004,-1.32 -0.11,-0.531 -0.032,-1.59 0.234,-3.129 l 0.293,-1.723 -7,-1.187 -4.231,24.73 7.012,1.188 0.281,-1.68 c 0.239,-1.41 0.52,-2.359 0.872,-2.867 0.332,-0.512 0.734,-0.844 1.203,-0.961 0.488,-0.141 1.445,-0.082 2.925,0.18 l 27.5,4.679 c 1.719,0.301 2.825,0.59 3.286,0.899 0.496,0.301 0.836,0.672 1.011,1.16 0.16,0.461 0.141,1.34 -0.078,2.59 l -0.387,2.25 7.008,1.191"
           style="fill:#1574c4;fill-opacity:1;fill-rule:nonzero;stroke:none"
           id="path54"
           inkscape:connector-curvature="0" />
        <path
           d="m 358.867,382.73 v -5.23 l -18.457,-5 -1.965,6.859 c 4.375,2.262 7.5,4.411 9.348,6.422 2.527,2.789 3.801,5.821 3.816,9.078 0,2.391 -0.664,4.61 -1.992,6.7 -1.304,2.07 -3.269,3.711 -5.828,4.941 -2.59,1.211 -5.598,1.82 -9.062,1.84 -5.286,0 -9.825,-1.371 -13.622,-4.16 -3.808,-2.77 -5.714,-6.43 -5.722,-10.961 -0.024,-2.867 0.801,-5.617 2.449,-8.278 2.031,-3.32 4.758,-6.171 8.184,-8.589 l -4.246,-5.711 c -5.04,3.73 -8.555,7.109 -10.547,10.199 -3.047,4.75 -4.575,10.019 -4.563,15.82 0.012,4.84 1.172,9.219 3.477,13.141 2.336,3.91 5.593,7.019 9.773,9.34 4.172,2.32 8.735,3.48 13.664,3.48 4.91,-0.019 9.375,-1.16 13.391,-3.402 4.051,-2.309 7.207,-5.41 9.453,-9.321 2.242,-3.918 3.367,-8.296 3.367,-13.097 -0.019,-4.891 -1.055,-9.16 -3.113,-12.852 l 2.195,-1.219"
           style="fill:#1574c4;fill-opacity:1;fill-rule:nonzero;stroke:none"
           id="path56"
           inkscape:connector-curvature="0" />
        <path
           d="m 359.363,436.719 -0.879,-5.16 -19.019,-1.887 -0.82,7.066 c 4.707,1.524 8.14,3.121 10.293,4.801 2.957,2.332 4.714,5.102 5.25,8.34 0.39,2.351 0.128,4.652 -0.836,6.922 -0.957,2.258 -2.61,4.219 -4.946,5.859 -2.343,1.602 -5.222,2.692 -8.64,3.281 -5.188,0.879 -9.903,0.27 -14.114,-1.839 -4.234,-2.114 -6.699,-5.411 -7.468,-9.864 -0.481,-2.808 -0.11,-5.687 1.062,-8.578 1.457,-3.609 3.676,-6.871 6.66,-9.82 l -5.113,-4.918 c -4.379,4.488 -7.285,8.418 -8.742,11.777 -2.215,5.192 -2.852,10.641 -1.895,16.36 0.813,4.793 2.688,8.91 5.614,12.39 2.929,3.473 6.664,5.992 11.171,7.59 4.512,1.602 9.18,2 14.043,1.172 4.844,-0.82 9.067,-2.672 12.668,-5.563 3.606,-2.929 6.203,-6.507 7.774,-10.718 1.57,-4.258 1.941,-8.75 1.152,-13.5 -0.82,-4.821 -2.551,-8.871 -5.195,-12.149 l 1.98,-1.562"
           style="fill:#1574c4;fill-opacity:1;fill-rule:nonzero;stroke:none"
           id="path58"
           inkscape:connector-curvature="0" />
        <path
           d="m 960.461,101.051 -9.367,11.16 3.359,2.828 c 2.039,1.723 3.723,2.75 5.027,3.141 1.333,0.39 2.637,0.39 3.95,0 1.316,-0.391 2.488,-1.192 3.496,-2.379 1.519,-1.821 2.027,-3.832 1.512,-6.031 -0.364,-1.661 -1.575,-3.34 -3.594,-5.059 z M 951.418,82.5 972.195,99.9414 c 2.641,2.2066 4.59,4.3206 5.864,6.3086 1.304,1.988 2.109,4.039 2.461,6.191 0.332,2.149 0.21,4.258 -0.352,6.329 -0.59,2.05 -1.582,3.929 -2.973,5.589 -2.832,3.352 -6.504,5.09 -10.996,5.192 -4.488,0.121 -9.004,-1.742 -13.554,-5.571 l -6.715,-5.601 -6.172,7.34 c -0.774,0.922 -1.203,1.57 -1.274,1.922 -0.132,0.5 -0.093,0.968 0.102,1.418 0.215,0.472 0.738,1.062 1.551,1.761 l 2.011,1.68 -4.57,5.43 -19.172,-16.071 4.574,-5.449 1.305,1.11 c 1.184,0.98 2.024,1.539 2.539,1.679 0.52,0.141 0.996,0.121 1.477,-0.097 0.488,-0.231 1.211,-0.942 2.168,-2.071 l 18.152,-21.6404 c 1.008,-1.1914 1.606,-2.0508 1.77,-2.5586 0.183,-0.5117 0.168,-1.0117 -0.02,-1.4609 -0.168,-0.4492 -0.715,-1.082 -1.633,-1.8398 l -1.883,-1.5821 4.563,-5.4492"
           style="fill:#1574c4;fill-opacity:1;fill-rule:nonzero;stroke:none"
           id="path60"
           inkscape:connector-curvature="0" />
        <path
           d="m 1041.55,193.73 -12.09,8.141 2.46,3.641 c 1.51,2.218 2.82,3.687 3.97,4.429 1.15,0.719 2.44,1.079 3.79,1.079 1.38,0 2.73,-0.45 4.02,-1.329 1.95,-1.332 2.99,-3.132 3.13,-5.39 0.09,-1.699 -0.59,-3.66 -2.07,-5.84 z m -3.57,-20.332 15.17,22.5 c 1.92,2.852 3.23,5.411 3.89,7.692 0.7,2.269 0.92,4.48 0.65,6.609 -0.26,2.16 -0.96,4.16 -2.07,5.992 -1.14,1.821 -2.6,3.34 -4.42,4.547 -3.63,2.461 -7.64,3.114 -11.99,1.973 -4.34,-1.109 -8.17,-4.16 -11.5,-9.082 l -4.89,-7.258 -7.97,5.367 c -0.99,0.66 -1.58,1.172 -1.75,1.481 -0.26,0.453 -0.36,0.922 -0.3,1.41 0.08,0.512 0.41,1.23 1.02,2.109 l 1.46,2.172 -5.88,3.981 -14.002,-20.762 5.902,-3.988 0.96,1.449 c 0.86,1.25 1.5,2.031 1.97,2.301 0.45,0.3 0.94,0.398 1.44,0.32 0.53,-0.082 1.41,-0.551 2.66,-1.391 l 23.4,-15.781 c 1.31,-0.879 2.11,-1.539 2.42,-1.969 0.29,-0.449 0.43,-0.941 0.37,-1.429 -0.04,-0.493 -0.39,-1.211 -1.05,-2.211 l -1.39,-2.051 5.9,-3.981"
           style="fill:#1574c4;fill-opacity:1;fill-rule:nonzero;stroke:none"
           id="path62"
           inkscape:connector-curvature="0" />
        <path
           d="m 605.945,33.8086 4.426,-1.4102 c 2.512,-0.7773 4.563,-0.9375 6.121,-0.4492 2.113,0.6524 3.488,1.9805 4.121,4.0117 0.434,1.3594 0.442,2.6289 0.032,3.8789 -0.418,1.1993 -1.141,2.2305 -2.188,3.0899 -1.047,0.8398 -2.844,1.6601 -5.383,2.4609 l -3.164,1.0196 z m 6.157,19.5117 7.332,-2.3008 c 5.656,-1.7812 9.675,-4.4804 12.07,-8.0312 2.414,-3.5977 3.039,-7.2891 1.824,-11.0781 -0.586,-1.8907 -1.582,-3.5313 -2.937,-4.961 -1.387,-1.3984 -3.047,-2.5 -4.993,-3.2187 -1.929,-0.7422 -4.082,-1.0703 -6.445,-1 -2.344,0.0781 -5.152,0.6289 -8.418,1.6601 l -6.875,2.1485 c -0.515,-1.6172 -0.73,-2.5899 -0.699,-3.0586 0.035,-0.4688 0.223,-0.8594 0.547,-1.1797 0.41,-0.4414 1.109,-0.8008 2.09,-1.1094 l 2.593,-0.8203 -2.128,-6.8008 -23.883,7.5391 2.136,6.7812 1.934,-0.6015 c 1.379,-0.4493 2.313,-0.6289 2.781,-0.5703 0.489,0.0625 0.891,0.2929 1.211,0.6601 0.363,0.3711 0.742,1.1914 1.145,2.4805 l 0.144,0.5117 -6.875,2.168 c -3.277,1.0312 -5.894,2.2109 -7.847,3.5 -1.996,1.2617 -3.555,2.7695 -4.707,4.4922 -1.196,1.7187 -1.934,3.5703 -2.231,5.5195 -0.328,1.9375 -0.176,3.8476 0.41,5.75 1.196,3.789 3.828,6.4609 7.856,8 4.011,1.5508 8.836,1.4492 14.5,-0.332 l 7.351,-2.3204 c 0.473,1.4805 0.664,2.5 0.61,3.0313 -0.039,0.5391 -0.254,1.0312 -0.637,1.4219 -0.266,0.289 -1.023,0.6289 -2.293,1.039 l -2.172,0.6797 2.133,6.7813 23.863,-7.543 -2.129,-6.7578 -2.168,0.6797 c -1.277,0.3906 -2.156,0.5508 -2.652,0.4492 -0.461,-0.0899 -0.883,-0.3477 -1.25,-0.7813 -0.332,-0.3867 -0.703,-1.289 -1.137,-2.6289 z m -18.274,-15.6992 3.977,12.5898 -3.188,1 c -2.539,0.8008 -4.488,1.168 -5.828,1.0782 -1.34,-0.1172 -2.527,-0.5508 -3.555,-1.2891 -1.046,-0.7695 -1.789,-1.8203 -2.214,-3.1914 -0.649,-2.0273 -0.278,-3.918 1.074,-5.6367 1.004,-1.3125 2.769,-2.3516 5.301,-3.1524 l 4.433,-1.3984"
           style="fill:#1574c4;fill-opacity:1;fill-rule:nonzero;stroke:none"
           id="path64"
           inkscape:connector-curvature="0" />
        <path
           d="m 1035.24,275.41 7.76,23.852 6.76,-2.192 -0.73,-2.23 c -0.37,-1.211 -0.52,-2.07 -0.41,-2.59 0.08,-0.531 0.34,-0.961 0.75,-1.289 0.37,-0.34 1.32,-0.75 2.83,-1.231 l 18.36,-5.98 -12.56,23.75 -0.63,0.211 c -1.13,0.359 -1.91,0.551 -2.36,0.527 -0.61,0 -1.09,-0.187 -1.47,-0.558 -0.35,-0.391 -0.76,-1.328 -1.25,-2.84 l -0.62,-1.871 -6.74,2.211 7.78,23.902 6.73,-2.191 -0.64,-1.993 c -0.43,-1.359 -0.61,-2.296 -0.53,-2.808 0.08,-0.508 0.29,-0.942 0.69,-1.27 0.37,-0.289 1.34,-0.699 2.94,-1.23 l 26.49,-8.59 c 1.64,-0.551 2.73,-0.789 3.28,-0.73 0.57,0.082 1,0.32 1.35,0.691 0.35,0.41 0.78,1.418 1.31,3.059 l 0.46,1.39 6.74,-2.191 -7.75,-23.918 -6.76,2.199 0.51,1.57 c 0.47,1.461 0.66,2.5 0.62,3.102 -0.07,0.609 -0.29,1.078 -0.66,1.41 -0.39,0.348 -1.39,0.797 -3.03,1.328 l -18.83,6.11 12.56,-23.75 0.49,-0.161 c 1.64,-0.519 2.68,-0.777 3.11,-0.777 0.66,0.059 1.17,0.289 1.5,0.719 0.35,0.429 0.78,1.39 1.25,2.879 l 0.55,1.66 6.76,-2.211 -7.74,-23.828 -6.78,2.187 0.53,1.602 c 0.45,1.351 0.65,2.34 0.59,2.949 -0.08,0.621 -0.3,1.07 -0.63,1.422 -0.37,0.34 -1.25,0.75 -2.67,1.199 l -26.55,8.629 c -1.66,0.531 -2.77,0.781 -3.32,0.742 -0.58,-0.043 -1.05,-0.211 -1.42,-0.57 -0.37,-0.352 -0.74,-1.109 -1.14,-2.32 l -0.72,-2.192 -6.76,2.211"
           style="fill:#1574c4;fill-opacity:1;fill-rule:nonzero;stroke:none"
           id="path66"
           inkscape:connector-curvature="0" />
        <path
           d="m 1036.51,313.07 c 0.12,1.289 0,2.692 -0.37,4.231 -0.19,-0.481 -0.45,-0.891 -0.74,-1.25 -0.29,-0.371 -0.66,-0.66 -1.03,-0.891 -1.12,-0.691 -2.37,-0.801 -3.74,-0.371 -1.4,0.41 -2.5,1.262 -3.28,2.57 -0.89,1.571 -1.15,3.192 -0.7,4.911 0.45,1.679 1.43,2.98 2.97,3.921 1.13,0.68 2.42,1.039 3.85,1.039 1.44,-0.019 2.77,-0.41 4.02,-1.179 1.27,-0.801 2.34,-1.93 3.22,-3.41 1.47,-2.442 2.07,-5.34 1.86,-8.661 -0.24,-3.218 -0.82,-7.109 -2.05,-10.839 -1.15,-3.532 -2.93,-6.95 -4.63,-9.7 -1.78,-2.82 -3.97,-4.793 -6.58,-5.902 -1.6,-0.699 -3.13,-1 -4.61,-0.879 -1.45,0.121 -2.78,0.59 -3.95,1.41 -1.17,0.84 -1.99,1.871 -2.52,3.121 -0.68,1.641 -0.72,3.278 -0.08,4.899 0.65,1.64 1.8,2.84 3.46,3.558 1.39,0.582 2.79,0.641 4.16,0.153 1.37,-0.461 2.29,-1.281 2.79,-2.5 0.18,-0.41 0.28,-0.852 0.32,-1.34 0.04,-0.43 0,-0.922 -0.14,-1.449 1.21,1.039 2.15,2.109 2.79,3.218 0.67,1.161 2.15,3.461 3.4,7.329 1.33,4.101 1.45,6.703 1.58,8.011"
           style="fill:#1574c4;fill-opacity:1;fill-rule:nonzero;stroke:none"
           id="path68"
           inkscape:connector-curvature="0" />
        <path
           d="m 955.945,154.43 16.782,18.64 5.269,-4.75 -1.543,-1.718 c -0.855,-0.981 -1.348,-1.704 -1.441,-2.231 -0.141,-0.5 -0.102,-1.012 0.156,-1.48 0.215,-0.45 0.918,-1.211 2.09,-2.282 l 6.66,-5.98 12.52,13.891 -7.153,6.441 c -0.879,0.777 -1.519,1.25 -1.93,1.43 -0.57,0.25 -1.093,0.269 -1.562,0.07 -0.473,-0.191 -1.25,-0.891 -2.309,-2.07 l -1.304,-1.442 -5.293,4.75 16.836,18.692 5.269,-4.77 -1.402,-1.562 c -0.957,-1.059 -1.485,-1.84 -1.621,-2.348 -0.156,-0.5 -0.117,-0.973 0.094,-1.422 0.214,-0.43 0.941,-1.207 2.23,-2.34 l 20.667,-18.617 c 1.28,-1.152 2.18,-1.812 2.71,-1.992 0.53,-0.16 1.04,-0.141 1.5,0.058 0.49,0.231 1.29,0.993 2.45,2.262 l 0.97,1.121 5.29,-4.769 -16.83,-18.692 -5.27,4.75 1.09,1.25 c 1.05,1.149 1.66,1.989 1.84,2.551 0.19,0.59 0.17,1.117 -0.04,1.59 -0.2,0.469 -0.94,1.269 -2.21,2.418 l -8.07,7.262 -12.519,-13.879 8.09,-7.293 c 1.25,-1.129 2.109,-1.789 2.519,-1.969 0.6,-0.23 1.17,-0.211 1.66,0.039 0.49,0.25 1.27,0.981 2.3,2.133 l 1.18,1.289 5.27,-4.75 -16.781,-18.652 -5.269,4.761 1.133,1.25 c 0.933,1.059 1.519,1.879 1.715,2.481 0.199,0.57 0.199,1.097 0,1.531 -0.196,0.469 -0.821,1.188 -1.93,2.207 l -20.754,18.652 c -1.301,1.168 -2.207,1.848 -2.727,2.028 -0.535,0.211 -1.043,0.25 -1.519,0.082 -0.488,-0.18 -1.153,-0.731 -2.004,-1.68 l -1.516,-1.68 -5.293,4.739"
           style="fill:#1574c4;fill-opacity:1;fill-rule:nonzero;stroke:none"
           id="path70"
           inkscape:connector-curvature="0" />
        <path
           d="m 871.008,91.2305 39.617,23.8085 3.66,-6.09 -1.961,-1.179 c -1.125,-0.68 -1.828,-1.25 -2.082,-1.68 -0.254,-0.41 -0.332,-0.879 -0.254,-1.442 0.09,-0.507 0.5,-1.386 1.235,-2.617 l 14.636,-24.3513 c 0.789,-1.3281 1.375,-2.1289 1.758,-2.4297 0.379,-0.2891 0.789,-0.4297 1.238,-0.3711 0.598,0.0195 1.348,0.3008 2.231,0.8203 l 2.32,1.4102 3.672,-6.0899 -21.465,-12.8984 -3.66,6.0977 1.738,1.0312 c 1.243,0.75 2,1.3086 2.293,1.7188 0.254,0.4101 0.364,0.8632 0.293,1.332 -0.054,0.5312 -0.418,1.3711 -1.109,2.5195 l -14.707,24.4492 c -0.82,1.3711 -1.445,2.211 -1.898,2.5196 -0.426,0.332 -0.926,0.4922 -1.485,0.4726 -0.39,0 -1.172,-0.3515 -2.305,-1.0312 l -3.179,-1.9219 c -1.211,-0.7188 -1.953,-1.3086 -2.199,-1.7578 -0.286,-0.4102 -0.364,-0.8711 -0.286,-1.4024 0.102,-0.5078 0.579,-1.5273 1.477,-3.0273 l 10.613,-17.6406 c 1.645,-2.75 2.719,-4.8399 3.164,-6.2813 0.688,-2.0586 0.805,-4.4179 0.356,-7.0898 -0.449,-2.6797 -1.574,-5.2188 -3.371,-7.6211 -1.77,-2.3789 -3.387,-4.0078 -6.66,-5.9766 -3.528,-2.1133 -5.469,-2.4609 -8.665,-2.75 -3.179,-0.3008 -5.757,0.4102 -8.425,1.6797 -2.688,1.25 -4.895,2.8672 -6.219,5.0977 -1.242,2.0507 -2.094,4.4101 -1.867,5.7226 0.359,2.1875 0.527,2.9883 2.531,4.1797 1.617,0.9688 3.848,0.0781 4.793,-0.5117 0.969,-0.5508 1.824,-1.2305 2.402,-2.168 l 1.231,-2.0508 c 0.691,-1.1523 1.64,-2.0898 2.812,-2.8125 0.867,-0.5468 1.895,-0.7773 3.098,-0.7187 1.219,0.0508 5.098,2.0703 6.25,2.7695 1.519,0.9024 2.539,2.1328 3.062,3.6328 0.508,1.5078 0.508,3.1094 -0.027,4.75 -0.293,0.9688 -1.238,2.7696 -2.844,5.4297 l -10.972,18.2774 c -0.559,0.9218 -0.95,1.5 -1.196,1.7226 -0.484,0.4297 -1.011,0.5977 -1.558,0.5781 -0.539,-0.0195 -1.313,-0.3281 -2.324,-0.9296 l -2.114,-1.2696 -3.648,6.0899"
           style="fill:#1574c4;fill-opacity:1;fill-rule:nonzero;stroke:none"
           id="path72"
           inkscape:connector-curvature="0" />
        <path
           d="m 827.195,66.4102 c -3.621,-1.4297 -5.972,-3.9297 -7.05,-7.4805 -1.344,-4.5 -0.946,-9.4609 1.183,-14.8711 2.117,-5.3867 5.067,-9.1992 8.84,-11.3477 3.223,-1.8515 6.609,-2.0703 10.184,-0.6601 3.574,1.4101 5.918,3.8906 6.992,7.418 1.277,4.2421 0.847,9.0507 -1.281,14.4218 -1.485,3.8086 -3.29,6.7696 -5.411,8.918 -2.089,2.1523 -4.304,3.5 -6.66,4.0508 -2.351,0.5625 -4.617,0.4101 -6.797,-0.4492 z m -3.125,7.5507 c 7.578,2.9883 14.629,3.0899 21.133,0.3399 6.508,-2.7813 11.192,-7.7813 14.043,-15 1.914,-4.8711 2.539,-9.6094 1.887,-14.2422 -0.664,-4.6094 -2.473,-8.6875 -5.457,-12.2266 -2.973,-3.5117 -7.129,-6.332 -12.473,-8.4414 -7.058,-2.7695 -13.601,-3.1015 -19.629,-0.9922 -7.273,2.543 -12.453,7.711 -15.539,15.5625 -2.867,7.2696 -2.847,14.1602 0.078,20.668 2.942,6.5195 8.274,11.3125 15.957,14.332"
           style="fill:#1574c4;fill-opacity:1;fill-rule:nonzero;stroke:none"
           id="path74"
           inkscape:connector-curvature="0" />
        <path
           d="m 772.871,14.8398 -2.433,14.379 4.32,0.7421 c 2.637,0.4493 4.605,0.5079 5.933,0.1797 1.34,-0.3515 2.461,-1.0195 3.418,-2 0.93,-1.0117 1.543,-2.3008 1.797,-3.8398 0.395,-2.332 -0.191,-4.3203 -1.758,-5.9805 -1.152,-1.2305 -3.027,-2.0898 -5.652,-2.5195 z m -25.754,39.2188 1.184,-7.0078 1.711,0.289 c 1.492,0.2618 2.515,0.3204 3.023,0.1797 0.52,-0.1211 0.942,-0.4101 1.235,-0.8203 0.293,-0.4492 0.566,-1.4297 0.82,-2.8906 l 4.707,-27.8477 c 0.254,-1.5507 0.348,-2.582 0.23,-3.1093 -0.117,-0.5313 -0.371,-0.961 -0.757,-1.2305 -0.375,-0.3125 -1.157,-0.582 -2.344,-0.7813 l -2.422,-0.4101 1.18,-7.00782 26.75,4.52734 c 3.394,0.58984 6.129,1.41016 8.242,2.48048 2.144,1.0508 3.894,2.4219 5.242,4.1016 1.387,1.6796 2.352,3.5585 2.898,5.6289 0.547,2.0703 0.637,4.1796 0.278,6.3203 -0.727,4.3398 -3.008,7.6797 -6.848,10.0586 -3.808,2.3711 -8.652,3.0507 -14.512,2.0507 l -8.632,-1.4414 -1.614,9.4532 c -0.191,1.1875 -0.242,1.9492 -0.117,2.3086 0.141,0.4804 0.41,0.8906 0.805,1.1718 0.418,0.2891 5.301,1.2266 6.367,1.418 l 1.473,0.2383 c 1.23,0.2109 2.547,0.043 3.933,-0.5274 1.836,-0.7421 3.547,-1.8711 5.141,-3.4414 0.808,-0.7812 2.488,-2.75 4.488,-5.4492 l 6.36,3.5 -9.29,16.6797 -4.824,-0.8203 -0.332,-1.8008 -34.375,-5.8203"
           style="fill:#1574c4;fill-opacity:1;fill-rule:nonzero;stroke:none"
           id="path76"
           inkscape:connector-curvature="0" />
        <path
           d="m 695.266,52.8711 4.863,0.1172 0.555,-1.6992 28.957,0.7617 0.586,1.7383 4.902,0.1406 6.824,-17.8399 -6.765,-2.5703 c -1.602,2.9414 -2.754,4.8594 -3.442,5.7618 -1.348,1.7578 -2.867,3.1171 -4.59,4.1171 -1.316,0.7422 -2.578,1.0899 -3.828,1.0704 -0.586,-0.0196 -0.992,-0.168 -1.211,-0.4688 -0.215,-0.2695 -0.308,-0.9102 -0.293,-1.9297 l 0.805,-29.5117 c 0.027,-1.7383 0.113,-2.82813 0.262,-3.25782 0.129,-0.44922 0.339,-0.80078 0.632,-1.0625 0.317,-0.25 0.723,-0.40625 1.243,-0.48828 0.515,-0.05078 1.882,-0.05078 4.129,0 L 729.07,0.640625 704.055,0 l -0.188,7.08984 1.504,0.0586 c 1.672,0.02344 2.742,0.15234 3.203,0.35156 0.449,0.25 0.801,0.62109 1.028,1.14844 0.242,0.55078 0.339,1.64066 0.293,3.32036 l -0.801,30.1796 c -0.024,0.8633 -0.141,1.4024 -0.332,1.6211 -0.207,0.211 -0.625,0.2891 -1.262,0.2891 -1.277,-0.0391 -2.687,-0.5391 -4.23,-1.5391 -1.54,-1.0195 -2.911,-2.3789 -4.098,-4.1601 -0.473,-0.6992 -1.457,-2.6602 -2.973,-5.8594 l -6.797,2.2109 5.864,18.1602"
           style="fill:#1574c4;fill-opacity:1;fill-rule:nonzero;stroke:none"
           id="path78"
           inkscape:connector-curvature="0" />
        <path
           d="m 641.57,57.3789 22.793,-2.7891 -0.855,-7.0703 -1.496,0.1914 c -1.367,0.1602 -2.246,0.1797 -2.637,0.0196 -0.352,-0.1289 -0.559,-0.3711 -0.605,-0.6992 -0.032,-0.293 0.117,-1.0899 0.476,-2.3829 l 3.867,-13.8671 7.367,12.457 c 0.555,0.9609 0.868,1.6406 0.907,2.0937 0.051,0.3868 -0.086,0.7071 -0.442,0.9375 -0.332,0.2696 -1.148,0.4922 -2.468,0.6407 l -2.082,0.2617 0.863,7.0469 19.695,-2.418 -0.859,-7.0508 c -1.731,0.1914 -2.766,0.25 -3.059,0.1914 -0.437,-0.0625 -0.789,-0.1719 -1.101,-0.4297 -0.293,-0.2304 -0.829,-0.9219 -1.582,-2.0703 l -20.684,-31.832 c -2.156,-3.32034 -4.348,-5.57034 -6.57,-6.71877 -2.239,-1.16016 -4.785,-1.57032 -7.637,-1.21094 -2.773,0.33203 -4.934,1.35937 -6.484,3.03906 -1.528,1.67969 -2.18,3.44141 -1.957,5.30075 0.175,1.4414 0.851,2.6524 2.011,3.6094 1.145,0.9219 2.446,1.293 3.879,1.1094 0.969,-0.1172 1.895,-0.4883 2.766,-1.0664 0.562,-0.3906 1.121,-1.0235 1.66,-1.8399 0.332,-0.5429 0.594,-0.8828 0.809,-1.0312 0.222,-0.1797 0.449,-0.2813 0.656,-0.3203 0.515,-0.0508 1.043,0.1406 1.59,0.5508 0.82,0.6796 1.816,1.9492 2.988,3.8281 l 1.758,2.832 -9.219,27.5781 c -0.449,1.3907 -0.828,2.2696 -1.121,2.6797 -0.277,0.3711 -0.617,0.6406 -1.008,0.8203 -0.41,0.1719 -1.434,0.3516 -3.086,0.5391 l 0.867,7.0703"
           style="fill:#1574c4;fill-opacity:1;fill-rule:nonzero;stroke:none"
           id="path80"
           inkscape:connector-curvature="0" />
        <path
           d="m 1019.81,561.25 c 2.13,-4.379 4.3,-6.449 7.76,-8.871 l -1.45,-2.047 2.29,-4.711 18.79,3.559 -1.21,7.031 c -4.95,0.121 -7.46,0.449 -10,1.449 -3.5,1.399 -5.96,3.57 -7.41,6.52 -1.38,2.851 -1.21,5.019 -0.76,6.66 0.45,1.66 1.53,2.808 3.01,3.519 1.07,0.52 2.25,0.7 3.54,0.5 1.25,-0.211 2.34,-0.82 3.32,-1.789 0.95,-0.961 2.07,-2.781 3.39,-5.468 l 1.04,-2.133 6.41,3.101 -1.06,2.149 c -1.66,3.402 -2.38,6.14 -2.19,8.242 0.28,2.719 1.76,4.75 4.48,6.059 1.48,0.718 2.89,1.031 4.25,0.941 1.35,-0.121 2.68,-0.672 4.01,-1.66 1.31,-0.961 2.32,-2.172 3.01,-3.582 0.58,-1.207 0.91,-2.52 0.97,-3.938 0.08,-1.41 -0.1,-2.543 -0.49,-3.383 -0.41,-0.839 -1.46,-2.046 -3.16,-3.668 -1.29,-1.269 -2.07,-2.41 -2.38,-3.421 -0.45,-1.579 -0.34,-3.11 0.37,-4.528 0.74,-1.511 1.87,-2.519 3.45,-3.07 1.59,-0.551 3.11,-0.449 4.59,0.269 1.94,0.961 3.52,2.641 4.75,5.102 1.23,2.457 1.76,5.488 1.6,9.078 -0.17,3.621 -1.19,7.328 -3.04,11.16 -1.92,3.879 -4.28,6.989 -7.06,9.289 -2.79,2.289 -5.68,3.641 -8.61,4.071 -2.95,0.429 -5.68,0.019 -8.22,-1.219 -1.39,-0.699 -2.6,-1.582 -3.59,-2.652 -0.98,-1.059 -1.7,-2.309 -2.17,-3.707 -0.51,-1.43 -0.76,-2.954 -0.75,-4.551 0,-1.621 0.3,-3.281 0.94,-5.039 -1.6,1.476 -2.97,2.539 -4.1,3.117 -1.72,0.883 -3.51,1.371 -5.39,1.473 -1.89,0.097 -3.61,-0.243 -5.16,-1 -1.97,-0.961 -3.55,-2.563 -4.76,-4.782 -1.21,-2.191 -1.76,-4.929 -1.62,-8.172 0.11,-3.238 0.97,-6.558 2.61,-9.898"
           style="fill:#1574c4;fill-opacity:1;fill-rule:nonzero;stroke:none"
           id="path82"
           inkscape:connector-curvature="0" />
        <path
           d="m 529.102,794.395 c -6.387,-8.145 -14.247,-18.985 -23.809,-31.426 0,0 3.562,-0.235 7.852,-6.016 18.339,11.895 36.125,-31.64 7.773,-35.117 0,0 -10.254,-15.352 -19.668,-7.129 0,0 8.34,2.09 7.012,8.848 0,0 -11.035,4.453 -5.821,11.933 -21.687,-11.074 -21.269,10.293 -24.863,8.555 0,0 -23.574,-1.152 -24.707,-36.191 4.317,-3.809 8.359,-35.332 -16.504,-26.758 0,0 -5.801,-6.289 -1.562,-18.008 0,0 -11.629,5.664 -8.106,20.664 -8.738,-2.285 -18.906,31.68 10.606,31.777 0,0 -5.789,15.899 14.66,21.446 0,0 -30.664,2.285 -34.555,-10.957 -0.808,-2.715 -4.195,-23.711 -25.887,-14.59 0,0 -7.753,-3.281 -9.453,-14.942 -5.058,8.36 -8.125,19.668 1.043,25.137 -9.285,22.051 9.172,26.621 22.778,20.957 -0.532,6.133 -0.227,17.617 27.078,14.18 0,0 -23.836,13.496 -25.891,6.582 -6.805,-9.238 -24.48,-12.422 -27.098,2.051 0,0 -7.675,4.629 -14.929,-8.75 0,0 -4.16,20.625 10.887,20.097 0.058,6.914 16.113,28.535 43.398,3.926 12.051,-2.519 10.398,10.977 24.336,-0.449 16.496,24.785 28.699,-2.266 42.207,3.34 8.535,3.047 14.785,12.715 23.398,22.148 -5.957,-0.332 -12.214,-0.781 -16.023,-0.019 -3.813,0.488 -5.324,2.519 -4.066,4.804 2.277,5.567 6.847,10.918 6.847,10.918 4.434,-1.406 13.516,-3.906 22.695,-6.699 9.208,-2.773 18.516,-5.859 23.458,-8.262 6.093,-2.793 16.23,-8.379 17.988,-13.203 l 0.515,-2.031 0.266,-2.031 v -2.032 l -0.496,-2.031 -1.027,-1.758 -1.789,-2.285 c -5.055,10.879 -9.637,14.453 -16.981,15.957 -3.652,0.879 -8.73,-1.211 -11.562,-2.636 z m 220.527,40.418 c 5.051,-2.516 13.191,-8.602 20.781,-21.532 7.61,-13.183 24.082,-24.101 37.278,-32.715 13.21,-8.378 17.507,-23.339 17.507,-23.339 -29.668,0.253 -48.945,31.953 -57.566,42.871 -8.879,10.898 -13.441,11.914 -13.441,11.914 -2.047,-29.16 25.109,-48.457 43.371,-60.86 18.254,-12.168 19.531,-28.398 19.531,-28.398 -61.621,5.84 -78.613,84.18 -78.613,84.18 l 2.031,3.554 0.742,1.778 1.023,1.757 1.516,3.321 1.024,1.777 0.507,1.758 0.743,1.777 1.281,3.301 0.488,1.777 0.508,1.77 0.515,1.773 0.278,1.77 z m 64.668,0.773 1.766,-0.773 1.769,-0.497 1.797,-0.507 2.019,-0.246 2.024,-0.25 c 1.262,0 25.605,-16.731 28.398,-33.215 2.285,-14.453 -5.066,-21.309 -8.879,-23.086 -3.523,-2.032 -20.281,-8.614 -31.453,13.691 0,0 18.516,-6.074 23.848,2.793 5.078,9.121 -3.059,22.305 -8.359,25.879 -6.602,5.059 -18.77,8.613 -25.879,7.09 0,0 5.82,5.578 12.949,9.121 z m 70.742,-17.5 -2.031,-0.508 -2.278,-0.742 -1.785,-0.781 -2.265,-0.996 -1.797,-0.528 -1.77,-0.761 -1.773,-0.997 -1.762,-0.761 -2.027,-1.016 -1.781,-1.016 -2.02,-1.25 -2.031,-1.035 c 0,0 -4.563,1.778 -6.864,6.075 -2.265,4.082 -11.664,18.015 -20.019,19.793 0,0 7.09,0.507 11.414,2.023 0,0 8.855,-2.273 15.195,-5.086 6.348,-2.258 14.219,-6.34 23.594,-12.414 z m -24.609,-38.047 -1.504,1.797 -1.543,1.777 -0.75,2.032 -0.5,2.011 v 2.032 l 0.5,2.265 c 2.293,6.113 12.176,11.699 18.25,14.492 10.156,4.805 37.539,12.168 46.418,14.961 0,0 4.304,-5.351 6.863,-10.918 0.762,-2.285 -0.527,-4.316 -4.336,-4.804 -2.683,-0.547 -6.738,-0.469 -11.047,-0.254 9.094,-9.414 13.481,-18.555 22.766,-21.875 13.535,-5.606 25.742,21.445 42.207,-3.34 13.945,11.426 12.305,-2.07 24.356,0.449 27.27,24.609 43.32,2.988 43.4,-3.926 15.04,0.528 10.88,-20.097 10.88,-20.097 -7.25,13.379 -14.93,8.75 -14.93,8.75 -2.63,-14.473 -20.29,-11.289 -27.1,-2.051 -2.06,6.914 -25.883,-6.582 -25.883,-6.582 27.303,3.437 27.613,-8.047 27.073,-14.18 13.61,5.664 32.05,1.094 22.79,-20.957 9.14,-5.469 6.09,-16.777 1.04,-25.137 -1.7,11.661 -9.46,14.942 -9.46,14.942 -21.7,-9.121 -25.1,11.875 -25.9,14.59 -3.88,13.242 -34.555,10.957 -34.555,10.957 20.457,-5.547 14.676,-21.446 14.676,-21.446 29.489,-0.097 19.339,-34.062 10.605,-31.777 3.516,-15 -8.125,-20.664 -8.125,-20.664 4.258,11.719 -1.562,18.008 -1.562,18.008 -24.844,-8.574 -20.801,22.949 -16.485,26.758 -1.133,35.039 -24.726,36.191 -24.726,36.191 -3.567,1.738 -3.164,-19.629 -24.844,-8.555 5.215,-7.48 -5.828,-11.933 -5.828,-11.933 -1.321,-6.758 7.019,-8.848 7.019,-8.848 -9.433,-8.223 -19.687,7.129 -19.687,7.129 -28.34,3.477 -10.547,47.012 7.773,35.117 4.309,5.781 7.871,6.016 7.871,6.016 -11.804,15.351 -19.726,25.937 -26.211,33.398 0.079,-1.035 0.164,-2.09 0.164,-3.125 0,0 -8.367,5.078 -13.679,3.789 -7.371,-1.504 -11.68,-5.078 -15.996,-16.992 z m -25.594,81.426 2.519,-0.774 2.821,-1.011 3.015,-0.754 3.313,-0.774 3.281,-0.757 3.555,-0.747 3.816,-1.023 3.535,-0.773 3.813,-0.758 3.543,-0.742 3.555,-0.786 1.777,-0.23 1.758,-0.52 3.054,-0.761 3.032,-0.508 2.554,-0.774 2.524,-0.742 c 11.414,-3.562 19.785,-9.136 30.945,-21.297 0,0 -16.992,-4.57 -25.879,-7.617 0,0 -14.453,9.895 -30.429,15.711 -10.379,4.067 -15.208,14.985 -26.102,25.637 z m -38.547,24.59 1.27,2.019 1.269,2.024 0.762,1.789 0.996,2.019 0.762,2.032 0.781,2.277 0.254,1.773 0.488,2.539 v 1.782 l 0.254,2.031 -0.254,2.027 c 0,0 22.82,-14.461 29.668,-19.773 6.602,-5.594 21.055,-20.301 24.094,-25.11 0,0 -17.238,3.813 -30.422,8.11 -14.473,4.824 -24.59,11.406 -29.922,14.461 z m -13.691,-13.196 2.285,1.536 2.004,1.511 1.773,1.77 1.789,1.765 c 1.016,1.036 14.199,-3.777 25.098,-11.128 10.664,-7.368 21.301,-19.797 27.129,-26.145 0,0 -16.223,-4.043 -26.613,0.52 0,0 -3.805,15.464 -15.223,22.324 -2.512,1.511 -10.652,4.051 -18.242,7.847 z m -44.121,32.461 c 10.82,-19.121 36.66,-39.09 53.488,-44.375 13.953,-4.058 17,-19.785 17,-19.785 -5.84,-3.035 -8.633,-10.39 -20.801,-10.39 -13.684,0 -28.644,13.703 -39.031,31.691 l -1.301,2.551 -1.25,2.793 -1.262,3.023 -1.023,3.313 -1.016,3.027 -0.769,3.562 -0.754,3.293 -0.75,3.301 -0.766,3.047 -0.515,3.035 -0.508,3.039 -0.242,2.539 -0.247,2.278 -0.253,1.773 z m 34.726,34.493 c 4.063,-7.364 13.684,-18.258 18.02,-23.336 3.797,-4.563 6.336,-11.157 2.273,-20.286 -4.055,-9.89 -14.961,-17.492 -14.961,-17.492 -16.484,11.672 -19.015,22.817 -17.258,31.946 l 0.774,2.293 0.769,2.011 0.743,1.801 0.773,2.012 0.754,1.773 1.531,3.293 1.016,2.024 0.761,2.293 0.997,2.031 0.773,2.019 1.004,2.024 0.769,2.043 0.52,1.773 z m -105.488,-105 0.254,-1.766 0.254,-1.77 0.507,-1.773 0.516,-1.77 0.5,-1.777 0.762,-1.777 1.262,-3.301 0.757,-1.758 0.774,-1.777 0.742,-1.797 1.785,-3.281 1.02,-1.778 0.757,-1.758 1.028,-1.796 c 0,0 -16.746,-78.34 -78.379,-84.18 0,0 1.277,16.23 19.277,28.398 18.262,12.403 45.645,31.7 43.614,60.86 0,0 -5.059,-1.016 -13.68,-11.914 -8.625,-10.918 -27.902,-42.618 -57.317,-42.871 0,0 4.305,14.961 17.493,23.339 12.949,8.614 29.668,19.532 37.285,32.715 7.605,12.93 15.476,19.016 20.789,21.532 z m -64.668,0.773 c 6.855,-3.543 12.93,-9.121 12.93,-9.121 -7.364,1.523 -19.258,-2.031 -26.114,-7.09 -5.09,-3.574 -13.183,-16.758 -8.371,-25.879 5.324,-8.867 23.84,-2.793 23.84,-2.793 -10.898,-22.305 -27.656,-15.723 -31.437,-13.691 -3.563,1.777 -11.161,8.633 -8.622,23.086 2.774,16.484 26.875,33.215 26.875,33.215 h 1.77 l 2.039,0.25 1.758,0.246 1.789,0.507 1.773,0.497 z m -70.75,-17.5 c 9.129,6.074 16.98,10.156 23.328,12.414 6.582,2.813 15.215,5.086 15.215,5.086 4.316,-1.516 11.66,-2.023 11.66,-2.023 -8.605,-1.778 -17.988,-15.711 -20.293,-19.793 -2.273,-4.297 -6.824,-6.075 -6.824,-6.075 l -2.043,1.035 -1.77,1.25 -2.039,1.016 -1.758,1.016 -2.031,0.761 -1.777,0.997 -1.777,0.761 -2.278,1.016 -2.273,0.781 -1.785,0.762 -2.024,0.488 z m 49.969,43.379 c -10.918,-10.652 -15.735,-21.57 -26.133,-25.637 -15.703,-5.816 -30.188,-15.711 -30.188,-15.711 -9.109,3.047 -25.847,7.617 -25.847,7.617 10.898,12.161 19.265,17.735 30.937,21.297 l 2.278,0.742 2.792,0.774 2.782,0.508 1.777,0.5 3.301,0.781 5.066,1.016 3.801,0.742 3.555,0.758 3.789,0.773 3.574,1.023 3.535,0.747 1.785,0.25 1.77,0.507 3.293,0.774 3.055,0.754 2.785,1.011 z m 38.535,24.59 c -5.332,-3.055 -15.203,-9.637 -29.68,-14.461 -13.445,-4.297 -30.66,-8.11 -30.66,-8.11 3.289,4.809 17.5,19.516 24.312,25.11 6.86,5.312 29.692,19.773 29.692,19.773 l -0.246,-2.027 v -2.031 l 0.246,-1.782 0.254,-1.757 0.242,-1.786 0.762,-2.273 0.761,-2.285 0.762,-2.031 0.762,-1.782 1.269,-2.019 1.004,-1.77 z m 13.679,-13.196 c -7.605,-3.796 -15.457,-6.336 -18.242,-7.847 -11.414,-6.86 -15.215,-22.324 -15.215,-22.324 -10.398,-4.563 -26.375,-0.52 -26.375,-0.52 5.586,6.348 16.231,18.777 26.883,26.145 11.145,7.351 24.094,12.164 24.094,12.164 l 1.516,-1.778 1.785,-1.531 1.765,-1.504 1.77,-1.269 z m 44.399,32.981 v -1.777 l -0.246,-1.778 -0.274,-2.297 -0.254,-2.273 -0.5,-2.781 -0.496,-3.047 -0.527,-3.032 -0.996,-4.832 -0.781,-3.293 -0.996,-3.562 -0.762,-3.027 -0.762,-1.789 -1.015,-3.036 -1.282,-3.039 -1.258,-2.539 c -10.91,-19.265 -26.132,-32.968 -39.558,-32.968 -12.192,0 -14.731,7.355 -21.047,10.39 0,0 3.035,15.727 16.98,19.785 16.997,5.332 43.118,25.61 53.774,44.895 z m -34.992,33.973 0.742,-1.778 0.508,-1.773 1.015,-2.043 0.774,-2.024 0.762,-2.019 1.003,-2.031 1.028,-2.293 0.75,-2.024 1.015,-2.273 0.774,-2.035 1.004,-1.766 0.508,-1.785 0.761,-1.781 0.762,-2.008 c 2.527,-10.664 -0.254,-21.809 -16.738,-33.481 0,0 -10.657,7.602 -14.969,17.492 -4.055,9.129 -1.523,15.723 2.535,20.286 4.067,5.078 13.945,15.972 17.766,23.336 z m 81.394,-152.391 c -1.265,-23.086 24.348,-31.699 24.348,-31.699 -8.633,-3.047 -18.516,-4.551 -34.473,10.39 -2.551,2.793 -4.851,5.567 -6.621,8.867 -1.515,-3.3 -3.789,-6.074 -6.582,-8.867 -15.723,-14.941 -25.625,-13.437 -34.492,-10.39 0,0 25.852,8.613 24.336,31.699 -1.516,22.812 -14.442,36.758 -16.719,48.406 -2.551,13.203 -1.523,25.637 8.613,40.844 8.106,-28.156 17.247,-48.684 24.336,-62.902 8.106,14.218 17.254,34.746 25.352,62.902 10.41,-15.207 11.172,-27.641 8.625,-40.844 l -0.5,-2.019 -0.742,-2.278 -1.035,-2.508 -0.997,-2.558 -1.289,-2.539 -1.269,-2.52 -1.504,-2.793 -1.289,-2.812 -1.504,-3.028 -1.262,-3.046 -0.769,-1.778 -1.028,-3.301 -0.742,-1.757 -0.515,-1.778 -0.508,-1.758 -0.254,-1.796 -0.488,-2.032 -0.254,-2.031 -0.254,-2.012 -0.293,-2.05 z m 57.824,211.211 c 19.512,-18.242 21.297,-32.953 19.278,-42.074 -2.285,-9.137 -11.934,-28.922 -11.934,-28.922 -4.062,7.097 -16.23,23.082 -19.023,34.492 l -0.508,2.281 -0.254,2.274 0.254,2.554 0.254,2.778 0.769,2.527 0.762,2.797 0.754,2.539 1.023,2.789 1.262,2.523 1.016,2.551 1.262,2.278 1.011,2.031 1.289,2.031 1.008,1.77 1.27,2.289 z m -44.89,-3.035 1.512,-2.028 1.281,-1.769 1.773,-2.274 2.032,-2.554 2.023,-3.035 2.297,-3.297 0.996,-1.786 1.277,-1.761 0.996,-1.781 1.282,-1.766 0.996,-2.031 1.035,-1.782 1.004,-1.773 0.761,-2.027 1.016,-1.789 0.762,-1.762 0.762,-2.031 0.5,-1.778 0.496,-1.765 0.8,-3.313 v -2.273 c -0.527,-20.293 -13.476,-32.969 -15.507,-45.137 0,0 -12.657,14.449 -17.493,24.09 -5.554,11.172 -9.878,20.285 -8.113,32.715 1.27,12.422 4.578,20.273 17.512,32.707 z m -29.68,-161.02 c -0.754,9.145 -19.277,37.016 -20.273,66.192 -0.254,14.691 12.676,38.019 20.039,46.652 7.832,-8.633 21.289,-31.961 20.515,-46.652 v -2.793 l -0.242,-2.539 -0.254,-2.801 -0.488,-2.785 -0.519,-2.528 -0.516,-2.804 -0.488,-2.516 -0.774,-2.539 -0.762,-2.539 -0.757,-2.531 -0.754,-2.547 -1.028,-2.532 -0.75,-2.273 -0.781,-2.563 -1.008,-2.273 -1.023,-2.019 -0.742,-2.29 -1.016,-2.031 -0.781,-2.019 -0.977,-2.032 -0.781,-2.043 -0.754,-1.765 -0.769,-1.77 -1.524,-3.3 -1.023,-2.793 -0.989,-2.528 -0.507,-2.031 z m 99.414,231.002 c 3.543,-7.35 8.633,-17.75 11.414,-25.85 3.047,-7.87 2.285,-20.29 -0.254,-28.15 -2.273,-7.62 -16.492,-25.865 -16.492,-25.865 -1.777,6.336 -7.09,12.426 -11.394,22.815 -4.836,11.92 -4.055,18.51 -1.274,28.41 l 0.754,1.77 0.52,1.78 1.504,2.52 1.023,1.79 1.777,2.52 1.258,1.78 1.262,1.77 1.543,1.78 1.25,1.79 1.543,1.77 1.25,2.02 1.289,1.76 0.996,1.8 1.008,1.76 z m -49.707,-2.28 c 4.063,-8.37 13.184,-16.72 17.5,-24.59 4.309,-8.11 5.086,-20.53 2.278,-29.42 -3.801,-11.661 -21.301,-28.142 -21.301,-28.142 -5.071,8.872 -12.676,20.532 -15.215,26.372 -2.024,6.09 -3.535,13.18 -2.024,21.8 l 0.5,2.03 0.782,2.28 0.742,2.28 1.277,2.29 1.262,2.29 1.277,2.28 1.262,2.28 1.516,2.27 1.531,2.04 1.523,2.28 1.25,2.03 1.524,2.29 1.269,1.77 1.27,2.03 1.015,1.77 z m -49.433,-87.987 c -2.305,7.355 -13.184,15.976 -17.754,28.647 -2.793,7.37 -2.793,16.24 0.254,22.33 3.535,6.85 15.711,24.08 17.246,28.91 1.504,-4.83 13.925,-22.06 17.246,-28.91 3.015,-6.09 3.015,-14.96 0.508,-22.33 l -1.028,-2.28 -1.023,-2.278 -1.27,-2.023 -1.25,-2.031 -1.269,-2.028 -1.281,-2.031 -1.512,-1.773 -1.281,-1.774 -1.239,-1.773 -1.797,-2.281 -1.269,-1.786 -1.516,-2.285 -1.023,-2.027 z m 78.359,157.467 0.742,-1.76 1.016,-2.29 1.262,-2.28 1.531,-2.28 1.777,-2.8 2.031,-2.77 2.801,-4.31 2.004,-3.05 2.051,-2.8 1.765,-2.53 1.77,-2.55 1.77,-2.01 1.277,-1.77 1.531,-1.78 c 0.5,-0.53 -1.031,-10.16 -7.879,-23.84 -7.351,-13.96 -16.992,-23.59 -22.312,-28.39 0.015,0 -11.66,20.53 -15.215,29.39 -4.074,10.39 -3.801,20.81 -1.77,24.62 3.797,8.86 17.508,21.79 23.848,33.2 z m 54.758,-12.92 c -6.34,-6.34 -7.856,-7.59 -14.446,-12.18 -6.347,-4.57 -12.175,-3.29 -12.175,-3.29 2.019,6.34 13.699,28.16 13.699,28.16 l 1.504,-2.04 1.789,-1.52 2.273,-2.29 1.778,-1.76 1.777,-1.79 1.785,-1.52 1.77,-1.53 z m 4.07,5.07 c -7.117,5.59 -10.41,9.37 -12.683,15.98 -2.805,7.86 -0.774,31.7 -0.774,31.7 14.707,-7.11 32.461,2.53 32.461,2.53 v -1.77 -1.78 l -0.242,-1.78 -0.254,-1.77 -0.266,-2.02 -0.488,-1.79 -0.508,-1.76 -0.527,-2.04 -0.508,-1.77 -0.762,-1.78 -1.269,-3.81 -1.504,-3.79 -1.516,-3.57 -0.769,-1.76 -1.524,-3.3 -1.777,-3.3 -1.531,-2.78 -1.262,-2.79 -1.504,-2.28 -1.289,-2.04 -0.996,-1.77 z m -41.594,71.01 2.278,-2.8 2.519,-3.03 2.539,-2.79 2.559,-2.8 2.793,-2.77 2.019,-1.79 1.782,-1.53 2.019,-1.25 1.778,-1.02 c 0,0 2.292,-14.71 1.003,-24.61 -1.765,-14.45 -11.406,-29.41 -15.195,-40.57 0,0 -16.004,20.8 -17.508,32.97 -2.031,12.17 -1.765,22.07 -2.285,27.9 0,0 8.867,14.19 13.699,24.09 z m -45.144,-83.67 -0.762,2.26 -0.754,1.78 -0.762,1.78 -1.023,2.01 -0.996,2.29 -1.523,3.3 -1.282,2.28 -1.277,2.54 -1.25,2.27 -1.531,2.04 -1.516,2.02 -1.523,2.04 -1.536,1.77 -2.273,2.29 c -1.008,0.76 -12.168,33.73 23.84,54.01 0,0 14.961,-19.54 19.012,-38.29 4.062,-18.51 -15.704,-29.67 -24.844,-46.39 z m -23.32,18.24 c 16.203,-14.2 18.503,-43.1 16.464,-52.76 -3.547,-18.76 -24.328,-35.23 -24.328,-35.23 -2.539,8.62 -13.699,24.34 -14.219,50.21 l 0.266,1.77 0.508,2.03 0.762,2.03 1.257,2.28 1.282,2.27 1.535,2.55 1.765,2.29 1.758,2.52 2.024,2.54 1.785,2.55 2.019,2.53 1.797,2.54 1.528,2.52 1.511,2.54 1.27,2.54 z m -27.403,-25.6 c -2.539,10.9 -25.351,32.19 -23.066,43.34 3.039,17.5 14.453,13.95 23.066,21.06 8.899,-7.11 20.039,-3.56 23.34,-21.06 v -2.01 l -0.242,-2.54 -1.02,-2.55 -1.297,-2.78 -1.484,-3.05 -1.777,-2.77 -2.039,-3.07 -2.043,-3.02 -2.278,-3.06 -2.019,-3.03 -2.024,-2.79 -2.031,-3.04 -1.785,-2.55 -1.531,-2.52 -0.989,-2.56 z m 0,69.73 c -5.066,2.53 -9.387,4.06 -14.941,13.18 -4.59,6.86 -8.633,19.52 -6.348,28.65 3.035,11.16 8.887,15.73 12.676,22.83 3.047,-2.8 5.078,-4.83 8.613,-7.1 4.07,2.27 5.84,4.3 8.633,7.1 3.535,-7.1 9.883,-11.67 12.93,-22.83 2.285,-9.13 -2.024,-21.79 -6.328,-28.65 l -1.29,-1.78 -1.503,-2.03 -1.512,-1.77 -1.789,-2.03 -2.024,-1.51 -1.797,-1.29 -1.765,-1 -1.785,-0.75 z m 85.723,123.23 c 15.976,-45.14 51.472,-42.33 51.472,-42.35 -7.351,-18.5 -26.882,-17.23 -35,-12.16 -9.636,6.08 -14.441,16.73 -16.472,24.84 l -0.508,2.03 -0.508,2.04 -0.254,2.02 -0.261,2.03 -0.247,2.02 v 2.05 2.01 1.8 2.01 1.77 l 0.247,1.79 0.261,1.77 0.254,1.76 0.508,2.3 z m -20.039,-17.23 c 24.844,-42.09 49.941,-63.91 69.226,-62.89 17.246,1.01 25.364,25.86 25.364,25.86 8.613,-6.84 9.875,-26.88 5.566,-39.57 -4.551,-12.67 -17.988,-24.08 -31.437,-24.08 -8.868,0 -22.313,7.36 -38.79,28.16 l -2.285,3.03 -2.019,3.05 -2.031,2.79 -2.02,3.03 -1.789,3.3 -1.785,3.05 -1.516,3.04 -1.515,3.05 -1.532,3.02 -1.269,3.07 -1.25,3.03 -1.282,3.05 -1.011,2.79 -1.02,3.03 -0.996,2.79 -0.777,2.54 -0.754,2.77 -0.762,2.56 -0.769,2.28 -0.5,2.29 -0.508,2.27 -0.508,2.03 -0.508,1.78 -0.254,1.79 -0.508,3.02 -0.5,2.03 -0.261,1.79 z m -6.074,-7.12 c 2.519,-11.4 5.058,-25.09 11.406,-39.8 5.586,-12.43 18.496,-30.18 18.496,-30.18 -4.551,-10.4 -12.664,-22.32 -12.664,-22.32 -4.555,8.13 -13.703,26.12 -19.524,42.1 -4.843,12.94 -6.339,20.04 -5.839,28.65 l 0.261,1.78 0.239,2.28 0.769,2.54 1.016,3.04 1.015,3.05 1.016,2.02 1.016,2.03 0.761,1.79 1.25,2.01 z m -34.25,-11.65 1.769,-2.03 2.031,-2.54 1.524,-1.76 1.789,-2.28 2.027,-2.3 2.785,-3.56 1.778,-2.27 2.031,-2.53 1.523,-2.29 1.778,-2.27 1.258,-2.03 1.281,-2.03 1.25,-2.04 c 2.801,-7.1 6.601,-18.51 1.261,-26.62 -5.312,-8.12 -18,-21.06 -28.898,-26.64 0,0 11.914,18.52 10.645,33.73 -0.75,9.89 -8.094,18.53 -9.629,24.34 -1.524,5.85 -0.508,15.98 3.797,25.12 z m -25.086,-19.79 c -7.121,6.08 -13.184,14.97 -15.215,20.04 -2.051,5.32 -2.539,12.94 2.031,18.76 5.566,6.86 12.402,14.72 12.676,21.05 1.015,-6.33 7.832,-14.19 13.183,-21.05 4.571,-5.82 4.051,-13.44 2.286,-18.76 l -1.036,-2.03 -0.996,-1.77 -1.035,-2.04 -1.758,-2.53 -1.777,-2.78 -2.273,-2.54 -2.29,-2.53 -2.546,-2.54 z m 32.695,112.85 c 6.836,-21.04 14.707,-41.83 16.476,-48.17 2.301,-6.35 3.836,-21.57 2.801,-28.16 -1.023,-6.34 -10.41,-18.51 -10.41,-18.51 -7.859,14.21 -16.476,21.81 -21.797,28.66 -5.078,6.85 -7.344,14.2 -4.824,25.6 l 0.762,2.3 0.769,2.78 1.262,2.8 0.508,1.76 1.269,3.04 0.762,1.78 1.531,3.3 1.528,3.56 0.75,1.77 1.523,3.04 0.754,1.78 1.531,2.78 1.27,2.79 1.25,2.54 0.761,1.79 1.028,1.77 z m -32.695,-43.87 c -1.028,9.13 -22.579,31.71 -21.563,43.87 1.016,12.18 17.227,20.8 21.309,22.57 4.297,-1.78 20.261,-10.39 21.543,-22.57 v -2.27 l -0.508,-2.78 -1.016,-2.8 -1.261,-2.8 -1.512,-3.05 -1.785,-3.03 -1.028,-1.77 -3.027,-4.57 -2.031,-3.05 -1.797,-3.03 -2.012,-3.05 -1.516,-2.79 -1.511,-2.54 -1.281,-2.26 -0.758,-2.31 z m 61.855,44.39 c 8.367,-6.86 15.215,-13.96 16.223,-32.99 1.277,-18.76 -3.782,-43.1 -3.782,-43.1 -6.601,13.44 -16.992,20.29 -21.816,36.27 l -0.769,3.05 -0.239,2.78 v 3.05 2.79 l 0.5,3.04 0.508,2.79 0.762,2.54 0.769,2.79 1.008,2.54 0.996,2.27 1.035,2.28 1.016,2.28 1.008,2.29 1.012,1.78 1.027,2.03 z m 66.953,35.24 h 1.778 l 2.031,-0.51 2.019,-0.51 2.024,-0.24 2.031,-0.51 2.031,-0.51 1.785,-0.51 c 0.754,-0.26 -12.175,-4.05 -18.777,-9.13 -5.312,-4.57 -10.129,-11.66 -12.168,-23.32 -3.281,-16.49 -12.93,-34.26 -15.969,-39.57 0.754,11.66 -6.355,34.99 -8.113,38.3 0,0 10.137,6.58 14.961,13.17 3.301,4.83 9.375,12.94 26.367,23.34 z m -78.359,27.39 c -3.543,-10.65 -12.949,-22.07 -20.281,-29.43 -7.622,-7.6 -22.844,-10.13 -22.844,-10.13 3.055,15.72 11.941,28.65 20.808,34.74 l 2.278,1 1.797,0.78 2.507,1.01 1.797,0.25 2.024,0.51 1.789,0.25 1.746,0.26 1.797,0.25 2.285,0.27 h 2.019 l 1.77,0.24 z m 24.844,5.07 -0.997,-2.79 -1.035,-3.05 -0.742,-2.77 -1.277,-2.82 -1.02,-2.76 -1.011,-2.8 -1.262,-2.79 -1.27,-2.54 -1.269,-2.54 -1.27,-2.78 -1.261,-2.54 -1.52,-2.28 -1.273,-2.53 -1.258,-2.28 -1.524,-2.29 -1.289,-2.03 c -6.836,-10.4 -11.14,-27.63 -10.144,-33.49 0,0 -10.129,22.08 -5.051,37.54 4.055,12.18 14.707,29.93 34.473,37.54 z m -94.59,225.7 h 12.441 v 13.44 h 9.641 v -13.44 h 12.422 v -8.64 h -12.422 v -15.71 h -9.641 v 15.71 h -12.441 z m 146.836,-79.89 h 11.933 v 13.44 h 10.137 v -13.44 h 12.156 v -8.63 h -12.156 v -15.72 h -10.137 v 15.72 h -11.933 z m 9.902,-73.79 c -8.895,-0.51 -8.125,-0.51 -11.68,-1.02 -2.273,2.8 -17.988,26.38 -19.265,31.19 -1.535,4.83 2.273,8.37 5.586,8.62 3.797,0.26 10.64,-0.25 15.457,-4.56 l 1.269,-1.77 1.262,-2.53 0.789,-2.04 0.73,-2.04 0.774,-2.27 0.754,-2.54 0.515,-2.53 0.75,-2.78 0.52,-2.55 0.508,-2.54 0.508,-2.54 0.488,-2.26 0.254,-2.03 0.527,-2.03 z m 13.926,0 0.254,1.78 0.527,2.03 0.254,2.03 0.508,2.26 0.488,2.54 0.508,2.54 0.527,2.55 0.508,2.78 0.754,2.53 0.769,2.54 0.497,2.27 0.746,2.04 1.035,2.04 0.75,1.77 1.277,2.02 c 5.305,4.82 12.426,5.33 15.949,5.07 3.575,-0.25 7.11,-3.79 5.84,-8.62 -1.512,-4.81 -17.226,-28.39 -19.277,-31.19 -3.543,0.51 -3.035,0.51 -11.914,1.02 z m -7.852,45.39 h 1.77 c 3.804,0 10.664,-1.77 10.652,-7.6 0,-5.84 -8.887,-19.79 -11.406,-25.88 -2.527,6.09 -11.66,20.04 -11.66,25.88 l 0.246,1.76 1.012,1.78 2.035,1.8 2.031,1.25 1.785,0.51 1.77,0.25 z m 0.266,-123.25 c -7.863,-11.66 -23.078,-24.84 -31.457,-29.41 -10.637,-6.08 -20.293,-19.52 -20.293,-19.52 -0.996,16.98 7.109,26.62 19.015,35.25 l 1.793,1.26 2.024,1.01 2.285,1.27 2.273,1.27 2.532,1.02 2.285,1.02 2.539,1 2.539,1.03 2.539,1.01 2.274,0.75 2.035,0.77 2.031,0.75 1.785,0.52 2.266,0.76 z m -32.473,-5.58 c -14.258,-10.25 -18.808,-13.96 -25.625,-21.04 -12.422,-13.19 -19.265,-28.9 -19.265,-28.9 -5.305,8.86 -4.797,15.2 -4.817,15.2 9.641,10.9 21.57,37.8 21.57,37.8 4.043,0.49 8.606,1.77 12.422,2.52 -0.496,-3.29 -0.254,-10.41 -0.254,-10.41 l 1.77,0.53 1.77,0.5 2.039,0.76 2.793,0.77 2.031,0.51 1.765,0.51 1.77,0.5 1.769,0.52 z m 41.848,7.88 c 13.433,-2.8 23.074,-4.84 33.211,-18.78 9.387,-12.93 -3.543,-33.23 -3.543,-33.23 -9.629,32.97 -47.414,32.48 -47.414,32.48 l 2.285,2.01 2.285,2.04 2.766,3.31 3.054,3.04 1.27,1.77 1.777,2.02 1.524,2.04 1.25,1.77 z m 58.515,45.44 h 13.954 l 1.914,-0.64 2.539,-0.63 1.894,-1.27 1.895,-1.28 1.914,-1.26 1.887,-1.27 1.902,-2.54 c 7.598,-10.89 4.434,-31.7 -10.781,-40.56 0,0 -23.184,20.15 -51.348,0.63 0,0 -6.836,3.67 -21.543,6.97 0,0 9.004,10.64 18.359,15.22 8.899,3.79 27.024,9.12 32.364,25.36 l 2.508,0.63 z m -1.906,-21.57 c -3.293,0 -5.691,-3.03 -5.691,-6.33 0,-3.31 2.398,-6.35 5.691,-6.35 3.321,0 6.348,3.04 6.348,6.35 l -0.625,1.91 -0.625,1.88 -1.914,1.27 -1.895,1.27 z m -28.719,31.9 c 14.461,4.32 13.7,-1.77 10.145,-11.15 -3.555,-9.39 -17.996,-20.03 -17.996,-20.03 l 1.504,3.05 0.508,1.77 0.769,1.77 0.508,1.78 0.754,1.77 0.516,2.03 0.5,2.02 0.515,2.04 0.508,2.03 0.254,2.02 0.508,2.29 0.254,2.03 0.234,2.27 0.266,2.04 z m -139.269,4.87 c 14.453,-6.85 59.961,-7.6 84.316,-8.86 24.844,-1.27 48.809,7.59 48.809,7.59 -2.766,-53.75 -39.297,-57.04 -39.297,-57.04 v 1.9 l 0.625,2.53 v 1.91 1.89 1.9 c -11.66,-9.37 -35.496,-17.11 -35.496,-17.11 0.27,6.6 2.547,12.04 2.547,12.04 -10.156,-5.83 -15.852,-5.7 -15.852,-5.7 1.008,7.6 6.352,16.49 6.352,16.49 -7.121,-8.89 -15.871,-9.51 -15.871,-9.52 -1.281,4.31 1.269,15.21 1.269,15.21 -3.808,-4.3 -9.883,-15.71 -30.437,-20.28 -20.531,-4.32 -29.797,7.6 -29.797,7.6 20.039,-1.26 38.684,17.75 38.684,17.75 -10.149,4.07 -13.95,11.42 -13.95,11.42 5.825,5.33 12.055,5.71 12.055,5.71 -11.438,5.33 -13.957,14.57 -13.957,14.57 z m 69.094,-20.28 v -1.91 c 0,0 31.707,-0.11 32.976,-15.86 l 1.895,1.28 1.277,1.9 1.887,1.91 1.289,1.89 0.625,1.91 0.625,1.91 0.644,1.88 0.633,2.55 c 0.637,1.27 -22.566,0 -41.851,2.54 z m -92.883,54.99 2.519,0.24 h 2.039 l 2.024,-0.24 h 2.559 l 2.539,-0.26 2.531,-0.52 2.781,-0.24 2.793,-0.76 3.047,-0.52 2.773,-1.02 2.793,-0.76 3.047,-1.01 2.539,-1.26 2.782,-1.53 2.296,-1.52 c 13.692,-9.37 17.746,-16.74 22.051,-24.6 0,0 -22.324,-1.78 -41.847,9.64 -9.364,5.59 -17.489,18.27 -19.266,24.36 z m -0.254,29.15 -2.031,0.25 -1.778,0.25 h -2.519 l -2.539,0.25 c 0.996,16.5 6.582,43.63 9.883,54.53 3.554,10.91 7.609,18.51 14.714,20.55 0,0 -5.332,-14.96 -8.378,-30.43 -3.055,-15.47 -5.321,-30.69 -7.352,-45.4 z m 23.34,-6.59 c -7.371,3.8 -11.406,4.82 -18.008,6.08 2.539,17.24 8.633,58.33 15.215,63.66 3.547,2.54 7.871,2.03 13.43,0.51 4.832,-1.54 10.398,-4.82 10.398,-9.4 v -2.53 l -0.254,-2.04 -0.496,-2.53 -0.773,-2.78 -0.997,-3.04 -1.035,-3.31 -0.488,-1.77 -0.762,-1.76 -0.527,-2.05 -0.762,-2.03 -0.742,-2.03 -0.762,-2.03 -1.015,-2.27 -0.774,-2.28 -1.011,-2.29 -0.754,-2.27 -1.016,-2.54 -1.008,-2.28 -1.023,-2.52 -1.004,-2.81 -1.035,-2.52 -1.242,-2.8 -1.036,-2.53 -1.25,-2.8 z m -41.074,23.84 c -2.032,11.16 -14.993,35.01 -14.993,45.39 0,8.11 6.622,14.69 14.739,14.69 8.086,0 14.707,-6.58 14.707,-14.69 v -2.03 l -0.528,-2.53 -0.5,-2.54 -1.004,-2.79 -0.761,-3.05 -1.281,-3.03 -1.258,-3.31 -1.282,-3.03 -1.257,-3.31 -1.27,-3.29 -1.269,-3.04 -1.016,-3.04 -1.023,-3.05 -1,-2.54 -0.497,-2.54 z m 169.382,-76.33 c 0,-2.54 -11.16,-4.32 -24.851,-4.32 -13.672,0 -24.844,1.78 -24.844,4.32 0,2.52 11.172,4.56 24.844,4.56 h 2.519 2.559 l 2.273,-0.25 h 2.289 l 2.293,-0.26 2.012,-0.26 1.77,-0.25 1.785,-0.26 1.765,-0.25 2.043,-0.76 2.032,-0.76 z m -243.945,-486.397 1.262,-2.028 1.523,-2.523 1.016,-2.031 1.262,-2.031 1.277,-2.278 1.016,-2.551 0.996,-2.523 1.035,-2.789 0.996,-2.539 0.781,-2.797 0.496,-2.527 0.5,-2.778 v -2.554 -2.274 l -0.5,-2.281 c -3.047,-11.41 -15.215,-27.395 -19.273,-34.492 0,0 -9.653,19.785 -11.672,28.922 -2.023,9.121 -0.254,23.832 19.285,42.074 z m 44.875,-3.035 c 12.676,-12.434 15.984,-20.285 17.512,-32.707 1.512,-12.43 -2.817,-21.543 -8.125,-32.715 -4.817,-9.641 -17.738,-24.09 -17.738,-24.09 -1.786,12.168 -14.715,24.844 -15.477,44.375 v 2.289 l 0.508,2.523 0.996,3.301 0.508,1.778 0.781,2.031 0.754,1.762 0.769,1.789 1.016,2.027 1.008,1.773 1.004,1.782 1.008,2.031 1.023,1.766 1.277,1.781 1.02,1.761 1.258,1.786 1.023,1.777 2.258,3.043 2.051,2.793 1.765,2.527 1.528,2.028 1.511,1.781 z m -69.726,69.982 1.003,-2.03 1.008,-1.76 1.016,-1.8 1.289,-1.76 1.25,-2.02 1.277,-1.77 1.516,-1.79 1.269,-1.78 1.258,-1.77 1.282,-1.78 1.269,-1.75 1.008,-1.78 1.023,-1.78 1.27,-2.54 1.008,-2.53 c 2.781,-9.9 3.816,-16.49 -1.008,-28.41 -4.57,-10.389 -9.649,-16.479 -11.426,-22.815 0,0 -14.199,18.245 -16.738,25.865 -2.278,7.86 -3.028,20.28 -0.254,28.15 3.055,8.1 8.125,18.5 11.68,25.85 z m 49.445,-2.28 0.769,-1.77 1.016,-1.77 1.262,-2.03 1.258,-1.77 1.523,-2.29 1.523,-2.03 1.27,-2.28 1.523,-2.04 1.524,-2.27 1.512,-2.28 1.281,-2.28 1.269,-2.29 1.016,-2.29 1.008,-2.28 0.515,-2.28 0.496,-2.03 c 1.516,-8.62 0.254,-15.71 -2.019,-21.8 -2.539,-5.84 -10.156,-17.5 -15.215,-26.372 0,0 -17.512,16.481 -21.308,28.142 -2.801,8.89 -1.766,21.31 2.539,29.42 4.062,7.87 13.183,16.22 17.238,24.59 z m -28.652,69.48 c 6.089,-11.41 19.792,-24.34 23.835,-33.2 1.778,-3.81 2.278,-14.23 -1.765,-24.62 -3.567,-8.86 -15.227,-29.39 -15.227,-29.39 -5.332,4.8 -15.215,14.43 -22.324,28.39 -7.078,13.68 -8.602,23.31 -8.602,23.31 l 1.766,2.05 1.524,2.03 1.765,2.01 1.778,2.55 1.769,2.53 2.051,2.8 2.019,3.05 2.024,2.78 2.031,2.79 1.777,2.78 1.524,2.81 1.504,2.26 1.023,2.04 1.008,1.78 z m -55.032,-12.92 1.778,1.52 1.777,1.53 2.019,2.03 2.043,1.76 1.77,1.77 1.773,1.8 1.516,1.75 c 0.254,0.53 12.168,-21.29 14.199,-27.63 0,0 -5.832,-1.28 -12.422,3.29 -6.339,4.59 -8.117,5.84 -14.453,12.18 z m -4.051,5.07 -1.527,2.53 -1.277,2.04 -1.258,2.28 -1.523,2.79 -1.528,2.78 -0.75,1.78 -1.523,3.3 -1.785,3.28 -1.516,3.57 -1.523,3.79 -1.27,3.81 -0.508,1.78 -0.762,1.77 -0.507,2.04 -0.52,1.76 -0.223,1.79 -0.515,2.02 -0.254,1.77 -0.246,1.78 v 1.78 l -0.274,1.77 c 0,0 18.008,-9.64 32.957,-2.53 0,0 1.79,-23.84 -0.984,-31.7 -2.297,-6.61 -5.332,-10.39 -12.684,-15.98 z m 41.833,71.01 c 4.816,-9.9 13.449,-24.09 13.449,-24.09 -0.508,-5.83 -0.254,-15.73 -2.032,-27.9 -1.765,-12.17 -17.519,-32.97 -17.519,-32.97 -4.055,11.16 -13.418,26.12 -15.203,40.57 -1.504,9.9 0.769,24.61 0.769,24.61 l 2.032,1.02 1.777,1.25 2.019,1.53 2.024,1.79 2.527,2.77 2.817,2.8 2.527,2.79 2.273,3.03 z m 45.148,-83.67 c -9.141,16.72 -28.914,27.88 -24.863,46.39 3.808,18.75 18.769,38.29 18.769,38.29 36.016,-20.28 24.59,-53.25 24.59,-53.25 l -2.285,-2.29 -2.277,-2.53 -1.532,-2.04 -1.504,-2.02 -1.269,-2.04 -1.27,-2.27 -1.269,-2.54 -1.258,-2.28 -1.027,-2.29 -1.004,-2.02 -1.02,-2.29 -0.762,-2.02 -0.769,-1.78 -1.016,-2.28 z m 23.066,18.24 1.016,-2.28 1.289,-2.54 1.504,-2.54 1.758,-2.52 1.789,-2.54 1.773,-2.53 2.024,-2.55 1.789,-2.54 1.765,-2.52 1.786,-2.29 1.503,-2.55 1.536,-2.27 1.004,-2.28 1.027,-2.03 0.508,-2.03 0.246,-1.77 c -0.5,-25.87 -11.926,-41.59 -14.465,-50.21 0,0 -20.527,16.47 -24.082,35.23 -2.031,9.66 0,38.56 16.23,52.76 z m -58.066,167.36 0.5,-2.27 0.516,-2.3 0.253,-1.76 v -1.77 l 0.254,-1.79 0.254,-1.77 v -2.01 -1.8 -2.01 l -0.254,-2.05 -0.254,-2.02 v -2.03 l -0.515,-2.02 -0.254,-2.04 -0.5,-2.03 c -2.031,-8.11 -7.109,-18.76 -16.492,-24.84 -8.364,-5.07 -27.649,-6.34 -35.246,12.16 0,0.02 35.507,-2.79 51.738,42.35 z m 20.039,-17.23 -0.254,-2.04 -0.516,-2.03 -0.507,-3.02 -0.508,-1.79 -0.266,-1.78 -0.488,-2.03 -0.52,-2.27 -0.757,-2.29 -0.508,-2.28 -0.754,-2.56 -0.75,-2.77 -1.035,-2.54 -0.754,-2.79 -1.028,-3.03 -1.257,-2.79 -1.004,-3.05 -1.262,-3.03 -1.289,-3.07 -1.523,-3.02 -1.512,-3.05 -1.77,-3.04 -1.523,-3.05 -2.051,-3.3 -1.758,-3.03 -2.031,-2.79 -2.031,-3.05 -2.293,-3.03 c -16.457,-20.8 -29.906,-28.16 -38.781,-28.16 -13.438,0 -26.895,11.41 -31.465,24.08 -4.551,12.69 -3.02,32.73 5.605,39.57 0,0 8.113,-24.85 25.098,-25.86 19.519,-1.02 44.375,20.8 69.492,62.89 z m 5.82,-7.12 1.524,-2 1.015,-2.31 1.016,-1.77 1.27,-2.78 1.015,-3.05 1.016,-3.04 0.5,-2.54 0.496,-2.28 0.254,-1.78 c 0.515,-8.61 -0.75,-15.71 -5.567,-28.65 -5.82,-15.98 -15.222,-33.97 -19.531,-42.1 0,0 -8.367,11.92 -12.949,22.32 0,0 12.949,17.75 18.293,30.18 6.59,14.71 9.109,28.4 11.648,39.8 z m 34.512,-11.65 c 4.031,-9.14 5.051,-19.27 3.789,-25.12 -1.523,-5.81 -9.141,-14.45 -9.891,-24.34 -1.027,-15.21 10.653,-33.73 10.653,-33.73 -10.899,5.58 -23.086,18.52 -28.926,26.64 -5.312,8.11 -1.262,19.52 1.023,25.86 l 1.028,2.03 0.996,1.77 1.516,2.04 1.531,2.02 1.535,2.29 1.766,2.53 2.793,3.54 2.031,2.55 1.777,2.28 2.031,2.28 1.524,2.03 1.504,1.78 2.031,2.03 z m -7.629,93.06 1.02,-1.77 0.757,-1.78 1.028,-2.28 1.25,-2.53 1.535,-2.78 1.238,-3.31 1.532,-3.04 1.027,-1.77 1.504,-3.56 1.289,-3.3 0.742,-1.78 1.531,-3.04 0.512,-1.76 1.004,-2.8 1.016,-2.78 0.781,-2.3 c 2.539,-11.4 0,-18.75 -5.086,-25.6 -5.051,-6.85 -13.703,-14.45 -21.797,-28.66 0,0 -9.145,12.17 -10.41,18.51 -1.008,6.59 0.75,21.81 2.781,28.16 2.051,6.34 9.902,27.13 16.746,48.17 z m -29.168,0.52 1.278,-2.53 1.007,-1.78 0.774,-2.29 1.238,-2.02 1.543,-3.56 1.016,-2.27 0.769,-2.54 0.754,-2.79 0.762,-2.54 0.5,-2.79 0.496,-3.04 v -2.79 l -0.234,-3.05 -0.262,-2.78 -0.754,-3.05 c -4.59,-15.98 -14.707,-22.83 -21.289,-36.27 0,0 -5.086,24.34 -4.082,43.1 1.289,19.03 8.125,26.13 16.484,32.99 z m -66.933,35.24 c 16.992,-10.4 22.824,-18.51 26.367,-23.34 4.551,-6.59 14.961,-13.17 14.961,-13.17 -2.032,-3.31 -9.121,-26.64 -7.09,-38.04 -4.063,5.05 -13.711,22.82 -17,39.31 -2.277,11.66 -7.102,18.75 -12.422,23.32 -6.34,5.08 -19.27,8.87 -19.27,8.87 l 2.012,0.52 2.539,0.76 2.031,0.51 2.04,0.24 2.035,0.51 1.746,0.26 1.797,0.25 z m 78.093,27.39 h 2.043 l 1.77,-0.24 2.285,-0.27 2.527,-0.25 1.778,-0.26 1.765,-0.25 1.782,-0.51 1.785,-0.25 1.765,-0.77 1.789,-0.49 2.278,-1.27 c 9.871,-6.35 18.504,-19.28 21.804,-35 0,0 -15.468,2.53 -22.832,10.13 -7.589,7.36 -16.726,18.78 -20.539,29.43 z m -24.597,5.07 c 19.531,-7.61 30.422,-25.36 34.238,-37.54 5.066,-15.46 -4.824,-37.54 -4.824,-37.54 0.508,5.86 -3.555,23.09 -10.137,33.49 l -1.543,2.03 -1.238,2.29 -1.274,2.28 -1.519,2.53 -1.262,2.28 -1.289,2.54 -1.25,2.78 -1.277,2.54 -1.262,2.54 -1.289,2.79 -1.25,2.8 -1.016,2.76 -1.015,2.82 -1.016,2.77 -1.023,3.05 z m -52.246,145.81 v -8.63 h -12.161 v -15.72 h -9.878 v 15.72 h -12.18 v 8.63 h 12.18 v 13.44 h 9.878 v -13.44 z m -10.137,-73.79 0.508,1.78 0.273,2.03 0.496,2.03 0.5,2.26 0.508,2.54 0.508,2.54 0.5,2.55 0.515,2.78 0.774,2.53 0.508,2.54 0.75,2.27 0.754,2.04 0.769,2.04 0.75,1.77 1.527,2.02 c 5.321,4.82 12.176,5.33 15.719,5.07 3.547,-0.25 7.102,-3.79 5.832,-8.62 -1.523,-4.81 -17.258,-28.39 -19.258,-31.19 -3.574,0.51 -3.046,0.51 -11.933,1.02 z m -13.692,0 c -9.14,-0.51 -8.359,-0.51 -11.933,-1.02 -2.024,2.8 -17.735,26.38 -19.27,31.19 -1.504,4.83 2.285,8.37 5.832,8.62 3.313,0.26 10.411,-0.25 15.489,-4.56 l 1.269,-1.77 1.262,-2.53 0.769,-2.04 0.743,-2.04 0.781,-2.27 0.742,-2.54 0.508,-2.53 0.508,-2.78 0.781,-2.55 0.488,-2.54 0.508,-2.54 0.254,-2.26 0.508,-2.03 0.261,-2.03 z m 7.852,45.39 1.777,-0.25 1.786,-0.25 1.769,-0.51 1.785,-1.02 1.778,-1.26 1.261,-1.79 0.508,-1.75 c 0,-6.61 -9.133,-20.56 -11.672,-26.65 -2.527,6.09 -11.402,20.04 -11.402,25.88 0,5.83 6.844,7.6 10.39,7.6 z m -0.234,-123.25 2.011,-0.5 2.559,-0.76 1.769,-0.75 2.02,-0.51 2.297,-0.77 2.254,-1.01 3.816,-1.53 2.539,-1 2.532,-1.02 2.285,-1.02 2.539,-1.27 2.273,-1.27 2.031,-1.01 1.782,-1.26 c 11.922,-8.63 20.027,-18.27 18.765,-35.25 0,0 -9.402,13.44 -20.039,19.52 -8.367,4.57 -23.582,17.75 -31.433,29.41 z m 32.441,-5.81 2.051,-0.52 1.765,-0.5 1.758,-0.51 2.043,-0.51 2.805,-0.77 1.746,-0.76 1.785,-0.5 2.043,-0.53 c 0,0 -0.019,7.12 -0.265,10.41 3.82,-0.75 8.117,-2.03 12.167,-2.52 0,0 12.192,-26.9 21.821,-37.8 0,0 0.496,-6.34 -4.824,-15.2 0,0 -7.102,15.71 -19.27,28.9 -6.797,7.05 -11.445,10.84 -25.625,20.81 z m -41.824,8.11 1.765,-2.04 1.27,-1.78 1.758,-2.02 1.777,-2.54 2.285,-2.28 2.805,-3.3 2.293,-2.28 2.285,-2.04 c 1.504,-1.25 -36.531,-0.76 -45.918,-33.73 0,0 -12.93,20.3 -3.562,33.23 10.156,13.94 19.793,15.98 33.242,18.78 z m -70.422,45.44 c 6.25,0.69 13.047,-0.28 17.109,-1.28 5.325,-16.23 23.075,-21.56 31.7,-25.35 l 1.894,-1.27 1.902,-0.63 2.532,-1.91 2.547,-1.9 1.898,-1.91 1.902,-1.27 1.895,-1.89 1.262,-1.9 1.921,-1.28 c -14.062,-4.56 -20.293,-8.23 -20.293,-8.23 -28.144,19.52 -51.359,-0.63 -51.359,-0.63 -15.469,8.86 -18.125,29.67 -10.769,40.56 3.808,5.59 9.582,8.19 15.859,8.89 z m 13.309,-21.57 c -3.309,0 -5.719,-3.03 -5.719,-6.33 0,-3.31 2.41,-6.35 5.719,-6.35 l 1.886,0.64 1.914,0.64 1.27,1.9 0.637,1.89 c 0.632,4.56 -2.422,7.61 -5.707,7.61 z m 29.21,31.9 0.262,-2.27 0.227,-2.04 0.261,-2.27 0.254,-2.03 0.266,-2.29 0.52,-2.02 0.496,-2.03 0.5,-2.04 0.504,-2.02 0.519,-2.03 0.488,-1.77 0.762,-1.78 0.527,-1.77 0.762,-1.77 1.504,-3.05 c 0,0 -14.434,10.64 -17.996,20.03 -3.547,9.38 -4.563,15.47 10.144,11.15 z m 139.415,4.87 c 0,0 -2.891,-9.24 -14.582,-14.57 0,0 6.347,-0.38 12.687,-5.71 0,0 -3.937,-7.35 -14.57,-11.42 0,0 18.886,-19.01 38.652,-17.75 0,0 -8.984,-11.92 -29.785,-7.6 -20.293,4.57 -26.895,15.98 -30.442,20.28 0,0 2.793,-10.9 1.282,-15.21 0,0 -8.379,0.65 -15.215,9.52 0,0 4.687,-8.87 5.691,-16.49 0,0 -5.945,-0.13 -15.855,5.7 0,0 2.293,-5.44 2.539,-12.04 0,0 -23.449,7.74 -34.875,18.39 0,0 -0.488,-7.12 0,-11.41 0,0 -36.504,3.29 -39.277,57.04 l 1.894,-0.62 2.527,-0.63 1.914,-0.65 2.524,-0.62 3.172,-1.28 3.164,-0.63 h 1.902 l 1.926,-0.63 h 1.875 l 1.914,-0.62 1.902,-0.65 h 1.899 l 1.914,-0.63 h 2.539 l 1.883,-0.63 h 2.539 1.914 2.539 2.5 1.914 2.539 1.887 c 24.617,1.26 70.269,2.01 84.969,8.86 z m -69.727,-20.28 c -19.285,-2.54 -41.836,-1.27 -41.836,-1.27 1.25,-7.1 3.789,-13.19 8.879,-16.5 1.258,15.75 32.957,15.86 32.957,15.86 z m 74.102,30.63 -2.024,-1.01 -1.785,-0.75 -1.797,-1.03 -2.019,-0.77 -1.758,-0.75 -1.782,-0.77 -2.019,-0.49 -1.785,-0.76 -1.77,-0.51 -1.777,-0.25 -1.797,-0.51 -1.746,-0.5 -3.305,-0.52 -3.047,-0.51 -2.793,-0.25 -2.527,-0.26 H 635 h -1.777 -1.758 -1.809 c 4.082,7.88 8.137,15.23 20.324,23.84 12.422,8.88 32.442,11.16 40.301,10.16 -1.773,-6.1 -9.89,-18.77 -19.011,-24.36 z m 19.523,53.51 c -2.285,14.71 -4.328,29.93 -7.336,45.4 -3.066,15.47 -8.652,30.43 -8.652,30.43 7.109,-2.04 11.425,-9.64 14.707,-20.55 3.301,-10.9 8.886,-38.03 11.172,-54.53 l -2.539,-0.25 h -2.52 l -2.559,-0.25 h -1.757 z m -23.586,-6.59 -1.262,3.04 -1.023,2.8 -1.277,2.53 -1.008,2.8 -1.004,2.52 -1.008,2.81 -1.289,2.52 -0.742,2.28 -1.028,2.54 -1.003,2.27 -0.762,2.29 -1.016,2.28 -0.762,2.27 -0.761,2.03 -0.762,2.03 -0.754,2.03 -0.789,2.05 -0.488,1.76 -0.489,1.77 -0.769,1.79 -1.027,3.04 -0.762,3.05 -0.496,2.52 -0.52,2.28 -0.254,2.03 c 0.254,6.1 5.594,9.38 10.645,10.92 5.332,1.52 9.648,2.03 13.183,-0.51 6.602,-5.33 12.95,-46.42 15.008,-63.66 -6.355,-1.26 -10.183,-2.28 -17.781,-6.08 z m 48.926,-25.88 v -1.76 l -0.742,-1.78 -1.27,-1.78 -1.785,-1.52 -1.762,-0.75 -2.039,-0.26 c -4.062,0 -7.597,3.29 -7.597,7.85 0,3.82 3.535,7.36 7.597,7.36 4.317,0 7.598,-3.54 7.598,-7.36 z m -177.246,-26.61 2.031,1.77 2.273,0.75 2.297,0.51 2.52,0.51 1.789,0.25 2.293,0.26 2.019,0.26 h 2.278 l 2.551,0.25 h 2.273 2.781 c 13.449,0 24.856,-2.04 24.856,-4.56 0,-2.54 -11.407,-4.32 -24.856,-4.32 -13.941,0 -25.105,1.78 -25.105,4.32 z m 131.101,44.36 0.782,1.78 2.277,1.54 2.539,1.02 2.019,0.74 2.532,0.51 2.519,0.5 2.813,0.51 3.039,0.51 1.773,0.25 3.313,0.26 1.738,0.26 1.797,0.24 h 1.789 2.02 l 1.777,0.26 h 2.031 1.758 2.031 c 21.309,0 38.555,-3.79 38.555,-8.38 0,-4.3 -17.246,-8.1 -38.555,-8.1 -21.289,0 -38.555,3.8 -38.547,8.1 z m 381.902,-489.92 2.54,-2.53 2.54,-2.54 2.8,-2.8 2.77,-3.04 3.05,-3.03 2.79,-3.3 3.3,-3.56 3.05,-3.54 3.28,-3.8 3.04,-3.81 3.31,-4.06 3.3,-4.058 3.02,-4.312 3.07,-4.559 3.28,-4.562 2.77,-4.574 3.07,-4.813 2.79,-4.82 2.8,-4.813 2.54,-5.078 2.26,-5.062 2.29,-5.34 2.03,-5.051 1.78,-5.59 1.77,-5.328 1.25,-5.324 1.29,-5.574 1.02,-5.586 0.51,-5.586 0.23,-5.825 v -5.574 l -0.23,-5.84 c 0,0 -49.48,15.481 -69.75,51.731 -20.29,36.016 -32.74,59.088 -41.35,67.208 5.33,-0.77 10.92,-0.77 16.25,0 l 4.57,0.77 c 12.66,-22.841 37.27,-60.377 59.59,-73.295 0,0 5.82,30.426 -59.84,91.795 -1.04,2.54 -2.29,5.33 -4.32,8.37 6.08,-2.28 12.93,-3.3 20.78,-3.04 z m -210.718,69.49 c 1.504,1.26 1.504,1.26 1.766,0.75 2.277,-3.03 9.132,-9.37 21.3,-8.87 -0.254,-2.03 -0.488,-4.31 -0.508,-6.85 0,-7.1 1.27,-15.73 6.094,-24.6 l 2.531,-5.07 5.067,1.26 c 0.527,0 6.594,1.03 14.453,4.83 -6.836,-8.88 -13.684,-15.72 -19.004,-42.09 -7.871,-39.304 -14.973,-40.328 -14.973,-40.328 -5.308,14.188 -16.472,39.818 -29.668,64.918 -12.925,24.87 -2.273,45.65 -2.273,45.65 l 2.031,1.02 1.778,1.01 1.765,1.01 2.285,1.51 1.77,1.03 2.297,2.02 2.293,2.03 z m 188.668,176.99 1.51,1.78 1.29,2.04 1.25,2.03 1.27,2.01 1.27,2.29 1.27,2.28 1.26,2.3 1.02,2.52 1.02,2.54 1.25,2.54 1.03,2.52 1.02,2.8 0.76,2.79 0.99,2.79 0.79,3.05 0.99,2.79 c 3.3,13.18 11.68,45.13 16.51,53.75 4.8,8.37 22.3,37.28 56.29,46.41 0,0 8.88,-37.79 -8.13,-68.22 -14.96,-25.86 -45.14,-53.24 -82.66,-71.01 z m 31.7,-18 -4.06,2.79 c -0.51,0.25 -7.6,4.56 -19.55,5.32 10.16,7.87 34.26,28.15 51.25,37.54 18.77,10.39 49.71,24.6 65.41,26.63 0,0 -14.71,-38.8 -31.93,-54.52 -17.78,-16.24 -30.18,-22.32 -61.12,-17.76 z m -11.17,-47.42 -2.03,0.76 -1.76,0.51 -2.28,0.5 -2.05,0.5 -2.27,0.52 c 7.85,7.62 15.72,18.76 19.79,35.75 9.12,-2.02 29.41,-2.02 38.53,1.28 9.12,3.54 26.88,3.79 40.82,-5.59 0,0 -4.57,-24.08 -36.25,-32.46 -29.43,-7.85 -40.57,-5.83 -52.5,-1.77 z m 5.59,-38.8 2.03,1.79 2.03,2.02 2.03,2.28 1.76,2.03 1.78,2.54 1.52,2.52 1.52,2.8 1.53,3.04 1.75,4.05 c 19.05,7.61 38.58,11.67 57.84,4.58 19.27,-7.36 24.33,-15.73 29.16,-22.82 0,0 -21.29,-18.01 -45.65,-18.78 -24.59,-0.49 -47.42,6.6 -57.3,13.95 z m -9.12,-36.02 -1.29,2.03 -1.02,2.3 -1.25,2.27 -1.52,2.54 -1.27,2.79 -1.27,2.03 -1.52,2.04 -1.78,2.27 -1.78,2.04 c 15.47,2.78 29.67,3.29 47.93,-0.53 21.8,-4.03 44.14,-9.11 55.29,-42.09 0,0 -14.2,-12.16 -39.55,-6.83 -21.31,4.3 -40.33,13.68 -50.97,29.14 z m -41.1,-20.78 1.78,-0.5 2.03,-0.51 2.03,-0.26 2.03,-0.26 2.02,-0.24 2.03,-0.25 h 2.3 l 2.27,-0.27 h 2.28 l 2.52,0.27 h 2.31 l 2.54,0.25 2.79,0.24 2.52,0.52 2.79,0.51 2.54,0.75 4.06,0.76 1.51,4.06 c 18,-14.96 39.82,-17.49 47.16,-30.94 0,0 -9.12,-16.73 -32.71,-13.71 -23.58,2.82 -41.33,13.71 -54,29.69 -0.51,2.28 -1.53,6.58 -2.8,9.89 z m 3.3,-25.1 c 10.92,-3.81 18.5,-5.84 34.5,-16.76 23.57,-15.71 14.19,-35.75 14.17,-35.75 -35.48,-4.8 -52.71,24.36 -57.3,29.93 l 1.27,2.03 1.29,2.04 0.99,1.75 1.04,2.3 1,2.54 0.76,1.77 0.51,2.03 0.76,2.28 0.23,2.28 0.53,2.29 z m -15.212,-25.12 c 40.062,-37.27 35.232,-52.23 35.232,-52.23 -20.02,-3.3 -38.279,6.84 -51.716,17.75 -9.141,7.09 -15.489,17.5 -17.489,26.63 -2.042,8.87 0.758,15.47 2.528,20.03 l 2.793,-2.02 1.777,-1.02 3.281,-1.78 1.778,-1.01 1.777,-0.76 2.031,-1.02 2.032,-0.76 2.031,-0.75 2.031,-0.52 2.285,-0.77 2.266,-0.5 2.285,-0.51 2.539,-0.49 z m -45.637,1.27 c 3.813,-4.3 8.118,-11.67 10.649,-19.77 5.047,-14.96 3.543,-29.67 -0.5,-42.09 -3.567,-11.94 -16.992,-26.636 -16.992,-26.636 -4.844,5.836 -13.184,14.446 -17.52,28.906 -3.535,11.93 -1.765,26.38 -0.742,35.51 0.742,7.09 2.019,11.15 4.797,19.02 2.293,-0.78 4.578,-1.77 6.863,-2.79 l 3.047,-0.77 2.52,1.28 1.777,1.24 1.777,1.29 2.039,2.02 1.516,1.79 z m -31.961,2.54 c 2.032,-12.94 2.532,-32.21 0.762,-46.14 -2.031,-17.77 -7.344,-35.001 -22.051,-51.989 -14.98,-17.758 -35.007,-14.961 -35.007,-14.961 4.57,7.601 11.921,29.418 14.714,40.31 2.266,10.41 7.61,28.91 12.176,42.36 6.34,15.97 19.016,31.94 23.059,37.02 l 1.789,-2.03 2.012,-2.03 1.785,-1.52 z m 224.41,88.77 c 71.78,-20.81 126.04,-13.45 126.04,-13.45 -29.41,14.7 -86.72,17.24 -113.59,19.78 6.58,3.79 10.13,6.84 10.64,7.35 31.95,-4.55 104.73,-3.79 132.34,-9.12 27.68,-5.33 68.75,-21.3 94.36,-37.03 0,0 -39.3,-13.69 -113.09,-8.12 -73.79,5.32 -118.45,13.44 -144.57,21.04 -4.55,5.59 -9.61,9.9 -14.68,13.19 l 1.77,0.27 1.76,0.25 3.07,0.51 2.77,0.51 2.79,0.74 2.52,0.77 2.56,0.76 2.8,1.28 z m 1.78,-37.04 -0.74,2.02 -1.04,2.04 c 21.82,-3.55 78.11,-10.14 103.23,-17.74 24.84,-7.61 70.23,-26.14 97.13,-77.35 0,0 -39.57,-12.18 -114.12,22.82 -74.32,34.99 -97.64,42.35 -111.84,46.15 11.41,0.77 19.51,4.57 23.57,7.1 29.69,-13.18 69.26,-28.9 108.79,-29.94 0,0 -19.51,13.71 -40.06,22.33 -22.07,9.39 -46.4,17.77 -64.92,22.57 z m -38.79,-31.19 -2.05,3.81 c -0.49,1.02 -1.25,2.04 -1.99,3.04 19,-7.35 86.97,-32.96 109.02,-44.38 22.07,-11.41 53.77,-37.27 71,-90.014 0.02,0 -45.88,-4.067 -83.67,27.394 -37.8,31.18 -81.92,75.05 -100.94,89 2.03,1.52 3.55,3.29 4.59,4.82 0,0 51.21,-45.41 105.49,-64.92 0,0 -11.68,20.79 -33.24,36.26 -25.84,18.5 -45.39,24.59 -68.21,34.99 z m -36.77,-40.83 c 56.03,-59.847 88.51,-69.976 88.51,-69.976 -20.82,41.836 -72.26,67.956 -89.78,78.096 -1.02,3.82 -3.05,7.87 -6.08,11.91 0.74,0 1.25,-0.26 2.27,-0.26 9.9,-1.26 17.77,0.52 23.85,3.32 23.08,-16.98 55.01,-42.61 79.6,-70.76 24.87,-27.892 33.99,-54.001 38.56,-86.986 0,0 -46.66,1.531 -75.82,42.36 -29.16,40.586 -43.87,59.316 -63.63,78.356 0.48,1.28 0.74,2.53 0.99,3.03 l 0.51,1.78 0.25,1.77 0.53,2.04 0.24,1.78 v 1.78 z m -58.6,-129.07 c 6.35,27.649 -9.373,63.399 -17.752,93.57 3.047,-1.52 5.859,-2.78 8.887,-3.8 24.105,-39.313 52.495,-95.602 28.925,-137.707 0,0 -25.12,11.675 -38.808,34.238 -13.946,23.074 -17.5,69.234 -20.801,113.859 0.508,2.81 0.508,5.59 0.508,8.37 1.015,-1.26 2.285,-2.03 3.554,-3.04 2.793,-2.27 5.586,-4.56 8.614,-6.33 v -2.03 l 0.273,-2.03 0.254,-2.03 0.508,-3.3 0.254,-2.78 0.234,-2.79 0.508,-3.05 0.508,-3.3 0.508,-3.55 0.507,-3.804 0.762,-3.804 0.508,-3.801 0.762,-4.059 0.761,-4.054 1.016,-4.059 1.758,-8.363 1.289,-4.309 1.016,-4.066 1.269,-4.059 1.27,-4.059 1.269,-3.8 1.504,-3.813 1.27,-3.531 1.795,-3.313 1.52,-3.293 1.76,-3.046 1.78,-2.774 z m -58.807,56.301 1.758,2.023 1.543,2.032 1.262,1.773 1.511,2.539 1.778,2.524 1.535,2.558 1.512,2.27 1.015,1.77 c 2.52,-27.38 9.883,-100.919 -14.695,-124.005 0,0 -17.004,12.434 -22.844,119.688 3.555,-6.074 9.883,-12.406 12.676,-15.965 0,0 -4.043,-33.98 8.125,-58.066 0,0 12.422,9.375 4.824,60.859 z m -44.89,-5.07 1.777,2.531 1.785,2.539 1.523,2.531 1.512,2.278 1.262,2.539 1.262,2.539 1.277,2.281 1.035,2.551 c -5.851,-48.203 -7.871,-80.66 -33.992,-111.852 0,0 -15.734,20.781 -5.578,71.516 4.551,1.269 9.101,3.297 13.933,6.594 0,0 -5.839,-20.547 -2.273,-41.333 0,0 9.375,6.848 16.477,55.286 z m 138.467,399.399 c 6.58,-51.74 -12.68,-86.99 -28.42,-99.15 -15.958,-12.69 -22.579,-25.37 -22.579,-25.37 37.809,24.35 61.639,9.14 61.639,9.14 -7.36,-39.57 -40.56,-46.91 -40.56,-46.92 35.76,4.05 50.44,-13.95 50.44,-13.95 -13.18,-28.9 -47.67,-30.43 -47.67,-30.43 30.43,-23.83 25.12,-41.07 25.12,-41.07 -33.73,-7.88 -52.25,8.61 -52.25,8.61 25.86,-33.74 6.094,-58.83 6.094,-58.83 -34.739,4.57 -45.918,31.69 -45.918,31.69 3.574,-30.44 -11.906,-38.28 -11.906,-38.28 -18.497,5.83 -27.645,22.57 -27.645,22.57 -9.883,-21.32 -32.949,-25.36 -32.949,-25.36 -10.156,19.27 -2.793,37.27 -2.793,37.27 -19.793,-6.08 -25.879,5.84 -25.879,5.84 12.422,13.93 19.797,35.75 19.797,35.75 34.469,-13.69 76.824,-6.58 88.758,7.36 11.894,13.95 -7.864,49.45 -18.516,74.81 -10.652,25.1 3.301,43.11 15.957,51.72 l 5.09,3.56 5.047,3.3 4.824,3.55 4.59,3.28 4.297,3.56 4.062,3.3 4.043,3.28 3.809,3.07 3.808,3.28 3.555,3.05 3.305,3.04 3.28,3.05 3.04,3.03 2.8,3.03 2.77,2.81 2.54,3.05 2.56,2.78 2.54,2.79 2.26,2.8 2.03,2.78 2.04,2.79 2.03,2.79 1.77,2.78 1.76,2.54 3.32,5.58 2.78,5.33 2.79,5.07 z m -677.6,-340.32 c 8.633,0 15.234,1.02 21.3,3.3 -1.769,-3.04 -3.019,-5.83 -4.054,-8.37 -65.672,-61.369 -60.098,-91.795 -60.098,-91.795 22.324,12.918 47.168,50.454 59.844,73.295 l 4.57,-0.77 c 5.078,-0.77 10.653,-0.77 16.231,0 -8.633,-8.12 -21.055,-31.192 -41.336,-67.208 -20.532,-36.25 -69.739,-51.731 -69.739,-51.731 l -0.515,5.84 0.262,5.574 0.253,5.825 0.528,5.586 0.996,5.586 1.023,5.574 1.516,5.324 1.523,5.328 2.024,5.59 2.019,5.051 2.039,5.34 2.532,5.062 2.547,5.078 2.793,4.813 2.777,4.82 2.781,4.813 3.047,4.574 3.047,4.562 3.308,4.559 3.032,4.312 3.3,4.058 3.036,4.06 3.32,3.81 3.269,3.8 3.059,3.54 3.035,3.56 3.047,3.3 3.039,3.03 2.805,3.04 2.781,2.8 2.539,2.54 z m 764.82,369.74 c 17,36.77 44.38,80.88 65.94,111.84 17.23,25.1 57.31,71.49 85.2,95.08 6.6,-29.16 16.99,-83.42 -8.11,-130.34 -24.35,-46.66 -85.21,-114.13 -146.33,-146.33 l -6.85,-3.03 c -7.6,-3.05 -14.94,-6.59 -21.29,-9.91 7.87,8.89 14.71,17.75 20.04,26.9 3.53,6.59 6.07,13.44 8.1,20.27 l 2.03,7.11 c 22.33,14.97 45.14,39.31 60.88,53.76 15.73,14.2 38.03,43.11 50.45,79.38 -14.7,-9.64 -27.89,-21.31 -43.88,-40.83 -22.82,-28.66 -46.92,-59.59 -66.92,-85.22 l 0.74,9.4 v 3.28 3.06 2.78 z m 20.02,-98.39 c 29.94,14.45 37.8,19.26 52.48,27.39 16.76,9.11 37.31,22.81 57.33,38.78 17.26,13.69 38.83,41.6 38.83,41.6 -23.58,-8.11 -46.66,-24.61 -62.66,-36.52 -20.29,-15.47 -52.99,-40.08 -80.37,-62.13 l 9.88,28.91 c 32.21,25.36 78.87,70.74 94.08,85.97 15.49,15.46 74.81,66.7 102.21,72.26 0,0 8.09,-58.08 -20.29,-96.86 -28.17,-39.06 -119.46,-101.68 -202.38,-115.65 l 1.52,2.03 1.52,2.04 1.02,1.77 1.52,2.29 1.78,2.27 1.01,1.79 1.27,2.03 1.25,1.76 z m -4.04,-57.32 c 29.41,5.58 45.16,7.61 81.66,19.27 36.52,11.66 58.57,26.37 58.57,26.37 -15.72,-1.51 -34.21,-2.79 -59.58,-9.88 -31.96,-9.13 -48.44,-14.97 -83.7,-28.41 -8.63,6.08 -19,8.64 -28.63,8.88 25.33,11.41 97.36,38.3 144.79,52.75 40.31,12.42 93.04,28.39 157.98,26.62 0,0 -13.71,-39.05 -88.51,-69.99 -55.78,-23.33 -158.99,-36.52 -211.49,-59.34 l 2.29,1.03 2.01,1.25 2.05,1.27 1.76,1.03 2.03,1.5 3.05,2.55 3.04,2.78 2.54,2.8 2.04,2.52 2.01,2.8 1.54,2.53 1.25,2.56 1.02,2 0.76,2.04 0.76,1.78 0.53,2.02 z m -0.23,-43.87 -2.05,1.26 -2.54,1.02 -2.29,1.27 -1.76,0.76 -2.03,1.01 -2.03,0.76 c 36.52,11.42 87.75,29.68 165.08,34.74 56.54,3.82 97.13,0.52 118.42,-5.06 0,0 -51.72,-36.28 -110.55,-49.2 -58.85,-12.67 -106.76,-4.56 -141.78,-4.82 -2.26,3.56 -4.8,7.1 -8.86,11.16 40.82,-0.26 108.8,10.16 133.39,18.27 0,0 -59.33,12.67 -143,-11.17 z m -858.93,199.58 v -10.42 l 0.762,-10.9 c -20.273,25.63 -44.375,56.56 -67.187,85.22 -15.743,19.52 -28.926,31.19 -43.887,40.83 12.683,-36.27 35,-65.18 50.722,-79.38 15.735,-14.45 38.555,-38.79 60.872,-53.76 l 2.031,-7.11 c 1.765,-6.83 4.312,-13.68 7.847,-20.27 5.586,-9.15 12.161,-18.01 20.293,-26.9 -6.335,3.32 -13.96,6.86 -21.296,9.91 l -7.11,3.03 c -61.113,32.2 -121.965,99.67 -146.316,146.33 -24.59,46.92 -14.453,101.18 -8.117,130.34 27.902,-23.59 68.222,-69.98 85.461,-95.08 21.558,-30.96 48.933,-75.07 65.925,-110.84 z m 289.102,-300.25 1.789,-1.53 2.273,-2.02 2.266,-1.77 1.797,-1.29 2.019,-1.25 1.782,-0.76 1.765,-1.02 c 1.258,-0.76 12.168,-21.54 -1.015,-46.41 -13.184,-25.1 -24.082,-50.73 -29.414,-64.918 0,0 -7.098,1.024 -14.969,40.328 -5.324,26.37 -11.926,33.21 -19.016,42.09 7.598,-3.8 13.692,-4.83 14.461,-4.83 l 5.07,-1.26 2.52,5.07 c 4.59,8.87 5.84,17.5 5.84,24.6 0,2.54 0,4.82 -0.235,6.85 12.168,-0.5 18.75,5.84 21.29,8.87 z m -188.914,176.99 c -37.539,17.77 -67.719,45.15 -82.422,71.01 -17.004,30.43 -8.117,68.22 -8.117,68.22 33.984,-9.13 51.472,-38.04 56.289,-46.41 4.836,-8.62 12.93,-40.57 16.738,-53.75 l 0.762,-2.79 0.754,-3.05 1.023,-2.79 1.016,-2.79 0.762,-2.8 1.027,-2.52 1.25,-2.54 1.023,-2.54 1.016,-2.52 1.25,-2.3 1.289,-2.28 0.996,-2.29 1.27,-2.01 1.523,-2.03 1.262,-2.04 z m -31.711,-18 c -30.684,-4.56 -43.113,1.52 -61.113,17.76 -17,15.72 -31.946,54.52 -31.946,54.52 15.969,-2.03 46.926,-16.24 65.41,-26.63 17.004,-9.39 41.348,-29.67 51.489,-37.54 -12.168,-0.76 -19.27,-5.07 -19.797,-5.32 z m 11.406,-47.42 c -12.168,-4.06 -23.066,-6.08 -52.734,1.77 -31.453,8.38 -36.016,32.46 -36.016,32.46 13.945,9.38 31.699,9.13 40.828,5.59 8.867,-3.3 29.668,-3.3 38.282,-1.28 4.042,-16.99 12.433,-28.13 20.546,-35.5 l -2.273,-0.5 -2.031,-0.52 -2.293,-0.51 -1.77,-0.75 -2.031,-0.5 z m -5.832,-38.8 c -9.883,-7.35 -32.449,-14.44 -57.051,-13.95 -24.605,0.77 -45.894,18.78 -45.894,18.78 4.832,7.09 9.89,15.46 29.16,22.82 19.273,7.09 39.059,3.03 57.832,-4.58 l 1.766,-4.05 1.504,-3.04 1.523,-2.8 1.785,-2.52 1.77,-2.54 1.777,-2.03 1.758,-2.28 2.043,-2.02 z m 9.387,-36.02 c -10.918,-15.46 -29.668,-24.84 -50.969,-29.14 -25.613,-5.33 -39.551,6.83 -39.551,6.83 11.145,32.98 33.469,38.06 55.266,42.09 18.262,3.82 32.207,3.31 47.93,0.53 l -1.758,-2.04 -1.797,-2.27 -1.524,-2.04 -1.25,-2.03 -1.523,-2.79 -1.269,-2.54 -1.27,-2.27 -1.035,-2.3 z m 40.832,-20.78 c -1.281,-3.31 -2.277,-7.61 -2.531,-9.89 -12.676,-15.98 -30.43,-26.87 -54.024,-29.69 -23.574,-3.02 -32.707,13.71 -32.707,13.71 7.348,13.45 29.172,15.98 47.168,30.94 l 1.262,-4.06 4.062,-0.76 2.793,-0.75 2.774,-0.51 2.539,-0.52 2.793,-0.24 2.539,-0.25 h 2.285 l 2.52,-0.27 h 2.285 l 2.285,0.27 h 2.285 l 2.02,0.25 2.023,0.24 2.043,0.26 2.019,0.26 1.797,0.51 z m -3.047,-25.1 0.262,-2.53 0.508,-2.3 0.507,-2.02 0.489,-2.29 0.781,-1.77 0.742,-2.03 1.016,-2.28 1.015,-2.29 1.016,-1.76 1.016,-1.79 c -3.555,-7.09 -20.547,-36.25 -56.055,-31.45 0,0 -9.629,20.04 13.965,35.75 15.976,10.92 23.828,12.95 34.738,16.76 z m 15.223,-25.12 2.539,0.27 2.265,0.49 2.285,0.51 2.286,0.5 2.285,0.77 2.273,0.52 2.024,0.75 2.031,0.76 1.777,1.02 1.797,0.76 2.031,1.01 3.282,1.78 3.047,2.03 c 3.3,-3.55 5.839,-10.15 4.062,-19.02 -2.285,-9.13 -8.379,-19.54 -17.512,-26.63 -13.687,-10.91 -31.695,-21.05 -51.98,-17.75 0,0 -4.551,14.96 35.508,52.23 z m 45.379,1.27 1.535,-1.76 1.777,-1.78 1.758,-1.52 1.797,-1.53 3.789,-2.03 2.793,0.77 6.844,2.79 c 3.046,-7.87 4.066,-11.93 5.07,-19.02 0.762,-9.13 2.805,-23.58 -0.762,-35.51 -4.308,-14.46 -12.91,-23.07 -17.734,-28.906 0,0 -13.203,14.696 -17.012,26.636 -4.055,12.42 -5.332,27.13 -0.488,42.09 2.785,8.1 7.09,15.47 10.633,19.77 z m 31.945,2.54 1.789,1.78 1.773,1.52 1.536,1.78 c 5.312,-3.56 17.988,-19.53 24.328,-35.5 4.824,-13.45 9.89,-31.95 12.429,-42.36 2.52,-10.892 9.895,-32.709 14.715,-40.31 0,0 -20.301,-2.797 -35.269,14.961 -14.7,16.988 -19.512,34.219 -22.043,51.989 -1.778,13.93 -1.016,33.2 0.742,46.14 z m -233.789,232.3 1.262,-2.03 1.277,-2.03 0.996,-1.79 1.785,-2.27 1.524,-2.29 1.015,-1.77 1.504,-2.04 1.301,-2.03 c -82.942,13.97 -174.238,76.59 -202.383,115.65 -28.125,38.78 -20.0195,96.86 -20.0195,96.86 27.3711,-5.56 86.7185,-56.8 101.9335,-72.26 15.469,-15.23 62.129,-60.61 94.317,-85.97 l 9.902,-28.91 c -27.383,22.05 -60.098,46.66 -80.625,62.13 -15.735,11.91 -39.324,28.41 -62.395,36.52 0,0 21.301,-27.91 38.801,-41.6 20.027,-15.97 40.313,-29.67 57.063,-38.78 14.949,-8.13 22.566,-12.94 52.742,-27.39 z m 4.054,-57.32 0.516,-1.76 0.488,-2.29 0.774,-1.78 1.012,-2.28 1.015,-2.29 1.504,-2.53 1.789,-2.53 1.785,-2.8 2.524,-2.78 2.539,-2.8 3.047,-2.53 1.765,-1.28 1.77,-1.5 2.039,-1.03 1.777,-1.27 2.285,-1.25 2.266,-1.03 c -52.473,22.82 -155.957,36.01 -211.2383,59.34 C 13.7109,1310.05 0,1349.1 0,1349.1 c 64.9219,1.77 117.422,-14.2 157.754,-26.62 47.676,-14.45 119.68,-41.34 144.797,-52.75 -9.387,-0.24 -19.785,-2.8 -28.403,-8.88 -35.261,13.44 -51.726,19.28 -83.933,28.41 -25.11,7.09 -43.875,8.37 -59.59,9.88 0,0 22.305,-14.71 58.816,-26.37 36.274,-11.66 51.997,-13.69 81.664,-19.27 z m 0,-43.87 c -83.429,23.84 -142.777,11.17 -142.777,11.17 24.36,-8.11 92.57,-18.53 133.391,-18.27 -4.063,-4.06 -6.602,-7.6 -9.121,-11.16 -34.739,0.26 -82.676,-7.85 -141.504,4.82 -59.0823,12.92 -110.586187,49.2 -110.586187,49.2 21.066387,5.58 62.156287,8.88 118.703187,5.06 77.078,-5.06 128.316,-23.32 165.586,-34.48 l -2.031,-0.76 -1.782,-0.76 -2.031,-0.76 -2.539,-1.27 -2.266,-1.27 -2.273,-1.01 z m 5.575,-42.34 2.539,-1.27 2.793,-1.28 2.539,-0.76 2.519,-0.77 2.793,-0.74 2.813,-0.51 2.258,-0.51 2.539,-0.25 c -3.547,-3.56 -8.371,-7.87 -12.922,-13.46 -26.375,-7.6 -71.028,-15.72 -144.805,-21.04 -73.789,-5.57 -113.0937,8.12 -113.0937,8.12 25.6055,15.73 66.6875,31.7 94.3317,37.03 27.895,5.33 100.657,4.57 132.368,9.12 0.515,-0.51 4.558,-3.56 10.894,-7.35 -27.117,-2.54 -84.187,-5.08 -113.855,-19.78 0,0 54.511,-7.36 126.289,13.45 z m -1.77,-37.04 c -18.504,-4.8 -42.859,-13.18 -65.176,-22.57 -20.293,-8.62 -39.812,-22.33 -39.812,-22.33 39.551,1.04 79.109,16.76 108.789,29.94 4.055,-2.53 12.18,-6.33 23.586,-7.1 -14.199,-3.8 -37.539,-11.16 -112.082,-46.15 -74.309,-35 -113.8595,-22.82 -113.8595,-22.82 26.8675,51.21 72.0035,69.74 97.1135,77.35 25.094,7.6 81.16,14.19 103.738,19.02 l -1.035,-2.04 -0.75,-2.03 z m 38.801,-31.19 c -22.82,-10.4 -42.356,-16.49 -68.496,-34.99 -21.277,-15.47 -32.942,-36.26 -32.942,-36.26 54.27,19.51 105.5,64.92 105.5,64.92 0.997,-1.53 2.52,-3.3 4.305,-4.82 -18.777,-13.95 -62.89,-57.82 -100.683,-89 -38.036,-31.461 -83.934,-27.394 -83.934,-27.394 17.246,52.744 49.219,78.604 70.996,90.014 22.07,11.42 90.039,37.03 109.316,44.38 -0.769,-1 -1.535,-2.02 -2.031,-3.04 z m 36.758,-40.83 v -3.54 l 0.246,-2.29 0.523,-2.03 0.266,-1.77 c 0.742,-1.78 0.996,-3.03 1.504,-4.31 -19.766,-19.04 -34.485,-37.77 -63.653,-78.356 -29.414,-40.829 -75.832,-42.36 -75.832,-42.36 4.582,32.985 13.457,59.094 38.313,86.986 24.578,28.15 56.543,53.78 79.883,70.76 6.074,-2.8 13.945,-4.58 23.828,-3.32 0.516,0 1.504,0.26 2.297,0.26 -3.059,-4.04 -5.102,-8.09 -6.098,-11.91 -17.762,-10.14 -68.98,-36.26 -89.781,-78.096 0,0 32.469,10.129 88.504,69.976 z m 58.594,-129.07 1.777,2.293 1.758,2.774 1.777,3.046 1.777,3.293 1.524,3.313 1.543,3.531 1.242,3.813 1.531,3.8 1.27,4.059 1.258,4.059 1.027,4.066 1.008,4.309 2.039,8.363 0.754,4.059 1.023,4.054 0.734,4.059 0.516,3.801 0.774,3.804 0.496,3.804 0.507,3.55 0.52,3.3 0.508,3.05 0.242,2.79 0.254,2.78 0.254,2.28 0.254,2.03 0.254,1.78 0.234,2.02 c 2.812,3.05 5.84,5.34 8.652,7.61 1.25,1.01 2.266,1.78 3.535,3.04 0,-2.78 0,-5.56 0.254,-8.37 -3.046,-44.625 -6.601,-90.785 -20.527,-113.859 -13.711,-22.563 -38.828,-34.238 -38.828,-34.238 -23.574,42.105 4.844,98.394 28.672,137.707 3.047,1.02 6.074,2.28 9.133,3.8 -8.625,-30.171 -24.348,-65.921 -17.746,-93.57 z m 58.574,56.301 c -7.364,-51.484 4.824,-60.859 4.824,-60.859 12.156,24.086 8.125,58.066 8.125,58.066 3.019,3.559 9.355,9.891 12.91,15.965 -6.074,-107.254 -22.82,-119.688 -22.82,-119.688 -24.856,23.086 -17.485,96.625 -15.207,124.515 l 1.269,-2.28 1.524,-2.27 1.758,-2.558 1.535,-2.524 1.765,-2.539 1.27,-1.773 1.523,-2.032 1.27,-1.781 z m 45.136,-5.07 c 6.829,-48.438 16.231,-55.286 16.231,-55.286 3.801,20.786 -2.285,41.333 -2.285,41.333 4.824,-3.297 9.89,-5.325 13.945,-6.594 10.399,-50.735 -5.574,-71.516 -5.574,-71.516 -25.871,31.192 -27.902,63.649 -33.985,111.852 l 1.024,-2.551 1.269,-2.281 1.25,-2.539 1.524,-2.539 1.531,-2.278 1.516,-2.531 1.777,-2.539 z m -138.457,399.399 2.266,-5.33 2.805,-5.07 2.781,-5.33 3.301,-5.58 1.789,-2.54 2.012,-2.78 1.765,-2.79 2.051,-2.79 2.266,-2.78 2.293,-2.8 2.277,-2.79 2.539,-2.78 2.793,-3.05 2.793,-2.81 2.793,-3.03 3.039,-3.03 3.289,-3.05 3.293,-3.04 3.555,-3.05 3.816,-3.28 3.789,-3.07 4.063,-3.28 4.062,-3.3 4.309,-3.56 4.832,-3.28 4.531,-3.55 5.09,-3.3 5.086,-3.56 c 12.414,-8.61 26.609,-26.62 15.957,-51.72 -10.656,-25.36 -30.43,-60.86 -18.504,-74.81 11.902,-13.94 54.012,-21.05 88.484,-7.36 0,0 7.364,-21.82 20.047,-35.75 0,0 -6.094,-11.92 -25.867,-5.84 0,0 7.352,-18 -2.793,-37.27 0,0 -23.086,4.04 -33.215,25.36 0,0 -9.14,-16.74 -27.644,-22.57 0,0 -15.215,7.84 -11.907,38.28 0,0 -11.179,-27.12 -45.664,-31.69 0,0 -19.773,25.09 6.106,58.83 0,0 -18.789,-16.49 -52.254,-8.61 0,0 -5.578,17.24 25.105,41.07 0,0 -34.492,1.53 -47.668,30.43 0,0 14.465,18 50.207,13.95 0,0 -33.222,7.35 -40.566,46.92 0,0 23.84,15.21 61.855,-9.14 0,0 -6.582,12.68 -22.558,25.37 -15.985,12.16 -35.254,47.41 -28.399,99.15"
           style="fill:#e88b0f;fill-opacity:1;fill-rule:nonzero;stroke:none"
           id="path84"
           inkscape:connector-curvature="0" />
      </g>
    </g>
  </g>
</svg>
