<?xml version="1.0" encoding="UTF-8" standalone="no"?>
<!-- Created with Inkscape (http://www.inkscape.org/) -->

<svg
   xmlns:dc="http://purl.org/dc/elements/1.1/"
   xmlns:cc="http://creativecommons.org/ns#"
   xmlns:rdf="http://www.w3.org/1999/02/22-rdf-syntax-ns#"
   xmlns:svg="http://www.w3.org/2000/svg"
   xmlns="http://www.w3.org/2000/svg"
   xmlns:sodipodi="http://sodipodi.sourceforge.net/DTD/sodipodi-0.dtd"
   xmlns:inkscape="http://www.inkscape.org/namespaces/inkscape"
   width="249.99995"
   height="273.41605"
   id="svg4308"
   version="1.1"
   inkscape:version="0.48.0 r9654"
   sodipodi:docname="rfef logo.svg">
  <defs
     id="defs4310" />
  <sodipodi:namedview
     id="base"
     pagecolor="#ffffff"
     bordercolor="#666666"
     borderopacity="1.0"
     inkscape:pageopacity="0.0"
     inkscape:pageshadow="2"
     inkscape:zoom="1.01"
     inkscape:cx="147.78627"
     inkscape:cy="70.654914"
     inkscape:document-units="px"
     inkscape:current-layer="layer1"
     showgrid="false"
     fit-margin-top="0"
     fit-margin-left="0"
     fit-margin-right="0"
     fit-margin-bottom="0"
     inkscape:window-width="1680"
     inkscape:window-height="988"
     inkscape:window-x="-8"
     inkscape:window-y="-8"
     inkscape:window-maximized="1" />
  <metadata
     id="metadata4313">
    <rdf:RDF>
      <cc:Work
         rdf:about="">
        <dc:format>image/svg+xml</dc:format>
        <dc:type
           rdf:resource="http://purl.org/dc/dcmitype/StillImage" />
        <dc:title></dc:title>
      </cc:Work>
    </rdf:RDF>
  </metadata>
  <g
     inkscape:label="Capa 1"
     inkscape:groupmode="layer"
     id="layer1"
     transform="translate(-37.8573,38.631529)">
    <path
       d="m 215.90704,32.437959 c -2.11692,0.94085 -2.69355,2.458348 -2.69355,2.959119 l 0,0.15175 c 0.015,0.591823 0.8346,4.711828 1.66165,8.558685 3.18674,1.213995 8.7787,0.0607 11.85164,-0.569063 0.89533,-0.1897 1.60855,-0.333864 2.13967,-0.402134 1.33542,-0.182125 3.27782,-0.751161 5.49334,-1.525089 -4.65869,-4.742177 -8.80908,-8.513158 -10.44797,-10.152053 -0.4553,-0.455242 -1.06983,-0.918088 -1.80582,-1.396102 -2.62527,1.494739 -4.69664,1.707186 -6.19896,2.374884"
       style="fill:#ffed00;fill-opacity:1;fill-rule:nonzero;stroke:none"
       id="path3523"
       inkscape:connector-curvature="0" />
    <path
       d="m 150.04391,13.583815 c 0,0 -15.28121,2.367299 -36.38203,9.909257 -21.100822,7.534375 -36.397182,26.480326 -41.776693,35.524615 -5.387111,9.036691 -16.373808,36.177131 -7.541956,67.399613 8.831827,31.22252 20.030948,42.62652 28.217827,51.89082 8.171732,9.24917 15.273632,13.12636 33.149762,20.02337 17.87611,6.89706 32.08747,6.67698 50.17607,4.09729 18.08855,-2.59497 41.55664,-15.93373 48.88612,-21.75334 7.31436,-5.81961 18.9384,-21.32082 21.95062,-26.26791 3.01984,-4.96219 10.9867,-21.10075 13.14912,-33.80221 2.13967,-12.70902 0.42477,-21.108396 -0.87255,-29.932643 -1.28987,-8.839422 -2.79982,-17.23118 -9.0367,-29.280106 -1.60855,-3.103287 -3.86202,-6.327966 -6.38866,-9.491951 -0.76637,0.986378 -2.33694,0.637349 -2.33694,0.880148 l 0.19725,1.987922 c -0.59913,1.18365 -3.39917,1.396099 -6.19136,4.188292 -3.78617,3.793745 -9.97758,4.825643 -15.34954,3.99102 -5.56158,-0.872558 -10.8349,-4.135177 -14.88663,-10.288631 -3.23227,-4.92428 -5.25054,-12.268966 -5.25054,-20.417924 0,-3.808921 2.54182,-7.663363 3.84686,-10.69836 l 0.51598,0.257964 -1.32025,-0.675283 c -0.7891,-0.485601 -2.32179,-1.024312 -4.21866,-1.578196 -0.091,0.690458 -0.56145,2.397644 -0.62215,3.323316 -0.1515,2.807373 -1.42647,8.953235 -1.78307,10.75906 -0.33373,1.623721 -0.19725,8.53592 -0.20475,8.581445 l -2.18517,3.391606 -0.60702,-18.543819 c -1.99552,4.377981 -1.00913,20.046143 -1.00155,22.132702 l 0,3.18674 c 0,1.563023 0,1.99551 -1.98792,4.385568 -0.50865,0.607001 -0.56872,2.610096 -1.72992,3.740631 -0.95607,0.91809 -1.43405,0.607 -1.81345,0.303496 -0.28842,-0.227599 -0.5311,-0.455244 -0.89532,-0.174499 l -0.55415,0.440081 c -1.72997,1.365747 -4.59046,5.341589 -5.97136,4.85599 -0.47045,-0.159325 -2.36732,-9.50712 -2.58734,-10.56178 -0.5463,-2.405234 2.47349,-11.737842 2.61767,-15.895786 0.13675,-3.679931 1.20639,-14.848712 2.22314,-24.416532 -5.31126,-1.525083 -10.5011,-2.124497 -13.56644,-2.124497 -3.22466,0 -15.71366,0.220025 -17.8685,0.652524"
       style="fill:#ffed00;fill-opacity:1;fill-rule:nonzero;stroke:none"
       id="path3525"
       inkscape:connector-curvature="0" />
    <path
       d="m 278.8202,-26.569166 c -8.10341,0.864976 -16.08546,1.912048 -23.63499,4.059307 -1.27472,0.478012 -2.71634,0.720811 -3.77099,1.434034 -0.94842,2.723908 1.1457,4.203467 2.16242,6.206567 -0.29538,4.537318 -0.81185,8.9304713 -1.2064,13.4146722 -0.81185,0.95602499 -0.28842,2.43558364 -0.81185,3.5281833 -0.28057,1.0091374 0.14425,2.2990115 -0.47772,3.1563968 -0.33372,5.9713517 0,12.2234387 -0.091,18.2403127 1.04707,2.625276 0.14475,5.683033 0.42477,8.399351 -1.33539,1.100184 -2.95156,1.72236 -4.48418,2.488696 -4.28699,1.669245 -7.82276,4.195876 -12.17795,5.774075 l -1.38092,0.523536 c -0.95602,0.189699 -1.81339,0.478011 -2.67077,0.864975 -1.53269,0.326282 -2.77704,1.335396 -4.40078,1.426449 -1.64648,0.956025 -3.78615,0.918085 -5.86509,0.86497 -0.81947,-0.01525 -1.62375,-0.03745 -2.39007,0 -0.79667,0.189699 -1.53267,0.05282 -2.23072,-0.07585 -0.85737,-0.174524 -1.68442,-0.341444 -2.54939,0.07585 -0.85742,-0.432501 -0.6146,-1.578196 -0.51597,-2.390059 -1.29745,-2.76943 0.51597,-5.546448 0.42477,-8.164131 0.76632,-1.289874 2.33697,-1.525084 3.53576,-2.344536 1.76788,-0.660109 3.20192,-2.29142 5.06084,-2.906005 2.1928,-0.872563 4.34004,-2.101732 6.25969,-3.437134 3.09569,-2.913595 7.15503,-4.248991 10.49352,-6.790797 l 0,-0.956025 c -1.31267,-0.21245 -2.51907,-0.0453 -3.71789,0.128999 -0.87255,0.1138 -1.72997,0.235225 -2.63287,0.21245 l -0.091,0.189699 c -2.57972,0.144175 -4.71939,1.244347 -7.16256,1.820998 -0.84979,0.09105 -1.81344,0.857385 -2.61769,0.333864 0,-2.010685 2.57217,-2.200372 2.80734,-4.203469 1.72237,-1.578196 2.7315,-3.770978 4.49942,-5.250539 0.182,-0.8118601 0.56144,-1.5781956 0.89532,-2.2458939 0.28842,-0.956025 0.34157,-2.1927868 1.38852,-2.6708006 1.23672,-3.7709777 5.44021,-4.97738703 7.92133,-7.7847597 1.47952,0.0453 2.29899,-1.5250836 3.53577,-1.5781959 -1.66927,-1.3809214 -3.0957,-3.3384938 -3.81652,-5.2960638 -1.19125,-1.6237231 -2.86809,-2.3900591 -4.63596,-3.1032821 -0.9788,0.129 -1.79065,-0.189699 -2.58732,-0.515951 -0.7208,-0.288334 -1.44165,-0.576648 -2.23074,-0.538711 -2.04862,1.820995 -4.68149,2.572156 -5.82719,5.1594915 -0.4783,0.9104977 -1.47195,1.6237208 -1.47195,2.6707931 -3.06536,4.2489915 -6.82878,8.839422 -10.78942,12.2234432 l -10.6073,0 -1.28229,-0.2883342 -1.10777,-0.2352244 c -0.76633,-1.9120476 0.95602,-3.2474441 0.52382,-5.25054387 l -1.03947,-1.53266852 0.0832,-1.23676431 c 2.29899,-2.0562096 5.25813,-2.8149552 7.891,-4.4386784 1.28225,0.1441746 2.09415,-0.9560225 3.18674,-1.0546598 1.43405,-1.1912344 3.49024,-0.766338 4.91667,-1.9575724 l -0.182,-0.3338616 c -8.11861,-0.5690613 -16.48001,-0.0453 -23.87784,1.8665226 -2.19277,0.5690585 -4.38557,1.1457095 -6.63146,1.6237208 -1.43405,1.2822817 -3.44472,1.0015474 -4.63594,2.2383067 l 0.23475,2.1472569 0.099,7.6330126 c -0.66772,1.8209978 0.23475,3.6344081 -0.4248,5.4554061 0.516,1.335396 -0.24275,2.716318 -0.33372,4.104829 -0.865,5.918237 -1.15332,11.980641 -1.7148,17.951993 l -0.62977,0.614584 c -0.81185,-1.570609 -3.24744,-0.857385 -4.62074,-0.675283 -1.06227,-0.462837 -2.77704,0.341444 -3.25506,-1.039488 0.47829,-5.394701 1.34299,-10.645245 2.19279,-15.895783 -0.091,-1.24435 0.4777,-2.253487 0.865,-3.247444 1.91202,-0.667699 0.0545,-2.435582 0.28102,-3.634406 l -0.28102,-0.5235361 c -0.95608,0.2579643 -1.74512,0.0305 -2.5115,-0.1972745 -0.82699,-0.2427994 -1.62369,-0.4780113 -2.54939,-0.1365997 -0.28055,1.0470723 -0.94842,1.8665223 -1.28987,2.9135953 -0.099,0.713223 -0.28103,1.335396 0.28057,1.912047 -1.43404,5.918237 -2.04862,12.124804 -3.42954,18.043041 l -0.62215,1.001547 c -4.01381,-0.614583 -7.45853,0.720813 -11.26742,0.864975 -1.14569,0.569061 -2.39004,0.758748 -3.67234,0.857386 -7.11708,2.147259 -14.13551,4.347631 -21.16152,6.7301 -0.75872,0.288334 -1.81339,0.189699 -2.47352,-0.288335 l 0.14475,-2.814962 c -0.25007,-2.435581 1.47195,-4.06689 1.22913,-6.540411 1.38852,-4.727002 3.06536,-10.265868 1.53269,-15.27361 -0.62215,-1.244349 -1.81339,-1.532674 -2.90599,-1.722361 -1.57822,1.191235 -2.53422,2.670794 -2.86809,4.628366 -0.67525,1.198824 -0.57663,3.156394 -0.0545,4.393158 -0.24275,3.057758 -0.85738,5.971352 -1.57815,8.831833 0.4783,2.625268 -1.37337,4.780117 -1.81344,7.215698 -1.57818,2.663211 -1.71475,5.963767 -2.81495,8.778722 -1.18364,2.625271 -4.43866,2.678386 -6.35073,4.491794 -3.33849,3.247444 -7.05638,5.918237 -9.780251,9.689222 -2.488718,0.857385 -2.868092,3.869618 -4.302138,5.781665 -3.346067,4.484201 -5.493336,9.636107 -7.92133,14.605912 -0.675273,1.335397 -0.819423,2.868065 -1.532646,4.203467 l -6.639083,2.048619 c -4.157914,2.154847 -9.165676,2.344534 -13.32359,4.484201 -0.902923,0 -2.238319,1.388512 -2.761868,0.15175 l -0.151499,0.523533 c -0.940848,1.335399 -0.326774,3.391607 -0.182,4.96222 l 0,-0.136575 c 1.525046,-0.341441 3.201892,-0.288334 4.582838,-1.062244 3.77094,-0.326285 7.359806,-1.28229 10.789372,-2.473524 1.767896,-0.478011 4.340039,-1.335396 5.96376,0.08347 -0.288425,4.453853 -1.289872,8.740787 -0.811848,13.331227 0.440049,5.44021 0.477724,11.0322 1.67682,16.13853 -0.197499,3.96069 0.857423,7.39783 1.714796,10.9336 1.009122,1.43405 1.009122,3.39159 2.192769,4.72701 0.583924,2.43557 1.86652,4.34004 2.868043,6.58591 2.299069,6.20658 7.253656,11.26742 10.455575,17.04913 -0.14425,0.85737 1.19882,1.8134 -0.14425,2.38242 -4.195866,1.62375 -8.26278,3.49029 -12.45107,5.06089 l -1.062222,0.86494 c -0.478349,0.85743 -0.705673,1.7148 -0.849848,2.67081 0.515974,1.47957 0.14475,3.58129 1.91207,4.15034 0.515949,0.0545 1.471947,0.28844 1.616121,-0.52385 5.212612,-2.43559 10.888069,-3.72541 16.085479,-6.20652 0.6753,-0.091 1.63133,-0.28843 1.96517,0.52324 0.71323,6.20653 1.28988,12.46622 2.48112,18.47553 0.13625,1.95754 1.5706,4.05926 0.42478,5.9258 0.81184,1.47955 2.48872,1.62371 3.20191,3.19436 1.343,0.57661 2.77705,0.86493 4.01379,1.62369 0.90293,0.0985 1.343,0.865 2.33697,0.66773 0.4783,-2.3825 -1.19125,-4.29452 -1.19125,-6.68456 -0.53114,-0.90297 -0.28057,-2.14732 -0.94844,-3.00469 0.1895,-2.96667 -1.35055,-5.29604 -1.06222,-8.16413 0,-2.39007 -0.76638,-4.8712 0.18949,-7.06396 1.00913,-0.19725 1.67685,0.8119 2.4811,1.23677 3.30814,1.3885 6.11553,3.82409 9.79542,4.19592 4.24902,2.06377 8.9305,2.92114 13.41472,4.211 3.38401,0.37951 6.73008,0.85737 9.87887,1.90445 6.54804,0.43219 12.84562,-0.33373 19.00668,-1.04708 3.30054,3.58133 4.68149,8.16417 6.63903,12.45868 0.76637,2.29141 2.20037,4.52971 2.48112,6.88188 0.37947,0.52383 0.85737,1.19121 1.00912,1.90445 0.182,0.91047 0.6222,1.43404 0.95602,2.29141 0.51598,1.28987 1.03948,2.62529 1.56305,3.76336 2.43559,2.35215 3.67994,5.02291 7.12463,5.979 0.61457,-0.66773 1.14572,-1.52511 1.91205,-1.91207 0.1895,-1.04708 -0.0605,-2.10172 0,-3.19435 -0.5311,-0.95599 -0.95603,-1.72237 -1.3961,-2.72391 -1.85892,-2.20035 -3.24744,-5.25051 -4.72701,-7.83028 0.14475,-1.00153 -0.95603,-0.57663 -1.28987,-1.28987 -1.42643,-3.5813 -3.3385,-6.91979 -4.39314,-10.64525 -0.41693,-2.14725 -1.8134,-3.92269 -2.1397,-6.11549 -1.38849,-3.43711 3.23987,-3.23984 4.72702,-4.96223 8.49042,-4.43867 16.94285,-8.87733 24.39378,-15.32674 2.52665,-3.72546 6.73766,-5.20498 9.74235,-8.73318 1.50232,-1.38092 3.51297,-1.23674 5.54644,-1.08502 1.19882,0.0757 2.40522,0.16675 3.52819,-0.0605 2.47352,0.33373 4.76494,1.04707 7.25365,1.38095 2.3369,1.28982 5.34157,0.23575 7.73163,1.52505 l 1.76785,0.72084 c 0.19725,1.28225 1.85897,0.85738 2.52667,1.6237 2.14724,0.66772 3.96826,1.47957 6.06998,2.24589 2.48112,0.1895 6.25206,1.00153 7.58748,-1.38852 -0.2275,-1.57817 0.53113,-3.29296 -0.4248,-4.49179 -1.67684,-1.00912 -3.62681,-1.23677 -5.49336,-1.94997 l -1.66922,-0.67527 c -0.95602,-0.37947 -2.04862,-0.6146 -3.05774,-0.85742 -0.865,-0.14375 -1.62375,-0.56875 -2.43559,-0.091 -5.06087,-1.53267 -10.31903,-2.57975 -15.60749,-3.43717 -0.74357,-0.21275 -1.53269,-0.1895 -2.30659,-0.1595 -1.1685,0.037 -2.32177,0.0757 -3.23227,-0.70562 -0.95602,-1.62376 1.32782,-2.52664 1.66165,-3.96069 2.57974,-2.72392 3.77856,-6.31282 6.60113,-9.12015 0.0832,-0.76638 0.41692,-1.43406 0.95602,-2.04862 2.13967,-5.45545 4.66632,-10.69837 6.76803,-16.13858 l 0.52385,-0.52325 c 3.45229,-0.0485 6.73766,0.48557 10.03068,1.03187 3.30811,0.53115 6.63146,1.06987 10.16722,1.01675 l 0.62215,0.52384 c 2.20799,1.1457 2.67082,4.43867 5.21261,5.15189 l 0.95602,0.44003 c 1.10018,0.56876 2.42802,0.66771 3.76342,0.56876 3.14879,0.23475 4.35519,-2.92118 5.96373,-5.06088 1.10018,-2.00307 1.43405,-4.77249 1.00918,-7.21565 l -0.4248,-1.2823 c -1.8665,-2.33694 -5.06087,-3.39159 -8.26278,-2.76945 -2.1093,0.76637 -2.82249,3.3385 -4.96981,4.29452 -1.10018,0.53112 -2.29142,0.0985 -3.34607,0.71325 l -2.04862,0 c -4.10479,0.0985 -7.53436,-1.80582 -11.60127,-2.0031 l -0.956,0.28843 -1.47957,-0.7132 c -1.66922,0.091 -3.67236,0.037 -4.63596,-1.53267 2.24589,-7.92133 0,-16.806278 -1.38092,-24.682087 -1.2899,-2.959123 -1.57817,-6.350729 -2.7239,-9.355373 -0.99394,-1.335397 -1.52509,-2.86807 -2.23072,-4.294514 -2.83014,-4.211059 -5.25816,-8.452463 -8.93807,-12.367606 -1.53265,0.235225 -3.00464,0.569059 -4.57521,0.667699 l 0,0.379391 c 1.62369,2.245897 3.61919,4.537316 4.57521,7.306754 l -0.81185,0.667698 c -4.82566,-0.713228 -9.35538,-2.147259 -14.61349,-1.912048 -3.05019,-0.235224 -0.52382,-3.626823 -1.76789,-5.205014 0.33372,-1.714775 0.43217,-3.672347 0.25005,-5.53128 -1.72995,-1.676836 -3.44477,-3.437129 -5.06846,-5.303651 -0.47045,4.772527 -1.19123,9.454005 -1.05465,14.514857 l -1.00155,1.525088 c -11.59367,0 -24.10549,-0.136574 -35.61568,1.14571 -0.5311,-0.0305 -1.08497,0.0305 -1.6389,0.07585 -1.10019,0.106225 -2.21554,0.220024 -3.13364,-0.356607 0.1975,-2.101732 0.28058,-4.491791 0.47775,-6.684572 1.3809,-6.259677 0.75875,-13.323626 2.86047,-19.241868 0.76632,-1.820993 -0.27318,-4.393153 1.53267,-5.683025 2.90599,0.03745 5.87273,-0.424921 8.69523,-0.622176 0.0838,-1.335397 0.0838,-2.716318 0.32679,-4.00619 l 0.1895,0.144175 c 0,6.63146 0.62215,13.080824 0.7663,19.522602 0.71323,3.535768 1.7224,7.018424 2.14727,10.64524 l 0.956,0 c 0.67532,-1.570609 2.29142,-2.435582 3.67994,-3.338492 0.17475,-0.182124 0.4777,-0.166899 0.7588,-0.159324 0.40952,0.02275 0.80425,0.03745 0.85737,-0.462839 0.33372,-0.523536 0.956,-1.100185 1.72995,-0.857385 l 0.62214,-1.434034 c 1.5175,-2.003095 2.18522,-4.150354 3.0957,-6.441778 -0.56875,-2.966705 0.099,-5.781665 -0.62215,-8.69526 0.1895,-1.904458 0.4777,-3.862028 0.33372,-5.774075 0.90295,-0.857386 0.0545,-2.192782 0.43218,-3.338492 -0.4783,-2.678383 0.61462,-5.113966 1.23677,-7.54955 l 1.33539,-1.047075 0.72843,1.289872 c -1.10775,5.728555 -0.0545,11.790954 -0.62978,17.618144 l 0.29583,0.09105 c 1.66164,-3.672341 0.61457,-7.974447 0.89527,-12.124799 1.24435,-1.289874 0.24275,-3.201921 0.53115,-4.871172 0.94842,-3.778563 0.6222,-7.974447 0.94842,-11.790949 0.38688,-0.9105 1.33542,-1.525084 2.34455,-1.623724 0.81947,-1.434033 2.48111,-1.434033 3.67991,-2.336948 1.04707,-0.333862 2.32937,-0.250385 2.90604,0.85739 -0.51597,2.238306 -1.66927,4.248991 -2.28384,6.441773 -0.19725,1.532674 -1.00915,2.913595 -0.95605,4.393154 -1.53264,2.534221 -1.34299,5.781665 -1.91202,8.69526 0.28055,1.479563 0.53113,2.959122 0.42478,4.62837 0.91047,3.581293 1.57817,7.253634 3.11084,10.55419 0.8498,1.145712 2.19279,2.283837 1.80582,4.150359 0.53112,1.001548 0.1895,2.390059 1.00917,3.247444 3.48264,0.766336 4.19586,4.871165 7.39776,5.918237 0.90292,0.713224 2.43559,0.432502 3.52819,0.622174 4.72701,2.101734 9.12015,-0.864975 13.75611,-1.100185 2.82254,-2.04862 5.01534,-4.294516 8.16413,-5.683028 1.29747,-0.333861 0.42477,-2.094147 0.6753,-3.004642 4.05171,-2.913595 6.01688,-7.928927 10.59212,-10.311395 1.23675,0.182124 1.3354,1.434033 1.96517,2.291419 0.037,1.71477 1.89687,2.769432 1.61612,4.68148 l 0.8119,0.857385 1.85892,0.478011 c 0.7132,-1.100187 2.01064,-1.297459 3.20189,-1.767885 1.67685,-0.523536 1.33542,-2.959117 1.62375,-4.582841 0.0545,-1.866522 -0.9029,-3.915142 0.1895,-5.584388 l 1.33542,0.424922 c -0.037,-1.001548 0.81185,-1.858933 0.29627,-2.913595 -0.25005,-2.769433 -0.62972,-5.72855 -0.33372,-8.497983 0.3721,-0.713228 1.28987,-1.236762 0.89532,-2.238312 l -2.29142,0.523537 -0.76635,1.100187 -2.13969,0 0.23575,-1.729946 c 1.71474,-0.956022 0.9029,-3.482658 1.38087,-5.242954 -0.9029,-1.107774 -0.75872,-2.62527 -0.75872,-4.112419 -0.099,-1.236759 0.85737,-2.390059 0.14475,-3.626816 0.32587,-1.191234 0.28842,-2.6708001 1.38847,-3.4371307 1.0395,-0.9484375 1.43404,0.6752833 1.95002,0.8649703 l 0.29627,-1.1077721 c 0.516,-0.4249189 1.18367,-0.9484376 2.04862,-0.8498003 1.76792,0.0453 2.86809,-1.0015474 4.48422,-1.3885089 1.76789,-0.8573853 3.10331,-1.7223555 5.06843,-2.2383067 l 0.76605,-1.3429865 c 1.51747,-1.52508353 3.52062,-3.1943317 5.91066,-3.5357683 1.66922,-0.2807543 3.30054,-1.2367593 5.01531,-0.8573853 l 0.6753,-0.5235361 c -0.58392,-0.7132232 -1.72997,-0.2883343 -2.39007,-0.956025 -5.11396,-0.8118604 -9.97752,0.3338641 -14.71216,1.0546622 -1.1912,0.2352244 -2.90599,0.6221734 -3.96064,0 -0.19725,-1.9120475 0.28057,-3.7254553 0.61457,-5.4933407 0.38688,-1.3354015 0.6753,-2.2914239 0.44005,-3.6268209 -0.0545,-1.289871 1.37335,-1.244349 2.39005,-1.191234 1.85134,-1.054662 4.14276,-1.009137 6.01688,-2.063795 1.66165,-0.371766 2.86047,-1.236764 4.37799,-1.99551 4.39314,-0.189699 3.49024,-5.447815 6.16106,-7.54955 l 0.956,-1.380921 -0.14375,-0.523534 c -0.4783,-0.03745 -0.94843,-0.05282 -1.41125,-0.05282 -2.51144,0 -4.78771,0.478011 -7.37503,0.478011"
       style="fill:#2d2c2e;fill-opacity:1;fill-rule:nonzero;stroke:none"
       id="path3527"
       inkscape:connector-curvature="0" />
    <path
       d="m 219.7653,-38.601399 -0.9029,0.440081 0.33373,1.570614 0,1.100184 -1.05465,0.523536 c -1.00155,0.288335 -1.33542,1.434037 -1.28987,2.481106 -0.0415,1.191235 -1.47955,1.191235 -1.95757,1.904458 -0.95602,2.05621 1.28987,2.959125 1.38852,4.780117 l -0.865,0.713229 c -1.00154,0.622173 -1.15329,-0.910501 -1.66922,-1.388512 l -1.28989,0.20485 -1.85892,-0.622174 0.14425,-1.206409 0.1895,-1.145712 c -0.5766,-0.804275 -0.1895,-1.669251 -1.38088,-1.752708 -1.19882,0.849795 -2.57976,1.714771 -3.77859,2.564571 -0.66772,0.478011 -1.47957,0.675283 -1.62372,1.540258 -0.33372,0.758746 -0.75875,1.517499 -1.71477,1.471974 l -0.43217,-0.622173 c -0.8119,-0.333865 -1.7148,-0.622176 -2.57975,-0.515952 -0.59182,0.569059 -1.34299,0.462837 -2.08656,0.356605 -0.7891,-0.129 -1.57063,-0.250387 -2.1093,0.493186 l 0.23575,0.956022 c -0.23575,0.864971 0.76632,0.424922 1.04707,0.956025 1.343,0.144175 1.8665,1.570606 2.20037,2.716318 1.24435,0.144175 1.95755,1.828583 3.29297,1.1533 0.956,1.009132 -0.33373,1.858932 -0.52385,2.906005 0,0.478011 -0.43217,1.540261 0.33372,1.62372 0.76633,1.289875 2.86805,1.578199 3.20192,3.292974 0.47045,0.667699 1.0926,0 1.8058,0 0.0545,-1.66925 2.04862,-0.94085 2.63286,-2.003099 l -0.0545,-0.08347 0.24275,-0.250385 0.33373,0.106225 -0.66768,-0.531126 0.99393,0 c 0.62977,-0.614586 1.48714,-0.864975 2.25349,-1.198824 l 1.1454,-0.956025 c 1.38094,-1.714768 3.77099,-1.570606 5.49333,-2.481106 l 1.61615,-0.424922 c 5.34916,-0.75875 10.9867,-0.531126 16.13858,0.424922 1.5327,0.144174 2.91362,0.720813 4.30209,1.100187 1.10017,0.462836 1.65412,-0.01525 2.208,-0.493189 0.50802,-0.424919 1.00912,-0.849798 1.94239,-0.606998 -0.0415,0.864975 0.95602,0.864975 1.53267,0.667698 0.51595,-0.470421 0.56872,-1.039487 0.75875,-1.813408 1.47952,-0.713223 0.33372,-2.617686 1.66922,-3.482656 -0.34157,-1.72236 1.43405,-2.344534 2.39007,-3.095694 0.85737,-0.478014 2.10172,-0.728398 2.48112,-1.821001 -0.14375,-1.047069 0.62217,-1.866522 0.33372,-2.822545 l -0.0415,0.144175 c -1.74517,0.394554 -3.38404,-0.0453 -5.00019,-0.478011 -2.00309,-0.538711 -3.96826,-1.077423 -6.02445,-0.0453 0.28054,0.478011 1.85889,1.05466 1.61614,2.154847 -1.3354,1.380921 -2.38247,2.723908 -3.48266,4.294516 -0.6222,0.531126 -0.76635,1.912045 -1.91207,1.471974 -1.3354,-0.424922 0.47769,-1.327812 -0.61458,-2.04862 -1.38849,-0.8498 -1.19882,-2.670798 -1.43404,-4.150357 -1.76785,-1.244349 1.00154,-1.957572 1.00154,-3.057757 -1.14569,-0.720813 -2.81491,-0.424921 -4.20344,-0.614586 -0.52384,0.06827 -0.85737,-0.166899 -1.19124,-0.402134 -0.37208,-0.273126 -0.75873,-0.546298 -1.3961,-0.364184 -1.32782,0.478012 -0.95602,1.949983 -0.99395,3.095692 l 1.43402,1.289872 c 0.33373,1.153299 -1.00152,0.766338 -1.43402,1.297464 -0.95602,0.235224 -2.10174,0 -2.43559,-0.956025 l 0.19725,-1.570608 -0.43265,-1.631311 c -0.32587,-0.84221 -0.7967,-0.682873 -1.27472,-0.531126 -0.43265,0.136599 -0.87252,0.280754 -1.2064,-0.333862 -0.43217,-0.849795 -1.05465,-2.230722 -0.0985,-3.004645 -1.16845,-1.085009 -2.86804,-1.320221 -4.64354,-1.320221 -0.40167,0 -0.81942,0.01525 -1.22914,0.0305 m -5.82719,15.895783 -0.1895,-0.667698 0.956,0.333864 -0.23475,0.531124 -0.5311,-0.197275"
       style="fill:#2d2c2e;fill-opacity:1;fill-rule:nonzero;stroke:none"
       id="path3529"
       inkscape:connector-curvature="0" />
    <path
       d="m 263.12019,11.965404 0.0415,0 0,-3.3916059 -0.0415,0 0,3.3916059 z"
       style="fill:#2d2c2e;fill-opacity:1;fill-rule:nonzero;stroke:none"
       id="path3531"
       inkscape:connector-curvature="0" />
    <path
       d="m 262.69074,22.085593 0.037,-5.774075 -0.13675,-0.05343 c -0.23475,1.957573 0.0545,3.869618 0.099,5.82719"
       style="fill:#2d2c2e;fill-opacity:1;fill-rule:nonzero;stroke:none"
       id="path3533"
       inkscape:connector-curvature="0" />
    <path
       d="m 262.25522,23.710834 0.0415,0 0,-1.434034 -0.0415,0 0,1.434034 z"
       style="fill:#2d2c2e;fill-opacity:1;fill-rule:nonzero;stroke:none"
       id="path3535"
       inkscape:connector-curvature="0" />
    <path
       d="m 196.51341,44.859436 c 2.09415,0.956023 3.86204,2.913595 6.34316,2.769433 l 0,-0.189699 -0.182,0 c -0.57667,-2.245897 -1.57822,-4.347629 -2.15484,-6.639056 -0.14475,-2.291419 -2.47355,-2.192781 -4.10487,-2.723905 -0.37947,2.101737 -0.86494,4.87117 0.0985,6.783215"
       style="fill:#2d2c2e;fill-opacity:1;fill-rule:nonzero;stroke:none"
       id="path3537"
       inkscape:connector-curvature="0" />
    <path
       d="m 110.56694,58.510083 c -4.53732,1.866523 -6.63909,6.684573 -10.26588,9.886495 -2.336941,2.435581 -2.951565,5.538863 -5.159509,8.027559 -0.234749,2.048619 -1.752695,3.573708 -2.291419,5.576803 l -0.758723,1.623723 c -0.197249,0.713223 0.416924,0.690463 0.933223,0.667698 0.144749,0 0.288424,-0.0075 0.401674,0 5.015336,-0.424921 9.173254,-2.913595 14.370714,-2.807372 l 0.67527,-0.864971 c 0.56875,-7.496438 2.39005,-14.507277 2.428,-22.109935 l -0.33373,0"
       style="fill:#e31e2d;fill-opacity:1;fill-rule:nonzero;stroke:none"
       id="path3539"
       inkscape:connector-curvature="0" />
    <path
       d="m 163.66037,75.793616 -0.4248,0.432501 c 0.47043,3.672346 -0.86494,6.828735 -0.53112,10.220346 -0.75875,0.614586 0.10625,1.623723 -0.4248,2.336947 0.6677,5.060851 -0.91052,9.689219 -0.33372,14.75008 0.61457,2.76941 -0.19725,5.49331 0.75875,8.1186 0.33372,1.10017 -0.33373,2.33694 0.28842,3.34607 4.96981,0.28105 9.26433,0.1895 14.22656,0.091 8.21723,-1.57822 16.76073,-2.2459 25.35736,-2.76947 l 0.42478,-0.33373 c -0.091,-4.87111 -0.42478,-9.88645 -0.6601,-14.803142 -0.57663,-7.397799 0.6601,-14.659022 0.23575,-22.003711 l -0.76638,-0.576648 c -7.45088,0.0453 -15.47091,-0.09865 -23.20254,-0.1897 -4.96981,0.478012 -10.03062,0.811861 -14.94733,1.380922"
       style="fill:#ffffff;fill-opacity:1;fill-rule:nonzero;stroke:none"
       id="path3541"
       inkscape:connector-curvature="0" />
    <path
       d="m 209.88405,75.0288 -0.44002,0.432502 c -0.99397,4.438676 -0.8498,9.40848 -1.0926,14.181008 0.0985,2.048624 -0.51597,4.059304 -0.1975,6.016879 -0.31892,4.006192 0.25008,8.308301 0.5311,12.367611 0.091,1.6161 0.091,3.23984 0.34112,4.81801 2.10172,0.52323 4.34004,0.71325 6.54039,0.95605 l 22.24652,0.0415 0.43219,-0.42477 c 1.00153,-4.48417 0.7663,-9.31741 0.1895,-13.900248 -1.43404,-4.582841 -1.25192,-9.878905 -3.20189,-14.272058 -1.82102,-2.245897 -1.47959,-5.918242 -4.29451,-7.496438 -3.75584,0.0759 -7.17781,-0.637351 -10.60732,-1.358162 -3.27022,-0.682873 -6.55559,-1.365746 -10.1369,-1.365746 -0.10625,0 -0.20475,0 -0.3106,0"
       style="fill:#e31e2d;fill-opacity:1;fill-rule:nonzero;stroke:none"
       id="path3543"
       inkscape:connector-curvature="0" />
    <path
       d="m 153.1578,77.418857 -30.5093,6.63905 c -2.71629,0.478014 -5.77408,0.227649 -7.96687,2.04862 l -0.10625,2.056209 c -1.19125,7.208116 -0.33373,14.560384 -1.71475,21.677434 0.56872,4.10486 0.52382,8.498 1.71475,12.36764 1.51752,0.27315 2.88324,-0.091 4.23381,-0.44745 1.25192,-0.33372 2.48869,-0.66767 3.83926,-0.50867 1.05465,-0.29582 2.33695,-0.0415 3.20192,-0.7739 4.67389,-0.6601 8.87738,-2.42799 13.55887,-3.09569 5.06081,-1.19122 10.74384,-0.865 15.32668,-3.25504 0.13675,-2.90599 -0.33372,-5.95616 0.099,-8.87735 0.23475,-3.01223 -0.86497,-5.872713 -0.099,-8.824248 0.0415,-5.971352 0.57667,-11.942704 0.52387,-18.050628 0.3268,-0.918088 -0.30367,-1.213997 -0.98637,-1.213997 -0.41692,0 -0.85737,0.1138 -1.11539,0.257965"
       style="fill:#ffed00;fill-opacity:1;fill-rule:nonzero;stroke:none"
       id="path3545"
       inkscape:connector-curvature="0" />
    <path
       d="m 193.31755,119.43609 -9.46158,0.95605 c -3.62684,0.75875 -7.51921,0.6449 -11.41157,0.539 -2.26107,-0.0605 -4.52216,-0.1215 -6.73011,-0.0225 -0.76637,0.4777 -1.80579,0.3864 -2.48112,1.10775 -0.13675,6.48728 1.1002,12.60282 2.2459,18.66522 1.24434,4.24899 1.38094,8.93046 3.34606,12.89115 5.68304,-0.81188 11.1233,-0.91053 16.94291,-1.19123 0.75115,-0.31062 1.44162,-0.20475 2.10172,-0.10625 0.86495,0.1285 1.69202,0.26578 2.53422,-0.51592 l 1.38089,0.42477 c 1.343,-1.04707 3.39165,-0.42477 4.96982,-0.95604 0.75874,0.1515 1.91207,1.63132 2.39007,0.0985 l 1.14569,0.28842 c 0.71325,0.4777 1.38095,-0.14475 1.94997,-0.43265 0.9864,-0.30367 1.95005,-0.091 2.89085,0.11375 0.78909,0.182 1.57822,0.35683 2.35974,0.2205 0.33372,-2.90599 -0.14475,-5.96378 -0.6222,-8.77873 -0.6677,-4.05931 -1.47955,-8.07307 -1.6237,-12.36761 -1.23677,-3.58889 0.10625,-7.92891 -1.80587,-11.26742 l -0.47769,-0.25053 c -0.86495,0.0225 -1.77545,-0.015 -2.70872,-0.0605 -0.81185,-0.0323 -1.63132,-0.0685 -2.44317,-0.0685 -1.60852,0 -3.17157,0.14375 -4.49179,0.71325"
       style="fill:#e31e2d;fill-opacity:1;fill-rule:nonzero;stroke:none"
       id="path3547"
       inkscape:connector-curvature="0" />
    <path
       d="m 223.30259,119.95507 -11.94269,-0.43265 -0.66772,0.3416 c -0.28058,1.96517 -0.28058,4.24901 0,6.20658 0.90289,4.15797 0.85742,8.7408 2.05624,12.79249 0.28055,4.01382 1.33535,7.73923 2.39004,11.4571 0.71323,0.0545 1.19125,0.58395 2.0031,0.4322 2.57212,-2.62529 4.72701,-5.77409 7.35223,-8.55113 1.85139,-3.33849 3.81654,-6.29758 5.96378,-9.6892 0.80428,-2.14724 1.72237,-4.05169 2.91362,-6.01688 l 0.43218,-1.47195 c 0.1895,-1.82099 2.09414,-3.44474 1.00154,-5.39471 -1.63132,-0.1515 -3.27781,-0.10625 -4.91671,-0.0415 -1.88927,0.0545 -3.75579,0.11375 -5.53883,-0.14475 l -1.04708,0.51597"
       style="fill:#ffed00;fill-opacity:1;fill-rule:nonzero;stroke:none"
       id="path3549"
       inkscape:connector-curvature="0" />
    <path
       d="m 103.3148,131.12689 c -3.91516,1.34297 -8.118599,1.91207 -11.844064,3.72546 -0.23475,1.10018 0.333724,2.14725 0.857372,3.06537 1.335397,0.62215 0.14375,2.90599 1.729971,3.71784 -0.629798,1.38092 1.039472,2.299 0.955997,3.67234 3.042592,4.15797 4.438689,8.9381 7.959284,12.75457 0.72079,0.80427 1.62374,1.91207 2.57976,2.04862 0.1895,-1.85892 0,-3.96064 -0.0833,-5.91826 -0.10625,-5.53884 -0.87259,-11.12322 -0.34159,-16.61656 -0.28055,-1.81344 -0.13625,-3.72546 -0.43218,-5.68301 0.0757,-0.66015 -0.4856,-0.78155 -1.02427,-0.78155 -0.1215,0 -0.24275,0.005 -0.35638,0.015"
       style="fill:#ffffff;fill-opacity:1;fill-rule:nonzero;stroke:none"
       id="path3551"
       inkscape:connector-curvature="0" />
    <path
       d="m 204.29814,158.05942 c -10.79694,0.99397 -22.06439,1.3354 -32.70961,3.01224 l -0.71325,0.4248 0.33372,1.95755 c 0.091,1.76787 0.71323,3.29296 1.28987,4.81806 0.3795,1.63129 0.56878,3.30056 1.8134,4.54491 0.76637,1.6161 0.56877,3.81647 2.04862,5.00771 2.95914,-0.75874 5.49336,-2.62524 8.45248,-3.39161 5.49336,-2.43557 10.64525,-6.00926 15.99441,-8.83181 2.48111,-2.38249 6.59355,-3.71789 7.64063,-7.39783 l -0.76638,-0.43264 c -0.90289,0.76637 -2.23832,0.43264 -3.38401,0.28844"
       style="fill:#ffffff;fill-opacity:1;fill-rule:nonzero;stroke:none"
       id="path3553"
       inkscape:connector-curvature="0" />
    <path
       d="m 118.73409,168.84884 c -1.14572,0.43265 -2.57214,0.24275 -3.52819,0.95602 l 0.14475,0.43263 c 4.10479,4.19586 9.68917,4.72701 14.80316,6.35071 3.96069,1.51752 8.20968,2.33694 11.83649,4.67388 2.29142,0.091 4.05929,1.343 6.00931,2.1928 1.60095,-0.091 3.10327,0.1895 4.61317,0.4704 1.41887,0.27317 2.83771,0.53905 4.37039,0.48562 4.77253,0.956 7.67853,-2.72389 11.60127,-3.96066 -0.44003,-6.38869 -3.2019,-12.0793 -4.73459,-18.09618 l -0.6222,-0.70562 c -15.31909,0.99397 -29.78845,4.57526 -44.49299,7.20053"
       style="fill:#e31e2d;fill-opacity:1;fill-rule:nonzero;stroke:none"
       id="path3555"
       inkscape:connector-curvature="0" />
    <path
       d="m 209.4334,59.356846 0.19725,10.759055 20.83522,2.390058 -8.02752,-9.362958 c 0,0 -7.72408,-0.698048 -12.011,-4.491793 l -0.99397,0.705638"
       style="fill:#ffffff;fill-opacity:1;fill-rule:nonzero;stroke:none"
       id="path3557"
       inkscape:connector-curvature="0" />
    <path
       d="m 97.728894,11.466906 c 0.0415,0.720813 0.372099,1.388511 -0.242749,1.912047 l -6.350734,0 0,0.432501 2.723918,0.235225 c 0.713249,0.478011 1.714796,0.144174 2.435594,0.622173 0.523824,1.434037 -0.531149,2.625271 -0.531149,4.013782 -0.235749,0.811861 -0.189499,1.813408 -1.047072,2.245894 -1.191247,-2.154846 -2.245894,-4.400743 -4.347614,-5.73614 -2.443168,-0.956022 -3.915164,0.766338 -5.53886,1.957573 -1.434046,0.05278 -1.578196,2.390059 -3.444691,1.623721 l 0.288424,2.579745 c -0.333724,0.667699 -0.667698,1.289872 -1.380896,1.623721 l -1.479571,-0.235224 c -1.062248,-0.09863 -1.965145,-0.720813 -2.921193,-0.857386 l 0.0985,0.614586 c 0.379474,1.100185 2.435569,2.010685 1.525046,3.679931 -1.198822,0.9105 -2.769393,-0.1897 -3.77094,-0.667698 -1.335422,-0.379392 -2.435594,0.235224 -3.535766,0.766335 -1.100197,0.956025 -2.579768,1.669246 -2.723918,3.338499 l 0.432174,0.531119 c 0.910472,-0.576649 1.957545,-1.676831 3.103267,-2.056208 0.720823,-0.288334 1.623746,-0.956025 2.390044,-0.379394 1.85897,2.101735 2.534243,4.727006 3.968289,6.9729 l 2.291419,-0.2428 -0.0415,-0.85739 c -0.531148,-0.576646 -0.864972,-1.388506 -0.864972,-2.245897 l -0.811898,-1.525083 c 0.0985,-0.910498 -0.766298,-1.434034 -0.568749,-2.344534 l 1.434047,-0.622173 c 1.479571,1.054662 2.716342,2.9136 4.150339,3.869622 0.811898,0.1897 2.010694,0.432501 2.488693,-0.333864 0.478349,-3.201919 -0.864947,-5.971355 -0.531098,-9.120161 l -0.568774,-0.864976 0.14425,-1.525083 1.623746,-1.289872 c 0.902897,-0.242799 1.805795,-0.857385 2.761817,-1.100187 l 0.440024,0.857385 c -0.864948,1.676836 -1.96512,3.012235 -3.63439,3.679933 l 0.288424,0 0.14475,0.432502 c 0.758748,0.0453 1.91202,0.333861 2.435543,-0.2428 0.409999,0.023 0.789098,-0.136599 1.153322,-0.288334 0.470424,-0.212449 0.948448,-0.417294 1.517496,-0.235224 0.432174,0.523536 0.955998,1.001547 0.766298,1.813407 -0.667673,1.289875 -2.101719,2.15485 -3.437116,2.488699 l -0.857373,0.857385 0.333725,1.001548 0.849797,-0.0453 c 0.629774,-0.956025 1.631321,-1.525084 2.777018,-1.813411 1.335422,-0.81186 3.012217,-0.956022 4.013765,-2.435581 l 1.289871,0.713223 c 0.311525,-0.0305 0.606999,-0.023 0.902898,-0.01525 0.568774,0.02275 1.092597,0.05282 1.532696,-0.273126 0.857375,0.09865 1.191225,-0.758748 2.048595,-0.857386 0.34112,-1.244349 1.44165,-2.291419 1.00917,-3.77098 -1.48714,-1.487148 -1.95759,-3.725455 -2.29142,-5.827187 L 99.737239,11.133201 C 99.448815,9.8888522 98.068018,9.6536428 96.967846,9.3197937 l 0.766323,2.1472573 m 0.372074,9.742329 c -0.136249,-1.04707 -0.281024,-2.336944 0.341574,-3.194329 l 0.432199,-0.956022 0.667674,0.280754 c 0.57667,1.388509 0.189499,2.822545 -0.667674,3.92273 l -0.773948,-0.05342 m -16.328282,5.49334 -0.432174,-1.380921 0.432174,-0.523541 c 0.902947,0.235224 0.811898,1.282289 0.667723,2.0031 l -0.667723,-0.09865"
       style="fill:#2d2c2e;fill-opacity:1;fill-rule:nonzero;stroke:none"
       id="path3559"
       inkscape:connector-curvature="0" />
    <path
       d="m 97.29872,205.21185 c -1.957569,1.96514 -3.869639,4.11241 -5.402285,6.16863 l -0.333725,1.14572 c 0.333725,1.04708 -0.189499,3.00462 1.434047,3.00462 1.198822,-0.28055 2.481118,-0.75872 3.535765,-1.57062 0.667699,0 1.479522,-1.1457 2.003095,0 l -0.189499,1.38095 0.242749,1.81342 c -0.14475,1.48712 0.811848,2.20037 1.813393,2.82251 1.04707,0.52385 2.14725,0.9029 3.34607,0.95603 l 0,-0.24275 c 0.75875,0 0.33372,-0.90295 0.41785,-1.24435 -1.76027,-0.23575 -3.52819,-1.0016 -4.286916,-2.62529 0.288426,-0.72083 0.857376,-1.1457 1.570616,-1.38092 0.9105,-0.10625 1.74513,0.11374 2.58735,0.32587 1.02427,0.2579 2.05619,0.51592 3.23984,0.19725 l -0.56875,-0.0985 c -1.10782,-0.56875 -2.43559,-1.38092 -2.54182,-2.91362 0.80428,-1.99549 1.99552,-1.43404 3.30054,-0.87252 0.86498,0.37947 1.79825,0.75115 2.6784,0.34897 -1.28987,-1.38094 -3.00467,-2.86809 -5.10639,-3.20196 -0.57662,0 -1.05467,-0.956 -1.5327,-0.14425 l -1.04707,-0.091 c -0.76632,-1.15328 0.3795,-3.54334 -1.72232,-3.77857 -0.41785,-0.37207 -1.115396,-0.56877 -1.798244,-0.56877 -0.644923,0 -1.274696,0.17475 -1.638896,0.56877 m -1.87412,4.73459 c 0.811848,-0.91047 1.729946,-1.72232 2.921193,-2.34452 l 1.198822,-0.95602 0.857375,0.43217 c -0.33373,2.4356 -2.731496,3.34607 -4.643541,4.20347 l -0.948422,0.28842 0.614573,-1.6237"
       style="fill:#2d2c2e;fill-opacity:1;fill-rule:nonzero;stroke:none"
       id="path3561"
       inkscape:connector-curvature="0" />
    <path
       d="m 136.27717,220.07118 c -0.8119,1.7603 1.24435,2.15485 2.05619,3.01222 0.3721,1.10017 -0.81184,1.76792 -0.76632,2.81499 -1.19125,1.47952 -1.0547,3.43712 -0.77395,5.25809 l 0.44005,0.8498 0,-0.2275 c 0.8498,0.0832 0.37208,-1.05467 0.76632,-1.48717 0.0838,-1.19123 0.62218,-1.94997 1.00153,-3.01225 0.76637,-1.32779 1.24434,-2.67076 2.00314,-4.10481 0.76632,-0.4777 1.52505,0.091 2.299,0.13675 0.71322,0.72835 0.18225,1.72232 0.091,2.53422 l -0.865,2.15482 c -0.091,1.28989 -0.956,2.57219 -0.23475,3.86201 0.28842,0.87258 -0.33373,2.97432 0.85737,2.92119 1.25192,-0.47769 2.67839,-0.90289 4.21107,-0.95599 l 1.28989,-0.61458 c 1.03947,0 1.47952,-0.87259 2.39005,-1.20644 l 0.52384,-1.18362 c -0.47832,-0.72843 -0.37949,-1.53268 -1.28987,-2.05625 -0.95602,-1.52505 1.24435,-1.96512 1.72232,-2.92114 -0.0545,-0.7588 0.28058,-1.57822 -0.43217,-2.10177 -1.434,-2.2838 -4.68149,-1.91205 -7.30673,-2.2838 -1.00915,-0.25052 -2.0107,-0.58397 -2.82254,-1.06227 l -0.9636,-0.091 c -0.5542,-0.34897 -1.2823,-0.45527 -2.0183,-0.45527 -0.77389,0 -1.56299,0.1215 -2.17762,0.2195 m 11.57095,6.04726 -1.9045,-0.28843 c 0,0 -1.68439,-2.50392 1.0016,-2.50392 0,0 1.00152,-0.48557 2.299,0.31155 0,0 1.19882,0.59913 0.69804,1.3885 0,0 0.091,0.80427 -1.00154,1.29747 l -1.0926,-0.20475 m -3.83169,5.37196 c -0.14475,-1.00917 0.14425,-2.01072 0.95602,-2.48869 1.47957,-0.1895 2.57974,0.5766 3.77099,1.1457 0.0545,1.19882 -1.66927,1.10017 -2.48112,1.71474 -0.36422,0 -0.84979,0.099 -1.28229,0.099 -0.42478,0 -0.79668,-0.091 -0.9636,-0.47045"
       style="fill:#2d2c2e;fill-opacity:1;fill-rule:nonzero;stroke:none"
       id="path3563"
       inkscape:connector-curvature="0" />
    <path
       d="m 164.45932,223.50605 -0.51595,1.2899 c -0.44002,0.33372 -0.58392,1.19882 -1.29744,1.06222 l -0.57668,-0.87255 -0.43217,-1.03947 c -0.37948,-1.43405 -1.8134,-2.15485 -3.00462,-2.39007 l -0.4248,0.14425 c -0.38687,2.28382 -3.06531,2.33694 -4.15791,4.05174 l -0.75878,0.86495 c -0.39474,0.90292 -0.62974,1.85892 -0.53899,3.00464 0.34157,1.19887 0.62214,2.44322 1.72237,2.82254 0.86494,0.28105 2.16242,0.28105 2.77699,-0.33372 1.47197,-0.52318 2.76187,-2.67835 4.52971,-3.11085 0.8119,1.19883 0.76638,2.63287 2.10177,3.54337 0.26533,-0.0323 0.54628,-0.005 0.8346,0.005 0.607,0.037 1.2292,0.0757 1.65407,-0.3411 1.7148,-0.2963 3.62682,-1.48717 4.81806,-2.58734 l 0.43218,-0.33373 c -2.10172,-0.1895 -4.15792,0.25005 -6.20654,0.33373 -0.43265,-0.28103 -1.33539,-0.1895 -1.28987,-0.95602 0.33373,-2.57975 1.71475,-4.34762 2.82252,-6.54039 l 0.182,0.091 -0.182,-0.6222 -0.57662,-0.75874 c -0.76633,0.1895 -1.2899,1.82097 -1.91205,2.67076 m -10.41007,6.35834 c 0.0415,-1.8134 1.91207,-3.19432 3.52819,-3.96827 0.16675,0.0323 0.35682,0.0323 0.53115,0.0323 0.56875,0 1.07742,-0.005 1.05464,0.78153 -0.47829,1.54027 -1.67684,3.24744 -3.30054,3.77096 -0.1215,0.0323 -0.24275,0.0485 -0.34897,0.0485 -0.57667,0 -0.9864,-0.37947 -1.46442,-0.6601"
       style="fill:#2d2c2e;fill-opacity:1;fill-rule:nonzero;stroke:none"
       id="path3565"
       inkscape:connector-curvature="0" />
    <path
       d="m 117.49814,215.57789 0.1895,0 c 0.9105,1.28988 -0.1895,2.5797 -0.6146,3.6344 -0.72079,1.43399 -1.47954,2.86804 -2.20037,4.29451 -0.23474,1.43405 -0.091,2.96669 0.85738,3.77856 l 0,0.28843 0.4777,0.0415 0.53114,-2.72392 c 0.81948,-2.01824 2.50387,-1.88169 4.23382,-1.75269 0.9788,0.0757 1.96519,0.15149 2.83014,-0.1595 l -0.85737,-1.19123 -1.72237,-0.53109 c -0.33373,-0.47045 -1.33542,-0.52325 -0.94845,-1.42648 0.61457,-0.47769 0.3795,-1.47957 1.28987,-1.82102 0.69805,-0.13625 1.41127,0 2.1321,0.13675 0.76632,0.13675 1.54784,0.27318 2.35212,0.10625 l -0.42478,-1.43404 c -1.28989,-0.4322 -2.67839,-0.8574 -3.96829,-1.28985 l -1.81342,-0.43262 c -0.32587,-0.037 -0.75117,-0.10625 -1.1533,-0.10625 -0.53839,0 -1.02427,0.1215 -1.19124,0.58392"
       style="fill:#2d2c2e;fill-opacity:1;fill-rule:nonzero;stroke:none"
       id="path3567"
       inkscape:connector-curvature="0" />
    <path
       d="m 128.24656,218.44594 c -1.42647,1.66927 -3.05779,3.20194 -3.58129,5.39473 -0.42479,2.63282 0.956,4.44624 2.72392,6.02446 3.49024,0.91048 4.34762,-3.11089 5.78166,-5.06846 l 0.52383,-1.19122 c 0.66009,-1.00155 0.52384,-2.43559 0.43219,-3.62684 -0.33374,-0.33373 -0.66774,-1.0926 -1.38852,-0.95602 -0.3795,0.62217 -0.56877,1.43404 -0.6222,2.23832 -0.42479,1.14572 -0.85737,2.24589 -1.28984,3.34606 -0.90295,1.62375 -2.1473,2.82257 -3.91514,3.39162 -0.81947,-0.23475 -0.6677,-1.14572 -0.81947,-1.80582 l 0.86499,-1.82102 c 0.62215,-1.43405 1.10018,-3.05775 2.57975,-3.96822 l 0.099,-1.28987 c -0.4553,-0.31895 -0.607,-0.66772 -1.27468,-0.66772 -0.037,0 -0.0757,0 -0.11425,0"
       style="fill:#2d2c2e;fill-opacity:1;fill-rule:nonzero;stroke:none"
       id="path3569"
       inkscape:connector-curvature="0" />
    <path
       d="m 60.751315,40.60513 c 0.576649,0.440081 1.100173,1.001547 1.813371,1.244349 1.570646,1.0926 -0.14425,2.678383 -0.523824,3.91514 -0.379474,0.811863 -0.667673,1.912047 -1.76787,1.81341 -2.245894,-0.95602 -4.294489,0.1897 -5.690585,1.479564 -1.236772,1.244344 -1.858971,3.201919 -1.805871,5.068437 l 0.333724,0.333864 0.515949,-0.667698 c 0.1895,-1.532669 1.684421,-2.245897 1.96517,-3.733041 0.424774,-0.523536 1.009122,-1.191234 1.82097,-0.902915 1.471996,1.001552 -0.143749,2.579746 -0.250049,3.869618 -0.758748,0.333864 -0.1895,1.335401 -0.849798,1.767885 l 0.091,2.0031 0,-0.333864 c 0.568773,-1.047075 0.864948,-2.23831 1.714745,-2.959123 0.622199,-0.667698 1.100197,-2.147259 2.154845,-1.957572 l 0.910522,1.092602 c 1.95757,1.532674 -0.386874,3.634406 0,5.447816 l 1.479522,-1.471976 c 0.622198,-1.532671 1.282296,-3.019817 2.245944,-4.400744 1.335371,-0.531121 0.515948,-2.291419 1.722345,-2.82254 1.767896,-1.570613 3.239842,-3.482658 2.723918,-6.115514 l -0.583923,0.09862 -1.805871,0.333864 C 65.531553,42.27438 63.323559,40.5672 61.183889,40.172648 l -0.432174,0.432502 m 2.01072,8.361411 c -0.576673,-1.767886 0.811848,-3.004645 1.957545,-3.960668 l 1.471946,0.956023 c 0,1.71477 -0.766298,3.346081 -1.805795,4.484203 -0.872548,-0.144174 -1.206397,-0.81186 -1.623696,-1.479558"
       style="fill:#2d2c2e;fill-opacity:1;fill-rule:nonzero;stroke:none"
       id="path3571"
       inkscape:connector-curvature="0" />
    <path
       d="m 50.952066,55.751273 c -0.660148,0.515946 -0.857423,1.72236 -0.660148,2.481106 -0.910498,1.714771 0.523823,3.148807 0.333724,4.727003 -0.333724,1.092602 -1.623746,0.341444 -2.238319,1.054662 -1.206397,0.515951 -2.207945,1.767885 -2.731493,3.012232 -0.0545,1.145712 -0.811848,2.003097 -0.531099,3.239854 l 1.009122,0.720813 c -0.0545,-1.198824 0.424774,-2.192781 0.857373,-3.110872 0.629774,-0.81186 0.773948,-1.714768 1.669271,-2.473516 l 1.350571,0.667699 c 0.372099,2.048619 -0.918122,3.437131 -1.009172,5.349178 0.0545,0.667698 -0.242749,1.99551 0.568774,1.851348 l 0.523823,-0.751163 c 0.531149,-0.819451 0.720848,-1.775473 1.191247,-2.587336 0.478299,-0.622173 0.819473,-1.525083 1.729946,-1.616131 l 0.804273,1.047073 c -0.23475,1.380921 -0.23475,3.057757 -0.515924,4.302103 0.424774,0.622176 0.955997,1.434037 0.849798,2.291422 l 0.106249,-0.576651 0.333725,0.136575 c 0.515948,-0.993963 0.993972,-2.185197 1.380896,-3.338497 0.758773,-0.622176 0.234749,-1.81341 0.758773,-2.572156 0.14425,-1.054662 0.583923,-2.54181 -0.705623,-3.019822 l 0.281024,-1.183644 c 1.85892,-0.576651 2.670768,-2.534221 3.877215,-4.211057 l 0.227499,0 c -0.758748,-0.90291 -2.139669,-1.479561 -3.095692,-2.427993 -1.441621,-1.206415 -2.579743,-2.05621 -4.120014,-3.012233 -0.333724,-0.05342 -0.713223,-0.07585 -1.100172,-0.07585 -0.386899,0 -0.781548,0.02275 -1.145722,0.07585 m 2.018295,5.15949 -0.288425,-1.95757 c 1.471947,0.326281 2.245895,1.570606 3.528191,2.147257 l 1.623696,1.380921 -0.956022,1.0926 c -0.10625,0.01525 -0.2205,0.023 -0.3268,0.023 -1.60852,0 -2.868092,-1.342987 -3.58129,-2.685973"
       style="fill:#2d2c2e;fill-opacity:1;fill-rule:nonzero;stroke:none"
       id="path3573"
       inkscape:connector-curvature="0" />
    <path
       d="m 42.552688,73.663054 c 0.037,0.81186 1.813395,0.713221 2.488693,1.71477 0.614574,2.299009 -2.010644,3.490244 -2.928767,4.878755 l -0.515924,2.04862 c 0.478299,-1.380922 2.344519,-2.382469 3.247417,-3.437131 0.478324,-0.235225 0.478324,-1.001548 1.236772,-0.766338 l 0.583923,1.912047 c -0.296274,1.722361 0.993973,2.481109 2.04862,3.535769 1.388521,0.432501 2.428018,-0.576649 3.201916,-1.388509 l 0,-0.333864 c 0.910523,-1.434037 1.100173,-3.292969 0.849798,-5.106377 -0.751173,0 -1.092622,-0.9105 -1.90447,-0.333864 -2.00307,-0.675288 -3.77099,-1.866523 -5.59196,-2.723906 l -0.993948,-0.523541 c -0.144749,-0.05282 -0.265324,-0.06827 -0.379499,-0.06827 -0.561448,0 -0.789098,0.508362 -1.342971,0.591824 m 6.972882,6.593525 0.477723,-1.388511 1.244347,0.956025 c -0.10625,0.713223 0.23475,1.669246 -0.622148,1.912045 -0.766323,-0.09865 -0.811848,-0.956023 -1.100197,-1.479559"
       style="fill:#2d2c2e;fill-opacity:1;fill-rule:nonzero;stroke:none"
       id="path3575"
       inkscape:connector-curvature="0" />
    <path
       d="m 42.361463,82.929647 c -0.576623,0.371764 -1.001522,0.902913 -0.955997,1.623721 0.902897,1.434036 1.244347,3.346081 0.955997,5.060857 -0.622148,1.100187 -1.866495,1.72236 -2.723868,2.344529 0.379499,0.128999 0.773898,0.0759 1.168447,0.023 0.333724,-0.0453 0.675324,-0.08347 1.024348,-0.023 1.980295,-0.538709 4.165489,-0.485596 6.335533,-0.432502 1.085022,0.0305 2.169995,0.0453 3.224692,0 l 0.523848,-2.390056 C 50.814266,87.70216 49.190521,87.277258 48.234523,85.74459 l -1.289897,-1.009137 c -1.305021,-0.758748 -2.610118,-1.821001 -4.271764,-1.821001 -0.106249,0 -0.205249,0.0075 -0.311524,0.01525 m 2.245894,4.916695 c 1.047073,-0.614591 2.238295,0.242799 3.103317,0.910498 -0.576673,0.910495 -2.003144,0.478008 -3.012267,0.713223 l -0.091,-1.623721"
       style="fill:#2d2c2e;fill-opacity:1;fill-rule:nonzero;stroke:none"
       id="path3577"
       inkscape:connector-curvature="0" />
    <path
       d="m 40.640668,108.8174 c -1.335397,1.10019 -3.156417,2.29139 -2.716343,4.30209 1.092597,0.90292 1.616121,2.57976 2.374894,3.77099 1.054647,2.10174 4.119964,1.66924 6.259658,1.47954 1.145697,-0.2275 1.767896,-1.14572 2.15487,-2.10172 0.477699,-1.24437 1.282246,-2.29144 0.956022,-3.86206 l -0.956022,-0.91047 c -2.19277,-0.81945 -4.08964,-2.88322 -6.669408,-2.88322 -0.440024,0 -0.910523,0.0605 -1.403671,0.20475 m 1.813395,6.54798 -0.333724,-1.1533 c -0.478324,-0.75874 -1.578171,-1.57064 -1.047072,-2.57976 2.534218,0.53114 4.635938,2.06379 6.107934,3.97586 l -0.766373,0.6601 c -0.2653,0.0545 -0.515924,0.0757 -0.758723,0.0757 -1.244347,0 -2.207945,-0.6222 -3.201917,-0.9788"
       style="fill:#2d2c2e;fill-opacity:1;fill-rule:nonzero;stroke:none"
       id="path3579"
       inkscape:connector-curvature="0" />
    <path
       d="m 39.356846,96.880761 c -0.242749,0.758746 -0.531148,1.525084 -1.009122,2.192782 -0.478299,2.003097 1.047072,2.481107 1.335346,4.157947 -0.234749,0.71322 -0.857372,1.10017 -1.433996,1.62372 l -0.288424,0.4325 0.440049,0.42492 c 3.186741,-0.19725 6.244483,0.53112 9.029076,1.38092 l 0,-0.182 0.424799,-0.0988 0.531099,-1.52507 -0.583924,-0.4325 c -0.508699,0.1215 -0.887748,-0.0683 -1.251947,-0.2504 -0.356824,-0.182 -0.713198,-0.36417 -1.176072,-0.27312 l -2.496268,-0.76632 c -2.579768,0.51594 -2.329369,-2.34455 -3.239867,-3.626832 0.341125,-0.773928 -0.099,-1.965162 1.001548,-2.390059 1.72237,-0.576651 3.194316,0.478012 4.484213,1.525084 1.866545,0.622173 1.388497,2.913597 2.587318,4.051727 1.525096,0.14425 1.236772,-1.90447 1.858971,-2.76186 l -0.23475,-1.858928 c -0.758748,-1.479559 -2.299019,-2.154847 -3.62679,-3.019822 -0.918123,-0.705634 -2.207995,-0.371767 -3.247492,-0.705634 -1.153272,0.561476 -2.390044,1.039488 -3.103267,2.101735"
       style="fill:#2d2c2e;fill-opacity:1;fill-rule:nonzero;stroke:none"
       id="path3581"
       inkscape:connector-curvature="0" />
    <path
       d="m 39.254471,121.43011 c 0.720774,0 1.388472,0 1.91202,0.37948 1.94997,0.28842 3.862015,0.81947 5.591961,1.72239 l -0.667673,1.19883 c -1.244347,0.23475 -1.434047,2.04859 -2.777043,1.95754 -0.675298,0.51592 -1.631321,0.66772 -2.481119,0.85737 l -1.145697,1.47957 1.039498,0 c 1.63132,0.72085 3.54334,0.66768 5.364361,0.95603 1.327771,0.66772 3.148791,0.52382 4.727012,0.43265 1.001523,-0.0545 0.523824,-1.57822 1.001523,-1.9121 l 0,-0.43262 -2.579744,-0.33373 c -1.191246,-0.3795 -3.057742,0.1895 -3.67994,-1.14572 1.82102,-1.77544 4.878762,-2.73149 4.969812,-5.82718 -3.012242,-0.43265 -6.305209,-0.43265 -8.930452,-1.6237 -0.667723,0.81185 -1.91207,1.434 -2.344519,2.29142"
       style="fill:#2d2c2e;fill-opacity:1;fill-rule:nonzero;stroke:none"
       id="path3583"
       inkscape:connector-curvature="0" />
    <path
       d="m 60.416666,163.32436 c -2.868042,0.81184 -6.934957,-0.43263 -8.596602,2.33694 -0.379474,2.25347 0.986347,2.18522 2.427968,2.11694 1.168497,-0.0485 2.390044,-0.10625 2.822543,1.03945 0.333724,2.05625 -1.623721,3.01224 -2.147244,4.72701 -0.0485,0.76635 0.432174,0.53113 0.523248,1.19123 0.902898,-0.956 2.488694,-2.14725 4.11239,-2.48112 0.416924,-2.7694 3.626815,-2.95909 4.393188,-5.30361 0.099,-1.05468 0.23575,-2.53425 -0.432174,-3.20192 -0.933272,0 -1.65412,-0.4777 -2.579768,-0.4777 -0.16675,0 -0.341124,0.015 -0.523224,0.0545 m -2.390068,4.48421 0.766323,-0.37947 -0.1895,0.52382 -0.576648,-0.14425"
       style="fill:#2d2c2e;fill-opacity:1;fill-rule:nonzero;stroke:none"
       id="path3585"
       inkscape:connector-curvature="0" />
    <path
       d="m 66.77425,183.28478 -1.100172,1.28987 c -1.623746,2.0183 0.766298,3.20197 0.955997,5.15951 l 0.857373,0.34113 c 1.669271,0.13675 3.293016,0.37947 4.863612,0.75874 l -0.416924,1.10023 0.1895,3.87716 c 0.379474,0.8498 1.001547,1.61615 1.813395,1.9045 0.910473,0.66767 2.435594,0.90289 2.056195,2.48106 l 0,0.6222 1.191247,-0.28842 c 1.957595,-1.38095 3.247416,1.15327 4.635938,1.91207 l -0.0545,0.85737 c -1.714746,0.1515 -0.811848,2.39007 -0.811848,3.34607 l 0.099,-0.32678 0.333724,0.2275 c 2.390069,-1.23672 3.778565,-4.29451 6.305208,-5.72856 0.333725,-1.10017 1.912045,-1.86649 1.821021,-2.91356 -0.576649,-0.76633 -0.295825,-2.09415 -1.396147,-2.428 -0.568698,0.1895 -1.327771,0.51598 -2.056194,0.27318 -0.811848,-0.8119 -1.707171,0 -2.579744,0.14425 -2.048619,0.95602 -4.286913,1.28989 -6.532808,1.72239 -1.623695,-0.99397 -3.308141,-2.00314 -3.535765,-4.10486 1.91207,-2.2459 5.060861,-2.0031 7.496455,-3.43714 l 0.333724,-0.43218 -0.288424,-0.956 c -0.925698,-0.81184 -1.76792,-0.40259 -2.685993,0 -0.644923,0.28843 -1.320247,0.5766 -2.094145,0.43218 l -0.515973,-0.43218 c 1.191247,-1.43404 1.623746,-3.30056 1.289871,-5.25816 L 76.2271,182.14611 c -0.675323,-0.865 -1.525096,-1.10783 -2.481118,-1.43405 -2.678393,0.182 -5.060887,1.04707 -6.972907,2.57212 m 0.849798,2.83014 c 0.864947,-1.39609 2.868092,-1.48714 4.309663,-2.16242 1.092598,-0.14475 1.851396,0.58395 2.860518,0.67528 0.197249,1.71479 -1.85892,1.96519 -3.004642,2.57974 -0.523824,0.037 -1.100172,0.0985 -1.661671,0.0985 -1.031872,0 -2.003095,-0.2125 -2.503868,-1.19125 m 14.385887,13.74852 c 0.910473,-0.71325 2.056195,-1.5251 3.201892,-0.956 -0.333724,0.91047 -1.100172,1.85889 -2.10172,2.05619 l -1.100172,-1.10019"
       style="fill:#2d2c2e;fill-opacity:1;fill-rule:nonzero;stroke:none"
       id="path3587"
       inkscape:connector-curvature="0" />
    <path
       d="m 51.812439,142.15529 c -0.568724,1.43404 -2.291419,0.95599 -3.520566,0.95599 -0.849798,-0.94842 -1.305022,-0.35682 -1.851345,0.23475 -0.356824,0.37948 -0.743573,0.75878 -1.305072,0.72083 l -1.289872,0.66767 -0.440048,0.1975 c -0.333725,0.72085 -0.14475,1.71479 0.144249,2.29899 0.0985,1.09262 1.251922,1.6617 1.585796,2.67082 l 0.424774,0.4248 c 0.257924,-0.037 0.333724,0.159 0.394749,0.35682 0.08375,0.24275 0.1595,0.4777 0.561499,0.26533 l -0.386874,-0.62215 c -0.622149,-1.32785 -1.722346,-2.81499 -1.327797,-4.72701 0.281049,-0.7588 1.236772,-0.57668 1.851345,-0.53115 1.388522,0.9105 1.91202,2.58734 2.587343,3.96826 0.14375,0.6677 1.335397,0.58393 1.047073,1.48717 -0.568774,0.66768 -0.23475,1.66165 -0.713223,2.39005 0.189499,0.75875 0.091,1.76787 -0.24275,2.32932 l -1.100197,-0.42478 c -1.001547,-0.38642 -1.517521,-1.62374 -2.526643,-1.82102 -0.257925,-0.539 -0.940848,-0.4856 -1.502321,-0.43262 -0.28055,0.0322 -0.539024,0.0605 -0.690449,0.005 1.714746,1.48717 2.329369,4.39321 4.719413,5.06089 l 1.342997,0.72842 -0.432174,1.42639 1.578146,0.091 c 1.90447,-1.47957 3.103317,0.86495 4.818087,1.19123 l 2.488694,0.53115 c 0.773898,-0.19725 1.81337,-0.19725 2.147244,-0.95608 l 0.675298,-1.28982 -0.432174,-1.28987 c -0.622148,-0.95607 -0.341574,-2.76187 -1.866495,-2.82257 -2.101719,1.43405 -5.113986,1.57822 -7.253656,3.01222 l -0.675248,-0.8498 c 0.675248,-1.62369 0.144249,-3.73304 1.047072,-5.25811 1.342972,-0.75115 2.556968,-0.2195 3.71024,0.31847 0.902923,0.40953 1.767921,0.82708 2.648069,0.63738 l -0.0985,-1.05467 c -0.2275,-1.91207 -2.13967,-2.86807 -2.769443,-4.73459 l -0.326799,-1.00153 c -0.1895,-1.10019 -0.773898,-2.05624 -0.864948,-3.10331 -0.758748,-0.4248 -1.434046,-0.85737 -2.154844,-1.28987 l 0,0.23575 m -0.325849,7.07153 c -0.864998,-1.23677 -1.91207,-2.4356 -1.722396,-4.05174 0.667748,-0.66768 2.344544,-0.66768 2.822568,0.32587 0.478298,0.81187 0.902897,1.3354 0.956022,2.24587 l 0.333724,1.19882 c -0.288424,0.31155 -0.698048,0.39475 -1.130547,0.39475 -0.424799,0 -0.880172,-0.0837 -1.259521,-0.11425 m 5.402261,10.12928 -0.773898,-0.956 c 0.956022,-0.43265 2.063794,-1.80587 3.103266,-0.66015 l 0.099,1.38092 c -0.250049,0.34898 -0.667723,0.4553 -1.107797,0.4553 -0.462499,0 -0.956022,-0.1215 -1.320196,-0.2195"
       style="fill:#2d2c2e;fill-opacity:1;fill-rule:nonzero;stroke:none"
       id="path3589"
       inkscape:connector-curvature="0" />
    <path
       d="m 69.205294,168.28889 c 0.622173,1.05468 0.864972,1.95757 1.100197,3.11087 0.288424,0.75872 0.0985,1.70717 0.523223,2.32937 -0.189499,1.10017 0.956023,1.06222 1.532646,1.62372 1.001548,0.39427 1.525096,-0.27317 2.336944,-0.52322 l -0.857373,-0.8498 c -1.244346,-0.33373 -0.713198,-1.82102 -1.198821,-2.57975 0,-0.91054 -0.713199,-1.48717 -0.713199,-2.39006 -0.956022,-0.14375 -1.85897,-1.10018 -2.625293,-1.29745 l -0.0985,0.57662"
       style="fill:#2d2c2e;fill-opacity:1;fill-rule:nonzero;stroke:none"
       id="path3591"
       inkscape:connector-curvature="0" />
    <path
       d="m 57.17305,176.21702 0.424799,0.95602 0.766348,0.10625 c 0.614573,-0.44002 1.100197,-0.87252 1.912045,-0.95599 0.811848,-0.47773 1.434046,-0.8726 2.291419,-1.2064 l 1.72237,0.0545 c 0.281025,2.58734 -1.578196,4.34761 -3.110892,5.87273 l 0,2.0562 0.1895,0 0.242749,0.33372 c 1.145722,-0.95607 2.625293,-1.23677 4.157964,-1.71479 0.811848,-1.05467 2.14727,-1.82097 3.148792,-2.67077 0.576674,-0.47775 1.198822,-1.01675 1.289897,-1.87415 l -1.434046,-1.28987 c -0.758748,0.1515 -1.191247,0.6677 -1.813396,1.19125 -0.333724,0.14425 -0.902897,0.87252 -1.191247,0.0985 l 0.424799,-1.8058 1.289872,-1.72239 0.0985,-1.4871 c -0.713248,-0.90294 -2.003145,-1.28987 -3.103317,-1.28987 -1.87407,3.01219 -5.78166,2.48109 -7.306706,5.34914"
       style="fill:#2d2c2e;fill-opacity:1;fill-rule:nonzero;stroke:none"
       id="path3593"
       inkscape:connector-curvature="0" />
    <path
       d="m 51.949013,117.9884 0.500774,-0.98637 -2.169994,-2.07137 1.66922,3.05774 z"
       style="fill:#2d2c2e;fill-opacity:1;fill-rule:nonzero;stroke:none"
       id="path3595"
       inkscape:connector-curvature="0" />
    <path
       d="m 50.276018,114.92913 0.242749,-0.25052 -0.553548,0.41785 2.003094,3.66479 0.303675,-0.607 0.614573,-1.2216 -0.1895,-0.1895 -2.177619,-2.06382 -0.242749,0.25053 m 1.411296,1.84377 0.325874,0.31152 -0.07575,0.13625 -0.250049,-0.44787 z"
       style="fill:#2d2c2e;fill-opacity:1;fill-rule:nonzero;stroke:none"
       id="path3597"
       inkscape:connector-curvature="0" />
    <path
       d="m 130.99171,216.96414 3.48264,-0.10625 -0.6525,-0.88775 -2.83014,0.99398 z"
       style="fill:#2d2c2e;fill-opacity:1;fill-rule:nonzero;stroke:none"
       id="path3599"
       inkscape:connector-curvature="0" />
    <path
       d="m 133.70268,215.63252 -2.83772,0.99397 0.13675,0.69043 4.16549,-0.1285 -0.40953,-0.5463 -0.81184,-1.1002 -0.24275,0.091 m -0.015,0.75875 0.0985,0.1295 -0.50808,0.015 0.40953,-0.14425 m -2.70872,0.2205 0.0175,0.34897 -0.0175,-0.34897 z"
       style="fill:#2d2c2e;fill-opacity:1;fill-rule:nonzero;stroke:none"
       id="path3601"
       inkscape:connector-curvature="0" />
  </g>
</svg>
