<?xml version="1.0" encoding="UTF-8" standalone="no"?>
<svg
   xmlns:dc="http://purl.org/dc/elements/1.1/"
   xmlns:cc="http://creativecommons.org/ns#"
   xmlns:rdf="http://www.w3.org/1999/02/22-rdf-syntax-ns#"
   xmlns:svg="http://www.w3.org/2000/svg"
   xmlns="http://www.w3.org/2000/svg"
   height="252.39999"
   width="220.6282"
   id="svg25"
   version="1.1"
   viewBox="0 0 220.6282 252.39998">
  <metadata
     id="metadata29">
    <rdf:RDF>
      <cc:Work
         rdf:about="">
        <dc:format>image/svg+xml</dc:format>
        <dc:type
           rdf:resource="http://purl.org/dc/dcmitype/StillImage" />
        <dc:title>FAW_AI</dc:title>
      </cc:Work>
    </rdf:RDF>
  </metadata>
  <defs
     id="defs4">
    <style
       id="style2">.cls-1{isolation:isolate;}.cls-2{fill:#ee3129;mix-blend-mode:multiply;}.cls-3{fill:#00a750;}</style>
  </defs>
  <title
     id="title6">FAW_AI</title>
  <g
     transform="translate(-0.29178966,-86.79)"
     style="isolation:isolate"
     id="g23"
     class="cls-1">
    <g
       id="Badge">
      <g
         id="Dragon">
        <path
           style="mix-blend-mode:multiply;fill:#ee3129"
           id="path8"
           transform="translate(-45.79,-44.01)"
           d="m 194.27,153.75 c -4.26,3.36 -14.74,3.72 -19.62,2.46 0,0 13.79,-2.73 17.09,-6.07 -1.07,-1.22 -5.47,-2.82 -5.57,-2.88 -0.1,-0.06 22.22,-4.39 24.07,-5.61 -0.07,0.82 -0.71,5 -15.7,15.92 -0.36,-2.07 0.11,-3.18 -0.27,-3.82 z m -29.53,80.42 c 18.49,9.06 21.39,14.17 21.33,14.64 -4.68,37.76 38.62,37.25 44.76,18.25 -0.36,0.84 -4.4,5.82 -14.84,7.11 -25,3.07 -31.24,-24.11 -2.56,-30.9 6.79,-1.61 16,0.16 21.36,3.67 0,0 6.06,-9.95 13.86,-15.16 -2.21,-0.32 -6,-0.39 -9.6,-1.8 4.23,-1.36 18.85,-8.8 24.87,-21.3 0.2,1 2.06,17.28 -5.93,36.92 -0.33,-5.46 -2.63,-8.33 -4.7,-11.18 -4.3,4 -11.72,11.34 -13.07,18.06 6.36,10 4.47,21.8 0.49,28.72 -14.85,25.79 -54.9,24.25 -65,9.81 -1.25,12.2 4.06,20.82 21.08,29.14 -7.66,3.42 -13.95,3.76 -19.26,4.22 -1.43,2.13 -8.48,11.83 -8.7,12.14 5.12,-0.92 16.71,-3.12 21.47,-5.25 a 15.22,15.22 0 0 1 0.55,4.76 c 0,0 7,6.13 -0.08,19.08 0.08,-0.14 -0.43,-1.06 -0.49,-1.2 -0.39,-0.93 -0.79,-1.86 -1.2,-2.77 -0.41,-0.91 -1,-2.07 -1.48,-3.07 -0.32,-0.6 -1,-2.21 -1.72,-2.39 a 22.75,22.75 0 0 0 -4.35,-0.66 17.35,17.35 0 0 0 -6,0.7 c -10.07,3.17 -15.23,15.91 -10,24.71 v 0 a 4.16,4.16 0 0 0 -2.31,0.54 10.56,10.56 0 0 0 -4.16,4 27.69,27.69 0 0 0 -3.3,8.24 c -2.38,-1.88 -4.56,-6.71 -4.16,-10.52 0,-0.37 -3.6,-4.06 -3.81,-4.31 9,-12.88 8,-16.77 8.26,-16.79 -7,0.64 -13.49,12.51 -13.49,12.51 l -3.81,-2.65 c 0,0 -4.19,2.88 -2.29,7.48 -7.35,-4.31 -4.89,-9.26 -4.11,-12.38 -0.08,-0.08 -1.89,-2 -1.85,-2.08 0.71,-0.58 12.67,-5.25 17,-8.38 -3.27,-1.46 -11.58,-0.51 -14.31,4.83 l -4.24,-2.83 a 11.6,11.6 0 0 0 -4.3,6.77 c -2.26,-2.17 -2.84,-12.32 3.47,-13.23 0.27,0 0.72,-2.66 0.69,-2.81 l 25.22,-1.63 c 0,0 6.43,-10 6.71,-12.27 a 45.62,45.62 0 0 0 -13.71,2.34 c 0,0 -9.21,-11.65 -9.23,-13.05 3,-24.38 8.14,-36.89 8.14,-36.89 -5.91,1.69 -9.5,9.1 -13,24.31 a 18.15,18.15 0 0 1 -5.71,-8.51 L 116,296.76 c 0,0.08 7.63,9.11 8.3,9.73 l 2.91,0.31 c 0.63,6.65 -0.05,12.87 -5.24,16.75 2.39,-7.2 -1,-11.22 -1,-11.22 l -5.22,2.11 c 0,0 -1.41,-11.67 -10.89,-11.67 -4.72,0 -6.52,12.82 -6.52,12.82 0,0 -5.91,-0.86 -6,-0.76 -2.79,4.72 2.47,7 2.45,7 A 10.08,10.08 0 0 1 88,319.34 c -3,-3 -3.32,-7.36 -1.35,-11.17 0,0.14 10.49,-9.81 11.22,-11.28 -8,-5.22 -11.84,3.5 -12.3,3.95 0,0 -3.33,-0.64 -4.37,-0.81 0,0 -1.78,1.52 -0.62,6 -0.46,-0.19 -5.92,-4.94 -4.58,-11.57 0,0 1.39,-3.66 7.16,-4.42 l 11.88,-1.34 c -7.35,-7.54 -14,-1.37 -14,-1.49 0,-0.12 -2,-2.69 -2.86,-2.62 A 6.28,6.28 0 0 0 72,289.22 c -0.79,-1.45 -2.87,-6.91 3.07,-10.6 a 64.6,64.6 0 0 1 7.12,-1.92 c 0.08,0 9.15,1.45 12.87,2.18 0.08,0 10.25,8.54 11.42,9.34 0,0 10.45,-4.86 12.14,-5.5 0.43,-0.16 -18,-7 -18,-7 0,-1.48 3,-10.32 8.4,-14.51 2,-1.55 15,-2.74 23,-6.87 -4,-1.37 -16.35,-5.33 -23,-15 -0.22,-0.31 -0.81,11.6 -0.81,11.6 0,0 -16.73,-18.26 -24.35,-19.16 1,0.62 5.73,10.54 7.68,13.38 a 4.51,4.51 0 0 1 -2.1,0.84 c 0.63,5.23 -5.19,9.19 -12.11,7.09 2.64,-1.39 3.8,-4.13 4.23,-6.76 l -3.93,-2.07 c 0,0 2.45,-4.25 2,-5.49 -4.76,-13.09 -16.32,-1.9 -16.7,2.29 0,0 -3.92,-2.48 -3.94,-2.45 -2,2.39 -1.06,6.44 -0.18,9 -6.6,-3.31 -8.25,-15.21 -4.16,-19 0.26,-0.25 14.44,-4.6 14.47,-4.62 -3.9,-4.26 -10.44,-2.24 -10.44,-2.24 0,0 -2.47,-3.42 -2.66,-3.48 -1.51,0.46 -4,3.74 -4.39,6.1 -4.35,-3.68 -1.63,-13.37 4.04,-14.15 0.38,-0.06 10.6,2.09 12.21,2.25 -0.68,-4.33 -4.81,-10.52 -9.38,-8 0,0 2.61,-4.49 2.62,-4.47 l -8.51,0.42 c 5.29,-6.91 12.44,-7 19.62,-3.22 -0.11,1.33 5.48,16.68 6.66,18.57 1,1.65 17.77,2 19.31,2.23 a 8.6,8.6 0 0 1 -0.4,-2.39 c -1.22,-1.24 -8.38,-10.4 -8.66,-10.17 -0.28,0.23 -5.87,6.6 -6,6.8 C 80,200.29 90,195.79 79.59,178 c 0,0 -10.27,8.65 -10.32,8.66 -6.55,2.41 -11.95,1.3 -13.15,-5.79 2,3.51 8,1.52 8,1.52 0,0 -0.12,-4.39 -0.12,-4.39 14.68,-1.73 7.92,-15 3.32,-15.48 -3.57,-0.34 -9.47,2.31 -9.48,2.45 -0.01,0.14 -3.58,-1.28 -5.12,-1.35 -3.4,2.89 -3.83,4.55 -3.54,7.65 -5.06,-6.9 -3.73,-12.55 2.59,-17.48 0.17,0 15.5,0.82 16.69,-0.54 0.17,-0.68 1.87,-9.5 -9.18,-11.29 -0.06,-2 -0.11,-2.58 -0.18,-4.57 -3,0.63 -6.4,3.3 -7.3,6.31 -2.1,-4.7 0.62,-10.06 5.43,-11.87 4.81,-1.81 11.62,0 14.07,4.47 1.68,3.11 5.36,9.22 7.14,14.38 1.5,-1.21 7.44,-6.34 3.46,-12.62 3.13,-2.11 -2.71,-5.52 -5.72,-6.11 2.08,-1 8.44,-1 11.15,-0.33 2.91,0.73 5.31,4.54 6.6,7.49 -2.55,10.37 -6.74,23.28 -5.21,27.53 0.1,0.27 14.48,23.23 15.64,23.65 0.1,-0.22 3.94,-16.28 15.72,-19 l -19.87,2.21 a 31.72,31.72 0 0 1 13.68,-15.58 l -6.32,0.19 c -4.42,-2.9 -12.16,-13.06 -13.3,-25.39 8.31,5.2 15.32,5.92 25.11,6 -3.66,-1.48 -7.61,-6.88 -7.61,-6.88 0,0 18,2.16 18.3,2.16 1,0 19.19,-2.36 20.39,-2.65 0.58,-0.14 7,4 7.39,3.84 1,-0.32 16.77,-4.09 17.84,-4.39 1.23,2.91 7.29,1.27 10.44,1.18 5,-0.15 8.15,4.28 9.79,9.08 -5.89,-2.17 -12,2.25 -17,9.74 -9.72,-5.5 -21.36,-4.08 -23.13,8.41 10.43,-3.14 19.08,5.56 24.51,-0.43 3.35,10.38 -9.9,14.53 -16.49,17.42 0,0 -1.67,-5.73 -1.69,-5.72 -0.47,0.09 -16.73,6.45 -13.11,17.7 0.05,0.09 53.84,-13.5 75.51,-56.28 5.12,6.19 2,18.85 1.3,21.7 0,0.06 31.06,-16.43 40.89,-22.29 -0.25,1.69 -13.71,49.12 -2.32,67.69 -21.19,2.57 -33.12,21.88 -34.17,38.69 -16.34,-5.18 -33.48,3 -37.22,10.44 -5.14,-7.2 -19.07,-13.13 -28.26,-13.96 z m 4.81,-95 6.82,0.37 c 0,0 3.7,-3.25 3.67,-3.25 -0.91,-2 -8,0.45 -8,0.45 z m -17.28,4 c 0,0 1.93,-5 1.93,-5 l -3.59,-0.8 a 81.48,81.48 0 0 1 -13.1,1.82 c -0.09,0 9,1.59 9,1.59 -0.36,2.52 4.25,3.01 5.76,2.34 z M 229,258.75 c -1.16,-8.58 -23.13,-4.12 -23,2.52 0.22,8.21 23.31,2.89 23,-2.52 z"
           class="cls-2" />
      </g>
    </g>
  </g>
</svg>
