<?xml version='1.0' ?><svg xmlns='http://www.w3.org/2000/svg' xmlns:xlink='http://www.w3.org/1999/xlink' version='1.1'><defs><clipPath id='kdef1'><path     d="M8 8 L 510 8 510 510 8 510Z"  stroke="none"  fill="none" ></path></clipPath></defs><g transform="matrix(1,0,0,1,0,0)" ><g transform="matrix(1,0,0,1,-8,-8)" ><g><g clip-path="url(#kdef1)" ></g><path     d="M8.5 8.5 L 509.5 8.5 509.5 509.5 8.5 509.5Z"  stroke="rgba(0, 0, 0, 1)"  stroke-width="1"  fill="none" ></path><g transform="matrix(1,0,0,1,8,8)" ><g><path     d="M16 208 L 17 208 18 208 19 208 22 208 25 208 27 208 32 208 36 208 43 207 48 207 54 204 60 204 64 203 67 202 72 200 75 199 81 198 84 195 87 195 91 192 94 191 98 188 101 186 102 185 104 183 106 181 106 179 107 176 109 172 109 169 109 167 109 165 109 163 109 161 109 160 109 159 109 158 108 156 107 154 105 154 100 154 94 153 88 153 81 153 75 153 67 155 60 158 56 159 51 160 47 163 44 165 42 167 37 172 35 177 33 180 32 184 29 188 27 193 25 201 24 203 24 207 23 208 23 211 22 215 20 222 20 226 20 229 18 234 18 237 17 241 17 246 15 251 14 254 14 258 13 260 12 262 11 265 10 266 10 267 9 267 9 266 9 262 9 258 13 254 16 248 20 244 23 241 26 238 29 236 32 234 34 234 35 233 36 233 38 232 40 232 41 232 42 233 42 237 42 245 41 251 39 256 38 261 37 262 36 264 35 265 35 266 36 266 38 266 40 264 44 260 48 257 52 255 56 251 58 249 60 247 62 244 64 241 66 238 67 238 68 237 67 240 65 243 62 247 59 252 58 255 56 258 56 260 58 260 63 260 66 260 68 258 72 256 75 254 77 252 80 249 82 247 84 245 86 243 87 242 87 241 87 244 86 246 85 248 84 251 83 253 83 254 83 255 83 256 83 257 84 257 86 257 91 257 100 253 106 251 111 248 114 247 118 244 119 243 119 242 119 243 119 246 117 248 117 250 115 252 115 253 115 254 115 255 115 256 118 256 123 256 131 254 139 252 147 248 153 245 155 245 157 243 159 242 160 241 159 242 156 245 150 252 144 258 135 267 120 281 111 289 105 293 99 297 94 300 91 302 90 302 88 303 87 304 86 304 85 304 82 304 82 301 82 295 82 289 85 281 91 272 95 268 99 264 102 262 107 260 115 258 134 255 143 253 155 251 163 250 173 248 180 248 186 246 189 245 192 245 194 243 197 243 198 242 199 242 199 241 200 241 200 240 200 239 200 237 198 237 195 237 192 239 188 241 186 243 185 244 184 246 183 247 183 248 184 248 185 248 186 248 189 248 192 248 196 248 201 246 207 245 215 242 221 241 226 239 232 238 235 237 236 237 233 244 231 246 225 254 223 256 222 257 223 257 223 256 229 252 237 246 243 243 250 240 252 239 253 239 254 239 254 243 253 247 253 249 252 252 251 253 252 253 255 253"  stroke="#E4141B"  stroke-width="2"  stroke-linecap="round"  stroke-linejoin="round"  fill="none" ></path></g></g></g></g></g></svg>