<svg
   xmlns="http://www.w3.org/2000/svg"
   version="1.0"
   width="149.9998"
   height="199.99982">
  <path
     style="opacity:1;fill:#e10000;fill-opacity:1;stroke:#000000;stroke-width:5.72100019;stroke-linecap:round;stroke-linejoin:miter;stroke-miterlimit:4;stroke-dasharray:none;stroke-opacity:1"
     d="M 74.999921,2.8605001 C 35.178952,2.8605001 2.8605001,34.397978 2.8605001,73.256629 C 2.8605001,79.37889 3.6575449,85.314767 5.1649528,90.978874 C 21.627093,75.019259 46.803622,64.809097 74.999921,64.809097 C 103.19617,64.809097 128.37268,75.019259 144.83483,90.978874 C 146.34225,85.314767 147.13931,79.37889 147.13931,73.256629 C 147.13931,34.397978 114.82085,2.8605001 74.999921,2.8605001 z"
      />
  <path
     style="fill:#ffffff;fill-opacity:1;stroke:#000000;stroke-width:5.72100019;stroke-linecap:round;stroke-linejoin:miter;stroke-miterlimit:4;stroke-dasharray:none;stroke-opacity:1"
     d="M 74.999908,77.380499 C 47.791253,77.380502 24.029882,88.955765 11.249999,106.16387 C 21.862144,125.69264 41.588763,139.75856 64.906172,142.94783 L 64.906172,197.13932 L 85.093644,197.13932 L 85.093644,142.94783 C 108.41103,139.75856 128.13769,125.69264 138.74982,106.16387 C 125.96995,88.955762 102.20853,77.380499 74.999908,77.380499 z"
      />
</svg>
