<?xml version="1.0" standalone="no"?>
<!DOCTYPE svg PUBLIC "-//W3C//DTD SVG 20010904//EN"
 "http://www.w3.org/TR/2001/REC-SVG-20010904/DTD/svg10.dtd">
<svg version="1.0" xmlns="http://www.w3.org/2000/svg"
 width="504.000000pt" height="504.000000pt" viewBox="0 0 504.000000 504.000000"
 preserveAspectRatio="xMidYMid meet">
<metadata>
Created by potrace 1.11, written by Peter Selinger 2001-2013
</metadata>
<g transform="translate(0.000000,504.000000) scale(0.100000,-0.100000)"
fill="#000000" stroke="none">
<path d="M0 2520 l0 -2520 2520 0 2520 0 0 2520 0 2520 -2520 0 -2520 0 0
-2520z m3185 1435 c290 -50 510 -118 710 -217 143 -71 164 -95 184 -208 19
-99 26 -369 12 -413 -9 -25 -42 -63 -109 -125 -91 -83 -192 -170 -255 -219
l-28 -21 82 -169 c111 -231 249 -539 255 -572 7 -34 -48 -111 -90 -126 -26 -9
-32 -6 -65 32 -41 49 -165 241 -337 525 -98 163 -120 193 -126 175 -3 -12 -6
-80 -7 -152 -2 -202 -21 -559 -30 -568 -11 -11 -86 57 -140 127 -40 52 -41 54
-51 172 -9 101 -70 1321 -70 1391 0 24 -2 24 -80 22 -44 -1 -83 0 -86 3 -9 9
-24 122 -24 178 0 60 21 153 40 176 17 20 54 18 215 -11z m-2051 -22 c20 -52
28 -334 23 -795 l-6 -498 48 0 c26 0 89 3 139 6 l92 7 0 461 c0 268 4 488 10
526 18 111 119 228 248 288 84 38 84 39 83 -234 0 -126 -5 -314 -11 -419 -17
-329 -30 -529 -36 -572 l-5 -43 46 0 c25 0 55 -5 66 -11 24 -12 23 -30 -17
-206 l-26 -113 -47 0 -48 0 -7 -92 c-12 -167 -50 -422 -65 -447 -15 -24 -66
15 -117 90 l-49 71 -9 197 c-5 108 -9 197 -10 198 -2 3 -289 34 -292 31 -1 -2
-8 -89 -14 -193 -11 -203 -27 -372 -36 -386 -13 -22 -51 -6 -95 40 -81 85 -88
106 -105 329 -21 283 -13 257 -87 272 -54 10 -68 18 -109 61 -31 31 -48 58
-48 73 0 22 5 25 58 31 151 16 152 16 152 35 0 10 -7 128 -16 262 -9 134 -17
362 -18 508 -1 261 -1 266 23 314 43 88 200 225 257 226 12 0 25 -8 28 -17z
m1541 -48 c67 -48 204 -186 206 -206 4 -48 -43 -207 -141 -474 -54 -146 -256
-669 -349 -904 -34 -84 -60 -156 -57 -159 3 -2 99 5 213 17 114 12 228 21 252
21 l44 0 -6 -40 c-6 -45 -74 -189 -109 -233 -23 -27 -26 -28 -173 -37 -82 -5
-208 -10 -278 -10 l-129 0 -32 33 c-18 17 -43 59 -55 91 l-22 60 42 140 c23
77 98 303 166 501 146 424 203 602 234 743 20 89 21 104 9 116 -23 22 -95 -10
-302 -135 -99 -60 -187 -110 -196 -111 -21 -4 -30 30 -31 119 -2 125 12 165
77 224 87 78 310 222 398 257 131 52 150 51 239 -13z m604 -2316 c44 -130 81
-241 81 -246 0 -25 -155 -67 -326 -87 -148 -18 -269 -53 -391 -115 -94 -47
-141 -84 -159 -126 -11 -26 -13 8 -14 246 0 354 2 360 170 437 105 48 176 67
305 82 55 7 131 22 170 34 38 13 73 20 76 17 3 -3 43 -112 88 -242z m-1311
181 c229 -27 409 -105 452 -197 18 -39 20 -64 20 -310 0 -266 0 -268 -19 -237
-22 36 -88 80 -195 129 -109 50 -198 73 -366 95 -80 10 -182 31 -228 45 -76
24 -82 28 -76 48 4 12 42 126 86 253 l79 231 75 -23 c41 -12 119 -28 172 -34z
m-116 -555 c68 -8 152 -22 187 -31 67 -16 225 -73 219 -79 -2 -2 -36 5 -75 15
-110 29 -211 40 -361 40 -87 0 -167 6 -220 16 l-83 17 7 31 c14 67 14 67 113
35 50 -16 145 -36 213 -44z m1547 44 c20 -57 15 -66 -36 -79 -27 -6 -147 -15
-268 -20 -205 -8 -289 -20 -400 -55 -11 -3 -4 3 15 13 68 38 197 72 346 92 93
12 183 31 235 48 46 16 87 30 91 31 3 0 11 -13 17 -30z m-1809 -139 c25 -6
128 -13 230 -16 180 -4 289 -19 380 -49 40 -14 41 -15 10 -10 -114 16 -300 16
-392 1 -102 -17 -294 -21 -316 -8 -8 6 -10 22 -6 55 6 41 9 46 28 42 11 -3 41
-10 66 -15z m1824 -25 c4 -25 4 -49 1 -55 -9 -15 -217 -12 -320 5 -132 22
-325 17 -430 -11 -15 -4 -17 -3 -5 4 8 6 53 20 100 32 67 17 131 24 300 31
118 5 242 15 275 23 33 8 63 14 66 15 4 1 10 -19 13 -44z m-1219 -84 c29 -5
-1 -9 -110 -13 -125 -5 -167 -11 -255 -36 -134 -39 -208 -52 -287 -52 l-63 0
0 33 c0 54 5 56 140 56 69 0 161 7 205 15 81 16 281 14 370 -3z m885 3 c53 -9
151 -16 223 -15 l127 0 0 -46 0 -46 -97 6 c-63 4 -136 16 -203 35 -149 43
-208 52 -339 53 -129 1 -133 6 -15 18 126 13 202 12 304 -5z"/>
<path d="M3449 3493 c0 -32 -6 -186 -13 -343 -7 -157 -11 -287 -9 -289 6 -8
182 171 279 283 92 107 154 191 154 209 0 19 -61 65 -132 99 -59 29 -252 98
-273 98 -3 0 -5 -26 -6 -57z"/>
</g>
</svg>
